<svg width="30" height="52" viewBox="0 0 30 52" fill="none" xmlns="http://www.w3.org/2000/svg">
<path d="M1.99969 39.9998L0.499692 39.9998L0.499691 41.4998L1.99968 41.4998L1.99969 39.9998ZM28.8081 41.0606C29.3939 40.4749 29.3939 39.5251 28.8081 38.9393L19.2622 29.3933C18.6765 28.8075 17.7267 28.8075 17.1409 29.3933C16.5551 29.9791 16.5551 30.9289 17.1409 31.5146L25.6262 40L17.1408 48.4852C16.555 49.071 16.555 50.0207 17.1408 50.6065C17.7266 51.1923 18.6764 51.1923 19.2621 50.6065L28.8081 41.0606ZM0.499695 -0.000152784L0.499692 39.9998L3.49969 39.9999L3.49969 -0.000152288L0.499695 -0.000152784ZM1.99968 41.4998L27.7475 41.5L27.7475 38.5L1.9997 38.4998L1.99968 41.4998Z" fill="white"/>
</svg>
