<svg width="84" height="84" viewBox="0 0 84 84" fill="none" xmlns="http://www.w3.org/2000/svg">
<path d="M82.1149 0.374063C81.8009 0.374063 81.4887 0.454289 81.2124 0.605719C78.8268 1.91166 76.1276 2.60203 73.4066 2.60203H68.6898C66.5881 2.60203 64.4756 2.79973 62.411 3.18937C60.3458 3.57902 58.306 4.16489 56.3484 4.93106C51.4154 6.86191 48.2278 11.5323 48.2278 16.8295V19.6186C48.2278 21.4353 47.5483 23.1487 46.3378 24.4599V22.1304C46.3378 21.4508 45.7869 20.8999 45.1073 20.8999C44.4278 20.8999 43.8769 21.4508 43.8769 22.1304V43.8311L42 44.4206L40.1231 43.8309V13.0792C40.719 13.2541 41.3483 13.3498 42 13.3498C42.6517 13.3498 43.281 13.2541 43.8769 13.0792V16.3882C43.8769 17.0678 44.4278 17.6187 45.1073 17.6187C45.7869 17.6187 46.3378 17.0678 46.3378 16.3882V11.7418C47.7668 10.5166 48.6749 8.7004 48.6749 6.67488C48.6749 2.9943 45.6806 0 42 0C38.3194 0 35.3251 2.9943 35.3251 6.67488C35.3251 8.7004 36.2332 10.5166 37.6622 11.7418V24.4601C36.4519 23.1492 35.7722 21.4356 35.7722 19.6188V16.8297C35.7722 11.5324 32.5846 6.86208 27.6516 4.93123C25.6938 4.16522 23.6542 3.57919 21.5896 3.1897C19.9963 2.88832 18.3599 2.70096 16.7265 2.63271C16.0524 2.60482 15.4742 3.13195 15.4458 3.81101C15.4176 4.4899 15.9451 5.0633 16.6241 5.09168C18.1388 5.15468 19.6555 5.32842 21.1329 5.60782C23.0478 5.96909 24.9395 6.51246 26.7548 7.22285C30.7378 8.78177 33.3112 12.5528 33.3112 16.8297V19.6188C33.3112 22.5448 34.619 25.275 36.8996 27.1094L37.6622 27.7221V30.1837H35.5548C35.4736 30.0065 35.3195 29.7493 35.2208 29.5774C33.4363 26.4864 29.4697 25.4238 26.3788 27.2083C25.1304 27.929 24.127 28.9639 23.4437 30.1837H22.8757C21.4763 30.1837 20.1382 29.7485 19.0063 28.9252C17.4202 27.7714 16.4323 25.9573 16.3111 24.0115H25.1836C25.8631 24.0115 26.4141 23.4606 26.4141 22.7811C26.4141 22.1015 25.8631 21.5506 25.1836 21.5506H15.9756C14.576 21.5506 13.2379 21.1155 12.1063 20.2922C10.4998 19.1236 9.50808 17.2773 9.408 15.3033C9.81947 15.3512 10.2349 15.3781 10.6544 15.3781H18.2472C18.9267 15.3781 19.4777 14.8271 19.4777 14.1476C19.4777 13.4681 18.9267 12.9171 18.2472 12.9171H10.6542C9.50693 12.9171 8.39459 12.683 7.34852 12.2215C6.29885 11.7577 5.37584 11.0944 4.60458 10.2495C3.22219 8.73649 2.46094 6.7743 2.46094 4.72336V3.20381C5.09119 4.47464 8.00887 5.10809 10.9331 5.06297C11.6127 5.06297 12.1636 4.51205 12.1636 3.8325C12.1636 3.15295 11.6127 2.60203 10.9331 2.60203C8.0996 2.65207 5.27231 1.96941 2.78808 0.605883C2.5113 0.454289 2.19909 0.374063 1.88508 0.374063C0.845578 0.374063 0 1.21898 0 2.2575V4.72336C0 7.3902 0.990117 9.94219 2.78742 11.9086C3.78984 13.0069 4.9898 13.8694 6.35447 14.4723C6.54675 14.5571 6.74133 14.6345 6.93689 14.7075C6.8583 17.6766 8.25185 20.5365 10.6585 22.2818C11.6258 22.9855 12.7029 23.4826 13.8418 23.7581C13.89 26.5834 15.2696 29.2497 17.5588 30.915C19.0296 31.985 20.7541 32.5771 22.5635 32.6383C22.5133 32.9167 22.4749 33.1985 22.4546 33.4845C22.4052 34.1767 22.3071 34.7204 22.1455 35.1953C21.7754 36.2831 21.5877 37.412 21.5877 38.5504C21.5869 43.1778 24.5631 47.2187 28.982 48.5917C25.9614 50.0033 24.0007 53.0257 24.0007 56.4359C24.0007 59.0262 25.149 61.4613 27.1509 63.1165C27.6747 63.5494 28.4502 63.4758 28.8834 62.9523C29.3163 62.4286 29.2428 61.6529 28.7191 61.2198C27.2846 60.0337 26.4618 58.2899 26.4618 56.4357C26.4618 53.7119 28.2078 51.3327 30.8057 50.5155L53.4255 43.4116C55.5588 42.7409 56.9922 40.7869 56.9922 38.5398C56.9922 37.5219 56.4437 36.5735 55.5619 36.065L51.4123 33.6678C50.5219 33.1541 50.2156 32.0114 50.7276 31.1238L50.9115 30.8073C51.4472 29.8796 52.3121 29.2156 53.3469 28.9382C54.382 28.6606 55.4626 28.8026 56.3901 29.3381C57.1722 29.7898 57.8337 30.4326 58.3024 31.1962C58.7562 31.9366 59.0287 32.7882 59.0906 33.66C59.1557 34.5675 59.2938 35.3072 59.5252 35.9873C59.8085 36.8209 59.952 37.6829 59.952 38.5496C59.952 42.0865 57.6855 45.1743 54.3121 46.2333L31.7446 53.3226C30.5914 53.6855 29.7268 54.6241 29.4878 55.7755C29.1638 57.3587 30.0649 58.9578 31.5838 59.4955L40.4301 62.6241C45.6506 64.4713 49.1813 69.4324 49.2158 74.9698C49.2214 75.8049 48.5801 76.5045 47.7844 76.5291C46.9616 76.568 46.2561 75.8699 46.2561 75.0502C46.2561 70.7334 43.5181 66.8548 39.4424 65.4129L33.6215 63.3555C32.981 63.1291 32.2778 63.4648 32.0514 64.1056C31.825 64.7463 32.1608 65.4493 32.8015 65.6757L34.924 66.4258C33.2586 68.9491 32.3426 71.9312 32.3239 74.9536C32.3105 77.1123 34.0216 78.9226 36.1382 78.9892C36.6626 79.0068 37.1841 78.916 37.6625 78.7341V79.5541C37.6622 82.0057 39.6081 84 42 84C44.3919 84 46.3378 82.0057 46.3378 79.5544V78.728C46.8136 78.9114 47.337 79.0069 47.8624 78.9889C49.9798 78.9231 51.6907 77.1128 51.6764 74.9541C51.657 71.8541 50.7135 68.9069 49.0722 66.4274L54.2236 64.6055C57.6785 63.3836 59.9998 60.1004 59.9998 56.4359C59.9998 53.0245 58.0384 50.0022 55.0167 48.5915L55.049 48.5814C59.4536 47.1987 62.4128 43.1673 62.4128 38.5496C62.4128 37.4131 62.2251 36.2847 61.8552 35.1953C61.6934 34.7196 61.5948 34.1757 61.5453 33.485C61.5251 33.2007 61.4872 32.9182 61.4365 32.6383C63.2461 32.5771 64.9706 31.985 66.4415 30.915C68.7305 29.2497 70.1103 26.5834 70.1584 23.7581C71.2971 23.4826 72.3742 22.9857 73.3417 22.2818C75.7483 20.5364 77.1419 17.6764 77.0633 14.7074C77.2595 14.6342 77.4544 14.5566 77.6475 14.4715C78.6017 14.0487 79.4824 13.4943 80.2648 12.8239C80.7808 12.3816 80.8405 11.605 80.3983 11.0888C79.956 10.5728 79.1792 10.5131 78.6632 10.9553C78.0629 11.4698 77.3858 11.8958 76.6525 12.2207C75.6057 12.6824 74.4934 12.9166 73.3461 12.9166H65.7533C65.0738 12.9166 64.5228 13.4676 64.5228 14.1471C64.5228 14.8267 65.0738 15.3776 65.7533 15.3776H73.3461C73.7656 15.3776 74.181 15.3508 74.5925 15.3028C74.4922 17.2768 73.5007 19.1231 71.8942 20.2917C70.7625 21.115 69.4244 21.5501 68.0249 21.5501H58.8167C58.1372 21.5501 57.5863 22.101 57.5863 22.7806C57.5863 23.4601 58.1372 24.011 58.8167 24.011H67.6892C67.568 25.9568 66.5802 27.771 64.9942 28.9247C63.8623 29.748 62.5242 30.1832 61.1248 30.1832H60.5571C59.8762 28.9474 58.8456 27.9169 57.6209 27.207C54.5303 25.423 50.5646 26.4862 48.782 29.5739C48.6818 29.7472 48.5271 30.0041 48.4452 30.1831H46.3378V27.7228L47.1009 27.1084C49.381 25.2743 50.6888 22.5443 50.6888 19.6183V16.8292C50.6888 12.5523 53.2624 8.78128 57.2452 7.22236C59.0605 6.5118 60.952 5.96843 62.8673 5.60716C64.7817 5.24573 66.7408 5.06248 68.6897 5.06248H73.4065C76.2184 5.06248 79.01 4.42214 81.5391 3.20332V4.72287C81.5391 5.39552 81.4567 6.06326 81.2941 6.70737C81.1279 7.36641 81.5274 8.03529 82.1863 8.20132C82.8455 8.36784 83.5142 7.96802 83.6802 7.30915C83.8925 6.46898 84 5.5988 84 4.72336V2.2575C84 1.21898 83.1544 0.374063 82.1149 0.374063ZM42 2.46094C44.3236 2.46094 46.2139 4.35127 46.2139 6.67488C46.2139 8.9985 44.3236 10.8888 42 10.8888C39.6764 10.8888 37.7861 8.9985 37.7861 6.67488C37.7861 4.35127 39.6764 2.46094 42 2.46094ZM36.2153 76.5301C35.4213 76.5051 34.7794 75.8051 34.7847 74.9695C34.8018 72.2177 35.7026 69.5054 37.3295 67.2766L38.6218 67.7334C39.164 67.9252 39.6741 68.1747 40.1482 68.4718C38.61 70.3059 37.7434 72.6505 37.7434 75.0512C37.7434 75.4553 37.5836 75.8326 37.2934 76.114C37.0033 76.3949 36.6212 76.5422 36.2153 76.5301ZM42 81.5391C40.9651 81.5391 40.1231 80.6487 40.1231 79.5544V75.8535C40.1766 75.5926 40.2043 75.3241 40.2043 75.051C40.2043 73.2449 40.8519 71.4806 42.0013 70.0929C43.1332 71.4569 43.7948 73.1993 43.7948 75.0504C43.7948 75.3188 43.8236 75.5841 43.8769 75.8427V79.5546C43.8769 80.6487 43.0349 81.5391 42 81.5391ZM51.5174 55.6712C51.8167 55.7652 52.0459 56.0006 52.1017 56.2713C52.1811 56.6569 51.9635 57.0455 51.5957 57.1756L46.3378 59.0353V54.044L51.5174 55.6712ZM31.8975 56.2726C31.954 56.0009 32.1838 55.7645 32.4822 55.6705L37.662 54.0433V59.0353L32.4043 57.1758C32.0306 57.0435 31.8178 56.6623 31.8975 56.2726ZM40.1231 59.9056V53.2703L41.9992 52.681L43.8769 53.2709V59.9056L42.7499 60.3041C42.4979 60.3932 42.2469 60.4915 41.9989 60.5939C41.7524 60.4921 41.5037 60.394 41.2504 60.3045L40.1231 59.9056ZM51.0479 49.8424L53.1937 50.5165C55.7926 51.333 57.5387 53.7118 57.5387 56.4359C57.5387 59.0597 55.8767 61.4104 53.403 62.2853L47.4623 64.3865C46.6901 63.5573 45.8271 62.809 44.8841 62.1597L52.4163 59.4956C53.937 58.9578 54.8381 57.3584 54.5122 55.775C54.2757 54.6258 53.4107 53.6863 52.2552 53.3233L46.105 51.3913L51.0423 49.8402L51.0479 49.8424ZM37.6622 43.0579L31.3131 41.0634C30.2098 40.7169 29.4686 39.7069 29.4686 38.5522C29.4687 38.4034 29.549 38.265 29.6778 38.1905L33.8189 35.7998C35.019 35.1068 35.7604 33.9212 35.9379 32.6445H37.662L37.6622 43.0579ZM24.0486 38.5504C24.0486 37.6822 24.1922 36.8201 24.4752 35.9879C24.7067 35.3077 24.8445 34.5678 24.9093 33.6596C25.0377 31.8562 26.0472 30.2411 27.6094 29.3393C29.5252 28.2334 31.8434 28.8496 33.0896 30.8077C33.5655 31.5553 33.6266 33.0803 32.5884 33.6686L28.4473 36.0593C27.5607 36.5713 27.0091 37.5252 27.0078 38.5506C27.0078 40.7874 28.4415 42.7409 30.5757 43.4113L37.894 45.7103L32.9567 47.261L29.6888 46.2343C26.3151 45.1743 24.0486 42.0865 24.0486 38.5504ZM48.0621 32.6443C48.2398 33.9212 48.9813 35.1068 50.1816 35.7991L54.3316 38.1965C54.4546 38.2674 54.5311 38.399 54.5311 38.5498C54.5311 39.7069 53.79 40.7172 52.6875 41.064L46.3378 43.0582V32.6443H48.0621Z" fill="white"/>
</svg>
