<svg width="38" height="40" viewBox="0 0 38 40" fill="none" xmlns="http://www.w3.org/2000/svg">
<path d="M35.123 24.8737C35.824 24.0464 35.6916 22.8262 34.8271 22.1483C34.3005 21.7354 33.5943 21.6036 32.948 21.7977C32.7163 21.5231 32.4812 21.2484 32.2299 20.9727C36.3007 17.4808 38.2551 13.9407 37.0002 11.5222C35.7453 9.10368 31.618 8.45506 26.2525 9.45059C25.1215 4.2996 22.9006 0.887859 20.0987 0.712272C17.2968 0.536685 14.6651 3.64693 12.9059 8.61809C12.0437 8.34178 11.191 8.0992 10.3789 7.91962C6.21989 7.00057 3.24164 7.50159 1.98601 9.32665C0.974693 10.7939 1.21457 12.8927 2.64616 15.4062C1.94744 16.233 2.08125 17.451 2.945 18.1267C3.47139 18.5385 4.17657 18.6692 4.82164 18.4745C5.05272 18.749 5.28716 19.0236 5.53778 19.2993C1.46429 22.7904 -0.489408 26.3305 0.76548 28.7491C1.55049 30.2561 3.44266 31.0767 6.0579 31.2405C7.88903 31.3215 9.7223 31.1806 11.5145 30.8214C12.6415 35.9702 14.8625 39.3819 17.6644 39.5575C20.4663 39.7331 23.0979 36.6229 24.8606 31.6519C25.7227 31.9282 26.5754 32.1708 27.3875 32.3504C28.3273 32.5644 29.2831 32.7057 30.2456 32.7726C32.9081 32.9394 34.8291 32.3162 35.7723 30.9428C36.7876 29.4777 36.5488 27.3829 35.123 24.8737ZM33.5847 23.0062C33.9568 23.0295 34.2403 23.3383 34.2179 23.6958C34.1955 24.0534 33.8757 24.3243 33.5035 24.301C33.1314 24.2777 32.8478 23.9689 32.8702 23.6114C32.8926 23.2538 33.2125 22.9829 33.5847 23.0062ZM25.6543 15.2296C24.9052 14.6926 24.1394 14.1643 23.3466 13.6551C22.5539 13.1459 21.7485 12.6762 20.9463 12.221C22.336 11.7323 23.7536 11.3192 25.1924 10.9837C25.4294 12.39 25.5835 13.8075 25.6543 15.2296ZM20.0175 2.00711C22.0149 2.13228 23.9249 5.00977 24.9463 9.71842C23.0662 10.1518 21.22 10.7093 19.4209 11.387C17.7257 10.4938 15.9693 9.71287 14.1642 9.04988C15.7637 4.50093 18.0196 1.88191 20.0175 2.00711ZM13.7573 10.286C15.1394 10.7924 16.4914 11.3728 17.8068 12.0242C16.9651 12.3719 16.1162 12.7481 15.2601 13.1529C14.4039 13.5577 13.5756 13.9791 12.7752 14.4173C13.0218 13.0233 13.3496 11.6439 13.7573 10.286ZM4.60861 17.1456C4.48406 17.2317 4.33194 17.2735 4.1784 17.2636C3.80626 17.2403 3.52271 16.9315 3.54512 16.5739C3.55641 16.3708 3.66871 16.1859 3.84687 16.0768C3.85322 16.0726 3.86135 16.0725 3.86837 16.0684C3.9833 15.9941 4.12105 15.959 4.25954 15.9688C4.63158 15.9937 4.91371 16.3037 4.88961 16.6611C4.87652 16.8553 4.77336 17.0332 4.60861 17.1456ZM5.34998 15.0067C5.05001 14.8114 4.70154 14.6964 4.34069 14.6739C4.15126 14.662 3.96115 14.6756 3.77597 14.7146C2.64948 12.7084 2.41161 11.0634 3.11323 10.0473C4.02429 8.72252 6.56259 8.40842 10.0765 9.18369C10.8552 9.35533 11.6674 9.58692 12.4955 9.85526C11.9587 11.6292 11.5498 13.4371 11.2716 15.2662C9.62748 16.2243 8.05437 17.2901 6.56343 18.4562C6.33683 18.2074 6.10956 17.9585 5.89982 17.7108C6.5242 16.8219 6.27805 15.6113 5.34998 15.0067ZM10.7023 22.3197C9.57078 21.408 8.49205 20.4372 7.47093 19.412C8.61123 18.5232 9.80292 17.6969 11.0403 16.9371C10.9344 17.814 10.8527 18.711 10.7953 19.6281C10.738 20.5423 10.7086 21.4426 10.7023 22.3197ZM1.97317 28.1748C1.0793 26.451 2.71324 23.4361 6.43728 20.2533C7.7761 21.5956 9.20728 22.8499 10.7211 24.0075C10.7692 25.8673 10.9512 27.7222 11.2655 29.5591C6.36273 30.4784 2.86772 29.8986 1.97317 28.1748ZM12.1088 25.0402C12.8578 25.5778 13.6237 26.1061 14.4164 26.6147C15.2092 27.1232 16.0146 27.5936 16.8168 28.0488C15.4271 28.5375 14.0094 28.9506 12.5706 29.2861C12.3338 27.8798 12.1796 26.4622 12.1088 25.0402ZM17.7455 38.2627C15.7482 38.1375 13.8375 35.2593 12.8168 30.5501C14.6966 30.1172 16.5424 29.5597 18.3409 28.8814C20.0366 29.775 21.7934 30.5563 23.5989 31.2199C21.9994 35.7688 19.7435 38.3879 17.7455 38.2627ZM24.0058 29.9838C22.6236 29.4774 21.2717 28.8971 19.9563 28.2455C20.798 27.8979 21.6469 27.5217 22.503 27.1169C23.3591 26.7121 24.1874 26.2907 24.9879 25.8525C24.7413 27.2465 24.4134 28.6258 24.0058 29.9838ZM25.2514 24.2057C24.204 24.8024 23.0849 25.3881 21.8995 25.9527C20.7141 26.5167 19.5552 27.0173 18.4228 27.4546C17.334 26.8664 16.2411 26.2247 15.1607 25.533C14.0804 24.8413 13.0441 24.1167 12.053 23.3728C12.0364 22.2018 12.0634 20.9815 12.143 19.7126C12.2225 18.4437 12.3482 17.2251 12.5116 16.0641C13.5591 15.4674 14.6782 14.8817 15.8636 14.3171C17.049 13.7525 18.2093 13.2551 19.3402 12.8152C20.4291 13.4034 21.522 14.0451 22.6023 14.7368C23.6827 15.4284 24.7197 16.1518 25.7102 16.8957C25.7268 18.0667 25.6996 19.2882 25.6201 20.5572C25.5406 21.8261 25.4148 23.0447 25.2514 24.2057ZM35.7899 12.095C36.6838 13.8188 35.0498 16.8337 31.3258 20.0165C29.987 18.6742 28.5558 17.4199 27.042 16.2623C26.9938 14.4026 26.8119 12.5475 26.4976 10.7106C31.4003 9.79139 34.8953 10.3711 35.7899 12.095ZM27.0608 17.9488C28.1937 18.86 29.2741 19.8298 30.2971 20.8542C29.1553 21.7443 27.9619 22.5718 26.7227 23.3327C26.8286 22.4563 26.9103 21.5593 26.9678 20.6416C27.0251 19.7268 27.0545 18.8272 27.0608 17.9488ZM34.6498 30.2225C33.7381 31.5466 31.2012 31.8608 27.6866 31.0861C26.9079 30.9144 26.0957 30.6829 25.2676 30.4145C25.8043 28.6406 26.2133 26.8327 26.4915 25.0036C28.1362 24.045 29.7098 22.9786 31.2011 21.8117C31.4328 22.066 31.649 22.3188 31.8631 22.572C31.663 22.855 31.5454 23.1848 31.5225 23.5269C31.4553 24.5996 32.3059 25.5259 33.4224 25.5959C33.608 25.605 33.7939 25.589 33.9747 25.5486C35.1018 27.5555 35.3514 29.2064 34.6498 30.2225Z" fill="#0779B9"/>
<path d="M19.0438 17.5452C17.5552 17.4519 16.2757 18.5357 16.1861 19.966C16.0965 21.3962 17.2306 22.6313 18.7192 22.7246C20.2079 22.8179 21.4873 21.734 21.577 20.3038C21.6666 18.8736 20.5325 17.6385 19.0438 17.5452ZM18.8004 21.4297C18.056 21.3831 17.489 20.7656 17.5338 20.0504C17.5786 19.3353 18.2183 18.7934 18.9627 18.84C19.707 18.8867 20.2741 19.5042 20.2292 20.2193C20.1844 20.9345 19.5447 21.4764 18.8004 21.4297Z" fill="#0779B9"/>
</svg>
