<svg width="24" height="23" viewBox="0 0 24 23" fill="none" xmlns="http://www.w3.org/2000/svg">
<path fill-rule="evenodd" clip-rule="evenodd" d="M5.78042e-09 1.1499C5.78042e-09 0.84493 0.114935 0.552448 0.31952 0.336799C0.524105 0.12115 0.801582 0 1.09091 0H13.0909C13.3802 0 13.6577 0.12115 13.8623 0.336799C14.0669 0.552448 14.1818 0.84493 14.1818 1.1499V6.89942H18.5455C19.2618 6.89942 19.971 7.04814 20.6328 7.33708C21.2946 7.62602 21.8959 8.04952 22.4024 8.58342C22.9089 9.11731 23.3107 9.75113 23.5848 10.4487C23.8589 11.1463 24 11.8939 24 12.6489V17.2486C24.0001 17.9888 23.7744 18.7095 23.3562 19.3041C22.938 19.8988 22.3494 20.336 21.6775 20.5511C21.4774 21.2468 21.0739 21.8581 20.5247 22.2977C19.9754 22.7373 19.3084 22.9828 18.6189 22.9991C17.9295 23.0155 17.2527 22.8018 16.6853 22.3886C16.1179 21.9754 15.6888 21.3838 15.4593 20.6983H8.54182C8.31232 21.3838 7.88323 21.9754 7.31581 22.3886C6.74838 22.8018 6.07163 23.0155 5.38214 22.9991C4.69266 22.9828 4.02568 22.7373 3.47643 22.2977C2.92717 21.8581 2.52371 21.2468 2.32364 20.5511C1.65146 20.3362 1.06268 19.8991 0.644254 19.3044C0.225831 18.7097 -4.17215e-05 17.989 5.78042e-09 17.2486V12.6489H6.54545C6.83478 12.6489 7.11226 12.5278 7.31684 12.3121C7.52143 12.0965 7.63636 11.804 7.63636 11.499C7.63636 11.1941 7.52143 10.9016 7.31684 10.6859C7.11226 10.4703 6.83478 10.3491 6.54545 10.3491H5.78042e-09V8.04933H4.36364C4.65296 8.04933 4.93044 7.92817 5.13503 7.71253C5.33961 7.49688 5.45455 7.2044 5.45455 6.89942C5.45455 6.59445 5.33961 6.30197 5.13503 6.08632C4.93044 5.87067 4.65296 5.74952 4.36364 5.74952H5.78042e-09V1.1499ZM14.1818 18.3985H15.4593C15.6749 17.755 16.0668 17.1935 16.5853 16.7848C17.1038 16.3762 17.7256 16.1388 18.3721 16.1028C19.0186 16.0667 19.6607 16.2335 20.2172 16.5822C20.7737 16.9309 21.2197 17.4457 21.4985 18.0615C21.6 17.9549 21.6805 17.8282 21.7353 17.6887C21.7902 17.5491 21.8183 17.3996 21.8182 17.2486V12.6489C21.8182 11.734 21.4734 10.8566 20.8596 10.2096C20.2459 9.56268 19.4134 9.19923 18.5455 9.19923H14.1818V18.3985ZM6.54545 19.5484C6.54545 19.2434 6.43052 18.9509 6.22593 18.7353C6.02135 18.5196 5.74387 18.3985 5.45455 18.3985C5.16522 18.3985 4.88774 18.5196 4.68316 18.7353C4.47857 18.9509 4.36364 19.2434 4.36364 19.5484C4.36364 19.8533 4.47857 20.1458 4.68316 20.3615C4.88774 20.5771 5.16522 20.6983 5.45455 20.6983C5.74387 20.6983 6.02135 20.5771 6.22593 20.3615C6.43052 20.1458 6.54545 19.8533 6.54545 19.5484ZM17.7742 18.7354C17.6726 18.8419 17.592 18.9686 17.5372 19.1081C17.4823 19.2477 17.4542 19.3973 17.4545 19.5484C17.4545 19.8144 17.542 20.0722 17.702 20.2779C17.8621 20.4836 18.0849 20.6244 18.3324 20.6764C18.5799 20.7283 18.8369 20.6882 19.0595 20.5628C19.2821 20.4375 19.4566 20.2346 19.5532 19.9889C19.6499 19.7431 19.6627 19.4696 19.5894 19.215C19.5162 18.9604 19.3615 18.7404 19.1517 18.5926C18.9419 18.4448 18.6899 18.3782 18.4387 18.4042C18.1875 18.4303 17.9527 18.5473 17.7742 18.7354Z" fill="url(#paint0_linear_702_3197)"/>
<defs>
<linearGradient id="paint0_linear_702_3197" x1="12" y1="0" x2="12" y2="23" gradientUnits="userSpaceOnUse">
<stop stop-color="#43FF0E"/>
<stop offset="1" stop-color="#088BCE"/>
</linearGradient>
</defs>
</svg>
