<svg width="10" height="9" viewBox="0 0 10 9" fill="none" xmlns="http://www.w3.org/2000/svg">
<path d="M3.30344 7V1.90909H5.11808C5.51249 1.90909 5.83978 1.97704 6.09996 2.11293C6.3618 2.24882 6.55735 2.43691 6.68661 2.6772C6.81587 2.91584 6.8805 3.19176 6.8805 3.50497C6.8805 3.81652 6.81505 4.09079 6.68413 4.32777C6.55487 4.56309 6.35932 4.74621 6.09748 4.87713C5.8373 5.00805 5.51 5.07351 5.11559 5.07351H3.74094V4.41229H5.04599C5.29457 4.41229 5.49674 4.37666 5.65252 4.3054C5.80996 4.23414 5.92513 4.13056 5.99805 3.99467C6.07096 3.85878 6.10742 3.69555 6.10742 3.50497C6.10742 3.31274 6.07013 3.14619 5.99556 3.00533C5.92264 2.86446 5.80747 2.75675 5.65004 2.68217C5.49426 2.60594 5.2896 2.56783 5.03604 2.56783H4.07156V7H3.30344ZM5.81658 4.70312L7.0744 7H6.1994L4.96644 4.70312H5.81658Z" fill="white"/>
<circle cx="5" cy="4.5" r="4" stroke="white"/>
</svg>
