<svg width="61" height="12" viewBox="0 0 61 12" fill="none" xmlns="http://www.w3.org/2000/svg">
<path d="M5.80081 0.0112707L7.43657 11H4.51121L4.36868 9.02488H3.34379L3.17411 11H0.214818L1.66731 0.0112707H5.80081ZM4.28723 7.07691C4.14243 5.83256 3.99764 4.29635 3.85284 2.46829C3.56325 4.56785 3.38225 6.10405 3.30985 7.07691H4.28723ZM14.1221 1.99318V11H11.3325L11.38 10.2534C11.19 10.5566 10.9547 10.7851 10.6741 10.9389C10.3981 11.0882 10.0791 11.1629 9.71712 11.1629C9.30535 11.1629 8.96372 11.0905 8.69223 10.9457C8.42073 10.8009 8.21937 10.6086 8.08815 10.3688C7.96145 10.129 7.88227 9.88009 7.85059 9.62217C7.81892 9.35972 7.80308 8.84162 7.80308 8.06786V1.99318H10.5452V8.12216C10.5452 8.82352 10.5655 9.23981 10.6063 9.37103C10.6515 9.50226 10.7692 9.56787 10.9592 9.56787C11.1628 9.56787 11.2827 9.49999 11.3189 9.36425C11.3597 9.2285 11.38 8.79185 11.38 8.05429V1.99318H14.1221ZM17.9977 0.791817V2.21037H18.7375V3.63572H17.9977V8.45474C17.9977 9.0475 18.0271 9.37782 18.0859 9.4457C18.1493 9.51357 18.4049 9.54751 18.8529 9.54751V11H17.7466C17.1221 11 16.6764 10.9751 16.4095 10.9253C16.1425 10.871 15.9072 10.7511 15.7036 10.5656C15.4999 10.3756 15.3732 10.1606 15.3235 9.92081C15.2737 9.67647 15.2488 9.10633 15.2488 8.2104V3.63572H14.6583V2.21037H15.2488V0.791817H17.9977ZM25.5452 5.15609V7.36198C25.5452 8.17194 25.5045 8.76696 25.4231 9.14705C25.3416 9.52262 25.1674 9.87556 24.9004 10.2059C24.6335 10.5317 24.2896 10.7738 23.8688 10.9321C23.4525 11.086 22.9728 11.1629 22.4298 11.1629C21.8235 11.1629 21.3099 11.0973 20.8891 10.9661C20.4683 10.8303 20.1402 10.629 19.9049 10.362C19.6742 10.0905 19.509 9.7647 19.4095 9.38461C19.3099 8.99999 19.2601 8.42533 19.2601 7.66062V5.35292C19.2601 4.51581 19.3506 3.86196 19.5316 3.39137C19.7126 2.92078 20.0384 2.54295 20.509 2.25789C20.9796 1.97282 21.5814 1.83028 22.3144 1.83028C22.9298 1.83028 23.457 1.92304 23.8959 2.10856C24.3393 2.28956 24.681 2.52712 24.9208 2.82124C25.1606 3.11535 25.3235 3.41852 25.4095 3.73074C25.5 4.04296 25.5452 4.51808 25.5452 5.15609ZM22.8031 4.47735C22.8031 4.01581 22.7783 3.72622 22.7285 3.60857C22.6787 3.4864 22.5724 3.42531 22.4095 3.42531C22.2466 3.42531 22.138 3.4864 22.0837 3.60857C22.0294 3.72622 22.0022 4.01581 22.0022 4.47735V8.54298C22.0022 8.96832 22.0294 9.2466 22.0837 9.37782C22.138 9.50452 22.2443 9.56787 22.4027 9.56787C22.5656 9.56787 22.6719 9.50904 22.7217 9.3914C22.776 9.27375 22.8031 9.02035 22.8031 8.63121V4.47735ZM31.4706 0.0112707L33.1063 11H30.181L30.0385 9.02488H29.0136L28.8439 11H25.8846L27.3371 0.0112707H31.4706ZM29.957 7.07691C29.8122 5.83256 29.6674 4.29635 29.5226 2.46829C29.233 4.56785 29.052 6.10405 28.9796 7.07691H29.957ZM39.1132 4.87102H36.6833V4.38233C36.6833 3.96604 36.6584 3.70359 36.6086 3.59499C36.5634 3.48187 36.4457 3.42531 36.2557 3.42531C36.1018 3.42531 35.9864 3.47735 35.9095 3.58142C35.8326 3.68097 35.7941 3.83255 35.7941 4.03617C35.7941 4.31219 35.8122 4.51581 35.8484 4.64703C35.8892 4.77373 36.0045 4.914 36.1946 5.06785C36.3892 5.2217 36.7851 5.44568 37.3824 5.7398C38.1788 6.12894 38.7014 6.49546 38.9503 6.83935C39.1991 7.18324 39.3236 7.68325 39.3236 8.33936C39.3236 9.07239 39.2285 9.62669 39.0385 10.0023C38.8484 10.3733 38.5294 10.6606 38.0815 10.8643C37.638 11.0633 37.1018 11.1629 36.4729 11.1629C35.776 11.1629 35.1787 11.0543 34.681 10.8371C34.1878 10.6199 33.8484 10.3258 33.6629 9.95475C33.4774 9.58371 33.3846 9.02262 33.3846 8.27148V7.83709H35.8145V8.40723C35.8145 8.89139 35.8439 9.20588 35.9027 9.35067C35.9661 9.49547 36.0883 9.56787 36.2693 9.56787C36.4638 9.56787 36.5996 9.52036 36.6765 9.42533C36.7534 9.32579 36.7919 9.1199 36.7919 8.80768C36.7919 8.37782 36.7421 8.10859 36.6426 7.99999C36.5385 7.89139 36.0068 7.57012 35.0475 7.03618C34.2421 6.58369 33.7511 6.17419 33.5747 5.80767C33.3982 5.43663 33.31 4.99771 33.31 4.49093C33.31 3.77147 33.405 3.24205 33.595 2.90268C33.7851 2.55879 34.1063 2.29408 34.5588 2.10856C35.0159 1.92304 35.5453 1.83028 36.1471 1.83028C36.7444 1.83028 37.2512 1.90721 37.6674 2.06105C38.0883 2.21037 38.4095 2.40947 38.6313 2.65834C38.8575 2.90721 38.9932 3.13798 39.0385 3.35065C39.0883 3.56332 39.1132 3.8959 39.1132 4.34839V4.87102ZM45.6562 4.87102H43.2263V4.38233C43.2263 3.96604 43.2014 3.70359 43.1516 3.59499C43.1064 3.48187 42.9887 3.42531 42.7987 3.42531C42.6448 3.42531 42.5295 3.47735 42.4525 3.58142C42.3756 3.68097 42.3372 3.83255 42.3372 4.03617C42.3372 4.31219 42.3553 4.51581 42.3914 4.64703C42.4322 4.77373 42.5476 4.914 42.7376 5.06785C42.9322 5.2217 43.3281 5.44568 43.9254 5.7398C44.7218 6.12894 45.2444 6.49546 45.4933 6.83935C45.7421 7.18324 45.8666 7.68325 45.8666 8.33936C45.8666 9.07239 45.7716 9.62669 45.5815 10.0023C45.3915 10.3733 45.0725 10.6606 44.6245 10.8643C44.181 11.0633 43.6448 11.1629 43.0159 11.1629C42.3191 11.1629 41.7218 11.0543 41.224 10.8371C40.7308 10.6199 40.3914 10.3258 40.2059 9.95475C40.0204 9.58371 39.9276 9.02262 39.9276 8.27148V7.83709H42.3575V8.40723C42.3575 8.89139 42.3869 9.20588 42.4457 9.35067C42.5091 9.49547 42.6313 9.56787 42.8123 9.56787C43.0068 9.56787 43.1426 9.52036 43.2195 9.42533C43.2964 9.32579 43.3349 9.1199 43.3349 8.80768C43.3349 8.37782 43.2851 8.10859 43.1856 7.99999C43.0815 7.89139 42.5498 7.57012 41.5905 7.03618C40.7851 6.58369 40.2942 6.17419 40.1177 5.80767C39.9412 5.43663 39.853 4.99771 39.853 4.49093C39.853 3.77147 39.948 3.24205 40.138 2.90268C40.3281 2.55879 40.6494 2.29408 41.1019 2.10856C41.5589 1.92304 42.0883 1.83028 42.6901 1.83028C43.2874 1.83028 43.7942 1.90721 44.2105 2.06105C44.6313 2.21037 44.9525 2.40947 45.1743 2.65834C45.4005 2.90721 45.5363 3.13798 45.5815 3.35065C45.6313 3.56332 45.6562 3.8959 45.6562 4.34839V4.87102ZM49.4231 0.0112707V1.4434H46.5996V0.0112707H49.4231ZM49.4231 1.99318V11H46.5996V1.99318H49.4231ZM56.0137 4.87102H53.5838V4.38233C53.5838 3.96604 53.5589 3.70359 53.5091 3.59499C53.4639 3.48187 53.3462 3.42531 53.1562 3.42531C53.0023 3.42531 52.887 3.47735 52.81 3.58142C52.7331 3.68097 52.6947 3.83255 52.6947 4.03617C52.6947 4.31219 52.7128 4.51581 52.749 4.64703C52.7897 4.77373 52.9051 4.914 53.0951 5.06785C53.2897 5.2217 53.6856 5.44568 54.2829 5.7398C55.0793 6.12894 55.6019 6.49546 55.8508 6.83935C56.0996 7.18324 56.2241 7.68325 56.2241 8.33936C56.2241 9.07239 56.1291 9.62669 55.939 10.0023C55.749 10.3733 55.43 10.6606 54.982 10.8643C54.5386 11.0633 54.0024 11.1629 53.3734 11.1629C52.6766 11.1629 52.0793 11.0543 51.5815 10.8371C51.0883 10.6199 50.7489 10.3258 50.5634 9.95475C50.3779 9.58371 50.2851 9.02262 50.2851 8.27148V7.83709H52.715V8.40723C52.715 8.89139 52.7444 9.20588 52.8033 9.35067C52.8666 9.49547 52.9888 9.56787 53.1698 9.56787C53.3643 9.56787 53.5001 9.52036 53.577 9.42533C53.6539 9.32579 53.6924 9.1199 53.6924 8.80768C53.6924 8.37782 53.6426 8.10859 53.5431 7.99999C53.439 7.89139 52.9073 7.57012 51.948 7.03618C51.1426 6.58369 50.6517 6.17419 50.4752 5.80767C50.2987 5.43663 50.2105 4.99771 50.2105 4.49093C50.2105 3.77147 50.3055 3.24205 50.4956 2.90268C50.6856 2.55879 51.0069 2.29408 51.4594 2.10856C51.9164 1.92304 52.4458 1.83028 53.0476 1.83028C53.6449 1.83028 54.1517 1.90721 54.568 2.06105C54.9888 2.21037 55.3101 2.40947 55.5318 2.65834C55.758 2.90721 55.8938 3.13798 55.939 3.35065C55.9888 3.56332 56.0137 3.8959 56.0137 4.34839V4.87102ZM59.8485 0.791817V2.21037H60.5883V3.63572H59.8485V8.45474C59.8485 9.0475 59.8779 9.37782 59.9368 9.4457C60.0001 9.51357 60.2558 9.54751 60.7037 9.54751V11H59.5974C58.973 11 58.5273 10.9751 58.2603 10.9253C57.9933 10.871 57.758 10.7511 57.5544 10.5656C57.3508 10.3756 57.2241 10.1606 57.1743 9.92081C57.1245 9.67647 57.0996 9.10633 57.0996 8.2104V3.63572H56.5091V2.21037H57.0996V0.791817H59.8485Z" fill="#979797"/>
</svg>
