<svg width="147" height="42" viewBox="0 0 147 42" fill="none" xmlns="http://www.w3.org/2000/svg">
<path d="M0.535156 34L9.91748 9.04883H18.1377L19.8979 34H12.8569L12.8911 30.3257H8.77246L7.67871 34H0.535156ZM10.2422 25.2842H13.0278L13.1133 16.0386L10.2422 25.2842ZM23.0596 16.5H29.3999L27.6567 27.5913C27.6453 27.6255 27.634 27.6654 27.6226 27.7109C27.6226 27.7565 27.6226 27.8249 27.6226 27.916C27.6226 28.235 27.7137 28.4857 27.896 28.668C28.0783 28.8389 28.3346 28.9243 28.665 28.9243C29.041 28.9243 29.36 28.8047 29.6221 28.5654C29.8955 28.3262 30.0664 28.0015 30.1348 27.5913L31.895 16.5H38.2183L36.5435 26.9932C36.1561 29.4883 35.2275 31.3625 33.7578 32.6157C32.2995 33.869 30.3114 34.4956 27.7935 34.4956C25.7313 34.4956 24.1191 34.0285 22.957 33.0942C21.7949 32.1486 21.2139 30.8498 21.2139 29.1978C21.2139 28.8674 21.231 28.5199 21.2651 28.1553C21.2993 27.7907 21.3506 27.4033 21.4189 26.9932L23.0596 16.5ZM38.7139 34L40.6108 22.0371H38.4746L39.3462 16.5H41.4824L42.2856 11.356H48.6602L47.8569 16.5H50.1299L49.2583 22.0371H46.9854L45.0542 34H38.7139ZM55.7524 27.3179C55.7524 27.9559 55.8436 28.4344 56.0259 28.7534C56.2082 29.0724 56.4759 29.2319 56.8291 29.2319C57.4329 29.2319 57.9627 28.6395 58.4185 27.4546C58.8742 26.2583 59.1021 24.8455 59.1021 23.2163C59.1021 22.5669 59.0109 22.0884 58.8286 21.7808C58.6463 21.4618 58.3672 21.3022 57.9912 21.3022C57.3988 21.3022 56.8747 21.9061 56.4189 23.1138C55.9746 24.3101 55.7524 25.7114 55.7524 27.3179ZM56.9658 34.5298C54.5163 34.5298 52.6478 33.8804 51.3604 32.5815C50.0843 31.2827 49.4463 29.3857 49.4463 26.8906C49.4463 23.5866 50.2096 20.9491 51.7363 18.978C53.2744 16.9956 55.3366 16.0044 57.9229 16.0044C60.3724 16.0044 62.2295 16.6538 63.4941 17.9526C64.7702 19.2401 65.4082 21.137 65.4082 23.6436C65.4082 26.959 64.6449 29.6022 63.1182 31.5732C61.6029 33.5443 59.5521 34.5298 56.9658 34.5298ZM63.8018 34L73.1841 9.04883H81.4043L83.1646 34H76.1235L76.1577 30.3257H72.0391L70.9453 34H63.8018ZM73.5088 25.2842H76.2944L76.3799 16.0386L73.5088 25.2842ZM85.3521 27.8477C86.0243 28.4629 86.6851 28.93 87.3345 29.249C87.9839 29.568 88.5934 29.7275 89.1631 29.7275C89.5846 29.7275 89.915 29.6364 90.1543 29.4541C90.4049 29.2604 90.5303 29.0041 90.5303 28.6851C90.5303 28.161 90.0347 27.5913 89.0435 26.9761C88.8384 26.8507 88.6846 26.7539 88.582 26.6855C87.4085 25.9222 86.5711 25.1759 86.0698 24.4468C85.5685 23.7176 85.3179 22.8745 85.3179 21.9175C85.3179 20.1743 85.9274 18.7559 87.1465 17.6621C88.3656 16.557 89.9606 16.0044 91.9316 16.0044C92.7975 16.0044 93.6634 16.1126 94.5293 16.3291C95.3952 16.5456 96.1984 16.8589 96.939 17.269L95.8623 21.9175C95.2585 21.4504 94.6945 21.1029 94.1704 20.875C93.6577 20.6471 93.1678 20.5332 92.7007 20.5332C92.2791 20.5332 91.9373 20.63 91.6753 20.8237C91.4246 21.0174 91.2993 21.2681 91.2993 21.5757C91.2993 21.9517 91.6468 22.3789 92.3418 22.8574C92.6038 23.0397 92.8032 23.1821 92.9399 23.2847C94.4211 24.3784 95.3667 25.2785 95.7769 25.9849C96.1984 26.6912 96.4092 27.5173 96.4092 28.4629C96.4092 30.263 95.7826 31.7157 94.5293 32.8208C93.2874 33.9146 91.6297 34.4614 89.5562 34.4614C88.5308 34.4614 87.494 34.3019 86.4458 33.9829C85.409 33.6525 84.4406 33.1911 83.5405 32.5986L85.3521 27.8477ZM99.0581 27.8477C99.7303 28.4629 100.391 28.93 101.041 29.249C101.69 29.568 102.299 29.7275 102.869 29.7275C103.291 29.7275 103.621 29.6364 103.86 29.4541C104.111 29.2604 104.236 29.0041 104.236 28.6851C104.236 28.161 103.741 27.5913 102.75 26.9761C102.544 26.8507 102.391 26.7539 102.288 26.6855C101.115 25.9222 100.277 25.1759 99.7759 24.4468C99.2746 23.7176 99.0239 22.8745 99.0239 21.9175C99.0239 20.1743 99.6335 18.7559 100.853 17.6621C102.072 16.557 103.667 16.0044 105.638 16.0044C106.504 16.0044 107.369 16.1126 108.235 16.3291C109.101 16.5456 109.904 16.8589 110.645 17.269L109.568 21.9175C108.965 21.4504 108.401 21.1029 107.876 20.875C107.364 20.6471 106.874 20.5332 106.407 20.5332C105.985 20.5332 105.643 20.63 105.381 20.8237C105.131 21.0174 105.005 21.2681 105.005 21.5757C105.005 21.9517 105.353 22.3789 106.048 22.8574C106.31 23.0397 106.509 23.1821 106.646 23.2847C108.127 24.3784 109.073 25.2785 109.483 25.9849C109.904 26.6912 110.115 27.5173 110.115 28.4629C110.115 30.263 109.489 31.7157 108.235 32.8208C106.993 33.9146 105.336 34.4614 103.262 34.4614C102.237 34.4614 101.2 34.3019 100.152 33.9829C99.1151 33.6525 98.1466 33.1911 97.2466 32.5986L99.0581 27.8477ZM111.363 34L114.131 16.5H120.472L117.703 34H111.363ZM121.719 9.85205C121.719 11.0939 121.343 12.1307 120.591 12.9624C119.851 13.7827 118.911 14.1929 117.771 14.1929C116.894 14.1929 116.188 13.908 115.652 13.3384C115.128 12.7687 114.866 12.0168 114.866 11.0825C114.866 9.82926 115.242 8.78678 115.994 7.95508C116.746 7.12337 117.686 6.70752 118.814 6.70752C119.703 6.70752 120.409 6.99235 120.933 7.56201C121.457 8.13167 121.719 8.89502 121.719 9.85205ZM121.958 27.8477C122.631 28.4629 123.292 28.93 123.941 29.249C124.59 29.568 125.2 29.7275 125.77 29.7275C126.191 29.7275 126.521 29.6364 126.761 29.4541C127.011 29.2604 127.137 29.0041 127.137 28.6851C127.137 28.161 126.641 27.5913 125.65 26.9761C125.445 26.8507 125.291 26.7539 125.188 26.6855C124.015 25.9222 123.178 25.1759 122.676 24.4468C122.175 23.7176 121.924 22.8745 121.924 21.9175C121.924 20.1743 122.534 18.7559 123.753 17.6621C124.972 16.557 126.567 16.0044 128.538 16.0044C129.404 16.0044 130.27 16.1126 131.136 16.3291C132.002 16.5456 132.805 16.8589 133.545 17.269L132.469 21.9175C131.865 21.4504 131.301 21.1029 130.777 20.875C130.264 20.6471 129.774 20.5332 129.307 20.5332C128.886 20.5332 128.544 20.63 128.282 20.8237C128.031 21.0174 127.906 21.2681 127.906 21.5757C127.906 21.9517 128.253 22.3789 128.948 22.8574C129.21 23.0397 129.41 23.1821 129.546 23.2847C131.028 24.3784 131.973 25.2785 132.383 25.9849C132.805 26.6912 133.016 27.5173 133.016 28.4629C133.016 30.263 132.389 31.7157 131.136 32.8208C129.894 33.9146 128.236 34.4614 126.163 34.4614C125.137 34.4614 124.1 34.3019 123.052 33.9829C122.015 33.6525 121.047 33.1911 120.147 32.5986L121.958 27.8477ZM135.066 34L136.963 22.0371H134.827L135.699 16.5H137.835L138.638 11.356H145.013L144.209 16.5H146.482L145.611 22.0371H143.338L141.407 34H135.066Z" fill="url(#paint0_linear_584_5356)"/>
<defs>
<linearGradient id="paint0_linear_584_5356" x1="74.5" y1="0" x2="74.5" y2="42" gradientUnits="userSpaceOnUse">
<stop stop-color="#45FA09"/>
<stop offset="1" stop-color="#078AD3"/>
</linearGradient>
</defs>
</svg>
