<svg width="76" height="23" viewBox="0 0 76 23" fill="none" xmlns="http://www.w3.org/2000/svg">
<path d="M74.8118 14.668L75.3138 15.039C75.1101 15.4756 74.7317 15.8903 74.1788 16.2831C73.6404 16.676 73.1457 16.8724 72.6946 16.8724C71.8361 16.8724 71.4068 16.4214 71.4068 15.5192C71.4068 15.0972 71.516 14.5952 71.7342 14.0132L70.9267 14.8426C70.1409 15.6429 69.457 16.1813 68.875 16.4577C68.3075 16.7342 67.7473 16.8724 67.1943 16.8724C66.6414 16.8724 66.2194 16.7197 65.9284 16.4141C65.6519 16.094 65.5137 15.6574 65.5137 15.1045C65.5137 14.0859 65.9066 13.0819 66.6923 12.0924C67.4781 11.0884 68.4821 10.2736 69.7044 9.64787C70.9267 9.02217 72.1489 8.70205 73.3712 8.6875L73.4149 9.40778L72.4982 9.60422C71.174 9.89524 70.0027 10.4773 68.9841 11.3503C67.9801 12.2234 67.4781 13.0965 67.4781 13.9695C67.4781 14.828 67.8273 15.2573 68.5257 15.2573C69.1805 15.2573 69.9881 14.7989 70.9485 13.8822C71.9088 12.9655 72.7092 11.8887 73.3494 10.6519L74.2661 11.1976C73.3639 13.0164 72.9129 14.1732 72.9129 14.668C72.9129 14.8717 72.9783 15.0463 73.1093 15.1918C73.2548 15.3228 73.3931 15.3882 73.524 15.3882C73.6695 15.3882 73.7641 15.381 73.8078 15.3664C73.8514 15.3519 73.8951 15.3373 73.9387 15.3228C73.9824 15.2937 74.0333 15.2573 74.0915 15.2136C74.1643 15.17 74.2225 15.1263 74.2661 15.0827C74.3243 15.039 74.4116 14.9735 74.528 14.8862C74.6444 14.7989 74.739 14.7262 74.8118 14.668Z" fill="#B09982"/>
<path d="M63.3519 14.4255L63.8321 14.9712C63.4683 15.5387 63.0245 15.9825 62.5007 16.3026C61.9914 16.6227 61.4748 16.7828 60.951 16.7828C60.4271 16.7828 60.0124 16.6373 59.7069 16.3462C59.4013 16.0407 59.2485 15.626 59.2485 15.1021C59.2485 13.8798 59.7069 12.1919 60.6236 10.0384C59.8815 10.1548 59.1394 10.3294 58.3973 10.5622L58.2445 9.71098L58.2227 9.68916C58.9502 9.38358 59.9033 9.13622 61.0819 8.94705C61.1983 8.72879 61.4603 8.19768 61.8677 7.35372C62.6825 5.68035 63.2646 4.5963 63.6138 4.10156L64.5523 4.47261C64.4068 4.79274 64.1522 5.33112 63.7884 6.08778C63.4246 6.82988 63.0172 7.67384 62.5661 8.61965C63.2209 8.576 63.7375 8.55418 64.1158 8.55418C64.4941 8.55418 64.7852 8.61238 64.9889 8.72879V9.66733C64.7852 9.62368 64.4869 9.60185 64.094 9.60185C63.7157 9.60185 63.0318 9.66733 62.0423 9.79829C61.1838 11.719 60.7545 13.1159 60.7545 13.989C60.7545 14.3237 60.8564 14.6001 61.0601 14.8184C61.2784 15.0367 61.5621 15.1458 61.9113 15.1458C62.2751 15.1458 62.7553 14.9057 63.3519 14.4255Z" fill="#B09982"/>
<path d="M56.5951 9.14606C56.9589 9.14606 57.2572 9.26974 57.49 9.51711C57.7228 9.76447 57.8392 10.0846 57.8392 10.4775C57.8392 11.2632 57.3882 12.0926 56.486 12.9657L55.9622 12.551C56.1659 12.0999 56.2677 11.7725 56.2677 11.5688C56.2677 11.1759 56.0495 10.9795 55.6129 10.9795C55.1764 10.9795 54.7617 11.256 54.3688 11.8089C53.9759 12.3618 53.5103 13.2203 52.9719 14.3844C52.4481 15.534 52.0479 16.3488 51.7715 16.829L50.5273 16.2833C51.3276 14.4645 51.786 13.395 51.9024 13.0748C52.2953 11.9399 52.4917 10.4993 52.4917 8.75318L53.714 8.42578C53.6704 9.3716 53.6049 10.1064 53.5176 10.6303C53.4303 11.1395 53.2193 11.9762 52.8846 13.1403C54.3543 10.4775 55.5911 9.14606 56.5951 9.14606Z" fill="#B09982"/>
<path d="M49.4803 10.3888C49.8587 11.0145 50.0478 11.7057 50.0478 12.4624C50.0478 13.641 49.6404 14.6959 48.8255 15.6272C48.0107 16.5439 47.0503 17.0023 45.9444 17.0023C45.1005 17.0023 44.4384 16.7622 43.9582 16.282C43.4926 15.7873 43.2598 15.1106 43.2598 14.2521C43.2598 12.8698 43.7982 11.633 44.8749 10.5416C45.9517 9.43575 47.1594 8.88281 48.4981 8.88281C48.7455 8.88281 48.9201 8.89009 49.022 8.90464L49.0875 9.62491C47.9234 9.62491 46.9557 9.95959 46.1845 10.6289C45.4133 11.2983 45.0277 12.1568 45.0277 13.2045C45.0277 13.8302 45.1805 14.3394 45.4861 14.7323C45.7916 15.1107 46.2355 15.2998 46.8175 15.2998C47.4141 15.2998 47.887 15.0379 48.2362 14.5141C48.5854 13.9902 48.7601 13.3791 48.7601 12.6806C48.7601 11.9676 48.6218 11.3201 48.3453 10.7381L49.4803 10.3888Z" fill="#B09982"/>
<path d="M40.4906 8.29408L39.7922 10.9351L42.6296 10.6077L41.9966 11.6335L39.5521 11.9609C39.3629 12.7467 39.0428 13.9326 38.5917 15.5187C37.6168 18.9527 37.1293 21.1281 37.1293 22.0448L35.7324 22.7651C35.7324 21.5137 36.2708 19.0982 37.3476 15.5187C37.9005 13.7289 38.2425 12.5794 38.3734 12.0701C37.8641 12.201 37.3985 12.2665 36.9765 12.2665C36.1471 12.2665 35.7324 11.9391 35.7324 11.2843C35.7324 10.9205 36.0089 10.484 36.5618 9.97472C37.3621 9.23262 38.3152 8.57783 39.4211 8.01034C40.2796 5.08558 40.898 3.25215 41.2764 2.51005C41.7856 1.50603 42.2513 0.865786 42.6733 0.589317C43.299 0.196439 43.9465 0 44.6158 0C45.2852 0 45.7581 0.189164 46.0345 0.56749C46.311 0.945817 46.4347 1.38962 46.4056 1.89891C46.3328 3.73234 44.3612 5.86406 40.4906 8.29408ZM43.9829 1.85526C43.168 1.85526 42.5641 2.24813 42.1713 3.03389C41.8657 3.64503 41.5965 4.37986 41.3637 5.23837C41.1309 6.09688 40.9635 6.68619 40.8617 7.00632C41.662 6.51158 42.5205 5.84224 43.4372 4.99828C44.3539 4.15432 44.8268 3.41949 44.8559 2.7938C44.885 2.1681 44.594 1.85526 43.9829 1.85526ZM38.679 11.0442L39.1592 9.12349C38.6062 9.35631 38.1697 9.5964 37.8496 9.84377C37.544 10.0911 37.3912 10.3021 37.3912 10.4767C37.3912 10.8551 37.8205 11.0442 38.679 11.0442Z" fill="#B09982"/>
<path d="M34.8443 14.0331L35.3027 14.4696C34.4733 15.9538 33.5202 16.6959 32.4434 16.6959C32.0069 16.6959 31.6649 16.5795 31.4176 16.3467C31.1848 16.0993 31.0683 15.7792 31.0683 15.3863C31.0683 14.9789 31.3084 14.2877 31.7886 13.3128C32.2688 12.3379 32.5235 11.5958 32.5526 11.0865C32.5671 10.8537 32.4943 10.6645 32.3343 10.519C32.1888 10.3735 31.9851 10.3008 31.7231 10.3008C31.4612 10.3008 31.192 10.3662 30.9156 10.4972C30.6536 10.6136 30.3917 10.8101 30.1298 11.0865C29.8824 11.363 29.6496 11.6322 29.4314 11.8941C29.2276 12.156 28.9948 12.5271 28.7329 13.0073C28.4855 13.4874 28.2746 13.8876 28.0999 14.2077C27.7944 14.8043 27.3578 15.6992 26.7903 16.8924L25.4808 16.434C25.4808 16.3904 25.7208 15.5682 26.201 13.9676C26.6812 12.367 26.9213 11.4139 26.9213 11.1083C26.9213 10.8028 26.8486 10.5845 26.703 10.4536C26.5575 10.308 26.3756 10.2353 26.1574 10.2353C25.5026 10.2353 24.5931 11.0501 23.4291 12.6799C22.2795 14.3096 21.5447 15.6992 21.2246 16.8487L19.9805 16.434C20.0532 15.6628 20.3952 14.2805 21.0063 12.287C21.6175 10.2789 22.134 8.91114 22.556 8.18359L23.5382 8.53282C23.0871 9.53684 22.7743 10.3881 22.5997 11.0865C22.425 11.7704 22.2723 12.5052 22.1413 13.291C23.3927 11.5012 24.4404 10.2498 25.2843 9.53684C26.1283 8.80929 26.8922 8.44551 27.5761 8.44551C28.3182 8.44551 28.6893 8.81656 28.6893 9.55867C28.6893 9.84969 28.5583 10.4245 28.2964 11.283C28.049 12.1415 27.8526 12.8181 27.7071 13.3128C29.7151 10.0825 31.5122 8.46734 33.0982 8.46734C33.4911 8.46734 33.8039 8.59102 34.0368 8.83839C34.2696 9.07121 34.386 9.42771 34.386 9.90789C34.386 10.3735 34.1095 11.152 33.5566 12.2433C33.0182 13.3347 32.749 14.0258 32.749 14.3168C32.749 14.5933 32.8072 14.797 32.9236 14.928C33.04 15.059 33.1855 15.1244 33.3601 15.1244C33.7385 15.1244 34.2332 14.7607 34.8443 14.0331Z" fill="#B09982"/>
<path d="M19.0643 10.3888C19.4426 11.0145 19.6318 11.7057 19.6318 12.4624C19.6318 13.641 19.2244 14.6959 18.4095 15.6272C17.5947 16.5439 16.6343 17.0023 15.5284 17.0023C14.6845 17.0023 14.0224 16.7622 13.5422 16.282C13.0766 15.7873 12.8438 15.1106 12.8438 14.2521C12.8438 12.8698 13.3821 11.633 14.4589 10.5416C15.5357 9.43575 16.7434 8.88281 18.0821 8.88281C18.3295 8.88281 18.5041 8.89009 18.606 8.90464L18.6714 9.62491C17.5074 9.62491 16.5397 9.95959 15.7685 10.6289C14.9973 11.2983 14.6117 12.1568 14.6117 13.2045C14.6117 13.8302 14.7645 14.3394 15.0701 14.7323C15.3756 15.1107 15.8194 15.2998 16.4015 15.2998C16.9981 15.2998 17.471 15.0379 17.8202 14.5141C18.1694 13.9902 18.344 13.3791 18.344 12.6806C18.344 11.9676 18.2058 11.3201 17.9293 10.7381L19.0643 10.3888Z" fill="#B09982"/>
<path d="M10.2585 3.08203C10.7969 3.08203 11.2116 3.23482 11.5026 3.54039C11.8082 3.83141 11.9609 4.23156 11.9609 4.74085C11.9609 5.87583 11.2843 6.93078 9.93107 7.90569C8.57783 8.86606 7.03542 9.34625 5.30385 9.34625C4.54719 9.34625 3.74689 9.23711 2.90293 9.01885C2.34999 9.92101 2.07352 10.9032 2.07352 11.9654C2.07352 13.0131 2.36454 13.8643 2.94658 14.5191C3.52862 15.1594 4.37986 15.4795 5.50029 15.4795C7.50833 15.4795 8.82519 14.3081 9.45089 11.9654H10.4767C10.3167 13.3187 9.67643 14.5119 8.556 15.545C7.45012 16.5781 5.98774 17.0947 4.16887 17.0947C3.2085 17.0947 2.31361 16.7454 1.4842 16.047C0.654796 15.334 0.240092 14.3081 0.240092 12.9694C0.240092 11.6308 0.749378 10.1684 1.76795 8.58232C1.02585 8.14579 0.436531 7.6074 0 6.96715L0.589316 6.31236C0.691174 6.41422 0.829408 6.567 1.00402 6.77071C1.33869 7.16359 1.78978 7.50554 2.35727 7.79656C3.21578 6.60338 4.45989 5.51933 6.0896 4.54441C7.73387 3.56949 9.12349 3.08203 10.2585 3.08203ZM5.23837 8.47318C6.50431 8.47318 7.61746 8.17489 8.57783 7.5783C9.53819 6.9817 10.0184 6.28326 10.0184 5.48295C10.0184 5.20648 9.91652 4.98822 9.71281 4.82815C9.52364 4.65354 9.27628 4.56624 8.97071 4.56624C8.08309 4.56624 7.09362 4.92274 6.0023 5.63573C4.91097 6.33418 4.04518 7.17814 3.40494 8.16761C3.92878 8.37133 4.53992 8.47318 5.23837 8.47318Z" fill="#B09982"/>
</svg>
