<svg width="36" height="36" viewBox="0 0 36 36" fill="none" xmlns="http://www.w3.org/2000/svg">
<path d="M28.252 25.4307C29.5236 17.8536 18.9859 3.00781 18.9859 3.00781C18.9859 3.00781 8.44818 17.8536 9.71975 25.4307C10.9913 33.0078 18.2938 33.0078 18.9945 33.0078C19.6953 33.0078 26.9804 33.0078 28.252 25.4307Z" stroke="white" stroke-width="1.52173"/>
<path d="M18.2812 29.5114C18.2812 29.7006 18.3564 29.8821 18.4902 30.0159C18.624 30.1497 18.8055 30.2249 18.9948 30.2249C22.7366 30.2249 25.7809 27.1809 25.7809 23.4395C25.7809 23.0455 25.4615 22.726 25.0674 22.726C24.6732 22.726 24.3538 23.0455 24.3538 23.4395C24.3538 26.3942 21.9497 28.7979 18.9948 28.7979C18.8055 28.7979 18.624 28.873 18.4902 29.0068C18.3564 29.1407 18.2812 29.3221 18.2812 29.5114ZM32.9857 5.29543H31.5991V3.90883C31.5991 3.51478 31.2797 3.19531 30.8856 3.19531C30.4914 3.19531 30.172 3.51478 30.172 3.90883V5.29543H28.7853C28.3912 5.29543 28.0718 5.6149 28.0718 6.00895C28.0718 6.403 28.3912 6.72247 28.7853 6.72247H30.172V8.10907C30.172 8.50313 30.4914 8.82259 30.8856 8.82259C31.2797 8.82259 31.5991 8.50313 31.5991 8.10907V6.72247H32.9857C33.3798 6.72247 33.6992 6.403 33.6992 6.00895C33.6992 5.6149 33.3798 5.29543 32.9857 5.29543ZM7.21866 26.7803H5.832V25.3937C5.832 24.9997 5.51261 24.6802 5.11845 24.6802C4.72428 24.6802 4.4049 24.9997 4.4049 25.3937V26.7803H3.01824C2.62407 26.7803 2.30469 27.0998 2.30469 27.4938C2.30469 27.8879 2.62407 28.2074 3.01824 28.2074H4.4049V29.594C4.4049 29.988 4.72428 30.3075 5.11845 30.3075C5.51261 30.3075 5.832 29.988 5.832 29.594V28.2074H7.21866C7.61283 28.2074 7.93221 27.8879 7.93221 27.4938C7.93221 27.0998 7.61283 26.7803 7.21866 26.7803Z" fill="white"/>
</svg>
