<svg width="36" height="36" viewBox="0 0 36 36" fill="none" xmlns="http://www.w3.org/2000/svg">
<path d="M25.0391 26.269C24.3918 26.269 23.5152 26.0332 22.7457 25.6355C21.8409 25.1676 20.6693 24.2767 20.223 22.6858L19.0268 18.8915L18.6442 18.0787C16.8679 16.323 14.6982 14.3445 14.2172 14.1471C13.7587 13.9815 13.2958 14.1673 12.0229 14.7285C11.8515 14.8044 11.6693 14.8846 11.4747 14.9685C11.359 15.0835 11.1919 15.3033 11.218 15.4747C11.3706 16.4972 11.7937 17.2356 12.1676 17.8878C12.4207 18.3297 12.6601 18.7476 12.7917 19.2025C13.2119 20.6574 13.1353 21.8629 12.5625 22.7842C12.2732 23.2499 11.8096 23.5167 11.2563 23.5348C10.4955 23.5579 9.63987 23.0966 9.1271 22.3814C8.73655 21.8369 4.21414 15.1573 2.83782 13.1231C2.59464 12.7647 2.43543 12.3561 2.37205 11.9277L2.04298 9.75256C2.00248 9.48355 1.88748 9.2319 1.71101 9.02508L0.720901 7.863C0.459812 7.55639 0.496697 7.09576 0.80335 6.8347C1.11 6.57365 1.57071 6.61053 1.83179 6.91714L2.82191 8.07922C3.17457 8.49301 3.40432 8.99727 3.48512 9.53489L3.81419 11.7101C3.84674 11.9263 3.92485 12.1273 4.04563 12.3059C6.8771 16.49 10.0109 21.1108 10.3125 21.5317C10.5533 21.8672 10.9714 22.082 11.2079 22.077C11.2787 22.0748 11.2954 22.0582 11.3221 22.0148C11.6671 21.4587 11.6895 20.6488 11.3887 19.6074C11.3055 19.3211 11.1182 18.9928 10.9005 18.6131C10.4846 17.8878 9.9675 16.9846 9.77367 15.6909C9.61094 14.6019 10.5237 13.8527 10.6285 13.771C10.6777 13.7327 10.732 13.7002 10.7891 13.6756C11.0198 13.5758 11.2339 13.4818 11.4335 13.3943C12.7867 12.7977 13.6806 12.4036 14.7148 12.7767C15.6435 13.1115 18.5538 15.9354 19.7616 17.1336C19.8216 17.1936 19.8715 17.2638 19.9077 17.3404L20.3669 18.3145C20.3807 18.3441 20.393 18.3745 20.4024 18.4063L21.6167 22.2585C21.6189 22.2664 21.6218 22.2744 21.6239 22.2823C22.0608 23.8566 23.6613 24.5602 24.569 24.754L23.0277 18.5459L19.554 11.1692C19.3071 10.6434 18.9083 10.2037 18.4091 9.90659L9.1054 4.3558C8.75969 4.14898 8.64614 3.70136 8.85299 3.3557C9.05984 3.01004 9.50752 2.89651 9.85323 3.10333L19.1577 8.65484C19.9064 9.10039 20.5045 9.76006 20.8747 10.5487L24.3795 17.9905C24.3997 18.0339 24.4156 18.0795 24.4272 18.1257L26.1811 25.1915C26.1861 25.2117 26.1905 25.232 26.1933 25.2522C26.2541 25.6319 26.0465 26.0998 25.4484 26.2299C25.3276 26.256 25.1895 26.269 25.0391 26.269Z" fill="white"/>
<path d="M16.2508 23.1879C16.1156 23.1879 15.9803 23.1503 15.861 23.0751C15.4458 22.8126 14.4745 22.1979 14.2843 21.1212C14.1599 20.4169 14.3921 19.6771 14.9736 18.9236C15.4017 18.3682 15.9919 17.8852 16.3644 17.6067L16.2428 15.5183C16.219 15.1163 16.5264 14.7713 16.9285 14.7475C17.3299 14.7229 17.6756 15.0309 17.6994 15.433L17.8448 17.9249C17.86 18.186 17.7342 18.4355 17.515 18.5786C17.5071 18.5837 16.6341 19.1586 16.1293 19.8138C15.8089 20.2296 15.6715 20.5839 15.7214 20.8666C15.7684 21.1328 15.9933 21.3692 16.2248 21.5529L19.543 18.9597C19.8605 18.7117 20.319 18.7681 20.5671 19.0856C20.8152 19.403 20.7587 19.8615 20.4412 20.1095L16.6999 23.0324C16.5721 23.1335 16.4138 23.1883 16.2508 23.1879ZM24.5116 29.357C22.5321 29.357 21.3352 28.764 20.178 28.1906C19.1177 27.6648 18.1168 27.1688 16.4562 27.1688H3.35475C2.9519 27.1688 2.625 26.8419 2.625 26.4391C2.625 26.0363 2.9519 25.7095 3.35475 25.7095H16.4562C18.4588 25.7095 19.6623 26.3061 20.826 26.8831C21.879 27.4052 22.8735 27.8977 24.5116 27.8977C26.7038 27.8977 27.67 27.3199 28.6044 26.7609C29.4362 26.2634 30.2961 25.7493 31.7874 25.7095C33.9889 25.6502 34.7527 25.7088 34.7838 25.7116C35.1852 25.7442 35.4846 26.0956 35.4528 26.497C35.4202 26.8983 35.0695 27.1991 34.6681 27.1659C34.642 27.1637 33.8964 27.1124 31.8272 27.168C30.7177 27.1977 30.116 27.5578 29.3537 28.0134C28.3527 28.6121 27.1066 29.357 24.5116 29.357Z" fill="white"/>
<path d="M24.5116 32.9998C22.4526 32.9998 20.8933 32.2868 19.5169 31.6576C18.5232 31.2035 17.6647 30.8109 16.8511 30.8109H3.35475C2.9519 30.8109 2.625 30.484 2.625 30.0812C2.625 29.6784 2.9519 29.3516 3.35475 29.3516H16.8511C17.983 29.3516 19.023 29.8267 20.1237 30.33C21.4248 30.9244 22.7701 31.5398 24.5116 31.5398C26.2525 31.5398 27.5984 30.9251 28.8995 30.33C30.0003 29.8267 31.0403 29.3516 32.1722 29.3516H34.7259C35.1288 29.3516 35.4557 29.6784 35.4557 30.0812C35.4557 30.484 35.1288 30.8109 34.7259 30.8109H32.1722C31.3585 30.8109 30.5 31.2035 29.5063 31.6576C28.13 32.2875 26.5707 32.9998 24.5116 32.9998Z" fill="white"/>
</svg>
