<svg width="30" height="35" viewBox="0 0 30 35" fill="none" xmlns="http://www.w3.org/2000/svg">
<path d="M15.0005 34.6268C15.2949 34.4779 22.9497 31.1274 25.3787 29.1171C27.8812 27.0324 29.2061 24.0542 29.2061 20.4804V3.72808L28.9853 3.65363C22.8761 0.303165 15.2949 0.526529 14.9269 0.526529C14.6325 0.526529 7.05127 0.303165 0.94213 3.65363L0.794922 3.72808V20.5548C0.794922 24.1287 2.11979 27.1069 4.62233 29.1916C7.05127 31.2019 14.7061 34.5523 15.0005 34.6268Z" fill="#341B14"/>
<path d="M15 35C15 35 6.90355 31.4262 4.40102 29.4159C1.75127 27.1823 0.5 24.1296 0.5 20.6302V3.20785C6.90355 -0.291517 15 0.00630094 15 0.00630094C15 0.00630094 23.0964 -0.291517 29.5 3.20785V20.5558C29.5 24.0552 28.2487 27.1078 25.599 29.3414C23.0964 31.4262 15 35 15 35ZM1.67766 20.6302C1.67766 23.9063 2.85533 26.5866 5.13706 28.448C7.19797 30.1604 13.3071 32.9153 15 33.6598C16.6929 32.9153 22.8756 30.086 24.8629 28.448C27.1447 26.5866 28.3223 23.8318 28.3223 20.6302V3.50567C19.7843 2.68667 9.6269 3.1334 1.67766 10.5789V20.6302Z" fill="#FFB406"/>
<path d="M23.1708 18.1739C24.2749 18.844 24.7165 19.2907 24.7901 20.1097C24.7901 21.0032 24.2013 21.5243 23.2444 21.5243C22.4348 21.5243 21.4779 21.0776 20.8155 20.482V22.8645C21.6251 23.3113 22.582 23.6835 23.6124 23.6835C26.115 23.6835 27.2926 21.8966 27.2926 20.2586C27.3662 18.7695 26.9246 17.5782 24.7901 16.3125C23.8332 15.7169 23.0972 15.3446 23.0972 14.4511C23.0972 13.5577 23.9068 13.1854 24.5693 13.1854C25.4525 13.1854 26.3358 13.7066 26.851 14.2278V11.9941C26.4094 11.6219 25.4525 11.1007 24.054 11.1751C22.3612 11.2496 20.5947 12.4409 20.5947 14.5256C20.6683 15.9402 21.1099 16.9826 23.1708 18.1739ZM14.4855 23.5346C14.7063 23.6091 15.0744 23.6835 15.6632 23.6835C18.5337 23.6835 20.153 21.0776 20.153 17.3549C20.153 13.5577 18.4601 11.2496 15.4424 11.2496C14.0439 11.2496 12.9398 11.5474 11.983 12.1431V28.9698H14.4855V23.5346ZM14.4855 13.4088C14.7063 13.3343 15.0744 13.1854 15.3688 13.1854C16.8409 13.1854 17.4297 14.3767 17.4297 17.2804C17.4297 20.1097 16.6936 21.4499 15.2216 21.4499C14.8535 21.4499 14.5591 21.3754 14.4119 21.301V13.4088H14.4855ZM6.7571 23.6835C8.30278 23.6835 9.62766 23.3113 10.5845 22.6412V11.3985H8.00837V21.1521C7.71395 21.3754 7.34593 21.4499 6.8307 21.4499C5.65304 21.4499 5.50583 20.3331 5.50583 19.663V11.3985H2.92969V19.5141C2.92969 22.2689 4.25456 23.6835 6.7571 23.6835Z" fill="#FFB406"/>
</svg>
