<svg width="74" height="23" viewBox="0 0 74 23" fill="none" xmlns="http://www.w3.org/2000/svg">
<path d="M73.9997 0V16.421H0V0H73.9997Z" fill="#FFCC00"/>
<path d="M13.0127 2.94922L10.6484 6.17906H23.5338C24.1851 6.17906 24.1765 6.42791 23.8581 6.86156C23.5348 7.30178 22.9938 8.06737 22.6644 8.51454C22.4974 8.74148 22.1952 9.15492 23.1965 9.15492H28.4657C28.4657 9.15492 29.3151 7.99282 30.0269 7.02116C30.9955 5.69959 30.1109 2.94935 26.6484 2.94935L13.0127 2.94922Z" fill="#D2002E"/>
<path d="M9.69274 13.4716L14.4415 6.9835H20.3343C20.9856 6.9835 20.9771 7.23235 20.6588 7.666C20.3355 8.10622 19.7855 8.86367 19.4562 9.31085C19.289 9.53778 18.987 9.95188 19.9881 9.95188H27.8827C27.2262 10.8563 25.0965 13.4715 21.2724 13.4715L9.69274 13.4716ZM36.8889 9.95109L34.3137 13.4714H27.5208C27.5208 13.4714 30.0945 9.95188 30.0967 9.95188L36.8889 9.95109ZM47.2953 9.15492H30.6803L35.2239 2.94922H42.0148L39.4105 6.50758H42.4418L45.0471 2.94922H51.8373L47.2953 9.15492ZM46.7121 9.95201L44.1358 13.4716H37.3453C37.3453 13.4716 39.9191 9.95201 39.9213 9.95201H46.7121ZM0 11.3399H10.0073L9.46066 12.0876H0V11.3399ZM0 9.95201H11.024L10.4763 10.6987H0V9.95201ZM0 12.7285H8.99115L8.44711 13.4716H0V12.7285ZM74 12.0876H64.0312L64.5784 11.34H74V12.0876ZM74 13.4716L63.0178 13.4727L63.5618 12.7285H74V13.4716ZM65.5938 9.95201H74V10.6991L65.0471 10.6997L65.5938 9.95201ZM61.242 2.94922L56.6992 9.15479H49.5033C49.5033 9.15479 54.0473 2.94922 54.0496 2.94922H61.242ZM48.9211 9.95201C48.9211 9.95201 48.4247 10.6341 48.1837 10.962C47.3307 12.1212 48.0848 13.4716 50.8683 13.4716H61.7743L64.3504 9.95201H48.9211Z" fill="#D2002E"/>
<path d="M0 19.0898H74V19.4618H0V19.0898ZM0 20.8256H74V21.1976H0V20.8256ZM0 22.5611H74V22.933H0V22.5611Z" fill="#FFCC00"/>
<path d="M24.8477 22.9325H27.0747L27.4301 22.4481H25.7728L26.7022 21.1817H28.2115L28.567 20.6972H27.0578L27.8819 19.5742H29.5393L29.8949 19.0896H27.668L24.8477 22.9325ZM27.5808 22.9325H28.2642L30.5938 21.3029L30.5709 22.9325H31.2886L31.2939 20.923L33.9778 19.0896H33.3286L31.1921 20.5651L31.2155 19.0896H30.532L30.5113 20.9341L27.5808 22.9325ZM34.84 19.5742H35.3241C35.6773 19.5742 36.0719 19.7503 35.7163 20.2348C35.3446 20.7411 34.7751 20.9119 34.4219 20.9119H33.858L34.84 19.5742ZM31.8057 22.9325H32.3752L33.5024 21.3965H34.0606C34.7782 21.3965 35.6896 21.0937 36.3158 20.2401C36.9583 19.3647 36.4825 19.0893 35.6682 19.0893H34.6259L31.8057 22.9325ZM35.0855 22.9325H35.6551L36.9076 21.2257H37.2492C37.551 21.2257 37.7392 21.2257 37.6411 21.6L37.2727 22.9325H37.9221L38.2936 21.4018C38.342 21.1652 38.3173 21.0826 38.189 21.0164L38.1971 21.0053C38.7152 20.9282 39.3163 20.5979 39.6598 20.1299C40.3345 19.2106 39.666 19.0893 38.8798 19.0893H37.9059L35.0855 22.9325ZM38.1199 19.5742H38.6665C39.1907 19.5742 39.3023 19.7944 39.0479 20.141C38.7772 20.5101 38.2885 20.7411 37.7473 20.7411H37.2632L38.1199 19.5742ZM38.5118 22.9325H40.7389L41.0942 22.4481H39.437L40.3662 21.1817H41.8757L42.231 20.6972H40.7218L41.5459 19.5742H43.2034L43.5591 19.0896H41.3321L38.5118 22.9325ZM46.3024 19.1611C46.0977 19.0675 45.8166 19.0234 45.5546 19.0234C44.8369 19.0234 44.0121 19.387 43.511 20.0696C42.6343 21.2644 44.5168 21.0276 43.8863 21.8866C43.555 22.3378 42.97 22.5142 42.6455 22.5142C42.3548 22.5142 42.094 22.404 41.957 22.3268L41.5244 22.8389C41.7258 22.9215 41.9428 22.9986 42.2218 22.9986C43.0191 22.9986 43.9125 22.6734 44.5145 21.8531C45.4438 20.587 43.6097 20.7574 44.1513 20.0199C44.4464 19.618 44.9031 19.5079 45.222 19.5079C45.5183 19.5079 45.6411 19.5576 45.8508 19.6676L46.3024 19.1611ZM49.1502 19.1611C48.9456 19.0675 48.6645 19.0234 48.4024 19.0234C47.6848 19.0234 46.86 19.387 46.3589 20.0696C45.4821 21.2644 47.3646 21.0276 46.7342 21.8866C46.403 22.3378 45.8179 22.5142 45.4934 22.5142C45.2027 22.5142 44.9418 22.404 44.805 22.3268L44.3723 22.8389C44.5737 22.9215 44.7906 22.9986 45.0695 22.9986C45.8669 22.9986 46.7603 22.6734 47.3623 21.8531C48.2916 20.587 46.4577 20.7574 46.9991 20.0199C47.2941 19.618 47.751 19.5079 48.0699 19.5079C48.3662 19.5079 48.4892 19.5576 48.6986 19.6676L49.1502 19.1611Z" fill="#D2002E"/>
</svg>
