<svg width="51" height="21" viewBox="0 0 51 21" fill="none" xmlns="http://www.w3.org/2000/svg">
<path fill-rule="evenodd" clip-rule="evenodd" d="M33.6623 16.7962C32.7325 17.0536 31.5216 17.1609 30.4837 17.1609C27.7809 17.1609 26.0078 15.7665 26.0078 13.2137C26.0078 10.7896 27.6728 9.22361 30.0945 9.22361C30.635 9.22361 31.2189 9.28796 31.5648 9.45958V5.94141H33.6623V16.7962ZM31.5648 11.2615C31.2405 11.1114 30.7864 11.0256 30.2674 11.0256C28.9918 11.0256 28.1485 11.7979 28.1485 13.1493C28.1485 14.5866 29.0566 15.4018 30.5485 15.4018C30.808 15.4018 31.2189 15.4018 31.5648 15.316V11.2615ZM50.8958 16.7962C49.966 17.0536 48.7551 17.1609 47.6956 17.1609C45.0144 17.1609 43.2196 15.7665 43.2196 13.2137C43.2196 10.7896 44.8846 9.22361 47.3064 9.22361C47.8686 9.22361 48.4308 9.28796 48.7768 9.45958V5.94141H50.8958V16.7962ZM48.7768 11.2615C48.4524 11.1114 48.02 11.0256 47.501 11.0256C46.2036 11.0256 45.3603 11.7979 45.3603 13.1493C45.3603 14.5866 46.2901 15.4018 47.7821 15.4018C48.0416 15.4018 48.4308 15.4018 48.7768 15.316V11.2615ZM36.9706 11.2615C37.3165 11.1114 37.8139 11.0685 38.2247 11.0685C39.5221 11.0685 40.4086 11.7979 40.4086 13.1064C40.4086 14.651 39.414 15.3589 38.095 15.3804V17.1609H38.2031C40.9276 17.1609 42.5493 15.6807 42.5493 13.0421C42.5493 10.6394 40.8195 9.22361 38.268 9.22361C36.9706 9.22361 35.6948 9.52394 34.8515 9.86715V20.0569H36.9706V11.2615Z" fill="#3F3F42"/>
<path fill-rule="evenodd" clip-rule="evenodd" d="M18.2656 4.26953L18.6116 4.65567L18.8062 4.54841L18.2656 4.26953Z" fill="#DC0032"/>
<path fill-rule="evenodd" clip-rule="evenodd" d="M17.75 3.99023L18.4203 4.76252L18.6581 4.6338L18.3987 4.33347L17.75 3.99023Z" fill="#DC0032"/>
<path fill-rule="evenodd" clip-rule="evenodd" d="M17.2109 3.71094L18.2272 4.86936L18.465 4.74065L17.8813 4.05417L17.2109 3.71094Z" fill="#DC0032"/>
<path fill-rule="evenodd" clip-rule="evenodd" d="M16.6875 3.43164L18.0281 4.9762L18.266 4.84749L17.3362 3.77488L16.6875 3.43164ZM19.2606 6.15605L19.1093 6.24186L19.2606 6.41348V6.15605Z" fill="#DC0032"/>
<path fill-rule="evenodd" clip-rule="evenodd" d="M16.1719 3.1543L17.8368 5.085L18.0747 4.95629L16.8206 3.49753L16.1719 3.1543ZM19.1774 6.20049L18.9396 6.35066L19.2639 6.7368V6.32921L19.1774 6.20049Z" fill="#DC0032"/>
<path fill-rule="evenodd" clip-rule="evenodd" d="M15.6328 2.875L17.6438 5.19185L17.9032 5.06313L16.3031 3.21824L15.6328 2.875ZM18.9844 6.30734L18.7465 6.4575L19.2655 7.05817V6.65057L18.9844 6.30734Z" fill="#DC0032"/>
<path fill-rule="evenodd" clip-rule="evenodd" d="M15.1094 2.5957L17.4663 5.29868L17.7041 5.16997L15.7581 2.93893L15.1094 2.5957ZM18.7853 6.43563L18.5474 6.56434L19.261 7.40098V6.99338L18.7853 6.43563Z" fill="#DC0032"/>
<path fill-rule="evenodd" clip-rule="evenodd" d="M14.5938 2.31641L17.275 5.40552L17.5129 5.27681L15.2424 2.65964L14.5938 2.31641ZM18.594 6.54247L18.3561 6.67118L19.2643 7.72234V7.31475L18.594 6.54247Z" fill="#DC0032"/>
<path fill-rule="evenodd" clip-rule="evenodd" d="M14.0547 2.03711L17.0819 5.51237L17.3197 5.38365L14.725 2.38034L14.0547 2.03711ZM18.4009 6.64931L18.163 6.77802L19.2658 8.04371V7.63611L18.4009 6.64931Z" fill="#DC0032"/>
<path fill-rule="evenodd" clip-rule="evenodd" d="M13.5312 1.75977L16.8828 5.64262L17.1206 5.49245L14.1799 2.103L13.5312 1.75977ZM18.2018 6.75811L17.9639 6.88682L19.2613 8.38848V7.98089L18.2018 6.75811Z" fill="#DC0032"/>
<path fill-rule="evenodd" clip-rule="evenodd" d="M12.9922 1.48047L16.6897 5.74946L16.9276 5.59929L13.6625 1.8237L12.9922 1.48047ZM18.0303 6.86495L17.7709 6.99366L19.2628 8.70984V8.30225L18.0303 6.86495Z" fill="#DC0032"/>
<path fill-rule="evenodd" clip-rule="evenodd" d="M12.4766 1.20117L16.4984 5.85627L16.7579 5.70613L13.1469 1.54441L12.4766 1.20117ZM17.839 6.97179L17.6012 7.1005L19.2661 9.05266V8.62361L17.839 6.97179Z" fill="#DC0032"/>
<path fill-rule="evenodd" clip-rule="evenodd" d="M11.9531 0.921875L16.321 5.96311L16.5588 5.81294L12.6018 1.26511L11.9531 0.921875ZM17.64 7.07863L17.4021 7.20734L19.2617 9.37402V8.96643L17.64 7.07863Z" fill="#DC0032"/>
<path fill-rule="evenodd" clip-rule="evenodd" d="M11.4141 0.623047L16.1279 6.07188L16.3657 5.92171L12.0844 0.987733L11.4141 0.623047ZM17.4469 7.1874L17.209 7.31611L19.2632 9.69728V9.28972L17.4469 7.1874Z" fill="#DC0032"/>
<path fill-rule="evenodd" clip-rule="evenodd" d="M10.8984 0.34375L15.9366 6.17872L16.1744 6.05L11.5688 0.708436L10.8984 0.34375ZM17.2556 7.29424L17.0177 7.42295L19.2665 10.0401V9.61108L17.2556 7.29424Z" fill="#DC0032"/>
<path fill-rule="evenodd" clip-rule="evenodd" d="M10.375 0.0859375L15.7375 6.28559L15.9753 6.15688L11.0237 0.429172L10.375 0.0859375ZM17.0565 7.40111L16.8186 7.52982L19.262 10.3615V9.9539L17.0565 7.40111Z" fill="#DC0032"/>
<path fill-rule="evenodd" clip-rule="evenodd" d="M10.0312 0L15.5451 6.39272L15.7829 6.26401L10.507 0.150165L10.3772 0.0858086C10.2691 0.0214521 10.161 0 10.0312 0ZM16.8641 7.50824L16.6262 7.63696L19.2642 10.6832V10.2756L16.8641 7.50824Z" fill="#DC0032"/>
<path fill-rule="evenodd" clip-rule="evenodd" d="M10.0329 0C9.94642 0 9.85993 0.0214521 9.77344 0.0429043L15.3521 6.49999L15.6116 6.37127L10.0978 0C10.0762 0 10.0545 0 10.0329 0ZM16.6928 7.6155L16.4549 7.74422L19.2659 11.0264V10.5973L16.6928 7.6155Z" fill="#DC0032"/>
<path fill-rule="evenodd" clip-rule="evenodd" d="M9.8376 0.0214844C9.79436 0.0429365 9.72949 0.0643885 9.70786 0.0858408L9.57812 0.150197L15.1784 6.60728L15.4163 6.47857L9.8376 0.0214844ZM16.4974 7.7228L16.2596 7.87296L19.2652 11.3482V10.9406L16.4974 7.7228Z" fill="#DC0032"/>
<path fill-rule="evenodd" clip-rule="evenodd" d="M9.62067 0.107422L9.38281 0.236135L14.9831 6.71467L15.221 6.58596L9.62067 0.107422ZM16.3021 7.83019L16.0643 7.98036L19.2645 11.6701V11.2625L16.3021 7.83019Z" fill="#DC0032"/>
<path fill-rule="evenodd" clip-rule="evenodd" d="M9.42535 0.214844L9.1875 0.343556L14.7878 6.82209L15.0257 6.69338L9.42535 0.214844ZM16.1068 7.93761L15.869 8.08778L19.2638 12.0135V11.6059L16.1068 7.93761Z" fill="#DC0032"/>
<path fill-rule="evenodd" clip-rule="evenodd" d="M9.23004 0.322266L8.99219 0.450979L14.5925 6.92951L14.8304 6.8008L9.23004 0.322266ZM15.9115 8.04503L15.6737 8.1952L19.263 12.3355V11.9279L15.9115 8.04503Z" fill="#DC0032"/>
<path fill-rule="evenodd" clip-rule="evenodd" d="M9.03473 0.429688L8.79688 0.558401L14.3972 7.03694L14.635 6.90822L9.03473 0.429688ZM15.7162 8.15246L15.4783 8.30262L19.2623 12.6574V12.2498L15.7162 8.15246Z" fill="#DC0032"/>
<path fill-rule="evenodd" clip-rule="evenodd" d="M8.83942 0.537109L8.60156 0.66582L14.2019 7.14436L14.4397 7.01565L8.83942 0.537109ZM15.5425 8.25988L15.3046 8.41004L19.2616 13.0008V12.5932L15.5425 8.25988Z" fill="#DC0032"/>
<path fill-rule="evenodd" clip-rule="evenodd" d="M8.6441 0.623047L8.40625 0.773213L14.0282 7.25175L14.2661 7.12304L8.6441 0.623047ZM15.3472 8.38872L15.1093 8.51744L19.2609 13.3227V12.9151L15.3472 8.38872Z" fill="#DC0032"/>
<path fill-rule="evenodd" clip-rule="evenodd" d="M8.44879 0.730469L8.21094 0.859182L13.8329 7.35917L14.0708 7.23046L8.44879 0.730469ZM15.1519 8.49614L14.914 8.62486L19.2602 13.6661V13.2371L15.1519 8.49614Z" fill="#DC0032"/>
<path fill-rule="evenodd" clip-rule="evenodd" d="M8.25348 0.835938L8.01562 0.964651L13.6376 7.48609L13.8754 7.33593L8.25348 0.835938ZM14.9566 8.60161L14.7187 8.73033L19.2595 13.9861V13.5785L14.9566 8.60161Z" fill="#DC0032"/>
<path fill-rule="evenodd" clip-rule="evenodd" d="M8.06598 0.943359L7.82812 1.07207L13.4501 7.59352L13.6879 7.44335L8.06598 0.943359ZM14.7691 8.70904L14.5312 8.83775L19.2666 14.308V13.9004L14.7691 8.70904Z" fill="#DC0032"/>
<path fill-rule="evenodd" clip-rule="evenodd" d="M7.87067 1.05078L7.63281 1.17949L13.2548 7.70094L13.4926 7.55078L7.87067 1.05078ZM14.5738 8.81646L14.3359 8.94517L19.2659 14.6514V14.2224L14.5738 8.81646Z" fill="#DC0032"/>
<path fill-rule="evenodd" clip-rule="evenodd" d="M7.67535 1.1582L7.4375 1.28692L13.0595 7.80836L13.2973 7.6582L7.67535 1.1582ZM14.4001 8.92388L14.1622 9.0526L19.2652 14.9734V14.5658L14.4001 8.92388Z" fill="#DC0032"/>
<path fill-rule="evenodd" clip-rule="evenodd" d="M7.47823 1.24414L7.21875 1.37285L12.884 7.91575L13.1218 7.76559L7.47823 1.24414ZM14.203 9.03127L13.9651 9.15998L19.2627 15.2953V14.8877L14.203 9.03127Z" fill="#DC0032"/>
<path fill-rule="evenodd" clip-rule="evenodd" d="M7.28291 1.35156L7.02344 1.48027L12.7103 8.04463C12.7319 8.00172 12.7535 7.98027 12.7968 7.95882L12.9265 7.87301L7.28291 1.35156ZM14.0077 9.1387L13.7698 9.26741L19.2188 15.5743C19.2404 15.51 19.262 15.4456 19.262 15.3813V15.2096L14.0077 9.1387Z" fill="#DC0032"/>
<path fill-rule="evenodd" clip-rule="evenodd" d="M7.0876 1.45898L6.82812 1.5877L12.6447 8.30222V8.21641C12.6447 8.15205 12.6879 8.06624 12.7312 8.00189L7.0876 1.45898ZM13.8123 9.24612L13.6394 9.35338C13.6177 9.35338 13.5961 9.37483 13.5745 9.37483L19.1099 15.789C19.1748 15.7032 19.218 15.6174 19.2397 15.5316L13.8123 9.24612Z" fill="#DC0032"/>
<path fill-rule="evenodd" clip-rule="evenodd" d="M6.89226 1.56641L6.63281 1.69512L12.644 8.64561V8.21657L6.89226 1.56641ZM13.2062 9.26773L18.9578 15.9393C19.0227 15.8964 19.0876 15.8106 19.1524 15.7463L13.617 9.35354C13.5305 9.39644 13.4008 9.39644 13.3143 9.35354L13.2062 9.26773Z" fill="#DC0032"/>
<path fill-rule="evenodd" clip-rule="evenodd" d="M6.69695 1.67383L6.4375 1.80254L18.7625 16.0468L18.9355 15.9609C18.9571 15.9395 18.9787 15.918 19.0004 15.8966L13.3352 9.3537H13.3136L12.8162 9.05337C12.773 9.03192 12.7514 8.98901 12.7081 8.94611C12.6649 8.88175 12.6649 8.83885 12.6433 8.79594V8.55997L6.69695 1.67383Z" fill="#DC0032"/>
<path fill-rule="evenodd" clip-rule="evenodd" d="M6.50166 1.78125L6.24219 1.90996L18.5672 16.1542L18.8051 16.0255L6.50166 1.78125Z" fill="#DC0032"/>
<path fill-rule="evenodd" clip-rule="evenodd" d="M6.31416 1.86719L6.05469 1.9959L18.4013 16.2616L18.6392 16.1329L6.31416 1.86719Z" fill="#DC0032"/>
<path fill-rule="evenodd" clip-rule="evenodd" d="M6.11885 1.97461L5.85938 2.10332L18.206 16.369L18.4439 16.2403L6.11885 1.97461Z" fill="#DC0032"/>
<path fill-rule="evenodd" clip-rule="evenodd" d="M5.92354 2.08008L5.66406 2.20879L18.0107 16.4745L18.2486 16.3457L5.92354 2.08008Z" fill="#DC0032"/>
<path fill-rule="evenodd" clip-rule="evenodd" d="M5.7066 2.1875L5.46875 2.31621L17.8154 16.6033L18.0533 16.4532L5.7066 2.1875Z" fill="#DC0032"/>
<path fill-rule="evenodd" clip-rule="evenodd" d="M5.51129 2.29492L5.27344 2.42364L17.6201 16.7108L17.858 16.5606L5.51129 2.29492Z" fill="#DC0032"/>
<path fill-rule="evenodd" clip-rule="evenodd" d="M5.31598 2.40234L5.07812 2.53105L17.4464 16.8182L17.6843 16.668L5.31598 2.40234Z" fill="#DC0032"/>
<path fill-rule="evenodd" clip-rule="evenodd" d="M5.12067 2.48828L4.88281 2.61699L17.2511 16.9256L17.489 16.7754L5.12067 2.48828Z" fill="#DC0032"/>
<path fill-rule="evenodd" clip-rule="evenodd" d="M4.92535 2.5957L4.6875 2.72442L17.0558 17.033L17.2936 16.9043L4.92535 2.5957Z" fill="#DC0032"/>
<path fill-rule="evenodd" clip-rule="evenodd" d="M4.73004 2.70312L4.49219 2.83184L10.5034 9.78231L10.6979 9.91103C10.7844 9.95393 10.8709 10.0612 10.8709 10.1685V10.1899L16.8605 17.1404L17.0983 17.0117L4.73004 2.70312Z" fill="#DC0032"/>
<path fill-rule="evenodd" clip-rule="evenodd" d="M4.53473 2.81055L4.29688 2.93925L9.94046 9.48217L10.654 9.86828L4.53473 2.81055ZM10.8486 10.1043C10.8486 10.1257 10.8702 10.1472 10.8702 10.1686V10.5333L16.6652 17.2478L16.903 17.1191L10.8486 10.1043Z" fill="#DC0032"/>
<path fill-rule="evenodd" clip-rule="evenodd" d="M4.33942 2.91797L4.10156 3.04668L9.37756 9.16055L10.0911 9.5467L4.33942 2.91797ZM10.8695 10.4477V10.8553L16.4915 17.3553L16.7293 17.2266L10.8695 10.4477Z" fill="#DC0032"/>
<path fill-rule="evenodd" clip-rule="evenodd" d="M4.15192 3.02539L3.91406 3.1541L8.84409 8.83893L9.53603 9.22507L4.15192 3.02539ZM10.8766 10.7696V11.1987L16.304 17.4627L16.5418 17.334L10.8766 10.7696Z" fill="#DC0032"/>
<path fill-rule="evenodd" clip-rule="evenodd" d="M3.9566 3.11133L3.71875 3.24004L8.28118 8.51728L8.97312 8.92487L3.9566 3.11133ZM10.8759 11.113V11.5206L16.1087 17.5701L16.3465 17.4413L10.8759 11.113Z" fill="#DC0032"/>
<path fill-rule="evenodd" clip-rule="evenodd" d="M3.76128 3.21875L3.52344 3.34746L7.71827 8.19565L8.41021 8.60324L3.76128 3.21875ZM10.8752 11.4349V11.8425L15.9133 17.6775L16.1512 17.5488L10.8752 11.4349Z" fill="#DC0032"/>
<path fill-rule="evenodd" clip-rule="evenodd" d="M3.56598 3.32422L3.32812 3.45293L7.15536 7.89353L7.8473 8.27967L3.56598 3.32422ZM10.8745 11.7549V12.184L15.718 17.8044L15.9559 17.6542L10.8745 11.7549Z" fill="#DC0032"/>
<path fill-rule="evenodd" clip-rule="evenodd" d="M3.37066 3.43164L3.13281 3.56035L6.59249 7.5719L7.2844 7.95805L3.37066 3.43164ZM10.8738 12.0983V12.5059L15.5443 17.9118L15.7822 17.7617L10.8738 12.0983Z" fill="#DC0032"/>
<path fill-rule="evenodd" clip-rule="evenodd" d="M3.17535 3.53906L2.9375 3.66778L6.02958 7.25028L6.74311 7.63642L3.17535 3.53906ZM10.8731 12.4203V12.8278L15.349 18.0192L15.5869 17.8691L10.8731 12.4203Z" fill="#DC0032"/>
<path fill-rule="evenodd" clip-rule="evenodd" d="M2.98004 3.64648L2.74219 3.7752L5.46668 6.92866L6.18024 7.33625L2.98004 3.64648ZM8.64524 10.597L9.20744 11.2405V11.0046C9.20744 10.9617 9.16419 10.8973 9.12094 10.8758L8.64524 10.597ZM10.8724 12.7422V13.1712L15.1537 18.1267L15.3916 17.9765L10.8724 12.7422Z" fill="#DB0032"/>
<path fill-rule="evenodd" clip-rule="evenodd" d="M2.78473 3.73242L2.54688 3.86114L4.90377 6.607L5.61733 7.01459L2.78473 3.73242ZM8.08233 10.2753L9.20673 11.5624V11.1549L8.79589 10.6829L8.08233 10.2753ZM10.8717 13.0856V13.4932L14.9584 18.2341L15.1963 18.1053L10.8717 13.0856Z" fill="#DC0032"/>
<path fill-rule="evenodd" clip-rule="evenodd" d="M2.58941 3.83984L2.35156 3.96856L4.36249 6.30683L5.05443 6.69297L2.58941 3.83984ZM7.51942 9.97514L9.20602 11.9058V11.4983L8.23298 10.3613L7.51942 9.97514ZM10.871 13.4075V13.8151L14.7631 18.3415L15.0009 18.2128L10.871 13.4075Z" fill="#DC0032"/>
<path fill-rule="evenodd" clip-rule="evenodd" d="M2.3941 3.94727L2.15625 4.07598L3.79958 5.9852L4.49152 6.37135L2.3941 3.94727ZM6.97814 9.65354L9.20531 12.2278V11.8202L7.67008 10.0397L6.97814 9.65354ZM10.8703 13.7509V14.1585L14.5894 18.4489L14.8272 18.3202L10.8703 13.7509Z" fill="#DC0032"/>
<path fill-rule="evenodd" clip-rule="evenodd" d="M2.19879 4.05469L1.96094 4.1834L3.23669 5.66361L3.92861 6.04972L2.19879 4.05469ZM6.41526 9.33192L9.20461 12.5497V12.1421L7.10717 9.73949L6.41526 9.33192ZM10.8696 14.0728V14.4804L14.3941 18.5563L14.6319 18.4276L10.8696 14.0728Z" fill="#DC0032"/>
<path fill-rule="evenodd" clip-rule="evenodd" d="M2.01129 4.16211L1.77344 4.29082L2.6816 5.34198L3.37353 5.74958L2.01129 4.16211ZM5.86017 9.0103L9.21171 12.8931V12.4855L6.55211 9.41789L5.86017 9.0103ZM10.8767 14.3948V14.8024L14.2066 18.6637L14.4444 18.535L10.8767 14.3948Z" fill="#DC0032"/>
<path fill-rule="evenodd" clip-rule="evenodd" d="M1.81598 4.26953L1.57812 4.39825L2.1187 5.02036L2.83225 5.42795L1.81598 4.26953ZM5.29727 8.71013L9.21101 13.2151V12.8075L5.9892 9.09627L5.29727 8.71013ZM10.876 14.7382V15.1458L14.0113 18.7712L14.2491 18.6424L10.876 14.7382Z" fill="#DC0032"/>
<path fill-rule="evenodd" clip-rule="evenodd" d="M1.61885 4.35547L1.35938 4.48418L1.55398 4.72016L2.26753 5.1063L1.61885 4.35547ZM4.73254 8.38847L9.20849 13.5584V13.1294L5.44611 8.77461L4.73254 8.38847ZM10.8734 15.0601V15.4677L13.8142 18.9L14.052 18.7498L10.8734 15.0601Z" fill="#DC0032"/>
<path fill-rule="evenodd" clip-rule="evenodd" d="M1.4248 4.46289L1.27344 4.5487L1.7059 4.78468L1.4248 4.46289ZM4.1709 8.06685L9.20904 13.8804V13.4728L4.88446 8.47444L4.1709 8.06685ZM10.874 15.382V15.8111L13.6417 19.0074L13.8796 18.8573L10.874 15.382Z" fill="#DC0032"/>
<path fill-rule="evenodd" clip-rule="evenodd" d="M3.63281 7.74414L9.21152 14.2012V13.7936L4.32474 8.15173L3.63281 7.74414ZM10.8765 15.7243V16.1319L13.4496 19.1138L13.6875 18.9636L10.8765 15.7243Z" fill="#DC0032"/>
<path fill-rule="evenodd" clip-rule="evenodd" d="M3.07031 7.44336L9.21122 14.544V14.115L3.76224 7.8295L3.07031 7.44336ZM10.8762 16.0457V16.4533L13.2547 19.2206L13.4926 19.0704L10.8762 16.0457Z" fill="#DC0032"/>
<path fill-rule="evenodd" clip-rule="evenodd" d="M2.50781 7.12305L9.21091 14.8673V14.4597L3.19974 7.50919L2.50781 7.12305ZM10.8759 16.3689V16.798L13.0598 19.3293L13.2976 19.2006L10.8759 16.3689Z" fill="#DC0032"/>
<path fill-rule="evenodd" clip-rule="evenodd" d="M1.94531 6.80078L9.21061 15.1886V14.781L2.63724 7.20837L1.94531 6.80078ZM10.8756 16.7117V17.1193L12.8649 19.4361L13.1027 19.3074L10.8756 16.7117Z" fill="#DB0032"/>
<path fill-rule="evenodd" clip-rule="evenodd" d="M1.38281 6.47852L9.2103 15.5313V15.1237L2.07474 6.88611L1.38281 6.47852ZM10.8752 17.033V17.4405L12.6916 19.5429L12.9294 19.4142L10.8752 17.033Z" fill="#DA0032"/>
<path fill-rule="evenodd" clip-rule="evenodd" d="M0.820312 6.17773L9.21 15.8527V15.4451L1.53387 6.56388L0.820312 6.17773ZM10.8749 17.3543V17.7833L12.4967 19.6497L12.7345 19.521L10.8749 17.3543Z" fill="#D90032"/>
<path fill-rule="evenodd" clip-rule="evenodd" d="M0.796875 6.15625V6.45658L9.20818 16.1744V15.7668L0.969858 6.24206L0.796875 6.15625ZM10.8731 17.6975V17.9549C10.8731 17.9978 10.8515 18.0407 10.8299 18.0622L12.3002 19.7569L12.5381 19.6282L10.8731 17.6975Z" fill="#D80032"/>
<path fill-rule="evenodd" clip-rule="evenodd" d="M0.796875 6.37109V6.80014L9.20818 16.518V16.1104L0.796875 6.37109ZM10.8515 18.0196C10.8299 18.1054 10.765 18.1912 10.7001 18.2127L10.6785 18.2341L12.1056 19.8645L12.3435 19.7358L10.8515 18.0196Z" fill="#D70032"/>
<path fill-rule="evenodd" clip-rule="evenodd" d="M0.796875 6.71484V7.12244L9.20818 16.8403V16.4327L0.796875 6.71484ZM10.7218 18.1917C10.7218 18.2132 10.7218 18.2132 10.7001 18.2132L10.4839 18.3419L11.911 19.9723L12.1489 19.8436L10.7218 18.1917Z" fill="#D60032"/>
<path fill-rule="evenodd" clip-rule="evenodd" d="M0.796875 7.03711V7.4447L9.20818 17.1625V16.7549L0.796875 7.03711ZM10.5488 18.2995L10.2893 18.4496L11.7381 20.1015L11.9759 19.9513L10.5488 18.2995Z" fill="#D50032"/>
<path fill-rule="evenodd" clip-rule="evenodd" d="M0.796875 7.37891V7.7865L9.20818 17.5043V17.0967L0.796875 7.37891ZM10.3542 18.4053L10.2028 18.4911C10.1596 18.5126 10.1164 18.5126 10.0731 18.5126L11.5434 20.2073L11.7813 20.0571L10.3542 18.4053Z" fill="#D40032"/>
<path fill-rule="evenodd" clip-rule="evenodd" d="M0.796875 7.70117V8.10876L9.20818 17.8266V17.419L0.796875 7.70117ZM9.68389 18.4058L11.3488 20.315L11.5867 20.1649L10.138 18.513C10.1164 18.513 10.0731 18.5345 10.0515 18.5345H10.0299C9.96499 18.5345 9.92174 18.513 9.8785 18.4916L9.68389 18.4058Z" fill="#D30032"/>
<path fill-rule="evenodd" clip-rule="evenodd" d="M0.796875 8.02344V8.45248L11.1542 20.4228L11.3921 20.2726L9.83525 18.4706L9.35954 18.2132C9.27305 18.1703 9.20818 18.063 9.20818 17.9558V17.7412L0.796875 8.02344Z" fill="#D20032"/>
<path fill-rule="evenodd" clip-rule="evenodd" d="M0.796875 8.36719V8.77478L10.9596 20.5305L11.1975 20.4018L0.796875 8.36719Z" fill="#D10032"/>
<path fill-rule="evenodd" clip-rule="evenodd" d="M0.796875 8.6875V9.09509L10.765 20.6363L11.0029 20.5076L0.796875 8.6875Z" fill="#D00032"/>
<path fill-rule="evenodd" clip-rule="evenodd" d="M0.796875 9.00977V9.43881L10.592 20.7441L10.8299 20.6154L0.796875 9.00977Z" fill="#CF0032"/>
<path fill-rule="evenodd" clip-rule="evenodd" d="M0.796875 9.35352V9.76108L10.3975 20.8519L10.6353 20.7231L0.796875 9.35352Z" fill="#CE0032"/>
<path fill-rule="evenodd" clip-rule="evenodd" d="M0.796875 9.67578V10.0834L10.1812 20.9382C10.2461 20.9167 10.311 20.8953 10.3758 20.8738L10.4407 20.8309L0.796875 9.67578Z" fill="#CD0032"/>
<path fill-rule="evenodd" clip-rule="evenodd" d="M0.796875 9.99609V10.4251L9.90012 20.9367C9.94337 20.9367 9.98661 20.9367 10.0299 20.9367C10.0947 20.9367 10.1596 20.9367 10.2245 20.9152L0.796875 9.99609Z" fill="#CC0032"/>
<path fill-rule="evenodd" clip-rule="evenodd" d="M0.796875 10.3398V10.7474L9.40279 20.7012L9.70551 20.8729C9.77038 20.9158 9.8785 20.9372 9.96499 20.9372L0.796875 10.3398Z" fill="#CB0032"/>
<path fill-rule="evenodd" clip-rule="evenodd" d="M0.796875 10.6621V11.0697L8.84059 20.3799L9.55415 20.7875L0.796875 10.6621Z" fill="#CA0032"/>
<path fill-rule="evenodd" clip-rule="evenodd" d="M0.796875 11.0039V11.4115L8.27839 20.0567L8.99195 20.4643L0.796875 11.0039Z" fill="#C90032"/>
<path fill-rule="evenodd" clip-rule="evenodd" d="M0.796875 11.3262V11.7338L7.71619 19.7354L8.40813 20.143L0.796875 11.3262Z" fill="#C80033"/>
<path fill-rule="evenodd" clip-rule="evenodd" d="M0.796875 11.6484V12.056L7.15399 19.4141L7.84593 19.8217L0.796875 11.6484Z" fill="#C70033"/>
<path fill-rule="evenodd" clip-rule="evenodd" d="M0.796875 11.9922V12.3998L6.5702 19.0714L7.28373 19.479L0.796875 11.9922Z" fill="#C60033"/>
<path fill-rule="evenodd" clip-rule="evenodd" d="M0.796875 12.3145V12.722L6.008 18.7501L6.72153 19.1577L0.796875 12.3145Z" fill="#C50033"/>
<path fill-rule="evenodd" clip-rule="evenodd" d="M0.796875 12.6348V13.0424L5.4458 18.4268L6.15936 18.8344L0.796875 12.6348Z" fill="#C40033"/>
<path fill-rule="evenodd" clip-rule="evenodd" d="M0.796875 12.9785V13.3861L4.8836 18.1056L5.59716 18.5131L0.796875 12.9785Z" fill="#C30033"/>
<path fill-rule="evenodd" clip-rule="evenodd" d="M0.796875 13.3008V13.7083L4.3214 17.7843L5.03496 18.1918L0.796875 13.3008Z" fill="#C20033"/>
<path fill-rule="evenodd" clip-rule="evenodd" d="M0.796875 13.623V14.0521L3.7592 17.463L4.45114 17.8706L0.796875 13.623Z" fill="#C10033"/>
<path fill-rule="evenodd" clip-rule="evenodd" d="M0.796875 13.9648V14.3724L3.17539 17.1398L3.88894 17.5473L0.796875 13.9648Z" fill="#C00033"/>
<path fill-rule="evenodd" clip-rule="evenodd" d="M0.796875 14.2871V14.6947L2.6132 16.8185L3.32675 17.2046L0.796875 14.2871Z" fill="#BF0033"/>
<path fill-rule="evenodd" clip-rule="evenodd" d="M0.796875 14.6094V15.0384L2.051 16.4757L2.76456 16.8833L0.796875 14.6094Z" fill="#BE0033"/>
<path fill-rule="evenodd" clip-rule="evenodd" d="M0.796875 14.9512V15.3588L1.48881 16.1525L2.20236 16.5601L0.796875 14.9512Z" fill="#BD0033"/>
<path fill-rule="evenodd" clip-rule="evenodd" d="M0.796875 15.2734V15.3807C0.796875 15.5952 0.948235 15.8526 1.12122 15.9599L1.64017 16.2388L0.796875 15.2734Z" fill="#BC0033"/>
<path fill-rule="evenodd" clip-rule="evenodd" d="M0.929688 15.7676C0.972933 15.8105 0.994556 15.8534 1.0378 15.8748L0.929688 15.7676Z" fill="#BB0033"/>
</svg>
