<svg width="81" height="13" viewBox="0 0 81 13" fill="none" xmlns="http://www.w3.org/2000/svg">
<path fill-rule="evenodd" clip-rule="evenodd" d="M17.3952 3.91513L18.3078 0.34375H0.898438L3.90822 3.91513H17.3952Z" fill="url(#paint0_linear_297_12822)"/>
<path fill-rule="evenodd" clip-rule="evenodd" d="M0.898438 1.26511L3.6713 3.91513H3.90822L0.898438 0.34375V1.26511Z" fill="url(#paint1_linear_297_12822)"/>
<path fill-rule="evenodd" clip-rule="evenodd" d="M8.23742 8.10178L5.28906 4.60938H17.1878L16.3103 8.10178H8.23742Z" fill="url(#paint2_linear_297_12822)"/>
<path fill-rule="evenodd" clip-rule="evenodd" d="M8.02683 8.10178L5.28906 5.48686V4.60938L8.23742 8.10178H8.02683Z" fill="url(#paint3_linear_297_12822)"/>
<path fill-rule="evenodd" clip-rule="evenodd" d="M13.1319 12.4885L10.1484 8.97852H16.0803L15.1677 12.4885H13.1319Z" fill="url(#paint4_linear_297_12822)"/>
<path fill-rule="evenodd" clip-rule="evenodd" d="M10.1484 9.856L12.9564 12.4885H13.1319L10.1484 8.97852V9.856Z" fill="url(#paint5_linear_297_12822)"/>
<path fill-rule="evenodd" clip-rule="evenodd" d="M15.7656 12.488H17.4533L18.3468 8.98633H16.6591L15.7656 12.488Z" fill="url(#paint6_linear_297_12822)"/>
<path fill-rule="evenodd" clip-rule="evenodd" d="M16.9141 8.06865H18.5769L19.4704 4.625H17.7827L16.9141 8.06865Z" fill="url(#paint7_linear_297_12822)"/>
<path fill-rule="evenodd" clip-rule="evenodd" d="M18 3.89805H19.7001L20.5688 0.361328H18.8687L18 3.89805Z" fill="url(#paint8_linear_297_12822)"/>
<path d="M33.9853 12.5004C33.1819 12.3201 32.7513 11.9834 32.4213 11.2772C32.2413 10.8921 32.2316 10.8226 32.2372 9.95603C32.2416 9.28607 32.2836 8.85106 32.3943 8.32998C32.7441 6.68386 33.499 4.86199 34.1257 4.15131C34.8274 3.35558 35.7591 2.95458 37.1728 2.83978C38.5375 2.72896 39.68 2.90396 40.24 3.30961C40.8127 3.72448 41.0052 4.20779 41.0052 5.23043C41.0052 5.9759 40.8112 7.07574 40.5883 7.59396C40.3571 8.13125 40.3835 8.12672 37.4914 8.12672H34.9805L34.9132 8.38079C34.5972 9.5736 34.6505 10.0799 35.1245 10.3889C35.4698 10.614 36.6829 10.6962 37.6579 10.5606C38.3873 10.4592 38.8754 10.26 39.2473 9.91223C39.7697 9.42352 39.8027 9.48604 39.5426 10.4721C39.1173 12.0842 39.0395 12.2116 38.3427 12.4391C37.8601 12.5966 34.6176 12.6422 33.9853 12.5004ZM38.8281 6.31434C39.0199 5.55244 38.9727 5.16341 38.6519 4.86075C38.1707 4.40679 36.9173 4.43036 36.2949 4.90507C36.0182 5.11611 35.7554 5.54539 35.5407 6.13686L35.384 6.56842H37.0741H38.7642L38.8281 6.31434ZM64.7962 12.4604C64.0944 12.2766 63.7283 11.9963 63.4313 11.4154L63.1941 10.9517L63.1944 9.9288C63.1947 9.1041 63.2255 8.76812 63.3535 8.19501C63.7572 6.38759 64.4394 4.8343 65.1693 4.0606C66.0081 3.17138 67.009 2.83262 68.8176 2.82581C70.6088 2.81906 71.4178 3.17356 71.813 4.13827C71.9942 4.58087 71.9752 5.9256 71.7763 6.73013C71.587 7.49575 71.4131 7.88789 71.2122 8.00236C71.0905 8.07168 70.4513 8.10077 68.4788 8.12672L65.9042 8.1606L65.7822 8.63486C65.6206 9.26279 65.6099 9.79671 65.7536 10.0677C65.8233 10.1992 65.9907 10.342 66.1903 10.4403C66.4884 10.5871 66.5971 10.5996 67.5641 10.5984C69.0029 10.5968 69.6502 10.4251 70.2289 9.89157C70.4949 9.64645 70.6808 9.54904 70.6808 9.6548C70.6808 9.78556 70.1215 11.7576 70.0394 11.9164C69.7666 12.444 69.0372 12.5998 66.8637 12.5946C65.5404 12.5915 65.2164 12.5705 64.7962 12.4604ZM69.7906 6.18448C70.0344 4.97064 69.6114 4.49692 68.34 4.55989C67.345 4.60917 66.8609 5.02133 66.4727 6.14966C66.4022 6.35438 66.3446 6.53235 66.3446 6.54515C66.3446 6.55794 67.1026 6.56842 68.0291 6.56842H69.7135L69.7906 6.18448ZM20.6931 12.4493C20.5643 12.3206 20.5966 11.966 20.8112 11.1525C21.8208 7.32535 23.3363 1.33955 23.342 1.15653C23.347 0.996603 23.3043 0.89134 23.2 0.806912C23.118 0.740474 23.0509 0.637648 23.0509 0.57841C23.0509 0.48332 23.2209 0.470703 24.5027 0.470703C25.7724 0.470703 25.9688 0.484993 26.0684 0.5846C26.2256 0.741737 26.1935 0.925856 25.6378 3.05862C25.3786 4.05344 25.1834 4.88425 25.204 4.90487C25.2246 4.92549 26.0298 4.94236 26.9932 4.94236H28.745L28.8098 4.78992C28.8946 4.59058 29.6755 1.5718 29.7288 1.23708C29.7637 1.01762 29.7436 0.954183 29.5947 0.814593C29.2432 0.484991 29.2973 0.470703 30.8966 0.470703C32.4942 0.470703 32.5362 0.48 32.5362 0.833686C32.5362 0.996401 31.7008 4.34313 30.8765 7.48307C29.9118 11.1577 29.7486 11.8693 29.8272 12.059C29.8707 12.164 29.9492 12.2664 30.0017 12.2865C30.0542 12.3066 30.0971 12.3698 30.0971 12.4269C30.0971 12.5169 29.9013 12.5306 28.6201 12.5306C27.0263 12.5306 26.9805 12.5206 26.9805 12.1731C26.9805 12.0659 27.2701 10.8629 27.6241 9.49974C27.9781 8.13661 28.2678 6.98039 28.2678 6.93037C28.2678 6.85654 27.9268 6.83948 26.4554 6.8397L24.643 6.83998L24.0136 9.3296C23.6674 10.6989 23.3854 11.874 23.3869 11.9409C23.3884 12.0078 23.4598 12.1327 23.5455 12.2184C23.6313 12.3042 23.6897 12.4095 23.6754 12.4525C23.6377 12.5654 20.8061 12.5624 20.6931 12.4493ZM41.315 12.4242C41.2564 12.3656 41.2085 12.2779 41.2085 12.2292C41.2085 12.1805 41.7112 10.1797 42.3256 7.78305C43.3654 3.72665 43.4355 3.41465 43.3403 3.26925C43.284 3.18334 43.2081 3.11304 43.1717 3.11304C43.1353 3.11304 43.1055 3.06731 43.1055 3.01142C43.1055 2.92458 43.2963 2.90979 44.4162 2.90979C46.1286 2.90979 46.068 2.85826 45.7708 4.06158C45.7438 4.17099 45.8558 4.06306 46.0871 3.75669C46.2841 3.49585 46.5227 3.19858 46.6174 3.09611L46.7895 2.90979H47.9964C48.6602 2.90979 49.2033 2.93018 49.2033 2.9551C49.2033 3.10383 48.8279 4.3912 48.7493 4.51205C48.5969 4.74642 48.3488 4.79829 47.2723 4.82083C46.4013 4.83907 46.2173 4.86226 45.985 4.98306C45.4991 5.2358 45.4145 5.45852 44.5722 8.70261C44.1466 10.3422 43.7796 11.7652 43.7568 11.8649C43.726 11.9994 43.7589 12.0978 43.8847 12.2473C43.9779 12.358 44.0541 12.467 44.0541 12.4896C44.0541 12.5122 43.4617 12.5306 42.7377 12.5306C41.6314 12.5306 41.4044 12.5136 41.315 12.4242ZM48.2257 12.4242C48.1671 12.3656 48.1192 12.2818 48.1191 12.2378C48.119 12.1939 48.6103 10.2372 49.2108 7.88959C49.8113 5.54197 50.303 3.54681 50.3034 3.4559C50.3039 3.36499 50.2394 3.23815 50.1603 3.17403C49.8638 2.93394 49.9709 2.90979 51.3326 2.90979C52.9779 2.90979 53.0097 2.92939 52.7556 3.78495C52.6972 3.98171 52.6616 4.15488 52.6765 4.16978C52.6914 4.18467 52.8064 4.05369 52.9321 3.8787C53.639 2.89434 53.7494 2.84548 55.2719 2.84352C56.4007 2.84207 56.4373 2.84651 56.7963 3.02835C57.1775 3.22144 57.3836 3.51252 57.5159 4.04478L57.5707 4.26511L57.9441 3.70771C58.5072 2.86737 58.5649 2.84437 60.1114 2.84381C61.286 2.84339 61.3861 2.85337 61.7036 3.00248C61.8899 3.08999 62.0945 3.22038 62.1583 3.29224C62.3512 3.50951 62.4827 3.9024 62.4827 4.26127C62.4827 4.4712 62.1323 6.0044 61.5649 8.27744C61.0441 10.3635 60.6634 12.0193 60.6849 12.1049C60.7057 12.1878 60.7834 12.2881 60.8575 12.3278C61.1698 12.4949 60.9574 12.5306 59.6507 12.5306C58.2249 12.5306 58.1466 12.5136 58.1466 12.2045C58.1466 12.1146 58.5124 10.601 58.9596 8.84091C59.4068 7.08083 59.7726 5.53614 59.7726 5.40826C59.7726 4.9153 59.3464 4.6855 58.5908 4.77099C57.869 4.85265 57.5574 5.08316 57.3058 5.72151C57.1947 6.00325 55.753 11.4261 55.672 11.8668C55.6324 12.0819 55.6509 12.1409 55.8011 12.2801C55.8974 12.3694 55.9565 12.4623 55.9322 12.4866C55.908 12.5108 55.3048 12.5306 54.5918 12.5306C53.2097 12.5306 53.1329 12.5132 53.1329 12.1991C53.1329 12.1062 53.4988 10.604 53.9459 8.86084C54.3931 7.11768 54.759 5.56726 54.759 5.41546C54.759 4.88211 54.2596 4.6492 53.4406 4.80059C52.8975 4.901 52.6556 5.0596 52.4452 5.4533C52.2538 5.8116 50.6938 11.6364 50.6938 11.9929C50.6938 12.1173 50.7441 12.2221 50.8293 12.2753C50.9038 12.3219 50.9648 12.3984 50.9648 12.4453C50.9648 12.511 50.6617 12.5306 49.6485 12.5306C48.5422 12.5306 48.3152 12.5136 48.2257 12.4242ZM72.34 12.3698C72.237 12.2125 72.2472 12.14 72.5239 11.0635C72.7502 10.1828 72.8434 9.91854 72.9337 9.90115C73.0065 9.88713 73.0804 9.94398 73.1295 10.0519C73.251 10.3185 73.4764 10.4265 74.0815 10.5079C74.8477 10.611 76.7356 10.5518 77.0563 10.4145C77.3537 10.2873 77.5645 10.0052 77.6515 9.6183C77.7281 9.27731 77.6627 9.0573 77.4419 8.91257C77.3562 8.85647 76.6788 8.64255 75.9364 8.43719C74.4472 8.02524 74.06 7.83858 73.8116 7.41292C73.6692 7.1688 73.6576 7.08254 73.6846 6.46679C73.7473 5.03788 74.4303 3.65351 75.2879 3.21725C75.8258 2.94363 76.1909 2.90979 78.6044 2.90979H80.8979L80.7273 3.5365C80.5251 4.27985 80.4201 4.50203 80.2162 4.61853C80.11 4.6792 79.5857 4.71539 78.4691 4.7391C77.0963 4.76825 76.8484 4.78964 76.6916 4.89249C76.4568 5.04644 76.3253 5.2541 76.2697 5.55877C76.1896 5.99799 76.3598 6.10538 77.8286 6.5421C79.6508 7.08389 79.9989 7.28946 80.1678 7.92346C80.3348 8.55051 80.0595 10.1622 79.6329 11.055C79.3397 11.6686 79.0151 12.0141 78.488 12.2737L78.0351 12.4967L75.2421 12.5165L72.4491 12.5363L72.34 12.3698Z" fill="#484649"/>
<defs>
<linearGradient id="paint0_linear_297_12822" x1="2.75994" y1="2.44533" x2="18.3417" y2="0.690357" gradientUnits="userSpaceOnUse">
<stop stop-color="#EEF7FE"/>
<stop offset="1" stop-color="#1E97D0"/>
</linearGradient>
<linearGradient id="paint1_linear_297_12822" x1="0.864561" y1="0.936055" x2="3.9421" y2="3.949" gradientUnits="userSpaceOnUse">
<stop stop-color="#D6E9F7"/>
<stop offset="1" stop-color="#48A2D7"/>
</linearGradient>
<linearGradient id="paint2_linear_297_12822" x1="7.22076" y1="6.94349" x2="17.2217" y2="4.80242" gradientUnits="userSpaceOnUse">
<stop stop-color="#D4EAF7"/>
<stop offset="1" stop-color="#1493C5"/>
</linearGradient>
<linearGradient id="paint3_linear_297_12822" x1="5.25519" y1="4.60937" x2="8.2713" y2="8.13565" gradientUnits="userSpaceOnUse">
<stop stop-color="#D9EBF7"/>
<stop offset="1" stop-color="#318ABB"/>
</linearGradient>
<linearGradient id="paint4_linear_297_12822" x1="11.8858" y1="11.0065" x2="16.0803" y2="8.97851" gradientUnits="userSpaceOnUse">
<stop stop-color="#9DC4DF"/>
<stop offset="1" stop-color="#137EAB"/>
</linearGradient>
<linearGradient id="paint5_linear_297_12822" x1="10.1146" y1="8.94464" x2="13.1658" y2="12.5223" gradientUnits="userSpaceOnUse">
<stop stop-color="#DEEEF8"/>
<stop offset="1" stop-color="#3586B3"/>
</linearGradient>
<linearGradient id="paint6_linear_297_12822" x1="17.0562" y1="12.5219" x2="17.0562" y2="8.95245" gradientUnits="userSpaceOnUse">
<stop stop-color="#646368"/>
<stop offset="1" stop-color="#646368"/>
</linearGradient>
<linearGradient id="paint7_linear_297_12822" x1="18.2047" y1="8.10253" x2="18.2047" y2="4.62491" gradientUnits="userSpaceOnUse">
<stop stop-color="#636267"/>
<stop offset="1" stop-color="#646368"/>
</linearGradient>
<linearGradient id="paint8_linear_297_12822" x1="19.4519" y1="3.89825" x2="19.4519" y2="0.361329" gradientUnits="userSpaceOnUse">
<stop stop-color="#6B6A6F"/>
<stop offset="1" stop-color="#EAEBED"/>
</linearGradient>
</defs>
</svg>
