<svg width="64" height="17" viewBox="0 0 64 17" fill="none" xmlns="http://www.w3.org/2000/svg">
<path fill-rule="evenodd" clip-rule="evenodd" d="M24.3836 13.7841C24.1852 13.6948 23.949 13.6448 23.7446 13.6448C23.0587 13.6448 22.5984 14.2308 22.5984 14.9198C22.5984 15.262 22.7816 15.5966 23.2873 15.5966C23.4508 15.5966 23.5886 15.5693 23.7219 15.53L23.9006 14.5821H24.3033L24.0717 15.8207C23.8052 15.9221 23.4857 15.9736 23.2146 15.9736C22.4878 15.9736 22.1562 15.5527 22.1562 14.9697C22.1562 13.9901 22.8528 13.2754 23.79 13.2754C24.0414 13.2754 24.2882 13.3102 24.5062 13.3799L24.3836 13.7841Z" fill="#044896"/>
<path fill-rule="evenodd" clip-rule="evenodd" d="M25.0474 15.1106C25.0399 15.1606 25.0323 15.2469 25.0323 15.3044C25.0323 15.5694 25.1277 15.6391 25.4124 15.6391C25.591 15.6391 25.7864 15.5967 25.9529 15.5255V15.8526C25.7591 15.9267 25.5274 15.9737 25.2791 15.9737C24.8234 15.9737 24.625 15.7678 24.625 15.3317C24.625 14.558 25.0671 13.9629 25.6758 13.9629C26.1089 13.9629 26.2573 14.1885 26.2573 14.4187C26.2573 14.8532 25.8272 15.0834 25.0474 15.1106ZM25.6304 14.2748C25.3563 14.2748 25.1731 14.5262 25.0974 14.8229C25.6153 14.8032 25.859 14.6942 25.859 14.4732C25.859 14.3445 25.7712 14.2748 25.6304 14.2748Z" fill="#044896"/>
<path fill-rule="evenodd" clip-rule="evenodd" d="M28.0019 15.9354H27.6021L27.8353 14.7104C27.8883 14.4349 27.8383 14.3183 27.6899 14.3183C27.3856 14.3183 27.0131 15.0102 26.9283 15.4766L26.845 15.9354H26.4453L26.6361 14.9239C26.6967 14.6014 26.7572 14.2638 26.7996 14.0033H27.1948C27.1721 14.1245 27.1237 14.3304 27.001 14.6908L27.0086 14.6953C27.1872 14.3137 27.4689 13.9609 27.8504 13.9609C28.2078 13.9609 28.3213 14.2214 28.2502 14.6135L28.0019 15.9354Z" fill="#044896"/>
<path fill-rule="evenodd" clip-rule="evenodd" d="M29.0084 15.1106C29.0008 15.1606 28.9932 15.2469 28.9932 15.3044C28.9932 15.5694 29.0886 15.6391 29.3733 15.6391C29.552 15.6391 29.7473 15.5967 29.9138 15.5255V15.8526C29.72 15.9267 29.4884 15.9737 29.2401 15.9737C28.7843 15.9737 28.5859 15.7678 28.5859 15.3317C28.5859 14.558 29.0281 13.9629 29.6368 13.9629C30.0698 13.9629 30.2182 14.1885 30.2182 14.4187C30.2182 14.8532 29.7882 15.0834 29.0084 15.1106ZM29.5913 14.2748C29.3173 14.2748 29.1341 14.5262 29.0584 14.8229C29.5762 14.8032 29.8185 14.6942 29.8185 14.4732C29.8185 14.3445 29.7322 14.2748 29.5913 14.2748Z" fill="#044896"/>
<path fill-rule="evenodd" clip-rule="evenodd" d="M31.7379 14.3651C31.4214 14.2713 31.0671 14.9163 30.9565 15.5068L30.8763 15.9353H30.4766L30.6673 14.9239C30.7173 14.6528 30.7824 14.291 30.8309 14.0033H31.22C31.1928 14.1622 31.1428 14.353 31.0398 14.6559L31.0474 14.6604C31.2579 14.2168 31.4744 13.9064 31.8211 13.9639L31.7379 14.3651Z" fill="#044896"/>
<path fill-rule="evenodd" clip-rule="evenodd" d="M33.3762 15.935H32.9795C33.0144 15.776 33.0795 15.5459 33.1824 15.2279L33.1734 15.2233C33.0295 15.5156 32.7554 15.9774 32.33 15.9774C32.0514 15.9774 31.8984 15.7912 31.8984 15.3793C31.8984 14.6601 32.2679 13.9727 33.0976 13.9727C33.3187 13.9727 33.5322 13.9908 33.726 14.0302C33.5398 15.0129 33.4565 15.4565 33.3762 15.935ZM33.0295 14.2952C32.5238 14.2952 32.3103 14.8584 32.3103 15.3051C32.3103 15.5262 32.3754 15.6201 32.4814 15.6201C32.8009 15.6201 33.1628 14.9084 33.2475 14.4693L33.2733 14.33C33.2052 14.3103 33.1249 14.2952 33.0295 14.2952Z" fill="#044896"/>
<path fill-rule="evenodd" clip-rule="evenodd" d="M34.345 15.9349H33.9453L34.4374 13.2715H34.8371L34.345 15.9349Z" fill="#044896"/>
<path fill-rule="evenodd" clip-rule="evenodd" d="M37.1814 15.9351H35.9141L36.4107 13.2656H36.818L36.3895 15.5656H37.2526L37.1814 15.9351Z" fill="#044896"/>
<path fill-rule="evenodd" clip-rule="evenodd" d="M38.2631 15.9737C37.7634 15.9737 37.5469 15.7208 37.5469 15.2817C37.5469 14.4913 38.0496 13.9629 38.6613 13.9629C39.1791 13.9629 39.3851 14.2551 39.3851 14.667C39.3851 15.4604 38.8415 15.9737 38.2631 15.9737ZM38.6007 14.3172C38.2131 14.3172 37.9648 14.7714 37.9648 15.2151C37.9648 15.468 38.0647 15.6148 38.3191 15.6148C38.6779 15.6148 38.9626 15.2196 38.9626 14.7139C38.9626 14.4565 38.8521 14.3172 38.6007 14.3172Z" fill="#044896"/>
<mask id="mask0_297_12834" style="mask-type:luminance" maskUnits="userSpaceOnUse" x="39" y="13" width="3" height="4">
<path d="M39.2734 13.5879H41.5992V16.9175H39.2734V13.5879Z" fill="white"/>
</mask>
<g mask="url(#mask0_297_12834)">
<path fill-rule="evenodd" clip-rule="evenodd" d="M41.1159 16.0864C41.0251 16.58 40.7207 16.9177 39.9909 16.9177C39.7774 16.9177 39.6048 16.8874 39.4609 16.8405L39.5563 16.4483C39.7047 16.5225 39.894 16.5603 40.0666 16.5603C40.4436 16.5603 40.6632 16.4135 40.7389 16.0168C40.7888 15.7518 40.8343 15.6049 40.9524 15.2385H40.9448C40.8085 15.5156 40.5345 15.9774 40.1075 15.9774C39.8304 15.9774 39.6775 15.7912 39.6775 15.3793C39.6775 14.6601 40.0515 13.9727 40.8767 13.9727C41.0977 13.9727 41.3112 13.9908 41.505 14.0302L41.1159 16.0864ZM40.8085 14.2952C40.3013 14.2952 40.0893 14.8584 40.0893 15.3051C40.0893 15.5262 40.1529 15.6201 40.2604 15.6201C40.5799 15.6201 40.9418 14.9084 41.0251 14.4693L41.0523 14.33C40.9842 14.3103 40.9039 14.2952 40.8085 14.2952Z" fill="#044896"/>
</g>
<path fill-rule="evenodd" clip-rule="evenodd" d="M42.1263 15.934H41.7266L42.0884 14.0019H42.4882L42.1263 15.934ZM42.3731 13.7142C42.2293 13.7142 42.1263 13.5976 42.1308 13.4659C42.1339 13.3099 42.2641 13.1934 42.4079 13.1934C42.5487 13.1934 42.6517 13.3069 42.6472 13.4387C42.6441 13.5976 42.5154 13.7142 42.3731 13.7142Z" fill="#044896"/>
<path fill-rule="evenodd" clip-rule="evenodd" d="M43.945 14.3202C43.8602 14.2899 43.7663 14.2778 43.6739 14.2778C43.4498 14.2778 43.3363 14.3793 43.3363 14.5262C43.3363 14.8032 43.8723 14.9002 43.8723 15.3271C43.8723 15.6512 43.5952 15.9737 43.035 15.9737C42.9093 15.9737 42.8063 15.9616 42.7109 15.9419L42.7806 15.5845C42.8745 15.6148 42.9774 15.6345 43.0804 15.6345C43.306 15.6345 43.4529 15.5452 43.4529 15.3711C43.4529 15.0864 42.9199 15.0319 42.9199 14.5701C42.9199 14.2309 43.1834 13.9629 43.6967 13.9629C43.8223 13.9629 43.9253 13.975 44.0207 13.9947L43.945 14.3202Z" fill="#044896"/>
<path fill-rule="evenodd" clip-rule="evenodd" d="M45.5574 14.3254H45.0744L44.8987 15.2733C44.8503 15.5428 44.8881 15.6155 45.0592 15.6155C45.1622 15.6155 45.2379 15.6049 45.3106 15.5882L45.2803 15.9274C45.1622 15.9546 45.0214 15.9698 44.9108 15.9698C44.5141 15.9698 44.4036 15.779 44.4914 15.3278L44.6777 14.3254H44.3203L44.3854 14.0029H44.7382L44.8533 13.3882L45.2682 13.2988L45.1349 14.0029H45.6225L45.5574 14.3254Z" fill="#044896"/>
<path fill-rule="evenodd" clip-rule="evenodd" d="M46.1732 15.934H45.7734L46.1353 14.0019H46.5366L46.1732 15.934ZM46.4215 13.7142C46.2761 13.7142 46.1732 13.5976 46.1777 13.4659C46.1823 13.3099 46.311 13.1934 46.4563 13.1934C46.5956 13.1934 46.6986 13.3069 46.6956 13.4387C46.691 13.5976 46.5623 13.7142 46.4215 13.7142Z" fill="#044896"/>
<path fill-rule="evenodd" clip-rule="evenodd" d="M48.2305 14.3851C48.1381 14.3412 48.0321 14.314 47.9064 14.314C47.4643 14.314 47.2629 14.8197 47.2629 15.224C47.2629 15.4223 47.3311 15.6055 47.6278 15.6055C47.7656 15.6055 47.9095 15.5738 48.023 15.5192L47.9927 15.8857C47.8595 15.9311 47.6929 15.9705 47.5143 15.9705C47.0146 15.9705 46.8359 15.7025 46.8359 15.3179C46.8359 14.579 47.2508 13.9688 47.9322 13.9688C48.0806 13.9688 48.2032 13.9884 48.3243 14.0233L48.2305 14.3851Z" fill="#044896"/>
<path fill-rule="evenodd" clip-rule="evenodd" d="M49.6168 14.3202C49.5336 14.2899 49.4382 14.2778 49.3458 14.2778C49.1217 14.2778 49.0082 14.3793 49.0082 14.5262C49.0082 14.8032 49.5442 14.9002 49.5442 15.3271C49.5442 15.6512 49.2656 15.9737 48.7068 15.9737C48.5812 15.9737 48.4782 15.9616 48.3828 15.9419L48.4525 15.5845C48.5479 15.6148 48.6493 15.6345 48.7523 15.6345C48.9764 15.6345 49.1263 15.5452 49.1263 15.3711C49.1263 15.0864 48.5933 15.0319 48.5933 14.5701C48.5933 14.2309 48.8552 13.9629 49.37 13.9629C49.4957 13.9629 49.5972 13.975 49.6926 13.9947L49.6168 14.3202Z" fill="#044896"/>
<path fill-rule="evenodd" clip-rule="evenodd" d="M52.4134 13.6833C52.2893 13.6409 52.1545 13.6213 52.0561 13.6213C51.6957 13.6213 51.5428 13.8196 51.5428 14.0149C51.5428 14.454 52.3075 14.4646 52.3075 15.0915C52.3075 15.5881 51.8774 15.9742 51.2687 15.9742C51.1204 15.9742 50.9523 15.9621 50.8281 15.9228L50.9038 15.523C51.0144 15.57 51.1658 15.6048 51.299 15.6048C51.6655 15.6048 51.8653 15.4291 51.8653 15.1611C51.8653 14.7417 51.1082 14.7372 51.1082 14.1118C51.1082 13.6561 51.4429 13.2715 52.0834 13.2715C52.2196 13.2715 52.3423 13.2806 52.4861 13.3078L52.4134 13.6833Z" fill="#044896"/>
<mask id="mask1_297_12834" style="mask-type:luminance" maskUnits="userSpaceOnUse" x="52" y="13" width="3" height="4">
<path d="M52.0625 13.5879H54.7759V16.9175H52.0625V13.5879Z" fill="white"/>
</mask>
<g mask="url(#mask1_297_12834)">
<path fill-rule="evenodd" clip-rule="evenodd" d="M53.0608 16.5604C52.8246 16.7981 52.5854 16.9147 52.3522 16.9147C52.2568 16.9147 52.1553 16.9026 52.0781 16.8829L52.1478 16.518C52.2205 16.5453 52.2992 16.5574 52.3794 16.5574C52.5081 16.5574 52.6535 16.4862 52.7716 16.3621C52.9049 16.2227 52.9654 16.0592 52.9654 15.7988C52.9654 15.2703 52.8519 14.6329 52.6838 14.003H53.1289C53.247 14.4694 53.3349 15.0478 53.3349 15.4611C53.3349 15.5187 53.3228 15.5974 53.3122 15.6625H53.3152C53.5938 15.1538 53.8376 14.6208 54.1147 13.9258L54.4993 14.0348C53.9784 15.2734 53.5241 16.091 53.0608 16.5604Z" fill="#044896"/>
</g>
<path fill-rule="evenodd" clip-rule="evenodd" d="M55.6715 14.3202C55.5883 14.2899 55.4929 14.2778 55.4005 14.2778C55.1764 14.2778 55.0628 14.3793 55.0628 14.5262C55.0628 14.8032 55.5989 14.9002 55.5989 15.3271C55.5989 15.6512 55.3218 15.9737 54.7615 15.9737C54.6359 15.9737 54.5329 15.9616 54.4375 15.9419L54.5072 15.5845C54.6025 15.6148 54.7055 15.6345 54.8085 15.6345C55.0326 15.6345 55.1809 15.5452 55.1809 15.3711C55.1809 15.0864 54.648 15.0319 54.648 14.5701C54.648 14.2309 54.9099 13.9629 55.4247 13.9629C55.5489 13.9629 55.6518 13.975 55.7472 13.9947L55.6715 14.3202Z" fill="#044896"/>
<path fill-rule="evenodd" clip-rule="evenodd" d="M57.2917 14.3254H56.8087L56.6331 15.2733C56.5846 15.5428 56.6225 15.6155 56.7936 15.6155C56.8966 15.6155 56.9723 15.6049 57.0449 15.5882L57.0147 15.9274C56.8966 15.9546 56.7557 15.9698 56.6452 15.9698C56.2485 15.9698 56.1395 15.779 56.2258 15.3278L56.4135 14.3254H56.0547L56.1198 14.0029H56.4741L56.5877 13.3882L57.0025 13.2988L56.8693 14.0029H57.3569L57.2917 14.3254Z" fill="#044896"/>
<path fill-rule="evenodd" clip-rule="evenodd" d="M57.9381 15.1106C57.9305 15.1606 57.9229 15.2469 57.9229 15.3044C57.9229 15.5694 58.0183 15.6391 58.3045 15.6391C58.4832 15.6391 58.677 15.5967 58.8451 15.5255V15.8526C58.6512 15.9267 58.4181 15.9737 58.1697 15.9737C57.714 15.9737 57.5156 15.7678 57.5156 15.3317C57.5156 14.558 57.9578 13.9629 58.5664 13.9629C59.001 13.9629 59.1494 14.1885 59.1494 14.4187C59.1494 14.8532 58.7179 15.0834 57.9381 15.1106ZM58.521 14.2748C58.247 14.2748 58.0637 14.5262 57.988 14.8229C58.5059 14.8032 58.7497 14.6942 58.7497 14.4732C58.7497 14.3445 58.6618 14.2748 58.521 14.2748Z" fill="#044896"/>
<path fill-rule="evenodd" clip-rule="evenodd" d="M62.0082 15.9354H61.6084L61.8371 14.7104C61.8901 14.4349 61.8401 14.3183 61.7038 14.3183C61.4525 14.3183 61.0603 14.9012 60.9543 15.4766L60.8665 15.9354H60.4713L60.6984 14.7104C60.7514 14.4349 60.706 14.3183 60.5652 14.3183C60.2805 14.3183 59.9035 14.9784 59.8127 15.4766L59.7279 15.9354H59.3281L59.5189 14.9239C59.5795 14.6014 59.64 14.2683 59.6824 14.0033H60.0791C60.0549 14.1275 60.0034 14.338 59.8838 14.6908L59.8929 14.6953C60.067 14.3137 60.3441 13.9609 60.7211 13.9609C60.9574 13.9609 61.1027 14.0957 61.1027 14.341C61.1027 14.4424 61.0755 14.5363 61.027 14.7029H61.0346C61.2087 14.3137 61.4873 13.9609 61.8628 13.9609C62.2096 13.9609 62.3277 14.2214 62.255 14.6135L62.0082 15.9354Z" fill="#044896"/>
<mask id="mask2_297_12834" style="mask-type:luminance" maskUnits="userSpaceOnUse" x="62" y="13" width="2" height="4">
<path d="M62.5312 13.5879H63.9V16.3013H62.5312V13.5879Z" fill="white"/>
</mask>
<g mask="url(#mask2_297_12834)">
<path fill-rule="evenodd" clip-rule="evenodd" d="M63.8263 14.3202C63.743 14.2899 63.6476 14.2778 63.5568 14.2778C63.3311 14.2778 63.2176 14.3793 63.2176 14.5262C63.2176 14.8032 63.7551 14.9002 63.7551 15.3271C63.7551 15.6512 63.4765 15.9737 62.9163 15.9737C62.7906 15.9737 62.6891 15.9616 62.5938 15.9419L62.6619 15.5845C62.7573 15.6148 62.8602 15.6345 62.9632 15.6345C63.1873 15.6345 63.3357 15.5452 63.3357 15.3711C63.3357 15.0864 62.8027 15.0319 62.8027 14.5701C62.8027 14.2309 63.0647 13.9629 63.5795 13.9629C63.7051 13.9629 63.8066 13.975 63.902 13.9947L63.8263 14.3202Z" fill="#044896"/>
</g>
<path fill-rule="evenodd" clip-rule="evenodd" d="M24.3836 13.7841C24.1852 13.6948 23.949 13.6448 23.7446 13.6448C23.0587 13.6448 22.5984 14.2308 22.5984 14.9198C22.5984 15.262 22.7816 15.5966 23.2873 15.5966C23.4508 15.5966 23.5886 15.5693 23.7219 15.53L23.9006 14.5821H24.3033L24.0717 15.8207C23.8052 15.9221 23.4857 15.9736 23.2146 15.9736C22.4878 15.9736 22.1562 15.5527 22.1562 14.9697C22.1562 13.9901 22.8528 13.2754 23.79 13.2754C24.0414 13.2754 24.2882 13.3102 24.5062 13.3799L24.3836 13.7841Z" fill="#044896"/>
<path fill-rule="evenodd" clip-rule="evenodd" d="M25.0474 15.1106C25.0399 15.1606 25.0323 15.2469 25.0323 15.3044C25.0323 15.5694 25.1277 15.6391 25.4124 15.6391C25.591 15.6391 25.7864 15.5967 25.9529 15.5255V15.8526C25.7591 15.9267 25.5274 15.9737 25.2791 15.9737C24.8234 15.9737 24.625 15.7678 24.625 15.3317C24.625 14.558 25.0671 13.9629 25.6758 13.9629C26.1089 13.9629 26.2573 14.1885 26.2573 14.4187C26.2573 14.8532 25.8272 15.0834 25.0474 15.1106ZM25.6304 14.2748C25.3563 14.2748 25.1731 14.5262 25.0974 14.8229C25.6153 14.8032 25.859 14.6942 25.859 14.4732C25.859 14.3445 25.7712 14.2748 25.6304 14.2748Z" fill="#044896"/>
<path fill-rule="evenodd" clip-rule="evenodd" d="M28.0019 15.9354H27.6021L27.8353 14.7104C27.8883 14.4349 27.8383 14.3183 27.6899 14.3183C27.3856 14.3183 27.0131 15.0102 26.9283 15.4766L26.845 15.9354H26.4453L26.6361 14.9239C26.6967 14.6014 26.7572 14.2638 26.7996 14.0033H27.1948C27.1721 14.1245 27.1237 14.3304 27.001 14.6908L27.0086 14.6953C27.1872 14.3137 27.4689 13.9609 27.8504 13.9609C28.2078 13.9609 28.3213 14.2214 28.2502 14.6135L28.0019 15.9354Z" fill="#044896"/>
<path fill-rule="evenodd" clip-rule="evenodd" d="M29.0084 15.1106C29.0008 15.1606 28.9932 15.2469 28.9932 15.3044C28.9932 15.5694 29.0886 15.6391 29.3733 15.6391C29.552 15.6391 29.7473 15.5967 29.9138 15.5255V15.8526C29.72 15.9267 29.4884 15.9737 29.2401 15.9737C28.7843 15.9737 28.5859 15.7678 28.5859 15.3317C28.5859 14.558 29.0281 13.9629 29.6368 13.9629C30.0698 13.9629 30.2182 14.1885 30.2182 14.4187C30.2182 14.8532 29.7882 15.0834 29.0084 15.1106ZM29.5913 14.2748C29.3173 14.2748 29.1341 14.5262 29.0584 14.8229C29.5762 14.8032 29.8185 14.6942 29.8185 14.4732C29.8185 14.3445 29.7322 14.2748 29.5913 14.2748Z" fill="#044896"/>
<path fill-rule="evenodd" clip-rule="evenodd" d="M31.7379 14.3651C31.4214 14.2713 31.0671 14.9163 30.9565 15.5068L30.8763 15.9353H30.4766L30.6673 14.9239C30.7173 14.6528 30.7824 14.291 30.8309 14.0033H31.22C31.1928 14.1622 31.1428 14.353 31.0398 14.6559L31.0474 14.6604C31.2579 14.2168 31.4744 13.9064 31.8211 13.9639L31.7379 14.3651Z" fill="#044896"/>
<path fill-rule="evenodd" clip-rule="evenodd" d="M33.3762 15.935H32.9795C33.0144 15.776 33.0795 15.5459 33.1824 15.2279L33.1734 15.2233C33.0295 15.5156 32.7554 15.9774 32.33 15.9774C32.0514 15.9774 31.8984 15.7912 31.8984 15.3793C31.8984 14.6601 32.2679 13.9727 33.0976 13.9727C33.3187 13.9727 33.5322 13.9908 33.726 14.0302C33.5398 15.0129 33.4565 15.4565 33.3762 15.935ZM33.0295 14.2952C32.5238 14.2952 32.3103 14.8584 32.3103 15.3051C32.3103 15.5262 32.3754 15.6201 32.4814 15.6201C32.8009 15.6201 33.1628 14.9084 33.2475 14.4693L33.2733 14.33C33.2052 14.3103 33.1249 14.2952 33.0295 14.2952Z" fill="#044896"/>
<path fill-rule="evenodd" clip-rule="evenodd" d="M34.345 15.9349H33.9453L34.4374 13.2715H34.8371L34.345 15.9349Z" fill="#044896"/>
<path fill-rule="evenodd" clip-rule="evenodd" d="M37.1814 15.9351H35.9141L36.4107 13.2656H36.818L36.3895 15.5656H37.2526L37.1814 15.9351Z" fill="#044896"/>
<path fill-rule="evenodd" clip-rule="evenodd" d="M38.2631 15.9737C37.7634 15.9737 37.5469 15.7208 37.5469 15.2817C37.5469 14.4913 38.0496 13.9629 38.6613 13.9629C39.1791 13.9629 39.3851 14.2551 39.3851 14.667C39.3851 15.4604 38.8415 15.9737 38.2631 15.9737ZM38.6007 14.3172C38.2131 14.3172 37.9648 14.7714 37.9648 15.2151C37.9648 15.468 38.0647 15.6148 38.3191 15.6148C38.6779 15.6148 38.9626 15.2196 38.9626 14.7139C38.9626 14.4565 38.8521 14.3172 38.6007 14.3172Z" fill="#044896"/>
<mask id="mask3_297_12834" style="mask-type:luminance" maskUnits="userSpaceOnUse" x="39" y="13" width="3" height="4">
<path d="M39.2734 13.5879H41.5992V16.9175H39.2734V13.5879Z" fill="white"/>
</mask>
<g mask="url(#mask3_297_12834)">
<path fill-rule="evenodd" clip-rule="evenodd" d="M41.1159 16.0864C41.0251 16.58 40.7207 16.9177 39.9909 16.9177C39.7774 16.9177 39.6048 16.8874 39.4609 16.8405L39.5563 16.4483C39.7047 16.5225 39.894 16.5603 40.0666 16.5603C40.4436 16.5603 40.6632 16.4135 40.7389 16.0168C40.7888 15.7518 40.8343 15.6049 40.9524 15.2385H40.9448C40.8085 15.5156 40.5345 15.9774 40.1075 15.9774C39.8304 15.9774 39.6775 15.7912 39.6775 15.3793C39.6775 14.6601 40.0515 13.9727 40.8767 13.9727C41.0977 13.9727 41.3112 13.9908 41.505 14.0302L41.1159 16.0864ZM40.8085 14.2952C40.3013 14.2952 40.0893 14.8584 40.0893 15.3051C40.0893 15.5262 40.1529 15.6201 40.2604 15.6201C40.5799 15.6201 40.9418 14.9084 41.0251 14.4693L41.0523 14.33C40.9842 14.3103 40.9039 14.2952 40.8085 14.2952Z" fill="#044896"/>
</g>
<path fill-rule="evenodd" clip-rule="evenodd" d="M42.1263 15.934H41.7266L42.0884 14.0019H42.4882L42.1263 15.934ZM42.3731 13.7142C42.2293 13.7142 42.1263 13.5976 42.1308 13.4659C42.1339 13.3099 42.2641 13.1934 42.4079 13.1934C42.5487 13.1934 42.6517 13.3069 42.6472 13.4387C42.6441 13.5976 42.5154 13.7142 42.3731 13.7142Z" fill="#044896"/>
<path fill-rule="evenodd" clip-rule="evenodd" d="M43.945 14.3202C43.8602 14.2899 43.7663 14.2778 43.6739 14.2778C43.4498 14.2778 43.3363 14.3793 43.3363 14.5262C43.3363 14.8032 43.8723 14.9002 43.8723 15.3271C43.8723 15.6512 43.5952 15.9737 43.035 15.9737C42.9093 15.9737 42.8063 15.9616 42.7109 15.9419L42.7806 15.5845C42.8745 15.6148 42.9774 15.6345 43.0804 15.6345C43.306 15.6345 43.4529 15.5452 43.4529 15.3711C43.4529 15.0864 42.9199 15.0319 42.9199 14.5701C42.9199 14.2309 43.1834 13.9629 43.6967 13.9629C43.8223 13.9629 43.9253 13.975 44.0207 13.9947L43.945 14.3202Z" fill="#044896"/>
<path fill-rule="evenodd" clip-rule="evenodd" d="M45.5574 14.3254H45.0744L44.8987 15.2733C44.8503 15.5428 44.8881 15.6155 45.0592 15.6155C45.1622 15.6155 45.2379 15.6049 45.3106 15.5882L45.2803 15.9274C45.1622 15.9546 45.0214 15.9698 44.9108 15.9698C44.5141 15.9698 44.4036 15.779 44.4914 15.3278L44.6777 14.3254H44.3203L44.3854 14.0029H44.7382L44.8533 13.3882L45.2682 13.2988L45.1349 14.0029H45.6225L45.5574 14.3254Z" fill="#044896"/>
<path fill-rule="evenodd" clip-rule="evenodd" d="M46.1732 15.934H45.7734L46.1353 14.0019H46.5366L46.1732 15.934ZM46.4215 13.7142C46.2761 13.7142 46.1732 13.5976 46.1777 13.4659C46.1823 13.3099 46.311 13.1934 46.4563 13.1934C46.5956 13.1934 46.6986 13.3069 46.6956 13.4387C46.691 13.5976 46.5623 13.7142 46.4215 13.7142Z" fill="#044896"/>
<path fill-rule="evenodd" clip-rule="evenodd" d="M48.2305 14.3851C48.1381 14.3412 48.0321 14.314 47.9064 14.314C47.4643 14.314 47.2629 14.8197 47.2629 15.224C47.2629 15.4223 47.3311 15.6055 47.6278 15.6055C47.7656 15.6055 47.9095 15.5738 48.023 15.5192L47.9927 15.8857C47.8595 15.9311 47.6929 15.9705 47.5143 15.9705C47.0146 15.9705 46.8359 15.7025 46.8359 15.3179C46.8359 14.579 47.2508 13.9688 47.9322 13.9688C48.0806 13.9688 48.2032 13.9884 48.3243 14.0233L48.2305 14.3851Z" fill="#044896"/>
<path fill-rule="evenodd" clip-rule="evenodd" d="M49.6168 14.3202C49.5336 14.2899 49.4382 14.2778 49.3458 14.2778C49.1217 14.2778 49.0082 14.3793 49.0082 14.5262C49.0082 14.8032 49.5442 14.9002 49.5442 15.3271C49.5442 15.6512 49.2656 15.9737 48.7068 15.9737C48.5812 15.9737 48.4782 15.9616 48.3828 15.9419L48.4525 15.5845C48.5479 15.6148 48.6493 15.6345 48.7523 15.6345C48.9764 15.6345 49.1263 15.5452 49.1263 15.3711C49.1263 15.0864 48.5933 15.0319 48.5933 14.5701C48.5933 14.2309 48.8552 13.9629 49.37 13.9629C49.4957 13.9629 49.5972 13.975 49.6926 13.9947L49.6168 14.3202Z" fill="#044896"/>
<path fill-rule="evenodd" clip-rule="evenodd" d="M52.4134 13.6833C52.2893 13.6409 52.1545 13.6213 52.0561 13.6213C51.6957 13.6213 51.5428 13.8196 51.5428 14.0149C51.5428 14.454 52.3075 14.4646 52.3075 15.0915C52.3075 15.5881 51.8774 15.9742 51.2687 15.9742C51.1204 15.9742 50.9523 15.9621 50.8281 15.9228L50.9038 15.523C51.0144 15.57 51.1658 15.6048 51.299 15.6048C51.6655 15.6048 51.8653 15.4291 51.8653 15.1611C51.8653 14.7417 51.1082 14.7372 51.1082 14.1118C51.1082 13.6561 51.4429 13.2715 52.0834 13.2715C52.2196 13.2715 52.3423 13.2806 52.4861 13.3078L52.4134 13.6833Z" fill="#044896"/>
<mask id="mask4_297_12834" style="mask-type:luminance" maskUnits="userSpaceOnUse" x="52" y="13" width="3" height="4">
<path d="M52.0625 13.5879H54.7759V16.9175H52.0625V13.5879Z" fill="white"/>
</mask>
<g mask="url(#mask4_297_12834)">
<path fill-rule="evenodd" clip-rule="evenodd" d="M53.0608 16.5604C52.8246 16.7981 52.5854 16.9147 52.3522 16.9147C52.2568 16.9147 52.1553 16.9026 52.0781 16.8829L52.1478 16.518C52.2205 16.5453 52.2992 16.5574 52.3794 16.5574C52.5081 16.5574 52.6535 16.4862 52.7716 16.3621C52.9049 16.2227 52.9654 16.0592 52.9654 15.7988C52.9654 15.2703 52.8519 14.6329 52.6838 14.003H53.1289C53.247 14.4694 53.3349 15.0478 53.3349 15.4611C53.3349 15.5187 53.3228 15.5974 53.3122 15.6625H53.3152C53.5938 15.1538 53.8376 14.6208 54.1147 13.9258L54.4993 14.0348C53.9784 15.2734 53.5241 16.091 53.0608 16.5604Z" fill="#044896"/>
</g>
<path fill-rule="evenodd" clip-rule="evenodd" d="M55.6715 14.3202C55.5883 14.2899 55.4929 14.2778 55.4005 14.2778C55.1764 14.2778 55.0628 14.3793 55.0628 14.5262C55.0628 14.8032 55.5989 14.9002 55.5989 15.3271C55.5989 15.6512 55.3218 15.9737 54.7615 15.9737C54.6359 15.9737 54.5329 15.9616 54.4375 15.9419L54.5072 15.5845C54.6025 15.6148 54.7055 15.6345 54.8085 15.6345C55.0326 15.6345 55.1809 15.5452 55.1809 15.3711C55.1809 15.0864 54.648 15.0319 54.648 14.5701C54.648 14.2309 54.9099 13.9629 55.4247 13.9629C55.5489 13.9629 55.6518 13.975 55.7472 13.9947L55.6715 14.3202Z" fill="#044896"/>
<path fill-rule="evenodd" clip-rule="evenodd" d="M57.2917 14.3254H56.8087L56.6331 15.2733C56.5846 15.5428 56.6225 15.6155 56.7936 15.6155C56.8966 15.6155 56.9723 15.6049 57.0449 15.5882L57.0147 15.9274C56.8966 15.9546 56.7557 15.9698 56.6452 15.9698C56.2485 15.9698 56.1395 15.779 56.2258 15.3278L56.4135 14.3254H56.0547L56.1198 14.0029H56.4741L56.5877 13.3882L57.0025 13.2988L56.8693 14.0029H57.3569L57.2917 14.3254Z" fill="#044896"/>
<path fill-rule="evenodd" clip-rule="evenodd" d="M57.9381 15.1106C57.9305 15.1606 57.9229 15.2469 57.9229 15.3044C57.9229 15.5694 58.0183 15.6391 58.3045 15.6391C58.4832 15.6391 58.677 15.5967 58.8451 15.5255V15.8526C58.6512 15.9267 58.4181 15.9737 58.1697 15.9737C57.714 15.9737 57.5156 15.7678 57.5156 15.3317C57.5156 14.558 57.9578 13.9629 58.5664 13.9629C59.001 13.9629 59.1494 14.1885 59.1494 14.4187C59.1494 14.8532 58.7179 15.0834 57.9381 15.1106ZM58.521 14.2748C58.247 14.2748 58.0637 14.5262 57.988 14.8229C58.5059 14.8032 58.7497 14.6942 58.7497 14.4732C58.7497 14.3445 58.6618 14.2748 58.521 14.2748Z" fill="#044896"/>
<path fill-rule="evenodd" clip-rule="evenodd" d="M62.0082 15.9354H61.6084L61.8371 14.7104C61.8901 14.4349 61.8401 14.3183 61.7038 14.3183C61.4525 14.3183 61.0603 14.9012 60.9543 15.4766L60.8665 15.9354H60.4713L60.6984 14.7104C60.7514 14.4349 60.706 14.3183 60.5652 14.3183C60.2805 14.3183 59.9035 14.9784 59.8127 15.4766L59.7279 15.9354H59.3281L59.5189 14.9239C59.5795 14.6014 59.64 14.2683 59.6824 14.0033H60.0791C60.0549 14.1275 60.0034 14.338 59.8838 14.6908L59.8929 14.6953C60.067 14.3137 60.3441 13.9609 60.7211 13.9609C60.9574 13.9609 61.1027 14.0957 61.1027 14.341C61.1027 14.4424 61.0755 14.5363 61.027 14.7029H61.0346C61.2087 14.3137 61.4873 13.9609 61.8628 13.9609C62.2096 13.9609 62.3277 14.2214 62.255 14.6135L62.0082 15.9354Z" fill="#044896"/>
<mask id="mask5_297_12834" style="mask-type:luminance" maskUnits="userSpaceOnUse" x="62" y="13" width="2" height="4">
<path d="M62.5312 13.5879H63.9V16.3013H62.5312V13.5879Z" fill="white"/>
</mask>
<g mask="url(#mask5_297_12834)">
<path fill-rule="evenodd" clip-rule="evenodd" d="M63.8263 14.3202C63.743 14.2899 63.6476 14.2778 63.5568 14.2778C63.3311 14.2778 63.2176 14.3793 63.2176 14.5262C63.2176 14.8032 63.7551 14.9002 63.7551 15.3271C63.7551 15.6512 63.4765 15.9737 62.9163 15.9737C62.7906 15.9737 62.6891 15.9616 62.5938 15.9419L62.6619 15.5845C62.7573 15.6148 62.8602 15.6345 62.9632 15.6345C63.1873 15.6345 63.3357 15.5452 63.3357 15.3711C63.3357 15.0864 62.8027 15.0319 62.8027 14.5701C62.8027 14.2309 63.0647 13.9629 63.5795 13.9629C63.7051 13.9629 63.8066 13.975 63.902 13.9947L63.8263 14.3202Z" fill="#044896"/>
</g>
<path fill-rule="evenodd" clip-rule="evenodd" d="M34.1384 8.91726L35.5011 1.92188H33.1269L31.3281 11.2445L35.6601 11.2491L36.0932 8.91726H34.1384Z" fill="#044896"/>
<path fill-rule="evenodd" clip-rule="evenodd" d="M41.1093 3.98435C41.4999 3.98435 42.0601 4.07822 42.3978 4.19784L42.8021 2.05077C42.307 1.97052 41.774 1.91602 41.188 1.91602C38.6109 1.91602 37.3996 3.45137 37.3996 5.17144C37.3996 7.42601 39.6905 7.40027 39.6905 8.36024C39.6905 8.84174 39.3528 9.10824 38.6245 9.10824C38.1158 9.10824 37.4132 8.98862 36.9968 8.82812L36.5547 11.1327C37.0362 11.2265 37.713 11.2962 38.3883 11.2962C40.6929 11.2962 42.3069 9.76235 42.3069 7.90751C42.3069 5.71956 40.0039 5.67868 40.0039 4.71871C40.0039 4.29172 40.2901 3.98435 41.1093 3.98435Z" fill="#044896"/>
<path fill-rule="evenodd" clip-rule="evenodd" d="M29.4613 1.92383C25.9212 1.92383 23.6484 4.57511 23.6484 7.82751C23.6484 9.86404 24.7189 11.2692 27.4232 11.2692C28.4937 11.2692 29.6233 11.0723 30.5257 10.6847L31.3933 6.18162H29.0161L28.5074 8.92678C28.2984 8.97977 28.0501 8.9934 27.8548 8.9934C26.6661 8.9934 26.2346 8.33777 26.2346 7.46714C26.2346 5.847 27.2279 4.17386 29.2523 4.17386C29.8216 4.17386 30.444 4.27985 31.0012 4.45246C31.0572 4.46912 31.1162 4.48729 31.1768 4.50849C31.3767 4.57662 31.5493 4.65082 31.6719 4.71744L32.1549 2.28268C31.3403 2.0601 30.3622 1.92383 29.4613 1.92383Z" fill="#044896"/>
<path fill-rule="evenodd" clip-rule="evenodd" d="M11.6759 1.95203L11.0384 5.04393H15.437C11.794 10.4434 4.56089 9.52733 2.64851 7.2879C1.00263 5.36038 2.42442 2.05953 7.30453 0.0214844C2.47439 1.49173 -0.23746 5.35281 1.35543 7.9511C3.16181 10.8991 8.79294 12.1286 13.7972 10.6978C17.142 9.52127 18.5683 7.87539 19.0907 6.98658L18.2715 11.2686H21.5588L23.3424 1.95203H11.6759Z" fill="#FABE13"/>
</svg>
