<svg width="63" height="21" viewBox="0 0 63 21" fill="none" xmlns="http://www.w3.org/2000/svg">
<path d="M62.7993 0.708984V14.6445H0V0.708984H62.7993Z" fill="#FFCC00"/>
<path d="M11.0455 3.21094L9.03906 5.95191H19.9741C20.5268 5.95191 20.5195 6.1631 20.2494 6.53112C19.975 6.9047 19.5158 7.55441 19.2364 7.9339C19.0946 8.12649 18.8381 8.47735 19.6879 8.47735H24.1596C24.1596 8.47735 24.8804 7.49115 25.4844 6.66656C26.3065 5.54502 25.5558 3.21105 22.6173 3.21105L11.0455 3.21094Z" fill="#D2002E"/>
<path d="M8.22567 12.1407L12.2556 6.63459H17.2565C17.8093 6.63459 17.8021 6.84578 17.5319 7.2138C17.2575 7.58738 16.7908 8.23019 16.5114 8.60968C16.3695 8.80226 16.1131 9.15369 16.9628 9.15369H23.6624C23.1053 9.92124 21.2979 12.1406 18.0526 12.1406L8.22567 12.1407ZM31.3055 9.15302L29.12 12.1405H23.3553C23.3553 12.1405 25.5395 9.15369 25.5414 9.15369L31.3055 9.15302ZM40.1368 8.47735H26.0366L29.8925 3.21094H35.6556L33.4455 6.23071H36.0179L38.2289 3.21094H43.9913L40.1368 8.47735ZM39.6419 9.1538L37.4555 12.1407H31.6928C31.6928 12.1407 33.877 9.1538 33.8789 9.1538H39.6419ZM0 10.3316H8.49263L8.02872 10.9662H0V10.3316ZM0 9.1538H9.35543L8.89063 9.78747H0V9.1538ZM0 11.51H7.63027L7.16858 12.1407H0V11.51ZM62.7996 10.9662H54.3396L54.804 10.3317H62.7996V10.9662ZM62.7996 12.1407L53.4796 12.1416L53.9413 11.51H62.7996V12.1407ZM55.6657 9.1538H62.7996V9.7878L55.2017 9.78836L55.6657 9.1538ZM51.9725 3.21094L48.1174 8.47724H42.0106C42.0106 8.47724 45.8668 3.21094 45.8688 3.21094H51.9725ZM41.5165 9.1538C41.5165 9.1538 41.0952 9.73267 40.8907 10.0109C40.1668 10.9947 40.8068 12.1407 43.169 12.1407H52.4243L54.6104 9.1538H41.5165Z" fill="#D2002E"/>
<path d="M0 16.9102H62.7996V17.2258H0V16.9102ZM0 18.3832H62.7996V18.6989H0V18.3832ZM0 19.856H62.7996V20.1716H0V19.856Z" fill="#FFCC00"/>
<path d="M21.0859 20.1709H22.9759L23.2776 19.7598H21.8711L22.6598 18.6851H23.9406L24.2424 18.2739H22.9615L23.6609 17.3209H25.0675L25.3692 16.9097H23.4794L21.0859 20.1709ZM23.4054 20.1709H23.9854L25.9623 18.7879L25.9429 20.1709H26.552L26.5565 18.4656L28.8342 16.9097H28.2832L26.4701 18.1618L26.4899 16.9097H25.9099L25.8923 18.475L23.4054 20.1709ZM29.5658 17.3209H29.9767C30.2764 17.3209 30.6113 17.4704 30.3095 17.8815C29.9941 18.3112 29.5108 18.4561 29.211 18.4561H28.7325L29.5658 17.3209ZM26.9908 20.1709H27.4741L28.4308 18.8674H28.9044C29.5134 18.8674 30.2868 18.6104 30.8183 17.8861C31.3635 17.1431 30.9598 16.9094 30.2687 16.9094H29.3842L26.9908 20.1709ZM29.7742 20.1709H30.2576L31.3206 18.7225H31.6104C31.8665 18.7225 32.0263 18.7225 31.943 19.0401L31.6304 20.1709H32.1815L32.4967 18.8719C32.5378 18.6711 32.5169 18.601 32.408 18.5448L32.4149 18.5354C32.8545 18.4699 33.3646 18.1897 33.6562 17.7925C34.2288 17.0124 33.6614 16.9094 32.9942 16.9094H32.1677L29.7742 20.1709ZM32.3493 17.3209H32.8132C33.2581 17.3209 33.3528 17.5078 33.1369 17.802C32.9071 18.1152 32.4924 18.3112 32.0331 18.3112H31.6223L32.3493 17.3209ZM32.6819 20.1709H34.5719L34.8734 19.7598H33.4671L34.2557 18.6851H35.5366L35.8382 18.2739H34.5574L35.2568 17.3209H36.6634L36.9652 16.9097H35.0754L32.6819 20.1709ZM39.2933 16.9704C39.1196 16.8909 38.881 16.8535 38.6587 16.8535C38.0497 16.8535 37.3497 17.1621 36.9245 17.7414C36.1804 18.7553 37.778 18.5544 37.243 19.2833C36.9618 19.6662 36.4653 19.8159 36.19 19.8159C35.9433 19.8159 35.722 19.7224 35.6056 19.6569L35.2385 20.0915C35.4095 20.1616 35.5936 20.227 35.8304 20.227C36.507 20.227 37.2652 19.951 37.7761 19.2549C38.5647 18.1804 37.0082 18.325 37.4678 17.6992C37.7183 17.3581 38.1059 17.2646 38.3765 17.2646C38.6279 17.2646 38.7322 17.3069 38.9101 17.4002L39.2933 16.9704ZM41.7101 16.9704C41.5365 16.8909 41.298 16.8535 41.0755 16.8535C40.4665 16.8535 39.7666 17.1621 39.3413 17.7414C38.5972 18.7553 40.1948 18.5544 39.6598 19.2833C39.3787 19.6662 38.8821 19.8159 38.6068 19.8159C38.3601 19.8159 38.1387 19.7224 38.0226 19.6569L37.6554 20.0915C37.8263 20.1616 38.0104 20.227 38.2471 20.227C38.9238 20.227 39.6819 19.951 40.1928 19.2549C40.9815 18.1804 39.4252 18.325 39.8846 17.6992C40.135 17.3581 40.5227 17.2646 40.7933 17.2646C41.0447 17.2646 41.1492 17.3069 41.3269 17.4002L41.7101 16.9704Z" fill="#D2002E"/>
</svg>
