<svg width="30" height="30" viewBox="0 0 30 30" fill="none" xmlns="http://www.w3.org/2000/svg">
<path d="M6.80651 25.8187C5.41725 25.5527 4.31158 24.4412 4.06139 23.0507C4.02194 22.8312 4.00221 22.4419 4.00221 21.883C3.99947 17.1138 3.99928 12.3445 4.00162 7.57495C4.00279 5.82886 5.12194 4.36812 6.86393 4.06167C7.09166 4.02144 7.48111 4.00132 8.03229 4.00132C12.7967 4.00015 17.5612 3.99976 22.3256 4.00015C24.0348 4.00015 25.5032 5.12046 25.8196 6.80562C25.8622 7.03452 25.8837 7.42417 25.884 7.97456C25.886 12.6156 25.886 17.2566 25.884 21.8976C25.884 22.446 25.8628 22.8353 25.8202 23.0654C25.5665 24.4441 24.4655 25.5591 23.0803 25.8199C22.8534 25.8625 22.4639 25.8839 21.912 25.8843C17.2659 25.8867 12.6198 25.8865 7.97369 25.8837C7.42174 25.8837 7.03268 25.8621 6.80651 25.8187ZM21.1977 5.88335L19.6637 5.88042C19.6419 5.88042 19.6309 5.89136 19.6309 5.91323C19.6297 7.57534 19.6294 9.23765 19.6297 10.9001C19.6297 11.5201 19.5647 11.9343 19.2536 12.4148C19.2458 12.4269 19.2489 12.4349 19.263 12.4388C19.2676 12.44 19.2735 12.4404 19.2805 12.44L19.2442 12.4546C19.2266 12.4619 19.2112 12.4739 19.1997 12.4892C18.8926 12.8904 18.5085 13.1572 18.0471 13.2896C17.8479 13.3466 17.5333 13.3753 17.1032 13.3757C15.6258 13.3765 14.1487 13.3761 12.6717 13.3746C12.3081 13.3742 12.0305 13.347 11.8391 13.2931C10.8811 13.0242 10.2571 12.1312 10.2565 11.1492C10.2557 9.39761 10.2553 7.65015 10.2553 5.90679C10.2553 5.89855 10.2521 5.89065 10.2462 5.88483C10.2404 5.879 10.2325 5.87573 10.2243 5.87573C9.43639 5.87534 8.64811 5.87554 7.85944 5.87632C7.43834 5.87632 7.13697 5.90581 6.95533 5.96479C6.23229 6.19858 5.87838 6.83081 5.87838 7.57495C5.87643 12.3726 5.87545 17.1701 5.87545 21.9673C5.87545 22.4244 5.90553 22.7459 5.96569 22.9318C6.20709 23.6789 6.85631 24.0099 7.61861 24.0099C12.487 24.0103 17.3551 24.0089 22.2231 24.0058C23.0253 24.0052 23.6715 23.7041 23.9194 22.9312C23.9803 22.7406 24.0108 22.4023 24.0108 21.9164C24.01 17.2375 24.0098 12.5584 24.0102 7.87905C24.0102 7.45366 23.9811 7.14897 23.9229 6.96499C23.528 5.72046 22.2255 5.83647 21.1977 5.88335ZM13.7036 11.5013L17.4489 11.5001C17.5302 11.5001 17.6081 11.4679 17.6656 11.4104C17.723 11.3529 17.7553 11.275 17.7553 11.1937V5.90503C17.7553 5.89726 17.7522 5.88981 17.7468 5.88431C17.7413 5.87882 17.7338 5.87573 17.726 5.87573H13.7335C13.7186 5.87573 13.7079 5.88237 13.7012 5.89565C13.6969 5.90464 13.6963 5.91304 13.6995 5.92085C13.6889 5.90718 13.6794 5.89644 13.6708 5.88862C13.6614 5.88003 13.6487 5.87573 13.6327 5.87573C13.1378 5.87534 12.6467 5.87534 12.1596 5.87573C12.1519 5.87573 12.1444 5.87888 12.1389 5.88449C12.1334 5.89009 12.1303 5.89769 12.1303 5.90562V11.2072C12.1303 11.2848 12.1611 11.3592 12.2159 11.4141C12.2708 11.4691 12.3451 11.5 12.4227 11.5001L13.7036 11.5013Z" fill="#232323"/>
<path d="M12.4703 19.0078H9.90859C9.41542 19.0078 9.01562 19.4076 9.01562 19.9008V19.9781C9.01562 20.4713 9.41542 20.8711 9.90859 20.8711H12.4703C12.9635 20.8711 13.3633 20.4713 13.3633 19.9781V19.9008C13.3633 19.4076 12.9635 19.0078 12.4703 19.0078Z" fill="#232323"/>
</svg>
