<svg width="84" height="30" viewBox="0 0 84 30" fill="none" xmlns="http://www.w3.org/2000/svg">
<path d="M5.21671 18.2311C-1.08503 11.2834 7.59364 1.3694 15.5359 6.47954C18.1877 8.18292 19.3019 10.8984 18.8786 14.626C18.8609 14.7748 18.9256 14.8725 19.0726 14.9191C21.8111 15.7985 21.8729 19.233 19.2799 20.3749C19.1446 20.4362 19.0843 20.5397 19.099 20.6855L19.4871 24.6625C19.5048 24.8463 19.4195 24.9382 19.2313 24.9382H6.60141C6.57234 24.9379 6.54366 24.9314 6.51733 24.9191C6.49101 24.9069 6.46764 24.8892 6.44882 24.8672C6.43 24.8452 6.41617 24.8194 6.40826 24.7917C6.40034 24.7639 6.39854 24.7348 6.40297 24.7063L6.48234 24.26C6.48737 24.2282 6.48593 24.1958 6.4781 24.1646C6.47027 24.1335 6.45623 24.1044 6.43682 24.079C6.41742 24.0536 6.39306 24.0325 6.36525 24.017C6.33744 24.0014 6.30675 23.9918 6.27508 23.9888C3.24107 23.6519 2.64133 20.108 5.17261 18.5374C5.31078 18.4499 5.32548 18.3478 5.21671 18.2311ZM17.313 14.7091C18.1994 12.1497 17.1058 9.45462 14.967 7.9277C11.3376 5.33763 5.7944 6.89955 4.72721 11.2659C4.22154 13.3456 4.52729 15.0854 5.64447 16.4854C8.07285 19.5276 11.1098 20.0774 14.7553 18.1348C15.5094 17.7323 15.3198 16.8573 15.6858 16.2623C16.0121 15.7256 16.4634 15.3114 17.0396 15.0198C17.1749 14.9527 17.266 14.8491 17.313 14.7091ZM19.7826 17.6886C19.7826 17.2871 19.6218 16.9021 19.3357 16.6182C19.0495 16.3343 18.6614 16.1748 18.2568 16.1748C17.8521 16.1748 17.464 16.3343 17.1778 16.6182C16.8917 16.9021 16.7309 17.2871 16.7309 17.6886C16.7309 18.0901 16.8917 18.4751 17.1778 18.759C17.464 19.0429 17.8521 19.2024 18.2568 19.2024C18.6614 19.2024 19.0495 19.0429 19.3357 18.759C19.6218 18.4751 19.7826 18.0901 19.7826 17.6886ZM15.7696 19.3074C15.7627 19.2974 15.7539 19.2889 15.7436 19.2824C15.7332 19.2759 15.7216 19.2715 15.7093 19.2695C15.697 19.2675 15.6843 19.2678 15.672 19.2706C15.6596 19.2733 15.6478 19.2784 15.6373 19.2855C13.8116 20.5105 11.7977 20.9422 9.59573 20.5805C9.43991 20.5572 9.37229 20.6228 9.39287 20.7774C9.51635 21.7516 9.22089 22.5712 8.50649 23.2362C8.33009 23.3996 8.36243 23.4812 8.6035 23.4812L17.5335 23.4681C17.7305 23.4681 17.8158 23.3719 17.7893 23.1794L17.4453 20.7293C17.4218 20.5718 17.3366 20.4624 17.1896 20.4012C16.6192 20.1562 16.1459 19.7916 15.7696 19.3074ZM8.04786 21.1187C8.04786 20.7172 7.8871 20.3322 7.60095 20.0483C7.31481 19.7644 6.92671 19.6049 6.52203 19.6049C6.11736 19.6049 5.72926 19.7644 5.44311 20.0483C5.15697 20.3322 4.99621 20.7172 4.99621 21.1187C4.99621 21.5202 5.15697 21.9052 5.44311 22.1891C5.72926 22.473 6.11736 22.6325 6.52203 22.6325C6.92671 22.6325 7.31481 22.473 7.60095 22.1891C7.8871 21.9052 8.04786 21.5202 8.04786 21.1187Z" fill="#1F8FCD"/>
<path d="M14.4638 10.4338L6.71193 13.4478C6.19038 13.6506 5.93327 14.2344 6.13766 14.7518L6.15697 14.8007C6.36137 15.3182 6.94986 15.5732 7.4714 15.3705L15.2233 12.3565C15.7448 12.1537 16.0019 11.5699 15.7975 11.0524L15.7782 11.0035C15.5738 10.4861 14.9853 10.231 14.4638 10.4338Z" fill="#1F8FCD"/>
<path d="M64.0544 10.4603L63.2607 10.4617C62.9635 10.4622 62.7231 10.7016 62.7236 10.9964L62.738 19.1866C62.7385 19.4814 62.9798 19.72 63.2769 19.7194L64.0707 19.7181C64.3679 19.7176 64.6083 19.4782 64.6078 19.1834L64.5934 10.9932C64.5929 10.6984 64.3516 10.4598 64.0544 10.4603Z" fill="#464743"/>
<path d="M68.7725 12.8891C66.0163 15.3436 69.0812 19.2462 72.2166 17.5661C72.2795 17.5313 72.3524 17.5184 72.4235 17.5295C72.4947 17.5406 72.56 17.5751 72.6091 17.6274L73.4734 18.5505C73.5822 18.6643 73.5719 18.7649 73.4426 18.8524C72.1725 19.7508 70.8422 19.9958 69.4516 19.5874C62.4619 17.5268 66.9644 7.46399 73.3588 11.2091C73.3906 11.2278 73.418 11.2532 73.439 11.2834C73.46 11.3137 73.4741 11.3481 73.4804 11.3843C73.4867 11.4204 73.485 11.4576 73.4754 11.493C73.4658 11.5285 73.4486 11.5615 73.4249 11.5897L72.6664 12.4866C72.5576 12.6179 72.4253 12.6485 72.2695 12.5785C70.8701 11.9572 69.7044 12.0608 68.7725 12.8891Z" fill="#464743"/>
<path d="M30.2213 17.7891C30.6211 17.6549 30.9665 17.738 31.2576 18.0385L31.8397 18.6291C32.0014 18.7954 31.9764 18.9266 31.7647 19.0229C28.9218 20.3267 26.7286 19.9402 25.1852 17.8635C21.9307 13.4796 27.1564 8.64509 31.7074 11.292C31.8514 11.3766 31.8691 11.4831 31.7603 11.6114L30.9401 12.5608C30.8195 12.7008 30.6769 12.7271 30.5123 12.6396C27.3107 10.9027 24.2767 15.094 27.1828 17.4085C28.0001 18.0618 29.0129 18.1887 30.2213 17.7891Z" fill="#464743"/>
<path d="M41.1444 15.129C41.1444 16.3764 40.6449 17.5727 39.7559 18.4547C38.8668 19.3368 37.661 19.8323 36.4037 19.8323C35.1464 19.8323 33.9406 19.3368 33.0516 18.4547C32.1625 17.5727 31.6631 16.3764 31.6631 15.129C31.6631 13.8817 32.1625 12.6854 33.0516 11.8033C33.9406 10.9213 35.1464 10.4258 36.4037 10.4258C37.661 10.4258 38.8668 10.9213 39.7559 11.8033C40.6449 12.6854 41.1444 13.8817 41.1444 15.129ZM39.3495 15.1247C39.3495 14.7409 39.2733 14.3608 39.1253 14.0062C38.9772 13.6517 38.7603 13.3295 38.4867 13.0581C38.2132 12.7867 37.8884 12.5714 37.531 12.4245C37.1736 12.2777 36.7906 12.2021 36.4037 12.2021C35.6224 12.2021 34.8732 12.51 34.3207 13.0581C33.7683 13.6062 33.4579 14.3495 33.4579 15.1247C33.4579 15.8998 33.7683 16.6431 34.3207 17.1912C34.8732 17.7393 35.6224 18.0472 36.4037 18.0472C36.7906 18.0472 37.1736 17.9716 37.531 17.8248C37.8884 17.6779 38.2132 17.4626 38.4867 17.1912C38.7603 16.9198 38.9772 16.5977 39.1253 16.2431C39.2733 15.8885 39.3495 15.5085 39.3495 15.1247Z" fill="#464743"/>
<path d="M52.3145 13.3573C53.2097 15.1161 53.0112 17.7018 52.9671 19.4431C52.9613 19.6123 52.8731 19.6983 52.7025 19.7012H51.481C51.2987 19.7012 51.2105 19.6108 51.2164 19.43C51.3017 17.3037 51.2781 15.8964 51.1458 15.208C50.405 11.2704 44.7515 11.2223 44.0592 15.4224C43.9563 16.0436 43.9504 17.3781 44.0415 19.4256C44.0433 19.4612 44.0378 19.4967 44.0253 19.5301C44.0128 19.5635 43.9936 19.594 43.9688 19.6198C43.9441 19.6456 43.9143 19.6661 43.8813 19.6801C43.8483 19.6941 43.8128 19.7013 43.7769 19.7012H42.5466C42.3849 19.7012 42.2967 19.6225 42.282 19.465C42.035 17.0937 42.0967 15.3509 42.4672 14.2367C43.971 9.69973 50.1139 9.03034 52.3145 13.3573Z" fill="#464743"/>
<path d="M54.2904 19.5131C54.1361 14.0748 53.3908 9.36719 60.8479 10.566C61.0008 10.5893 61.0758 10.6783 61.0728 10.8329L61.064 12.0229C61.0611 12.2037 60.9684 12.2927 60.7862 12.2898C58.8282 12.281 56.3939 11.8741 56.2572 14.2236C56.1514 15.9765 56.1249 17.7353 56.1778 19.5C56.1837 19.637 56.119 19.7041 55.9838 19.7012H54.4844C54.361 19.7012 54.2963 19.6385 54.2904 19.5131Z" fill="#464743"/>
<path d="M76.7145 17.2817L76.7454 19.4867C76.7483 19.653 76.666 19.7361 76.4984 19.7361L75.2284 19.7405C75.0696 19.7434 74.9902 19.6661 74.9902 19.5086V10.7146C74.9902 10.5629 75.0667 10.4871 75.2196 10.4871C77.7993 10.4783 81.927 10.649 81.0582 14.591C80.6349 16.516 78.7078 16.8266 76.9615 17.0104C76.7968 17.0279 76.7145 17.1183 76.7145 17.2817ZM76.7277 12.5872V14.941C76.7283 14.9737 76.7354 15.006 76.7485 15.0361C76.7617 15.0661 76.7807 15.0933 76.8045 15.116C76.8282 15.1388 76.8562 15.1567 76.887 15.1687C76.9177 15.1807 76.9505 15.1866 76.9835 15.186H77.3539C77.907 15.1847 78.437 15.0401 78.8273 14.7842C79.2176 14.5282 79.4364 14.1817 79.4354 13.8209V13.6897C79.4349 13.511 79.3805 13.3341 79.2752 13.1692C79.1699 13.0043 79.0158 12.8546 78.8217 12.7286C78.6275 12.6027 78.3972 12.503 78.1439 12.4351C77.8905 12.3673 77.6191 12.3327 77.3451 12.3334H76.9747C76.9417 12.334 76.9091 12.341 76.8788 12.354C76.8485 12.3671 76.8212 12.386 76.7982 12.4095C76.7753 12.4331 76.7573 12.4609 76.7452 12.4914C76.7331 12.5219 76.7271 12.5544 76.7277 12.5872Z" fill="#464743"/>
<path d="M72.7736 14.2706L69.7485 14.2811C69.4489 14.2821 69.2069 14.5239 69.2079 14.8211L69.2103 15.4949C69.2114 15.7921 69.4551 16.0322 69.7546 16.0311L72.7798 16.0206C73.0794 16.0196 73.3214 15.7778 73.3203 15.4806L73.3179 14.8069C73.3169 14.5097 73.0732 14.2696 72.7736 14.2706Z" fill="#464743"/>
<path d="M47.9761 14.9389L47.1647 14.9431C46.9017 14.9444 46.6896 15.1571 46.691 15.4181L46.7112 19.2594C46.7126 19.5203 46.927 19.7308 47.19 19.7294L48.0014 19.7252C48.2644 19.7238 48.4766 19.5112 48.4752 19.2502L48.4549 15.4089C48.4535 15.1479 48.2392 14.9375 47.9761 14.9389Z" fill="#464743"/>
<path d="M60.5023 15.0914L57.3889 15.0968C57.1186 15.0973 56.8998 15.3151 56.9003 15.5833L56.9016 16.3533C56.9021 16.6215 57.1216 16.8386 57.392 16.8381L60.5054 16.8327C60.7757 16.8322 60.9945 16.6144 60.994 16.3462L60.9926 15.5762C60.9922 15.308 60.7726 15.0909 60.5023 15.0914Z" fill="#464743"/>
<path d="M77.9046 18.0734C77.8782 18.0556 77.8598 18.0283 77.8532 17.9973C77.8467 17.9663 77.8524 17.934 77.8694 17.9072L77.9135 17.8415C78.037 17.6565 78.1951 17.4968 78.3788 17.3716C78.5625 17.2463 78.7681 17.158 78.9839 17.1117C79.1998 17.0654 79.4216 17.062 79.6367 17.1016C79.8518 17.1412 80.0559 17.2232 80.2375 17.3428L80.3036 17.3865C80.4854 17.5059 80.641 17.6607 80.7616 17.8419C80.8822 18.0231 80.9653 18.2272 81.0063 18.4426C81.0472 18.658 81.0452 18.8804 81.0003 19.097C80.9554 19.3137 80.8685 19.5204 80.7446 19.7053L80.7005 19.771C80.6913 19.7842 80.6795 19.7955 80.6658 19.8042C80.6521 19.8129 80.6369 19.8188 80.6209 19.8216C80.6049 19.8245 80.5886 19.8242 80.5727 19.8207C80.5569 19.8173 80.5418 19.8108 80.5285 19.8016L77.9046 18.0734Z" fill="#464743"/>
</svg>
