<svg width="32" height="9" viewBox="0 0 32 9" fill="none" xmlns="http://www.w3.org/2000/svg">
<path d="M3.56383 0.561523L0.00878906 8.4287H4.26467L4.79227 7.17435H5.99826L6.52586 8.4287H11.2104V7.47134L11.6278 8.4287H14.051L14.4684 7.4511V8.4287H24.211L25.3956 7.20692L26.5049 8.4287L31.5089 8.43882L27.9426 4.51708L31.5089 0.561523H26.5825L25.4293 1.76072L24.355 0.561523H13.7564L12.8463 2.59211L11.9148 0.561523H7.66781V1.48631L7.19536 0.561523H3.56383ZM4.38731 1.67867H6.46183L8.81988 7.01345V1.67867H11.0924L12.9138 5.50368L14.5923 1.67867H16.8535V7.32389H15.4776L15.4664 2.90033L13.4605 7.32389H12.2297L10.2126 2.90033V7.32389H7.38205L6.84544 6.05831H3.94633L3.41083 7.32278H1.89427L4.38731 1.67867ZM18.1123 1.67867H23.7069L25.4181 3.52702L27.1844 1.67867H28.8955L26.2956 4.51597L28.8955 7.32056H27.1068L25.3956 5.45075L23.6203 7.32056H18.1123V1.67867ZM5.3965 2.63381L4.44136 4.88835H6.35053L5.3965 2.63381ZM19.4939 2.84752V3.87805H22.546V5.02667H19.4939V6.15171H22.9173L24.508 4.49462L22.9848 2.84653H19.4939V2.84752Z" fill="#9B9B9B"/>
</svg>
