<svg width="43" height="27" viewBox="0 0 43 27" fill="none" xmlns="http://www.w3.org/2000/svg">
<rect x="1.29993" y="0.5" width="41" height="26" rx="6.5" fill="white" stroke="#9B9B9B"/>
<path d="M9.56395 9.56152L6.00891 17.4287H10.2648L10.7924 16.1743H11.9984L12.526 17.4287H17.2105V16.4713L17.6279 17.4287H20.0511L20.4686 16.4511V17.4287H30.2111L31.3957 16.2069L32.505 17.4287L37.509 17.4388L33.9427 13.5171L37.509 9.56152H32.5826L31.4294 10.7607L30.3551 9.56152H19.7565L18.8464 11.5921L17.9149 9.56152H13.6679V10.4863L13.1955 9.56152H9.56395ZM10.3874 10.6787H12.4619L14.82 16.0134V10.6787H17.0926L18.9139 14.5037L20.5924 10.6787H22.8536V16.3239H21.4777L21.4665 11.9003L19.4606 16.3239H18.2298L16.2127 11.9003V16.3239H13.3822L12.8456 15.0583H9.94645L9.41095 16.3228H7.89439L10.3874 10.6787ZM24.1124 10.6787H29.7071L31.4182 12.527L33.1845 10.6787H34.8956L32.2957 13.516L34.8956 16.3206H33.1069L31.3957 14.4507L29.6204 16.3206H24.1124V10.6787ZM11.3966 11.6338L10.4415 13.8883H12.3507L11.3966 11.6338ZM25.494 11.8475V12.8781H28.5461V14.0267H25.494V15.1517H28.9174L30.5081 13.4946L28.9849 11.8465H25.494V11.8475Z" fill="#9B9B9B"/>
</svg>
