<svg width="16" height="9" viewBox="0 0 16 9" fill="none" xmlns="http://www.w3.org/2000/svg">
<path d="M3.86274 0.600098C2.65111 0.600098 2.04529 0.600098 1.76477 0.839692C1.52136 1.04758 1.39218 1.35944 1.4173 1.67856C1.44624 2.04634 1.87462 2.47472 2.73137 3.33147L6.86863 7.46873C7.26465 7.86474 7.46265 8.06275 7.69098 8.13694C7.89183 8.2022 8.10817 8.2022 8.30902 8.13694C8.53735 8.06275 8.73535 7.86474 9.13137 7.46873L13.2686 3.33147C14.1254 2.47471 14.5538 2.04634 14.5827 1.67856C14.6078 1.35944 14.4786 1.04758 14.2352 0.839691C13.9547 0.600098 13.3489 0.600098 12.1373 0.600098L3.86274 0.600098Z" fill="black"/>
</svg>
