<svg width="24" height="25" viewBox="0 0 24 25" fill="none" xmlns="http://www.w3.org/2000/svg">
<ellipse cx="12" cy="12.0313" rx="12" ry="12" transform="rotate(-90 12 12.0313)" fill="#E1E1E1"/>
<path d="M9 16.0052C9 17.1251 9 17.6851 9.22678 17.9616C9.42382 18.2019 9.72136 18.3369 10.0319 18.327C10.3894 18.3155 10.8108 17.9468 11.6536 17.2093L15.6239 13.7354C16.099 13.3196 16.3366 13.1118 16.4239 12.8655C16.5006 12.6493 16.5006 12.4132 16.4239 12.197C16.3366 11.9507 16.099 11.7429 15.6239 11.3271L11.6536 7.85315C10.8108 7.11568 10.3894 6.74695 10.0319 6.73553C9.72136 6.7256 9.42382 6.86062 9.22678 7.10088C9 7.3774 9 7.93736 9 9.05728L9 16.0052Z" fill="black"/>
</svg>
