<svg width="16" height="8" viewBox="0 0 16 8" fill="none" xmlns="http://www.w3.org/2000/svg">
<path d="M3.86274 3.07991e-07C2.65111 3.60953e-07 2.04529 3.87435e-07 1.76477 0.239594C1.52136 0.447486 1.39218 0.759341 1.4173 1.07846C1.44624 1.44624 1.87462 1.87462 2.73137 2.73137L6.86863 6.86863C7.26465 7.26465 7.46265 7.46265 7.69098 7.53684C7.89183 7.6021 8.10817 7.6021 8.30902 7.53684C8.53735 7.46265 8.73535 7.26465 9.13137 6.86863L13.2686 2.73137C14.1254 1.87462 14.5538 1.44624 14.5827 1.07846C14.6078 0.759341 14.4786 0.447485 14.2352 0.239594C13.9547 -1.33142e-07 13.3489 -1.06661e-07 12.1373 -5.36992e-08L3.86274 3.07991e-07Z" fill="black"/>
</svg>
