<svg width="42" height="43" viewBox="0 0 42 43" fill="none" xmlns="http://www.w3.org/2000/svg">
<circle cx="21" cy="21.6001" r="21" fill="white"/>
<path fill-rule="evenodd" clip-rule="evenodd" d="M14.0788 14.669C17.8741 10.879 24.0438 10.9193 27.8623 14.7379C31.6825 18.5581 31.7212 24.7314 27.9263 28.5263C24.1314 32.3212 17.9581 32.2825 14.1379 28.4623C11.874 26.1985 10.9392 23.11 11.3406 20.1813C11.3968 19.7709 11.7751 19.4839 12.1855 19.5401C12.5959 19.5964 12.8829 19.9746 12.8267 20.385C12.4867 22.8653 13.2779 25.4811 15.1985 27.4017C18.443 30.6462 23.6665 30.6647 26.8656 27.4656C30.0647 24.2665 30.0461 19.043 26.8017 15.7985C23.5588 12.5557 18.339 12.5355 15.1395 15.7297L15.8872 15.7334C16.3014 15.7355 16.6355 16.073 16.6334 16.4872C16.6313 16.9014 16.2938 17.2355 15.8796 17.2334L13.3341 17.2206C12.9228 17.2185 12.5899 16.8857 12.5879 16.4744L12.5751 13.9288C12.573 13.5146 12.9071 13.1772 13.3213 13.1751C13.7355 13.173 14.073 13.5071 14.075 13.9213L14.0788 14.669ZM21 16.85C21.4142 16.85 21.75 17.1858 21.75 17.6V21.2894L24.0303 23.5697C24.3232 23.8626 24.3232 24.3375 24.0303 24.6303C23.7374 24.9232 23.2626 24.9232 22.9697 24.6303L20.25 21.9107V17.6C20.25 17.1858 20.5858 16.85 21 16.85Z" fill="black"/>
</svg>
