<svg width="42" height="43" viewBox="0 0 42 43" fill="none" xmlns="http://www.w3.org/2000/svg">
<ellipse cx="21.5676" cy="21.6001" rx="20.4324" ry="21" fill="url(#paint0_linear_551_94)"/>
<path d="M23.0541 20.4341L20.1028 18.6841C19.1947 18.1007 18.1731 17.9841 17.1514 18.2174C16.1298 18.5674 15.3352 19.1507 14.7677 20.2007L10.6925 27.7841C9.6709 29.6507 10.352 32.1007 12.1682 33.2674L15.1195 35.1341C15.6871 35.3674 16.3682 35.6007 17.0493 35.6007C17.3898 35.6007 17.7304 35.6007 18.0709 35.4841C19.0925 35.2507 19.8871 34.5507 20.4547 33.6174L24.5412 26.0341C25.5628 24.0507 24.8817 21.6007 23.0655 20.4341H23.0541ZM22.4866 24.8674L18.4001 32.4507C18.1731 32.8007 17.8325 33.1507 17.3785 33.2674C17.0379 33.3841 16.5839 33.2674 16.2433 33.1507L13.292 31.2841C12.4974 30.8174 12.2704 29.7674 12.7244 28.8341L16.8109 21.2507C17.0379 20.9007 17.3785 20.5507 17.8325 20.4341H18.1731C18.4001 20.4341 18.7406 20.5507 18.9677 20.6674L21.919 22.5341C22.7136 23.0007 22.9406 24.0507 22.4866 24.8674Z" fill="url(#paint1_linear_551_94)"/>
<path d="M21.2359 12.1502H20.6683L22.144 10.7502C22.5981 10.2835 22.5981 9.58351 22.144 9.11685C21.6899 8.65018 21.0089 8.65018 20.5548 9.11685L17.3764 12.1502C16.9224 12.6168 16.9224 13.3168 17.3764 13.7835L20.5548 16.8168C20.7818 17.0502 21.1224 17.1668 21.3494 17.1668C21.6899 17.1668 21.917 17.0502 22.144 16.8168C22.5981 16.3502 22.5981 15.6502 22.144 15.1835L21.2359 14.3668C26.344 14.4835 30.5326 18.4502 30.5326 23.3502C30.5326 26.0335 29.284 28.4835 27.2408 30.2335C26.7867 30.5835 26.6732 31.2835 27.1272 31.7502C27.3543 31.9835 27.6948 32.1002 28.0354 32.1002C28.2624 32.1002 28.6029 31.9835 28.8299 31.8668C31.4408 29.7668 32.9164 26.6168 32.9164 23.3502C32.9164 17.1668 27.6948 12.1502 21.2359 12.1502Z" fill="url(#paint2_linear_551_94)"/>
<path d="M24.8665 32.2163C24.1854 32.2163 23.7314 32.683 23.7314 33.383C23.7314 33.9663 24.299 34.5496 24.8665 34.5496C25.5476 34.5496 26.0017 34.083 26.0017 33.383C26.0017 32.683 25.4341 32.2163 24.8665 32.2163Z" fill="url(#paint3_linear_551_94)"/>
<defs>
<linearGradient id="paint0_linear_551_94" x1="21.5676" y1="0.600098" x2="21.5676" y2="42.6001" gradientUnits="userSpaceOnUse">
<stop stop-color="#372934"/>
<stop offset="1" stop-color="#372934" stop-opacity="0"/>
</linearGradient>
<linearGradient id="paint1_linear_551_94" x1="10.125" y1="23.1757" x2="32.1193" y2="33.5298" gradientUnits="userSpaceOnUse">
<stop stop-color="#B221BA"/>
<stop offset="1" stop-color="#F045CA"/>
</linearGradient>
<linearGradient id="paint2_linear_551_94" x1="13.9256" y1="15.1018" x2="35.92" y2="25.4559" gradientUnits="userSpaceOnUse">
<stop stop-color="#B221BA"/>
<stop offset="1" stop-color="#F045CA"/>
</linearGradient>
<linearGradient id="paint3_linear_551_94" x1="9.03139" y1="25.508" x2="31.0254" y2="35.8507" gradientUnits="userSpaceOnUse">
<stop stop-color="#B221BA"/>
<stop offset="1" stop-color="#F045CA"/>
</linearGradient>
</defs>
</svg>
