<svg width="42" height="43" viewBox="0 0 42 43" fill="none" xmlns="http://www.w3.org/2000/svg">
<circle cx="21" cy="21.6001" r="21" fill="white"/>
<path d="M16 18.6001C16 18.6001 16.5 19.5001 16.5 21.6001C16.5 23.7001 16 24.6001 16 24.6001" stroke="black" stroke-width="1.5" stroke-linecap="round"/>
<path d="M19.5 18.6001C19.5 18.6001 20 19.5001 20 21.6001C20 23.7001 19.5 24.6001 19.5 24.6001" stroke="black" stroke-width="1.5" stroke-linecap="round"/>
<path d="M23 18.6001C23 18.6001 23.5 19.5001 23.5 21.6001C23.5 23.7001 23 24.6001 23 24.6001" stroke="black" stroke-width="1.5" stroke-linecap="round"/>
<path d="M29 19.6001C29.9428 19.6001 30.4142 19.6001 30.7071 19.893C31 20.1859 31 20.6573 31 21.6001C31 22.5429 31 23.0143 30.7071 23.3072C30.4142 23.6001 29.9428 23.6001 29 23.6001V19.6001Z" stroke="black" stroke-width="1.5"/>
<path d="M11 21.6001C11 17.8289 11 15.9432 12.1716 14.7717C13.3431 13.6001 15.2288 13.6001 19 13.6001H20.5C24.2712 13.6001 26.1569 13.6001 27.3284 14.7717C28.5 15.9432 28.5 17.8289 28.5 21.6001C28.5 25.3713 28.5 27.257 27.3284 28.4285C26.1569 29.6001 24.2712 29.6001 20.5 29.6001H19C15.2288 29.6001 13.3431 29.6001 12.1716 28.4285C11.5184 27.7753 11.2294 26.9002 11.1015 25.6001" stroke="black" stroke-width="1.5" stroke-linecap="round"/>
</svg>
