<svg width="42" height="43" viewBox="0 0 42 43" fill="none" xmlns="http://www.w3.org/2000/svg">
<circle cx="21" cy="21.6001" r="21" fill="url(#paint0_linear_551_84)"/>
<path d="M21 12.2668C15.8667 12.2668 11.6667 16.4668 11.6667 21.6002C11.6667 26.7335 15.8667 30.9335 21 30.9335C26.1334 30.9335 30.3334 26.7335 30.3334 21.6002C30.3334 16.4668 26.1334 12.2668 21 12.2668ZM21 28.6002C17.15 28.6002 14 25.4502 14 21.6002C14 17.7502 17.15 14.6002 21 14.6002C24.85 14.6002 28 17.7502 28 21.6002C28 25.4502 24.85 28.6002 21 28.6002Z" fill="url(#paint1_linear_551_84)"/>
<path d="M23.6834 17.2836L20.1834 20.7836C19.7167 21.2503 19.7167 21.9503 20.1834 22.4169C20.4167 22.6503 20.65 22.7669 21 22.7669C21.35 22.7669 21.5834 22.6503 21.8167 22.4169L25.3167 18.9169C25.7834 18.4503 25.7834 17.7503 25.3167 17.2836C24.85 16.8169 24.15 16.8169 23.6834 17.2836Z" fill="url(#paint2_linear_551_84)"/>
<path d="M18.6667 11.1002H23.3333C24.0333 11.1002 24.5 10.6335 24.5 9.93351C24.5 9.23351 24.0333 8.76685 23.3333 8.76685H18.6667C17.9667 8.76685 17.5 9.23351 17.5 9.93351C17.5 10.6335 17.9667 11.1002 18.6667 11.1002Z" fill="url(#paint3_linear_551_84)"/>
<defs>
<linearGradient id="paint0_linear_551_84" x1="21" y1="0.600098" x2="21" y2="42.6001" gradientUnits="userSpaceOnUse">
<stop stop-color="#372934"/>
<stop offset="1" stop-color="#372934" stop-opacity="0"/>
</linearGradient>
<linearGradient id="paint1_linear_551_84" x1="12.9267" y1="17.8202" x2="31.045" y2="26.3018" gradientUnits="userSpaceOnUse">
<stop stop-color="#B221BA"/>
<stop offset="1" stop-color="#F045CA"/>
</linearGradient>
<linearGradient id="paint2_linear_551_84" x1="13.9184" y1="15.7203" x2="32.025" y2="24.2019" gradientUnits="userSpaceOnUse">
<stop stop-color="#B221BA"/>
<stop offset="1" stop-color="#F045CA"/>
</linearGradient>
<linearGradient id="paint3_linear_551_84" x1="17.4067" y1="8.25351" x2="35.525" y2="16.7352" gradientUnits="userSpaceOnUse">
<stop stop-color="#B221BA"/>
<stop offset="1" stop-color="#F045CA"/>
</linearGradient>
</defs>
</svg>
