<svg width="42" height="43" viewBox="0 0 42 43" fill="none" xmlns="http://www.w3.org/2000/svg">
<circle cx="21" cy="21.6001" r="21" fill="white"/>
<path d="M21.321 24.7083V29.7499C21.321 30.8636 20.4166 31.7876 19.3338 31.5674C14.763 30.6382 11.321 26.566 11.321 21.6833C11.321 19.8295 11.8172 18.0926 12.6829 16.6001M25.6852 30.7582C29.0213 29.124 31.321 25.6744 31.321 21.6833C31.321 16.1145 26.8439 11.6001 21.321 11.6001C19.4996 11.6001 17.7919 12.0911 16.321 12.9491" stroke="black" stroke-width="1.5" stroke-linecap="round" stroke-linejoin="round"/>
<path d="M18.321 21.4001C18.321 20.9583 18.6792 20.6001 19.121 20.6001H23.521C23.9629 20.6001 24.321 20.9583 24.321 21.4001V21.6001C24.321 23.257 22.9779 24.6001 21.321 24.6001C19.6642 24.6001 18.321 23.257 18.321 21.6001V21.4001Z" stroke="black" stroke-width="1.5"/>
<path d="M22.821 20.6001V18.6001" stroke="black" stroke-width="1.5" stroke-linecap="round"/>
<path d="M19.821 20.6001V18.6001" stroke="black" stroke-width="1.5" stroke-linecap="round"/>
</svg>
