<svg width="42" height="43" viewBox="0 0 42 43" fill="none" xmlns="http://www.w3.org/2000/svg">
<circle cx="21" cy="21.6001" r="21" fill="white"/>
<path d="M22.5 16.6001H25.5L22.5 19.6001H25.5" stroke="black" stroke-width="1.5" stroke-linecap="round" stroke-linejoin="round"/>
<path d="M27 10.6001H31L27 14.6001H31" stroke="black" stroke-width="1.5" stroke-linecap="round" stroke-linejoin="round"/>
<path d="M30.0672 20.4569L29.4253 20.0691L30.0672 20.4569ZM21.1432 11.5329L20.7553 10.8909V10.8909L21.1432 11.5329ZM30.25 20.6001C30.25 25.7087 26.1086 29.8501 21 29.8501V31.3501C26.9371 31.3501 31.75 26.5372 31.75 20.6001H30.25ZM21 29.8501C15.8914 29.8501 11.75 25.7087 11.75 20.6001H10.25C10.25 26.5372 15.0629 31.3501 21 31.3501V29.8501ZM11.75 20.6001C11.75 15.4915 15.8914 11.3501 21 11.3501V9.8501C15.0629 9.8501 10.25 14.663 10.25 20.6001H11.75ZM24.5 22.8501C21.3244 22.8501 18.75 20.2757 18.75 17.1001H17.25C17.25 21.1042 20.4959 24.3501 24.5 24.3501V22.8501ZM29.4253 20.0691C28.4172 21.7374 26.5882 22.8501 24.5 22.8501V24.3501C27.1349 24.3501 29.4407 22.944 30.7092 20.8448L29.4253 20.0691ZM18.75 17.1001C18.75 15.0119 19.8627 13.1829 21.531 12.1748L20.7553 10.8909C18.6561 12.1594 17.25 14.4652 17.25 17.1001H18.75ZM21 11.3501C20.9115 11.3501 20.8077 11.3102 20.7324 11.2318C20.6686 11.1654 20.6538 11.1025 20.6503 11.0771C20.6461 11.046 20.6482 10.9557 20.7553 10.8909L21.531 12.1748C22.0342 11.8708 22.196 11.3141 22.1368 10.8764C22.0754 10.4214 21.7166 9.8501 21 9.8501V11.3501ZM30.7092 20.8448C30.6444 20.9519 30.5541 20.954 30.523 20.9498C30.4976 20.9463 30.4347 20.9315 30.3683 20.8677C30.2899 20.7924 30.25 20.6886 30.25 20.6001H31.75C31.75 19.8835 31.1787 19.5247 30.7237 19.4633C30.286 19.4041 29.7293 19.5659 29.4253 20.0691L30.7092 20.8448Z" fill="black"/>
</svg>
