<svg width="374" height="25" viewBox="0 0 374 25" fill="none" xmlns="http://www.w3.org/2000/svg">
<g clip-path="url(#clip0_507_840)">
<ellipse cx="362" cy="12.0313" rx="12" ry="12" transform="rotate(-90 362 12.0313)" fill="#E1E1E1"/>
<path d="M359 16.0052C359 17.1251 359 17.6851 359.227 17.9616C359.424 18.2019 359.721 18.3369 360.032 18.327C360.389 18.3155 360.811 17.9468 361.654 17.2093L365.624 13.7354C366.099 13.3196 366.337 13.1118 366.424 12.8655C366.501 12.6493 366.501 12.4132 366.424 12.197C366.337 11.9507 366.099 11.7429 365.624 11.3271L361.654 7.85315C360.811 7.11568 360.389 6.74695 360.032 6.73553C359.721 6.7256 359.424 6.86062 359.227 7.10088C359 7.3774 359 7.93736 359 9.05728L359 16.0052Z" fill="black"/>
<ellipse cx="12" cy="12.0312" rx="12" ry="12" transform="rotate(90 12 12.0312)" fill="#E1E1E1"/>
<path d="M15 9.05728C15 7.93736 15 7.3774 14.7732 7.10088C14.5762 6.86062 14.2786 6.7256 13.9681 6.73553C13.6106 6.74695 13.1892 7.11569 12.3464 7.85316L8.37614 11.3271C7.901 11.7429 7.66344 11.9507 7.5761 12.197C7.49942 12.4132 7.49942 12.6493 7.5761 12.8655C7.66344 13.1118 7.901 13.3196 8.37614 13.7354L12.3464 17.2093C13.1892 17.9468 13.6106 18.3155 13.9681 18.327C14.2786 18.3369 14.5762 18.2019 14.7732 17.9616C15 17.6851 15 17.1251 15 16.0052L15 9.05728Z" fill="black"/>
</g>
<defs>
<clipPath id="clip0_507_840">
<rect width="374" height="24" fill="white" transform="translate(0 0.03125)"/>
</clipPath>
</defs>
</svg>
