<svg width="43" height="27" viewBox="0 0 43 27" fill="none" xmlns="http://www.w3.org/2000/svg">
<rect x="0.699951" y="0.5" width="41" height="26" rx="6.5" fill="white" stroke="#9B9B9B"/>
<path d="M17.1337 16.8491V8.11377H20.4102C21.0821 8.11377 21.6454 8.23874 22.1018 8.48868C22.5582 8.73863 22.9042 9.08275 23.1378 9.51925C23.3715 9.95574 23.4892 10.452 23.4892 11.0062C23.4892 11.5605 23.3715 12.064 23.136 12.4986C22.9006 12.9333 22.551 13.2756 22.091 13.5238C21.6309 13.7719 21.0622 13.8969 20.3884 13.8969H18.2168V12.5964H20.1747C20.5678 12.5964 20.8883 12.5276 21.1383 12.3918C21.3882 12.2559 21.5748 12.0676 21.6943 11.8285C21.8157 11.5894 21.8754 11.3159 21.8754 11.0044C21.8754 10.6929 21.8157 10.4212 21.6943 10.1858C21.573 9.95031 21.3864 9.76557 21.1347 9.63335C20.8829 9.50114 20.5587 9.43593 20.1639 9.43593H18.7131V16.8509H17.1301L17.1337 16.8491Z" fill="#9B9B9B"/>
<path d="M26.5662 16.9814C26.1514 16.9814 25.7783 16.9072 25.4469 16.7568C25.1154 16.6083 24.8546 16.3874 24.6626 16.0939C24.4706 15.8005 24.3746 15.4401 24.3746 15.0109C24.3746 14.6414 24.4435 14.3353 24.5793 14.0944C24.7151 13.8535 24.9017 13.6597 25.139 13.5148C25.3744 13.3699 25.6407 13.2594 25.9395 13.1834C26.2365 13.1073 26.5444 13.053 26.8632 13.0186C27.2472 12.9787 27.5587 12.9425 27.7978 12.9099C28.0368 12.8773 28.2107 12.8266 28.3212 12.7559C28.4317 12.6853 28.486 12.5766 28.486 12.4299V12.4046C28.486 12.084 28.39 11.834 28.1999 11.6584C28.0097 11.4827 27.7344 11.3939 27.3758 11.3939C26.9972 11.3939 26.6984 11.4772 26.4774 11.6421C26.2565 11.8069 26.1079 12.0025 26.0319 12.2271L24.5902 12.0224C24.7043 11.6239 24.8908 11.2907 25.1534 11.0226C25.4143 10.7546 25.7348 10.5517 26.1134 10.4177C26.4919 10.2819 26.9103 10.2148 27.3667 10.2148C27.6819 10.2148 27.997 10.2511 28.3103 10.3253C28.6237 10.3996 28.9098 10.5209 29.167 10.6894C29.426 10.8578 29.6343 11.0878 29.7919 11.3776C29.9495 11.6674 30.0291 12.0296 30.0291 12.4661V16.851H28.544V15.9509H28.4933C28.3991 16.132 28.2687 16.3022 28.0984 16.4598C27.93 16.6174 27.7181 16.7442 27.4627 16.8402C27.2073 16.9361 26.9103 16.9832 26.5698 16.9832L26.5662 16.9814ZM26.9664 15.8476C27.2761 15.8476 27.546 15.786 27.7724 15.6629C28.0006 15.5397 28.1763 15.3749 28.2995 15.1702C28.4226 14.9656 28.4842 14.7428 28.4842 14.5001V13.7285C28.4353 13.7684 28.3538 13.8046 28.2397 13.839C28.1256 13.8734 27.9952 13.9024 27.8539 13.9296C27.7108 13.9549 27.5714 13.9785 27.4319 13.9984C27.2924 14.0183 27.1711 14.0364 27.0697 14.0491C26.8397 14.0799 26.6332 14.1324 26.4502 14.2031C26.2673 14.2737 26.1242 14.3733 26.0192 14.5001C25.9141 14.6269 25.8616 14.7899 25.8616 14.9891C25.8616 15.2735 25.9649 15.489 26.1731 15.6339C26.3814 15.7788 26.6459 15.8512 26.9664 15.8512V15.8476Z" fill="#9B9B9B"/>
<path d="M32.3042 19.3068C32.0941 19.3068 31.9003 19.2905 31.7228 19.2579C31.5453 19.2253 31.4041 19.1873 31.299 19.1456L31.6576 17.943C31.8822 18.0082 32.0833 18.039 32.2589 18.0372C32.4346 18.0336 32.5904 17.9792 32.7262 17.8724C32.8621 17.7655 32.9762 17.588 33.0703 17.3417L33.2026 16.9885L30.8263 10.2998H32.4636L33.9741 15.248H34.043L35.5571 10.2998H37.1998L34.5754 17.646C34.4523 17.9937 34.2911 18.2907 34.0882 18.5389C33.8854 18.787 33.6391 18.979 33.3475 19.1112C33.0559 19.2434 32.7081 19.3086 32.3042 19.3086V19.3068Z" fill="#9B9B9B"/>
<path d="M10.0449 17.3165C7.59071 17.3165 5.80851 15.6683 5.80851 13.3989C5.80851 12.5803 6.05845 11.3758 7.2484 10.2891L7.27194 10.2674L8.53072 11.5696C8.51623 11.5841 8.4963 11.6022 8.47095 11.6258C7.90586 12.1419 7.61969 12.7378 7.61969 13.3989C7.61969 14.6595 8.59411 15.5053 10.0449 15.5053C11.9267 15.5053 13.1438 14.1922 13.1438 12.1582C13.1438 10.5354 11.8651 8.81118 9.49608 8.81118C7.74104 8.81118 6.53479 10.0555 6.52393 10.0681L5.19995 8.82929C5.26878 8.75504 6.93325 7 9.49427 7C12.912 7 14.9532 9.62259 14.9532 12.1582C14.9532 15.1956 12.9337 17.3165 10.0431 17.3165H10.0449Z" fill="#9B9B9B"/>
</svg>
