<svg width="43" height="28" viewBox="0 0 43 28" fill="none" xmlns="http://www.w3.org/2000/svg">
<rect x="1.09998" y="1.45947" width="41" height="26" rx="6.5" fill="#1D1B1B" stroke="#9B9B9B"/>
<path d="M21.1975 14.3535V18.1885H19.9607V8.70422H23.1775C23.9607 8.70422 24.7025 8.99233 25.2807 9.52858C25.8582 10.0229 26.1469 10.7654 26.1469 11.5492C26.1469 12.3329 25.8588 13.0335 25.2807 13.5698C24.7032 14.106 24.0025 14.3941 23.1775 14.3941L21.1975 14.3535ZM21.1975 9.85858V13.1579H23.26C23.7138 13.1579 24.1675 12.9923 24.4563 12.6636C25.1163 12.0455 25.1163 11.0142 24.4969 10.3955L24.4563 10.3536C24.1263 10.0236 23.7138 9.81733 23.26 9.85922H21.1975V9.85858Z" fill="#9B9B9B"/>
<path d="M28.9919 11.5089C29.8994 11.5089 30.6 11.7558 31.1362 12.2514C31.6725 12.7458 31.9193 13.4058 31.9193 14.2308V18.1901H30.765V17.2826H30.7244C30.23 18.0251 29.5281 18.3964 28.7038 18.3964C28.0032 18.3964 27.3838 18.1901 26.8894 17.7783C26.4357 17.3658 26.1469 16.7883 26.1469 16.1702C26.1469 15.5102 26.3944 14.9752 26.8894 14.5621C27.3838 14.1496 28.0844 13.9846 28.91 13.9846C29.6525 13.9846 30.23 14.1083 30.6831 14.3971V14.1089C30.6831 13.6964 30.5188 13.2846 30.1888 13.0364C29.8588 12.7483 29.4463 12.5827 28.9925 12.5827C28.2919 12.5827 27.7557 12.8708 27.3844 13.4489L26.3119 12.7889C26.9713 11.9208 27.8375 11.5089 28.9919 11.5089ZM27.425 16.2095C27.425 16.5395 27.5894 16.8276 27.8375 16.9926C28.1256 17.1988 28.4556 17.3226 28.7856 17.3226C29.28 17.3226 29.7756 17.1163 30.1462 16.7457C30.5587 16.3738 30.7643 15.9214 30.7643 15.4257C30.3937 15.1376 29.8568 14.972 29.1562 14.972C28.6619 14.972 28.2487 15.0957 27.9194 15.3426C27.5894 15.5495 27.425 15.8382 27.425 16.2095Z" fill="#9B9B9B"/>
<path d="M38.6 11.7144L34.5182 21.0742H33.2801L34.8063 17.8168L32.1257 11.755H33.4457L35.3832 16.4143H35.4244L37.3213 11.755H38.6V11.7144Z" fill="#9B9B9B"/>
<path d="M16.2914 13.529C16.2914 13.1571 16.2495 12.7865 16.2089 12.4153H11.0546V14.5184H13.982C13.8583 15.1784 13.4877 15.7965 12.9095 16.1677V17.5283H14.6826C15.7132 16.5802 16.2914 15.1777 16.2914 13.529Z" fill="#9B9B9B"/>
<path d="M11.0534 18.848C12.5378 18.848 13.7746 18.3537 14.6828 17.528L12.9097 16.1674C12.4153 16.4974 11.7959 16.7037 11.0547 16.7037C9.65222 16.7037 8.41537 15.7555 8.00351 14.4355H6.18787V15.838C7.13597 17.6937 8.99222 18.848 11.0534 18.848Z" fill="#C8C8C8"/>
<path d="M8.00214 14.4365C7.75464 13.7765 7.75464 13.034 8.00214 12.3334V10.9309H6.18779C5.40404 12.4572 5.40404 14.2715 6.18779 15.8384L8.00214 14.4365Z" fill="#9B9B9B"/>
<path d="M11.0532 10.1061C11.8369 10.1061 12.5794 10.3942 13.1563 10.9305L14.7238 9.36364C13.7338 8.45678 12.4144 7.92053 11.0944 7.96114C9.03195 7.96114 7.13638 9.11549 6.22888 10.9717L8.04324 12.373C8.41449 11.0549 9.65134 10.1061 11.0532 10.1061Z" fill="#C8C8C8"/>
</svg>
