<svg width="43" height="28" viewBox="0 0 43 28" fill="none" xmlns="http://www.w3.org/2000/svg">
<rect x="0.699951" y="1.45947" width="41" height="26" rx="6.5" fill="#1D1B1B" stroke="#9B9B9B"/>
<path d="M17.1338 17.8086V9.07324H20.4102C21.0822 9.07324 21.6455 9.19821 22.1019 9.44816C22.5583 9.6981 22.9042 10.0422 23.1379 10.4787C23.3715 10.9152 23.4893 11.4115 23.4893 11.9657C23.4893 12.5199 23.3715 13.0234 23.1361 13.4581C22.9006 13.8928 22.5511 14.2351 22.091 14.4832C21.631 14.7314 21.0623 14.8563 20.3885 14.8563H18.2169V13.5559H20.1748C20.5678 13.5559 20.8884 13.4871 21.1383 13.3513C21.3883 13.2154 21.5748 13.0271 21.6944 12.788C21.8157 12.5489 21.8755 12.2754 21.8755 11.9639C21.8755 11.6524 21.8157 11.3807 21.6944 11.1452C21.573 10.9098 21.3865 10.725 21.1347 10.5928C20.883 10.4606 20.5588 10.3954 20.1639 10.3954H18.7132V17.8104H17.1302L17.1338 17.8086Z" fill="#9B9B9B"/>
<path d="M26.5663 17.9411C26.1515 17.9411 25.7784 17.8669 25.447 17.7166C25.1155 17.568 24.8547 17.3471 24.6627 17.0537C24.4707 16.7602 24.3748 16.3998 24.3748 15.9706C24.3748 15.6011 24.4436 15.295 24.5794 15.0541C24.7153 14.8132 24.9018 14.6194 25.1391 14.4745C25.3745 14.3296 25.6408 14.2192 25.9396 14.1431C26.2367 14.067 26.5446 14.0127 26.8633 13.9783C27.2473 13.9384 27.5588 13.9022 27.7979 13.8696C28.037 13.837 28.2108 13.7863 28.3213 13.7157C28.4318 13.645 28.4861 13.5363 28.4861 13.3896V13.3643C28.4861 13.0437 28.3901 12.7938 28.2 12.6181C28.0098 12.4424 27.7345 12.3536 27.3759 12.3536C26.9973 12.3536 26.6985 12.437 26.4775 12.6018C26.2566 12.7666 26.1081 12.9622 26.032 13.1868L24.5903 12.9821C24.7044 12.5837 24.8909 12.2504 25.1536 11.9823C25.4144 11.7143 25.735 11.5114 26.1135 11.3774C26.492 11.2416 26.9104 11.1746 27.3668 11.1746C27.682 11.1746 27.9971 11.2108 28.3105 11.285C28.6238 11.3593 28.91 11.4807 29.1671 11.6491C29.4261 11.8175 29.6344 12.0476 29.792 12.3373C29.9496 12.6271 30.0293 12.9894 30.0293 13.4259V17.8107H28.5441V16.9106H28.4934C28.3992 17.0917 28.2688 17.2619 28.0985 17.4195C27.9301 17.5771 27.7182 17.7039 27.4628 17.7999C27.2074 17.8959 26.9104 17.943 26.5699 17.943L26.5663 17.9411ZM26.9666 16.8073C27.2763 16.8073 27.5461 16.7458 27.7725 16.6226C28.0007 16.4994 28.1764 16.3346 28.2996 16.13C28.4227 15.9253 28.4843 15.7025 28.4843 15.4598V14.6883C28.4354 14.7281 28.3539 14.7643 28.2398 14.7987C28.1257 14.8331 27.9953 14.8621 27.854 14.8893C27.711 14.9147 27.5715 14.9382 27.432 14.9581C27.2926 14.978 27.1712 14.9962 27.0698 15.0088C26.8398 15.0396 26.6333 15.0921 26.4504 15.1628C26.2674 15.2334 26.1244 15.333 26.0193 15.4598C25.9143 15.5866 25.8617 15.7496 25.8617 15.9488C25.8617 16.2332 25.965 16.4487 26.1733 16.5936C26.3815 16.7385 26.646 16.811 26.9666 16.811V16.8073Z" fill="#9B9B9B"/>
<path d="M32.3042 20.2664C32.0941 20.2664 31.9003 20.2501 31.7228 20.2175C31.5453 20.1849 31.4041 20.1469 31.299 20.1052L31.6576 18.9026C31.8822 18.9678 32.0833 18.9986 32.2589 18.9968C32.4346 18.9932 32.5904 18.9388 32.7262 18.832C32.8621 18.7251 32.9762 18.5476 33.0703 18.3013L33.2026 17.9481L30.8263 11.2594H32.4636L33.9741 16.2076H34.043L35.5571 11.2594H37.1998L34.5754 18.6056C34.4523 18.9533 34.2911 19.2503 34.0882 19.4985C33.8854 19.7466 33.6391 19.9386 33.3475 20.0708C33.0559 20.203 32.7081 20.2682 32.3042 20.2682V20.2664Z" fill="#9B9B9B"/>
<path d="M10.0449 18.276C7.59071 18.276 5.80851 16.6278 5.80851 14.3584C5.80851 13.5397 6.05845 12.3353 7.2484 11.2486L7.27194 11.2268L8.53072 12.5291C8.51623 12.5436 8.4963 12.5617 8.47095 12.5852C7.90586 13.1014 7.61969 13.6973 7.61969 14.3584C7.61969 15.619 8.59411 16.4648 10.0449 16.4648C11.9267 16.4648 13.1438 15.1517 13.1438 13.1177C13.1438 11.4949 11.8651 9.77066 9.49608 9.77066C7.74104 9.77066 6.53479 11.0149 6.52393 11.0276L5.19995 9.78877C5.26878 9.71451 6.93325 7.95947 9.49427 7.95947C12.912 7.95947 14.9532 10.5821 14.9532 13.1177C14.9532 16.1551 12.9337 18.276 10.0431 18.276H10.0449Z" fill="#9B9B9B"/>
</svg>
