<svg width="43" height="27" viewBox="0 0 43 27" fill="none" xmlns="http://www.w3.org/2000/svg">
<rect x="1.09998" y="0.5" width="41" height="26" rx="6.5" fill="#1D1B1B" stroke="#9B9B9B"/>
<path d="M21.1975 13.3939V17.2289H19.9607V7.74463H23.1775C23.9607 7.74463 24.7025 8.03273 25.2807 8.56898C25.8582 9.06334 26.1469 9.80584 26.1469 10.5896C26.1469 11.3733 25.8588 12.0739 25.2807 12.6102C24.7032 13.1464 24.0025 13.4345 23.1775 13.4345L21.1975 13.3939ZM21.1975 8.89898V12.1983H23.26C23.7138 12.1983 24.1675 12.0327 24.4563 11.704C25.1163 11.0859 25.1163 10.0546 24.4969 9.43588L24.4563 9.39398C24.1263 9.06398 23.7138 8.85773 23.26 8.89963H21.1975V8.89898Z" fill="#9B9B9B"/>
<path d="M28.9919 10.5493C29.8994 10.5493 30.6 10.7962 31.1362 11.2918C31.6725 11.7862 31.9193 12.4462 31.9193 13.2712V17.2305H30.765V16.323H30.7244C30.23 17.0655 29.5281 17.4368 28.7038 17.4368C28.0032 17.4368 27.3838 17.2305 26.8894 16.8187C26.4357 16.4062 26.1469 15.8287 26.1469 15.2106C26.1469 14.5506 26.3944 14.0156 26.8894 13.6025C27.3838 13.19 28.0844 13.025 28.91 13.025C29.6525 13.025 30.23 13.1487 30.6831 13.4375V13.1494C30.6831 12.7369 30.5188 12.325 30.1888 12.0769C29.8588 11.7887 29.4463 11.6231 28.9925 11.6231C28.2919 11.6231 27.7557 11.9112 27.3844 12.4894L26.3119 11.8294C26.9713 10.9612 27.8375 10.5493 28.9919 10.5493ZM27.425 15.2499C27.425 15.5799 27.5894 15.868 27.8375 16.033C28.1256 16.2392 28.4556 16.363 28.7856 16.363C29.28 16.363 29.7756 16.1567 30.1462 15.7861C30.5587 15.4142 30.7643 14.9618 30.7643 14.4661C30.3937 14.178 29.8568 14.0124 29.1562 14.0124C28.6619 14.0124 28.2487 14.1361 27.9194 14.383C27.5894 14.5899 27.425 14.8786 27.425 15.2499Z" fill="#9B9B9B"/>
<path d="M38.6 10.7549L34.5182 20.1148H33.2801L34.8063 16.8573L32.1257 10.7955H33.4457L35.3832 15.4548H35.4244L37.3213 10.7955H38.6V10.7549Z" fill="#9B9B9B"/>
<path d="M16.2914 12.5698C16.2914 12.1979 16.2495 11.8273 16.2089 11.4561H11.0546V13.5592H13.982C13.8583 14.2192 13.4877 14.8373 12.9095 15.2085V16.5691H14.6826C15.7132 15.621 16.2914 14.2185 16.2914 12.5698Z" fill="#9B9B9B"/>
<path d="M11.0534 17.8885C12.5378 17.8885 13.7746 17.3942 14.6828 16.5685L12.9097 15.2079C12.4153 15.5379 11.7959 15.7442 11.0547 15.7442C9.65222 15.7442 8.41537 14.7961 8.00351 13.4761H6.18787V14.8786C7.13597 16.7342 8.99222 17.8885 11.0534 17.8885Z" fill="#C8C8C8"/>
<path d="M8.00214 13.4768C7.75464 12.8168 7.75464 12.0743 8.00214 11.3737V9.97119H6.18779C5.40404 11.4974 5.40404 13.3118 6.18779 14.8787L8.00214 13.4768Z" fill="#9B9B9B"/>
<path d="M11.0532 9.14666C11.8369 9.14666 12.5794 9.43477 13.1563 9.97102L14.7238 8.40416C13.7338 7.49731 12.4144 6.96106 11.0944 7.00166C9.03195 7.00166 7.13638 8.15602 6.22888 10.0123L8.04324 11.4135C8.41449 10.0954 9.65134 9.14666 11.0532 9.14666Z" fill="#C8C8C8"/>
</svg>
