<svg width="90" height="91" viewBox="0 0 90 91" fill="none" xmlns="http://www.w3.org/2000/svg">
<circle cx="45" cy="45.8892" r="43" fill="#E9E9E9" stroke="#272727" stroke-width="4"/>
<path d="M34.8688 28.5586L61.5188 44.5523C61.7491 44.6914 61.9396 44.8876 62.0718 45.1219C62.204 45.3563 62.2735 45.6208 62.2735 45.8898C62.2735 46.1589 62.204 46.4234 62.0718 46.6577C61.9396 46.892 61.7491 47.0882 61.5188 47.2273L34.8688 63.2211C34.6318 63.3638 34.3611 63.4411 34.0845 63.445C33.8079 63.4489 33.5352 63.3793 33.2943 63.2432C33.0534 63.1072 32.8529 62.9096 32.7133 62.6708C32.5738 62.4319 32.5002 62.1602 32.5 61.8836V29.9023C32.4991 29.6251 32.5719 29.3527 32.711 29.1129C32.8501 28.8731 33.0504 28.6747 33.2915 28.5379C33.5326 28.4012 33.8058 28.331 34.0829 28.3346C34.3601 28.3382 34.6313 28.4155 34.8688 28.5586Z" fill="#272727"/>
</svg>
