<svg width="50" height="26" viewBox="0 0 50 26" fill="none" xmlns="http://www.w3.org/2000/svg">
<path fill-rule="evenodd" clip-rule="evenodd" d="M31.3266 17.0399C31.0279 17.0399 30.5683 17.0169 30.17 16.9403V12.1915C30.553 12.0154 31.0509 11.9158 31.6483 11.9158C33.1036 11.9158 34.0839 12.8119 34.0839 14.3898C34.0839 16.0825 33.027 17.0475 31.3343 17.0475M31.8551 9.80948C31.2347 9.80948 30.576 9.88608 30.1777 10.0852V5.97217H27.7803V18.679C28.8373 18.9547 30.216 19.1002 31.4108 19.1002C34.4822 19.1002 36.5196 17.4611 36.5196 14.474C36.5196 11.6401 34.6201 9.80948 31.8474 9.80948M41.3373 9.74055C38.9936 9.74055 37.477 10.6061 37.477 13.3021V18.9624H39.9203V13.463C39.9203 12.4519 40.4642 11.9235 41.5135 11.9235C42.1032 11.9235 42.7083 12 43.2138 12.1609V9.9014C42.5934 9.80182 41.9654 9.74821 41.3373 9.74055Z" fill="black"/>
<path fill-rule="evenodd" clip-rule="evenodd" d="M48.3226 17.0168C47.2809 17.0168 46.7448 16.496 46.7448 15.5003V11.9847H49.8928V9.99324H46.7448V6.67676H44.3321V15.6688C44.3321 18.3189 45.8257 19.1844 48.1464 19.1844C48.7209 19.1844 49.3643 19.1231 50 19.0236V16.7947C49.5021 16.9556 48.9047 17.0321 48.3226 17.0321" fill="black"/>
<path fill-rule="evenodd" clip-rule="evenodd" d="M10.5162 0.648926C10.3784 0.648926 10.2405 0.679563 10.1333 0.733178L0.528493 5.97215L11.2822 12.2375C11.3817 12.2911 11.4583 12.4213 11.4583 12.5362V21.6661C11.4583 21.781 11.3741 21.9112 11.2745 21.9648L10.6924 22.2865C10.6464 22.3095 10.5852 22.3248 10.5162 22.3248H10.5009C10.432 22.3248 10.363 22.3171 10.3171 22.2865L9.73499 21.9648C9.63542 21.9112 9.55882 21.781 9.55882 21.6661V13.5242C9.55882 13.463 9.51287 13.394 9.45925 13.3634L0 7.84868V18.6483C0 18.8934 0.168505 19.1845 0.382966 19.307L10.1409 25.0592C10.2482 25.1204 10.3784 25.1511 10.5162 25.1511C10.6541 25.1511 10.792 25.1204 10.8915 25.0592L20.6495 19.307C20.8563 19.1845 21.0248 18.8857 21.0248 18.6483V7.84868L14.6063 11.5864C14.5067 11.6477 14.3536 11.64 14.254 11.5864L13.6872 11.2494C13.6412 11.2188 13.5953 11.1728 13.5646 11.1192C13.5263 11.0503 13.511 10.989 13.5034 10.9277L13.488 10.2614C13.488 10.1465 13.557 10.0163 13.6566 9.95499L20.4963 5.97215L10.8992 0.733178C10.792 0.671904 10.6541 0.648926 10.5162 0.648926Z" fill="url(#paint0_linear_551_4454)"/>
<defs>
<linearGradient id="paint0_linear_551_4454" x1="3.66421" y1="21.4516" x2="12.5906" y2="13.9987" gradientUnits="userSpaceOnUse">
<stop stop-color="#A80034"/>
<stop offset="1" stop-color="#DB0031"/>
</linearGradient>
</defs>
</svg>
