<svg width="71" height="23" viewBox="0 0 71 23" fill="none" xmlns="http://www.w3.org/2000/svg">
<path d="M70.9997 0.327148V15.9956H0V0.327148H70.9997Z" fill="#FFCC00"/>
<path d="M12.4861 3.14062L10.2177 6.22244H22.5806C23.2055 6.22244 23.1973 6.45988 22.8918 6.87366C22.5816 7.29371 22.0625 8.02421 21.7465 8.45089C21.5862 8.66742 21.2963 9.06192 22.257 9.06192H27.3126C27.3126 9.06192 28.1275 7.95307 28.8105 7.02595C29.7398 5.76495 28.8911 3.14075 25.569 3.14075L12.4861 3.14062Z" fill="#D2002E"/>
<path d="M9.29979 13.1808L13.856 6.99001H19.5099C20.1348 6.99001 20.1267 7.22746 19.8212 7.64124C19.511 8.06128 18.9834 8.78402 18.6674 9.2107C18.507 9.42723 18.2172 9.82235 19.1778 9.82235H26.7523C26.1224 10.6854 24.079 13.1807 20.41 13.1807L9.29979 13.1808ZM35.3934 9.8216L32.9226 13.1806H26.405C26.405 13.1806 28.8744 9.82235 28.8766 9.82235L35.3934 9.8216ZM45.3779 9.06192H29.4365L33.7958 3.14062H40.3115L37.8128 6.5359H40.7212L43.2209 3.14062H49.7358L45.3779 9.06192ZM44.8184 9.82247L42.3465 13.1808H35.8313C35.8313 13.1808 38.3007 9.82247 38.3028 9.82247H44.8184ZM0 11.1467H9.6016L9.07712 11.8602H0V11.1467ZM0 9.82247H10.5771L10.0516 10.5349H0V9.82247ZM0 12.4717H8.62664L8.10466 13.1808H0V12.4717ZM71 11.8602H61.4353L61.9603 11.1468H71V11.8602ZM71 13.1808L60.463 13.1818L60.985 12.4717H71V13.1808ZM62.9345 9.82247H71V10.5353L62.4101 10.5359L62.9345 9.82247ZM58.7592 3.14062L54.4006 9.06179H47.4964C47.4964 9.06179 51.8562 3.14062 51.8584 3.14062H58.7592ZM46.9378 9.82247C46.9378 9.82247 46.4615 10.4733 46.2303 10.7862C45.4119 11.8923 46.1354 13.1808 48.806 13.1808H59.2699L61.7415 9.82247H46.9378Z" fill="#D2002E"/>
<path d="M0 18.543H71V18.8979H0V18.543ZM0 20.1992H71V20.5541H0V20.1992ZM0 21.8551H71V22.21H0V21.8551Z" fill="#FFCC00"/>
<path d="M23.8413 22.2099H25.9781L26.3191 21.7476H24.729L25.6207 20.5394H27.0688L27.4099 20.077H25.9618L26.7525 19.0055H28.3428L28.6839 18.5431H26.5473L23.8413 22.2099ZM26.4636 22.2099H27.1194L29.3545 20.655L29.3325 22.2099H30.0211L30.0262 20.2925L32.6013 18.5431H31.9784L29.9285 19.951L29.951 18.5431H29.2952L29.2753 20.303L26.4636 22.2099ZM33.4285 19.0055H33.893C34.2319 19.0055 34.6105 19.1735 34.2693 19.6358C33.9127 20.1189 33.3663 20.2819 33.0274 20.2819H32.4864L33.4285 19.0055ZM30.5173 22.2099H31.0637L32.1452 20.7443H32.6807C33.3693 20.7443 34.2437 20.4553 34.8446 19.6409C35.461 18.8056 35.0045 18.5428 34.2231 18.5428H33.2231L30.5173 22.2099ZM33.6641 22.2099H34.2106L35.4124 20.5813H35.7401C36.0297 20.5813 36.2103 20.5813 36.1161 20.9385L35.7627 22.2099H36.3857L36.7421 20.7494C36.7886 20.5236 36.7649 20.4448 36.6418 20.3816L36.6496 20.371C37.1466 20.2974 37.7234 19.9823 38.053 19.5357C38.7003 18.6586 38.0589 18.5428 37.3046 18.5428H36.3702L33.6641 22.2099ZM36.5754 19.0055H37.0999C37.6029 19.0055 37.71 19.2156 37.4659 19.5464C37.2061 19.8985 36.7372 20.1189 36.218 20.1189H35.7535L36.5754 19.0055ZM36.9515 22.2099H39.0883L39.4292 21.7476H37.8392L38.7308 20.5394H40.179L40.5199 20.077H39.0719L39.8626 19.0055H41.4529L41.7942 18.5431H39.6575L36.9515 22.2099ZM44.4262 18.6114C44.2299 18.5221 43.9601 18.48 43.7088 18.48C43.0202 18.48 42.2289 18.8269 41.7481 19.4782C40.9069 20.6183 42.713 20.3923 42.1081 21.2119C41.7903 21.6424 41.229 21.8108 40.9176 21.8108C40.6387 21.8108 40.3885 21.7056 40.257 21.6319L39.842 22.1206C40.0352 22.1994 40.2434 22.273 40.5111 22.273C41.2761 22.273 42.1333 21.9627 42.7109 21.1799C43.6024 19.9719 41.8428 20.1345 42.3624 19.4308C42.6455 19.0473 43.0837 18.9422 43.3897 18.9422C43.674 18.9422 43.7918 18.9897 43.9929 19.0946L44.4262 18.6114ZM47.1587 18.6114C46.9623 18.5221 46.6926 18.48 46.4412 18.48C45.7526 18.48 44.9613 18.8269 44.4805 19.4782C43.6393 20.6183 45.4454 20.3923 44.8405 21.2119C44.5228 21.6424 43.9614 21.8108 43.65 21.8108C43.3711 21.8108 43.1208 21.7056 42.9895 21.6319L42.5744 22.1206C42.7676 22.1994 42.9758 22.273 43.2434 22.273C44.0085 22.273 44.8656 21.9627 45.4432 21.1799C46.3348 19.9719 44.5753 20.1345 45.0948 19.4308C45.3778 19.0473 45.8161 18.9422 46.1221 18.9422C46.4064 18.9422 46.5245 18.9897 46.7253 19.0946L47.1587 18.6114Z" fill="#D2002E"/>
</svg>
