<svg width="90" height="91" viewBox="0 0 90 91" fill="none" xmlns="http://www.w3.org/2000/svg">
<circle cx="45" cy="45.5532" r="43" fill="#E9E9E9" stroke="#272727" stroke-width="4"/>
<path d="M34.8688 28.2226L61.5188 44.2163C61.7491 44.3554 61.9396 44.5516 62.0718 44.7859C62.204 45.0203 62.2735 45.2848 62.2735 45.5538C62.2735 45.8229 62.204 46.0874 62.0718 46.3217C61.9396 46.556 61.7491 46.7522 61.5188 46.8913L34.8688 62.8851C34.6318 63.0278 34.3611 63.1051 34.0845 63.109C33.8079 63.1129 33.5352 63.0433 33.2943 62.9072C33.0534 62.7712 32.8529 62.5737 32.7133 62.3348C32.5738 62.0959 32.5002 61.8242 32.5 61.5476V29.5663C32.4991 29.2891 32.5719 29.0167 32.711 28.7769C32.8501 28.5371 33.0504 28.3387 33.2915 28.2019C33.5326 28.0652 33.8058 27.995 34.0829 27.9986C34.3601 28.0022 34.6313 28.0795 34.8688 28.2226Z" fill="#272727"/>
</svg>
