<svg width="90" height="91" viewBox="0 0 90 91" fill="none" xmlns="http://www.w3.org/2000/svg">
<circle cx="45" cy="45.3516" r="43" fill="#E9E9E9" stroke="#272727" stroke-width="4"/>
<path d="M34.8688 28.021L61.5188 44.0147C61.7491 44.1538 61.9396 44.35 62.0718 44.5843C62.204 44.8187 62.2735 45.0832 62.2735 45.3522C62.2735 45.6213 62.204 45.8858 62.0718 46.1201C61.9396 46.3544 61.7491 46.5506 61.5188 46.6897L34.8688 62.6835C34.6318 62.8262 34.3611 62.9035 34.0845 62.9074C33.8079 62.9113 33.5352 62.8417 33.2943 62.7056C33.0534 62.5696 32.8529 62.3721 32.7133 62.1332C32.5738 61.8943 32.5002 61.6226 32.5 61.346V29.3647C32.4991 29.0875 32.5719 28.8151 32.711 28.5753C32.8501 28.3355 33.0504 28.1371 33.2915 28.0003C33.5326 27.8636 33.8058 27.7934 34.0829 27.797C34.3601 27.8006 34.6313 27.8779 34.8688 28.021Z" fill="#272727"/>
</svg>
