<svg width="50" height="25" viewBox="0 0 50 25" fill="none" xmlns="http://www.w3.org/2000/svg">
<path fill-rule="evenodd" clip-rule="evenodd" d="M31.3266 16.4398C31.0279 16.4398 30.5683 16.4168 30.17 16.3402V11.5914C30.553 11.4153 31.0509 11.3157 31.6483 11.3157C33.1036 11.3157 34.0839 12.2118 34.0839 13.7897C34.0839 15.4824 33.027 16.4474 31.3343 16.4474M31.8551 9.20939C31.2347 9.20939 30.576 9.28598 30.1777 9.48512V5.37207H27.7803V18.0789C28.8373 18.3546 30.216 18.5001 31.4108 18.5001C34.4822 18.5001 36.5196 16.861 36.5196 13.8739C36.5196 11.04 34.6201 9.20939 31.8474 9.20939M41.3373 9.14045C38.9936 9.14045 37.477 10.006 37.477 12.702V18.3623H39.9203V12.8629C39.9203 11.8518 40.4642 11.3234 41.5135 11.3234C42.1032 11.3234 42.7083 11.3999 43.2138 11.5608V9.3013C42.5934 9.20173 41.9654 9.14811 41.3373 9.14045Z" fill="black"/>
<path fill-rule="evenodd" clip-rule="evenodd" d="M48.3226 16.4167C47.2809 16.4167 46.7448 15.8959 46.7448 14.9002V11.3846H49.8928V9.39314H46.7448V6.07666H44.3321V15.0687C44.3321 17.7188 45.8257 18.5843 48.1464 18.5843C48.7209 18.5843 49.3643 18.523 50 18.4235V16.1946C49.5021 16.3555 48.9047 16.432 48.3226 16.432" fill="black"/>
<path fill-rule="evenodd" clip-rule="evenodd" d="M10.5162 0.0488281C10.3784 0.0488281 10.2405 0.0794654 10.1333 0.133081L0.528493 5.37205L11.2822 11.6374C11.3817 11.691 11.4583 11.8212 11.4583 11.9361V21.066C11.4583 21.1809 11.3741 21.3111 11.2745 21.3647L10.6924 21.6864C10.6464 21.7094 10.5852 21.7247 10.5162 21.7247H10.5009C10.432 21.7247 10.363 21.717 10.3171 21.6864L9.73499 21.3647C9.63542 21.3111 9.55882 21.1809 9.55882 21.066V12.9241C9.55882 12.8629 9.51287 12.7939 9.45925 12.7633L0 7.24858V18.0482C0 18.2933 0.168505 18.5844 0.382966 18.7069L10.1409 24.4591C10.2482 24.5203 10.3784 24.551 10.5162 24.551C10.6541 24.551 10.792 24.5203 10.8915 24.4591L20.6495 18.7069C20.8563 18.5844 21.0248 18.2857 21.0248 18.0482V7.24858L14.6063 10.9863C14.5067 11.0476 14.3536 11.0399 14.254 10.9863L13.6872 10.6493C13.6412 10.6187 13.5953 10.5727 13.5646 10.5191C13.5263 10.4502 13.511 10.3889 13.5034 10.3276L13.488 9.66127C13.488 9.54638 13.557 9.41617 13.6566 9.35489L20.4963 5.37205L10.8992 0.133081C10.792 0.0718061 10.6541 0.0488281 10.5162 0.0488281Z" fill="url(#paint0_linear_551_4434)"/>
<defs>
<linearGradient id="paint0_linear_551_4434" x1="3.66421" y1="20.8515" x2="12.5906" y2="13.3986" gradientUnits="userSpaceOnUse">
<stop stop-color="#A80034"/>
<stop offset="1" stop-color="#DB0031"/>
</linearGradient>
</defs>
</svg>
