<svg width="90" height="91" viewBox="0 0 90 91" fill="none" xmlns="http://www.w3.org/2000/svg">
<circle cx="45" cy="45.3892" r="43" fill="#E9E9E9" stroke="#272727" stroke-width="4"/>
<path d="M34.8688 28.0586L61.5188 44.0523C61.7491 44.1914 61.9396 44.3876 62.0718 44.6219C62.204 44.8563 62.2735 45.1208 62.2735 45.3898C62.2735 45.6589 62.204 45.9234 62.0718 46.1577C61.9396 46.392 61.7491 46.5882 61.5188 46.7273L34.8688 62.7211C34.6318 62.8638 34.3611 62.9411 34.0845 62.945C33.8079 62.9489 33.5352 62.8793 33.2943 62.7432C33.0534 62.6072 32.8529 62.4096 32.7133 62.1708C32.5738 61.9319 32.5002 61.6602 32.5 61.3836V29.4023C32.4991 29.1251 32.5719 28.8527 32.711 28.6129C32.8501 28.3731 33.0504 28.1747 33.2915 28.0379C33.5326 27.9012 33.8058 27.831 34.0829 27.8346C34.3601 27.8382 34.6313 27.9155 34.8688 28.0586Z" fill="#272727"/>
</svg>
