<svg width="29" height="36" viewBox="0 0 29 36" fill="none" xmlns="http://www.w3.org/2000/svg">
<path d="M14.5 34.8324C14.7944 34.6852 22.4493 31.373 24.8782 29.3857C27.3807 27.3248 28.7056 24.3806 28.7056 20.8476V4.28668L28.4848 4.21308C22.3757 0.900897 14.7944 1.12171 14.4264 1.12171C14.132 1.12171 6.55078 0.900897 0.441642 4.21308L0.294434 4.28668V20.9212C0.294434 24.4542 1.61931 27.3984 4.12184 29.4593C6.55078 31.4466 14.2056 34.7588 14.5 34.8324Z" fill="#341B14"/>
<path d="M14.5 35.2002C14.5 35.2002 6.40355 31.6672 3.90102 29.6799C1.25127 27.4718 0 24.454 0 20.9947V3.7713C6.40355 0.311911 14.5 0.606327 14.5 0.606327C14.5 0.606327 22.5964 0.311911 29 3.7713V20.921C29 24.3804 27.7487 27.3982 25.099 29.6063C22.5964 31.6672 14.5 35.2002 14.5 35.2002ZM1.17766 20.9947C1.17766 24.2332 2.35533 26.883 4.63706 28.7231C6.69797 30.416 12.8071 33.1393 14.5 33.8754C16.1929 33.1393 22.3756 30.3424 24.3629 28.7231C26.6447 26.883 27.8223 24.1596 27.8223 20.9947V4.06572C19.2843 3.25607 9.1269 3.6977 1.17766 11.0581V20.9947Z" fill="#FFB406"/>
<path d="M22.6701 18.5655C23.7741 19.228 24.2158 19.6696 24.2894 20.4792C24.2894 21.3625 23.7005 21.8777 22.7437 21.8777C21.934 21.8777 20.9772 21.4361 20.3147 20.8472V23.2026C21.1244 23.6442 22.0812 24.0122 23.1117 24.0122C25.6142 24.0122 26.7919 22.2457 26.7919 20.6264C26.8655 19.1544 26.4239 17.9767 24.2894 16.7254C23.3325 16.1366 22.5965 15.7686 22.5965 14.8853C22.5965 14.0021 23.4061 13.6341 24.0685 13.6341C24.9518 13.6341 25.835 14.1493 26.3503 14.6645V12.4564C25.9086 12.0884 24.9518 11.5731 23.5533 11.6467C21.8604 11.7203 20.0939 12.898 20.0939 14.9589C20.1675 16.3574 20.6092 17.3879 22.6701 18.5655ZM13.9848 23.865C14.2056 23.9386 14.5736 24.0122 15.1625 24.0122C18.033 24.0122 19.6523 21.4361 19.6523 17.7559C19.6523 14.0021 17.9594 11.7203 14.9416 11.7203C13.5432 11.7203 12.4391 12.0148 11.4823 12.6036V29.2381H13.9848V23.865ZM13.9848 13.8549C14.2056 13.7813 14.5736 13.6341 14.868 13.6341C16.3401 13.6341 16.929 14.8117 16.929 17.6823C16.929 20.4792 16.1929 21.8041 14.7208 21.8041C14.3528 21.8041 14.0584 21.7305 13.9112 21.6569V13.8549H13.9848ZM6.25637 24.0122C7.80205 24.0122 9.12692 23.6442 10.0838 22.9818V11.8676H7.50763V21.5097C7.21322 21.7305 6.8452 21.8041 6.32997 21.8041C5.1523 21.8041 5.0051 20.7 5.0051 20.0376V11.8676H2.42896V19.8904C2.42896 22.6137 3.75383 24.0122 6.25637 24.0122Z" fill="#FFB406"/>
</svg>
