<svg width="90" height="91" viewBox="0 0 90 91" fill="none" xmlns="http://www.w3.org/2000/svg">
<circle cx="45" cy="45.9731" r="43" fill="#E9E9E9" stroke="#272727" stroke-width="4"/>
<path d="M34.8688 28.6425L61.5188 44.6363C61.7491 44.7754 61.9396 44.9716 62.0718 45.2059C62.204 45.4402 62.2735 45.7047 62.2735 45.9738C62.2735 46.2428 62.204 46.5073 62.0718 46.7417C61.9396 46.976 61.7491 47.1722 61.5188 47.3113L34.8688 63.305C34.6318 63.4478 34.3611 63.5251 34.0845 63.529C33.8079 63.5329 33.5352 63.4632 33.2943 63.3272C33.0534 63.1912 32.8529 62.9936 32.7133 62.7547C32.5738 62.5159 32.5002 62.2442 32.5 61.9675V29.9863C32.4991 29.7091 32.5719 29.4367 32.711 29.1969C32.8501 28.9571 33.0504 28.7587 33.2915 28.6219C33.5326 28.4851 33.8058 28.415 34.0829 28.4186C34.3601 28.4222 34.6313 28.4995 34.8688 28.6425Z" fill="#272727"/>
</svg>
