<svg width="71" height="23" viewBox="0 0 71 23" fill="none" xmlns="http://www.w3.org/2000/svg">
<path d="M70.9997 0.927246V16.5957H0V0.927246H70.9997Z" fill="#FFCC00"/>
<path d="M12.4861 3.74072L10.2177 6.82253H22.5806C23.2055 6.82253 23.1973 7.05998 22.8918 7.47376C22.5816 7.8938 22.0625 8.62431 21.7465 9.05099C21.5862 9.26752 21.2963 9.66201 22.257 9.66201H27.3126C27.3126 9.66201 28.1275 8.55317 28.8105 7.62605C29.7398 6.36505 28.8911 3.74085 25.569 3.74085L12.4861 3.74072Z" fill="#D2002E"/>
<path d="M9.29979 13.7809L13.856 7.59011H19.5099C20.1348 7.59011 20.1267 7.82755 19.8212 8.24133C19.511 8.66138 18.9834 9.38411 18.6674 9.81079C18.507 10.0273 18.2172 10.4224 19.1778 10.4224H26.7523C26.1224 11.2854 24.079 13.7808 20.41 13.7808L9.29979 13.7809ZM35.3934 10.4217L32.9226 13.7807H26.405C26.405 13.7807 28.8744 10.4224 28.8766 10.4224L35.3934 10.4217ZM45.3779 9.66201H29.4365L33.7958 3.74072H40.3115L37.8128 7.136H40.7212L43.2209 3.74072H49.7358L45.3779 9.66201ZM44.8184 10.4226L42.3465 13.7809H35.8313C35.8313 13.7809 38.3007 10.4226 38.3028 10.4226H44.8184ZM0 11.7468H9.6016L9.07712 12.4603H0V11.7468ZM0 10.4226H10.5771L10.0516 11.135H0V10.4226ZM0 13.0718H8.62664L8.10466 13.7809H0V13.0718ZM71 12.4603H61.4353L61.9603 11.7469H71V12.4603ZM71 13.7809L60.463 13.7819L60.985 13.0718H71V13.7809ZM62.9345 10.4226H71V11.1354L62.4101 11.136L62.9345 10.4226ZM58.7592 3.74072L54.4006 9.66189H47.4964C47.4964 9.66189 51.8562 3.74072 51.8584 3.74072H58.7592ZM46.9378 10.4226C46.9378 10.4226 46.4615 11.0734 46.2303 11.3863C45.4119 12.4923 46.1354 13.7809 48.806 13.7809H59.2699L61.7415 10.4226H46.9378Z" fill="#D2002E"/>
<path d="M0 19.1431H71V19.498H0V19.1431ZM0 20.7993H71V21.1542H0V20.7993ZM0 22.4552H71V22.8101H0V22.4552Z" fill="#FFCC00"/>
<path d="M23.8413 22.81H25.9781L26.3191 22.3477H24.729L25.6207 21.1395H27.0688L27.4099 20.6771H25.9618L26.7525 19.6056H28.3428L28.6839 19.1432H26.5473L23.8413 22.81ZM26.4636 22.81H27.1194L29.3545 21.2551L29.3325 22.81H30.0211L30.0262 20.8926L32.6013 19.1432H31.9784L29.9285 20.5511L29.951 19.1432H29.2952L29.2753 20.9031L26.4636 22.81ZM33.4285 19.6056H33.893C34.2319 19.6056 34.6105 19.7736 34.2693 20.2359C33.9127 20.719 33.3663 20.882 33.0274 20.882H32.4864L33.4285 19.6056ZM30.5173 22.81H31.0637L32.1452 21.3443H32.6807C33.3693 21.3443 34.2437 21.0554 34.8446 20.241C35.461 19.4057 35.0045 19.1429 34.2231 19.1429H33.2231L30.5173 22.81ZM33.6641 22.81H34.2106L35.4124 21.1814H35.7401C36.0297 21.1814 36.2103 21.1814 36.1161 21.5386L35.7627 22.81H36.3857L36.7421 21.3495C36.7886 21.1237 36.7649 21.0449 36.6418 20.9817L36.6496 20.9711C37.1466 20.8975 37.7234 20.5824 38.053 20.1358C38.7003 19.2587 38.0589 19.1429 37.3046 19.1429H36.3702L33.6641 22.81ZM36.5754 19.6056H37.0999C37.6029 19.6056 37.71 19.8157 37.4659 20.1465C37.2061 20.4986 36.7372 20.719 36.218 20.719H35.7535L36.5754 19.6056ZM36.9515 22.81H39.0883L39.4292 22.3477H37.8392L38.7308 21.1395H40.179L40.5199 20.6771H39.0719L39.8626 19.6056H41.4529L41.7942 19.1432H39.6575L36.9515 22.81ZM44.4262 19.2115C44.2299 19.1222 43.9601 19.0801 43.7088 19.0801C43.0202 19.0801 42.2289 19.427 41.7481 20.0783C40.9069 21.2184 42.713 20.9924 42.1081 21.812C41.7903 22.2425 41.229 22.4109 40.9176 22.4109C40.6387 22.4109 40.3885 22.3057 40.257 22.232L39.842 22.7207C40.0352 22.7995 40.2434 22.8731 40.5111 22.8731C41.2761 22.8731 42.1333 22.5628 42.7109 21.78C43.6024 20.572 41.8428 20.7346 42.3624 20.0309C42.6455 19.6474 43.0837 19.5423 43.3897 19.5423C43.674 19.5423 43.7918 19.5898 43.9929 19.6947L44.4262 19.2115ZM47.1587 19.2115C46.9623 19.1222 46.6926 19.0801 46.4412 19.0801C45.7526 19.0801 44.9613 19.427 44.4805 20.0783C43.6393 21.2184 45.4454 20.9924 44.8405 21.812C44.5228 22.2425 43.9614 22.4109 43.65 22.4109C43.3711 22.4109 43.1208 22.3057 42.9895 22.232L42.5744 22.7207C42.7676 22.7995 42.9758 22.8731 43.2434 22.8731C44.0085 22.8731 44.8656 22.5628 45.4432 21.78C46.3348 20.572 44.5753 20.7346 45.0948 20.0309C45.3778 19.6474 45.8161 19.5423 46.1221 19.5423C46.4064 19.5423 46.5245 19.5898 46.7253 19.6947L47.1587 19.2115Z" fill="#D2002E"/>
</svg>
