<svg width="30" height="31" viewBox="0 0 30 31" fill="none" xmlns="http://www.w3.org/2000/svg">
<path fill-rule="evenodd" clip-rule="evenodd" d="M14.142 3.75377C14.6952 3.54887 15.3048 3.54887 15.858 3.75377L24.4136 6.92379C24.8796 7.0964 25.2812 7.40545 25.5647 7.80965C25.8482 8.21384 26.0001 8.69391 26 9.18567V15.6622C26 17.6806 25.4312 19.6592 24.3573 21.3762C23.2833 23.0933 21.7466 24.4809 19.9194 25.3836L15.8201 27.4088C15.5655 27.5346 15.2847 27.6001 15 27.6001C14.7153 27.6001 14.4345 27.5346 14.1799 27.4088L10.0806 25.3836C8.25338 24.4809 6.71672 23.0933 5.64275 21.3762C4.56879 19.6592 3.99996 17.6806 4 15.6622V9.18567C3.99994 8.69391 4.1518 8.21384 4.4353 7.80965C4.71879 7.40545 5.1204 7.0964 5.58644 6.92379L14.142 3.75377ZM15 6.01565L6.44444 9.18567V15.6622C6.44473 17.2319 6.88737 18.7706 7.72278 20.1058C8.5582 21.441 9.75339 22.52 11.1744 23.2219L15 25.1143V6.01565Z" fill="black"/>
</svg>
