<svg width="43" height="27" viewBox="0 0 43 27" fill="none" xmlns="http://www.w3.org/2000/svg">
<rect x="0.899902" y="0.5" width="41" height="26" rx="6.5" fill="white" stroke="#9B9B9B"/>
<path d="M13.4035 23.0332V21.7623C13.4035 21.2762 13.1073 20.9578 12.599 20.9578C12.3448 20.9578 12.0684 21.0417 11.8784 21.3181C11.7303 21.0862 11.5181 20.9578 11.1998 20.9578C10.9876 20.9578 10.7753 21.022 10.6075 21.254V20.9998H10.1633V23.0332H10.6075V21.9104C10.6075 21.5501 10.7975 21.3798 11.0937 21.3798C11.3898 21.3798 11.5379 21.5698 11.5379 21.9104V23.0332H11.982V21.9104C11.982 21.5501 12.1943 21.3798 12.4682 21.3798C12.7643 21.3798 12.9124 21.5698 12.9124 21.9104V23.0332H13.4035ZM19.9923 20.9998H19.2717V20.3853H18.8275V20.9998H18.4253V21.402H18.8275V22.3348C18.8275 22.8012 19.0175 23.0752 19.5259 23.0752C19.7159 23.0752 19.9281 23.011 20.0762 22.9271L19.9479 22.5446C19.8196 22.6285 19.6715 22.6507 19.5654 22.6507C19.3532 22.6507 19.2692 22.5224 19.2692 22.3126V21.402H19.9898V20.9998H19.9923ZM23.763 20.9554C23.5088 20.9554 23.3385 21.0837 23.2324 21.2515V20.9973H22.7882V23.0307H23.2324V21.8857C23.2324 21.5476 23.3805 21.3551 23.6569 21.3551C23.7408 21.3551 23.8469 21.3774 23.9333 21.3971L24.0616 20.9726C23.9727 20.9554 23.8469 20.9554 23.763 20.9554ZM18.065 21.1676C17.8528 21.0195 17.5566 20.9554 17.2383 20.9554C16.73 20.9554 16.3919 21.2095 16.3919 21.6118C16.3919 21.9499 16.6461 22.1424 17.0902 22.204L17.3025 22.2263C17.5344 22.2682 17.6628 22.3324 17.6628 22.4385C17.6628 22.5865 17.4925 22.6927 17.1964 22.6927C16.9002 22.6927 16.6658 22.5865 16.5177 22.4804L16.3055 22.8185C16.5375 22.9888 16.8558 23.0727 17.1741 23.0727C17.7664 23.0727 18.1069 22.7963 18.1069 22.4163C18.1069 22.056 17.8306 21.866 17.4086 21.8018L17.1964 21.7796C17.0063 21.7574 16.8583 21.7154 16.8583 21.5896C16.8583 21.4415 17.0063 21.3576 17.2408 21.3576C17.495 21.3576 17.7491 21.4637 17.8774 21.5279L18.065 21.1676ZM29.8829 20.9554C29.6288 20.9554 29.4585 21.0837 29.3524 21.2515V20.9973H28.9082V23.0307H29.3524V21.8857C29.3524 21.5476 29.5005 21.3551 29.7768 21.3551C29.8607 21.3551 29.9669 21.3774 30.0532 21.3971L30.1815 20.9776C30.0952 20.9554 29.9693 20.9554 29.8829 20.9554ZM24.2072 22.0165C24.2072 22.631 24.6316 23.0752 25.288 23.0752C25.5842 23.0752 25.7964 23.011 26.0086 22.8432L25.7964 22.4829C25.6261 22.6112 25.4583 22.6729 25.2658 22.6729C24.9055 22.6729 24.6514 22.4187 24.6514 22.0165C24.6514 21.634 24.9055 21.3798 25.2658 21.3601C25.4558 21.3601 25.6261 21.4242 25.7964 21.5501L26.0086 21.1898C25.7964 21.0195 25.5842 20.9578 25.288 20.9578C24.6316 20.9554 24.2072 21.402 24.2072 22.0165ZM28.3159 22.0165V20.9998H27.8717V21.254C27.7237 21.064 27.5115 20.9578 27.2351 20.9578C26.6626 20.9578 26.2184 21.402 26.2184 22.0165C26.2184 22.631 26.6626 23.0752 27.2351 23.0752C27.5312 23.0752 27.7434 22.969 27.8717 22.779V23.0332H28.3159V22.0165ZM26.6848 22.0165C26.6848 21.6562 26.9167 21.3601 27.2992 21.3601C27.6595 21.3601 27.9137 21.6365 27.9137 22.0165C27.9137 22.3768 27.6595 22.6729 27.2992 22.6729C26.9192 22.6507 26.6848 22.3743 26.6848 22.0165ZM21.3693 20.9554C20.777 20.9554 20.3526 21.3798 20.3526 22.014C20.3526 22.6507 20.777 23.0727 21.3915 23.0727C21.6876 23.0727 21.9837 22.9888 22.2182 22.7963L22.006 22.478C21.8357 22.6063 21.6235 22.6902 21.4137 22.6902C21.1373 22.6902 20.8634 22.5619 20.7992 22.204H22.3021C22.3021 22.1399 22.3021 22.0979 22.3021 22.0338C22.3218 21.3798 21.9393 20.9554 21.3693 20.9554ZM21.3693 21.3379C21.6457 21.3379 21.8357 21.5081 21.8776 21.824H20.819C20.8609 21.5501 21.0509 21.3379 21.3693 21.3379ZM32.405 22.0165V20.1953H31.9608V21.254C31.8127 21.064 31.6005 20.9578 31.3241 20.9578C30.7516 20.9578 30.3074 21.402 30.3074 22.0165C30.3074 22.631 30.7516 23.0752 31.3241 23.0752C31.6202 23.0752 31.8325 22.969 31.9608 22.779V23.0332H32.405V22.0165ZM30.7738 22.0165C30.7738 21.6562 31.0058 21.3601 31.3883 21.3601C31.7486 21.3601 32.0027 21.6365 32.0027 22.0165C32.0027 22.3768 31.7486 22.6729 31.3883 22.6729C31.0058 22.6507 30.7738 22.3743 30.7738 22.0165ZM15.9033 22.0165V20.9998H15.4591V21.254C15.311 21.064 15.0988 20.9578 14.8224 20.9578C14.2499 20.9578 13.8057 21.402 13.8057 22.0165C13.8057 22.631 14.2499 23.0752 14.8224 23.0752C15.1185 23.0752 15.3308 22.969 15.4591 22.779V23.0332H15.9033V22.0165ZM14.2524 22.0165C14.2524 21.6562 14.4843 21.3601 14.8668 21.3601C15.2271 21.3601 15.4813 21.6365 15.4813 22.0165C15.4813 22.3768 15.2271 22.6729 14.8668 22.6729C14.4843 22.6507 14.2524 22.3743 14.2524 22.0165Z" fill="#9B9B9B"/>
<path d="M24.5897 5.55664H17.917V17.5449H24.5897V5.55664Z" fill="#AFAFAF"/>
<path d="M18.361 11.5511C18.361 9.11541 19.5061 6.95368 21.2631 5.55695C19.97 4.54025 18.3388 3.92578 16.5596 3.92578C12.3447 3.92578 8.93433 7.33618 8.93433 11.5511C8.93433 15.7659 12.3447 19.1763 16.5596 19.1763C18.3388 19.1763 19.97 18.5619 21.2631 17.5452C19.5036 16.1682 18.361 13.9867 18.361 11.5511Z" fill="#9B9B9B"/>
<path d="M33.592 11.5511C33.592 15.7659 30.1816 19.1763 25.9667 19.1763C24.1874 19.1763 22.5563 18.5619 21.2632 17.5452C23.0424 16.146 24.1652 13.9867 24.1652 11.5511C24.1652 9.11541 23.0202 6.95368 21.2632 5.55695C22.5538 4.54025 24.185 3.92578 25.9642 3.92578C30.1816 3.92578 33.592 7.35839 33.592 11.5511Z" fill="#C6C6C6"/>
</svg>
