<svg width="43" height="28" viewBox="0 0 43 28" fill="none" xmlns="http://www.w3.org/2000/svg">
<rect x="0.899963" y="1.45947" width="41" height="26" rx="6.5" fill="#1D1B1B" stroke="#9B9B9B"/>
<path d="M13.4035 23.9927V22.7218C13.4035 22.2357 13.1074 21.9173 12.599 21.9173C12.3449 21.9173 12.0685 22.0012 11.8785 22.2776C11.7304 22.0456 11.5182 21.9173 11.1998 21.9173C10.9876 21.9173 10.7754 21.9815 10.6076 22.2134V21.9593H10.1634V23.9927H10.6076V22.8699C10.6076 22.5096 10.7976 22.3393 11.0937 22.3393C11.3899 22.3393 11.5379 22.5293 11.5379 22.8699V23.9927H11.9821V22.8699C11.9821 22.5096 12.1943 22.3393 12.4682 22.3393C12.7644 22.3393 12.9124 22.5293 12.9124 22.8699V23.9927H13.4035ZM19.9924 21.9593H19.2718V21.3448H18.8276V21.9593H18.4253V22.3615H18.8276V23.2943C18.8276 23.7607 19.0176 24.0346 19.526 24.0346C19.716 24.0346 19.9282 23.9705 20.0763 23.8866L19.9479 23.5041C19.8196 23.588 19.6715 23.6102 19.5654 23.6102C19.3532 23.6102 19.2693 23.4819 19.2693 23.2721V22.3615H19.9899V21.9593H19.9924ZM23.763 21.9148C23.5089 21.9148 23.3386 22.0432 23.2325 22.211V21.9568H22.7883V23.9902H23.2325V22.8452C23.2325 22.5071 23.3805 22.3146 23.6569 22.3146C23.7408 22.3146 23.8469 22.3368 23.9333 22.3566L24.0616 21.9321C23.9728 21.9148 23.8469 21.9148 23.763 21.9148ZM18.0651 22.1271C17.8528 21.979 17.5567 21.9148 17.2384 21.9148C16.73 21.9148 16.3919 22.169 16.3919 22.5713C16.3919 22.9093 16.6461 23.1018 17.0903 23.1635L17.3025 23.1857C17.5345 23.2277 17.6628 23.2918 17.6628 23.398C17.6628 23.546 17.4925 23.6521 17.1964 23.6521C16.9003 23.6521 16.6659 23.546 16.5178 23.4399L16.3056 23.778C16.5375 23.9483 16.8559 24.0322 17.1742 24.0322C17.7665 24.0322 18.107 23.7558 18.107 23.3757C18.107 23.0155 17.8306 22.8254 17.4086 22.7613L17.1964 22.7391C17.0064 22.7169 16.8583 22.6749 16.8583 22.5491C16.8583 22.401 17.0064 22.3171 17.2408 22.3171C17.495 22.3171 17.7492 22.4232 17.8775 22.4874L18.0651 22.1271ZM29.883 21.9148C29.6288 21.9148 29.4586 22.0432 29.3524 22.211V21.9568H28.9083V23.9902H29.3524V22.8452C29.3524 22.5071 29.5005 22.3146 29.7769 22.3146C29.8608 22.3146 29.9669 22.3368 30.0533 22.3566L30.1816 21.9371C30.0952 21.9148 29.9694 21.9148 29.883 21.9148ZM24.2072 22.976C24.2072 23.5904 24.6317 24.0346 25.2881 24.0346C25.5842 24.0346 25.7965 23.9705 26.0087 23.8027L25.7965 23.4424C25.6262 23.5707 25.4584 23.6324 25.2659 23.6324C24.9056 23.6324 24.6514 23.3782 24.6514 22.976C24.6514 22.5935 24.9056 22.3393 25.2659 22.3196C25.4559 22.3196 25.6262 22.3837 25.7965 22.5096L26.0087 22.1493C25.7965 21.979 25.5842 21.9173 25.2881 21.9173C24.6317 21.9148 24.2072 22.3615 24.2072 22.976ZM28.316 22.976V21.9593H27.8718V22.2134C27.7237 22.0234 27.5115 21.9173 27.2351 21.9173C26.6626 21.9173 26.2184 22.3615 26.2184 22.976C26.2184 23.5904 26.6626 24.0346 27.2351 24.0346C27.5313 24.0346 27.7435 23.9285 27.8718 23.7385V23.9927H28.316V22.976ZM26.6848 22.976C26.6848 22.6157 26.9168 22.3196 27.2993 22.3196C27.6596 22.3196 27.9138 22.5959 27.9138 22.976C27.9138 23.3363 27.6596 23.6324 27.2993 23.6324C26.9193 23.6102 26.6848 23.3338 26.6848 22.976ZM21.3693 21.9148C20.7771 21.9148 20.3526 22.3393 20.3526 22.9735C20.3526 23.6102 20.7771 24.0322 21.3916 24.0322C21.6877 24.0322 21.9838 23.9483 22.2182 23.7558L22.006 23.4374C21.8357 23.5658 21.6235 23.6497 21.4138 23.6497C21.1374 23.6497 20.8635 23.5213 20.7993 23.1635H22.3021C22.3021 23.0994 22.3021 23.0574 22.3021 22.9932C22.3219 22.3393 21.9394 21.9148 21.3693 21.9148ZM21.3693 22.2973C21.6457 22.2973 21.8357 22.4676 21.8777 22.7835H20.819C20.861 22.5096 21.051 22.2973 21.3693 22.2973ZM32.405 22.976V21.1548H31.9608V22.2134C31.8128 22.0234 31.6005 21.9173 31.3242 21.9173C30.7516 21.9173 30.3075 22.3615 30.3075 22.976C30.3075 23.5904 30.7516 24.0346 31.3242 24.0346C31.6203 24.0346 31.8325 23.9285 31.9608 23.7385V23.9927H32.405V22.976ZM30.7739 22.976C30.7739 22.6157 31.0058 22.3196 31.3883 22.3196C31.7486 22.3196 32.0028 22.5959 32.0028 22.976C32.0028 23.3363 31.7486 23.6324 31.3883 23.6324C31.0058 23.6102 30.7739 23.3338 30.7739 22.976ZM15.9033 22.976V21.9593H15.4591V22.2134C15.3111 22.0234 15.0988 21.9173 14.8225 21.9173C14.2499 21.9173 13.8058 22.3615 13.8058 22.976C13.8058 23.5904 14.2499 24.0346 14.8225 24.0346C15.1186 24.0346 15.3308 23.9285 15.4591 23.7385V23.9927H15.9033V22.976ZM14.2524 22.976C14.2524 22.6157 14.4844 22.3196 14.8669 22.3196C15.2272 22.3196 15.4813 22.5959 15.4813 22.976C15.4813 23.3363 15.2272 23.6324 14.8669 23.6324C14.4844 23.6102 14.2524 23.3338 14.2524 22.976Z" fill="#9B9B9B"/>
<path d="M24.5898 6.51611H17.9171V18.5043H24.5898V6.51611Z" fill="#AFAFAF"/>
<path d="M18.3611 12.5105C18.3611 10.0749 19.5061 7.91316 21.2632 6.51642C19.9701 5.49972 18.3389 4.88525 16.5597 4.88525C12.3448 4.88525 8.93439 8.29565 8.93439 12.5105C8.93439 16.7254 12.3448 20.1358 16.5597 20.1358C18.3389 20.1358 19.9701 19.5214 21.2632 18.5046C19.5037 17.1277 18.3611 14.9462 18.3611 12.5105Z" fill="#9B9B9B"/>
<path d="M33.592 12.5107C33.592 16.7255 30.1816 20.1359 25.9667 20.1359C24.1875 20.1359 22.5563 19.5215 21.2632 18.5048C23.0425 17.1056 24.1653 14.9463 24.1653 12.5107C24.1653 10.075 23.0203 7.91328 21.2632 6.51654C22.5539 5.49984 24.185 4.88538 25.9643 4.88538C30.1816 4.88538 33.592 8.31799 33.592 12.5107Z" fill="#C6C6C6"/>
</svg>
