<svg width="16" height="9" viewBox="0 0 16 9" fill="none" xmlns="http://www.w3.org/2000/svg">
<path d="M3.86274 0.114258C2.65111 0.114258 2.04529 0.114258 1.76477 0.353852C1.52136 0.561744 1.39218 0.873599 1.4173 1.19272C1.44624 1.5605 1.87462 1.98888 2.73137 2.84563L6.86863 6.98289C7.26465 7.3789 7.46265 7.57691 7.69098 7.6511C7.89183 7.71636 8.10817 7.71636 8.30902 7.6511C8.53735 7.57691 8.73535 7.3789 9.13137 6.98289L13.2686 2.84563C14.1254 1.98887 14.5538 1.5605 14.5827 1.19272C14.6078 0.873599 14.4786 0.561743 14.2352 0.353852C13.9547 0.114258 13.3489 0.114258 12.1373 0.114258L3.86274 0.114258Z" fill="white"/>
</svg>
