<svg width="16" height="9" viewBox="0 0 16 9" fill="none" xmlns="http://www.w3.org/2000/svg">
<path d="M3.86274 0.959473C2.65111 0.959473 2.04529 0.959473 1.76477 1.19907C1.52136 1.40696 1.39218 1.71881 1.4173 2.03793C1.44624 2.40571 1.87462 2.83409 2.73137 3.69084L6.86863 7.8281C7.26465 8.22412 7.46265 8.42213 7.69098 8.49632C7.89183 8.56157 8.10817 8.56157 8.30902 8.49632C8.53735 8.42213 8.73535 8.22412 9.13137 7.8281L13.2686 3.69084C14.1254 2.83409 14.5538 2.40571 14.5827 2.03793C14.6078 1.71881 14.4786 1.40696 14.2352 1.19907C13.9547 0.959473 13.3489 0.959473 12.1373 0.959473L3.86274 0.959473Z" fill="white"/>
</svg>
