<svg width="14" height="14" viewBox="0 0 14 14" fill="none" xmlns="http://www.w3.org/2000/svg">
<path d="M7.25332 11.3779L7.0005 11.2293L6.74743 11.3775L3.35253 13.3645L3.35164 13.365C3.22483 13.4396 3.09098 13.4235 2.9897 13.3519C2.88918 13.2809 2.84375 13.174 2.87248 13.054L3.77227 9.30268L3.84429 9.00243L3.60808 8.80357L0.605847 6.27602L0.60567 6.27587C0.417515 6.11762 0.492283 5.789 0.788644 5.76609L0.788644 5.7661L0.791214 5.76589L4.74238 5.44001L5.03987 5.41547L5.15943 5.14197L6.70554 1.605L6.70554 1.605L6.70639 1.60303C6.75545 1.48948 6.86371 1.42188 7 1.42188C7.13629 1.42188 7.24455 1.48948 7.2936 1.60303L7.2943 1.60462L8.84041 5.14954L8.95985 5.4234L9.25762 5.44796L13.2088 5.77384L13.2114 5.77404C13.5077 5.79694 13.5825 6.12557 13.3943 6.28382L13.3942 6.28397L10.3919 8.81151L10.1557 9.01038L10.2277 9.31063L11.1275 13.062C11.1562 13.182 11.1108 13.2889 11.0103 13.3599C10.909 13.4314 10.7752 13.4476 10.6484 13.373L10.6482 13.3729L7.25332 11.3779Z" fill="black" stroke="black"/>
</svg>
