<svg width="14" height="14" viewBox="0 0 14 14" fill="none" xmlns="http://www.w3.org/2000/svg">
<path d="M7.25332 10.9155L7.0005 10.7669L6.74743 10.9151L3.35253 12.9021L3.35164 12.9026C3.22483 12.9772 3.09098 12.9611 2.9897 12.8895C2.88918 12.8185 2.84375 12.7116 2.87248 12.5916L3.77227 8.84028L3.84429 8.54002L3.60808 8.34116L0.605847 5.81362L0.60567 5.81347C0.417515 5.65522 0.492283 5.32659 0.788644 5.30369L0.788644 5.3037L0.791214 5.30348L4.74238 4.97761L5.03987 4.95307L5.15943 4.67956L6.70554 1.1426L6.70554 1.1426L6.70639 1.14062C6.75545 1.02708 6.86371 0.959473 7 0.959473C7.13629 0.959473 7.24455 1.02708 7.2936 1.14062L7.2943 1.14222L8.84041 4.68714L8.95985 4.961L9.25762 4.98555L13.2088 5.31144L13.2114 5.31164C13.5077 5.33454 13.5825 5.66316 13.3943 5.82142L13.3942 5.82157L10.3919 8.34911L10.1557 8.54797L10.2277 8.84823L11.1275 12.5996C11.1562 12.7196 11.1108 12.8265 11.0103 12.8975C10.909 12.969 10.7752 12.9852 10.6484 12.9106L10.6482 12.9105L7.25332 10.9155Z" fill="black" stroke="black"/>
</svg>
