<svg width="14" height="14" viewBox="0 0 14 14" fill="none" xmlns="http://www.w3.org/2000/svg">
<path d="M6.90676 10.4289L7.16212 10.581L10.5115 12.576L10.5117 12.5761C10.7619 12.7253 11.027 12.4976 10.9717 12.2623L6.90676 10.4289ZM6.90676 10.4289L6.65114 10.5806L3.30171 12.5676L3.30082 12.5682C3.05049 12.7174 2.78528 12.4896 2.84087 12.2541L3.72861 8.5028L3.79895 8.20558L3.56661 8.00731L0.604582 5.47977L0.604406 5.47962C0.410935 5.31469 0.502686 4.9893 0.779118 4.96765L0.779118 4.96766L0.781721 4.96744L4.67997 4.64156L4.97872 4.61659L5.09744 4.34131L6.62285 0.804338L6.62285 0.804339L6.62369 0.80238C6.72536 0.563839 7.08714 0.563839 7.18881 0.802381L7.18949 0.803963L8.71489 4.34888L8.8335 4.62451L9.13253 4.64951L13.0308 4.97539L13.0334 4.9756C13.3098 4.99725 13.4016 5.32263 13.2081 5.48757L13.2079 5.48772L10.2459 8.01526L10.0135 8.21352L10.0839 8.51075L10.9716 12.2621L6.90676 10.4289Z" stroke="black"/>
</svg>
