<svg width="14" height="14" viewBox="0 0 14 14" fill="none" xmlns="http://www.w3.org/2000/svg">
<path d="M6.90676 10.3489L7.16212 10.501L10.5115 12.496L10.5117 12.4961C10.7619 12.6452 11.027 12.4176 10.9717 12.1823L6.90676 10.3489ZM6.90676 10.3489L6.65114 10.5005L3.30171 12.4876L3.30082 12.4881C3.05049 12.6373 2.78528 12.4095 2.84087 12.1741L3.72861 8.42279L3.79895 8.12556L3.56661 7.9273L0.604582 5.39976L0.604406 5.3996C0.410935 5.23467 0.502686 4.90929 0.779118 4.88763L0.779118 4.88764L0.781721 4.88742L4.67997 4.56154L4.97872 4.53657L5.09744 4.26129L6.62285 0.72432L6.62285 0.724322L6.62369 0.722363C6.72536 0.483822 7.08714 0.483822 7.18881 0.722364L7.18949 0.723946L8.71489 4.26886L8.8335 4.5445L9.13253 4.56949L13.0308 4.89538L13.0334 4.89558C13.3098 4.91724 13.4016 5.24262 13.2081 5.40755L13.2079 5.4077L10.2459 7.93525L10.0135 8.13351L10.0839 8.43074L10.9716 12.1821L6.90676 10.3489Z" stroke="black"/>
</svg>
