<svg width="14" height="14" viewBox="0 0 14 14" fill="none" xmlns="http://www.w3.org/2000/svg">
<path d="M7.25332 10.9995L7.0005 10.8509L6.74743 10.999L3.35253 12.9861L3.35164 12.9866C3.22483 13.0612 3.09098 13.0451 2.9897 12.9735C2.88918 12.9025 2.84375 12.7956 2.87248 12.6756L3.77227 8.92427L3.84429 8.62401L3.60808 8.42515L0.605847 5.89761L0.60567 5.89746C0.417515 5.7392 0.492283 5.41058 0.788644 5.38767L0.788644 5.38768L0.791214 5.38747L4.74238 5.06159L5.03987 5.03705L5.15943 4.76355L6.70554 1.22658L6.70554 1.22658L6.70639 1.22461C6.75545 1.11107 6.86371 1.04346 7 1.04346C7.13629 1.04346 7.24455 1.11107 7.2936 1.22461L7.2943 1.2262L8.84041 4.77112L8.95985 5.04498L9.25762 5.06954L13.2088 5.39542L13.2114 5.39562C13.5077 5.41853 13.5825 5.74715 13.3943 5.90541L13.3942 5.90555L10.3919 8.43309L10.1557 8.63196L10.2277 8.93221L11.1275 12.6836C11.1562 12.8036 11.1108 12.9104 11.0103 12.9815C10.909 13.053 10.7752 13.0692 10.6484 12.9946L10.6482 12.9945L7.25332 10.9995Z" fill="black" stroke="black"/>
</svg>
