<svg width="14" height="14" viewBox="0 0 14 14" fill="none" xmlns="http://www.w3.org/2000/svg">
<path d="M7.25332 10.956L7.0005 10.8075L6.74743 10.9556L3.35253 12.9426L3.35164 12.9432C3.22483 13.0177 3.09098 13.0016 2.9897 12.9301C2.88918 12.859 2.84375 12.7522 2.87248 12.6321L3.77227 8.88081L3.84429 8.58055L3.60808 8.38169L0.605847 5.85415L0.60567 5.854C0.417515 5.69574 0.492283 5.36712 0.788644 5.34422L0.788644 5.34422L0.791214 5.34401L4.74238 5.01813L5.03987 4.9936L5.15943 4.72009L6.70554 1.18312L6.70554 1.18312L6.70639 1.18115C6.75545 1.06761 6.86371 1 7 1C7.13629 1 7.24455 1.06761 7.2936 1.18115L7.2943 1.18275L8.84041 4.72766L8.95985 5.00152L9.25762 5.02608L13.2088 5.35197L13.2114 5.35216C13.5077 5.37507 13.5825 5.70369 13.3943 5.86195L13.3942 5.8621L10.3919 8.38964L10.1557 8.5885L10.2277 8.88876L11.1275 12.6401C11.1562 12.7601 11.1108 12.867 11.0103 12.938C10.909 13.0096 10.7752 13.0257 10.6484 12.9511L10.6482 12.951L7.25332 10.956Z" fill="black" stroke="black"/>
</svg>
