<svg width="14" height="14" viewBox="0 0 14 14" fill="none" xmlns="http://www.w3.org/2000/svg">
<path d="M7.25332 10.4995L7.0005 10.3509L6.74743 10.499L3.35253 12.4861L3.35164 12.4866C3.22483 12.5612 3.09098 12.5451 2.9897 12.4735C2.88918 12.4025 2.84375 12.2956 2.87248 12.1756L3.77227 8.42427L3.84429 8.12401L3.60808 7.92515L0.605847 5.39761L0.60567 5.39746C0.417515 5.2392 0.492283 4.91058 0.788644 4.88767L0.788644 4.88768L0.791214 4.88747L4.74238 4.56159L5.03987 4.53705L5.15943 4.26355L6.70554 0.726579L6.70554 0.726581L6.70639 0.724608C6.75545 0.611066 6.86371 0.543457 7 0.543457C7.13629 0.543457 7.24455 0.611066 7.2936 0.724609L7.2943 0.726202L8.84041 4.27112L8.95985 4.54498L9.25762 4.56954L13.2088 4.89542L13.2114 4.89562C13.5077 4.91853 13.5825 5.24715 13.3943 5.40541L13.3942 5.40555L10.3919 7.93309L10.1557 8.13196L10.2277 8.43221L11.1275 12.1836C11.1562 12.3036 11.1108 12.4104 11.0103 12.4815C10.909 12.553 10.7752 12.5692 10.6484 12.4946L10.6482 12.4945L7.25332 10.4995Z" fill="black" stroke="black"/>
</svg>
