<svg width="14" height="14" viewBox="0 0 14 14" fill="none" xmlns="http://www.w3.org/2000/svg">
<path d="M7.25332 10.9994L7.0005 10.8509L6.74743 10.999L3.35253 12.986L3.35164 12.9866C3.22483 13.0611 3.09098 13.045 2.9897 12.9735C2.88918 12.9024 2.84375 12.7956 2.87248 12.6755L3.77227 8.9242L3.84429 8.62395L3.60808 8.42509L0.605847 5.89754L0.60567 5.8974C0.417515 5.73914 0.492283 5.41052 0.788644 5.38761L0.788644 5.38762L0.791214 5.38741L4.74238 5.06153L5.03987 5.03699L5.15943 4.76349L6.70554 1.22652L6.70554 1.22652L6.70639 1.22455C6.75545 1.111 6.86371 1.0434 7 1.0434C7.13629 1.0434 7.24455 1.111 7.2936 1.22455L7.2943 1.22614L8.84041 4.77106L8.95985 5.04492L9.25762 5.06948L13.2088 5.39536L13.2114 5.39556C13.5077 5.41847 13.5825 5.74709 13.3943 5.90534L13.3942 5.90549L10.3919 8.43303L10.1557 8.6319L10.2277 8.93215L11.1275 12.6835C11.1562 12.8035 11.1108 12.9104 11.0103 12.9814C10.909 13.053 10.7752 13.0691 10.6484 12.9945L10.6482 12.9944L7.25332 10.9994Z" fill="black" stroke="black"/>
</svg>
