<svg width="14" height="14" viewBox="0 0 14 14" fill="none" xmlns="http://www.w3.org/2000/svg">
<path d="M7.25332 10.5795L7.0005 10.4309L6.74743 10.5791L3.35253 12.5661L3.35164 12.5666C3.22483 12.6412 3.09098 12.6251 2.9897 12.5535C2.88918 12.4825 2.84375 12.3756 2.87248 12.2556L3.77227 8.50428L3.84429 8.20403L3.60808 8.00516L0.605847 5.47762L0.60567 5.47747C0.417515 5.31922 0.492283 4.99059 0.788644 4.96769L0.788644 4.9677L0.791214 4.96748L4.74238 4.64161L5.03987 4.61707L5.15943 4.34357L6.70554 0.806597L6.70554 0.806598L6.70639 0.804625C6.75545 0.691083 6.86371 0.623474 7 0.623474C7.13629 0.623474 7.24455 0.691083 7.2936 0.804626L7.2943 0.806219L8.84041 4.35114L8.95985 4.625L9.25762 4.64956L13.2088 4.97544L13.2114 4.97564C13.5077 4.99854 13.5825 5.32717 13.3943 5.48542L13.3942 5.48557L10.3919 8.01311L10.1557 8.21197L10.2277 8.51223L11.1275 12.2636C11.1562 12.3836 11.1108 12.4905 11.0103 12.5615C10.909 12.633 10.7752 12.6492 10.6484 12.5746L10.6482 12.5745L7.25332 10.5795Z" fill="black" stroke="black"/>
</svg>
