<svg width="14" height="14" viewBox="0 0 14 14" fill="none" xmlns="http://www.w3.org/2000/svg">
<path d="M6.90676 10.8488L7.16212 11.0009L10.5115 12.9959L10.5117 12.996C10.7619 13.1452 11.027 12.9176 10.9717 12.6822L6.90676 10.8488ZM6.90676 10.8488L6.65114 11.0005L3.30171 12.9875L3.30082 12.9881C3.05049 13.1373 2.78528 12.9095 2.84087 12.6741L3.72861 8.92273L3.79895 8.6255L3.56661 8.42724L0.604582 5.89969L0.604406 5.89954C0.410935 5.73461 0.502686 5.40923 0.779118 5.38757L0.779118 5.38758L0.781721 5.38736L4.67997 5.06148L4.97872 5.03651L5.09744 4.76123L6.62285 1.22426L6.62285 1.22426L6.62369 1.2223C6.72536 0.983761 7.08714 0.983761 7.18881 1.2223L7.18949 1.22388L8.71489 4.7688L8.8335 5.04443L9.13253 5.06943L13.0308 5.39532L13.0334 5.39552C13.3098 5.41717 13.4016 5.74256 13.2081 5.90749L13.2079 5.90764L10.2459 8.43518L10.0135 8.63345L10.0839 8.93067L10.9716 12.682L6.90676 10.8488Z" stroke="black"/>
</svg>
