<svg width="14" height="14" viewBox="0 0 14 14" fill="none" xmlns="http://www.w3.org/2000/svg">
<path d="M7.25332 11.4155L7.0005 11.2669L6.74743 11.4151L3.35253 13.4021L3.35164 13.4026C3.22483 13.4772 3.09098 13.4611 2.9897 13.3895C2.88918 13.3185 2.84375 13.2116 2.87248 13.0916L3.77227 9.34028L3.84429 9.04002L3.60808 8.84116L0.605847 6.31362L0.60567 6.31347C0.417515 6.15522 0.492283 5.82659 0.788644 5.80369L0.788644 5.8037L0.791214 5.80348L4.74238 5.47761L5.03987 5.45307L5.15943 5.17956L6.70554 1.6426L6.70554 1.6426L6.70639 1.64062C6.75545 1.52708 6.86371 1.45947 7 1.45947C7.13629 1.45947 7.24455 1.52708 7.2936 1.64062L7.2943 1.64222L8.84041 5.18714L8.95985 5.461L9.25762 5.48555L13.2088 5.81144L13.2114 5.81164C13.5077 5.83454 13.5825 6.16316 13.3943 6.32142L13.3942 6.32157L10.3919 8.84911L10.1557 9.04797L10.2277 9.34823L11.1275 13.0996C11.1562 13.2196 11.1108 13.3265 11.0103 13.3975C10.909 13.469 10.7752 13.4852 10.6484 13.4106L10.6482 13.4105L7.25332 11.4155Z" fill="black" stroke="black"/>
</svg>
