<svg width="16" height="17" viewBox="0 0 16 17" fill="none" xmlns="http://www.w3.org/2000/svg">
<path d="M8 0.123474C6.41775 0.123474 4.87103 0.592666 3.55544 1.47172C2.23985 2.35077 1.21447 3.6002 0.608967 5.06201C0.00346627 6.52381 -0.15496 8.13235 0.153721 9.68419C0.462403 11.236 1.22433 12.6615 2.34315 13.7803C3.46197 14.8991 4.88743 15.6611 6.43928 15.9698C7.99113 16.2784 9.59966 16.12 11.0615 15.5145C12.5233 14.909 13.7727 13.8836 14.6518 12.568C15.5308 11.2524 16 9.70572 16 8.12347C16 6.00174 15.1571 3.96691 13.6569 2.46662C12.1566 0.966329 10.1217 0.123474 8 0.123474ZM6.85715 11.3178L4 8.46062L4.90857 7.55204L6.85715 9.50062L11.0914 5.26633L12.0034 6.17262L6.85715 11.3178Z" fill="#73CA55"/>
</svg>
