<svg width="16" height="17" viewBox="0 0 16 17" fill="none" xmlns="http://www.w3.org/2000/svg">
<path d="M8 0.459473C6.41775 0.459473 4.87103 0.928664 3.55544 1.80772C2.23985 2.68677 1.21447 3.9362 0.608967 5.398C0.00346627 6.85981 -0.15496 8.46835 0.153721 10.0202C0.462403 11.572 1.22433 12.9975 2.34315 14.1163C3.46197 15.2351 4.88743 15.9971 6.43928 16.3058C7.99113 16.6144 9.59966 16.456 11.0615 15.8505C12.5233 15.245 13.7727 14.2196 14.6518 12.904C15.5308 11.5884 16 10.0417 16 8.45947C16 6.33774 15.1571 4.30291 13.6569 2.80262C12.1566 1.30233 10.1217 0.459473 8 0.459473ZM6.85715 11.6538L4 8.79661L4.90857 7.88804L6.85715 9.83661L11.0914 5.60233L12.0034 6.50861L6.85715 11.6538Z" fill="#73CA55"/>
</svg>
