<svg width="32" height="9" viewBox="0 0 32 9" fill="none" xmlns="http://www.w3.org/2000/svg">
<path d="M3.56395 0.561523L0.00891113 8.4287H4.26479L4.79239 7.17435H5.99838L6.52599 8.4287H11.2105V7.47134L11.6279 8.4287H14.0511L14.4686 7.4511V8.4287H24.2111L25.3957 7.20692L26.505 8.4287L31.509 8.43882L27.9427 4.51708L31.509 0.561523H26.5826L25.4294 1.76072L24.3551 0.561523H13.7565L12.8464 2.59211L11.9149 0.561523H7.66794V1.48631L7.19549 0.561523H3.56395ZM4.38744 1.67867H6.46195L8.82 7.01345V1.67867H11.0926L12.9139 5.50368L14.5924 1.67867H16.8536V7.32389H15.4777L15.4665 2.90033L13.4606 7.32389H12.2298L10.2127 2.90033V7.32389H7.38217L6.84556 6.05831H3.94645L3.41095 7.32278H1.89439L4.38744 1.67867ZM18.1124 1.67867H23.7071L25.4182 3.52702L27.1845 1.67867H28.8956L26.2957 4.51597L28.8956 7.32056H27.1069L25.3957 5.45075L23.6204 7.32056H18.1124V1.67867ZM5.39662 2.63381L4.44148 4.88835H6.35065L5.39662 2.63381ZM19.494 2.84752V3.87805H22.5461V5.02667H19.494V6.15171H22.9174L24.5081 4.49462L22.9849 2.84653H19.494V2.84752Z" fill="#9B9B9B"/>
</svg>
