<svg width="16" height="17" viewBox="0 0 16 17" fill="none" xmlns="http://www.w3.org/2000/svg">
<path d="M8 0.543457C6.41775 0.543457 4.87103 1.01265 3.55544 1.8917C2.23985 2.77075 1.21447 4.02018 0.608967 5.48199C0.00346627 6.9438 -0.15496 8.55233 0.153721 10.1042C0.462403 11.656 1.22433 13.0815 2.34315 14.2003C3.46197 15.3191 4.88743 16.0811 6.43928 16.3897C7.99113 16.6984 9.59966 16.54 11.0615 15.9345C12.5233 15.329 13.7727 14.3036 14.6518 12.988C15.5308 11.6724 16 10.1257 16 8.54346C16 6.42172 15.1571 4.38689 13.6569 2.8866C12.1566 1.38631 10.1217 0.543457 8 0.543457ZM6.85715 11.7377L4 8.8806L4.90857 7.97203L6.85715 9.9206L11.0914 5.68631L12.0034 6.5926L6.85715 11.7377Z" fill="#73CA55"/>
</svg>
