<svg width="16" height="17" viewBox="0 0 16 17" fill="none" xmlns="http://www.w3.org/2000/svg">
<path d="M8 0.043457C6.41775 0.043457 4.87103 0.512649 3.55544 1.3917C2.23985 2.27075 1.21447 3.52018 0.608967 4.98199C0.00346627 6.4438 -0.15496 8.05233 0.153721 9.60418C0.462403 11.156 1.22433 12.5815 2.34315 13.7003C3.46197 14.8191 4.88743 15.5811 6.43928 15.8897C7.99113 16.1984 9.59966 16.04 11.0615 15.4345C12.5233 14.829 13.7727 13.8036 14.6518 12.488C15.5308 11.1724 16 9.62571 16 8.04346C16 5.92172 15.1571 3.88689 13.6569 2.3866C12.1566 0.886312 10.1217 0.043457 8 0.043457ZM6.85715 11.2377L4 8.3806L4.90857 7.47203L6.85715 9.4206L11.0914 5.18631L12.0034 6.0926L6.85715 11.2377Z" fill="#73CA55"/>
</svg>
