<svg width="72" height="13" viewBox="0 0 72 13" fill="none" xmlns="http://www.w3.org/2000/svg">
<path d="M8.62549 2.49119C8.13385 1.98013 7.59866 1.59451 7.01994 1.3399C6.4331 1.08089 5.80031 0.948969 5.16132 0.952426C3.72722 0.952426 2.50991 1.51459 1.50576 2.63428C0.502526 3.75397 0.00181417 5.19145 0 6.94486C0 8.63601 0.517039 10.053 1.55293 11.1895C2.58883 12.3296 3.81702 12.8992 5.2357 12.8992C5.84031 12.9058 6.44003 12.7876 6.99908 12.5517C7.54243 12.3184 8.08305 11.9384 8.62186 11.4069V12.6102H11.3948V1.2507H8.62639L8.62549 2.49119ZM7.89075 9.35243C7.3211 9.97778 6.60268 10.2863 5.73732 10.2881C4.89827 10.2881 4.19165 9.97035 3.61928 9.33384C3.046 8.6992 2.75845 7.88893 2.75845 6.90676C2.75845 5.92738 3.04237 5.12827 3.60476 4.50291C4.16897 3.87849 4.8765 3.56906 5.72916 3.56906C6.60268 3.56906 7.32472 3.8757 7.89437 4.48897C8.46493 5.10411 8.64907 5.8038 8.64726 6.7934C8.64726 7.80623 8.46312 8.72893 7.89075 9.35243ZM27.2997 2.49119C26.8426 2.00466 26.2976 1.61366 25.695 1.3399C25.1072 1.08103 24.4736 0.949119 23.8337 0.952426C22.4032 0.952426 21.1823 1.51459 20.18 2.63428C19.1767 3.7549 18.676 5.19238 18.6742 6.94579C18.6724 8.63694 19.1894 10.054 20.2271 11.1904C21.263 12.3305 22.4912 12.9001 23.9126 12.9001C24.5161 12.9068 25.1146 12.7886 25.6724 12.5526C26.2148 12.3194 26.7554 11.9393 27.2942 11.4078V12.6111H30.0672V1.2507H27.2997V2.49119ZM26.5649 9.35243C25.9953 9.97778 25.2751 10.2863 24.4133 10.2881C23.5725 10.2881 22.8658 9.97035 22.2917 9.33384C21.7184 8.6992 21.4308 7.88893 21.4326 6.90676C21.4345 5.92738 21.7138 5.12827 22.279 4.50291C22.8432 3.87849 23.5507 3.56906 24.4034 3.56906C25.2751 3.56906 25.9971 3.8757 26.5686 4.48897C27.1391 5.10411 27.3214 5.8038 27.3196 6.7934C27.3196 7.80623 27.1373 8.72893 26.5649 9.35243ZM46.7558 1.5276C46.1598 1.15128 45.4713 0.963576 44.6858 0.963576C43.9547 0.955655 43.2335 1.13653 42.5886 1.48951C41.9491 1.83982 41.4094 2.35088 40.9677 3.02641C40.632 2.35088 40.1858 1.83796 39.6324 1.48765C39.0706 1.13453 38.4229 0.950954 37.7638 0.958001C37.0799 0.958001 36.4495 1.09088 35.8698 1.35849C35.2911 1.62424 34.765 2.02751 34.2915 2.56831V1.2507H31.5158L31.5131 12.6111H34.2861L34.2879 7.57114C34.2897 6.48119 34.3831 5.68207 34.5691 5.17473C34.7577 4.66831 35.0389 4.27526 35.4154 3.99185C35.7936 3.71309 36.2118 3.57092 36.6744 3.57092C37.0871 3.57185 37.4418 3.68336 37.7339 3.90543C38.026 4.12844 38.2437 4.4676 38.3897 4.92198C38.5358 5.37729 38.6092 6.11136 38.6092 7.12698L38.6038 12.6111H41.3804V7.50145C41.384 6.418 41.4756 5.6319 41.658 5.14313C41.843 4.65251 42.1242 4.27154 42.5006 3.99185C42.8729 3.71602 43.322 3.57038 43.7814 3.5765C44.4064 3.5765 44.8718 3.80508 45.1865 4.2576C45.5004 4.71477 45.6555 5.58451 45.6555 6.86681L45.6519 12.6111H48.4257L48.4294 5.95805C48.4294 4.59305 48.2996 3.60716 48.0393 3.00225C47.7808 2.39548 47.3526 1.90393 46.7558 1.5276ZM58.1107 9.26229C57.3687 10.0187 56.4807 10.3969 55.4484 10.3969C54.583 10.3959 53.8755 10.1515 53.3167 9.66836C52.7589 9.18517 52.4178 8.53473 52.2881 7.71517L61.1857 7.72074L61.1966 7.17995C61.1966 5.3076 60.6542 3.80322 59.5647 2.65937C58.4781 1.52017 57.0648 0.949638 55.3241 0.946851C53.6877 0.946851 52.3244 1.51831 51.2413 2.66588C50.1537 3.8088 49.6113 5.24813 49.6113 6.9811C49.6095 8.67504 50.1537 10.0809 51.2395 11.2053C52.3244 12.3324 53.7349 12.8936 55.4629 12.8936C56.5786 12.8936 57.5392 12.6911 58.352 12.2831C59.1611 11.8771 59.8577 11.2461 60.4383 10.3969L58.1107 9.26229ZM53.4338 4.04017C54.0161 3.60066 54.6946 3.38229 55.4656 3.38415C56.1795 3.38415 56.8045 3.57928 57.3397 3.96955C57.8803 4.3626 58.2404 4.87088 58.4227 5.4953L52.4178 5.49159C52.728 4.79933 53.0682 4.31428 53.4338 4.0411M67.7684 6.5992L71.5174 1.24884H68.3553L66.1847 4.34588L64.0068 1.24884H60.7948L64.5818 6.63079L60.3947 12.6111H63.5568L66.1647 8.8869L68.7862 12.6111H72L67.7684 6.5992ZM18.071 0.900391C17.5576 0.900391 17.1095 0.999815 16.7357 1.19216C16.3666 1.38172 15.943 1.72738 15.4658 2.23473V1.24977H12.8171V12.6111H15.591L15.5892 6.70234C15.5892 4.53729 16.1734 3.45105 17.5875 3.45105C17.8324 3.45105 18.0828 3.50588 18.3349 3.60251C18.7903 2.82198 19.3164 2.08884 19.9042 1.41331C19.2711 1.07973 18.6597 0.900391 18.071 0.900391Z" fill="#E12626"/>
</svg>
