<svg width="16" height="17" viewBox="0 0 16 17" fill="none" xmlns="http://www.w3.org/2000/svg">
<path d="M8 0.543396C6.41775 0.543396 4.87103 1.01259 3.55544 1.89164C2.23985 2.77069 1.21447 4.02012 0.608967 5.48193C0.00346627 6.94374 -0.15496 8.55227 0.153721 10.1041C0.462403 11.656 1.22433 13.0814 2.34315 14.2002C3.46197 15.3191 4.88743 16.081 6.43928 16.3897C7.99113 16.6984 9.59966 16.5399 11.0615 15.9344C12.5233 15.3289 13.7727 14.3035 14.6518 12.988C15.5308 11.6724 16 10.1256 16 8.54339C16 6.42166 15.1571 4.38683 13.6569 2.88654C12.1566 1.38625 10.1217 0.543396 8 0.543396ZM6.85715 11.7377L4 8.88054L4.90857 7.97197L6.85715 9.92054L11.0914 5.68625L12.0034 6.59254L6.85715 11.7377Z" fill="#73CA55"/>
</svg>
