<svg width="32" height="9" viewBox="0 0 32 9" fill="none" xmlns="http://www.w3.org/2000/svg">
<path d="M3.56395 0.520996L0.00891113 8.38818H4.26479L4.79239 7.13382H5.99838L6.52599 8.38818H11.2105V7.43081L11.6279 8.38818H14.0511L14.4686 7.41058V8.38818H24.2111L25.3957 7.16639L26.505 8.38818L31.509 8.39829L27.9427 4.47655L31.509 0.520996H26.5826L25.4294 1.7202L24.3551 0.520996H13.7565L12.8464 2.55158L11.9149 0.520996H7.66794V1.44578L7.19549 0.520996H3.56395ZM4.38744 1.63814H6.46195L8.82 6.97292V1.63814H11.0926L12.9139 5.46315L14.5924 1.63814H16.8536V7.28337H15.4777L15.4665 2.8598L13.4606 7.28337H12.2298L10.2127 2.8598V7.28337H7.38217L6.84556 6.01778H3.94645L3.41095 7.28225H1.89439L4.38744 1.63814ZM18.1124 1.63814H23.7071L25.4182 3.48649L27.1845 1.63814H28.8956L26.2957 4.47544L28.8956 7.28003H27.1069L25.3957 5.41022L23.6204 7.28003H18.1124V1.63814ZM5.39662 2.59329L4.44148 4.84782H6.35065L5.39662 2.59329ZM19.494 2.80699V3.83753H22.5461V4.98614H19.494V6.11119H22.9174L24.5081 4.45409L22.9849 2.80601H19.494V2.80699Z" fill="#9B9B9B"/>
</svg>
