<svg width="16" height="17" viewBox="0 0 16 17" fill="none" xmlns="http://www.w3.org/2000/svg">
<path d="M8 0.921875C6.41775 0.921875 4.87103 1.39107 3.55544 2.27012C2.23985 3.14917 1.21447 4.3986 0.608967 5.86041C0.00346627 7.32222 -0.15496 8.93075 0.153721 10.4826C0.462403 12.0344 1.22433 13.4599 2.34315 14.5787C3.46197 15.6975 4.88743 16.4595 6.43928 16.7682C7.99113 17.0768 9.59966 16.9184 11.0615 16.3129C12.5233 15.7074 13.7727 14.682 14.6518 13.3664C15.5308 12.0508 16 10.5041 16 8.92187C16 6.80014 15.1571 4.76531 13.6569 3.26502C12.1566 1.76473 10.1217 0.921875 8 0.921875ZM6.85715 12.1162L4 9.25902L4.90857 8.35045L6.85715 10.299L11.0914 6.06473L12.0034 6.97102L6.85715 12.1162Z" fill="#73CA55"/>
</svg>
