<svg width="42" height="27" viewBox="0 0 42 27" fill="none" xmlns="http://www.w3.org/2000/svg">
<rect x="0.499878" y="0.5" width="41" height="26" rx="6.5" fill="white" stroke="#9B9B9B"/>
<path d="M18.2017 17.7174H15.7338L17.2774 8.17285H19.7452L18.2017 17.7174Z" fill="#9B9B9B"/>
<path d="M27.1481 8.40635C26.6613 8.21323 25.8892 8 24.9346 8C22.4974 8 20.7812 9.29962 20.7707 11.1577C20.7504 12.5286 21.9994 13.29 22.9336 13.7471C23.8884 14.2142 24.213 14.519 24.213 14.9354C24.2032 15.5748 23.4414 15.8695 22.7309 15.8695C21.7456 15.8695 21.2176 15.7176 20.4153 15.3618L20.0903 15.2093L19.745 17.3519C20.3238 17.6156 21.3902 17.8496 22.4974 17.8598C25.0869 17.8598 26.7728 16.5803 26.7928 14.6003C26.8026 13.5137 26.1431 12.6812 24.7212 12.0009C23.858 11.5642 23.3294 11.2697 23.3294 10.8229C23.3395 10.4166 23.7765 10.0006 24.7509 10.0006C25.5532 9.9802 26.1427 10.1731 26.5893 10.366L26.8125 10.4674L27.1481 8.40635Z" fill="#9B9B9B"/>
<path d="M30.4283 14.3361C30.6315 13.7878 31.4136 11.6656 31.4136 11.6656C31.4033 11.686 31.6164 11.1072 31.7383 10.7518L31.9108 11.5743C31.9108 11.5743 32.3781 13.8589 32.4796 14.3361C32.0939 14.3361 30.9157 14.3361 30.4283 14.3361ZM33.4746 8.17285H31.5657C30.977 8.17285 30.5298 8.34532 30.2758 8.96477L26.61 17.7173H29.1995C29.1995 17.7173 29.6258 16.5393 29.7175 16.2856C30.0015 16.2856 32.5206 16.2856 32.8861 16.2856C32.9569 16.6206 33.1806 17.7173 33.1806 17.7173H35.4656L33.4746 8.17285Z" fill="#9B9B9B"/>
<path d="M13.6723 8.17285L11.2554 14.6813L10.9913 13.3613C10.5445 11.8382 9.14309 10.1834 7.57922 9.36059L9.79303 17.7073H12.4028L16.282 8.17285H13.6723Z" fill="#9B9B9B"/>
<path d="M9.01115 8.17285H5.0405L4.99988 8.3657C8.09724 9.15776 10.1486 11.067 10.9914 13.3617L10.1282 8.97516C9.98607 8.36557 9.54936 8.19296 9.01115 8.17285Z" fill="#DFDFDF"/>
</svg>
