<svg width="42" height="28" viewBox="0 0 42 28" fill="none" xmlns="http://www.w3.org/2000/svg">
<rect x="0.5" y="1.45947" width="41" height="26" rx="6.5" fill="#1D1B1B" stroke="#9B9B9B"/>
<path d="M18.2018 18.6769H15.7339L17.2775 9.13232H19.7453L18.2018 18.6769Z" fill="#9B9B9B"/>
<path d="M27.1482 9.36582C26.6614 9.1727 25.8894 8.95947 24.9347 8.95947C22.4975 8.95947 20.7813 10.2591 20.7708 12.1172C20.7505 13.488 21.9995 14.2495 22.9337 14.7065C23.8885 15.1736 24.2131 15.4785 24.2131 15.8948C24.2034 16.5342 23.4415 16.829 22.731 16.829C21.7457 16.829 21.2178 16.677 20.4154 16.3213L20.0905 16.1688L19.7451 18.3113C20.3239 18.575 21.3904 18.8091 22.4975 18.8193C25.0871 18.8193 26.7729 17.5398 26.7929 15.5597C26.8027 14.4732 26.1432 13.6407 24.7213 12.9604C23.8581 12.5236 23.3295 12.2292 23.3295 11.7823C23.3397 11.3761 23.7766 10.9601 24.751 10.9601C25.5533 10.9397 26.1428 11.1325 26.5894 11.3255L26.8126 11.4269L27.1482 9.36582Z" fill="#9B9B9B"/>
<path d="M30.4283 15.2956C30.6316 14.7473 31.4136 12.6251 31.4136 12.6251C31.4034 12.6455 31.6165 12.0667 31.7383 11.7113L31.9108 12.5337C31.9108 12.5337 32.3782 14.8184 32.4797 15.2956C32.094 15.2956 30.9158 15.2956 30.4283 15.2956ZM33.4747 9.13232H31.5657C30.9771 9.13232 30.5298 9.3048 30.2758 9.92424L26.61 18.6768H29.1996C29.1996 18.6768 29.6259 17.4987 29.7175 17.245C30.0016 17.245 32.5207 17.245 32.8861 17.245C32.957 17.5801 33.1806 18.6768 33.1806 18.6768H35.4657L33.4747 9.13232Z" fill="#9B9B9B"/>
<path d="M13.6724 9.13232L11.2555 15.6408L10.9914 14.3208C10.5445 12.7977 9.14315 11.1429 7.57928 10.3201L9.79309 18.6668H12.4029L16.282 9.13232H13.6724Z" fill="#9B9B9B"/>
<path d="M9.01128 9.13232H5.04062L5 9.32518C8.09736 10.1172 10.1487 12.0264 10.9915 14.3212L10.1283 9.93463C9.98619 9.32504 9.54948 9.15243 9.01128 9.13232Z" fill="#DFDFDF"/>
</svg>
