<svg width="30" height="13" viewBox="0 0 30 13" fill="none" xmlns="http://www.w3.org/2000/svg">
<path d="M5.48157 2.50657C5.12996 2.9119 4.5674 3.23159 4.00483 3.18592C3.93451 2.63787 4.20994 2.05557 4.53224 1.69591C4.88384 1.27917 5.49915 0.982308 5.99725 0.959473C6.05585 1.53036 5.82731 2.08982 5.48157 2.50657ZM5.99139 3.29439C5.17684 3.24872 4.4795 3.74539 4.09274 3.74539C3.70011 3.74539 3.10825 3.31723 2.46364 3.32864C1.62566 3.34006 0.84627 3.80248 0.418486 4.53892C-0.460521 6.0118 0.189944 8.19258 1.03965 9.39144C1.45571 9.98516 1.95382 10.636 2.61014 10.6131C3.23131 10.5903 3.47743 10.2192 4.22752 10.2192C4.98346 10.2192 5.20028 10.6131 5.85661 10.6017C6.53637 10.5903 6.96416 10.008 7.38022 9.41428C7.85489 8.74063 8.04827 8.08412 8.05999 8.04986C8.04827 8.03844 6.74734 7.55319 6.73562 6.09173C6.7239 4.87003 7.76112 4.28773 7.808 4.25348C7.222 3.40857 6.30783 3.31723 5.99139 3.29439ZM10.697 1.63883V10.5389H12.1151V7.4961H14.0783C15.8714 7.4961 17.1313 6.29725 17.1313 4.56176C17.1313 2.82627 15.8949 1.63883 14.1251 1.63883H10.697ZM12.1151 2.80343H13.7501C14.9807 2.80343 15.6839 3.44282 15.6839 4.56747C15.6839 5.69211 14.9807 6.33721 13.7442 6.33721H12.1151V2.80343ZM19.7215 10.6074C20.6122 10.6074 21.4385 10.1678 21.8135 9.47137H21.8428V10.5389H23.1555V6.10885C23.1555 4.82436 22.1007 3.99658 20.4774 3.99658C18.9714 3.99658 17.858 4.83578 17.817 5.98897H19.0945C19.1999 5.44092 19.7215 5.08126 20.4364 5.08126C21.3037 5.08126 21.7901 5.47517 21.7901 6.2002V6.69116L20.0203 6.79392C18.3737 6.89097 17.4829 7.54748 17.4829 8.68925C17.4829 9.84244 18.403 10.6074 19.7215 10.6074ZM20.1024 9.55129C19.3464 9.55129 18.8659 9.19734 18.8659 8.655C18.8659 8.09553 19.3289 7.77013 20.2137 7.71875L21.7901 7.6217V8.12408C21.7901 8.95757 21.0634 9.55129 20.1024 9.55129ZM24.9076 12.9595C26.2906 12.9595 26.9411 12.4457 27.5095 10.8872L30 4.08221H28.5584L26.8883 9.34006H26.859L25.1889 4.08221H23.7063L26.1089 10.5618L25.98 10.9557C25.7632 11.6236 25.4116 11.8805 24.7846 11.8805C24.6732 11.8805 24.4564 11.8691 24.3685 11.8577V12.9252C24.4505 12.9481 24.8021 12.9595 24.9076 12.9595Z" fill="#9B9B9B"/>
</svg>
