<svg width="36" height="24" viewBox="0 0 36 24" fill="none" xmlns="http://www.w3.org/2000/svg">
<g filter="url(#filter0_bdi_332_7901)">
<rect x="12" width="24" height="24" rx="12" fill="#2F3C50" fill-opacity="0.51"/>
<rect x="12.5" y="0.5" width="23" height="23" rx="11.5" stroke="url(#paint0_linear_332_7901)"/>
</g>
<path d="M21 15.474C21 16.5939 21 17.1538 21.2268 17.4304C21.4238 17.6706 21.7214 17.8056 22.0319 17.7957C22.3894 17.7843 22.8108 17.4156 23.6536 16.6781L27.6239 13.2041C28.099 12.7884 28.3366 12.5805 28.4239 12.3342C28.5006 12.118 28.5006 11.882 28.4239 11.6658C28.3366 11.4195 28.099 11.2116 27.6239 10.7959L23.6536 7.3219C22.8108 6.58443 22.3894 6.2157 22.0319 6.20428C21.7214 6.19435 21.4238 6.32937 21.2268 6.56963C21 6.84615 21 7.40611 21 8.52603L21 15.474Z" fill="white"/>
<defs>
<filter id="filter0_bdi_332_7901" x="0" y="-8" width="48" height="48" filterUnits="userSpaceOnUse" color-interpolation-filters="sRGB">
<feFlood flood-opacity="0" result="BackgroundImageFix"/>
<feGaussianBlur in="BackgroundImageFix" stdDeviation="4"/>
<feComposite in2="SourceAlpha" operator="in" result="effect1_backgroundBlur_332_7901"/>
<feColorMatrix in="SourceAlpha" type="matrix" values="0 0 0 0 0 0 0 0 0 0 0 0 0 0 0 0 0 0 127 0" result="hardAlpha"/>
<feOffset dy="4"/>
<feGaussianBlur stdDeviation="6"/>
<feColorMatrix type="matrix" values="0 0 0 0 0.109804 0 0 0 0 0.145098 0 0 0 0 0.172549 0 0 0 0.05 0"/>
<feBlend mode="normal" in2="effect1_backgroundBlur_332_7901" result="effect2_dropShadow_332_7901"/>
<feBlend mode="normal" in="SourceGraphic" in2="effect2_dropShadow_332_7901" result="shape"/>
<feColorMatrix in="SourceAlpha" type="matrix" values="0 0 0 0 0 0 0 0 0 0 0 0 0 0 0 0 0 0 127 0" result="hardAlpha"/>
<feOffset/>
<feGaussianBlur stdDeviation="12"/>
<feComposite in2="hardAlpha" operator="arithmetic" k2="-1" k3="1"/>
<feColorMatrix type="matrix" values="0 0 0 0 0.482353 0 0 0 0 0.380392 0 0 0 0 1 0 0 0 0.24 0"/>
<feBlend mode="normal" in2="shape" result="effect3_innerShadow_332_7901"/>
</filter>
<linearGradient id="paint0_linear_332_7901" x1="13.3505" y1="0.871286" x2="44.0744" y2="32.3884" gradientUnits="userSpaceOnUse">
<stop stop-color="white" stop-opacity="0.17"/>
<stop offset="1" stop-color="white" stop-opacity="0"/>
</linearGradient>
</defs>
</svg>
