<svg width="39" height="39" viewBox="0 0 39 39" fill="none" xmlns="http://www.w3.org/2000/svg">
<g filter="url(#filter0_bii_323_21476)">
<path d="M0.75 11.8374C0.75 7.77598 0.75 5.74525 1.54041 4.19399C2.23568 2.82945 3.34508 1.72005 4.70961 1.02479C6.26088 0.234375 8.2916 0.234375 12.3531 0.234375L27.1469 0.234375C31.2084 0.234375 33.2391 0.234375 34.7904 1.02479C36.1549 1.72005 37.2643 2.82945 37.9596 4.19399C38.75 5.74525 38.75 7.77598 38.75 11.8374V26.6313C38.75 30.6928 38.75 32.7235 37.9596 34.2748C37.2643 35.6393 36.1549 36.7487 34.7904 37.444C33.2391 38.2344 31.2084 38.2344 27.1469 38.2344H12.3531C8.2916 38.2344 6.26088 38.2344 4.70961 37.444C3.34508 36.7487 2.23568 35.6393 1.54041 34.2748C0.75 32.7235 0.75 30.6928 0.75 26.6313L0.75 11.8374Z" fill="white" fill-opacity="0.03"/>
</g>
<g clip-path="url(#clip0_323_21476)">
<path d="M19.3892 26.96C20.1047 26.96 20.6847 26.3801 20.6847 25.6646C20.6847 24.9491 20.1047 24.3691 19.3892 24.3691C18.6737 24.3691 18.0938 24.9491 18.0938 25.6646C18.0938 26.3801 18.6737 26.96 19.3892 26.96Z" fill="#1EF2F6"/>
<path d="M19.3892 14.4366C20.1047 14.4366 20.6847 13.8566 20.6847 13.1412C20.6847 12.4257 20.1047 11.8457 19.3892 11.8457C18.6737 11.8457 18.0938 12.4257 18.0938 13.1412C18.0938 13.8566 18.6737 14.4366 19.3892 14.4366Z" fill="#1EF2F6"/>
<path d="M22.7856 22.8046C22.6044 22.9858 22.4811 23.2166 22.4311 23.4679C22.3812 23.7192 22.4068 23.9797 22.5049 24.2163C22.603 24.453 22.769 24.6553 22.982 24.7977C23.1951 24.94 23.4455 25.016 23.7017 25.016C23.9579 25.016 24.2084 24.94 24.4214 24.7977C24.6344 24.6553 24.8005 24.453 24.8985 24.2163C24.9966 23.9797 25.0223 23.7192 24.9723 23.4679C24.9223 23.2166 24.799 22.9858 24.6179 22.8046C24.3747 22.562 24.0452 22.4258 23.7017 22.4258C23.3582 22.4258 23.0287 22.562 22.7856 22.8046Z" fill="#1EF2F6"/>
<path d="M26.159 13.0127C25.3129 12.0973 24.286 11.3675 23.1434 10.8694C22.0007 10.3714 20.7671 10.1159 19.5206 10.1192C18.2372 10.1221 16.9689 10.3961 15.7989 10.9234C14.6288 11.4507 13.5834 12.2194 12.7311 13.1789C12.1878 13.8104 11.8714 14.6056 11.8323 15.4377C11.7931 16.2699 12.0334 17.0912 12.515 17.771C12.9815 18.4011 13.548 18.9506 14.1919 19.3979C15.4732 20.3874 16.4853 21.1689 15.4892 23.8624L15.4766 23.8929C15.2836 24.3746 15.203 24.894 15.241 25.4116C15.279 25.9292 15.4346 26.4313 15.6958 26.8797C15.9566 27.3373 16.3183 27.7294 16.7534 28.0262C17.1885 28.323 17.6856 28.5166 18.2069 28.5923C18.6424 28.6556 19.082 28.6874 19.5221 28.6874C19.7572 28.6874 19.9926 28.6784 20.2283 28.6604C24.7242 28.3166 28.3444 24.615 28.6495 20.05C28.7439 18.7685 28.5713 17.4814 28.1426 16.2701C27.7139 15.0587 27.0384 13.9495 26.159 13.0127ZM22.4837 13.8637C22.7252 13.6225 23.0328 13.4582 23.3677 13.3917C23.7025 13.3252 24.0496 13.3595 24.365 13.4902C24.6803 13.6209 24.9499 13.8422 25.1395 14.1261C25.3291 14.41 25.4303 14.7437 25.4303 15.0851C25.4303 15.4265 25.3291 15.7602 25.1395 16.0441C24.9499 16.3279 24.6803 16.5492 24.365 16.6799C24.0496 16.8107 23.7025 16.8449 23.3677 16.7785C23.0328 16.712 22.7252 16.5477 22.4837 16.3064C22.1603 15.9822 21.9787 15.543 21.9787 15.0851C21.9787 14.6272 22.1603 14.188 22.4837 13.8637ZM16.2902 16.3064C16.0487 16.548 15.7409 16.7125 15.4058 16.7792C15.0708 16.8458 14.7235 16.8116 14.4078 16.6809C14.0922 16.5502 13.8225 16.3288 13.6327 16.0447C13.4429 15.7607 13.3415 15.4267 13.3415 15.0851C13.3415 14.7435 13.4429 14.4095 13.6327 14.1254C13.8225 13.8414 14.0922 13.62 14.4078 13.4893C14.7235 13.3585 15.0708 13.3243 15.4058 13.391C15.7409 13.4577 16.0487 13.6222 16.2902 13.8637C16.4512 14.0238 16.579 14.2141 16.6662 14.4237C16.7534 14.6333 16.7983 14.8581 16.7983 15.0851C16.7983 15.3121 16.7534 15.5369 16.6662 15.7465C16.579 15.9561 16.4512 16.1464 16.2902 16.3064ZM19.387 27.3919C19.0453 27.3919 18.7114 27.2906 18.4273 27.1008C18.1433 26.911 17.9219 26.6412 17.7912 26.3256C17.6604 26.01 17.6262 25.6627 17.6929 25.3277C17.7595 24.9926 17.924 24.6848 18.1656 24.4433C18.4072 24.2017 18.7149 24.0372 19.05 23.9705C19.385 23.9039 19.7323 23.9381 20.048 24.0688C20.3636 24.1996 20.6333 24.421 20.8231 24.705C21.0129 24.9891 21.1142 25.323 21.1142 25.6646C21.1137 26.1226 20.9316 26.5616 20.6077 26.8854C20.2839 27.2092 19.8449 27.3914 19.387 27.3919ZM19.387 14.8692C19.0453 14.8692 18.7114 14.7679 18.4273 14.5781C18.1433 14.3883 17.9219 14.1185 17.7912 13.8029C17.6604 13.4873 17.6262 13.14 17.6929 12.8049C17.7595 12.4699 17.924 12.1621 18.1656 11.9205C18.4072 11.679 18.7149 11.5145 19.05 11.4478C19.385 11.3812 19.7323 11.4154 20.048 11.5461C20.3636 11.6768 20.6333 11.8982 20.8231 12.1823C21.0129 12.4663 21.1142 12.8003 21.1142 13.1419C21.1137 13.5998 20.9316 14.0389 20.6077 14.3627C20.2839 14.6865 19.8449 14.8686 19.387 14.8692ZM24.9266 24.9428C24.685 25.1844 24.3773 25.3489 24.0422 25.4155C23.7071 25.4822 23.3598 25.448 23.0442 25.3172C22.7286 25.1865 22.4588 24.9651 22.269 24.6811C22.0792 24.397 21.9779 24.0631 21.9779 23.7214C21.9779 23.3798 22.0792 23.0459 22.269 22.7618C22.4588 22.4778 22.7286 22.2564 23.0442 22.1256C23.3598 21.9949 23.7071 21.9607 24.0422 22.0274C24.3773 22.094 24.685 22.2585 24.9266 22.5001C25.0876 22.6601 25.2154 22.8504 25.3026 23.06C25.3898 23.2696 25.4347 23.4944 25.4347 23.7214C25.4347 23.9485 25.3898 24.1732 25.3026 24.3828C25.2154 24.5924 25.0876 24.7827 24.9266 24.9428ZM25.6483 21.1305C25.3067 21.1305 24.9728 21.0292 24.6887 20.8394C24.4047 20.6496 24.1833 20.3799 24.0525 20.0643C23.9218 19.7486 23.8876 19.4013 23.9542 19.0663C24.0209 18.7312 24.1854 18.4235 24.427 18.1819C24.6685 17.9403 24.9763 17.7758 25.3114 17.7092C25.6464 17.6425 25.9937 17.6767 26.3093 17.8075C26.6249 17.9382 26.8947 18.1596 27.0845 18.4436C27.2743 18.7277 27.3756 19.0616 27.3756 19.4033C27.3751 19.8612 27.1929 20.3002 26.8691 20.624C26.5453 20.9479 26.1063 21.13 25.6483 21.1305Z" fill="#1EF2F6"/>
<path d="M15.0672 13.791C14.7677 13.7913 14.4775 13.8953 14.2461 14.0855C14.0147 14.2758 13.8564 14.5403 13.7981 14.8341C13.7399 15.128 13.7854 15.4329 13.9267 15.697C14.0681 15.9611 14.2967 16.168 14.5735 16.2824C14.8503 16.3969 15.1583 16.4118 15.4449 16.3247C15.7315 16.2376 15.979 16.0538 16.1453 15.8046C16.3116 15.5554 16.3863 15.2563 16.3568 14.9582C16.3273 14.6602 16.1953 14.3815 15.9834 14.1698C15.8632 14.0495 15.7203 13.954 15.5631 13.889C15.4059 13.824 15.2374 13.7907 15.0672 13.791Z" fill="#1EF2F6"/>
<path d="M25.647 20.6983C26.3625 20.6983 26.9425 20.1183 26.9425 19.4029C26.9425 18.6874 26.3625 18.1074 25.647 18.1074C24.9316 18.1074 24.3516 18.6874 24.3516 19.4029C24.3516 20.1183 24.9316 20.6983 25.647 20.6983Z" fill="#1EF2F6"/>
<path d="M24.6179 16.0004C24.799 15.8192 24.9223 15.5884 24.9723 15.3371C25.0223 15.0858 24.9966 14.8254 24.8985 14.5887C24.8005 14.352 24.6344 14.1497 24.4214 14.0074C24.2084 13.865 23.9579 13.7891 23.7017 13.7891C23.4455 13.7891 23.1951 13.865 22.982 14.0074C22.769 14.1497 22.603 14.352 22.5049 14.5887C22.4068 14.8254 22.3812 15.0858 22.4311 15.3371C22.4811 15.5884 22.6044 15.8192 22.7856 16.0004C23.0287 16.243 23.3582 16.3793 23.7017 16.3793C24.0452 16.3793 24.3747 16.243 24.6179 16.0004Z" fill="#1EF2F6"/>
</g>
<defs>
<filter id="filter0_bii_323_21476" x="-3.25" y="-3.76562" width="46" height="46.8999" filterUnits="userSpaceOnUse" color-interpolation-filters="sRGB">
<feFlood flood-opacity="0" result="BackgroundImageFix"/>
<feGaussianBlur in="BackgroundImageFix" stdDeviation="2"/>
<feComposite in2="SourceAlpha" operator="in" result="effect1_backgroundBlur_323_21476"/>
<feBlend mode="normal" in="SourceGraphic" in2="effect1_backgroundBlur_323_21476" result="shape"/>
<feColorMatrix in="SourceAlpha" type="matrix" values="0 0 0 0 0 0 0 0 0 0 0 0 0 0 0 0 0 0 127 0" result="hardAlpha"/>
<feOffset/>
<feGaussianBlur stdDeviation="19.5996"/>
<feComposite in2="hardAlpha" operator="arithmetic" k2="-1" k3="1"/>
<feColorMatrix type="matrix" values="0 0 0 0 1 0 0 0 0 1 0 0 0 0 1 0 0 0 0.08 0"/>
<feBlend mode="normal" in2="shape" result="effect2_innerShadow_323_21476"/>
<feColorMatrix in="SourceAlpha" type="matrix" values="0 0 0 0 0 0 0 0 0 0 0 0 0 0 0 0 0 0 127 0" result="hardAlpha"/>
<feOffset dy="4.89991"/>
<feGaussianBlur stdDeviation="4.95"/>
<feComposite in2="hardAlpha" operator="arithmetic" k2="-1" k3="1"/>
<feColorMatrix type="matrix" values="0 0 0 0 1 0 0 0 0 1 0 0 0 0 1 0 0 0 0.16 0"/>
<feBlend mode="normal" in2="effect2_innerShadow_323_21476" result="effect3_innerShadow_323_21476"/>
</filter>
<clipPath id="clip0_323_21476">
<rect width="19" height="19" fill="white" transform="translate(10.75 9.90234)"/>
</clipPath>
</defs>
</svg>
