<svg width="39" height="39" viewBox="0 0 39 39" fill="none" xmlns="http://www.w3.org/2000/svg">
<g filter="url(#filter0_bii_323_21441)">
<path d="M0.75 11.8374C0.75 7.77598 0.75 5.74525 1.54041 4.19399C2.23568 2.82945 3.34508 1.72005 4.70961 1.02479C6.26088 0.234375 8.2916 0.234375 12.3531 0.234375L27.1469 0.234375C31.2084 0.234375 33.2391 0.234375 34.7904 1.02479C36.1549 1.72005 37.2643 2.82945 37.9596 4.19399C38.75 5.74525 38.75 7.77598 38.75 11.8374V26.6313C38.75 30.6928 38.75 32.7235 37.9596 34.2748C37.2643 35.6393 36.1549 36.7487 34.7904 37.444C33.2391 38.2344 31.2084 38.2344 27.1469 38.2344H12.3531C8.2916 38.2344 6.26088 38.2344 4.70961 37.444C3.34508 36.7487 2.23568 35.6393 1.54041 34.2748C0.75 32.7235 0.75 30.6928 0.75 26.6313L0.75 11.8374Z" fill="white" fill-opacity="0.03"/>
</g>
<g clip-path="url(#clip0_323_21441)">
<path d="M25.5 16.7773C25.5 19.4023 22.875 21.9863 22.875 24.6523H17.625C17.625 22.0684 15 19.4023 15 16.7773C15 13.878 17.3507 11.5273 20.25 11.5273C23.1493 11.5273 25.5 13.8781 25.5 16.7773ZM22.2188 27.2773H18.2812C17.9185 27.2773 17.625 27.5709 17.625 27.9336C17.625 28.2963 17.9185 28.5898 18.2812 28.5898H18.4018C18.6722 29.3538 19.3938 29.9023 20.25 29.9023C21.1062 29.9023 21.8279 29.3538 22.0983 28.5898H22.2188C22.5815 28.5898 22.875 28.2963 22.875 27.9336C22.875 27.5709 22.5815 27.2773 22.2188 27.2773ZM22.2188 25.3086H18.2812C17.9185 25.3086 17.625 25.6021 17.625 25.9648C17.625 26.3276 17.9185 26.6211 18.2812 26.6211H22.2188C22.5815 26.6211 22.875 26.3276 22.875 25.9648C22.875 25.6021 22.5815 25.3086 22.2188 25.3086ZM13.1018 13.4089L14.2797 14.0883C14.4617 13.6858 14.6834 13.309 14.9398 12.9539L13.758 12.2708L13.1018 13.4089ZM20.9062 10.2815V8.90234H19.5938V10.2815C19.8129 10.2584 20.0244 10.2148 20.25 10.2148C20.4756 10.2148 20.6871 10.2584 20.9062 10.2815ZM17.5609 10.807L16.8816 9.6291L15.7434 10.2853L16.4266 11.4671C16.7816 11.2107 17.1584 10.989 17.5609 10.807ZM27.3982 13.4089L26.742 12.2708L25.5602 12.9539C25.8166 13.3089 26.0396 13.6858 26.2216 14.0882L27.3982 13.4089ZM24.7553 10.2853L23.6197 9.6291L22.9403 10.807C23.3415 10.9891 23.7196 11.2108 24.0734 11.4659L24.7553 10.2853ZM13.6875 16.7773C13.6875 16.5518 13.7311 16.3403 13.7542 16.1211H12.375V17.4336H13.7567C13.7311 17.2157 13.6875 17.0004 13.6875 16.7773ZM26.7458 16.1211C26.7689 16.3403 26.8125 16.5518 26.8125 16.7773C26.8125 17.0004 26.7689 17.2157 26.7433 17.4336H28.125V16.1211H26.7458ZM25.6679 20.6623L26.742 21.2827L27.3983 20.1458L26.2062 19.4587C26.0409 19.8663 25.8614 20.2662 25.6679 20.6623ZM13.1018 20.1458L13.758 21.2827L14.8231 20.6687C14.6309 20.2713 14.4514 19.8689 14.2887 19.4613L13.1018 20.1458Z" fill="#1EF2F6"/>
</g>
<defs>
<filter id="filter0_bii_323_21441" x="-3.25" y="-3.76562" width="46" height="46.8999" filterUnits="userSpaceOnUse" color-interpolation-filters="sRGB">
<feFlood flood-opacity="0" result="BackgroundImageFix"/>
<feGaussianBlur in="BackgroundImageFix" stdDeviation="2"/>
<feComposite in2="SourceAlpha" operator="in" result="effect1_backgroundBlur_323_21441"/>
<feBlend mode="normal" in="SourceGraphic" in2="effect1_backgroundBlur_323_21441" result="shape"/>
<feColorMatrix in="SourceAlpha" type="matrix" values="0 0 0 0 0 0 0 0 0 0 0 0 0 0 0 0 0 0 127 0" result="hardAlpha"/>
<feOffset/>
<feGaussianBlur stdDeviation="19.5996"/>
<feComposite in2="hardAlpha" operator="arithmetic" k2="-1" k3="1"/>
<feColorMatrix type="matrix" values="0 0 0 0 1 0 0 0 0 1 0 0 0 0 1 0 0 0 0.08 0"/>
<feBlend mode="normal" in2="shape" result="effect2_innerShadow_323_21441"/>
<feColorMatrix in="SourceAlpha" type="matrix" values="0 0 0 0 0 0 0 0 0 0 0 0 0 0 0 0 0 0 127 0" result="hardAlpha"/>
<feOffset dy="4.89991"/>
<feGaussianBlur stdDeviation="4.95"/>
<feComposite in2="hardAlpha" operator="arithmetic" k2="-1" k3="1"/>
<feColorMatrix type="matrix" values="0 0 0 0 1 0 0 0 0 1 0 0 0 0 1 0 0 0 0.16 0"/>
<feBlend mode="normal" in2="effect2_innerShadow_323_21441" result="effect3_innerShadow_323_21441"/>
</filter>
<clipPath id="clip0_323_21441">
<rect width="21" height="21" fill="white" transform="translate(9.75 8.90234)"/>
</clipPath>
</defs>
</svg>
