<svg width="29" height="36" viewBox="0 0 29 36" fill="none" xmlns="http://www.w3.org/2000/svg">
<path d="M14.5 35.203C14.7944 35.0558 22.4493 31.7436 24.8782 29.7563C27.3807 27.6954 28.7056 24.7512 28.7056 21.2182V4.65729L28.4848 4.58368C22.3757 1.2715 14.7944 1.49231 14.4264 1.49231C14.132 1.49231 6.55078 1.2715 0.441642 4.58368L0.294434 4.65729V21.2918C0.294434 24.8248 1.61931 27.769 4.12184 29.8299C6.55078 31.8172 14.2056 35.1294 14.5 35.203Z" fill="#341B14"/>
<path d="M14.5 35.5708C14.5 35.5708 6.40355 32.0378 3.90102 30.0505C1.25127 27.8424 0 24.8246 0 21.3653V4.14191C6.40355 0.682516 14.5 0.976932 14.5 0.976932C14.5 0.976932 22.5964 0.682516 29 4.14191V21.2917C29 24.751 27.7487 27.7688 25.099 29.9769C22.5964 32.0378 14.5 35.5708 14.5 35.5708ZM1.17766 21.3653C1.17766 24.6038 2.35533 27.2536 4.63706 29.0937C6.69797 30.7866 12.8071 33.5099 14.5 34.246C16.1929 33.5099 22.3756 30.713 24.3629 29.0937C26.6447 27.2536 27.8223 24.5302 27.8223 21.3653V4.43632C19.2843 3.62668 9.1269 4.0683 1.17766 11.4287V21.3653Z" fill="#FFB406"/>
<path d="M22.6701 18.9361C23.7741 19.5986 24.2158 20.0402 24.2894 20.8498C24.2894 21.7331 23.7005 22.2483 22.7437 22.2483C21.934 22.2483 20.9772 21.8067 20.3147 21.2179V23.5732C21.1244 24.0148 22.0812 24.3828 23.1117 24.3828C25.6142 24.3828 26.7919 22.6163 26.7919 20.997C26.8655 19.525 26.4239 18.3473 24.2894 17.096C23.3325 16.5072 22.5965 16.1392 22.5965 15.2559C22.5965 14.3727 23.4061 14.0047 24.0685 14.0047C24.9518 14.0047 25.835 14.5199 26.3503 15.0351V12.827C25.9086 12.459 24.9518 11.9437 23.5533 12.0173C21.8604 12.0909 20.0939 13.2686 20.0939 15.3295C20.1675 16.728 20.6092 17.7585 22.6701 18.9361ZM13.9848 24.2356C14.2056 24.3092 14.5736 24.3828 15.1625 24.3828C18.033 24.3828 19.6523 21.8067 19.6523 18.1265C19.6523 14.3727 17.9594 12.0909 14.9416 12.0909C13.5432 12.0909 12.4391 12.3854 11.4823 12.9742V29.6087H13.9848V24.2356ZM13.9848 14.2255C14.2056 14.1519 14.5736 14.0047 14.868 14.0047C16.3401 14.0047 16.929 15.1823 16.929 18.0529C16.929 20.8498 16.1929 22.1747 14.7208 22.1747C14.3528 22.1747 14.0584 22.1011 13.9112 22.0275V14.2255H13.9848ZM6.25637 24.3828C7.80205 24.3828 9.12692 24.0148 10.0838 23.3524V12.2382H7.50763V21.8803C7.21322 22.1011 6.8452 22.1747 6.32997 22.1747C5.1523 22.1747 5.0051 21.0706 5.0051 20.4082V12.2382H2.42896V20.261C2.42896 22.9844 3.75383 24.3828 6.25637 24.3828Z" fill="#FFB406"/>
</svg>
