<svg width="70" height="22" viewBox="0 0 70 22" fill="none" xmlns="http://www.w3.org/2000/svg">
<path fill-rule="evenodd" clip-rule="evenodd" d="M63.3982 20.9984L60.571 17.8484L57.7703 20.9984H51.8776L57.6366 14.5669L51.8776 8.13546H57.9547L60.8088 11.2596L63.5566 8.13546H69.4214L63.6885 14.5402L69.5017 20.9984H63.3982ZM40.5547 20.9984V0.734375H51.8776V5.25156H45.3501V8.13546H51.8776V12.4804H45.3501V16.4694H51.8776V20.9984H40.5547Z" fill="#FF7A08"/>
<path fill-rule="evenodd" clip-rule="evenodd" d="M35.7787 0.734375V9.0275H35.7244C34.6673 7.81985 33.3468 7.40035 31.8145 7.40035C28.6489 7.40035 26.2964 9.56667 25.486 12.4054C24.5537 9.27517 22.1174 7.34205 18.4696 7.34205C15.5078 7.34205 13.2008 8.69085 11.9959 10.8563V8.13502H5.9188V5.25113H12.5513V0.734375H0.5V20.9984H5.9188V12.4804H11.35C11.1863 13.1107 11.072 13.7696 11.072 14.4836C11.072 18.7106 14.321 21.6774 18.4696 21.6774C21.9586 21.6774 24.2572 20.0498 25.4736 17.0835H20.8304C20.2026 17.9764 19.7252 18.2394 18.4691 18.2394C17.0136 18.2394 15.7584 16.9783 15.7584 15.4813H25.2389C25.6514 18.836 28.2562 21.7344 31.867 21.7344C33.4258 21.7344 34.8531 20.9743 35.7244 19.6873H35.7787V20.9988H40.5533V0.734375H35.7787ZM15.9097 12.5409C16.2102 11.2534 17.2148 10.4131 18.4691 10.4131C19.851 10.4131 20.8044 11.2289 21.055 12.5409H15.9097ZM32.8791 17.9137C31.1187 17.9137 30.025 16.2831 30.025 14.5827C30.025 12.7636 30.9758 11.0145 32.8791 11.0145C34.8531 11.0145 35.6379 12.7636 35.6379 14.5827C35.6379 16.3072 34.805 17.9137 32.8791 17.9137Z" fill="white"/>
</svg>
