<svg width="30" height="36" viewBox="0 0 30 36" fill="none" xmlns="http://www.w3.org/2000/svg">
<path d="M15.0025 35.3611C15.2969 35.2122 22.9517 31.8618 25.3806 29.8515C27.8832 27.7668 29.208 24.7886 29.208 21.2148V4.46246L28.9872 4.388C22.8781 1.03754 15.2969 1.2609 14.9289 1.2609C14.6344 1.2609 7.05322 1.03754 0.944083 4.388L0.796875 4.46246V21.2892C0.796875 24.863 2.12175 27.8412 4.62429 29.926C7.05322 31.9362 14.708 35.2867 15.0025 35.3611Z" fill="#341B14"/>
<path d="M15 35.7344C15 35.7344 6.90355 32.1606 4.40102 30.1503C1.75127 27.9166 0.5 24.864 0.5 21.3646V3.94223C6.90355 0.442858 15 0.740676 15 0.740676C15 0.740676 23.0964 0.442858 29.5 3.94223V21.2902C29.5 24.7895 28.2487 27.8422 25.599 30.0758C23.0964 32.1606 15 35.7344 15 35.7344ZM1.67766 21.3646C1.67766 24.6406 2.85533 27.321 5.13706 29.1824C7.19797 30.8948 13.3071 33.6496 15 34.3942C16.6929 33.6496 22.8756 30.8204 24.8629 29.1824C27.1447 27.321 28.3223 24.5662 28.3223 21.3646V4.24005C19.7843 3.42104 9.6269 3.86777 1.67766 11.3132V21.3646Z" fill="#FFB406"/>
<path d="M23.1708 18.9083C24.2749 19.5784 24.7165 20.0251 24.7901 20.8441C24.7901 21.7375 24.2013 22.2587 23.2444 22.2587C22.4348 22.2587 21.4779 21.812 20.8155 21.2164V23.5989C21.6251 24.0456 22.582 24.4179 23.6124 24.4179C26.115 24.4179 27.2926 22.631 27.2926 20.993C27.3662 19.5039 26.9246 18.3126 24.7901 17.0469C23.8332 16.4513 23.0972 16.079 23.0972 15.1855C23.0972 14.2921 23.9068 13.9198 24.5693 13.9198C25.4525 13.9198 26.3358 14.441 26.851 14.9622V12.7285C26.4094 12.3562 25.4525 11.8351 24.054 11.9095C22.3612 11.984 20.5947 13.1752 20.5947 15.26C20.6683 16.6746 21.1099 17.717 23.1708 18.9083ZM14.4855 24.269C14.7063 24.3435 15.0744 24.4179 15.6632 24.4179C18.5337 24.4179 20.153 21.812 20.153 18.0893C20.153 14.2921 18.4601 11.984 15.4424 11.984C14.0439 11.984 12.9398 12.2818 11.983 12.8774V29.7042H14.4855V24.269ZM14.4855 14.1432C14.7063 14.0687 15.0744 13.9198 15.3688 13.9198C16.8409 13.9198 17.4297 15.1111 17.4297 18.0148C17.4297 20.8441 16.6936 22.1843 15.2216 22.1843C14.8535 22.1843 14.5591 22.1098 14.4119 22.0354V14.1432H14.4855ZM6.7571 24.4179C8.30278 24.4179 9.62766 24.0456 10.5845 23.3755V12.1329H8.00837V21.8864C7.71395 22.1098 7.34593 22.1843 6.8307 22.1843C5.65304 22.1843 5.50583 21.0674 5.50583 20.3974V12.1329H2.92969V20.2484C2.92969 23.0033 4.25456 24.4179 6.7571 24.4179Z" fill="#FFB406"/>
</svg>
