<svg width="75" height="24" viewBox="0 0 75 24" fill="none" xmlns="http://www.w3.org/2000/svg">
<path d="M74.4997 0.734375V17.1554H0.5V0.734375H74.4997Z" fill="#FFCC00"/>
<path d="M13.5127 3.68359L11.1484 6.91343H24.0338C24.6851 6.91343 24.6765 7.16228 24.3581 7.59594C24.0348 8.03616 23.4938 8.80175 23.1644 9.24892C22.9974 9.47585 22.6952 9.88929 23.6965 9.88929H28.9657C28.9657 9.88929 29.8151 8.72719 30.5269 7.75554C31.4955 6.43397 30.6109 3.68373 27.1484 3.68373L13.5127 3.68359Z" fill="#D2002E"/>
<path d="M10.1927 14.206L14.9415 7.71787H20.8343C21.4856 7.71787 21.4771 7.96672 21.1588 8.40038C20.8355 8.8406 20.2855 9.59805 19.9562 10.0452C19.789 10.2722 19.487 10.6863 20.4881 10.6863H28.3827C27.7262 11.5907 25.5965 14.2059 21.7724 14.2059L10.1927 14.206ZM37.3889 10.6855L34.8137 14.2058H28.0208C28.0208 14.2058 30.5945 10.6863 30.5967 10.6863L37.3889 10.6855ZM47.7953 9.88929H31.1803L35.7239 3.68359H42.5148L39.9105 7.24195H42.9418L45.5471 3.68359H52.3373L47.7953 9.88929ZM47.2121 10.6864L44.6358 14.206H37.8453C37.8453 14.206 40.4191 10.6864 40.4213 10.6864H47.2121ZM0.5 12.0742H10.5073L9.96066 12.822H0.5V12.0742ZM0.5 10.6864H11.524L10.9763 11.4331H0.5V10.6864ZM0.5 13.4629H9.49115L8.94711 14.206H0.5V13.4629ZM74.5 12.822H64.5312L65.0784 12.0744H74.5V12.822ZM74.5 14.206L63.5178 14.2071L64.0618 13.4629H74.5V14.206ZM66.0938 10.6864H74.5V11.4335L65.5471 11.4341L66.0938 10.6864ZM61.742 3.68359L57.1992 9.88916H50.0033C50.0033 9.88916 54.5473 3.68359 54.5496 3.68359H61.742ZM49.4211 10.6864C49.4211 10.6864 48.9247 11.3685 48.6837 11.6964C47.8307 12.8556 48.5848 14.206 51.3683 14.206H62.2743L64.8504 10.6864H49.4211Z" fill="#D2002E"/>
<path d="M0.5 19.8242H74.5V20.1962H0.5V19.8242ZM0.5 21.56H74.5V21.932H0.5V21.56ZM0.5 23.2954H74.5V23.6674H0.5V23.2954Z" fill="#FFCC00"/>
<path d="M25.3516 23.6688H27.5786L27.9341 23.1844H26.2767L27.2061 21.9181H28.7154L29.071 21.4335H27.5617L28.3858 20.3105H30.0433L30.3988 19.8259H28.1719L25.3516 23.6688ZM28.0847 23.6688H28.7681L31.0977 22.0392L31.0748 23.6688H31.7925L31.7978 21.6594L34.4817 19.8259H33.8325L31.696 21.3014L31.7194 19.8259H31.0359L31.0152 21.6704L28.0847 23.6688ZM35.3439 20.3105H35.828C36.1812 20.3105 36.5758 20.4866 36.2202 20.9711C35.8485 21.4775 35.279 21.6482 34.9258 21.6482H34.3619L35.3439 20.3105ZM32.3096 23.6688H32.8791L34.0063 22.1328H34.5645C35.2821 22.1328 36.1935 21.83 36.8197 20.9765C37.4622 20.101 36.9864 19.8257 36.1721 19.8257H35.1298L32.3096 23.6688ZM35.5894 23.6688H36.159L37.4116 21.962H37.7531C38.0549 21.962 38.2431 21.962 38.145 22.3364L37.7766 23.6688H38.426L38.7975 22.1382C38.8459 21.9015 38.8213 21.819 38.6929 21.7527L38.701 21.7417C39.2191 21.6645 39.8202 21.3343 40.1637 20.8662C40.8384 19.9469 40.1699 19.8257 39.3837 19.8257H38.4098L35.5894 23.6688ZM38.6238 20.3105H39.1704C39.6946 20.3105 39.8062 20.5307 39.5518 20.8774C39.2811 21.2465 38.7924 21.4775 38.2512 21.4775H37.7671L38.6238 20.3105ZM39.0157 23.6688H41.2428L41.5981 23.1844H39.9409L40.8701 21.9181H42.3796L42.7349 21.4335H41.2257L42.0499 20.3105H43.7073L44.063 19.8259H41.8361L39.0157 23.6688ZM46.8063 19.8974C46.6016 19.8039 46.3205 19.7598 46.0585 19.7598C45.3409 19.7598 44.5161 20.1233 44.015 20.806C43.1382 22.0008 45.0207 21.764 44.3902 22.6229C44.0589 23.0741 43.4739 23.2505 43.1494 23.2505C42.8587 23.2505 42.5979 23.1403 42.4609 23.0631L42.0283 23.5752C42.2297 23.6578 42.4467 23.735 42.7257 23.735C43.523 23.735 44.4165 23.4097 45.0184 22.5894C45.9477 21.3234 44.1136 21.4937 44.6552 20.7562C44.9503 20.3543 45.407 20.2442 45.7259 20.2442C46.0222 20.2442 46.145 20.294 46.3547 20.4039L46.8063 19.8974ZM49.6541 19.8974C49.4495 19.8039 49.1685 19.7598 48.9064 19.7598C48.1887 19.7598 47.3639 20.1233 46.8628 20.806C45.9861 22.0008 47.8685 21.764 47.2381 22.6229C46.9069 23.0741 46.3218 23.2505 45.9973 23.2505C45.7066 23.2505 45.4457 23.1403 45.3089 23.0631L44.8762 23.5752C45.0776 23.6578 45.2945 23.735 45.5735 23.735C46.3709 23.735 47.2642 23.4097 47.8662 22.5894C48.7955 21.3234 46.9616 21.4937 47.503 20.7562C47.798 20.3543 48.2549 20.2442 48.5738 20.2442C48.8701 20.2442 48.9932 20.294 49.2025 20.4039L49.6541 19.8974Z" fill="#D2002E"/>
</svg>
