<svg width="38" height="39" viewBox="0 0 38 39" fill="none" xmlns="http://www.w3.org/2000/svg">
<g filter="url(#filter0_bii_323_21400)">
<path d="M0 12.3374C0 8.27598 0 6.24525 0.790411 4.69399C1.48568 3.32945 2.59508 2.22005 3.95961 1.52479C5.51088 0.734375 7.5416 0.734375 11.6031 0.734375L26.3969 0.734375C30.4584 0.734375 32.4891 0.734375 34.0404 1.52479C35.4049 2.22005 36.5143 3.32945 37.2096 4.69399C38 6.24525 38 8.27598 38 12.3374V27.1313C38 31.1928 38 33.2235 37.2096 34.7748C36.5143 36.1393 35.4049 37.2487 34.0404 37.944C32.4891 38.7344 30.4584 38.7344 26.3969 38.7344H11.6031C7.5416 38.7344 5.51088 38.7344 3.95961 37.944C2.59508 37.2487 1.48568 36.1393 0.790411 34.7748C0 33.2235 0 31.1928 0 27.1313L0 12.3374Z" fill="white" fill-opacity="0.03"/>
</g>
<path d="M10.1976 12.8659C10.3295 12.7341 10.4861 12.668 10.6664 12.668H21.3332C21.5137 12.668 21.6701 12.7341 21.8019 12.8659C21.9338 12.9978 21.9998 13.1542 21.9998 13.3347V15.3348H23.6666C23.8541 15.3348 24.0574 15.3799 24.2761 15.4702C24.4949 15.5606 24.6702 15.6715 24.8021 15.8034L26.8646 17.866C26.9549 17.9563 27.0329 18.0604 27.099 18.1785C27.165 18.2963 27.2136 18.4025 27.2449 18.4961C27.2761 18.5899 27.2988 18.7183 27.3125 18.8816C27.3263 19.0449 27.3351 19.1647 27.3386 19.2411C27.3419 19.3174 27.3419 19.4494 27.3386 19.637C27.3351 19.8246 27.3333 19.946 27.3333 20.0016V23.3349C27.5138 23.3349 27.6701 23.4009 27.8021 23.533C27.934 23.6646 28 23.8211 28 24.0016C28 24.1056 27.9862 24.1978 27.9584 24.2775C27.9306 24.3574 27.8838 24.4216 27.8176 24.4703C27.7517 24.519 27.6944 24.5588 27.6458 24.5902C27.5971 24.6214 27.5155 24.6421 27.401 24.6526C27.2864 24.6631 27.2083 24.6701 27.1666 24.6736C27.1249 24.6768 27.0365 24.6768 26.9011 24.6736C26.7655 24.6701 26.6874 24.6683 26.6666 24.6683H25.9999C25.9999 25.4042 25.7395 26.0328 25.2188 26.5537C24.6979 27.0745 24.0694 27.3349 23.3333 27.3349C22.5972 27.3349 21.9687 27.0745 21.4479 26.5537C20.927 26.0328 20.6667 25.4042 20.6667 24.6683H16.6666C16.6666 25.4042 16.4061 26.0328 15.8853 26.5537C15.3647 27.0745 14.7361 27.3349 14 27.3349C13.2636 27.3349 12.6355 27.0745 12.1146 26.5537C11.5937 26.0328 11.3334 25.4042 11.3334 24.6683C11.3126 24.6683 11.2344 24.6701 11.0991 24.6736C10.9636 24.6768 10.8751 24.6768 10.8334 24.6736C10.7917 24.6701 10.7134 24.6631 10.5989 24.6526C10.4844 24.6421 10.4029 24.6214 10.3542 24.5902C10.3055 24.5589 10.2484 24.519 10.1824 24.4703C10.1164 24.4216 10.0694 24.3574 10.0417 24.2775C10.0136 24.1977 10 24.1056 10 24.0016V13.3348C9.99985 13.1542 10.0658 12.9981 10.1976 12.8659ZM22.396 25.6058C22.6597 25.8696 22.9723 26.0018 23.3334 26.0018C23.6945 26.0018 24.0071 25.8697 24.271 25.6058C24.5349 25.3421 24.6668 25.0295 24.6668 24.6684C24.6668 24.3073 24.5347 23.9945 24.271 23.7307C24.0071 23.467 23.6946 23.3349 23.3334 23.3349C22.9723 23.3349 22.6598 23.4669 22.396 23.7307C22.132 23.9945 22 24.3073 22 24.6684C22 25.0295 22.132 25.3421 22.396 25.6058ZM22 19.3348H26.0001V19.0224C26.0001 18.9321 25.9689 18.8557 25.9064 18.7932L23.8751 16.762C23.8127 16.6995 23.7361 16.6683 23.6459 16.6683H22V19.3348ZM13.0625 25.6058C13.3263 25.8696 13.6389 26.0018 14 26.0018C14.3612 26.0018 14.6738 25.8697 14.9376 25.6058C15.2015 25.3421 15.3335 25.0295 15.3335 24.6684C15.3335 24.3073 15.2015 23.9945 14.9376 23.7307C14.6738 23.467 14.3612 23.3349 14 23.3349C13.6389 23.3349 13.3263 23.4669 13.0625 23.7307C12.7987 23.9947 12.6666 24.3073 12.6666 24.6684C12.6666 25.0295 12.7985 25.3421 13.0625 25.6058Z" fill="#F045CA"/>
<defs>
<filter id="filter0_bii_323_21400" x="-4" y="-3.26562" width="46" height="46.8999" filterUnits="userSpaceOnUse" color-interpolation-filters="sRGB">
<feFlood flood-opacity="0" result="BackgroundImageFix"/>
<feGaussianBlur in="BackgroundImageFix" stdDeviation="2"/>
<feComposite in2="SourceAlpha" operator="in" result="effect1_backgroundBlur_323_21400"/>
<feBlend mode="normal" in="SourceGraphic" in2="effect1_backgroundBlur_323_21400" result="shape"/>
<feColorMatrix in="SourceAlpha" type="matrix" values="0 0 0 0 0 0 0 0 0 0 0 0 0 0 0 0 0 0 127 0" result="hardAlpha"/>
<feOffset/>
<feGaussianBlur stdDeviation="19.5996"/>
<feComposite in2="hardAlpha" operator="arithmetic" k2="-1" k3="1"/>
<feColorMatrix type="matrix" values="0 0 0 0 1 0 0 0 0 1 0 0 0 0 1 0 0 0 0.08 0"/>
<feBlend mode="normal" in2="shape" result="effect2_innerShadow_323_21400"/>
<feColorMatrix in="SourceAlpha" type="matrix" values="0 0 0 0 0 0 0 0 0 0 0 0 0 0 0 0 0 0 127 0" result="hardAlpha"/>
<feOffset dy="4.89991"/>
<feGaussianBlur stdDeviation="4.95"/>
<feComposite in2="hardAlpha" operator="arithmetic" k2="-1" k3="1"/>
<feColorMatrix type="matrix" values="0 0 0 0 1 0 0 0 0 1 0 0 0 0 1 0 0 0 0.16 0"/>
<feBlend mode="normal" in2="effect2_innerShadow_323_21400" result="effect3_innerShadow_323_21400"/>
</filter>
</defs>
</svg>
