<svg width="38" height="39" viewBox="0 0 38 39" fill="none" xmlns="http://www.w3.org/2000/svg">
<g filter="url(#filter0_bii_323_21426)">
<path d="M0 12.3374C0 8.27598 0 6.24525 0.790411 4.69399C1.48568 3.32945 2.59508 2.22005 3.95961 1.52479C5.51088 0.734375 7.5416 0.734375 11.6031 0.734375L26.3969 0.734375C30.4584 0.734375 32.4891 0.734375 34.0404 1.52479C35.4049 2.22005 36.5143 3.32945 37.2096 4.69399C38 6.24525 38 8.27598 38 12.3374V27.1313C38 31.1928 38 33.2235 37.2096 34.7748C36.5143 36.1393 35.4049 37.2487 34.0404 37.944C32.4891 38.7344 30.4584 38.7344 26.3969 38.7344H11.6031C7.5416 38.7344 5.51088 38.7344 3.95961 37.944C2.59508 37.2487 1.48568 36.1393 0.790411 34.7748C0 33.2235 0 31.1928 0 27.1313L0 12.3374Z" fill="white" fill-opacity="0.03"/>
</g>
<path d="M26.913 15.4577C25.0637 15.4577 21.981 17.6444 18.718 19.9599C15.8529 21.993 12.6051 24.2974 11.087 24.2974C8.90578 24.2974 7.13043 22.562 7.13043 20.43C7.13043 18.298 8.90578 16.5627 11.087 16.5627C11.469 16.5627 11.9862 16.7047 12.6063 16.9649L11.1842 19.5068C11.0779 19.6958 11.0949 19.9278 11.226 20.1007C11.3334 20.2433 11.503 20.324 11.6799 20.324C11.7177 20.324 11.7573 20.3201 11.7957 20.3123L16.8544 19.2787C17.015 19.2455 17.1534 19.1466 17.2331 19.0057C17.3128 18.8649 17.3258 18.6975 17.2687 18.5472L15.464 13.7638C15.3871 13.5605 15.1961 13.4196 14.9751 13.4041C14.758 13.3865 14.5438 13.5003 14.4381 13.6903L13.1489 15.9953C12.331 15.6433 11.6375 15.4577 11.087 15.4577C8.28178 15.4577 6 17.6881 6 20.43C6 23.172 8.28178 25.4023 11.087 25.4023C12.972 25.4023 16.0857 23.193 19.3821 20.8543C22.2167 18.8428 25.4305 16.5627 26.913 16.5627C29.0942 16.5627 30.8696 18.298 30.8696 20.43C30.8696 22.562 29.0942 24.2974 26.913 24.2974C26.0177 24.2974 24.391 23.5455 22.3325 22.1797C22.0748 22.0074 21.7232 22.0748 21.5474 22.3267C21.3717 22.5792 21.4395 22.9228 21.6978 23.0941C24.0061 24.6256 25.7611 25.4023 26.913 25.4023C29.7182 25.4023 32 23.172 32 20.43C32 17.6881 29.7182 15.4577 26.913 15.4577Z" fill="#FB00F2"/>
<defs>
<filter id="filter0_bii_323_21426" x="-4" y="-3.26562" width="46" height="46.8999" filterUnits="userSpaceOnUse" color-interpolation-filters="sRGB">
<feFlood flood-opacity="0" result="BackgroundImageFix"/>
<feGaussianBlur in="BackgroundImageFix" stdDeviation="2"/>
<feComposite in2="SourceAlpha" operator="in" result="effect1_backgroundBlur_323_21426"/>
<feBlend mode="normal" in="SourceGraphic" in2="effect1_backgroundBlur_323_21426" result="shape"/>
<feColorMatrix in="SourceAlpha" type="matrix" values="0 0 0 0 0 0 0 0 0 0 0 0 0 0 0 0 0 0 127 0" result="hardAlpha"/>
<feOffset/>
<feGaussianBlur stdDeviation="19.5996"/>
<feComposite in2="hardAlpha" operator="arithmetic" k2="-1" k3="1"/>
<feColorMatrix type="matrix" values="0 0 0 0 1 0 0 0 0 1 0 0 0 0 1 0 0 0 0.08 0"/>
<feBlend mode="normal" in2="shape" result="effect2_innerShadow_323_21426"/>
<feColorMatrix in="SourceAlpha" type="matrix" values="0 0 0 0 0 0 0 0 0 0 0 0 0 0 0 0 0 0 127 0" result="hardAlpha"/>
<feOffset dy="4.89991"/>
<feGaussianBlur stdDeviation="4.95"/>
<feComposite in2="hardAlpha" operator="arithmetic" k2="-1" k3="1"/>
<feColorMatrix type="matrix" values="0 0 0 0 1 0 0 0 0 1 0 0 0 0 1 0 0 0 0.16 0"/>
<feBlend mode="normal" in2="effect2_innerShadow_323_21426" result="effect3_innerShadow_323_21426"/>
</filter>
</defs>
</svg>
