<svg width="30" height="30" viewBox="0 0 30 30" fill="none" xmlns="http://www.w3.org/2000/svg">
<path fill-rule="evenodd" clip-rule="evenodd" d="M15 30C23.2843 30 30 23.2843 30 15C30 6.71573 23.2843 0 15 0C6.71573 0 0 6.71573 0 15C0 23.2843 6.71573 30 15 30Z" fill="url(#paint0_linear_323_21372)"/>
<path d="M9.15372 8.95079C9.25625 8.84829 9.37805 8.79688 9.51829 8.79688H17.8147C17.9551 8.79688 18.0767 8.84829 18.1793 8.95079C18.2819 9.05344 18.3332 9.17503 18.3332 9.31545V10.871H19.6296C19.7754 10.871 19.9335 10.9061 20.1036 10.9764C20.2738 11.0467 20.4101 11.1329 20.5127 11.2356L22.1169 12.8398C22.1871 12.91 22.2478 12.991 22.2992 13.0828C22.3505 13.1745 22.3884 13.2571 22.4127 13.3299C22.4369 13.4029 22.4546 13.5027 22.4653 13.6297C22.476 13.7567 22.4829 13.8499 22.4856 13.9093C22.4882 13.9687 22.4882 14.0713 22.4856 14.2172C22.4828 14.3631 22.4815 14.4576 22.4815 14.5008V17.0934C22.6219 17.0934 22.7434 17.1447 22.8461 17.2474C22.9487 17.3498 23 17.4715 23 17.6119C23 17.6928 22.9893 17.7645 22.9676 17.8265C22.946 17.8887 22.9096 17.9386 22.8582 17.9765C22.8069 18.0144 22.7623 18.0453 22.7245 18.0697C22.6867 18.094 22.6232 18.1101 22.5341 18.1183C22.445 18.1264 22.3843 18.1318 22.3518 18.1346C22.3194 18.1371 22.2506 18.1371 22.1453 18.1346C22.0398 18.1318 21.9791 18.1305 21.9629 18.1305H21.4444C21.4444 18.7029 21.2418 19.1917 20.8368 19.5969C20.4317 20.0019 19.9429 20.2045 19.3703 20.2045C18.7978 20.2045 18.309 20.0019 17.9039 19.5969C17.4988 19.1917 17.2963 18.7029 17.2963 18.1305H14.1851C14.1851 18.7029 13.9825 19.1917 13.5775 19.5969C13.1725 20.0019 12.6837 20.2045 12.1111 20.2045C11.5384 20.2045 11.0498 20.0019 10.6447 19.5969C10.2395 19.1917 10.0371 18.7029 10.0371 18.1305C10.0209 18.1305 9.96012 18.1318 9.85487 18.1346C9.74951 18.1371 9.68063 18.1371 9.64823 18.1346C9.61576 18.1318 9.55489 18.1264 9.46584 18.1183C9.37677 18.1101 9.31337 18.094 9.27549 18.0697C9.23761 18.0454 9.19317 18.0144 9.14186 17.9765C9.0905 17.9386 9.05397 17.8887 9.03244 17.8265C9.01058 17.7645 9 17.6928 9 17.6119V9.31553C8.99989 9.17509 9.05116 9.05363 9.15372 8.95079ZM18.6413 18.8596C18.8464 19.0648 19.0896 19.1677 19.3704 19.1677C19.6513 19.1677 19.8944 19.0649 20.0997 18.8596C20.3049 18.6545 20.4075 18.4114 20.4075 18.1305C20.4075 17.8497 20.3048 17.6064 20.0997 17.4012C19.8944 17.1961 19.6513 17.0934 19.3704 17.0934C19.0896 17.0934 18.8465 17.196 18.6413 17.4012C18.436 17.6064 18.3333 17.8497 18.3333 18.1305C18.3333 18.4114 18.436 18.6545 18.6413 18.8596ZM18.3333 13.9822H21.4445V13.7392C21.4445 13.669 21.4203 13.6096 21.3716 13.5609L19.7918 11.9811C19.7432 11.9325 19.6837 11.9082 19.6135 11.9082H18.3333V13.9822ZM11.382 18.8596C11.5871 19.0648 11.8303 19.1677 12.1111 19.1677C12.392 19.1677 12.6352 19.0649 12.8404 18.8596C13.0456 18.6545 13.1482 18.4114 13.1482 18.1305C13.1482 17.8497 13.0456 17.6064 12.8404 17.4012C12.6352 17.1961 12.392 17.0934 12.1111 17.0934C11.8303 17.0934 11.5871 17.196 11.382 17.4012C11.1768 17.6065 11.074 17.8497 11.074 18.1305C11.074 18.4114 11.1766 18.6545 11.382 18.8596Z" fill="white"/>
<defs>
<linearGradient id="paint0_linear_323_21372" x1="2.4658e-08" y1="15.122" x2="30" y2="15.122" gradientUnits="userSpaceOnUse">
<stop stop-color="#F126DF"/>
<stop offset="1" stop-color="#1EF2F6"/>
</linearGradient>
</defs>
</svg>
