<svg width="100" height="19" viewBox="0 0 100 19" fill="none" xmlns="http://www.w3.org/2000/svg">
<path d="M4.89284 13.3021C4.21282 13.3021 3.6259 13.1807 3.13208 12.9378C2.64635 12.6949 2.26991 12.3266 2.00276 11.8328C1.74371 11.3309 1.61418 10.6873 1.61418 9.902V4.97187C1.61418 4.88282 1.63847 4.81401 1.68704 4.76544C1.73561 4.70877 1.80442 4.68044 1.89347 4.68044H2.51277C2.60182 4.68044 2.67064 4.70877 2.71921 4.76544C2.77588 4.81401 2.80421 4.88282 2.80421 4.97187V9.92629C2.80421 10.7196 2.99041 11.3066 3.3628 11.6871C3.73519 12.0675 4.2452 12.2578 4.89284 12.2578C5.53238 12.2578 6.03835 12.0675 6.41074 11.6871C6.79122 11.3066 6.98147 10.7196 6.98147 9.92629V4.97187C6.98147 4.88282 7.00575 4.81401 7.05433 4.76544C7.11099 4.70877 7.1798 4.68044 7.26076 4.68044H7.8922C7.97316 4.68044 8.03792 4.70877 8.0865 4.76544C8.14316 4.81401 8.1715 4.88282 8.1715 4.97187V9.902C8.1715 10.6873 8.03792 11.3309 7.77077 11.8328C7.51172 12.3266 7.13933 12.6949 6.6536 12.9378C6.16787 13.1807 5.58095 13.3021 4.89284 13.3021ZM12.9094 13.1807C12.8204 13.1807 12.7516 13.1564 12.703 13.1078C12.6544 13.0511 12.6301 12.9823 12.6301 12.9014V4.95973C12.6301 4.87877 12.6544 4.81401 12.703 4.76544C12.7516 4.70877 12.8204 4.68044 12.9094 4.68044H13.553C13.634 4.68044 13.6987 4.70877 13.7473 4.76544C13.7959 4.81401 13.8202 4.87877 13.8202 4.95973V12.1242H17.8638C17.9529 12.1242 18.0217 12.1525 18.0703 12.2092C18.1189 12.2578 18.1431 12.3266 18.1431 12.4156V12.9014C18.1431 12.9823 18.1189 13.0511 18.0703 13.1078C18.0217 13.1564 17.9529 13.1807 17.8638 13.1807H12.9094ZM22.5916 13.1807C22.5107 13.1807 22.4419 13.1564 22.3852 13.1078C22.3366 13.0511 22.3123 12.9823 22.3123 12.9014V5.76118H19.9808C19.8999 5.76118 19.8311 5.73689 19.7744 5.68832C19.7258 5.63165 19.7015 5.56284 19.7015 5.48189V4.97187C19.7015 4.88282 19.7258 4.81401 19.7744 4.76544C19.8311 4.70877 19.8999 4.68044 19.9808 4.68044H25.8339C25.9229 4.68044 25.9917 4.70877 26.0403 4.76544C26.097 4.81401 26.1253 4.88282 26.1253 4.97187V5.48189C26.1253 5.56284 26.097 5.63165 26.0403 5.68832C25.9917 5.73689 25.9229 5.76118 25.8339 5.76118H23.5145V12.9014C23.5145 12.9823 23.4862 13.0511 23.4295 13.1078C23.3809 13.1564 23.3121 13.1807 23.2231 13.1807H22.5916ZM30.1945 13.1807C30.1054 13.1807 30.0366 13.1564 29.9881 13.1078C29.9395 13.0511 29.9152 12.9823 29.9152 12.9014V4.97187C29.9152 4.88282 29.9395 4.81401 29.9881 4.76544C30.0366 4.70877 30.1054 4.68044 30.1945 4.68044H33.1574C34.0722 4.68044 34.7968 4.89497 35.3311 5.32402C35.8654 5.75308 36.1325 6.38858 36.1325 7.2305C36.1325 7.85385 35.9746 8.36387 35.6589 8.76055C35.3513 9.14913 34.9303 9.42032 34.396 9.57414L36.2661 12.8042C36.2904 12.8528 36.3025 12.8973 36.3025 12.9378C36.3025 13.0026 36.2742 13.0592 36.2175 13.1078C36.1689 13.1564 36.1123 13.1807 36.0475 13.1807H35.4646C35.327 13.1807 35.2258 13.1442 35.1611 13.0714C35.0963 12.9985 35.0396 12.9257 34.991 12.8528L33.2303 9.76843H31.1052V12.9014C31.1052 12.9823 31.0769 13.0511 31.0202 13.1078C30.9717 13.1564 30.9028 13.1807 30.8138 13.1807H30.1945ZM31.1052 8.73626H33.1089C33.716 8.73626 34.1694 8.61078 34.4689 8.35982C34.7684 8.10077 34.9182 7.72028 34.9182 7.21836C34.9182 6.72454 34.7684 6.3481 34.4689 6.08904C34.1775 5.82999 33.7241 5.70046 33.1089 5.70046H31.1052V8.73626ZM39.7302 13.1807C39.6654 13.1807 39.6088 13.1564 39.5602 13.1078C39.5116 13.0592 39.4873 13.0026 39.4873 12.9378C39.4873 12.8973 39.4914 12.8528 39.4995 12.8042L42.511 4.94759C42.5434 4.86663 42.5879 4.80187 42.6446 4.7533C42.7012 4.70472 42.7862 4.68044 42.8996 4.68044H43.7253C43.8306 4.68044 43.9115 4.70472 43.9682 4.7533C44.0329 4.80187 44.0815 4.86663 44.1139 4.94759L47.1133 12.8042C47.1295 12.8528 47.1375 12.8973 47.1375 12.9378C47.1375 13.0026 47.1133 13.0592 47.0647 13.1078C47.0161 13.1564 46.9594 13.1807 46.8947 13.1807H46.2754C46.1782 13.1807 46.1054 13.1564 46.0568 13.1078C46.0163 13.0592 45.988 13.0147 45.9718 12.9742L45.3039 11.2499H41.321L40.6531 12.9742C40.645 13.0147 40.6167 13.0592 40.5681 13.1078C40.5195 13.1564 40.4467 13.1807 40.3495 13.1807H39.7302ZM41.6731 10.2056H44.9518L43.3124 5.89475L41.6731 10.2056ZM53.4782 13.3021C52.7739 13.3021 52.1829 13.1969 51.7053 12.9864C51.2277 12.7678 50.8593 12.4885 50.6003 12.1485C50.3493 11.8004 50.2157 11.432 50.1995 11.0435C50.1995 10.9787 50.2238 10.922 50.2724 10.8735C50.3291 10.8168 50.3938 10.7885 50.4667 10.7885H51.086C51.1831 10.7885 51.256 10.8127 51.3046 10.8613C51.3531 10.9099 51.3855 10.9666 51.4017 11.0313C51.4422 11.2256 51.5393 11.4199 51.6931 11.6142C51.855 11.8004 52.0777 11.9583 52.361 12.0878C52.6525 12.2092 53.0248 12.2699 53.4782 12.2699C54.1744 12.2699 54.6844 12.1485 55.0082 11.9056C55.3401 11.6547 55.5061 11.3228 55.5061 10.9099C55.5061 10.6265 55.417 10.3999 55.2389 10.2299C55.0689 10.0518 54.8058 9.89391 54.4496 9.75629C54.0934 9.61866 53.632 9.4689 53.0653 9.30699C52.4744 9.13698 51.9846 8.95079 51.596 8.7484C51.2074 8.54602 50.916 8.29506 50.7217 7.99552C50.5355 7.69599 50.4424 7.31551 50.4424 6.85407C50.4424 6.41691 50.5598 6.02833 50.7945 5.68832C51.0293 5.34022 51.3653 5.06497 51.8024 4.86258C52.2477 4.6602 52.786 4.559 53.4175 4.559C53.9194 4.559 54.3565 4.62782 54.7289 4.76544C55.1094 4.89497 55.4251 5.07307 55.6761 5.29974C55.9271 5.51832 56.1173 5.75713 56.2468 6.01619C56.3764 6.26715 56.4452 6.51406 56.4533 6.75692C56.4533 6.81359 56.433 6.87026 56.3926 6.92692C56.3521 6.9755 56.2873 6.99978 56.1983 6.99978H55.5547C55.498 6.99978 55.4373 6.98359 55.3725 6.95121C55.3159 6.91883 55.2713 6.85811 55.2389 6.76906C55.1904 6.43715 55.0042 6.15786 54.6804 5.93118C54.3565 5.70451 53.9356 5.59117 53.4175 5.59117C52.8913 5.59117 52.4622 5.69237 52.1303 5.89475C51.8065 6.09714 51.6446 6.41286 51.6446 6.84192C51.6446 7.11717 51.7215 7.34789 51.8753 7.53408C52.0291 7.71218 52.272 7.87005 52.6039 8.00767C52.9358 8.14529 53.3689 8.29101 53.9032 8.44482C54.5508 8.62292 55.0811 8.81317 55.494 9.01555C55.9068 9.20984 56.2104 9.45675 56.4047 9.75629C56.6071 10.0477 56.7083 10.4242 56.7083 10.8856C56.7083 11.3956 56.5747 11.8328 56.3075 12.1971C56.0404 12.5533 55.664 12.8285 55.1782 13.0228C54.7006 13.209 54.1339 13.3021 53.4782 13.3021ZM63.7765 13.3021C63.0883 13.3021 62.4974 13.1847 62.0036 12.9499C61.5097 12.7071 61.1292 12.3387 60.8621 11.8449C60.5949 11.343 60.4452 10.7156 60.4128 9.96272C60.4047 9.60652 60.4007 9.26651 60.4007 8.94269C60.4007 8.61078 60.4047 8.26672 60.4128 7.91052C60.4452 7.16574 60.599 6.54644 60.8742 6.05262C61.1576 5.5507 61.5462 5.17831 62.04 4.93544C62.5419 4.68448 63.1207 4.559 63.7765 4.559C64.4403 4.559 65.0191 4.68448 65.5129 4.93544C66.0149 5.17831 66.4075 5.5507 66.6908 6.05262C66.9742 6.54644 67.128 7.16574 67.1523 7.91052C67.1685 8.26672 67.1766 8.61078 67.1766 8.94269C67.1766 9.26651 67.1685 9.60652 67.1523 9.96272C67.128 10.7156 66.9782 11.343 66.703 11.8449C66.4358 12.3387 66.0553 12.7071 65.5615 12.9499C65.0677 13.1847 64.4727 13.3021 63.7765 13.3021ZM63.7765 12.2699C64.3998 12.2699 64.9058 12.0837 65.2944 11.7113C65.691 11.3389 65.9056 10.7358 65.9379 9.902C65.9541 9.53771 65.9622 9.21389 65.9622 8.93055C65.9622 8.63911 65.9541 8.3153 65.9379 7.9591C65.9218 7.40051 65.8165 6.94716 65.6222 6.59906C65.436 6.25095 65.1851 5.99595 64.8693 5.83404C64.5536 5.67213 64.1893 5.59117 63.7765 5.59117C63.3798 5.59117 63.0236 5.67213 62.7079 5.83404C62.3921 5.99595 62.1371 6.25095 61.9428 6.59906C61.7566 6.94716 61.6514 7.40051 61.6271 7.9591C61.619 8.3153 61.615 8.63911 61.615 8.93055C61.615 9.21389 61.619 9.53771 61.6271 9.902C61.6595 10.7358 61.874 11.3389 62.2707 11.7113C62.6674 12.0837 63.1693 12.2699 63.7765 12.2699ZM71.6544 13.1807C71.5654 13.1807 71.4966 13.1564 71.448 13.1078C71.3994 13.0511 71.3752 12.9823 71.3752 12.9014V4.97187C71.3752 4.88282 71.3994 4.81401 71.448 4.76544C71.4966 4.70877 71.5654 4.68044 71.6544 4.68044H76.6089C76.6979 4.68044 76.7667 4.70877 76.8153 4.76544C76.8639 4.81401 76.8882 4.88282 76.8882 4.97187V5.4576C76.8882 5.54665 76.8639 5.61546 76.8153 5.66403C76.7667 5.71261 76.6979 5.73689 76.6089 5.73689H72.553V8.56625H76.366C76.4551 8.56625 76.5239 8.59459 76.5724 8.65126C76.621 8.69983 76.6453 8.76864 76.6453 8.85769V9.34342C76.6453 9.42437 76.621 9.49318 76.5724 9.54985C76.5239 9.59842 76.4551 9.62271 76.366 9.62271H72.553V12.9014C72.553 12.9823 72.5247 13.0511 72.468 13.1078C72.4195 13.1564 72.3507 13.1807 72.2616 13.1807H71.6544ZM83.0324 13.1807C82.9515 13.1807 82.8827 13.1564 82.826 13.1078C82.7774 13.0511 82.7531 12.9823 82.7531 12.9014V5.76118H80.4216C80.3407 5.76118 80.2719 5.73689 80.2152 5.68832C80.1666 5.63165 80.1423 5.56284 80.1423 5.48189V4.97187C80.1423 4.88282 80.1666 4.81401 80.2152 4.76544C80.2719 4.70877 80.3407 4.68044 80.4216 4.68044H86.2746C86.3637 4.68044 86.4325 4.70877 86.4811 4.76544C86.5377 4.81401 86.5661 4.88282 86.5661 4.97187V5.48189C86.5661 5.56284 86.5377 5.63165 86.4811 5.68832C86.4325 5.73689 86.3637 5.76118 86.2746 5.76118H83.9553V12.9014C83.9553 12.9823 83.927 13.0511 83.8703 13.1078C83.8217 13.1564 83.7529 13.1807 83.6639 13.1807H83.0324ZM93.0882 7.91052C92.9101 7.91052 92.8211 7.82147 92.8211 7.64337V4.94759C92.8211 4.76949 92.9101 4.68044 93.0882 4.68044H93.3432C93.4485 4.68044 93.5294 4.71282 93.5861 4.77758C93.6427 4.84234 93.6873 4.89901 93.7196 4.94759L94.4361 6.10119L95.1525 4.94759C95.1849 4.89901 95.2295 4.84234 95.2861 4.77758C95.3428 4.71282 95.4237 4.68044 95.529 4.68044H95.784C95.9621 4.68044 96.0511 4.76949 96.0511 4.94759V7.64337C96.0511 7.82147 95.9621 7.91052 95.784 7.91052H95.5168C95.3387 7.91052 95.2497 7.82147 95.2497 7.64337V6.18619L94.8247 6.8905C94.7842 6.95526 94.7437 7.01193 94.7032 7.0605C94.6628 7.10907 94.598 7.13336 94.509 7.13336H94.3632C94.2823 7.13336 94.2175 7.10907 94.1689 7.0605C94.1285 7.01193 94.088 6.95526 94.0475 6.8905L93.6225 6.18619V7.64337C93.6225 7.82147 93.5335 7.91052 93.3554 7.91052H93.0882ZM91.036 7.91052C90.8579 7.91052 90.7689 7.82147 90.7689 7.64337V5.44546H90.1374C89.9593 5.44546 89.8703 5.35641 89.8703 5.17831V4.94759C89.8703 4.76949 89.9593 4.68044 90.1374 4.68044H92.1896C92.3677 4.68044 92.4568 4.76949 92.4568 4.94759V5.17831C92.4568 5.35641 92.3677 5.44546 92.1896 5.44546H91.5582V7.64337C91.5582 7.82147 91.4691 7.91052 91.291 7.91052H91.036Z" fill="black"/>
<path d="M4.89284 13.3021C4.21282 13.3021 3.6259 13.1807 3.13208 12.9378C2.64635 12.6949 2.26991 12.3266 2.00276 11.8328C1.74371 11.3309 1.61418 10.6873 1.61418 9.902V4.97187C1.61418 4.88282 1.63847 4.81401 1.68704 4.76544C1.73561 4.70877 1.80442 4.68044 1.89347 4.68044H2.51277C2.60182 4.68044 2.67064 4.70877 2.71921 4.76544C2.77588 4.81401 2.80421 4.88282 2.80421 4.97187V9.92629C2.80421 10.7196 2.99041 11.3066 3.3628 11.6871C3.73519 12.0675 4.2452 12.2578 4.89284 12.2578C5.53238 12.2578 6.03835 12.0675 6.41074 11.6871C6.79122 11.3066 6.98147 10.7196 6.98147 9.92629V4.97187C6.98147 4.88282 7.00575 4.81401 7.05433 4.76544C7.11099 4.70877 7.1798 4.68044 7.26076 4.68044H7.8922C7.97316 4.68044 8.03792 4.70877 8.0865 4.76544C8.14316 4.81401 8.1715 4.88282 8.1715 4.97187V9.902C8.1715 10.6873 8.03792 11.3309 7.77077 11.8328C7.51172 12.3266 7.13933 12.6949 6.6536 12.9378C6.16787 13.1807 5.58095 13.3021 4.89284 13.3021ZM12.9094 13.1807C12.8204 13.1807 12.7516 13.1564 12.703 13.1078C12.6544 13.0511 12.6301 12.9823 12.6301 12.9014V4.95973C12.6301 4.87877 12.6544 4.81401 12.703 4.76544C12.7516 4.70877 12.8204 4.68044 12.9094 4.68044H13.553C13.634 4.68044 13.6987 4.70877 13.7473 4.76544C13.7959 4.81401 13.8202 4.87877 13.8202 4.95973V12.1242H17.8638C17.9529 12.1242 18.0217 12.1525 18.0703 12.2092C18.1189 12.2578 18.1431 12.3266 18.1431 12.4156V12.9014C18.1431 12.9823 18.1189 13.0511 18.0703 13.1078C18.0217 13.1564 17.9529 13.1807 17.8638 13.1807H12.9094ZM22.5916 13.1807C22.5107 13.1807 22.4419 13.1564 22.3852 13.1078C22.3366 13.0511 22.3123 12.9823 22.3123 12.9014V5.76118H19.9808C19.8999 5.76118 19.8311 5.73689 19.7744 5.68832C19.7258 5.63165 19.7015 5.56284 19.7015 5.48189V4.97187C19.7015 4.88282 19.7258 4.81401 19.7744 4.76544C19.8311 4.70877 19.8999 4.68044 19.9808 4.68044H25.8339C25.9229 4.68044 25.9917 4.70877 26.0403 4.76544C26.097 4.81401 26.1253 4.88282 26.1253 4.97187V5.48189C26.1253 5.56284 26.097 5.63165 26.0403 5.68832C25.9917 5.73689 25.9229 5.76118 25.8339 5.76118H23.5145V12.9014C23.5145 12.9823 23.4862 13.0511 23.4295 13.1078C23.3809 13.1564 23.3121 13.1807 23.2231 13.1807H22.5916ZM30.1945 13.1807C30.1054 13.1807 30.0366 13.1564 29.9881 13.1078C29.9395 13.0511 29.9152 12.9823 29.9152 12.9014V4.97187C29.9152 4.88282 29.9395 4.81401 29.9881 4.76544C30.0366 4.70877 30.1054 4.68044 30.1945 4.68044H33.1574C34.0722 4.68044 34.7968 4.89497 35.3311 5.32402C35.8654 5.75308 36.1325 6.38858 36.1325 7.2305C36.1325 7.85385 35.9746 8.36387 35.6589 8.76055C35.3513 9.14913 34.9303 9.42032 34.396 9.57414L36.2661 12.8042C36.2904 12.8528 36.3025 12.8973 36.3025 12.9378C36.3025 13.0026 36.2742 13.0592 36.2175 13.1078C36.1689 13.1564 36.1123 13.1807 36.0475 13.1807H35.4646C35.327 13.1807 35.2258 13.1442 35.1611 13.0714C35.0963 12.9985 35.0396 12.9257 34.991 12.8528L33.2303 9.76843H31.1052V12.9014C31.1052 12.9823 31.0769 13.0511 31.0202 13.1078C30.9717 13.1564 30.9028 13.1807 30.8138 13.1807H30.1945ZM31.1052 8.73626H33.1089C33.716 8.73626 34.1694 8.61078 34.4689 8.35982C34.7684 8.10077 34.9182 7.72028 34.9182 7.21836C34.9182 6.72454 34.7684 6.3481 34.4689 6.08904C34.1775 5.82999 33.7241 5.70046 33.1089 5.70046H31.1052V8.73626ZM39.7302 13.1807C39.6654 13.1807 39.6088 13.1564 39.5602 13.1078C39.5116 13.0592 39.4873 13.0026 39.4873 12.9378C39.4873 12.8973 39.4914 12.8528 39.4995 12.8042L42.511 4.94759C42.5434 4.86663 42.5879 4.80187 42.6446 4.7533C42.7012 4.70472 42.7862 4.68044 42.8996 4.68044H43.7253C43.8306 4.68044 43.9115 4.70472 43.9682 4.7533C44.0329 4.80187 44.0815 4.86663 44.1139 4.94759L47.1133 12.8042C47.1295 12.8528 47.1375 12.8973 47.1375 12.9378C47.1375 13.0026 47.1133 13.0592 47.0647 13.1078C47.0161 13.1564 46.9594 13.1807 46.8947 13.1807H46.2754C46.1782 13.1807 46.1054 13.1564 46.0568 13.1078C46.0163 13.0592 45.988 13.0147 45.9718 12.9742L45.3039 11.2499H41.321L40.6531 12.9742C40.645 13.0147 40.6167 13.0592 40.5681 13.1078C40.5195 13.1564 40.4467 13.1807 40.3495 13.1807H39.7302ZM41.6731 10.2056H44.9518L43.3124 5.89475L41.6731 10.2056ZM53.4782 13.3021C52.7739 13.3021 52.1829 13.1969 51.7053 12.9864C51.2277 12.7678 50.8593 12.4885 50.6003 12.1485C50.3493 11.8004 50.2157 11.432 50.1995 11.0435C50.1995 10.9787 50.2238 10.922 50.2724 10.8735C50.3291 10.8168 50.3938 10.7885 50.4667 10.7885H51.086C51.1831 10.7885 51.256 10.8127 51.3046 10.8613C51.3531 10.9099 51.3855 10.9666 51.4017 11.0313C51.4422 11.2256 51.5393 11.4199 51.6931 11.6142C51.855 11.8004 52.0777 11.9583 52.361 12.0878C52.6525 12.2092 53.0248 12.2699 53.4782 12.2699C54.1744 12.2699 54.6844 12.1485 55.0082 11.9056C55.3401 11.6547 55.5061 11.3228 55.5061 10.9099C55.5061 10.6265 55.417 10.3999 55.2389 10.2299C55.0689 10.0518 54.8058 9.89391 54.4496 9.75629C54.0934 9.61866 53.632 9.4689 53.0653 9.30699C52.4744 9.13698 51.9846 8.95079 51.596 8.7484C51.2074 8.54602 50.916 8.29506 50.7217 7.99552C50.5355 7.69599 50.4424 7.31551 50.4424 6.85407C50.4424 6.41691 50.5598 6.02833 50.7945 5.68832C51.0293 5.34022 51.3653 5.06497 51.8024 4.86258C52.2477 4.6602 52.786 4.559 53.4175 4.559C53.9194 4.559 54.3565 4.62782 54.7289 4.76544C55.1094 4.89497 55.4251 5.07307 55.6761 5.29974C55.9271 5.51832 56.1173 5.75713 56.2468 6.01619C56.3764 6.26715 56.4452 6.51406 56.4533 6.75692C56.4533 6.81359 56.433 6.87026 56.3926 6.92692C56.3521 6.9755 56.2873 6.99978 56.1983 6.99978H55.5547C55.498 6.99978 55.4373 6.98359 55.3725 6.95121C55.3159 6.91883 55.2713 6.85811 55.2389 6.76906C55.1904 6.43715 55.0042 6.15786 54.6804 5.93118C54.3565 5.70451 53.9356 5.59117 53.4175 5.59117C52.8913 5.59117 52.4622 5.69237 52.1303 5.89475C51.8065 6.09714 51.6446 6.41286 51.6446 6.84192C51.6446 7.11717 51.7215 7.34789 51.8753 7.53408C52.0291 7.71218 52.272 7.87005 52.6039 8.00767C52.9358 8.14529 53.3689 8.29101 53.9032 8.44482C54.5508 8.62292 55.0811 8.81317 55.494 9.01555C55.9068 9.20984 56.2104 9.45675 56.4047 9.75629C56.6071 10.0477 56.7083 10.4242 56.7083 10.8856C56.7083 11.3956 56.5747 11.8328 56.3075 12.1971C56.0404 12.5533 55.664 12.8285 55.1782 13.0228C54.7006 13.209 54.1339 13.3021 53.4782 13.3021ZM63.7765 13.3021C63.0883 13.3021 62.4974 13.1847 62.0036 12.9499C61.5097 12.7071 61.1292 12.3387 60.8621 11.8449C60.5949 11.343 60.4452 10.7156 60.4128 9.96272C60.4047 9.60652 60.4007 9.26651 60.4007 8.94269C60.4007 8.61078 60.4047 8.26672 60.4128 7.91052C60.4452 7.16574 60.599 6.54644 60.8742 6.05262C61.1576 5.5507 61.5462 5.17831 62.04 4.93544C62.5419 4.68448 63.1207 4.559 63.7765 4.559C64.4403 4.559 65.0191 4.68448 65.5129 4.93544C66.0149 5.17831 66.4075 5.5507 66.6908 6.05262C66.9742 6.54644 67.128 7.16574 67.1523 7.91052C67.1685 8.26672 67.1766 8.61078 67.1766 8.94269C67.1766 9.26651 67.1685 9.60652 67.1523 9.96272C67.128 10.7156 66.9782 11.343 66.703 11.8449C66.4358 12.3387 66.0553 12.7071 65.5615 12.9499C65.0677 13.1847 64.4727 13.3021 63.7765 13.3021ZM63.7765 12.2699C64.3998 12.2699 64.9058 12.0837 65.2944 11.7113C65.691 11.3389 65.9056 10.7358 65.9379 9.902C65.9541 9.53771 65.9622 9.21389 65.9622 8.93055C65.9622 8.63911 65.9541 8.3153 65.9379 7.9591C65.9218 7.40051 65.8165 6.94716 65.6222 6.59906C65.436 6.25095 65.1851 5.99595 64.8693 5.83404C64.5536 5.67213 64.1893 5.59117 63.7765 5.59117C63.3798 5.59117 63.0236 5.67213 62.7079 5.83404C62.3921 5.99595 62.1371 6.25095 61.9428 6.59906C61.7566 6.94716 61.6514 7.40051 61.6271 7.9591C61.619 8.3153 61.615 8.63911 61.615 8.93055C61.615 9.21389 61.619 9.53771 61.6271 9.902C61.6595 10.7358 61.874 11.3389 62.2707 11.7113C62.6674 12.0837 63.1693 12.2699 63.7765 12.2699ZM71.6544 13.1807C71.5654 13.1807 71.4966 13.1564 71.448 13.1078C71.3994 13.0511 71.3752 12.9823 71.3752 12.9014V4.97187C71.3752 4.88282 71.3994 4.81401 71.448 4.76544C71.4966 4.70877 71.5654 4.68044 71.6544 4.68044H76.6089C76.6979 4.68044 76.7667 4.70877 76.8153 4.76544C76.8639 4.81401 76.8882 4.88282 76.8882 4.97187V5.4576C76.8882 5.54665 76.8639 5.61546 76.8153 5.66403C76.7667 5.71261 76.6979 5.73689 76.6089 5.73689H72.553V8.56625H76.366C76.4551 8.56625 76.5239 8.59459 76.5724 8.65126C76.621 8.69983 76.6453 8.76864 76.6453 8.85769V9.34342C76.6453 9.42437 76.621 9.49318 76.5724 9.54985C76.5239 9.59842 76.4551 9.62271 76.366 9.62271H72.553V12.9014C72.553 12.9823 72.5247 13.0511 72.468 13.1078C72.4195 13.1564 72.3507 13.1807 72.2616 13.1807H71.6544ZM83.0324 13.1807C82.9515 13.1807 82.8827 13.1564 82.826 13.1078C82.7774 13.0511 82.7531 12.9823 82.7531 12.9014V5.76118H80.4216C80.3407 5.76118 80.2719 5.73689 80.2152 5.68832C80.1666 5.63165 80.1423 5.56284 80.1423 5.48189V4.97187C80.1423 4.88282 80.1666 4.81401 80.2152 4.76544C80.2719 4.70877 80.3407 4.68044 80.4216 4.68044H86.2746C86.3637 4.68044 86.4325 4.70877 86.4811 4.76544C86.5377 4.81401 86.5661 4.88282 86.5661 4.97187V5.48189C86.5661 5.56284 86.5377 5.63165 86.4811 5.68832C86.4325 5.73689 86.3637 5.76118 86.2746 5.76118H83.9553V12.9014C83.9553 12.9823 83.927 13.0511 83.8703 13.1078C83.8217 13.1564 83.7529 13.1807 83.6639 13.1807H83.0324ZM93.0882 7.91052C92.9101 7.91052 92.8211 7.82147 92.8211 7.64337V4.94759C92.8211 4.76949 92.9101 4.68044 93.0882 4.68044H93.3432C93.4485 4.68044 93.5294 4.71282 93.5861 4.77758C93.6427 4.84234 93.6873 4.89901 93.7196 4.94759L94.4361 6.10119L95.1525 4.94759C95.1849 4.89901 95.2295 4.84234 95.2861 4.77758C95.3428 4.71282 95.4237 4.68044 95.529 4.68044H95.784C95.9621 4.68044 96.0511 4.76949 96.0511 4.94759V7.64337C96.0511 7.82147 95.9621 7.91052 95.784 7.91052H95.5168C95.3387 7.91052 95.2497 7.82147 95.2497 7.64337V6.18619L94.8247 6.8905C94.7842 6.95526 94.7437 7.01193 94.7032 7.0605C94.6628 7.10907 94.598 7.13336 94.509 7.13336H94.3632C94.2823 7.13336 94.2175 7.10907 94.1689 7.0605C94.1285 7.01193 94.088 6.95526 94.0475 6.8905L93.6225 6.18619V7.64337C93.6225 7.82147 93.5335 7.91052 93.3554 7.91052H93.0882ZM91.036 7.91052C90.8579 7.91052 90.7689 7.82147 90.7689 7.64337V5.44546H90.1374C89.9593 5.44546 89.8703 5.35641 89.8703 5.17831V4.94759C89.8703 4.76949 89.9593 4.68044 90.1374 4.68044H92.1896C92.3677 4.68044 92.4568 4.76949 92.4568 4.94759V5.17831C92.4568 5.35641 92.3677 5.44546 92.1896 5.44546H91.5582V7.64337C91.5582 7.82147 91.4691 7.91052 91.291 7.91052H91.036Z" fill="white"/>
</svg>
