<svg width="43" height="27" viewBox="0 0 43 27" fill="none" xmlns="http://www.w3.org/2000/svg">
<rect x="0.898438" y="0.5" width="41" height="26" rx="6.5" fill="#1D1B1B" stroke="#9B9B9B"/>
<path d="M13.3964 23.0332V21.7623C13.3964 21.2762 13.1003 20.9578 12.5919 20.9578C12.3377 20.9578 12.0613 21.0417 11.8713 21.3181C11.7233 21.0862 11.511 20.9578 11.1927 20.9578C10.9805 20.9578 10.7682 21.022 10.6004 21.254V20.9998H10.1562V23.0332H10.6004V21.9104C10.6004 21.5501 10.7905 21.3798 11.0866 21.3798C11.3827 21.3798 11.5308 21.5698 11.5308 21.9104V23.0332H11.975V21.9104C11.975 21.5501 12.1872 21.3798 12.4611 21.3798C12.7572 21.3798 12.9053 21.5698 12.9053 21.9104V23.0332H13.3964ZM19.9852 20.9998H19.2646V20.3853H18.8204V20.9998H18.4182V21.402H18.8204V22.3348C18.8204 22.8012 19.0105 23.0752 19.5188 23.0752C19.7088 23.0752 19.9211 23.011 20.0691 22.9271L19.9408 22.5446C19.8125 22.6285 19.6644 22.6507 19.5583 22.6507C19.3461 22.6507 19.2622 22.5224 19.2622 22.3126V21.402H19.9827V20.9998H19.9852ZM23.7559 20.9554C23.5017 20.9554 23.3315 21.0837 23.2253 21.2515V20.9973H22.7811V23.0307H23.2253V21.8857C23.2253 21.5476 23.3734 21.3551 23.6498 21.3551C23.7337 21.3551 23.8398 21.3774 23.9262 21.3971L24.0545 20.9726C23.9657 20.9554 23.8398 20.9554 23.7559 20.9554ZM18.0579 21.1676C17.8457 21.0195 17.5496 20.9554 17.2312 20.9554C16.7229 20.9554 16.3848 21.2095 16.3848 21.6118C16.3848 21.9499 16.639 22.1424 17.0832 22.204L17.2954 22.2263C17.5274 22.2682 17.6557 22.3324 17.6557 22.4385C17.6557 22.5865 17.4854 22.6927 17.1893 22.6927C16.8931 22.6927 16.6587 22.5865 16.5107 22.4804L16.2984 22.8185C16.5304 22.9888 16.8487 23.0727 17.1671 23.0727C17.7593 23.0727 18.0999 22.7963 18.0999 22.4163C18.0999 22.056 17.8235 21.866 17.4015 21.8018L17.1893 21.7796C16.9993 21.7574 16.8512 21.7154 16.8512 21.5896C16.8512 21.4415 16.9993 21.3576 17.2337 21.3576C17.4879 21.3576 17.742 21.4637 17.8704 21.5279L18.0579 21.1676ZM29.8759 20.9554C29.6217 20.9554 29.4514 21.0837 29.3453 21.2515V20.9973H28.9011V23.0307H29.3453V21.8857C29.3453 21.5476 29.4934 21.3551 29.7698 21.3551C29.8537 21.3551 29.9598 21.3774 30.0461 21.3971L30.1745 20.9776C30.0881 20.9554 29.9622 20.9554 29.8759 20.9554ZM24.2001 22.0165C24.2001 22.631 24.6245 23.0752 25.281 23.0752C25.5771 23.0752 25.7893 23.011 26.0015 22.8432L25.7893 22.4829C25.619 22.6112 25.4512 22.6729 25.2587 22.6729C24.8985 22.6729 24.6443 22.4187 24.6443 22.0165C24.6443 21.634 24.8985 21.3798 25.2587 21.3601C25.4488 21.3601 25.619 21.4242 25.7893 21.5501L26.0015 21.1898C25.7893 21.0195 25.5771 20.9578 25.281 20.9578C24.6245 20.9554 24.2001 21.402 24.2001 22.0165ZM28.3089 22.0165V20.9998H27.8647V21.254C27.7166 21.064 27.5044 20.9578 27.228 20.9578C26.6555 20.9578 26.2113 21.402 26.2113 22.0165C26.2113 22.631 26.6555 23.0752 27.228 23.0752C27.5241 23.0752 27.7363 22.969 27.8647 22.779V23.0332H28.3089V22.0165ZM26.6777 22.0165C26.6777 21.6562 26.9097 21.3601 27.2922 21.3601C27.6524 21.3601 27.9066 21.6365 27.9066 22.0165C27.9066 22.3768 27.6524 22.6729 27.2922 22.6729C26.9121 22.6507 26.6777 22.3743 26.6777 22.0165ZM21.3622 20.9554C20.7699 20.9554 20.3455 21.3798 20.3455 22.014C20.3455 22.6507 20.7699 23.0727 21.3844 23.0727C21.6805 23.0727 21.9767 22.9888 22.2111 22.7963L21.9989 22.478C21.8286 22.6063 21.6164 22.6902 21.4066 22.6902C21.1302 22.6902 20.8563 22.5619 20.7922 22.204H22.295C22.295 22.1399 22.295 22.0979 22.295 22.0338C22.3147 21.3798 21.9323 20.9554 21.3622 20.9554ZM21.3622 21.3379C21.6386 21.3379 21.8286 21.5081 21.8706 21.824H20.8119C20.8539 21.5501 21.0439 21.3379 21.3622 21.3379ZM32.3979 22.0165V20.1953H31.9537V21.254C31.8056 21.064 31.5934 20.9578 31.317 20.9578C30.7445 20.9578 30.3003 21.402 30.3003 22.0165C30.3003 22.631 30.7445 23.0752 31.317 23.0752C31.6131 23.0752 31.8254 22.969 31.9537 22.779V23.0332H32.3979V22.0165ZM30.7667 22.0165C30.7667 21.6562 30.9987 21.3601 31.3812 21.3601C31.7415 21.3601 31.9956 21.6365 31.9956 22.0165C31.9956 22.3768 31.7415 22.6729 31.3812 22.6729C30.9987 22.6507 30.7667 22.3743 30.7667 22.0165ZM15.8962 22.0165V20.9998H15.452V21.254C15.3039 21.064 15.0917 20.9578 14.8153 20.9578C14.2428 20.9578 13.7986 21.402 13.7986 22.0165C13.7986 22.631 14.2428 23.0752 14.8153 23.0752C15.1114 23.0752 15.3237 22.969 15.452 22.779V23.0332H15.8962V22.0165ZM14.2453 22.0165C14.2453 21.6562 14.4772 21.3601 14.8597 21.3601C15.22 21.3601 15.4742 21.6365 15.4742 22.0165C15.4742 22.3768 15.22 22.6729 14.8597 22.6729C14.4772 22.6507 14.2453 22.3743 14.2453 22.0165Z" fill="#9B9B9B"/>
<path d="M24.5868 5.55664H17.9141V17.5449H24.5868V5.55664Z" fill="#AFAFAF"/>
<path d="M18.3564 11.5511C18.3564 9.11541 19.5014 6.95368 21.2585 5.55695C19.9654 4.54025 18.3342 3.92578 16.555 3.92578C12.3401 3.92578 8.92969 7.33618 8.92969 11.5511C8.92969 15.7659 12.3401 19.1763 16.555 19.1763C18.3342 19.1763 19.9654 18.5619 21.2585 17.5452C19.499 16.1682 18.3564 13.9867 18.3564 11.5511Z" fill="#9B9B9B"/>
<path d="M33.5866 11.5511C33.5866 15.7659 30.1762 19.1763 25.9613 19.1763C24.1821 19.1763 22.5509 18.5619 21.2578 17.5452C23.037 16.146 24.1599 13.9867 24.1599 11.5511C24.1599 9.11541 23.0148 6.95368 21.2578 5.55695C22.5484 4.54025 24.1796 3.92578 25.9588 3.92578C30.1762 3.92578 33.5866 7.35839 33.5866 11.5511Z" fill="#C6C6C6"/>
</svg>
