<svg width="38" height="39" viewBox="0 0 38 39" fill="none" xmlns="http://www.w3.org/2000/svg">
<g filter="url(#filter0_bii_323_21522)">
<path d="M0 12.5835C0 8.52207 0 6.49135 0.790411 4.94008C1.48568 3.57555 2.59508 2.46614 3.95961 1.77088C5.51088 0.980469 7.5416 0.980469 11.6031 0.980469L26.3969 0.980469C30.4584 0.980469 32.4891 0.980469 34.0404 1.77088C35.4049 2.46614 36.5143 3.57555 37.2096 4.94008C38 6.49135 38 8.52207 38 12.5835V27.3774C38 31.4389 38 33.4696 37.2096 35.0209C36.5143 36.3854 35.4049 37.4948 34.0404 38.1901C32.4891 38.9805 30.4584 38.9805 26.3969 38.9805H11.6031C7.5416 38.9805 5.51088 38.9805 3.95961 38.1901C2.59508 37.4948 1.48568 36.3854 0.790411 35.0209C0 33.4696 0 31.4389 0 27.3774L0 12.5835Z" fill="white" fill-opacity="0.03"/>
</g>
<g clip-path="url(#clip0_323_21522)">
<path d="M18.4922 19.125V21.3398C18.4922 22.3008 18.3896 23.1299 18.1846 23.8271C17.9795 24.5186 17.6836 25.0869 17.2969 25.5322C16.916 25.9717 16.4619 26.2969 15.9346 26.5078C15.4072 26.7188 14.8213 26.8242 14.1768 26.8242C13.6611 26.8242 13.1807 26.7598 12.7354 26.6309C12.29 26.4961 11.8887 26.2881 11.5312 26.0068C11.1797 25.7256 10.875 25.3711 10.6172 24.9434C10.3652 24.5098 10.1719 23.9941 10.0371 23.3965C9.90234 22.7988 9.83496 22.1133 9.83496 21.3398V19.125C9.83496 18.1641 9.9375 17.3408 10.1426 16.6553C10.3535 15.9639 10.6494 15.3984 11.0303 14.959C11.417 14.5195 11.874 14.1973 12.4014 13.9922C12.9287 13.7812 13.5146 13.6758 14.1592 13.6758C14.6748 13.6758 15.1523 13.7432 15.5918 13.8779C16.0371 14.0068 16.4385 14.209 16.7959 14.4844C17.1533 14.7598 17.458 15.1143 17.71 15.5479C17.9619 15.9756 18.1553 16.4883 18.29 17.0859C18.4248 17.6777 18.4922 18.3574 18.4922 19.125ZM15.9521 21.6738V18.7822C15.9521 18.3193 15.9258 17.915 15.873 17.5693C15.8262 17.2236 15.7529 16.9307 15.6533 16.6904C15.5537 16.4443 15.4307 16.2451 15.2842 16.0928C15.1377 15.9404 14.9707 15.8291 14.7832 15.7588C14.5957 15.6885 14.3877 15.6533 14.1592 15.6533C13.8721 15.6533 13.6172 15.709 13.3945 15.8203C13.1777 15.9316 12.9932 16.1104 12.8408 16.3564C12.6885 16.5967 12.5713 16.9189 12.4893 17.3232C12.4131 17.7217 12.375 18.208 12.375 18.7822V21.6738C12.375 22.1367 12.3984 22.5439 12.4453 22.8955C12.498 23.2471 12.5742 23.5488 12.6738 23.8008C12.7793 24.0469 12.9023 24.249 13.043 24.4072C13.1895 24.5596 13.3564 24.6709 13.5439 24.7412C13.7373 24.8115 13.9482 24.8467 14.1768 24.8467C14.458 24.8467 14.707 24.791 14.9238 24.6797C15.1465 24.5625 15.334 24.3809 15.4863 24.1348C15.6445 23.8828 15.7617 23.5547 15.8379 23.1504C15.9141 22.7461 15.9521 22.2539 15.9521 21.6738ZM28.9688 24.6709V26.6484H20.2148V24.9609L24.3545 20.5225C24.7705 20.0596 25.0986 19.6523 25.3389 19.3008C25.5791 18.9434 25.752 18.624 25.8574 18.3428C25.9688 18.0557 26.0244 17.7832 26.0244 17.5254C26.0244 17.1387 25.96 16.8076 25.8311 16.5322C25.7021 16.251 25.5117 16.0342 25.2598 15.8818C25.0137 15.7295 24.709 15.6533 24.3457 15.6533C23.959 15.6533 23.625 15.7471 23.3438 15.9346C23.0684 16.1221 22.8574 16.3828 22.7109 16.7168C22.5703 17.0508 22.5 17.4287 22.5 17.8506H19.96C19.96 17.0889 20.1416 16.3916 20.5049 15.7588C20.8682 15.1201 21.3809 14.6133 22.043 14.2383C22.7051 13.8574 23.4902 13.667 24.3984 13.667C25.2949 13.667 26.0508 13.8135 26.666 14.1064C27.2871 14.3936 27.7559 14.8096 28.0723 15.3545C28.3945 15.8936 28.5557 16.5381 28.5557 17.2881C28.5557 17.71 28.4883 18.123 28.3535 18.5273C28.2188 18.9258 28.0254 19.3242 27.7734 19.7227C27.5273 20.1152 27.2285 20.5137 26.877 20.918C26.5254 21.3223 26.1357 21.7412 25.708 22.1748L23.4844 24.6709H28.9688Z" fill="url(#paint0_linear_323_21522)"/>
</g>
<defs>
<filter id="filter0_bii_323_21522" x="-4" y="-3.01953" width="46" height="46.8999" filterUnits="userSpaceOnUse" color-interpolation-filters="sRGB">
<feFlood flood-opacity="0" result="BackgroundImageFix"/>
<feGaussianBlur in="BackgroundImageFix" stdDeviation="2"/>
<feComposite in2="SourceAlpha" operator="in" result="effect1_backgroundBlur_323_21522"/>
<feBlend mode="normal" in="SourceGraphic" in2="effect1_backgroundBlur_323_21522" result="shape"/>
<feColorMatrix in="SourceAlpha" type="matrix" values="0 0 0 0 0 0 0 0 0 0 0 0 0 0 0 0 0 0 127 0" result="hardAlpha"/>
<feOffset/>
<feGaussianBlur stdDeviation="19.5996"/>
<feComposite in2="hardAlpha" operator="arithmetic" k2="-1" k3="1"/>
<feColorMatrix type="matrix" values="0 0 0 0 1 0 0 0 0 1 0 0 0 0 1 0 0 0 0.08 0"/>
<feBlend mode="normal" in2="shape" result="effect2_innerShadow_323_21522"/>
<feColorMatrix in="SourceAlpha" type="matrix" values="0 0 0 0 0 0 0 0 0 0 0 0 0 0 0 0 0 0 127 0" result="hardAlpha"/>
<feOffset dy="4.89991"/>
<feGaussianBlur stdDeviation="4.95"/>
<feComposite in2="hardAlpha" operator="arithmetic" k2="-1" k3="1"/>
<feColorMatrix type="matrix" values="0 0 0 0 1 0 0 0 0 1 0 0 0 0 1 0 0 0 0.16 0"/>
<feBlend mode="normal" in2="effect2_innerShadow_323_21522" result="effect3_innerShadow_323_21522"/>
</filter>
<linearGradient id="paint0_linear_323_21522" x1="9" y1="20.2338" x2="30" y2="20.2338" gradientUnits="userSpaceOnUse">
<stop stop-color="#F126DF"/>
<stop offset="1" stop-color="#1EF2F6"/>
</linearGradient>
<clipPath id="clip0_323_21522">
<rect width="24" height="24" fill="white" transform="translate(7 7.64844)"/>
</clipPath>
</defs>
</svg>
