<svg width="38" height="39" viewBox="0 0 38 39" fill="none" xmlns="http://www.w3.org/2000/svg">
<g filter="url(#filter0_bii_323_21574)">
<path d="M0 11.7505C0 7.68907 0 5.65834 0.790411 4.10707C1.48568 2.74254 2.59508 1.63314 3.95961 0.937872C5.51088 0.147461 7.5416 0.147461 11.6031 0.147461L26.3969 0.147461C30.4584 0.147461 32.4891 0.147461 34.0404 0.937872C35.4049 1.63314 36.5143 2.74254 37.2096 4.10707C38 5.65834 38 7.68907 38 11.7505V26.5444C38 30.6059 38 32.6366 37.2096 34.1879C36.5143 35.5524 35.4049 36.6618 34.0404 37.3571C32.4891 38.1475 30.4584 38.1475 26.3969 38.1475H11.6031C7.5416 38.1475 5.51088 38.1475 3.95961 37.3571C2.59508 36.6618 1.48568 35.5524 0.790411 34.1879C0 32.6366 0 30.6059 0 26.5444L0 11.7505Z" fill="white" fill-opacity="0.03"/>
</g>
<g clip-path="url(#clip0_323_21574)">
<path d="M18.4922 18.291V20.5059C18.4922 21.4668 18.3896 22.2959 18.1846 22.9932C17.9795 23.6846 17.6836 24.2529 17.2969 24.6982C16.916 25.1377 16.4619 25.4629 15.9346 25.6738C15.4072 25.8848 14.8213 25.9902 14.1768 25.9902C13.6611 25.9902 13.1807 25.9258 12.7354 25.7969C12.29 25.6621 11.8887 25.4541 11.5312 25.1729C11.1797 24.8916 10.875 24.5371 10.6172 24.1094C10.3652 23.6758 10.1719 23.1602 10.0371 22.5625C9.90234 21.9648 9.83496 21.2793 9.83496 20.5059V18.291C9.83496 17.3301 9.9375 16.5068 10.1426 15.8213C10.3535 15.1299 10.6494 14.5645 11.0303 14.125C11.417 13.6855 11.874 13.3633 12.4014 13.1582C12.9287 12.9473 13.5146 12.8418 14.1592 12.8418C14.6748 12.8418 15.1523 12.9092 15.5918 13.0439C16.0371 13.1729 16.4385 13.375 16.7959 13.6504C17.1533 13.9258 17.458 14.2803 17.71 14.7139C17.9619 15.1416 18.1553 15.6543 18.29 16.252C18.4248 16.8438 18.4922 17.5234 18.4922 18.291ZM15.9521 20.8398V17.9482C15.9521 17.4854 15.9258 17.0811 15.873 16.7354C15.8262 16.3896 15.7529 16.0967 15.6533 15.8564C15.5537 15.6104 15.4307 15.4111 15.2842 15.2588C15.1377 15.1064 14.9707 14.9951 14.7832 14.9248C14.5957 14.8545 14.3877 14.8193 14.1592 14.8193C13.8721 14.8193 13.6172 14.875 13.3945 14.9863C13.1777 15.0977 12.9932 15.2764 12.8408 15.5225C12.6885 15.7627 12.5713 16.085 12.4893 16.4893C12.4131 16.8877 12.375 17.374 12.375 17.9482V20.8398C12.375 21.3027 12.3984 21.71 12.4453 22.0615C12.498 22.4131 12.5742 22.7148 12.6738 22.9668C12.7793 23.2129 12.9023 23.415 13.043 23.5732C13.1895 23.7256 13.3564 23.8369 13.5439 23.9072C13.7373 23.9775 13.9482 24.0127 14.1768 24.0127C14.458 24.0127 14.707 23.957 14.9238 23.8457C15.1465 23.7285 15.334 23.5469 15.4863 23.3008C15.6445 23.0488 15.7617 22.7207 15.8379 22.3164C15.9141 21.9121 15.9521 21.4199 15.9521 20.8398ZM26.7451 12.8857H27.1143V14.9072H26.9648C26.2969 14.9072 25.7021 15.0068 25.1807 15.2061C24.6592 15.4053 24.2168 15.6895 23.8535 16.0586C23.4961 16.4219 23.2207 16.8613 23.0273 17.377C22.8398 17.8926 22.7461 18.4697 22.7461 19.1084V21.2354C22.7461 21.6924 22.79 22.0967 22.8779 22.4482C22.9717 22.7939 23.1035 23.084 23.2734 23.3184C23.4492 23.5469 23.6543 23.7197 23.8887 23.8369C24.123 23.9482 24.3867 24.0039 24.6797 24.0039C24.9551 24.0039 25.2041 23.9453 25.4268 23.8281C25.6553 23.7109 25.8486 23.5469 26.0068 23.3359C26.1709 23.1191 26.2939 22.8672 26.376 22.5801C26.4639 22.2871 26.5078 21.9678 26.5078 21.6221C26.5078 21.2764 26.4639 20.957 26.376 20.6641C26.2939 20.3711 26.1709 20.1191 26.0068 19.9082C25.8428 19.6914 25.6436 19.5244 25.4092 19.4072C25.1748 19.29 24.9111 19.2314 24.6182 19.2314C24.2197 19.2314 23.8682 19.3252 23.5635 19.5127C23.2646 19.6943 23.0303 19.9287 22.8604 20.2158C22.6904 20.5029 22.5996 20.8047 22.5879 21.1211L21.8232 20.6289C21.8408 20.1777 21.9346 19.75 22.1045 19.3457C22.2803 18.9414 22.5205 18.584 22.8252 18.2734C23.1357 17.957 23.5078 17.7109 23.9414 17.5352C24.375 17.3535 24.8643 17.2627 25.4092 17.2627C26.0068 17.2627 26.5312 17.377 26.9824 17.6055C27.4395 17.834 27.8203 18.1475 28.125 18.5459C28.4297 18.9443 28.6582 19.4043 28.8105 19.9258C28.9629 20.4473 29.0391 21.0039 29.0391 21.5957C29.0391 22.2168 28.9365 22.7939 28.7314 23.3271C28.5322 23.8604 28.2422 24.3262 27.8613 24.7246C27.4863 25.123 27.0352 25.4336 26.5078 25.6562C25.9805 25.8789 25.3887 25.9902 24.7324 25.9902C24.0527 25.9902 23.4346 25.8672 22.8779 25.6211C22.3271 25.3691 21.8525 25.0176 21.4541 24.5664C21.0557 24.1152 20.748 23.5791 20.5312 22.958C20.3203 22.3369 20.2148 21.6572 20.2148 20.9189V19.9346C20.2148 18.9033 20.3643 17.96 20.6631 17.1045C20.9678 16.2432 21.4043 15.499 21.9727 14.8721C22.541 14.2393 23.2266 13.75 24.0293 13.4043C24.832 13.0586 25.7373 12.8857 26.7451 12.8857Z" fill="url(#paint0_linear_323_21574)"/>
</g>
<defs>
<filter id="filter0_bii_323_21574" x="-4" y="-3.85254" width="46" height="46.8999" filterUnits="userSpaceOnUse" color-interpolation-filters="sRGB">
<feFlood flood-opacity="0" result="BackgroundImageFix"/>
<feGaussianBlur in="BackgroundImageFix" stdDeviation="2"/>
<feComposite in2="SourceAlpha" operator="in" result="effect1_backgroundBlur_323_21574"/>
<feBlend mode="normal" in="SourceGraphic" in2="effect1_backgroundBlur_323_21574" result="shape"/>
<feColorMatrix in="SourceAlpha" type="matrix" values="0 0 0 0 0 0 0 0 0 0 0 0 0 0 0 0 0 0 127 0" result="hardAlpha"/>
<feOffset/>
<feGaussianBlur stdDeviation="19.5996"/>
<feComposite in2="hardAlpha" operator="arithmetic" k2="-1" k3="1"/>
<feColorMatrix type="matrix" values="0 0 0 0 1 0 0 0 0 1 0 0 0 0 1 0 0 0 0.08 0"/>
<feBlend mode="normal" in2="shape" result="effect2_innerShadow_323_21574"/>
<feColorMatrix in="SourceAlpha" type="matrix" values="0 0 0 0 0 0 0 0 0 0 0 0 0 0 0 0 0 0 127 0" result="hardAlpha"/>
<feOffset dy="4.89991"/>
<feGaussianBlur stdDeviation="4.95"/>
<feComposite in2="hardAlpha" operator="arithmetic" k2="-1" k3="1"/>
<feColorMatrix type="matrix" values="0 0 0 0 1 0 0 0 0 1 0 0 0 0 1 0 0 0 0.16 0"/>
<feBlend mode="normal" in2="effect2_innerShadow_323_21574" result="effect3_innerShadow_323_21574"/>
</filter>
<linearGradient id="paint0_linear_323_21574" x1="9" y1="19.3998" x2="30" y2="19.3998" gradientUnits="userSpaceOnUse">
<stop stop-color="#F126DF"/>
<stop offset="1" stop-color="#1EF2F6"/>
</linearGradient>
<clipPath id="clip0_323_21574">
<rect width="24" height="24" fill="white" transform="translate(7 6.81445)"/>
</clipPath>
</defs>
</svg>
