<svg width="38" height="39" viewBox="0 0 38 39" fill="none" xmlns="http://www.w3.org/2000/svg">
<g filter="url(#filter0_bii_323_21563)">
<path d="M0 11.6304C0 7.56895 0 5.53822 0.790411 3.98695C1.48568 2.62242 2.59508 1.51302 3.95961 0.817755C5.51088 0.0273437 7.5416 0.0273437 11.6031 0.0273437L26.3969 0.0273437C30.4584 0.0273437 32.4891 0.0273437 34.0404 0.817755C35.4049 1.51302 36.5143 2.62242 37.2096 3.98695C38 5.53822 38 7.56895 38 11.6304V26.4243C38 30.4857 38 32.5165 37.2096 34.0677C36.5143 35.4323 35.4049 36.5417 34.0404 37.2369C32.4891 38.0273 30.4584 38.0273 26.3969 38.0273H11.6031C7.5416 38.0273 5.51088 38.0273 3.95961 37.2369C2.59508 36.5417 1.48568 35.4323 0.790411 34.0677C0 32.5165 0 30.4857 0 26.4243L0 11.6304Z" fill="white" fill-opacity="0.03"/>
</g>
<g clip-path="url(#clip0_323_21563)">
<path d="M18.4922 18.1719V20.3867C18.4922 21.3477 18.3896 22.1768 18.1846 22.874C17.9795 23.5654 17.6836 24.1338 17.2969 24.5791C16.916 25.0186 16.4619 25.3438 15.9346 25.5547C15.4072 25.7656 14.8213 25.8711 14.1768 25.8711C13.6611 25.8711 13.1807 25.8066 12.7354 25.6777C12.29 25.543 11.8887 25.335 11.5312 25.0537C11.1797 24.7725 10.875 24.418 10.6172 23.9902C10.3652 23.5566 10.1719 23.041 10.0371 22.4434C9.90234 21.8457 9.83496 21.1602 9.83496 20.3867V18.1719C9.83496 17.2109 9.9375 16.3877 10.1426 15.7021C10.3535 15.0107 10.6494 14.4453 11.0303 14.0059C11.417 13.5664 11.874 13.2441 12.4014 13.0391C12.9287 12.8281 13.5146 12.7227 14.1592 12.7227C14.6748 12.7227 15.1523 12.79 15.5918 12.9248C16.0371 13.0537 16.4385 13.2559 16.7959 13.5312C17.1533 13.8066 17.458 14.1611 17.71 14.5947C17.9619 15.0225 18.1553 15.5352 18.29 16.1328C18.4248 16.7246 18.4922 17.4043 18.4922 18.1719ZM15.9521 20.7207V17.8291C15.9521 17.3662 15.9258 16.9619 15.873 16.6162C15.8262 16.2705 15.7529 15.9775 15.6533 15.7373C15.5537 15.4912 15.4307 15.292 15.2842 15.1396C15.1377 14.9873 14.9707 14.876 14.7832 14.8057C14.5957 14.7354 14.3877 14.7002 14.1592 14.7002C13.8721 14.7002 13.6172 14.7559 13.3945 14.8672C13.1777 14.9785 12.9932 15.1572 12.8408 15.4033C12.6885 15.6436 12.5713 15.9658 12.4893 16.3701C12.4131 16.7686 12.375 17.2549 12.375 17.8291V20.7207C12.375 21.1836 12.3984 21.5908 12.4453 21.9424C12.498 22.2939 12.5742 22.5957 12.6738 22.8477C12.7793 23.0938 12.9023 23.2959 13.043 23.4541C13.1895 23.6064 13.3564 23.7178 13.5439 23.7881C13.7373 23.8584 13.9482 23.8936 14.1768 23.8936C14.458 23.8936 14.707 23.8379 14.9238 23.7266C15.1465 23.6094 15.334 23.4277 15.4863 23.1816C15.6445 22.9297 15.7617 22.6016 15.8379 22.1973C15.9141 21.793 15.9521 21.3008 15.9521 20.7207ZM22.5967 19.8682L20.5752 19.3848L21.3047 12.8984H28.4941V14.9463H23.3877L23.0713 17.7852C23.2412 17.6855 23.499 17.5801 23.8447 17.4688C24.1904 17.3516 24.5771 17.293 25.0049 17.293C25.626 17.293 26.1768 17.3896 26.6572 17.583C27.1377 17.7764 27.5449 18.0576 27.8789 18.4268C28.2188 18.7959 28.4766 19.2471 28.6523 19.7803C28.8281 20.3135 28.916 20.917 28.916 21.5908C28.916 22.1592 28.8281 22.7012 28.6523 23.2168C28.4766 23.7266 28.21 24.1836 27.8525 24.5879C27.4951 24.9863 27.0469 25.2998 26.5078 25.5283C25.9688 25.7568 25.3301 25.8711 24.5918 25.8711C24.041 25.8711 23.5078 25.7891 22.9922 25.625C22.4824 25.4609 22.0225 25.2178 21.6123 24.8955C21.208 24.5732 20.8828 24.1836 20.6367 23.7266C20.3965 23.2637 20.2705 22.7363 20.2588 22.1445H22.7725C22.8076 22.5078 22.9014 22.8213 23.0537 23.085C23.2119 23.3428 23.4199 23.542 23.6777 23.6826C23.9355 23.8232 24.2373 23.8936 24.583 23.8936C24.9053 23.8936 25.1807 23.832 25.4092 23.709C25.6377 23.5859 25.8223 23.416 25.9629 23.1992C26.1035 22.9766 26.2061 22.7188 26.2705 22.4258C26.3408 22.127 26.376 21.8047 26.376 21.459C26.376 21.1133 26.335 20.7998 26.2529 20.5186C26.1709 20.2373 26.0449 19.9941 25.875 19.7891C25.7051 19.584 25.4883 19.4258 25.2246 19.3145C24.9668 19.2031 24.665 19.1475 24.3193 19.1475C23.8506 19.1475 23.4873 19.2207 23.2295 19.3672C22.9775 19.5137 22.7666 19.6807 22.5967 19.8682Z" fill="url(#paint0_linear_323_21563)"/>
</g>
<defs>
<filter id="filter0_bii_323_21563" x="-4" y="-3.97266" width="46" height="46.8999" filterUnits="userSpaceOnUse" color-interpolation-filters="sRGB">
<feFlood flood-opacity="0" result="BackgroundImageFix"/>
<feGaussianBlur in="BackgroundImageFix" stdDeviation="2"/>
<feComposite in2="SourceAlpha" operator="in" result="effect1_backgroundBlur_323_21563"/>
<feBlend mode="normal" in="SourceGraphic" in2="effect1_backgroundBlur_323_21563" result="shape"/>
<feColorMatrix in="SourceAlpha" type="matrix" values="0 0 0 0 0 0 0 0 0 0 0 0 0 0 0 0 0 0 127 0" result="hardAlpha"/>
<feOffset/>
<feGaussianBlur stdDeviation="19.5996"/>
<feComposite in2="hardAlpha" operator="arithmetic" k2="-1" k3="1"/>
<feColorMatrix type="matrix" values="0 0 0 0 1 0 0 0 0 1 0 0 0 0 1 0 0 0 0.08 0"/>
<feBlend mode="normal" in2="shape" result="effect2_innerShadow_323_21563"/>
<feColorMatrix in="SourceAlpha" type="matrix" values="0 0 0 0 0 0 0 0 0 0 0 0 0 0 0 0 0 0 127 0" result="hardAlpha"/>
<feOffset dy="4.89991"/>
<feGaussianBlur stdDeviation="4.95"/>
<feComposite in2="hardAlpha" operator="arithmetic" k2="-1" k3="1"/>
<feColorMatrix type="matrix" values="0 0 0 0 1 0 0 0 0 1 0 0 0 0 1 0 0 0 0.16 0"/>
<feBlend mode="normal" in2="effect2_innerShadow_323_21563" result="effect3_innerShadow_323_21563"/>
</filter>
<linearGradient id="paint0_linear_323_21563" x1="9" y1="19.2807" x2="30" y2="19.2807" gradientUnits="userSpaceOnUse">
<stop stop-color="#F126DF"/>
<stop offset="1" stop-color="#1EF2F6"/>
</linearGradient>
<clipPath id="clip0_323_21563">
<rect width="24" height="24" fill="white" transform="translate(7 6.69531)"/>
</clipPath>
</defs>
</svg>
