<svg width="38" height="39" viewBox="0 0 38 39" fill="none" xmlns="http://www.w3.org/2000/svg">
<g filter="url(#filter0_bii_323_21510)">
<path d="M0 12.521C0 8.45957 0 6.42885 0.790411 4.87758C1.48568 3.51305 2.59508 2.40364 3.95961 1.70838C5.51088 0.917969 7.5416 0.917969 11.6031 0.917969L26.3969 0.917969C30.4584 0.917969 32.4891 0.917969 34.0404 1.70838C35.4049 2.40364 36.5143 3.51305 37.2096 4.87758C38 6.42885 38 8.45957 38 12.521V27.3149C38 31.3764 38 33.4071 37.2096 34.9584C36.5143 36.3229 35.4049 37.4323 34.0404 38.1276C32.4891 38.918 30.4584 38.918 26.3969 38.918H11.6031C7.5416 38.918 5.51088 38.918 3.95961 38.1276C2.59508 37.4323 1.48568 36.3229 0.790411 34.9584C0 33.4071 0 31.3764 0 27.3149L0 12.521Z" fill="white" fill-opacity="0.03"/>
</g>
<g clip-path="url(#clip0_323_21510)">
<path d="M18.4922 19.0625V21.2773C18.4922 22.2383 18.3896 23.0674 18.1846 23.7646C17.9795 24.4561 17.6836 25.0244 17.2969 25.4697C16.916 25.9092 16.4619 26.2344 15.9346 26.4453C15.4072 26.6562 14.8213 26.7617 14.1768 26.7617C13.6611 26.7617 13.1807 26.6973 12.7354 26.5684C12.29 26.4336 11.8887 26.2256 11.5312 25.9443C11.1797 25.6631 10.875 25.3086 10.6172 24.8809C10.3652 24.4473 10.1719 23.9316 10.0371 23.334C9.90234 22.7363 9.83496 22.0508 9.83496 21.2773V19.0625C9.83496 18.1016 9.9375 17.2783 10.1426 16.5928C10.3535 15.9014 10.6494 15.3359 11.0303 14.8965C11.417 14.457 11.874 14.1348 12.4014 13.9297C12.9287 13.7188 13.5146 13.6133 14.1592 13.6133C14.6748 13.6133 15.1523 13.6807 15.5918 13.8154C16.0371 13.9443 16.4385 14.1465 16.7959 14.4219C17.1533 14.6973 17.458 15.0518 17.71 15.4854C17.9619 15.9131 18.1553 16.4258 18.29 17.0234C18.4248 17.6152 18.4922 18.2949 18.4922 19.0625ZM15.9521 21.6113V18.7197C15.9521 18.2568 15.9258 17.8525 15.873 17.5068C15.8262 17.1611 15.7529 16.8682 15.6533 16.6279C15.5537 16.3818 15.4307 16.1826 15.2842 16.0303C15.1377 15.8779 14.9707 15.7666 14.7832 15.6963C14.5957 15.626 14.3877 15.5908 14.1592 15.5908C13.8721 15.5908 13.6172 15.6465 13.3945 15.7578C13.1777 15.8691 12.9932 16.0479 12.8408 16.2939C12.6885 16.5342 12.5713 16.8564 12.4893 17.2607C12.4131 17.6592 12.375 18.1455 12.375 18.7197V21.6113C12.375 22.0742 12.3984 22.4814 12.4453 22.833C12.498 23.1846 12.5742 23.4863 12.6738 23.7383C12.7793 23.9844 12.9023 24.1865 13.043 24.3447C13.1895 24.4971 13.3564 24.6084 13.5439 24.6787C13.7373 24.749 13.9482 24.7842 14.1768 24.7842C14.458 24.7842 14.707 24.7285 14.9238 24.6172C15.1465 24.5 15.334 24.3184 15.4863 24.0723C15.6445 23.8203 15.7617 23.4922 15.8379 23.0879C15.9141 22.6836 15.9521 22.1914 15.9521 21.6113ZM26.3848 13.7627V26.5859H23.8535V16.6807L20.8125 17.6475V15.6523L26.1123 13.7627H26.3848Z" fill="url(#paint0_linear_323_21510)"/>
</g>
<defs>
<filter id="filter0_bii_323_21510" x="-4" y="-3.08203" width="46" height="46.8999" filterUnits="userSpaceOnUse" color-interpolation-filters="sRGB">
<feFlood flood-opacity="0" result="BackgroundImageFix"/>
<feGaussianBlur in="BackgroundImageFix" stdDeviation="2"/>
<feComposite in2="SourceAlpha" operator="in" result="effect1_backgroundBlur_323_21510"/>
<feBlend mode="normal" in="SourceGraphic" in2="effect1_backgroundBlur_323_21510" result="shape"/>
<feColorMatrix in="SourceAlpha" type="matrix" values="0 0 0 0 0 0 0 0 0 0 0 0 0 0 0 0 0 0 127 0" result="hardAlpha"/>
<feOffset/>
<feGaussianBlur stdDeviation="19.5996"/>
<feComposite in2="hardAlpha" operator="arithmetic" k2="-1" k3="1"/>
<feColorMatrix type="matrix" values="0 0 0 0 1 0 0 0 0 1 0 0 0 0 1 0 0 0 0.08 0"/>
<feBlend mode="normal" in2="shape" result="effect2_innerShadow_323_21510"/>
<feColorMatrix in="SourceAlpha" type="matrix" values="0 0 0 0 0 0 0 0 0 0 0 0 0 0 0 0 0 0 127 0" result="hardAlpha"/>
<feOffset dy="4.89991"/>
<feGaussianBlur stdDeviation="4.95"/>
<feComposite in2="hardAlpha" operator="arithmetic" k2="-1" k3="1"/>
<feColorMatrix type="matrix" values="0 0 0 0 1 0 0 0 0 1 0 0 0 0 1 0 0 0 0.16 0"/>
<feBlend mode="normal" in2="effect2_innerShadow_323_21510" result="effect3_innerShadow_323_21510"/>
</filter>
<linearGradient id="paint0_linear_323_21510" x1="9" y1="20.1713" x2="30" y2="20.1713" gradientUnits="userSpaceOnUse">
<stop stop-color="#F126DF"/>
<stop offset="1" stop-color="#1EF2F6"/>
</linearGradient>
<clipPath id="clip0_323_21510">
<rect width="24" height="24" fill="white" transform="translate(7 7.58594)"/>
</clipPath>
</defs>
</svg>
