<svg width="38" height="39" viewBox="0 0 38 39" fill="none" xmlns="http://www.w3.org/2000/svg">
<g filter="url(#filter0_bii_323_21537)">
<path d="M0 11.7554C0 7.69395 0 5.66322 0.790411 4.11195C1.48568 2.74742 2.59508 1.63802 3.95961 0.942755C5.51088 0.152344 7.5416 0.152344 11.6031 0.152344L26.3969 0.152344C30.4584 0.152344 32.4891 0.152344 34.0404 0.942755C35.4049 1.63802 36.5143 2.74742 37.2096 4.11195C38 5.66322 38 7.69395 38 11.7554V26.5493C38 30.6107 38 32.6415 37.2096 34.1927C36.5143 35.5573 35.4049 36.6667 34.0404 37.3619C32.4891 38.1523 30.4584 38.1523 26.3969 38.1523H11.6031C7.5416 38.1523 5.51088 38.1523 3.95961 37.3619C2.59508 36.6667 1.48568 35.5573 0.790411 34.1927C0 32.6415 0 30.6107 0 26.5493L0 11.7554Z" fill="white" fill-opacity="0.03"/>
</g>
<g clip-path="url(#clip0_323_21537)">
<path d="M18.4922 18.2969V20.5117C18.4922 21.4727 18.3896 22.3018 18.1846 22.999C17.9795 23.6904 17.6836 24.2588 17.2969 24.7041C16.916 25.1436 16.4619 25.4688 15.9346 25.6797C15.4072 25.8906 14.8213 25.9961 14.1768 25.9961C13.6611 25.9961 13.1807 25.9316 12.7354 25.8027C12.29 25.668 11.8887 25.46 11.5312 25.1787C11.1797 24.8975 10.875 24.543 10.6172 24.1152C10.3652 23.6816 10.1719 23.166 10.0371 22.5684C9.90234 21.9707 9.83496 21.2852 9.83496 20.5117V18.2969C9.83496 17.3359 9.9375 16.5127 10.1426 15.8271C10.3535 15.1357 10.6494 14.5703 11.0303 14.1309C11.417 13.6914 11.874 13.3691 12.4014 13.1641C12.9287 12.9531 13.5146 12.8477 14.1592 12.8477C14.6748 12.8477 15.1523 12.915 15.5918 13.0498C16.0371 13.1787 16.4385 13.3809 16.7959 13.6562C17.1533 13.9316 17.458 14.2861 17.71 14.7197C17.9619 15.1475 18.1553 15.6602 18.29 16.2578C18.4248 16.8496 18.4922 17.5293 18.4922 18.2969ZM15.9521 20.8457V17.9541C15.9521 17.4912 15.9258 17.0869 15.873 16.7412C15.8262 16.3955 15.7529 16.1025 15.6533 15.8623C15.5537 15.6162 15.4307 15.417 15.2842 15.2646C15.1377 15.1123 14.9707 15.001 14.7832 14.9307C14.5957 14.8604 14.3877 14.8252 14.1592 14.8252C13.8721 14.8252 13.6172 14.8809 13.3945 14.9922C13.1777 15.1035 12.9932 15.2822 12.8408 15.5283C12.6885 15.7686 12.5713 16.0908 12.4893 16.4951C12.4131 16.8936 12.375 17.3799 12.375 17.9541V20.8457C12.375 21.3086 12.3984 21.7158 12.4453 22.0674C12.498 22.4189 12.5742 22.7207 12.6738 22.9727C12.7793 23.2188 12.9023 23.4209 13.043 23.5791C13.1895 23.7314 13.3564 23.8428 13.5439 23.9131C13.7373 23.9834 13.9482 24.0186 14.1768 24.0186C14.458 24.0186 14.707 23.9629 14.9238 23.8516C15.1465 23.7344 15.334 23.5527 15.4863 23.3066C15.6445 23.0547 15.7617 22.7266 15.8379 22.3223C15.9141 21.918 15.9521 21.4258 15.9521 20.8457ZM22.8076 18.3232H24.1611C24.5947 18.3232 24.9521 18.25 25.2334 18.1035C25.5146 17.9512 25.7227 17.7402 25.8574 17.4707C25.998 17.1953 26.0684 16.876 26.0684 16.5127C26.0684 16.1846 26.0039 15.8945 25.875 15.6426C25.752 15.3848 25.5615 15.1855 25.3037 15.0449C25.0459 14.8984 24.7207 14.8252 24.3281 14.8252C24.0176 14.8252 23.7305 14.8867 23.4668 15.0098C23.2031 15.1328 22.9922 15.3057 22.834 15.5283C22.6758 15.751 22.5967 16.0205 22.5967 16.3369H20.0566C20.0566 15.6338 20.2441 15.0215 20.6191 14.5C21 13.9785 21.5098 13.5713 22.1484 13.2783C22.7871 12.9854 23.4902 12.8389 24.2578 12.8389C25.125 12.8389 25.8838 12.9795 26.5342 13.2607C27.1846 13.5361 27.6914 13.9434 28.0547 14.4824C28.418 15.0215 28.5996 15.6895 28.5996 16.4863C28.5996 16.8906 28.5059 17.2832 28.3184 17.6641C28.1309 18.0391 27.8613 18.3789 27.5098 18.6836C27.1641 18.9824 26.7422 19.2227 26.2441 19.4043C25.7461 19.5801 25.1865 19.668 24.5654 19.668H22.8076V18.3232ZM22.8076 20.248V18.9385H24.5654C25.2627 18.9385 25.875 19.0176 26.4023 19.1758C26.9297 19.334 27.3721 19.5625 27.7295 19.8613C28.0869 20.1543 28.3564 20.5029 28.5381 20.9072C28.7197 21.3057 28.8105 21.748 28.8105 22.2344C28.8105 22.832 28.6963 23.3652 28.4678 23.834C28.2393 24.2969 27.917 24.6895 27.501 25.0117C27.0908 25.334 26.6104 25.5801 26.0596 25.75C25.5088 25.9141 24.9082 25.9961 24.2578 25.9961C23.7188 25.9961 23.1885 25.9229 22.667 25.7764C22.1514 25.624 21.6826 25.3984 21.2607 25.0996C20.8447 24.7949 20.5107 24.4141 20.2588 23.957C20.0127 23.4941 19.8896 22.9463 19.8896 22.3135H22.4297C22.4297 22.6416 22.5117 22.9346 22.6758 23.1924C22.8398 23.4502 23.0654 23.6523 23.3525 23.7988C23.6455 23.9453 23.9707 24.0186 24.3281 24.0186C24.7324 24.0186 25.0781 23.9453 25.3652 23.7988C25.6582 23.6465 25.8809 23.4355 26.0332 23.166C26.1914 22.8906 26.2705 22.5713 26.2705 22.208C26.2705 21.7393 26.1855 21.3643 26.0156 21.083C25.8457 20.7959 25.6025 20.585 25.2861 20.4502C24.9697 20.3154 24.5947 20.248 24.1611 20.248H22.8076Z" fill="url(#paint0_linear_323_21537)"/>
</g>
<defs>
<filter id="filter0_bii_323_21537" x="-4" y="-3.84766" width="46" height="46.8999" filterUnits="userSpaceOnUse" color-interpolation-filters="sRGB">
<feFlood flood-opacity="0" result="BackgroundImageFix"/>
<feGaussianBlur in="BackgroundImageFix" stdDeviation="2"/>
<feComposite in2="SourceAlpha" operator="in" result="effect1_backgroundBlur_323_21537"/>
<feBlend mode="normal" in="SourceGraphic" in2="effect1_backgroundBlur_323_21537" result="shape"/>
<feColorMatrix in="SourceAlpha" type="matrix" values="0 0 0 0 0 0 0 0 0 0 0 0 0 0 0 0 0 0 127 0" result="hardAlpha"/>
<feOffset/>
<feGaussianBlur stdDeviation="19.5996"/>
<feComposite in2="hardAlpha" operator="arithmetic" k2="-1" k3="1"/>
<feColorMatrix type="matrix" values="0 0 0 0 1 0 0 0 0 1 0 0 0 0 1 0 0 0 0.08 0"/>
<feBlend mode="normal" in2="shape" result="effect2_innerShadow_323_21537"/>
<feColorMatrix in="SourceAlpha" type="matrix" values="0 0 0 0 0 0 0 0 0 0 0 0 0 0 0 0 0 0 127 0" result="hardAlpha"/>
<feOffset dy="4.89991"/>
<feGaussianBlur stdDeviation="4.95"/>
<feComposite in2="hardAlpha" operator="arithmetic" k2="-1" k3="1"/>
<feColorMatrix type="matrix" values="0 0 0 0 1 0 0 0 0 1 0 0 0 0 1 0 0 0 0.16 0"/>
<feBlend mode="normal" in2="effect2_innerShadow_323_21537" result="effect3_innerShadow_323_21537"/>
</filter>
<linearGradient id="paint0_linear_323_21537" x1="9" y1="19.4057" x2="30" y2="19.4057" gradientUnits="userSpaceOnUse">
<stop stop-color="#F126DF"/>
<stop offset="1" stop-color="#1EF2F6"/>
</linearGradient>
<clipPath id="clip0_323_21537">
<rect width="24" height="24" fill="white" transform="translate(7 6.82031)"/>
</clipPath>
</defs>
</svg>
