<svg width="38" height="39" viewBox="0 0 38 39" fill="none" xmlns="http://www.w3.org/2000/svg">
<g filter="url(#filter0_bii_323_21550)">
<path d="M0 12.2671C0 8.20567 0 6.17494 0.790411 4.62367C1.48568 3.25914 2.59508 2.14974 3.95961 1.45447C5.51088 0.664062 7.5416 0.664062 11.6031 0.664062L26.3969 0.664062C30.4584 0.664062 32.4891 0.664062 34.0404 1.45447C35.4049 2.14974 36.5143 3.25914 37.2096 4.62367C38 6.17494 38 8.20567 38 12.2671V27.061C38 31.1225 38 33.1532 37.2096 34.7045C36.5143 36.069 35.4049 37.1784 34.0404 37.8737C32.4891 38.6641 30.4584 38.6641 26.3969 38.6641H11.6031C7.5416 38.6641 5.51088 38.6641 3.95961 37.8737C2.59508 37.1784 1.48568 36.069 0.790411 34.7045C0 33.1532 0 31.1225 0 27.061L0 12.2671Z" fill="white" fill-opacity="0.03"/>
</g>
<g clip-path="url(#clip0_323_21550)">
<path d="M18.4922 18.8086V21.0234C18.4922 21.9844 18.3896 22.8135 18.1846 23.5107C17.9795 24.2021 17.6836 24.7705 17.2969 25.2158C16.916 25.6553 16.4619 25.9805 15.9346 26.1914C15.4072 26.4023 14.8213 26.5078 14.1768 26.5078C13.6611 26.5078 13.1807 26.4434 12.7354 26.3145C12.29 26.1797 11.8887 25.9717 11.5312 25.6904C11.1797 25.4092 10.875 25.0547 10.6172 24.627C10.3652 24.1934 10.1719 23.6777 10.0371 23.0801C9.90234 22.4824 9.83496 21.7969 9.83496 21.0234V18.8086C9.83496 17.8477 9.9375 17.0244 10.1426 16.3389C10.3535 15.6475 10.6494 15.082 11.0303 14.6426C11.417 14.2031 11.874 13.8809 12.4014 13.6758C12.9287 13.4648 13.5146 13.3594 14.1592 13.3594C14.6748 13.3594 15.1523 13.4268 15.5918 13.5615C16.0371 13.6904 16.4385 13.8926 16.7959 14.168C17.1533 14.4434 17.458 14.7979 17.71 15.2314C17.9619 15.6592 18.1553 16.1719 18.29 16.7695C18.4248 17.3613 18.4922 18.041 18.4922 18.8086ZM15.9521 21.3574V18.4658C15.9521 18.0029 15.9258 17.5986 15.873 17.2529C15.8262 16.9072 15.7529 16.6143 15.6533 16.374C15.5537 16.1279 15.4307 15.9287 15.2842 15.7764C15.1377 15.624 14.9707 15.5127 14.7832 15.4424C14.5957 15.3721 14.3877 15.3369 14.1592 15.3369C13.8721 15.3369 13.6172 15.3926 13.3945 15.5039C13.1777 15.6152 12.9932 15.7939 12.8408 16.04C12.6885 16.2803 12.5713 16.6025 12.4893 17.0068C12.4131 17.4053 12.375 17.8916 12.375 18.4658V21.3574C12.375 21.8203 12.3984 22.2275 12.4453 22.5791C12.498 22.9307 12.5742 23.2324 12.6738 23.4844C12.7793 23.7305 12.9023 23.9326 13.043 24.0908C13.1895 24.2432 13.3564 24.3545 13.5439 24.4248C13.7373 24.4951 13.9482 24.5303 14.1768 24.5303C14.458 24.5303 14.707 24.4746 14.9238 24.3633C15.1465 24.2461 15.334 24.0645 15.4863 23.8184C15.6445 23.5664 15.7617 23.2383 15.8379 22.834C15.9141 22.4297 15.9521 21.9375 15.9521 21.3574ZM29.1797 21.5508V23.5371H19.96L19.8369 21.999L25.1719 13.5352H27.1846L25.0049 17.1826L22.3506 21.5508H29.1797ZM27.7295 13.5352V26.332H25.1982V13.5352H27.7295Z" fill="url(#paint0_linear_323_21550)"/>
</g>
<defs>
<filter id="filter0_bii_323_21550" x="-4" y="-3.33594" width="46" height="46.8999" filterUnits="userSpaceOnUse" color-interpolation-filters="sRGB">
<feFlood flood-opacity="0" result="BackgroundImageFix"/>
<feGaussianBlur in="BackgroundImageFix" stdDeviation="2"/>
<feComposite in2="SourceAlpha" operator="in" result="effect1_backgroundBlur_323_21550"/>
<feBlend mode="normal" in="SourceGraphic" in2="effect1_backgroundBlur_323_21550" result="shape"/>
<feColorMatrix in="SourceAlpha" type="matrix" values="0 0 0 0 0 0 0 0 0 0 0 0 0 0 0 0 0 0 127 0" result="hardAlpha"/>
<feOffset/>
<feGaussianBlur stdDeviation="19.5996"/>
<feComposite in2="hardAlpha" operator="arithmetic" k2="-1" k3="1"/>
<feColorMatrix type="matrix" values="0 0 0 0 1 0 0 0 0 1 0 0 0 0 1 0 0 0 0.08 0"/>
<feBlend mode="normal" in2="shape" result="effect2_innerShadow_323_21550"/>
<feColorMatrix in="SourceAlpha" type="matrix" values="0 0 0 0 0 0 0 0 0 0 0 0 0 0 0 0 0 0 127 0" result="hardAlpha"/>
<feOffset dy="4.89991"/>
<feGaussianBlur stdDeviation="4.95"/>
<feComposite in2="hardAlpha" operator="arithmetic" k2="-1" k3="1"/>
<feColorMatrix type="matrix" values="0 0 0 0 1 0 0 0 0 1 0 0 0 0 1 0 0 0 0.16 0"/>
<feBlend mode="normal" in2="effect2_innerShadow_323_21550" result="effect3_innerShadow_323_21550"/>
</filter>
<linearGradient id="paint0_linear_323_21550" x1="9" y1="19.9174" x2="30" y2="19.9174" gradientUnits="userSpaceOnUse">
<stop stop-color="#F126DF"/>
<stop offset="1" stop-color="#1EF2F6"/>
</linearGradient>
<clipPath id="clip0_323_21550">
<rect width="24" height="24" fill="white" transform="translate(7 7.33203)"/>
</clipPath>
</defs>
</svg>
