<svg width="14" height="14" viewBox="0 0 14 14" fill="none" xmlns="http://www.w3.org/2000/svg">
<path d="M6.90676 10.7703L7.16212 10.9224L10.5115 12.9174L10.5117 12.9175C10.7619 13.0666 11.027 12.839 10.9717 12.6037L6.90676 10.7703ZM6.90676 10.7703L6.65114 10.9219L3.30171 12.909L3.30082 12.9095C3.05049 13.0587 2.78528 12.8309 2.84087 12.5955L3.72861 8.84417L3.79895 8.54695L3.56661 8.34868L0.604582 5.82114L0.604406 5.82099C0.410935 5.65606 0.502686 5.33067 0.779118 5.30902L0.779118 5.30903L0.781721 5.30881L4.67997 4.98293L4.97872 4.95796L5.09744 4.68268L6.62285 1.14571L6.62285 1.14571L6.62369 1.14375C6.72536 0.905208 7.08714 0.905208 7.18881 1.14375L7.18949 1.14533L8.71489 4.69025L8.8335 4.96588L9.13253 4.99088L13.0308 5.31676L13.0334 5.31697C13.3098 5.33862 13.4016 5.664 13.2081 5.82894L13.2079 5.82909L10.2459 8.35663L10.0135 8.55489L10.0839 8.85212L10.9716 12.6035L6.90676 10.7703Z" stroke="#F0C862"/>
</svg>
