<svg width="68" height="29" viewBox="0 0 68 29" fill="none" xmlns="http://www.w3.org/2000/svg">
<path fill-rule="evenodd" clip-rule="evenodd" d="M44.4552 22.698C43.2117 23.0423 41.5924 23.1857 40.2044 23.1857C36.5899 23.1857 34.2188 21.321 34.2188 17.907C34.2188 14.6652 36.4453 12.571 39.6839 12.571C40.4068 12.571 41.1876 12.6571 41.6502 12.8866V8.18164H44.4552V22.698ZM41.6502 15.2964C41.2165 15.0956 40.6092 14.9808 39.9152 14.9808C38.2092 14.9808 37.0815 16.0136 37.0815 17.821C37.0815 19.7431 38.296 20.8332 40.2911 20.8332C40.6381 20.8332 41.1876 20.8332 41.6502 20.7185V15.2964ZM67.5019 22.698C66.2585 23.0423 64.6391 23.1857 63.2222 23.1857C59.6365 23.1857 57.2364 21.321 57.2364 17.907C57.2364 14.6652 59.463 12.571 62.7017 12.571C63.4535 12.571 64.2054 12.6571 64.6681 12.8866V8.18164H67.5019V22.698ZM64.6681 15.2964C64.2343 15.0956 63.656 14.9808 62.962 14.9808C61.2269 14.9808 60.0992 16.0136 60.0992 17.821C60.0992 19.7431 61.3426 20.8332 63.3379 20.8332C63.6849 20.8332 64.2054 20.8332 64.6681 20.7185V15.2964ZM48.8794 15.2964C49.3421 15.0956 50.0072 15.0382 50.5566 15.0382C52.2916 15.0382 53.4772 16.0136 53.4772 17.7636C53.4772 19.8291 52.147 20.7759 50.3831 20.8046V23.1857H50.5277C54.1712 23.1857 56.34 21.2062 56.34 17.6775C56.34 14.4644 54.0266 12.571 50.6145 12.571C48.8794 12.571 47.1733 12.9726 46.0456 13.4316V27.0586H48.8794V15.2964Z" fill="white"/>
<path fill-rule="evenodd" clip-rule="evenodd" d="M23.8672 5.94336L24.3298 6.45975L24.5901 6.31631L23.8672 5.94336Z" fill="#DC0032"/>
<path fill-rule="evenodd" clip-rule="evenodd" d="M23.1719 5.57031L24.0683 6.6031L24.3863 6.43097L24.0393 6.02933L23.1719 5.57031Z" fill="#DC0032"/>
<path fill-rule="evenodd" clip-rule="evenodd" d="M22.4453 5.19727L23.8044 6.74645L24.1225 6.57432L23.3417 5.65628L22.4453 5.19727Z" fill="#DC0032"/>
<path fill-rule="evenodd" clip-rule="evenodd" d="M21.75 4.82422L23.5428 6.8898L23.8609 6.71767L22.6175 5.28324L21.75 4.82422ZM25.1911 8.46764L24.9886 8.58239L25.1911 8.8119V8.46764Z" fill="#DC0032"/>
<path fill-rule="evenodd" clip-rule="evenodd" d="M21.0625 4.45117L23.2891 7.03315L23.6072 6.86102L21.93 4.91019L21.0625 4.45117ZM25.0819 8.52492L24.7638 8.72574L25.1976 9.24213V8.69705L25.0819 8.52492Z" fill="#DC0032"/>
<path fill-rule="evenodd" clip-rule="evenodd" d="M20.3359 4.07812L23.0252 7.1765L23.3722 7.00436L21.2324 4.53714L20.3359 4.07812ZM24.818 8.66827L24.4999 8.86909L25.1939 9.67237V9.12729L24.818 8.66827Z" fill="#DC0032"/>
<path fill-rule="evenodd" clip-rule="evenodd" d="M19.6406 3.70508L22.7926 7.31983L23.1106 7.1477L20.5081 4.16408L19.6406 3.70508ZM24.5565 8.84029L24.2384 9.01242L25.1926 10.1313V9.5862L24.5565 8.84029Z" fill="#DC0032"/>
<path fill-rule="evenodd" clip-rule="evenodd" d="M18.9453 3.33398L22.531 7.46513L22.8491 7.293L19.8128 3.793L18.9453 3.33398ZM24.2949 8.98559L23.9768 9.15772L25.1913 10.5635V10.0184L24.2949 8.98559Z" fill="#DC0032"/>
<path fill-rule="evenodd" clip-rule="evenodd" d="M18.2266 2.95898L22.2749 7.60652L22.593 7.43439L19.1229 3.418L18.2266 2.95898ZM24.0388 9.12698L23.7207 9.29911L25.1955 10.9917V10.4467L24.0388 9.12698Z" fill="#DC0032"/>
<path fill-rule="evenodd" clip-rule="evenodd" d="M17.5312 2.58594L22.0133 7.77856L22.3314 7.57774L18.3988 3.04496L17.5312 2.58594ZM23.7773 9.27033L23.4592 9.44246L25.1941 11.4507V10.9056L23.7773 9.27033Z" fill="#DC0032"/>
<path fill-rule="evenodd" clip-rule="evenodd" d="M16.8125 2.21289L21.7572 7.9219L22.0753 7.72108L17.7089 2.6719L16.8125 2.21289ZM23.5501 9.41367L23.2031 9.58581L25.1983 11.8809V11.3358L23.5501 9.41367Z" fill="#DC0032"/>
<path fill-rule="evenodd" clip-rule="evenodd" d="M16.1172 1.8418L21.4957 8.06716L21.8427 7.86638L17.0136 2.30081L16.1172 1.8418ZM23.2885 9.55897L22.9704 9.7311L25.197 12.3418V11.768L23.2885 9.55897Z" fill="#DC0032"/>
<path fill-rule="evenodd" clip-rule="evenodd" d="M15.4219 1.4668L21.263 8.20856L21.5811 8.00774L16.2894 1.92581L15.4219 1.4668ZM23.027 9.70037L22.7089 9.8725L25.1957 12.77V12.225L23.027 9.70037Z" fill="#DC0032"/>
<path fill-rule="evenodd" clip-rule="evenodd" d="M14.6953 1.06641L20.9992 8.35325L21.3172 8.15243L15.5917 1.55411L14.6953 1.06641ZM22.7631 9.84506L22.445 10.0172L25.1921 13.2016V12.6565L22.7631 9.84506Z" fill="#DC0032"/>
<path fill-rule="evenodd" clip-rule="evenodd" d="M14 0.693359L20.7376 8.49659L21.0557 8.32446L14.8964 1.18106L14 0.693359ZM22.5015 9.9884L22.1834 10.1605L25.1908 13.6605V13.0868L22.5015 9.9884Z" fill="#DC0032"/>
<path fill-rule="evenodd" clip-rule="evenodd" d="M13.3125 0.349609L20.4838 8.64055L20.8019 8.46842L14.18 0.808624L13.3125 0.349609ZM22.2477 10.1324L21.9296 10.3045L25.1972 14.0913V13.5463L22.2477 10.1324Z" fill="#DC0032"/>
<path fill-rule="evenodd" clip-rule="evenodd" d="M12.8438 0.234375L20.2175 8.78351L20.5356 8.61138L13.4799 0.435194L13.3064 0.349129C13.1618 0.263063 13.0173 0.234375 12.8438 0.234375ZM21.9814 10.2753L21.6633 10.4474L25.1911 14.5212V13.9761L21.9814 10.2753Z" fill="#DC0032"/>
<path fill-rule="evenodd" clip-rule="evenodd" d="M12.847 0.234375C12.7313 0.234375 12.6157 0.263063 12.5 0.291752L19.9605 8.92695L20.3075 8.75482L12.9338 0.234375C12.9048 0.234375 12.8759 0.234375 12.847 0.234375ZM21.7533 10.4188L21.4352 10.5909L25.1944 14.9802V14.4064L21.7533 10.4188Z" fill="#DC0032"/>
<path fill-rule="evenodd" clip-rule="evenodd" d="M12.5892 0.263672C12.5314 0.29236 12.4446 0.321049 12.4157 0.349737L12.2422 0.435802L19.7316 9.071L20.0497 8.89887L12.5892 0.263672ZM21.4955 10.5628L21.1774 10.7636L25.1968 15.4112V14.8661L21.4955 10.5628Z" fill="#DC0032"/>
<path fill-rule="evenodd" clip-rule="evenodd" d="M12.2946 0.376953L11.9766 0.549084L19.466 9.21297L19.784 9.04084L12.2946 0.376953ZM21.2299 10.7048L20.9118 10.9056L25.1915 15.84V15.2949L21.2299 10.7048Z" fill="#DC0032"/>
<path fill-rule="evenodd" clip-rule="evenodd" d="M12.0368 0.521484L11.7188 0.693615L19.2081 9.35751L19.5262 9.18538L12.0368 0.521484ZM20.9721 10.8493L20.654 11.0501L25.1939 16.3001V15.755L20.9721 10.8493Z" fill="#DC0032"/>
<path fill-rule="evenodd" clip-rule="evenodd" d="M11.779 0.664062L11.4609 0.836194L18.9503 9.50009L19.2684 9.32795L11.779 0.664062ZM20.7143 10.9919L20.3962 11.1927L25.1963 16.7296V16.1845L20.7143 10.9919Z" fill="#DC0032"/>
<path fill-rule="evenodd" clip-rule="evenodd" d="M11.5212 0.808594L11.2031 0.980726L18.6926 9.64462L19.0106 9.47249L11.5212 0.808594ZM20.4564 11.1364L20.1384 11.3372L25.1988 17.161V16.6159L20.4564 11.1364Z" fill="#DC0032"/>
<path fill-rule="evenodd" clip-rule="evenodd" d="M11.2556 0.951172L10.9375 1.1233L18.4269 9.7872L18.745 9.61506L11.2556 0.951172ZM20.2197 11.279L19.9017 11.4798L25.1934 17.6192V17.0741L20.2197 11.279Z" fill="#DC0032"/>
<path fill-rule="evenodd" clip-rule="evenodd" d="M10.9978 1.06641L10.6797 1.26723L18.198 9.93112L18.5161 9.75899L10.9978 1.06641ZM19.9619 11.4516L19.6438 11.6238L25.1958 18.05V17.5049L19.9619 11.4516Z" fill="#DC0032"/>
<path fill-rule="evenodd" clip-rule="evenodd" d="M10.74 1.20898L10.4219 1.38112L17.9402 10.0737L18.2583 9.90157L10.74 1.20898ZM19.7041 11.5942L19.386 11.7663L25.1983 18.5081V17.9343L19.7041 11.5942Z" fill="#DC0032"/>
<path fill-rule="evenodd" clip-rule="evenodd" d="M10.4743 1.35352L10.1562 1.52565L17.6746 10.2469L17.9927 10.0461L10.4743 1.35352ZM19.4385 11.7387L19.1204 11.9109L25.1929 18.9395V18.3944L19.4385 11.7387Z" fill="#DC0032"/>
<path fill-rule="evenodd" clip-rule="evenodd" d="M10.2165 1.49609L9.89844 1.66822L17.4168 10.3895L17.7349 10.1887L10.2165 1.49609ZM19.1807 11.8813L18.8626 12.0534L25.1953 19.369V18.8239L19.1807 11.8813Z" fill="#DC0032"/>
<path fill-rule="evenodd" clip-rule="evenodd" d="M9.95871 1.64062L9.64062 1.81276L17.159 10.534L17.4771 10.3332L9.95871 1.64062ZM18.9229 12.0258L18.6048 12.198L25.1978 19.8291V19.2553L18.9229 12.0258Z" fill="#DC0032"/>
<path fill-rule="evenodd" clip-rule="evenodd" d="M9.69308 1.7832L9.375 1.95533L16.8933 10.6766L17.2114 10.4758L9.69308 1.7832ZM18.6862 12.1684L18.3681 12.3406L25.1924 20.2585V19.7135L18.6862 12.1684Z" fill="#DC0032"/>
<path fill-rule="evenodd" clip-rule="evenodd" d="M9.43294 1.89844L9.08594 2.07057L16.6621 10.8205L16.9802 10.6197L9.43294 1.89844ZM18.426 12.3123L18.108 12.4845L25.1925 20.6893V20.1443L18.426 12.3123Z" fill="#DC0032"/>
<path fill-rule="evenodd" clip-rule="evenodd" d="M9.17513 2.04102L8.82812 2.21314L16.4332 10.9918C16.4621 10.9344 16.4911 10.9057 16.5489 10.877L16.7224 10.7623L9.17513 2.04102ZM18.1682 12.4549L17.8501 12.6271L25.1371 21.0614C25.166 20.9754 25.195 20.8893 25.195 20.8032V20.5737L18.1682 12.4549Z" fill="#DC0032"/>
<path fill-rule="evenodd" clip-rule="evenodd" d="M8.91731 2.18555L8.57031 2.35768L16.3489 11.3372V11.2224C16.3489 11.1363 16.4067 11.0216 16.4646 10.9355L8.91731 2.18555ZM17.9104 12.5995L17.6791 12.7429C17.6502 12.7429 17.6213 12.7716 17.5923 12.7716L24.995 21.3494C25.0817 21.2347 25.1396 21.1199 25.1685 21.0052L17.9104 12.5995Z" fill="#DC0032"/>
<path fill-rule="evenodd" clip-rule="evenodd" d="M8.65165 2.32812L8.30469 2.50026L16.3435 11.7953V11.2215L8.65165 2.32812ZM17.0953 12.6273L24.7871 21.5494C24.8739 21.492 24.9606 21.3772 25.0474 21.2912L17.6448 12.742C17.5291 12.7994 17.3556 12.7994 17.2399 12.742L17.0953 12.6273Z" fill="#DC0032"/>
<path fill-rule="evenodd" clip-rule="evenodd" d="M8.39384 2.47266L8.04688 2.64478L24.5293 21.6939L24.7607 21.5791C24.7896 21.5504 24.8185 21.5218 24.8474 21.4931L17.2713 12.7431H17.2424L16.5773 12.3415C16.5194 12.3128 16.4905 12.2554 16.4327 12.198C16.3749 12.112 16.3749 12.0546 16.3459 11.9972V11.6816L8.39384 2.47266Z" fill="#DC0032"/>
<path fill-rule="evenodd" clip-rule="evenodd" d="M8.13607 2.61523L7.78906 2.78737L24.2715 21.8365L24.5896 21.6643L8.13607 2.61523Z" fill="#DC0032"/>
<path fill-rule="evenodd" clip-rule="evenodd" d="M7.87044 2.73047L7.52344 2.9026L24.0348 21.9804L24.3529 21.8083L7.87044 2.73047Z" fill="#DC0032"/>
<path fill-rule="evenodd" clip-rule="evenodd" d="M7.61263 2.87305L7.26562 3.04518L23.777 22.123L24.0951 21.9508L7.61263 2.87305Z" fill="#DC0032"/>
<path fill-rule="evenodd" clip-rule="evenodd" d="M7.35482 3.01758L7.00781 3.18971L23.5192 22.2675L23.8373 22.0954L7.35482 3.01758Z" fill="#DC0032"/>
<path fill-rule="evenodd" clip-rule="evenodd" d="M7.06809 3.16016L6.75 3.33229L23.2614 22.4388L23.5795 22.238L7.06809 3.16016Z" fill="#DC0032"/>
<path fill-rule="evenodd" clip-rule="evenodd" d="M6.80246 3.30469L6.48438 3.47682L22.9958 22.5833L23.3139 22.3825L6.80246 3.30469Z" fill="#DC0032"/>
<path fill-rule="evenodd" clip-rule="evenodd" d="M6.54465 3.44727L6.22656 3.61939L22.7669 22.7259L23.085 22.5251L6.54465 3.44727Z" fill="#DC0032"/>
<path fill-rule="evenodd" clip-rule="evenodd" d="M6.28684 3.5625L5.96875 3.73463L22.5091 22.8698L22.8272 22.669L6.28684 3.5625Z" fill="#DC0032"/>
<path fill-rule="evenodd" clip-rule="evenodd" d="M6.02121 3.70508L5.70312 3.87721L22.2435 23.0124L22.5615 22.8403L6.02121 3.70508Z" fill="#DC0032"/>
<path fill-rule="evenodd" clip-rule="evenodd" d="M5.7634 3.84961L5.44531 4.02174L13.4842 13.3168L13.7444 13.4889C13.86 13.5463 13.9757 13.6897 13.9757 13.8332V13.8619L21.9856 23.1569L22.3037 22.9848L5.7634 3.84961Z" fill="#DC0032"/>
<path fill-rule="evenodd" clip-rule="evenodd" d="M5.50559 3.99219L5.1875 4.16431L12.7348 12.9143L13.689 13.4307L5.50559 3.99219ZM13.9492 13.7462C13.9492 13.7749 13.9782 13.8036 13.9782 13.8323V14.32L21.7278 23.2995L22.0459 23.1274L13.9492 13.7462Z" fill="#DC0032"/>
<path fill-rule="evenodd" clip-rule="evenodd" d="M5.23996 4.13672L4.92188 4.30885L11.9776 12.4851L12.9318 13.0015L5.23996 4.13672ZM13.9728 14.2064V14.7514L21.4911 23.444L21.8092 23.2719L13.9728 14.2064Z" fill="#DC0032"/>
<path fill-rule="evenodd" clip-rule="evenodd" d="M4.98215 4.2793L4.66406 4.45143L11.2571 12.0539L12.1824 12.5703L4.98215 4.2793ZM13.9752 14.6358V15.2096L21.2333 23.5866L21.5514 23.4145L13.9752 14.6358Z" fill="#DC0032"/>
<path fill-rule="evenodd" clip-rule="evenodd" d="M4.72434 4.39453L4.40625 4.56666L10.5077 11.624L11.433 12.1691L4.72434 4.39453ZM13.9777 15.0953V15.6404L20.9755 23.7305L21.2936 23.5584L13.9777 15.0953Z" fill="#DC0032"/>
<path fill-rule="evenodd" clip-rule="evenodd" d="M4.4587 4.53711L4.14062 4.70924L9.75045 11.1928L10.6758 11.7379L4.4587 4.53711ZM13.9723 15.5248V16.0699L20.7099 23.8731L21.028 23.701L13.9723 15.5248Z" fill="#DC0032"/>
<path fill-rule="evenodd" clip-rule="evenodd" d="M4.20089 4.68164L3.88281 4.85377L9.00104 10.7923L9.92638 11.3087L4.20089 4.68164ZM13.9747 15.9562V16.53L20.452 24.0463L20.7701 23.8455L13.9747 15.9562Z" fill="#DC0032"/>
<path fill-rule="evenodd" clip-rule="evenodd" d="M3.94308 4.82422L3.625 4.99635L8.25168 10.3611L9.17698 10.8775L3.94308 4.82422ZM13.9771 16.4143V16.9594L20.2231 24.1889L20.5412 23.9881L13.9771 16.4143Z" fill="#DC0032"/>
<path fill-rule="evenodd" clip-rule="evenodd" d="M3.67746 4.9668L3.35938 5.13893L7.49447 9.92989L8.44869 10.4463L3.67746 4.9668ZM13.9718 16.8438V17.3889L19.9575 24.3315L20.2756 24.1306L13.9718 16.8438Z" fill="#DC0032"/>
<path fill-rule="evenodd" clip-rule="evenodd" d="M3.41964 5.11133L3.10156 5.28346L6.74507 9.50065L7.69932 10.0457L3.41964 5.11133ZM10.9958 14.4064L11.7476 15.267V14.9515C11.7476 14.8941 11.6898 14.808 11.632 14.7793L10.9958 14.4064ZM13.9742 17.2752V17.849L19.6997 24.476L20.0178 24.2752L13.9742 17.2752Z" fill="#DB0032"/>
<path fill-rule="evenodd" clip-rule="evenodd" d="M3.16183 5.22656L2.84375 5.39869L5.99567 9.0708L6.94992 9.61589L3.16183 5.22656ZM10.2464 13.9765L11.7501 15.6978V15.1528L11.2007 14.5216L10.2464 13.9765ZM13.9766 17.7347V18.2798L19.4419 24.6199L19.76 24.4478L13.9766 17.7347Z" fill="#DC0032"/>
<path fill-rule="evenodd" clip-rule="evenodd" d="M2.89621 5.36914L2.57812 5.54127L5.26737 8.6683L6.19271 9.18469L2.89621 5.36914ZM9.48919 13.574L11.7447 16.156V15.6109L10.4435 14.0904L9.48919 13.574ZM13.9713 18.1642V18.7092L19.1763 24.7625L19.4944 24.5904L13.9713 18.1642Z" fill="#DC0032"/>
<path fill-rule="evenodd" clip-rule="evenodd" d="M2.63839 5.51172L2.32031 5.68385L4.51797 8.2371L5.44331 8.7535L2.63839 5.51172ZM8.76871 13.1429L11.7471 16.5855V16.0404L9.69405 13.6592L8.76871 13.1429ZM13.9737 18.6223V19.1674L18.9474 24.9051L19.2655 24.733L13.9737 18.6223Z" fill="#DC0032"/>
<path fill-rule="evenodd" clip-rule="evenodd" d="M2.38058 5.65625L2.0625 5.82838L3.76858 7.8079L4.69391 8.32425L2.38058 5.65625ZM8.01935 12.7136L11.7496 17.0169V16.4718L8.94465 13.2587L8.01935 12.7136ZM13.9761 19.0537V19.5988L18.6896 25.0496L19.0076 24.8775L13.9761 19.0537Z" fill="#DC0032"/>
<path fill-rule="evenodd" clip-rule="evenodd" d="M2.12277 5.80078L1.80469 5.97291L3.01918 7.37866L3.94452 7.92374L2.12277 5.80078ZM7.26994 12.2844L11.752 17.477V16.9319L8.19528 12.8295L7.26994 12.2844ZM13.9786 19.4851V20.0302L18.4318 25.1941L18.7498 25.022L13.9786 19.4851Z" fill="#DC0032"/>
<path fill-rule="evenodd" clip-rule="evenodd" d="M1.85714 5.94336L1.53906 6.11549L2.26198 6.94746L3.21623 7.49255L1.85714 5.94336ZM6.51273 11.8819L11.7466 17.9064V17.3614L7.43807 12.3983L6.51273 11.8819ZM13.9732 19.9433V20.4884L18.1662 25.3367L18.4842 25.1646L13.9732 19.9433Z" fill="#DC0032"/>
<path fill-rule="evenodd" clip-rule="evenodd" d="M1.597 6.05859L1.25 6.23073L1.51025 6.5463L2.4645 7.0627L1.597 6.05859ZM5.761 11.452L11.7467 18.3659V17.7922L6.71525 11.9684L5.761 11.452ZM13.9733 20.3741V20.9192L17.906 25.5093L18.2241 25.3085L13.9733 20.3741Z" fill="#DC0032"/>
<path fill-rule="evenodd" clip-rule="evenodd" d="M1.33523 6.20117L1.13281 6.31593L1.71115 6.6315L1.33523 6.20117ZM5.00764 11.0208L11.7452 18.7954V18.2503L5.96189 11.5659L5.00764 11.0208ZM13.9718 20.8036V21.3773L17.6731 25.6519L17.9912 25.4511L13.9718 20.8036Z" fill="#DC0032"/>
<path fill-rule="evenodd" clip-rule="evenodd" d="M4.28906 10.5918L11.7496 19.227V18.6819L5.21439 11.1369L4.28906 10.5918ZM13.9761 21.2639V21.809L17.4172 25.7967L17.7353 25.5958L13.9761 21.2639Z" fill="#DC0032"/>
<path fill-rule="evenodd" clip-rule="evenodd" d="M3.53906 10.1895L11.7514 19.6853V19.1115L4.46439 10.7058L3.53906 10.1895ZM13.978 21.6935V22.2386L17.1588 25.9394L17.4769 25.7386L13.978 21.6935Z" fill="#DC0032"/>
<path fill-rule="evenodd" clip-rule="evenodd" d="M2.78125 9.75781L11.7454 20.1143V19.5692L3.70658 10.2742L2.78125 9.75781ZM13.972 22.1225V22.6963L16.8926 26.0815L17.2107 25.9094L13.972 22.1225Z" fill="#DC0032"/>
<path fill-rule="evenodd" clip-rule="evenodd" d="M2.03125 9.32812L11.7473 20.5453V20.0002L2.95658 9.87321L2.03125 9.32812ZM13.9738 22.5822V23.1273L16.6342 26.2256L16.9522 26.0535L13.9738 22.5822Z" fill="#DB0032"/>
<path fill-rule="evenodd" clip-rule="evenodd" d="M1.28125 8.89844L11.7491 21.005V20.4599L2.20658 9.44352L1.28125 8.89844ZM13.9756 23.0132V23.5582L16.4047 26.3697L16.7227 26.1976L13.9756 23.0132Z" fill="#DA0032"/>
<path fill-rule="evenodd" clip-rule="evenodd" d="M0.53125 8.49609L11.7509 21.4346V20.8895L1.4855 9.01249L0.53125 8.49609ZM13.9775 23.4428V24.0165L16.1462 26.5124L16.4643 26.3403L13.9775 23.4428Z" fill="#D90032"/>
<path fill-rule="evenodd" clip-rule="evenodd" d="M0.5 8.4668V8.86844L11.7486 21.8643V21.3192L0.731333 8.58155L0.5 8.4668ZM13.9751 23.9012V24.2454C13.9751 24.3028 13.9462 24.3602 13.9173 24.3889L15.8837 26.6553L16.2017 26.4831L13.9751 23.9012Z" fill="#D80032"/>
<path fill-rule="evenodd" clip-rule="evenodd" d="M0.5 8.75391V9.32768L11.7486 22.3235V21.7785L0.5 8.75391ZM13.9462 24.3317C13.9173 24.4465 13.8306 24.5612 13.7438 24.5899L13.7149 24.6186L15.6234 26.7989L15.9415 26.6268L13.9462 24.3317Z" fill="#D70032"/>
<path fill-rule="evenodd" clip-rule="evenodd" d="M0.5 9.21289V9.75797L11.7486 22.7538V22.2088L0.5 9.21289ZM13.7727 24.5612C13.7727 24.5899 13.7727 24.5899 13.7438 24.5899L13.4547 24.762L15.3632 26.9424L15.6812 26.7702L13.7727 24.5612Z" fill="#D60032"/>
<path fill-rule="evenodd" clip-rule="evenodd" d="M0.5 9.64453V10.1896L11.7486 23.1855V22.6404L0.5 9.64453ZM13.5414 24.7059L13.1944 24.9068L15.1318 27.1158L15.4499 26.915L13.5414 24.7059Z" fill="#D50032"/>
<path fill-rule="evenodd" clip-rule="evenodd" d="M0.5 10.1035V10.6486L11.7486 23.6444V23.0994L0.5 10.1035ZM13.2812 24.8494L13.0788 24.9641C13.0209 24.9928 12.9631 24.9928 12.9053 24.9928L14.8716 27.2592L15.1897 27.0584L13.2812 24.8494Z" fill="#D40032"/>
<path fill-rule="evenodd" clip-rule="evenodd" d="M0.5 10.5332V11.0783L11.7486 24.0741V23.529L0.5 10.5332ZM12.3848 24.8487L14.6113 27.402L14.9294 27.2012L12.992 24.9922C12.9631 24.9922 12.9053 25.0209 12.8763 25.0209H12.8474C12.7607 25.0209 12.7028 24.9922 12.645 24.9635L12.3848 24.8487Z" fill="#D30032"/>
<path fill-rule="evenodd" clip-rule="evenodd" d="M0.5 10.9648V11.5386L14.3511 27.5468L14.6691 27.3459L12.5872 24.9361L11.951 24.5918C11.8353 24.5345 11.7486 24.391 11.7486 24.2476V23.9607L0.5 10.9648Z" fill="#D20032"/>
<path fill-rule="evenodd" clip-rule="evenodd" d="M0.5 11.4219V11.967L14.0908 27.6882L14.4089 27.5161L0.5 11.4219Z" fill="#D10032"/>
<path fill-rule="evenodd" clip-rule="evenodd" d="M0.5 11.8535V12.3986L13.8306 27.833L14.1486 27.6608L0.5 11.8535Z" fill="#D00032"/>
<path fill-rule="evenodd" clip-rule="evenodd" d="M0.5 12.2832V12.857L13.5992 27.9758L13.9173 27.8036L0.5 12.2832Z" fill="#CF0032"/>
<path fill-rule="evenodd" clip-rule="evenodd" d="M0.5 12.7422V13.2872L13.339 28.1192L13.6571 27.947L0.5 12.7422Z" fill="#CE0032"/>
<path fill-rule="evenodd" clip-rule="evenodd" d="M0.5 13.1738V13.7189L13.0498 28.2353C13.1366 28.2066 13.2233 28.1779 13.3101 28.1492L13.3968 28.0918L0.5 13.1738Z" fill="#CD0032"/>
<path fill-rule="evenodd" clip-rule="evenodd" d="M0.5 13.6035V14.1773L12.6739 28.2346C12.7318 28.2346 12.7896 28.2346 12.8474 28.2346C12.9342 28.2346 13.0209 28.2346 13.1077 28.2059L0.5 13.6035Z" fill="#CC0032"/>
<path fill-rule="evenodd" clip-rule="evenodd" d="M0.5 14.0625V14.6076L12.0088 27.919L12.4137 28.1485C12.5004 28.2059 12.645 28.2346 12.7607 28.2346L0.5 14.0625Z" fill="#CB0032"/>
<path fill-rule="evenodd" clip-rule="evenodd" d="M0.5 14.4922V15.0373L11.257 27.4881L12.2113 28.0331L0.5 14.4922Z" fill="#CA0032"/>
<path fill-rule="evenodd" clip-rule="evenodd" d="M0.5 14.9512V15.4963L10.5052 27.0577L11.4594 27.6028L0.5 14.9512Z" fill="#C90032"/>
<path fill-rule="evenodd" clip-rule="evenodd" d="M0.5 15.3809V15.9259L9.75332 26.6267L10.6787 27.1718L0.5 15.3809Z" fill="#C80033"/>
<path fill-rule="evenodd" clip-rule="evenodd" d="M0.5 15.8125V16.3576L9.00148 26.1977L9.92682 26.7428L0.5 15.8125Z" fill="#C70033"/>
<path fill-rule="evenodd" clip-rule="evenodd" d="M0.5 16.2715V16.8166L8.22076 25.7387L9.17498 26.2837L0.5 16.2715Z" fill="#C60033"/>
<path fill-rule="evenodd" clip-rule="evenodd" d="M0.5 16.7012V17.2463L7.46893 25.3077L8.42314 25.8528L0.5 16.7012Z" fill="#C50033"/>
<path fill-rule="evenodd" clip-rule="evenodd" d="M0.5 17.1309V17.6759L6.71709 24.8767L7.67134 25.4218L0.5 17.1309Z" fill="#C40033"/>
<path fill-rule="evenodd" clip-rule="evenodd" d="M0.5 17.5918V18.1369L5.96525 24.4483L6.91951 24.9934L0.5 17.5918Z" fill="#C30033"/>
<path fill-rule="evenodd" clip-rule="evenodd" d="M0.5 18.0215V18.5665L5.21341 24.0173L6.16767 24.5624L0.5 18.0215Z" fill="#C20033"/>
<path fill-rule="evenodd" clip-rule="evenodd" d="M0.5 18.4512V19.0249L4.46157 23.5864L5.38691 24.1315L0.5 18.4512Z" fill="#C10033"/>
<path fill-rule="evenodd" clip-rule="evenodd" d="M0.5 18.9102V19.4552L3.68083 23.1561L4.63507 23.7011L0.5 18.9102Z" fill="#C00033"/>
<path fill-rule="evenodd" clip-rule="evenodd" d="M0.5 19.3418V19.8869L2.929 22.7271L3.88325 23.2435L0.5 19.3418Z" fill="#BF0033"/>
<path fill-rule="evenodd" clip-rule="evenodd" d="M0.5 19.7715V20.3453L2.17717 22.2674L3.13142 22.8125L0.5 19.7715Z" fill="#BE0033"/>
<path fill-rule="evenodd" clip-rule="evenodd" d="M0.5 20.2305V20.7756L1.42533 21.837L2.37958 22.3821L0.5 20.2305Z" fill="#BD0033"/>
<path fill-rule="evenodd" clip-rule="evenodd" d="M0.5 20.6602V20.8036C0.5 21.0905 0.702417 21.4347 0.933749 21.5782L1.62775 21.9511L0.5 20.6602Z" fill="#BC0033"/>
<path fill-rule="evenodd" clip-rule="evenodd" d="M0.671875 21.3203C0.729708 21.3777 0.758625 21.4351 0.816458 21.4638L0.671875 21.3203Z" fill="#BB0033"/>
</svg>
