<svg width="16" height="17" viewBox="0 0 16 17" fill="none" xmlns="http://www.w3.org/2000/svg">
<path d="M8 0.964844C6.41775 0.964844 4.87103 1.43404 3.55544 2.31309C2.23985 3.19214 1.21447 4.44157 0.608967 5.90338C0.00346627 7.36518 -0.15496 8.97372 0.153721 10.5256C0.462403 12.0774 1.22433 13.5029 2.34315 14.6217C3.46197 15.7405 4.88743 16.5024 6.43928 16.8111C7.99113 17.1198 9.59966 16.9614 11.0615 16.3559C12.5233 15.7504 13.7727 14.725 14.6518 13.4094C15.5308 12.0938 16 10.5471 16 8.96484C16 6.84311 15.1571 4.80828 13.6569 3.30799C12.1566 1.8077 10.1217 0.964844 8 0.964844ZM6.85715 12.1591L4 9.30199L4.90857 8.39341L6.85715 10.342L11.0914 6.1077L12.0034 7.01399L6.85715 12.1591Z" fill="#73CA55"/>
</svg>
