<svg width="42" height="27" viewBox="0 0 42 27" fill="none" xmlns="http://www.w3.org/2000/svg">
<rect x="0.5" y="0.5" width="41" height="26" rx="6.5" fill="#1D1B1B" stroke="#9B9B9B"/>
<path d="M18.2023 17.7165H15.7344L17.278 8.17188H19.7458L18.2023 17.7165Z" fill="#9B9B9B"/>
<path d="M27.1453 8.40635C26.6585 8.21323 25.8864 8 24.9318 8C22.4946 8 20.7784 9.29962 20.7678 11.1577C20.7476 12.5286 21.9966 13.29 22.9308 13.7471C23.8856 14.2142 24.2102 14.519 24.2102 14.9354C24.2004 15.5748 23.4386 15.8695 22.7281 15.8695C21.7428 15.8695 21.2148 15.7176 20.4125 15.3618L20.0875 15.2093L19.7422 17.3519C20.321 17.6156 21.3874 17.8496 22.4946 17.8598C25.0841 17.8598 26.77 16.5803 26.79 14.6003C26.7998 13.5137 26.1403 12.6812 24.7184 12.0009C23.8552 11.5642 23.3266 11.2697 23.3266 10.8229C23.3367 10.4166 23.7737 10.0006 24.7481 10.0006C25.5504 9.9802 26.1399 10.1731 26.5864 10.366L26.8097 10.4674L27.1453 8.40635Z" fill="#9B9B9B"/>
<path d="M30.4277 14.3351C30.6309 13.7868 31.413 11.6647 31.413 11.6647C31.4027 11.685 31.6158 11.1062 31.7377 10.7509L31.9102 11.5733C31.9102 11.5733 32.3775 13.8579 32.479 14.3351C32.0933 14.3351 30.9151 14.3351 30.4277 14.3351ZM33.474 8.17188H31.5651C30.9764 8.17188 30.5292 8.34435 30.2752 8.96379L26.6094 17.7163H29.1989C29.1989 17.7163 29.6252 16.5383 29.7169 16.2846C30.0009 16.2846 32.52 16.2846 32.8855 16.2846C32.9563 16.6197 33.1799 17.7163 33.1799 17.7163H35.465L33.474 8.17188Z" fill="#9B9B9B"/>
<path d="M13.6712 8.17188L11.2543 14.6804L10.9902 13.3604C10.5434 11.8373 9.14199 10.1824 7.57812 9.35962L9.79193 17.7063H12.4017L16.2809 8.17188H13.6712Z" fill="#9B9B9B"/>
<path d="M9.01128 8.17188H5.04062L5 8.36473C8.09736 9.15678 10.1487 11.066 10.9915 13.3608L10.1283 8.97418C9.98619 8.36459 9.54948 8.19198 9.01128 8.17188Z" fill="#DFDFDF"/>
</svg>
