<svg width="43" height="28" viewBox="0 0 43 28" fill="none" xmlns="http://www.w3.org/2000/svg">
<rect x="0.699219" y="1.4707" width="41" height="26" rx="3.5" fill="white" stroke="#9B9B9B"/>
<path d="M17.1325 17.8193V9.08398H20.409C21.0809 9.08398 21.6442 9.20896 22.1006 9.4589C22.557 9.70884 22.903 10.053 23.1366 10.4895C23.3702 10.926 23.488 11.4222 23.488 11.9764C23.488 12.5307 23.3702 13.0342 23.1348 13.4689C22.8993 13.9035 22.5498 14.2459 22.0897 14.494C21.6297 14.7421 21.061 14.8671 20.3872 14.8671H18.2156V13.5667H20.1735C20.5665 13.5667 20.8871 13.4978 21.1371 13.362C21.387 13.2262 21.5735 13.0378 21.6931 12.7987C21.8144 12.5596 21.8742 12.2862 21.8742 11.9746C21.8742 11.6631 21.8144 11.3914 21.6931 11.156C21.5717 10.9205 21.3852 10.7358 21.1334 10.6036C20.8817 10.4714 20.5575 10.4061 20.1626 10.4061H18.7119V17.8211H17.1289L17.1325 17.8193Z" fill="#9B9B9B"/>
<path d="M26.5665 17.9521C26.1518 17.9521 25.7787 17.8779 25.4472 17.7275C25.1158 17.579 24.855 17.3581 24.663 17.0646C24.471 16.7712 24.375 16.4108 24.375 15.9816C24.375 15.6121 24.4438 15.306 24.5797 15.0651C24.7155 14.8242 24.9021 14.6304 25.1393 14.4855C25.3748 14.3406 25.641 14.2301 25.9399 14.1541C26.2369 14.078 26.5448 14.0237 26.8636 13.9893C27.2475 13.9494 27.5591 13.9132 27.7981 13.8806C28.0372 13.848 28.2111 13.7973 28.3216 13.7266C28.4321 13.656 28.4864 13.5473 28.4864 13.4006V13.3753C28.4864 13.0547 28.3904 12.8047 28.2002 12.6291C28.01 12.4534 27.7347 12.3646 27.3761 12.3646C26.9976 12.3646 26.6987 12.4479 26.4778 12.6128C26.2568 12.7776 26.1083 12.9732 26.0322 13.1978L24.5905 12.9931C24.7046 12.5946 24.8912 12.2614 25.1538 11.9933C25.4146 11.7253 25.7352 11.5224 26.1137 11.3884C26.4923 11.2526 26.9107 11.1855 27.3671 11.1855C27.6822 11.1855 27.9974 11.2218 28.3107 11.296C28.624 11.3703 28.9102 11.4916 29.1674 11.6601C29.4264 11.8285 29.6347 12.0585 29.7922 12.3483C29.9498 12.6381 30.0295 13.0004 30.0295 13.4368V17.8217H28.5443V16.9216H28.4936C28.3994 17.1027 28.269 17.2729 28.0988 17.4305C27.9304 17.5881 27.7184 17.7149 27.4631 17.8109C27.2077 17.9068 26.9107 17.9539 26.5702 17.9539L26.5665 17.9521ZM26.9668 16.8183C27.2765 16.8183 27.5464 16.7567 27.7728 16.6336C28.001 16.5104 28.1767 16.3456 28.2998 16.1409C28.423 15.9363 28.4846 15.7135 28.4846 15.4708V14.6992C28.4357 14.7391 28.3542 14.7753 28.2401 14.8097C28.126 14.8441 27.9956 14.8731 27.8543 14.9003C27.7112 14.9256 27.5717 14.9492 27.4323 14.9691C27.2928 14.989 27.1715 15.0071 27.07 15.0198C26.84 15.0506 26.6335 15.1031 26.4506 15.1738C26.2677 15.2444 26.1246 15.344 26.0196 15.4708C25.9145 15.5976 25.862 15.7606 25.862 15.9598C25.862 16.2442 25.9652 16.4597 26.1735 16.6046C26.3818 16.7495 26.6462 16.8219 26.9668 16.8219V16.8183Z" fill="#9B9B9B"/>
<path d="M32.3021 20.2765C32.092 20.2765 31.8982 20.2602 31.7208 20.2276C31.5433 20.195 31.402 20.157 31.2969 20.1153L31.6556 18.9127C31.8801 18.9779 32.0812 19.0087 32.2569 19.0069C32.4325 19.0033 32.5883 18.9489 32.7241 18.8421C32.86 18.7352 32.9741 18.5577 33.0683 18.3114L33.2005 17.9582L30.8242 11.2695H32.4615L33.9721 16.2177H34.0409L35.555 11.2695H37.1978L34.5734 18.6157C34.4502 18.9634 34.289 19.2605 34.0862 19.5086C33.8833 19.7567 33.637 19.9487 33.3454 20.0809C33.0538 20.2132 32.706 20.2784 32.3021 20.2784V20.2765Z" fill="#9B9B9B"/>
<path d="M10.0441 18.2872C7.58998 18.2872 5.80778 16.639 5.80778 14.3696C5.80778 13.551 6.05772 12.3465 7.24767 11.2598L7.27121 11.2381L8.52998 12.5403C8.51549 12.5548 8.49557 12.5729 8.47022 12.5965C7.90513 13.1127 7.61896 13.7085 7.61896 14.3696C7.61896 15.6302 8.59338 16.476 10.0441 16.476C11.926 16.476 13.1431 15.1629 13.1431 13.129C13.1431 11.5061 11.8644 9.78189 9.49535 9.78189C7.74031 9.78189 6.53406 11.0262 6.52319 11.0388L5.19922 9.8C5.26804 9.72574 6.93252 7.9707 9.49353 7.9707C12.9112 7.9707 14.9524 10.5933 14.9524 13.129C14.9524 16.1663 12.933 18.2872 10.0423 18.2872H10.0441Z" fill="#9B9B9B"/>
</svg>
