<svg width="20" height="20" viewBox="0 0 20 20" fill="none" xmlns="http://www.w3.org/2000/svg">
<path d="M3.0293 7.0166H7.53801V7.19013C7.53801 8.10291 7.54052 9.01569 7.53801 9.92847C7.53801 10.176 7.61369 10.3721 7.84993 10.472C8.08618 10.572 8.28354 10.49 8.45497 10.3119C8.64313 10.1166 8.83798 9.92847 9.04035 9.72651C9.24733 9.93139 9.44636 10.1446 9.66295 10.3353C9.75993 10.419 9.87546 10.4783 9.99996 10.5084C10.1618 10.5465 10.3031 10.4666 10.4202 10.3491C10.6255 10.143 10.8333 9.93892 11.0578 9.71648C11.2088 9.87286 11.3568 10.0255 11.5036 10.1789C11.7005 10.3851 11.8928 10.6109 12.2253 10.4783C12.5577 10.3458 12.5527 10.0501 12.551 9.75453C12.546 8.90446 12.551 8.0544 12.551 7.20392V7.02036H17.0559V7.18302C17.0559 9.93181 17.0559 12.6806 17.0559 15.4294C17.0559 16.3911 16.4204 17.0254 15.4574 17.0258H4.62781C3.66611 17.0258 3.03013 16.3894 3.03013 15.429C3.03013 12.6852 3.03013 9.94157 3.03013 7.19807L3.0293 7.0166ZM13.0486 12.0183C12.5631 12.0183 12.0781 12.0183 11.593 12.0183C11.2719 12.0183 11.0474 12.2236 11.0453 12.5142C11.0432 12.8048 11.2686 13.0189 11.5847 13.0193C12.5603 13.0193 13.536 13.0193 14.5116 13.0193C14.8281 13.0193 15.0552 12.8052 15.0514 12.515C15.0476 12.2248 14.8235 12.0191 14.5037 12.0183C14.0186 12.0175 13.5336 12.0183 13.0486 12.0183ZM13.0486 14.022C12.5635 14.022 12.0785 14.022 11.593 14.022C11.2723 14.022 11.0495 14.2277 11.0457 14.5183C11.0419 14.8089 11.269 15.0226 11.5851 15.023C12.5607 15.023 13.5364 15.023 14.512 15.023C14.8285 15.023 15.0556 14.8089 15.0518 14.5187C15.0481 14.2285 14.8239 14.0228 14.5041 14.022C14.0186 14.0211 13.5336 14.022 13.0481 14.022H13.0486Z" fill="#1A1A1A"/>
<path d="M8.24893 3.00296L7.62884 6.00305H3.28027C3.31163 5.94995 3.33463 5.90646 3.3639 5.86591C3.93298 5.01125 4.5054 4.15868 5.07029 3.30109C5.2066 3.09202 5.37929 2.99794 5.62933 3.00003C6.44845 3.00714 7.26757 3.00296 8.08669 3.00296H8.24893Z" fill="#1A1A1A"/>
<path d="M12.4546 5.99601C12.2493 5.00127 12.0449 4.01197 11.8379 3.01013C11.8948 3.0072 11.9399 3.0026 11.9847 3.0026C12.8247 3.0026 13.6647 3.0026 14.5047 3.0026C14.5989 2.99794 14.6927 3.01836 14.7764 3.06177C14.8602 3.10519 14.9309 3.17004 14.9814 3.24972L16.7681 5.93036C16.7794 5.94709 16.7873 5.9659 16.8036 5.99726L12.4546 5.99601Z" fill="#1A1A1A"/>
<path d="M10.816 3.01367L11.4278 5.99746H8.65723C8.86127 5.0023 9.06407 4.01342 9.26853 3.01367H10.816Z" fill="#1A1A1A"/>
<path d="M8.55127 7.01367H11.5342V8.78655L11.4017 8.66111C11.1863 8.45873 10.8999 8.45957 10.6871 8.66529C10.578 8.77024 10.4722 8.87854 10.3668 8.98683C10.2614 9.09513 10.1648 9.1959 10.057 9.31047C9.8642 9.12105 9.68064 8.94418 9.50294 8.76481C9.16258 8.42486 8.94849 8.42026 8.59935 8.74892C8.5842 8.76065 8.56812 8.77114 8.55127 8.78028V7.01367Z" fill="#1A1A1A"/>
</svg>
