<svg width="30" height="31" viewBox="0 0 30 31" fill="none" xmlns="http://www.w3.org/2000/svg">
<g clip-path="url(#clip0_139_8658)">
<g clip-path="url(#clip1_139_8658)">
<path d="M7.61092 4.77847C7.59812 4.819 7.6095 4.82753 7.64505 4.80407C12.4687 1.62723 18.8592 1.92001 23.3319 5.54748C28.4558 9.70238 29.9176 16.9952 26.5087 22.7249C24.1068 26.7625 19.8404 29.2892 15.116 29.3324C13.5652 29.3468 13.6414 27.3006 14.964 27.2792C16.4284 27.2558 17.7864 27.0049 19.0378 26.5268C22.9021 25.0501 25.7744 21.413 26.2149 17.2421C26.6682 12.9459 24.7419 8.83151 21.1209 6.47915C17.6838 4.24624 13.291 4.06119 9.6737 5.99332C9.38075 6.14975 9.0901 6.31614 8.80176 6.49248C8.79771 6.49496 8.79463 6.49874 8.79303 6.50321C8.79143 6.50768 8.7914 6.51257 8.79296 6.51705C8.79452 6.52154 8.79756 6.52535 8.80159 6.52787C8.80562 6.53038 8.81038 6.53145 8.8151 6.53088C9.03481 6.50386 9.25791 6.47861 9.48438 6.45515C10.9632 6.30103 11.1371 8.36648 9.7185 8.50727C8.35433 8.64237 6.98999 8.77818 5.62546 8.9147C5.0815 8.96857 4.52901 8.51367 4.51194 7.95157C4.50803 7.81718 4.55532 7.59498 4.6538 7.28496C4.98409 6.24396 5.31615 5.20315 5.64999 4.16252C5.78616 3.73872 5.86136 3.51296 5.87558 3.48523C6.21422 2.82875 7.06429 2.69809 7.56719 3.24738C8.00502 3.72521 7.78584 4.22651 7.61092 4.77847Z" fill="#5A7BBC"/>
<path d="M22.8483 15.971C22.8483 17.0016 22.6453 18.0221 22.2509 18.9743C21.8565 19.9265 21.2784 20.7916 20.5497 21.5204C19.8209 22.2491 18.9558 22.8272 18.0036 23.2216C17.0514 23.616 16.0309 23.819 15.0003 23.819C12.9189 23.819 10.9227 22.9921 9.45096 21.5204C7.97918 20.0486 7.15234 18.0524 7.15234 15.971C7.15234 13.8896 7.97918 11.8934 9.45096 10.4217C10.9227 8.94988 12.9189 8.12305 15.0003 8.12305C16.0309 8.12305 17.0514 8.32604 18.0036 8.72044C18.9558 9.11483 19.8209 9.69291 20.5497 10.4217C21.2784 11.1504 21.8565 12.0156 22.2509 12.9677C22.6453 13.9199 22.8483 14.9404 22.8483 15.971ZM20.8068 15.971C20.8068 14.431 20.1951 12.9541 19.1061 11.8652C18.0172 10.7763 16.5403 10.1645 15.0003 10.1645C13.4603 10.1645 11.9834 10.7763 10.8945 11.8652C9.80555 12.9541 9.1938 14.431 9.1938 15.971C9.1938 17.511 9.80555 18.9879 10.8945 20.0768C11.9834 21.1658 13.4603 21.7775 15.0003 21.7775C16.5403 21.7775 18.0172 21.1658 19.1061 20.0768C20.1951 18.9879 20.8068 17.511 20.8068 15.971Z" fill="#5A7BBC"/>
<path d="M2.6386 10.8142C3.0775 9.73956 4.67578 10.0238 4.63578 11.1752C4.63116 11.2993 4.56752 11.5224 4.44486 11.8445C4.27954 12.2789 4.13573 12.7203 4.01343 13.1686C3.95477 13.3841 3.89202 13.5386 3.82518 13.6321C3.17669 14.5435 1.73839 13.9094 2.00024 12.8044C2.16165 12.1246 2.37444 11.4612 2.6386 10.8142Z" fill="#5A7BBC"/>
<path d="M13.1754 16.5557C12.9605 16.5547 12.6647 16.5814 12.4884 16.5196C12.1837 16.4126 12.0543 16.0745 12.1984 15.7939C12.3839 15.4324 12.8724 15.5163 13.2079 15.5147C13.2211 15.5144 13.2277 15.5082 13.2277 15.4958C13.2306 15.0055 13.2308 14.5161 13.228 14.0276C13.2264 13.7285 13.238 13.5125 13.2629 13.3796C13.4149 12.5639 14.1493 11.9088 15.0481 11.8763C16.1436 11.8367 17.1069 12.692 17.0526 13.7408C17.0328 14.1255 16.5454 14.3339 16.2078 14.1261C16.0309 14.0175 15.9831 13.8758 15.9619 13.6664C15.9261 13.3168 15.7483 13.0847 15.4283 12.97C14.9764 12.8081 14.4701 13.0461 14.3495 13.4964C14.3313 13.5642 14.3222 13.6807 14.3222 13.8459C14.3222 14.3968 14.3222 14.9474 14.3222 15.4978C14.3222 15.5022 14.3241 15.5065 14.3274 15.5097C14.3307 15.5129 14.3352 15.5147 14.3399 15.5147C14.6369 15.5153 14.9354 15.5154 15.2353 15.515C15.4214 15.5146 15.5507 15.5281 15.6234 15.5556C16.1996 15.7728 15.9906 16.5697 15.3641 16.556C15.155 16.5517 14.8023 16.5523 14.3058 16.5579C14.2949 16.5579 14.2888 16.5631 14.2877 16.5736C14.226 17.1143 14.0577 17.6226 13.7828 18.0983C13.7817 18.1001 13.7811 18.1021 13.7811 18.1042C13.7811 18.1062 13.7817 18.1082 13.7828 18.11C13.7838 18.1118 13.7854 18.1133 13.7872 18.1143C13.7891 18.1153 13.7912 18.1159 13.7934 18.1159C14.8198 18.1159 15.8484 18.1159 16.8791 18.1159C17.0679 18.1159 17.2 18.131 17.2754 18.1611C17.7174 18.3389 17.7017 18.9553 17.247 19.1202C17.1805 19.1442 17.0624 19.1562 16.8928 19.1562C15.561 19.1562 14.2292 19.1562 12.8973 19.1562C12.6846 19.1565 12.538 19.1405 12.4574 19.1085C12.2169 19.0125 12.0765 18.7193 12.1619 18.4764C12.1837 18.4136 12.236 18.3384 12.3187 18.2508C12.7853 17.756 13.0835 17.2361 13.1908 16.5726C13.1911 16.5705 13.191 16.5683 13.1904 16.5663C13.1898 16.5642 13.1887 16.5623 13.1872 16.5607C13.1858 16.5591 13.1839 16.5578 13.1819 16.557C13.1799 16.5561 13.1776 16.5556 13.1754 16.5557Z" fill="#5A7BBC"/>
<path d="M1.66055 17.093C1.56456 15.9704 3.10152 15.5086 3.59481 16.5133C3.64921 16.6235 3.69436 16.8354 3.73027 17.149C3.78715 17.6432 3.86981 18.1335 3.97825 18.6198C4.02163 18.8143 4.03531 18.9688 4.01932 19.0833C3.93079 19.7147 3.31003 20.1013 2.69088 19.9216C2.21731 19.784 2.05252 19.4075 1.9432 18.9211C1.80774 18.3189 1.71353 17.7095 1.66055 17.093Z" fill="#5A7BBC"/>
<path d="M3.67448 23.0967C3.10439 22.1592 4.3139 21.0574 5.20077 21.7763C5.27614 21.8374 5.37409 21.9572 5.49461 22.1357C5.77762 22.5552 6.08142 22.9591 6.40602 23.3473C6.57702 23.5518 6.68208 23.7103 6.72119 23.823C6.92331 24.4027 6.57934 25.0288 5.98525 25.168C5.50581 25.28 5.1837 25.0672 4.85839 24.695C4.39407 24.1638 3.99943 23.6311 3.67448 23.0967Z" fill="#5A7BBC"/>
<path d="M8.08454 27.3742C7.41952 26.6729 8.00881 25.5061 8.96874 25.6463C9.0786 25.6623 9.22473 25.7199 9.40711 25.8191C9.96281 26.121 10.4637 26.357 10.9099 26.5273C12.0005 26.9438 11.8096 28.4963 10.6668 28.5405C10.5206 28.5462 10.3247 28.5011 10.0791 28.4051C9.4128 28.1452 8.80325 27.8464 8.2504 27.5086C8.18925 27.4709 8.13396 27.4261 8.08454 27.3742Z" fill="#5A7BBC"/>
</g>
</g>
<defs>
<clipPath id="clip0_139_8658">
<rect width="30" height="30" fill="white" transform="translate(0 0.970703)"/>
</clipPath>
<clipPath id="clip1_139_8658">
<rect width="27.3047" height="27.3047" fill="white" transform="translate(1.34766 2.31836)"/>
</clipPath>
</defs>
</svg>
