<svg width="30" height="31" viewBox="0 0 30 31" fill="none" xmlns="http://www.w3.org/2000/svg">
<g clip-path="url(#clip0_139_2415)">
<path d="M8.43399 25.7119C5.32383 24.4071 3.22793 21.5254 2.86231 18.192C2.83028 17.9002 2.81426 17.51 2.81426 17.0213C2.81348 14.1959 2.81289 11.3699 2.8125 8.54339C2.81211 8.16331 2.83887 7.87346 2.89278 7.67385C3.15821 6.68421 3.84727 6.26585 4.78418 6.03733C7.98633 5.25745 11.0689 4.24143 13.9934 2.90784C14.8594 2.51233 15.4342 2.65296 16.3131 3.04202C19.1693 4.30686 22.1178 5.30022 25.1584 6.0221C25.5439 6.1135 25.825 6.2051 26.0016 6.2969C26.582 6.59807 26.9508 7.06135 27.1078 7.68674C27.1633 7.90745 27.1906 8.29592 27.1898 8.85217C27.1875 11.4987 27.1871 14.1449 27.1887 16.791C27.1891 17.3153 27.1787 17.7057 27.1576 17.9623C26.8652 21.5535 24.5613 24.6033 21.1781 25.869C20.7897 26.0143 20.1779 26.183 19.766 26.3401C18.3113 26.8936 17.027 27.7453 15.9129 28.8953C15.4037 29.4209 14.577 29.3981 14.0748 28.8789C13.1049 27.8774 11.9981 27.1002 10.7543 26.5475C10.0371 26.2282 9.19512 26.0313 8.43399 25.7119ZM4.72676 17.9295C4.9834 20.5668 6.617 22.8801 9.07149 23.9448C9.78223 24.253 10.585 24.4428 11.2594 24.7241C12.6227 25.2928 13.8594 26.0912 14.9695 27.1194C14.9783 27.1275 14.9898 27.132 15.0018 27.132C15.0137 27.132 15.0252 27.1275 15.034 27.1194C16.3981 25.8537 17.959 24.9391 19.7168 24.3754C20.2473 24.2055 20.5135 24.1201 20.5154 24.1194C23.1147 23.1643 24.9481 20.841 25.265 18.0895C25.2955 17.8239 25.3109 17.4338 25.3113 16.9194C25.3141 14.0514 25.3143 11.1832 25.3119 8.31487C25.3119 8.14143 25.251 7.96799 25.0793 7.92757C21.5758 7.10257 18.2721 5.98655 15.1682 4.57952C15.0627 4.53147 14.966 4.52717 14.8781 4.56663C11.6547 6.01702 8.36758 7.13069 5.0168 7.90764C4.81875 7.95335 4.68868 8.06116 4.68868 8.26624C4.68711 11.0971 4.6875 13.9278 4.68985 16.7582C4.69024 17.2883 4.70254 17.6787 4.72676 17.9295Z" fill="#5A7BBC"/>
<path d="M13.774 17.1232C15.1013 15.7822 16.4347 14.4478 17.7742 13.1201C18.0312 12.8654 18.2009 12.715 18.2833 12.6689C19.0369 12.2488 19.9234 13.0433 19.5894 13.849C19.5402 13.967 19.4273 14.1144 19.2507 14.2914C17.6871 15.8543 16.124 17.4175 14.5615 18.9812C14.2087 19.334 13.8554 19.5384 13.3831 19.3263C13.2566 19.2697 13.082 19.1299 12.8593 18.9068C12.0972 18.1447 11.3349 17.3822 10.5724 16.6193C10.4435 16.4904 10.3681 16.3279 10.3462 16.1318C10.2677 15.4334 10.9263 14.8691 11.5954 15.1134C11.7134 15.1564 11.8478 15.2521 11.9986 15.4006C12.5701 15.9631 13.1454 16.5373 13.7247 17.1232C13.728 17.1265 13.7318 17.1291 13.736 17.1308C13.7402 17.1326 13.7448 17.1335 13.7494 17.1335C13.7539 17.1335 13.7585 17.1326 13.7627 17.1308C13.7669 17.1291 13.7707 17.1265 13.774 17.1232Z" fill="#5A7BBC"/>
</g>
<defs>
<clipPath id="clip0_139_2415">
<rect width="30" height="30" fill="white" transform="translate(0 0.970703)"/>
</clipPath>
</defs>
</svg>
