<svg width="196" height="40" viewBox="0 0 196 40" fill="none" xmlns="http://www.w3.org/2000/svg">
<g clip-path="url(#clip0_119_5668)">
<mask id="mask0_119_5668" style="mask-type:luminance" maskUnits="userSpaceOnUse" x="0" y="0" width="195" height="40">
<path d="M195 0H0V40H195V0Z" fill="white"/>
</mask>
<g mask="url(#mask0_119_5668)">
<path d="M64.8627 24.7546C64.8627 26.1196 64.5121 27.3461 63.8109 28.4341C63.1199 29.522 62.1038 30.3738 60.7625 30.9897C59.4212 31.6054 57.8309 31.9134 55.9917 31.9134C53.7866 31.9134 51.9677 31.4926 50.535 30.651C49.5188 30.0454 48.6907 29.2397 48.0505 28.2339C47.4205 27.2178 47.1055 26.2326 47.1055 25.2781C47.1055 24.7238 47.2935 24.2517 47.6695 23.8617C48.0555 23.4614 48.5433 23.2613 49.1326 23.2613C49.6103 23.2613 50.0117 23.4152 50.3368 23.7231C50.6722 24.031 50.9567 24.4877 51.1903 25.0933C51.4749 25.8117 51.7797 26.4122 52.1049 26.8945C52.4402 27.3769 52.9077 27.7772 53.5072 28.0954C54.1067 28.4032 54.8943 28.5572 55.8697 28.5572C57.2111 28.5572 58.2984 28.2442 59.1316 27.6181C59.9749 26.9817 60.3967 26.1915 60.3967 25.2472C60.3967 24.498 60.1681 23.8925 59.7108 23.4306C59.2636 22.9585 58.6794 22.5992 57.9579 22.353C57.2466 22.1066 56.2914 21.8449 55.0923 21.5678C53.4869 21.188 52.1405 20.7467 51.0532 20.2438C49.9761 19.7306 49.1174 19.0378 48.4773 18.1654C47.8473 17.2828 47.5322 16.1897 47.5322 14.8863C47.5322 13.6444 47.8675 12.541 48.5382 11.5763C49.2089 10.6116 50.1793 9.87257 51.4495 9.3594C52.7197 8.83594 54.2134 8.57422 55.9307 8.57422C57.3025 8.57422 58.4863 8.74873 59.4822 9.09767C60.4881 9.43634 61.3213 9.89304 61.9818 10.4679C62.6424 11.0323 63.125 11.6276 63.4299 12.2537C63.7347 12.8798 63.8871 13.4905 63.8871 14.0857C63.8871 14.6297 63.6941 15.1223 63.3079 15.5636C62.932 15.9947 62.4595 16.2102 61.8904 16.2102C61.3722 16.2102 60.9759 16.082 60.7015 15.8254C60.4373 15.5585 60.1477 15.1275 59.8327 14.5322C59.4262 13.6803 58.9385 13.0183 58.3695 12.5462C57.8005 12.0638 56.8859 11.8226 55.6259 11.8226C54.4573 11.8226 53.5123 12.0843 52.7908 12.6078C52.0795 13.121 51.7239 13.7419 51.7239 14.4706C51.7239 14.9222 51.8458 15.3122 52.0897 15.6406C52.3335 15.969 52.6689 16.2513 53.0957 16.4874C53.5225 16.7234 53.9543 16.9082 54.3912 17.0416C54.8282 17.175 55.5496 17.37 56.5556 17.6266C57.8157 17.9243 58.9537 18.2527 59.9699 18.6119C60.9962 18.9712 61.865 19.4073 62.5763 19.9205C63.2977 20.4337 63.8567 21.0854 64.2529 21.8757C64.6594 22.6557 64.8627 23.6153 64.8627 24.7546ZM68.4141 29.3577V11.1298C68.4141 10.2883 68.597 9.65187 68.9628 9.22081C69.3387 8.78975 69.8418 8.57422 70.4717 8.57422C71.1017 8.57422 71.6098 8.78975 71.996 9.22081C72.3821 9.64159 72.5752 10.278 72.5752 11.1298V29.3577C72.5752 30.2097 72.377 30.8511 71.9808 31.2821C71.5946 31.703 71.0916 31.9134 70.4717 31.9134C69.8621 31.9134 69.3641 31.6927 68.978 31.2514C68.6021 30.8101 68.4141 30.1788 68.4141 29.3577ZM88.503 24.4005H80.3643C80.3744 25.355 80.5623 26.1966 80.928 26.9254C81.3039 27.6541 81.797 28.2032 82.4065 28.5726C83.0262 28.9421 83.7072 29.1268 84.4488 29.1268C84.9465 29.1268 85.3992 29.0704 85.8053 28.9575C86.2223 28.8343 86.6238 28.6496 87.0097 28.4032C87.3956 28.1467 87.7513 27.8747 88.0767 27.5873C88.402 27.2999 88.8237 26.9099 89.3416 26.4173C89.5551 26.2326 89.8595 26.1402 90.2563 26.1402C90.6827 26.1402 91.0282 26.2582 91.293 26.4942C91.557 26.7303 91.689 27.0639 91.689 27.4949C91.689 27.8747 91.5415 28.3211 91.2472 28.8343C90.9521 29.3373 90.5048 29.8247 89.9054 30.2969C89.316 30.7588 88.569 31.1436 87.6651 31.4516C86.7706 31.7594 85.7393 31.9134 84.5707 31.9134C81.8987 31.9134 79.8199 31.1436 78.3368 29.6041C76.8532 28.0646 76.1114 25.9759 76.1114 23.3382C76.1114 22.0963 76.2943 20.9468 76.6601 19.8897C77.0259 18.8223 77.5594 17.9089 78.2607 17.1494C78.9619 16.3898 79.8254 15.81 80.8519 15.4097C81.8777 14.9992 83.0161 14.7939 84.2663 14.7939C85.8915 14.7939 87.2838 15.1428 88.4424 15.8407C89.611 16.5284 90.4846 17.4214 91.0639 18.5196C91.6432 19.6177 91.9328 20.7364 91.9328 21.8757C91.9328 22.9328 91.6331 23.6205 91.0336 23.9386C90.4342 24.2465 89.5909 24.4005 88.503 24.4005ZM80.3643 22.0142H87.9089C87.8072 20.5774 87.4213 19.5048 86.7504 18.7966C86.0903 18.0782 85.216 17.719 84.1288 17.719C83.0922 17.719 82.2388 18.0833 81.5679 18.812C80.9078 19.5305 80.5064 20.5979 80.3643 22.0142ZM107.068 24.4005H98.9293C98.9394 25.355 99.1273 26.1966 99.493 26.9254C99.8689 27.6541 100.362 28.2032 100.972 28.5726C101.591 28.9421 102.272 29.1268 103.014 29.1268C103.512 29.1268 103.964 29.0704 104.37 28.9575C104.787 28.8343 105.189 28.6496 105.575 28.4032C105.961 28.1467 106.316 27.8747 106.642 27.5873C106.967 27.2999 107.389 26.9099 107.907 26.4173C108.12 26.2326 108.425 26.1402 108.821 26.1402C109.248 26.1402 109.593 26.2582 109.858 26.4942C110.122 26.7303 110.254 27.0639 110.254 27.4949C110.254 27.8747 110.106 28.3211 109.812 28.8343C109.517 29.3373 109.07 29.8247 108.47 30.2969C107.881 30.7588 107.134 31.1436 106.23 31.4516C105.336 31.7594 104.304 31.9134 103.136 31.9134C100.464 31.9134 98.3849 31.1436 96.9018 29.6041C95.4179 28.0646 94.6763 25.9759 94.6763 23.3382C94.6763 22.0963 94.8595 20.9468 95.2253 19.8897C95.591 18.8223 96.1245 17.9089 96.8257 17.1494C97.5269 16.3898 98.3904 15.81 99.4169 15.4097C100.443 14.9992 101.581 14.7939 102.831 14.7939C104.457 14.7939 105.849 15.1428 107.007 15.8407C108.176 16.5284 109.05 17.4214 109.629 18.5196C110.208 19.6177 110.498 20.7364 110.498 21.8757C110.498 22.9328 110.198 23.6205 109.599 23.9386C108.999 24.2465 108.156 24.4005 107.068 24.4005ZM98.9293 22.0142H106.474C106.372 20.5774 105.986 19.5048 105.315 18.7966C104.655 18.0782 103.781 17.719 102.694 17.719C101.657 17.719 100.804 18.0833 100.133 18.812C99.4728 19.5305 99.0714 20.5979 98.9293 22.0142ZM117.433 17.1802V17.6882C118.216 16.7131 119.029 15.9999 119.872 15.5483C120.715 15.0864 121.67 14.8555 122.737 14.8555C124.018 14.8555 125.197 15.189 126.274 15.8562C127.351 16.5233 128.199 17.4983 128.819 18.7813C129.449 20.0642 129.764 21.5832 129.764 23.3382C129.764 24.6314 129.581 25.822 129.215 26.9099C128.859 27.9876 128.367 28.8959 127.737 29.6348C127.107 30.3636 126.36 30.9281 125.496 31.3283C124.643 31.7184 123.723 31.9134 122.737 31.9134C121.548 31.9134 120.548 31.6722 119.735 31.1898C118.932 30.7074 118.164 29.9992 117.433 29.0653V35.3773C117.433 37.2247 116.767 38.1484 115.436 38.1484C114.654 38.1484 114.136 37.9072 113.882 37.4249C113.627 36.9527 113.501 36.2599 113.501 35.3465V17.2109C113.501 16.4104 113.673 15.8151 114.019 15.4251C114.364 15.0248 114.837 14.8247 115.436 14.8247C116.026 14.8247 116.503 15.03 116.869 15.4405C117.245 15.8407 117.433 16.4207 117.433 17.1802ZM125.588 23.292C125.588 22.1836 125.42 21.2342 125.085 20.4439C124.749 19.6434 124.282 19.0327 123.682 18.6119C123.093 18.1808 122.438 17.9653 121.716 17.9653C120.568 17.9653 119.597 18.4221 118.805 19.3355C118.022 20.249 117.631 21.5934 117.631 23.369C117.631 25.042 118.022 26.3454 118.805 27.2794C119.587 28.2032 120.558 28.665 121.716 28.665C122.407 28.665 123.047 28.4648 123.637 28.0646C124.226 27.6541 124.699 27.0433 125.054 26.2326C125.41 25.4217 125.588 24.4416 125.588 23.292ZM149.213 27.9722L145.6 14.4398L141.942 27.9722C141.658 28.9985 141.43 29.7375 141.256 30.1891C141.094 30.6305 140.805 31.0307 140.388 31.3899C139.971 31.7389 139.418 31.9134 138.727 31.9134C138.168 31.9134 137.705 31.8056 137.339 31.5901C136.983 31.3848 136.694 31.0923 136.471 30.7126C136.247 30.3225 136.064 29.8658 135.922 29.3424C135.78 28.8087 135.652 28.316 135.541 27.8644L131.822 12.6694C131.598 11.7867 131.486 11.1145 131.486 10.6526C131.486 10.0676 131.69 9.57492 132.096 9.17461C132.503 8.77438 133.005 8.57422 133.605 8.57422C134.428 8.57422 134.981 8.84104 135.266 9.37477C135.551 9.90849 135.8 10.6834 136.013 11.6995L138.939 24.8777L142.217 12.5462C142.461 11.602 142.679 10.8835 142.872 10.3908C143.065 9.89822 143.38 9.47226 143.817 9.11304C144.254 8.75383 144.849 8.57422 145.6 8.57422C146.363 8.57422 146.952 8.7641 147.368 9.14387C147.796 9.51336 148.09 9.91877 148.253 10.3601C148.415 10.8014 148.633 11.5301 148.908 12.5462L152.215 24.8777L155.142 11.6995C155.284 11.0118 155.416 10.473 155.538 10.0829C155.67 9.69296 155.889 9.34394 156.194 9.0361C156.509 8.72818 156.961 8.57422 157.55 8.57422C158.14 8.57422 158.638 8.77438 159.044 9.17461C159.461 9.56465 159.669 10.0573 159.669 10.6526C159.669 11.0734 159.557 11.7457 159.334 12.6694L155.614 27.8644C155.36 28.8908 155.148 29.6451 154.974 30.1276C154.812 30.5996 154.527 31.0153 154.121 31.3745C153.725 31.7337 153.161 31.9134 152.429 31.9134C151.738 31.9134 151.184 31.7389 150.767 31.3899C150.351 31.041 150.061 30.651 149.899 30.2199C149.736 29.7785 149.508 29.0294 149.213 27.9722ZM173.22 24.4005H165.08C165.09 25.355 165.278 26.1966 165.644 26.9254C166.02 27.6541 166.513 28.2032 167.122 28.5726C167.743 28.9421 168.423 29.1268 169.165 29.1268C169.663 29.1268 170.115 29.0704 170.522 28.9575C170.938 28.8343 171.34 28.6496 171.726 28.4032C172.112 28.1467 172.468 27.8747 172.792 27.5873C173.118 27.2999 173.539 26.9099 174.057 26.4173C174.271 26.2326 174.576 26.1402 174.972 26.1402C175.399 26.1402 175.745 26.2582 176.009 26.4942C176.273 26.7303 176.405 27.0639 176.405 27.4949C176.405 27.8747 176.258 28.3211 175.963 28.8343C175.669 29.3373 175.221 29.8247 174.622 30.2969C174.033 30.7588 173.286 31.1436 172.381 31.4516C171.487 31.7594 170.455 31.9134 169.287 31.9134C166.614 31.9134 164.537 31.1436 163.053 29.6041C161.569 28.0646 160.828 25.9759 160.828 23.3382C160.828 22.0963 161.01 20.9468 161.376 19.8897C161.742 18.8223 162.275 17.9089 162.976 17.1494C163.678 16.3898 164.541 15.81 165.568 15.4097C166.594 14.9992 167.732 14.7939 168.982 14.7939C170.608 14.7939 172 15.1428 173.158 15.8407C174.327 16.5284 175.201 17.4214 175.78 18.5196C176.359 19.6177 176.649 20.7364 176.649 21.8757C176.649 22.9328 176.349 23.6205 175.749 23.9386C175.15 24.2465 174.307 24.4005 173.22 24.4005ZM165.08 22.0142H172.625C172.523 20.5774 172.137 19.5048 171.467 18.7966C170.806 18.0782 169.933 17.719 168.845 17.719C167.809 17.719 166.955 18.0833 166.284 18.812C165.624 19.5305 165.222 20.5979 165.08 22.0142ZM180.17 29.3577V11.1298C180.17 10.2883 180.353 9.65187 180.718 9.22081C181.094 8.78975 181.597 8.57422 182.228 8.57422C182.858 8.57422 183.366 8.78975 183.751 9.22081C184.138 9.64159 184.331 10.278 184.331 11.1298V29.3577C184.331 30.2097 184.133 30.8511 183.737 31.2821C183.351 31.703 182.848 31.9134 182.228 31.9134C181.618 31.9134 181.12 31.6927 180.734 31.2514C180.358 30.8101 180.17 30.1788 180.17 29.3577ZM188.644 29.3577V11.1298C188.644 10.2883 188.828 9.65187 189.193 9.22081C189.569 8.78975 190.072 8.57422 190.702 8.57422C191.333 8.57422 191.84 8.78975 192.226 9.22081C192.612 9.64159 192.806 10.278 192.806 11.1298V29.3577C192.806 30.2097 192.608 30.8511 192.211 31.2821C191.825 31.703 191.322 31.9134 190.702 31.9134C190.092 31.9134 189.595 31.6927 189.209 31.2514C188.832 30.8101 188.644 30.1788 188.644 29.3577Z" fill="#252B31"/>
<path d="M33.485 0H4.2557C1.93986 0 0.0625 1.89621 0.0625 4.23529V35.7647C0.0625 38.1038 1.93986 40 4.2557 40H33.485C35.8008 40 37.6782 38.1038 37.6782 35.7647V4.23529C37.6782 1.89621 35.8008 0 33.485 0Z" fill="url(#paint0_linear_119_5668)"/>
<g style="mix-blend-mode:color-burn">
<path d="M19.0357 32.6519C26.192 32.6519 31.9933 26.7924 31.9933 19.5643C31.9933 12.3361 26.192 6.47656 19.0357 6.47656C11.8794 6.47656 6.07812 12.3361 6.07812 19.5643C6.07812 26.7924 11.8794 32.6519 19.0357 32.6519Z" fill="#C6C6C6"/>
</g>
<path fill-rule="evenodd" clip-rule="evenodd" d="M31.5959 22.7059V22.8248C29.8919 29.3533 23.6659 33.5532 17.0213 32.5026C10.8382 31.5245 6.29143 26.2403 6.07812 19.9418V19.2275C6.2401 14.0415 9.36356 9.41575 14.1361 7.44949C14.7248 7.20685 15.2765 7.72888 15.0871 8.33096C15.0557 8.43042 14.9584 8.57606 14.8773 8.69716C14.8423 8.74955 14.8103 8.79732 14.7881 8.83481C14.6949 8.99143 14.6061 9.149 14.5215 9.30751C13.5255 11.1752 13.126 13.1787 13.3233 15.3181C13.6711 19.0971 16.1242 22.4734 19.5915 23.9368C22.8171 25.2985 26.3039 24.9638 29.1787 23.1416C29.3029 23.0629 29.426 22.9814 29.5478 22.8971C29.8574 22.683 30.1593 22.451 30.4521 22.2016C30.4553 22.1988 30.4586 22.1961 30.4619 22.1933C30.9057 21.828 31.5172 22.1658 31.5959 22.7059ZM25.9915 18.5559L27.261 18.9441C27.2833 18.9508 27.303 18.9645 27.317 18.983C27.3309 19.0016 27.3384 19.0242 27.3383 19.0474C27.3382 19.0706 27.3306 19.0932 27.3166 19.1117C27.3025 19.1302 27.2828 19.1437 27.2604 19.1502L25.9864 19.5252C25.9692 19.5303 25.9536 19.5394 25.9409 19.552C25.9282 19.5645 25.9188 19.5799 25.9136 19.5968L25.522 20.8558C25.5154 20.878 25.5016 20.8975 25.4828 20.9113C25.464 20.9252 25.4413 20.9325 25.4179 20.9325C25.3945 20.9324 25.3718 20.9248 25.3532 20.9109C25.3344 20.897 25.3209 20.8774 25.3143 20.8552L24.9361 19.5918C24.931 19.5748 24.9217 19.5593 24.9091 19.5467C24.8966 19.5341 24.881 19.5248 24.8639 19.5196L23.5943 19.1314C23.572 19.1247 23.5523 19.1111 23.5384 19.0925C23.5245 19.0739 23.5169 19.0513 23.517 19.0281C23.5171 19.0049 23.5248 18.9823 23.5388 18.9638C23.5528 18.9453 23.5725 18.9318 23.595 18.9253L24.8689 18.5503C24.8861 18.5452 24.9018 18.5361 24.9144 18.5235C24.9272 18.511 24.9366 18.4956 24.9418 18.4787L25.3333 17.2197C25.34 17.1975 25.3537 17.178 25.3725 17.1642C25.3913 17.1504 25.414 17.143 25.4374 17.143C25.4608 17.1431 25.4835 17.1507 25.5022 17.1646C25.5209 17.1786 25.5345 17.1981 25.5411 17.2204L25.9192 18.4837C25.9244 18.5007 25.9336 18.5162 25.9462 18.5288C25.9588 18.5414 25.9744 18.5507 25.9915 18.5559ZM23.9719 13.7915L21.8151 13.0981C21.7929 13.091 21.7727 13.0785 21.7562 13.0616C21.7399 13.0447 21.7277 13.024 21.7209 13.0012L21.0648 10.7913C21.056 10.7612 21.038 10.7349 21.0133 10.7161C20.9887 10.6972 20.9589 10.687 20.9282 10.6869C20.8975 10.6868 20.8675 10.6967 20.8427 10.7153C20.8181 10.7339 20.7997 10.7601 20.7907 10.79L20.1117 12.9924C20.1047 13.015 20.0924 13.0357 20.0759 13.0525C20.0594 13.0692 20.0391 13.0816 20.0168 13.0886L17.8525 13.7586C17.8231 13.7676 17.7973 13.7859 17.7789 13.811C17.7605 13.8362 17.7505 13.8667 17.7504 13.898C17.7503 13.9294 17.76 13.96 17.7781 13.9852C17.7963 14.0106 17.822 14.0292 17.8513 14.0384L20.0081 14.7318C20.0304 14.739 20.0505 14.7515 20.067 14.7684C20.0834 14.7852 20.0956 14.8059 20.1023 14.8287L20.7584 17.0387C20.7673 17.0688 20.7853 17.0951 20.8099 17.1139C20.8344 17.1327 20.8643 17.1429 20.895 17.143C20.9258 17.1432 20.9557 17.1332 20.9804 17.1147C21.0052 17.0961 21.0234 17.0699 21.0325 17.04L21.7116 14.8376C21.7185 14.8149 21.7308 14.7943 21.7473 14.7775C21.7639 14.7607 21.7842 14.7483 21.8065 14.7413L23.9706 14.0714C24.0001 14.0624 24.0259 14.044 24.0443 14.0189C24.0627 13.9938 24.0727 13.9633 24.0728 13.9319C24.073 13.9005 24.0633 13.8699 24.0451 13.8447C24.0269 13.8194 24.0012 13.8008 23.9719 13.7915Z" fill="white"/>
</g>
</g>
<defs>
<linearGradient id="paint0_linear_119_5668" x1="37.6781" y1="2.16193e-06" x2="1.07729" y2="37.6614" gradientUnits="userSpaceOnUse">
<stop stop-color="#E0EDFF"/>
<stop offset="1" stop-color="#9CB1C9"/>
</linearGradient>
<clipPath id="clip0_119_5668">
<rect width="195" height="40" fill="white"/>
</clipPath>
</defs>
</svg>
