<svg width="43" height="42" viewBox="0 0 43 42" fill="none" xmlns="http://www.w3.org/2000/svg">
<circle cx="21.6665" cy="21" r="20" fill="white" stroke="url(#paint0_linear_50_3837)" stroke-width="2"/>
<path d="M13.2861 15.8516C18.894 15.8516 24.4642 15.8516 30.0666 15.8516C30.0666 15.927 30.0666 15.997 30.0666 16.067C30.0666 20.5867 30.0666 25.101 30.0666 29.6207C30.0666 30.2941 29.6734 30.6874 29.0054 30.6874C24.1194 30.6874 19.228 30.6874 14.342 30.6874C13.6955 30.6874 13.2861 30.2887 13.2861 29.6531C13.2861 25.1172 13.2861 20.576 13.2861 16.0401C13.2861 15.9809 13.2861 15.9216 13.2861 15.8516ZM21.6845 16.8104C18.296 16.8104 15.5487 19.5524 15.5487 22.9355C15.5433 26.3131 18.2853 29.0659 21.6521 29.0713C25.0567 29.0766 27.8149 26.3239 27.8095 22.9247C27.8041 19.5632 25.0513 16.8104 21.6845 16.8104Z" fill="url(#paint1_linear_50_3837)"/>
<path d="M30.0666 15.1945C24.4642 15.1945 18.8886 15.1945 13.2969 15.1945C13.2915 15.1299 13.2861 15.0706 13.2861 15.0167C13.2861 14.1387 13.2861 13.2552 13.2861 12.3771C13.2861 11.7361 13.6902 11.332 14.3312 11.332C19.228 11.332 24.1302 11.332 29.0269 11.332C29.6572 11.332 30.0666 11.7361 30.0666 12.3609C30.0666 13.2498 30.0666 14.1333 30.0666 15.0221C30.0666 15.0706 30.0666 15.1245 30.0666 15.1945ZM17.154 14.5535C17.7789 14.5535 18.4038 14.5535 19.0287 14.5535C19.3034 14.5535 19.4165 14.4349 19.4219 14.1602C19.4219 13.7777 19.4219 13.3953 19.4219 13.0128C19.4219 12.738 19.3034 12.6249 19.0287 12.6195C17.7843 12.6195 16.5399 12.6195 15.2955 12.6195C15.0207 12.6195 14.9076 12.738 14.9022 13.0128C14.9022 13.3899 14.9022 13.767 14.9022 14.144C14.9022 14.4457 15.0154 14.5535 15.317 14.5535C15.9258 14.5535 16.5399 14.5535 17.154 14.5535Z" fill="url(#paint2_linear_50_3837)"/>
<path d="M16.667 22.9926C16.667 20.2435 18.9154 18 21.6596 18C24.4333 18.0049 26.6719 20.2435 26.667 23.0172C26.6621 25.7712 24.4137 28.0049 21.6449 28C18.9007 27.9951 16.667 25.7467 16.667 22.9926Z" fill="url(#paint3_linear_50_3837)"/>
<path d="M15.5542 13.8959C15.5542 13.6804 15.5542 13.4811 15.5542 13.2764C16.6208 13.2764 17.6821 13.2764 18.7541 13.2764C18.7541 13.4757 18.7541 13.6804 18.7541 13.8959C17.6982 13.8959 16.6316 13.8959 15.5542 13.8959Z" fill="url(#paint4_linear_50_3837)"/>
<defs>
<linearGradient id="paint0_linear_50_3837" x1="0.666504" y1="24.7939" x2="42.6701" y2="24.7527" gradientUnits="userSpaceOnUse">
<stop stop-color="#EB4747"/>
<stop offset="1" stop-color="#FF8B8B"/>
</linearGradient>
<linearGradient id="paint1_linear_50_3837" x1="12.6667" y1="24.6095" x2="30.6313" y2="25.4078" gradientUnits="userSpaceOnUse">
<stop stop-color="#EB4747"/>
<stop offset="1" stop-color="#FF8B8B"/>
</linearGradient>
<linearGradient id="paint2_linear_50_3837" x1="12.6667" y1="13.6121" x2="30.1571" y2="16.5977" gradientUnits="userSpaceOnUse">
<stop stop-color="#EB4747"/>
<stop offset="1" stop-color="#FF8B8B"/>
</linearGradient>
<linearGradient id="paint3_linear_50_3837" x1="12.667" y1="23.9033" x2="30.6392" y2="24.6094" gradientUnits="userSpaceOnUse">
<stop stop-color="#EB4747"/>
<stop offset="1" stop-color="#FF8B8B"/>
</linearGradient>
<linearGradient id="paint4_linear_50_3837" x1="12.6667" y1="13.6421" x2="29.9547" y2="17.1505" gradientUnits="userSpaceOnUse">
<stop stop-color="#EB4747"/>
<stop offset="1" stop-color="#FF8B8B"/>
</linearGradient>
</defs>
</svg>
