<svg width="42" height="43" viewBox="0 0 42 43" fill="none" xmlns="http://www.w3.org/2000/svg">
<g clip-path="url(#clip0_139_6225)">
<path d="M22.4762 21.7111H22.4763C29.1335 21.7166 34.5519 18.449 38.0495 12.8085L38.4745 13.072L38.0495 12.8085C39.8918 9.83745 41.2245 6.31912 41.4993 2.88436V2.53157C41.4439 2.19857 41.3262 1.97122 41.172 1.81409C41.0184 1.65755 40.7933 1.53466 40.4611 1.4707H40.2633C39.9771 1.52327 39.7711 1.61962 39.6227 1.74117C39.4705 1.86587 39.3525 2.03853 39.2771 2.28197C39.2301 2.43486 39.2086 2.65401 39.1907 2.94671C39.1884 2.98383 39.1862 3.0223 39.1839 3.06179C39.17 3.30423 39.1538 3.58505 39.109 3.82993C39.109 3.82994 39.109 3.82994 39.109 3.82995L38.6172 3.74008L22.4762 21.7111ZM22.4762 21.7111C18.9543 21.7086 15.2842 20.971 12.1235 19.4196M22.4762 21.7111L12.1235 19.4196M12.1235 19.4196C11.7965 19.2586 11.6095 19.1182 11.5163 19.0123C10.8834 18.2924 11.4514 17.0756 12.4536 17.1393L12.1235 19.4196Z" fill="#252B31" stroke="#252B31"/>
<mask id="path-2-inside-1_139_6225" fill="white">
<path d="M0 11.4253V10.9921C0.153672 9.30229 0.889492 8.01303 2.20746 7.12436C4.6077 5.50588 7.71832 6.56162 9.83883 8.07346C12.0922 9.67881 13.9789 10.7813 16.7746 10.9429C18.859 11.0635 20.9557 10.8223 22.8695 10.0635C25.4609 9.03569 27.9915 9.06932 30.3934 10.4105C30.8407 10.6605 31.1503 10.912 31.322 11.1652C32.1193 12.3432 30.9889 14.0076 29.5501 13.6442C29.4145 13.6103 29.1955 13.5042 28.893 13.3259C27.8348 12.703 26.7025 12.4892 25.4961 12.6844C24.7119 12.8116 23.7538 13.2595 23.0048 13.4924C18.6695 14.8443 13.8518 14.4752 9.92578 12.1315C8.55914 11.3153 7.35492 10.1259 5.76926 9.67799C4.51254 9.32362 3.07371 10.0037 3.32227 11.5204C3.91125 15.1035 5.69297 18.4201 8.1777 21.0311C10.8235 23.812 14.0375 25.533 17.8196 26.1942C17.8372 26.1972 17.8551 26.196 17.8721 26.1907C17.8891 26.1855 17.9046 26.1762 17.9173 26.1638C18.5117 25.5874 19.0662 24.9678 19.5809 24.305C21.0418 22.4248 23.7431 24.6856 21.954 26.5731C21.9494 26.5778 21.9464 26.5837 21.9451 26.59C21.9439 26.5964 21.9446 26.6031 21.9471 26.6091C21.9496 26.6152 21.9539 26.6205 21.9593 26.6243C21.9648 26.6281 21.9712 26.6303 21.9778 26.6306C23.2583 26.6691 24.6307 26.6716 25.8669 26.4156C28.2688 25.9177 30.8134 24.7693 31.9479 22.4355C32.0939 22.1361 32.2153 21.8145 32.4425 21.584C33.5048 20.5037 35.3579 21.2682 35.2521 22.7981C35.2319 23.089 35.1154 23.4355 34.9027 23.8374C32.9479 27.5387 29.0235 29.2498 25.04 29.7272C21.3552 30.1686 17.6539 29.6961 14.0749 28.546C11.6813 27.7774 9.32203 26.5937 7.44023 24.9497C6.37055 24.0146 5.33777 22.9917 4.48547 21.8531C2.29441 18.9262 0.386367 15.1093 0 11.4253Z"/>
</mask>
<path d="M0 11.4253V10.9921C0.153672 9.30229 0.889492 8.01303 2.20746 7.12436C4.6077 5.50588 7.71832 6.56162 9.83883 8.07346C12.0922 9.67881 13.9789 10.7813 16.7746 10.9429C18.859 11.0635 20.9557 10.8223 22.8695 10.0635C25.4609 9.03569 27.9915 9.06932 30.3934 10.4105C30.8407 10.6605 31.1503 10.912 31.322 11.1652C32.1193 12.3432 30.9889 14.0076 29.5501 13.6442C29.4145 13.6103 29.1955 13.5042 28.893 13.3259C27.8348 12.703 26.7025 12.4892 25.4961 12.6844C24.7119 12.8116 23.7538 13.2595 23.0048 13.4924C18.6695 14.8443 13.8518 14.4752 9.92578 12.1315C8.55914 11.3153 7.35492 10.1259 5.76926 9.67799C4.51254 9.32362 3.07371 10.0037 3.32227 11.5204C3.91125 15.1035 5.69297 18.4201 8.1777 21.0311C10.8235 23.812 14.0375 25.533 17.8196 26.1942C17.8372 26.1972 17.8551 26.196 17.8721 26.1907C17.8891 26.1855 17.9046 26.1762 17.9173 26.1638C18.5117 25.5874 19.0662 24.9678 19.5809 24.305C21.0418 22.4248 23.7431 24.6856 21.954 26.5731C21.9494 26.5778 21.9464 26.5837 21.9451 26.59C21.9439 26.5964 21.9446 26.6031 21.9471 26.6091C21.9496 26.6152 21.9539 26.6205 21.9593 26.6243C21.9648 26.6281 21.9712 26.6303 21.9778 26.6306C23.2583 26.6691 24.6307 26.6716 25.8669 26.4156C28.2688 25.9177 30.8134 24.7693 31.9479 22.4355C32.0939 22.1361 32.2153 21.8145 32.4425 21.584C33.5048 20.5037 35.3579 21.2682 35.2521 22.7981C35.2319 23.089 35.1154 23.4355 34.9027 23.8374C32.9479 27.5387 29.0235 29.2498 25.04 29.7272C21.3552 30.1686 17.6539 29.6961 14.0749 28.546C11.6813 27.7774 9.32203 26.5937 7.44023 24.9497C6.37055 24.0146 5.33777 22.9917 4.48547 21.8531C2.29441 18.9262 0.386367 15.1093 0 11.4253Z" fill="#252B31"/>
<path d="M0 11.4253H-1V11.4776L-0.994545 11.5296L0 11.4253ZM0 10.9921L-0.995891 10.9016L-1 10.9468V10.9921H0ZM2.20746 7.12436L2.76652 7.95349L2.76653 7.95348L2.20746 7.12436ZM9.83883 8.07346L9.25831 8.8877L9.2586 8.88791L9.83883 8.07346ZM16.7746 10.9429L16.8323 9.94458L16.8323 9.94458L16.7746 10.9429ZM22.8695 10.0635L23.2381 10.9931L23.2382 10.9931L22.8695 10.0635ZM30.3934 10.4105L30.8811 9.53753L30.8809 9.53743L30.3934 10.4105ZM31.322 11.1652L32.1501 10.6047L32.1496 10.6039L31.322 11.1652ZM29.5501 13.6442L29.795 12.6746L29.7927 12.6741L29.5501 13.6442ZM28.893 13.3259L29.4009 12.4645L29.4003 12.4641L28.893 13.3259ZM25.4961 12.6844L25.3364 11.6973L25.3361 11.6973L25.4961 12.6844ZM23.0048 13.4924L22.7078 12.5376L22.7072 12.5378L23.0048 13.4924ZM9.92578 12.1315L9.41303 12.9901L9.41321 12.9902L9.92578 12.1315ZM5.76926 9.67799L6.04108 8.71565L6.04066 8.71552L5.76926 9.67799ZM3.32227 11.5204L2.33543 11.6821L2.33551 11.6826L3.32227 11.5204ZM8.1777 21.0311L8.90218 20.3418L8.90211 20.3418L8.1777 21.0311ZM17.8196 26.1942L17.6474 27.1792L17.6498 27.1796L17.8196 26.1942ZM17.9173 26.1638L17.2211 25.4459L17.2185 25.4484L17.9173 26.1638ZM19.5809 24.305L18.7912 23.6914L18.791 23.6917L19.5809 24.305ZM21.954 26.5731L22.6662 27.2751L22.6731 27.2682L22.6798 27.2611L21.954 26.5731ZM21.9778 26.6306L21.9305 27.6294L21.9391 27.6299L21.9477 27.6301L21.9778 26.6306ZM25.8669 26.4156L26.0696 27.3949L26.0699 27.3948L25.8669 26.4156ZM31.9479 22.4355L31.0491 21.9972L31.0485 21.9983L31.9479 22.4355ZM32.4425 21.584L33.1547 22.286L33.1556 22.2851L32.4425 21.584ZM35.2521 22.7981L36.2497 22.8675L36.2497 22.8671L35.2521 22.7981ZM34.9027 23.8374L34.0188 23.3696L34.0184 23.3704L34.9027 23.8374ZM25.04 29.7272L25.159 30.7202L25.159 30.7201L25.04 29.7272ZM14.0749 28.546L14.3809 27.5939L14.3807 27.5939L14.0749 28.546ZM7.44023 24.9497L6.78206 25.7026L6.78233 25.7029L7.44023 24.9497ZM4.48547 21.8531L5.28602 21.2538L5.28601 21.2538L4.48547 21.8531ZM1 11.4253V10.9921H-1V11.4253H1ZM0.995891 11.0827C1.12445 9.66903 1.71641 8.66155 2.76652 7.95349L1.6484 6.29523C0.0625744 7.36451 -0.817104 8.93555 -0.995891 10.9016L0.995891 11.0827ZM2.76653 7.95348C3.69588 7.32682 4.78935 7.19246 5.94457 7.40807C7.11119 7.6258 8.2857 8.19427 9.25831 8.8877L10.4194 7.25922C9.27145 6.44081 7.83039 5.72549 6.31151 5.44202C4.78124 5.15641 3.11928 5.30342 1.64839 6.29524L2.76653 7.95348ZM9.2586 8.88791C11.5558 10.5245 13.6333 11.763 16.7169 11.9412L16.8323 9.94458C14.3246 9.79962 12.6287 8.83316 10.4191 7.25901L9.2586 8.88791ZM16.7168 11.9412C18.9123 12.0683 21.1602 11.817 23.2381 10.9931L22.5009 9.13394C20.7512 9.82767 18.8057 10.0587 16.8323 9.94458L16.7168 11.9412ZM23.2382 10.9931C25.5897 10.0604 27.8014 10.1085 29.9059 11.2836L30.8809 9.53743C28.1816 8.03013 25.332 8.011 22.5008 9.13399L23.2382 10.9931ZM29.9057 11.2835C30.2974 11.5024 30.4502 11.6614 30.4944 11.7265L32.1496 10.6039C31.8503 10.1626 31.3841 9.81854 30.8811 9.53753L29.9057 11.2835ZM30.4939 11.7258C30.6218 11.9147 30.6222 12.1711 30.4556 12.409C30.2938 12.6399 30.0528 12.7398 29.795 12.6746L29.3052 14.6138C31.6367 15.2026 33.4613 12.5417 32.1501 10.6047L30.4939 11.7258ZM29.7927 12.6741C29.823 12.6816 29.806 12.6808 29.7201 12.6392C29.6431 12.602 29.5379 12.5453 29.4009 12.4645L28.3852 14.1874C28.6826 14.3627 29.0149 14.5412 29.3076 14.6143L29.7927 12.6741ZM29.4003 12.4641C28.1422 11.7236 26.7741 11.4646 25.3364 11.6973L25.6559 13.6716C26.6309 13.5138 27.5275 13.6825 28.3858 14.1877L29.4003 12.4641ZM25.3361 11.6973C24.8431 11.7773 24.3308 11.9505 23.8951 12.1091C23.4204 12.282 23.0527 12.4303 22.7078 12.5376L23.3019 14.4473C23.7059 14.3216 24.1918 14.1295 24.5794 13.9884C25.006 13.8331 25.3649 13.7188 25.6562 13.6715L25.3361 11.6973ZM22.7072 12.5378C18.6124 13.8146 14.0938 13.455 10.4383 11.2729L9.41321 12.9902C13.6098 15.4953 18.7265 15.874 23.3025 14.4471L22.7072 12.5378ZM10.4385 11.273C9.78186 10.8808 9.24187 10.4493 8.49172 9.93956C7.79245 9.46435 6.98925 8.98347 6.04108 8.71565L5.49743 10.6403C6.13493 10.8204 6.72668 11.1582 7.36759 11.5937C7.95762 11.9947 8.70306 12.5661 9.41303 12.9901L10.4385 11.273ZM6.04066 8.71552C5.1771 8.47201 4.19826 8.56446 3.4368 9.05876C2.61617 9.59146 2.14733 10.5343 2.33543 11.6821L4.3091 11.3587C4.27456 11.1479 4.30556 11.02 4.3382 10.9459C4.37155 10.8702 4.42939 10.7989 4.52577 10.7363C4.73577 10.6 5.1047 10.5296 5.49786 10.6405L6.04066 8.71552ZM2.33551 11.6826C2.96052 15.4849 4.84569 18.9803 7.45328 21.7205L8.90211 20.3418C6.54025 17.8598 4.86198 14.7222 4.30902 11.3582L2.33551 11.6826ZM7.45321 21.7204C10.2467 24.6565 13.6543 26.4812 17.6474 27.1792L17.9918 25.2091C14.4206 24.5848 11.4003 22.9674 8.90218 20.3418L7.45321 21.7204ZM17.6498 27.1796C17.8231 27.2095 18.0011 27.1979 18.169 27.1456L17.5752 25.2358C17.7092 25.1942 17.8512 25.1849 17.9895 25.2087L17.6498 27.1796ZM18.169 27.1456C18.337 27.0934 18.4902 27.0021 18.616 26.8792L17.2185 25.4484C17.3189 25.3504 17.4411 25.2775 17.5752 25.2358L18.169 27.1456ZM18.6134 26.8817C19.242 26.2722 19.8278 25.6176 20.3707 24.9182L18.791 23.6917C18.3047 24.318 17.7815 24.9026 17.2211 25.4459L18.6134 26.8817ZM20.3705 24.9186C20.5731 24.6578 20.756 24.6056 20.8728 24.5993C21.0132 24.5919 21.1793 24.6463 21.3204 24.7723C21.4596 24.8966 21.5364 25.0565 21.5449 25.2126C21.5525 25.3512 21.5119 25.5859 21.2282 25.8852L22.6798 27.2611C23.2907 26.6166 23.5833 25.8609 23.542 25.1035C23.5015 24.3636 23.1471 23.7219 22.6521 23.2801C22.1589 22.8399 21.4875 22.5637 20.7664 22.6022C20.0218 22.6419 19.3191 23.0121 18.7912 23.6914L20.3705 24.9186ZM21.2418 25.8712C21.099 26.0161 21.0017 26.2004 20.9631 26.4014L22.9272 26.7787C22.891 26.9669 22.7999 27.1395 22.6662 27.2751L21.2418 25.8712ZM20.9631 26.4014C20.9245 26.6021 20.9468 26.8072 21.0233 26.9919L22.871 26.2264C22.9424 26.3989 22.9633 26.5908 22.9272 26.7787L20.9631 26.4014ZM21.0233 26.9919C21.0997 27.1763 21.2268 27.3324 21.3867 27.4441L22.532 25.8045C22.681 25.9085 22.7996 26.0541 22.871 26.2264L21.0233 26.9919ZM21.3867 27.4441C21.5466 27.5558 21.7351 27.6202 21.9305 27.6294L22.0251 25.6317C22.2073 25.6403 22.383 25.7004 22.532 25.8045L21.3867 27.4441ZM21.9477 27.6301C23.2313 27.6688 24.7077 27.6768 26.0696 27.3949L25.6642 25.4364C24.5537 25.6663 23.2853 25.6695 22.0079 25.631L21.9477 27.6301ZM26.0699 27.3948C28.571 26.8763 31.5066 25.6307 32.8473 22.8727L31.0485 21.9983C30.1202 23.9079 27.9666 24.9591 25.6639 25.4365L26.0699 27.3948ZM32.8467 22.8738C32.9528 22.6562 32.9768 22.5885 33.0501 22.4489C33.1057 22.3429 33.1392 22.3017 33.1547 22.286L31.7304 20.882C31.5186 21.0968 31.3778 21.3316 31.2794 21.519C31.1987 21.6726 31.089 21.9154 31.0491 21.9972L32.8467 22.8738ZM33.1556 22.2851C33.3735 22.0635 33.6556 22.0313 33.8947 22.1327C34.125 22.2305 34.2751 22.4316 34.2545 22.7291L36.2497 22.8671C36.4254 20.3277 33.3842 19.2 31.7295 20.8829L33.1556 22.2851ZM34.2545 22.7287C34.2479 22.8244 34.1989 23.0293 34.0188 23.3696L35.7865 24.3052C36.0319 23.8416 36.2159 23.3537 36.2497 22.8675L34.2545 22.7287ZM34.0184 23.3704C32.2794 26.6631 28.7389 28.2768 24.921 28.7344L25.159 30.7201C29.3081 30.2229 33.6163 28.4142 35.7869 24.3044L34.0184 23.3704ZM24.9211 28.7343C21.4006 29.156 17.845 28.7071 14.3809 27.5939L13.769 29.4981C17.4629 30.685 21.3098 31.1812 25.159 30.7202L24.9211 28.7343ZM14.3807 27.5939C12.0811 26.8555 9.85247 25.7292 8.09813 24.1966L6.78233 25.7029C8.79159 27.4581 11.2814 28.6993 13.7692 29.4981L14.3807 27.5939ZM8.09841 24.1969C7.05737 23.2868 6.08079 22.3155 5.28602 21.2538L3.68492 22.4523C4.59476 23.6678 5.68373 24.7424 6.78206 25.7026L8.09841 24.1969ZM5.28601 21.2538C3.15954 18.4132 1.35573 14.7649 0.994545 11.321L-0.994545 11.5296C-0.582996 15.4537 1.42929 19.4392 3.68493 22.4524L5.28601 21.2538Z" fill="#252B31" mask="url(#path-2-inside-1_139_6225)"/>
<path d="M0.5 34.8423C0.597145 35.3924 0.849075 35.6792 1.23124 35.8202L1.0582 36.2893M0.5 34.8423L2.11472 35.909C1.63589 35.909 1.35955 35.8673 1.23078 35.82L1.0582 36.2893M0.5 34.8423V34.6806M0.5 34.8423V34.6806M1.0582 36.2893C1.27531 36.3691 1.6275 36.409 2.11477 36.409L0 34.8841C0.115391 35.6032 0.468125 36.0716 1.0582 36.2893ZM0.5 34.6806C0.57744 34.2335 0.749297 34.0005 0.948215 33.864C1.17094 33.7112 1.50379 33.627 1.98105 33.627H2.05467H2.12829H2.20191H2.27553H2.34915H2.42277H2.49639H2.57001H2.64363H2.71725H2.79087H2.86449H2.93811H3.01173H3.08535H3.15897H3.23259H3.30621H3.37983H3.45345H3.52707H3.60069H3.67431H3.74793H3.82155H3.89517H3.96879H4.04241H4.11603H4.18965H4.26327H4.33689H4.41051H4.48413H4.55775H4.63137H4.70499H4.77861H4.85223H4.92585H4.99947H5.07309H5.14671H5.22033H5.29395H5.36757H5.44119H5.51481H5.58843H5.66205H5.73567H5.8093H5.88292H5.95654H6.03016H6.10378H6.1774H6.25102H6.32464H6.39826H6.47188H6.5455H6.61912H6.69274H6.76636H6.83998H6.9136H6.98722H7.06084H7.13446H7.20808H7.2817H7.35532H7.42894H7.50256H7.57618H7.6498H7.72342H7.79704H7.87066H7.94428H8.0179H8.09152H8.16514H8.23876H8.31238H8.386H8.45963H8.53325H8.60687H8.68049H8.75411H8.82773H8.90135H8.97497H9.04859H9.12221H9.19583H9.26945H9.34307H9.41669H9.49031H9.56393H9.63755H9.71117H9.78479H9.85841H9.93203H10.0057H10.0793H10.1529H10.2265H10.3001H10.3738H10.4474H10.521H10.5946H10.6682H10.7419H10.8155H10.8891H10.9627H11.0363H11.11H11.1836H11.2572H11.3308H11.4044H11.4781H11.5517H11.6253H11.6989H11.7725H11.8462H11.9198H11.9934H12.067H12.1407H12.2143H12.2879H12.3615H12.4351H12.5088H12.5824H12.656H12.7296H12.8032H12.8769H12.9505H13.0241H13.0977H13.1713H13.245H13.3186H13.3922H13.4658H13.5394H13.6131H13.6867H13.7603H13.8339H13.9076H13.9812H14.0548H14.1284H14.202H14.2757H14.3493H14.4229H14.4965H14.5701H14.6438H14.7174H14.791H14.8646H14.9382H15.0119H15.0855H15.1591H15.2327H15.3063H15.38H15.4536H15.5272H15.6008H15.6745H15.7481H15.8217H15.8953H15.9689H16.0426H16.1162H16.1898H16.2634H16.337H16.4107H16.4843H16.5579H16.6315H16.7051H16.7788H16.8524H16.926H16.9996H17.0733H17.1469H17.2205H17.2941H17.3677H17.4414H17.515H17.5886H17.6622H17.7358H17.8095H17.8831H17.9567H18.0303H18.104H18.1776H18.2512H18.3248H18.3984H18.4721H18.5457H18.6193H18.6929H18.7665H18.8402H18.9138H18.9874H19.061H19.1346H19.2083H19.2819H19.3555H19.4291H19.5028H19.5764H19.65H19.7236H19.7972H19.8709H19.9445H20.0181H20.0917H20.1653H20.239H20.3126H20.3862H20.4598H20.5335H20.6071H20.6807H20.7543H20.8279H20.9016H20.9752H21.0488H21.1224H21.196H21.2697H21.3433H21.4169H21.4905H21.5642H21.6378H21.7114H21.785H21.8586H21.9323H22.0059H22.0795H22.1531H22.2267H22.3004H22.374H22.4476H22.5212H22.5949H22.6685H22.7421H22.8157H22.8893H22.963H23.0366H23.1102H23.1838H23.2575H23.3311H23.4047H23.4783H23.5519H23.6256H23.6992H23.7728H23.8464H23.92H23.9937H24.0673H24.1409H24.2145H24.2882H24.3618H24.4354H24.509H24.5826H24.6563H24.7299H24.8035H24.8771H24.9508H25.0244H25.098H25.1716H25.2452H25.3189H25.3925H25.4661H25.5397H25.6133H25.687H25.7606H25.8342H25.9078H25.9815H26.0551H26.1287H26.2023H26.2759H26.3496H26.4232H26.4968H26.5704H26.6441H26.7177H26.7913H26.8649H26.9385H27.0122H27.0858H27.1594H27.233H27.3067H27.3803H27.4539H27.5275H27.6011H27.6748H27.7484H27.822H27.8956H27.9692H28.0429H28.1165H28.1901H28.2637H28.3374H28.411H28.4846H28.5582H28.6318H28.7055H28.7791H28.8527H28.9263H29H29.0736H29.1472H29.2208H29.2944H29.3681H29.4417H29.5153H29.5889H29.6626H29.7362H29.8098H29.8834H29.957H30.0307H30.1043H30.1779H30.2515H30.3252H30.3988H30.4724H30.546H30.6196H30.6933H30.7669H30.8405H30.9141H30.9878H31.0614H31.135H31.2086H31.2822H31.3559H31.4295H31.5031H31.5767H31.6504H31.724H31.7976H31.8712H31.9448H32.0185H32.0921H32.1657H32.2393H32.313H32.3866H32.4602H32.5338H32.6075H32.6811H32.7547H32.8283H32.9019H32.9756H33.0492H33.1228H33.1964H33.2701H33.3437H33.4173H33.4909H33.5645H33.6382H33.7118H33.7854H33.859H33.9327H34.0063H34.0799H34.1535H34.2271H34.3008H34.3744H34.448H34.5216H34.5953H34.6689H34.7425H34.8161H34.8898H34.9634H35.037H35.1106H35.1842H35.2579H35.3315H35.4051H35.4787H35.5524H35.626H35.6996H35.7732H35.8468H35.9205H35.9941H36.0677H36.1413H36.215H36.2886H36.3622H36.4358H36.5094H36.5831H36.6567H36.7303H36.8039H36.8776H36.9512H37.0248H37.0984H37.1721H37.2457H37.3193H37.3929H37.4665H37.5402H37.6138H37.6874H37.761H37.8347H37.9083H37.9819H38.0555H38.1292H38.2028H38.2764H38.35H38.4236H38.4973H38.5709H38.6445H38.7181H38.7918H38.8654H38.939H39.0126H39.0863H39.1599H39.2335H39.3071H39.3807H39.4544H39.528H39.6016H39.6752C40.3286 33.627 40.6777 33.675 40.8093 33.7253L0.5 34.6806ZM40.7569 35.8214C41.7105 35.4867 41.7258 34.0754 40.8094 33.7253L40.7569 35.8214ZM40.7569 35.8214C40.6195 35.8695 40.3595 35.9082 39.9369 35.9082C27.3298 35.9077 14.7224 35.9079 2.11477 35.909L40.7569 35.8214Z" fill="#252B31" stroke="#252B31"/>
<path d="M40.297 40.205L40.2971 40.205C40.7135 40.2054 40.995 40.3485 41.1766 40.5349C41.3643 40.7276 41.4724 40.9948 41.4838 41.2786C41.5059 41.8288 41.1722 42.3845 40.4081 42.4707H1.58631C1.1198 42.4071 0.84902 42.2202 0.686738 41.9497C0.305588 41.3137 0.564183 40.5112 1.24326 40.2738C1.37771 40.2269 1.62456 40.1895 2.02002 40.1895C14.779 40.1895 27.538 40.1946 40.297 40.205Z" fill="#252B31" stroke="#252B31"/>
</g>
<defs>
<clipPath id="clip0_139_6225">
<rect width="42" height="42" fill="white" transform="translate(0 0.970703)"/>
</clipPath>
</defs>
</svg>
