<svg width="27" height="25" viewBox="0 0 27 25" fill="none" xmlns="http://www.w3.org/2000/svg">
<path d="M18.2025 10.2317H13.3876H8.58203V9.4323V8.62354H13.3876H18.2025V9.4323V10.2317Z" fill="#00457D"/>
<path d="M17.3911 2.61426C16.808 2.61426 16.2626 2.78353 15.783 3.05626C15.3128 2.78353 14.7673 2.61426 14.1843 2.61426C13.9021 2.61426 13.6294 2.65187 13.3661 2.72711C13.1122 2.66128 12.8583 2.61426 12.5856 2.61426C12.0025 2.61426 11.4665 2.78353 10.9868 3.05626C10.5166 2.78353 9.96178 2.61426 9.37871 2.61426C7.61072 2.61426 6.17188 4.0531 6.17188 5.8211V7.42922H7.78V5.8211C7.78 4.9371 8.49472 4.21298 9.38812 4.21298C9.52918 4.21298 9.67024 4.24119 9.8019 4.2694C9.54799 4.73021 9.38812 5.24744 9.38812 5.81169V7.41981H10.9962V5.8211C10.9962 4.9371 11.711 4.21298 12.6044 4.21298V7.41981H14.2125V4.21298C15.0965 4.21298 15.8206 4.9277 15.8206 5.8211V7.42922H17.3911V5.8211C17.3911 5.25684 17.2312 4.73961 16.9773 4.2788C17.109 4.24119 17.25 4.22238 17.3911 4.22238C18.2751 4.22238 18.9992 4.9371 18.9992 5.8305V7.43862H20.6074V5.8211C20.5979 4.0437 19.1685 2.61426 17.3911 2.61426Z" fill="#00457D"/>
<path d="M13.7334 0.752337V0H13.0375V0.752337H12.2852V1.45765H13.0375V2.20999H13.7334V1.45765H14.4951V0.752337H13.7334Z" fill="#00457D"/>
<path d="M21.4077 11.4258C21.4077 13.3254 20.7495 15.0652 19.6492 16.4382C19.0097 13.5699 16.4517 11.4258 13.3954 11.4258C11.4769 11.4258 9.75592 12.2722 8.58039 13.6076V11.4258H0.558594C0.558594 18.5166 6.30457 24.2625 13.3859 24.2625C20.4673 24.2625 26.2133 18.5166 26.2133 11.4352H21.4077V11.4258ZM2.28897 13.0339H6.97227V17.8489C6.97227 19.0996 7.33903 20.2657 7.95971 21.2626C4.95036 19.5886 2.7968 16.5793 2.28897 13.0339ZM13.3859 22.6544C10.734 22.6544 8.57099 20.5009 8.57099 17.8395C8.57099 15.1781 10.7246 13.0339 13.3859 13.0339C16.0473 13.0339 18.1915 15.1875 18.1915 17.8301C17.6461 18.2438 17.0536 18.5824 16.4141 18.8457C16.5176 18.526 16.5928 18.1968 16.5928 17.8395C16.5928 16.0244 15.1539 14.6326 13.3859 14.6326C11.618 14.6326 10.1791 16.0621 10.1791 17.8395C10.1791 19.6169 11.6085 21.0463 13.3859 21.0463C18.1539 21.0463 22.1131 17.5761 22.8748 13.0339H24.5017C23.7306 18.4695 19.0379 22.6544 13.3859 22.6544ZM14.9941 17.8395C14.9941 18.7235 14.2793 19.4382 13.3954 19.4382C12.5114 19.4382 11.7966 18.7235 11.7966 17.8395C11.7966 16.9555 12.5114 16.2407 13.3954 16.2407C14.2793 16.2407 14.9941 16.9555 14.9941 17.8395Z" fill="#00457D"/>
</svg>
