<svg width="20" height="20" viewBox="0 0 20 20" fill="none" xmlns="http://www.w3.org/2000/svg">
<path fill-rule="evenodd" clip-rule="evenodd" d="M1 1.84993C1 1.62451 1.0862 1.40833 1.23964 1.24894C1.39308 1.08955 1.60119 1 1.81818 1H10.8182C11.0352 1 11.2433 1.08955 11.3967 1.24894C11.5502 1.40833 11.6364 1.62451 11.6364 1.84993V6.09957H14.9091C15.4463 6.09957 15.9783 6.20949 16.4746 6.42306C16.9709 6.63662 17.4219 6.94965 17.8018 7.34426C18.1817 7.73888 18.483 8.20736 18.6886 8.72295C18.8942 9.23854 19 9.79115 19 10.3492V13.7489C19.0001 14.2961 18.8308 14.8287 18.5171 15.2683C18.2035 15.7078 17.7621 16.0309 17.2581 16.1899C17.108 16.7041 16.8054 17.156 16.3935 17.4809C15.9816 17.8058 15.4813 17.9873 14.9642 17.9994C14.4471 18.0114 13.9395 17.8535 13.514 17.5481C13.0884 17.2427 12.7666 16.8054 12.5945 16.2987H7.40636C7.23424 16.8054 6.91242 17.2427 6.48685 17.5481C6.06129 17.8535 5.55372 18.0114 5.03661 17.9994C4.51949 17.9873 4.01926 17.8058 3.60732 17.4809C3.19538 17.156 2.89278 16.7041 2.74273 16.1899C2.2386 16.0311 1.79701 15.708 1.48319 15.2685C1.16937 14.8289 0.999969 14.2962 1 13.7489V10.3492H5.90909C6.12609 10.3492 6.33419 10.2597 6.48763 10.1003C6.64107 9.94088 6.72727 9.7247 6.72727 9.49929C6.72727 9.27387 6.64107 9.05769 6.48763 8.8983C6.33419 8.7389 6.12609 8.64936 5.90909 8.64936H1V6.9495H4.27273C4.48972 6.9495 4.69783 6.85996 4.85127 6.70056C5.00471 6.54117 5.09091 6.32499 5.09091 6.09957C5.09091 5.87416 5.00471 5.65797 4.85127 5.49858C4.69783 5.33919 4.48972 5.24964 4.27273 5.24964H1V1.84993ZM11.6364 14.5989H12.5945C12.7562 14.1233 13.0501 13.7082 13.439 13.4062C13.8278 13.1041 14.2942 12.9287 14.7791 12.902C15.2639 12.8754 15.7455 12.9987 16.1629 13.2564C16.5803 13.5141 16.9147 13.8946 17.1239 14.3498C17.2 14.271 17.2603 14.1773 17.3015 14.0742C17.3426 13.9711 17.3637 13.8606 17.3636 13.7489V10.3492C17.3636 9.67297 17.105 9.02442 16.6447 8.54624C16.1844 8.06807 15.5601 7.79943 14.9091 7.79943H11.6364V14.5989ZM5.90909 15.4488C5.90909 15.2234 5.82289 15.0072 5.66945 14.8478C5.51601 14.6884 5.3079 14.5989 5.09091 14.5989C4.87391 14.5989 4.66581 14.6884 4.51237 14.8478C4.35893 15.0072 4.27273 15.2234 4.27273 15.4488C4.27273 15.6742 4.35893 15.8904 4.51237 16.0498C4.66581 16.2092 4.87391 16.2987 5.09091 16.2987C5.3079 16.2987 5.51601 16.2092 5.66945 16.0498C5.82289 15.8904 5.90909 15.6742 5.90909 15.4488ZM14.3306 14.8479C14.2544 14.9266 14.194 15.0203 14.1529 15.1234C14.1117 15.2266 14.0907 15.3371 14.0909 15.4488C14.0909 15.6454 14.1565 15.836 14.2765 15.988C14.3966 16.1401 14.5637 16.2441 14.7493 16.2825C14.935 16.3209 15.1277 16.2913 15.2946 16.1986C15.4616 16.106 15.5925 15.956 15.6649 15.7744C15.7374 15.5927 15.747 15.3906 15.6921 15.2024C15.6372 15.0142 15.5211 14.8516 15.3638 14.7424C15.2064 14.6331 15.0174 14.5839 14.829 14.6031C14.6406 14.6224 14.4645 14.7089 14.3306 14.8479Z" fill="#96B6C5"/>
</svg>
