<svg width="30" height="31" viewBox="0 0 30 31" fill="none" xmlns="http://www.w3.org/2000/svg">
<path d="M3.73828 15.0515C3.73828 13.0115 4.24828 11.1215 5.25828 9.39148C6.26828 7.66148 7.63828 6.29148 9.36828 5.28148C11.0983 4.27148 12.9783 3.77148 15.0083 3.77148C16.5283 3.77148 17.9883 4.07148 19.3783 4.66148C20.7683 5.25148 21.9583 6.06148 22.9683 7.06148C23.9783 8.06148 24.7783 9.26148 25.3683 10.6615C25.9583 12.0615 26.2583 13.5115 26.2583 15.0515C26.2583 16.5715 25.9583 18.0315 25.3683 19.4215C24.7783 20.8115 23.9683 22.0115 22.9683 23.0115C21.9683 24.0115 20.7683 24.8115 19.3783 25.4015C17.9883 25.9915 16.5383 26.2915 15.0083 26.2915C13.4783 26.2915 12.0083 25.9915 10.6183 25.4015C9.22828 24.8115 8.02828 24.0015 7.01828 23.0015C6.00828 22.0015 5.21828 20.8015 4.61828 19.4215C4.01828 18.0415 3.73828 16.5815 3.73828 15.0515ZM6.21828 15.0515C6.21828 17.4215 7.07828 19.4815 8.80828 21.2315C10.5383 22.9615 12.5983 23.8215 15.0083 23.8215C16.5883 23.8215 18.0583 23.4315 19.3983 22.6415C20.7383 21.8515 21.8183 20.7915 22.6083 19.4415C23.3983 18.0915 23.7983 16.6315 23.7983 15.0515C23.7983 13.4715 23.3983 12.0015 22.6083 10.6515C21.8183 9.30148 20.7483 8.23148 19.3983 7.44148C18.0483 6.65148 16.5883 6.26148 15.0083 6.26148C13.4283 6.26148 11.9583 6.65148 10.6183 7.44148C9.27828 8.23148 8.19828 9.30148 7.39828 10.6515C6.59828 12.0015 6.21828 13.4715 6.21828 15.0515ZM14.1383 15.0515V8.39148C14.1383 8.16148 14.2183 7.96148 14.3783 7.80148C14.5383 7.64148 14.7383 7.56148 14.9683 7.56148C15.1983 7.56148 15.3983 7.64148 15.5583 7.80148C15.7183 7.96148 15.7983 8.16148 15.7983 8.39148V13.6015L18.5783 12.0315C18.7783 11.9115 18.9883 11.8815 19.2083 11.9415C19.4283 12.0015 19.5983 12.1415 19.7083 12.3515C19.8283 12.5515 19.8483 12.7615 19.7883 12.9815C19.7283 13.2015 19.5983 13.3815 19.3983 13.4915L15.5183 15.6615C15.3668 15.804 15.1663 15.8828 14.9583 15.8815C14.8493 15.8833 14.741 15.863 14.64 15.8218C14.5391 15.7806 14.4475 15.7193 14.3709 15.6418C14.2942 15.5642 14.2341 15.4719 14.1941 15.3704C14.1542 15.269 14.1352 15.1605 14.1383 15.0515Z" fill="black"/>
</svg>
