<svg width="30" height="30" viewBox="0 0 30 30" fill="none" xmlns="http://www.w3.org/2000/svg">
<path d="M14.5 9C15.3284 9 16 8.32843 16 7.5C16 6.67157 15.3284 6 14.5 6C13.6716 6 13 6.67157 13 7.5C13 8.32843 13.6716 9 14.5 9Z" fill="#96B6C5"/>
<path d="M18.75 19.8H16.25V11H12.5C12.1685 11 11.8505 11.1159 11.6161 11.3222C11.3817 11.5285 11.25 11.8083 11.25 12.1C11.25 12.3917 11.3817 12.6715 11.6161 12.8778C11.8505 13.0841 12.1685 13.2 12.5 13.2H13.75V19.8H11.25C10.9185 19.8 10.6005 19.9159 10.3661 20.1222C10.1317 20.3285 10 20.6083 10 20.9C10 21.1917 10.1317 21.4715 10.3661 21.6778C10.6005 21.8841 10.9185 22 11.25 22H18.75C19.0815 22 19.3995 21.8841 19.6339 21.6778C19.8683 21.4715 20 21.1917 20 20.9C20 20.6083 19.8683 20.3285 19.6339 20.1222C19.3995 19.9159 19.0815 19.8 18.75 19.8Z" fill="#96B6C5"/>
<path d="M15 2C12.4288 2 9.91543 2.76244 7.77759 4.19089C5.63975 5.61935 3.97351 7.64967 2.98957 10.0251C2.00563 12.4006 1.74819 15.0144 2.2498 17.5362C2.7514 20.0579 3.98954 22.3743 5.80762 24.1924C7.6257 26.0105 9.94208 27.2486 12.4638 27.7502C14.9856 28.2518 17.5994 27.9944 19.9749 27.0104C22.3503 26.0265 24.3806 24.3602 25.8091 22.2224C27.2376 20.0846 28 17.5712 28 15C28 11.5522 26.6304 8.24558 24.1924 5.80761C21.7544 3.36964 18.4478 2 15 2ZM15 25.8333C12.8574 25.8333 10.7629 25.198 8.98133 24.0076C7.1998 22.8172 5.81126 21.1253 4.99131 19.1457C4.17136 17.1662 3.95683 14.988 4.37483 12.8865C4.79284 10.7851 5.82461 8.85474 7.33968 7.33968C8.85475 5.82461 10.7851 4.79283 12.8865 4.37483C14.988 3.95682 17.1662 4.17136 19.1457 4.9913C21.1253 5.81125 22.8172 7.19979 24.0076 8.98132C25.198 10.7629 25.8333 12.8574 25.8333 15C25.8333 16.4227 25.5531 17.8314 25.0087 19.1457C24.4643 20.4601 23.6663 21.6544 22.6603 22.6603C21.6544 23.6663 20.4601 24.4643 19.1457 25.0087C17.8314 25.5531 16.4227 25.8333 15 25.8333Z" fill="#96B6C5"/>
</svg>
