<svg width="206" height="44" viewBox="0 0 206 44" fill="none" xmlns="http://www.w3.org/2000/svg">
<path d="M103.413 22.6438C103.35 22.0635 102.993 21.209 103.103 20.5618C103.643 17.3351 103.906 14.5166 105.978 11.6215C108.537 8.04412 111.967 5.7963 116.266 4.87804C116.91 4.742 118.122 4.71436 119.902 4.79514C121.292 4.85678 122.488 5.03533 123.488 5.33079C125.826 6.01736 127.768 7.10248 129.314 8.58615C129.912 9.16007 129.874 10.4737 129.57 11.2708C129.031 12.6886 128.084 13.7854 126.73 14.5612C125.163 15.4635 122.957 13.1105 121.296 12.6801C117.924 11.8064 114.335 13.0531 112.313 15.8493C111.393 17.1247 110.899 18.5754 110.831 20.2015C110.751 22.0997 111.197 23.8554 112.168 25.4688C114.708 29.6998 118.657 29.9931 123.03 28.9569C123.1 28.9394 123.162 28.8991 123.207 28.8421C123.252 28.785 123.278 28.7145 123.28 28.6412L123.368 24.3528C123.369 24.3198 123.362 24.287 123.35 24.2564C123.338 24.2258 123.319 24.1981 123.296 24.1748C123.273 24.1516 123.245 24.1334 123.214 24.1212C123.184 24.1091 123.151 24.1033 123.119 24.1041C121.012 24.1764 119.335 24.0935 118.086 23.8554C116.983 23.6482 117.141 20.6702 117.169 19.8317C117.214 18.518 117.913 17.8453 119.267 17.8134C123.771 17.7092 127.053 17.7284 129.115 17.8708C131.634 18.0462 131.049 25.8833 131.04 27.487C131.025 29.7295 131.008 30.9114 130.989 31.0325C130.61 33.4812 128.395 34.8873 126.234 35.8725C123.428 37.1511 120.683 37.1957 117.533 37.0586C116.056 36.9927 114.909 36.7929 114.092 36.4592C109.129 34.4229 105.754 30.9039 103.966 25.9024C103.609 24.9044 103.533 23.7215 103.413 22.6438Z" fill="#96B6C5"/>
<path d="M26.8323 24.1336C25.421 24.0316 24.0077 24.0146 22.5922 24.0826C20.1057 24.2037 20.6365 20.0174 21.0567 18.624C21.0853 18.5267 21.1452 18.4406 21.2273 18.3785C21.6802 18.0469 22.1446 17.8758 22.6207 17.8652C27.6169 17.7525 30.9165 17.7525 32.5194 17.8652C33.9981 17.9672 34.6173 20.2756 34.6236 21.6817C34.6405 24.6469 34.6447 27.6121 34.6363 30.5774C34.6268 34.6872 28.4215 36.7342 25.2778 37.1423C24.8123 37.2039 23.8655 37.2178 22.4374 37.1837C14.6777 37.0052 8.7283 31.62 7.14223 24.1272C6.68515 21.974 6.63986 19.8622 7.00637 17.7919C8.22278 10.9495 14.1595 5.37939 21.1231 4.85012C22.9745 4.70983 24.7407 4.8193 26.4216 5.17852C28.6869 5.66316 31.878 7.07244 33.1608 9.17359C34.2319 10.9272 31.2335 15.1582 29.2146 14.7087C27.5021 14.3292 26.3362 12.9646 24.8039 12.5916C23.7486 12.3333 21.4106 12.464 20.2479 12.7988C17.0694 13.7234 14.4407 16.6855 14.4281 20.1226C14.4123 23.4895 15.5402 26.1232 18.2289 28.1478C20.627 29.9524 23.9824 29.6814 26.8418 28.8907C26.9576 28.8588 27.0166 28.7823 27.0187 28.6611L27.1072 24.4365C27.109 24.36 27.0813 24.2857 27.0301 24.2292C26.9789 24.1728 26.908 24.1385 26.8323 24.1336Z" fill="#96B6C5"/>
<path d="M65.0334 22.6765C64.9418 27.1976 62.9639 31.8113 59.3558 34.5629C58.648 35.1017 57.5769 35.6661 56.6796 36.2368C56.3131 36.4727 55.9319 36.6343 55.5359 36.7214C53.5286 37.1635 52.2353 37.3867 51.656 37.391C48.6082 37.4144 46.0321 36.6853 43.9279 35.2037C41.0864 33.2057 39.1581 30.4052 38.1428 26.8023C37.9764 26.2135 37.8321 25.3898 37.71 24.3313C37.5836 23.2408 37.3719 22.0707 37.3466 21.0026C37.1992 14.3664 37.2276 9.9962 37.4319 7.89185C37.5751 6.43156 38.4177 5.55156 39.9595 5.25185C40.8442 5.07968 42.702 5.14026 43.5456 5.51649C44.5924 5.98625 45.1306 6.88644 45.1601 8.21707C45.2254 11.1419 45.2454 16.271 45.2201 23.6043C45.2138 24.8223 45.7667 25.6353 46.2691 26.6716C47.0484 28.2785 48.3217 29.2138 50.0889 29.4774C53.1389 29.9322 55.3063 28.7812 56.5912 26.0243C57.1694 24.7872 57.3937 23.8243 57.3811 22.3736C57.3389 17.9991 57.32 13.6235 57.3242 9.24692C57.3242 8.26064 57.4169 7.49968 57.6022 6.96402C58.3163 4.92026 62.1172 4.98084 63.5958 5.55156C64.4594 5.88315 64.9091 6.61117 64.9449 7.73562C65.1029 12.7138 65.1324 17.6941 65.0334 22.6765Z" fill="#96B6C5"/>
<path d="M68.6601 19.1334C68.6759 16.2 68.4863 11.3505 68.7738 7.81135C69.0234 4.70903 73.5415 4.80468 75.3488 5.8186C76.4451 6.43396 76.5336 9.5044 76.5273 10.6363C76.5041 16.826 76.5062 23.1306 76.5336 29.5499C76.5344 29.7709 76.622 29.9826 76.7772 30.1385C76.9323 30.2945 77.1424 30.3821 77.3614 30.3821C81.1044 30.38 84.8579 30.4086 88.6219 30.4682C90.0279 30.4905 90.6787 30.8603 90.9378 32.3238C91.1242 33.3983 91.1432 36.6441 89.516 36.6887C83.7025 36.8482 77.889 36.8726 72.0755 36.7621C71.2077 36.7472 70.5727 36.6186 70.1703 36.3763C68.6759 35.4771 68.7107 33.698 68.6917 31.7244C68.6454 27.5263 68.6348 23.3293 68.6601 19.1334Z" fill="#96B6C5"/>
<path d="M98.5218 5.26501L96.6577 5.2683C95.0453 5.27114 93.7406 6.59244 93.7434 8.21952L93.7877 33.8415C93.7905 35.4686 95.0998 36.7853 96.7122 36.7824L98.5763 36.7792C100.189 36.7763 101.493 35.455 101.491 33.8279L101.446 8.20595C101.443 6.57888 100.134 5.26217 98.5218 5.26501Z" fill="#96B6C5"/>
<path d="M162.832 19.0088C162.791 21.6935 162.807 24.3941 162.144 26.7822C161.074 30.6295 158.876 33.5565 155.55 35.563C154.056 36.4643 152.438 37.0223 150.694 37.237C142.084 38.2891 136.15 31.8581 135.269 23.6543C134.763 18.9323 134.972 14.1465 135.057 9.40536C135.076 8.3128 135.191 7.43811 135.402 6.7813C135.989 4.95753 139.06 5.04681 140.491 5.31464C142.223 5.63985 142.861 7.21493 142.874 8.84739C142.907 13.3749 142.901 17.9035 142.855 22.4332C142.844 23.3132 142.944 24.0773 143.155 24.7257C144.005 27.3338 145.155 29.25 148.185 29.5274C151.784 29.8558 154.055 27.8694 154.874 24.4228C155.015 23.8255 155.077 22.9518 155.06 21.8019C154.995 17.4784 154.994 13.1571 155.057 8.83782C155.085 6.83551 155.951 5.16797 158.172 5.16797C160.437 5.17116 162.554 5.26362 162.693 8.12681C162.851 11.4406 162.898 15.068 162.832 19.0088Z" fill="#96B6C5"/>
<path d="M166.078 17.3381C166.093 13.0507 166.217 9.91123 166.451 7.91954C166.821 4.78215 170.021 4.99577 172.356 5.57606C172.86 5.70147 173.215 5.90766 173.421 6.19461C173.93 6.89287 174.195 8.87925 174.195 9.97925C174.204 16.5963 174.184 23.1548 174.135 29.6549C174.134 29.7557 174.153 29.8556 174.191 29.949C174.228 30.0423 174.284 30.1273 174.354 30.199C174.424 30.2707 174.507 30.3277 174.6 30.3667C174.692 30.4058 174.79 30.4261 174.89 30.4265C178.372 30.4414 181.765 30.4478 185.07 30.4456C186.227 30.4424 188.315 30.2384 188.486 31.7656C188.614 32.9198 188.627 34.074 188.523 35.2282C188.4 36.6056 187.361 36.7013 186.255 36.7172C181.035 36.7852 175.816 36.7948 170.596 36.7459C169.269 36.7332 168.492 36.6938 168.265 36.6279C166.461 36.0955 166.243 33.3184 166.265 31.7146C166.328 26.9129 166.278 22.6117 166.116 18.8111C166.089 18.1586 166.076 17.6676 166.078 17.3381Z" fill="#96B6C5"/>
<path d="M199.087 8.41037C199.081 8.88225 199.308 9.59646 199.302 10.1672C199.22 16.7417 199.21 23.3162 199.273 29.8907C199.29 31.6889 199.192 33.2257 198.98 34.5011C198.737 35.9508 197.896 36.7 196.455 36.7489C194.812 36.8031 192.534 37.2112 191.88 35.1388C191.64 34.3757 191.514 33.5031 191.501 32.5211C191.392 24.6053 191.338 16.6885 191.34 8.77066C191.343 5.39414 194.228 4.90631 196.841 5.3495C198.374 5.6067 199.123 6.62699 199.087 8.41037Z" fill="#96B6C5"/>
</svg>
