<svg width="126" height="27" viewBox="0 0 126 27" fill="none" xmlns="http://www.w3.org/2000/svg">
<path d="M63.2477 13.8908C63.2093 13.5384 62.9925 13.0196 63.0597 12.6266C63.3877 10.6675 63.5469 8.95624 64.8054 7.19847C66.3592 5.02642 68.4412 3.66164 71.0514 3.10411C71.4428 3.02151 72.1788 3.00473 73.2594 3.05377C74.1035 3.0912 74.8293 3.19961 75.4367 3.379C76.8563 3.79586 78.0354 4.4547 78.9741 5.35552C79.3367 5.70398 79.3137 6.50156 79.1295 6.98552C78.8021 7.84634 78.2272 8.51228 77.4049 8.98334C76.4534 9.53119 75.1144 8.10252 74.1054 7.84118C72.0586 7.31075 69.8793 8.06768 68.6516 9.76543C68.0927 10.5398 67.7928 11.4206 67.7519 12.4079C67.7033 13.5604 67.9738 14.6264 68.5634 15.606C70.1057 18.1749 72.5036 18.353 75.1586 17.7238C75.201 17.7132 75.2388 17.6887 75.2661 17.6541C75.2935 17.6195 75.309 17.5766 75.3101 17.5321L75.3638 14.9284C75.3641 14.9083 75.3603 14.8884 75.3528 14.8698C75.3452 14.8513 75.3341 14.8344 75.3199 14.8203C75.3058 14.8062 75.2889 14.7952 75.2704 14.7878C75.2519 14.7804 75.2322 14.7769 75.2123 14.7774C73.9334 14.8213 72.9148 14.7709 72.1564 14.6264C71.4869 14.5006 71.5828 12.6925 71.6001 12.1833C71.6269 11.3858 72.0515 10.9773 72.8738 10.9579C75.6081 10.8947 77.6012 10.9063 78.8533 10.9928C80.3822 11.0992 80.0273 15.8576 80.0215 16.8314C80.0126 18.1929 80.0023 18.9105 79.9908 18.984C79.7606 20.4708 78.4159 21.3245 77.1037 21.9227C75.4003 22.699 73.7332 22.7261 71.8207 22.6428C70.9242 22.6028 70.2278 22.4815 69.7316 22.2789C66.7186 21.0425 64.6692 18.906 63.5834 15.8692C63.3666 15.2633 63.3206 14.5451 63.2477 13.8908Z" fill="white"/>
<path d="M16.7524 14.7948C15.8956 14.7329 15.0375 14.7225 14.178 14.7638C12.6683 14.8374 12.9906 12.2956 13.2457 11.4496C13.2631 11.3905 13.2994 11.3383 13.3493 11.3006C13.6243 11.0992 13.9063 10.9953 14.1953 10.9889C17.2288 10.9205 19.2322 10.9205 20.2054 10.9889C21.1032 11.0508 21.4792 12.4524 21.483 13.3061C21.4933 15.1065 21.4958 16.9068 21.4907 18.7072C21.4849 21.2025 17.7174 22.4454 15.8086 22.6932C15.526 22.7306 14.9511 22.739 14.084 22.7183C9.37264 22.6099 5.76043 19.3402 4.79743 14.7909C4.51992 13.4836 4.49242 12.2014 4.71495 10.9444C5.4535 6.78998 9.05803 3.40802 13.286 3.08666C14.4102 3.00149 15.4825 3.06795 16.5031 3.28606C17.8785 3.58031 19.816 4.43597 20.5948 5.7117C21.2452 6.77643 19.4247 9.34533 18.1989 9.07237C17.1591 8.84201 16.4513 8.01345 15.5209 7.78696C14.8801 7.63015 13.4606 7.70952 12.7546 7.91279C10.8248 8.47419 9.22877 10.2726 9.22109 12.3595C9.2115 14.4038 9.89634 16.0028 11.5288 17.2321C12.9848 18.3278 15.0221 18.1632 16.7582 17.6831C16.8285 17.6638 16.8643 17.6173 16.8656 17.5437L16.9193 14.9787C16.9204 14.9322 16.9037 14.8872 16.8725 14.8529C16.8414 14.8186 16.7984 14.7978 16.7524 14.7948Z" fill="white"/>
<path d="M39.9447 13.9101C39.8891 16.6552 38.6882 19.4564 36.4975 21.127C36.0678 21.4542 35.4174 21.7968 34.8726 22.1434C34.6501 22.2866 34.4186 22.3847 34.1782 22.4376C32.9594 22.7061 32.1742 22.8416 31.8225 22.8441C29.972 22.8583 28.4079 22.4157 27.1303 21.5161C25.4051 20.303 24.2343 18.6027 23.6178 16.4151C23.5168 16.0576 23.4292 15.5575 23.355 14.9148C23.2783 14.2528 23.1498 13.5423 23.1344 12.8938C23.0449 8.86458 23.0622 6.21115 23.1862 4.93348C23.2732 4.04685 23.7847 3.51255 24.7209 3.33058C25.258 3.22604 26.386 3.26282 26.8982 3.49125C27.5338 3.77647 27.8605 4.32303 27.8784 5.13093C27.9181 6.90677 27.9302 10.0209 27.9149 14.4734C27.911 15.2129 28.2467 15.7066 28.5518 16.3357C29.0249 17.3114 29.798 17.8793 30.871 18.0393C32.7228 18.3155 34.0388 17.6166 34.8189 15.9428C35.17 15.1917 35.3062 14.607 35.2985 13.7262C35.2729 11.0702 35.2614 8.41352 35.264 5.75622C35.264 5.15739 35.3202 4.69536 35.4328 4.37014C35.8663 3.12924 38.1741 3.16603 39.0719 3.51255C39.5962 3.71388 39.8692 4.1559 39.891 4.83862C39.9869 7.86116 40.0048 10.885 39.9447 13.9101Z" fill="white"/>
<path d="M42.1495 11.7596C42.1591 9.97857 42.044 7.03411 42.2186 4.8853C42.3701 3.0017 45.1133 3.05977 46.2106 3.67538C46.8763 4.049 46.93 5.91324 46.9262 6.60048C46.9121 10.3586 46.9134 14.1865 46.93 18.0841C46.9305 18.2182 46.9837 18.3468 47.0779 18.4415C47.1721 18.5361 47.2996 18.5893 47.4326 18.5893C49.7052 18.588 51.9841 18.6055 54.2695 18.6416C55.1232 18.6551 55.5183 18.8797 55.6756 19.7683C55.7888 20.4207 55.8003 22.3914 54.8124 22.4185C51.2827 22.5153 47.7529 22.5301 44.2232 22.463C43.6963 22.454 43.3107 22.3759 43.0665 22.2288C42.1591 21.6828 42.1802 20.6026 42.1687 19.4043C42.1406 16.8554 42.1342 14.3072 42.1495 11.7596Z" fill="white"/>
<path d="M60.2793 3.3401L59.1475 3.34209C58.1686 3.34382 57.3764 4.14606 57.3781 5.13396L57.405 20.6906C57.4067 21.6785 58.2017 22.4779 59.1806 22.4762L60.3124 22.4742C61.2914 22.4725 62.0836 21.6702 62.0819 20.6823L62.055 5.12572C62.0533 4.13782 61.2583 3.33838 60.2793 3.3401Z" fill="white"/>
<path d="M99.3249 11.6839C99.2999 13.3139 99.3095 14.9536 98.9067 16.4035C98.257 18.7395 96.9225 20.5166 94.9031 21.7349C93.9964 22.2821 93.0136 22.6209 91.9547 22.7513C86.7272 23.3901 83.1246 19.4854 82.5894 14.5044C82.2825 11.6374 82.4091 8.73168 82.4609 5.85304C82.4724 5.18969 82.5421 4.65861 82.67 4.25982C83.0268 3.15251 84.8914 3.20671 85.7604 3.36932C86.8116 3.56678 87.1991 4.5231 87.2068 5.51427C87.2273 8.2632 87.2234 11.0128 87.1953 13.763C87.1889 14.2973 87.2497 14.7613 87.3776 15.1549C87.8936 16.7384 88.5919 17.9019 90.4315 18.0703C92.6165 18.2697 93.9958 17.0637 94.4926 14.971C94.5783 14.6083 94.616 14.0779 94.6058 13.3797C94.5662 10.7547 94.5655 8.13092 94.6039 5.50846C94.6211 4.29273 95.1468 3.28027 96.4953 3.28027C97.8708 3.28221 99.1561 3.33835 99.2405 5.07676C99.3364 7.08877 99.3645 9.29115 99.3249 11.6839Z" fill="white"/>
<path d="M101.297 10.6693C101.306 8.06624 101.381 6.16005 101.523 4.95077C101.748 3.04588 103.691 3.17558 105.109 3.52791C105.414 3.60405 105.63 3.72924 105.755 3.90347C106.064 4.32742 106.225 5.53347 106.225 6.20135C106.23 10.2189 106.218 14.201 106.189 18.1476C106.188 18.2088 106.2 18.2694 106.222 18.3261C106.245 18.3828 106.279 18.4344 106.322 18.4779C106.364 18.5215 106.415 18.5561 106.471 18.5798C106.527 18.6035 106.587 18.6158 106.647 18.6161C108.761 18.6251 110.821 18.629 112.828 18.6277C113.53 18.6258 114.798 18.5019 114.902 19.4291C114.98 20.1299 114.987 20.8307 114.925 21.5315C114.85 22.3678 114.219 22.4259 113.547 22.4356C110.378 22.4768 107.209 22.4827 104.04 22.453C103.235 22.4452 102.763 22.4214 102.624 22.3813C101.529 22.0581 101.397 20.3719 101.41 19.3982C101.449 16.4828 101.419 13.8713 101.32 11.5637C101.303 11.1675 101.296 10.8694 101.297 10.6693Z" fill="white"/>
<path d="M121.337 5.24969C121.333 5.5362 121.471 5.96984 121.467 6.31636C121.417 10.3081 121.411 14.2999 121.45 18.2916C121.46 19.3835 121.401 20.3166 121.271 21.0909C121.124 21.9711 120.613 22.426 119.739 22.4557C118.741 22.4886 117.358 22.7364 116.961 21.4781C116.815 21.0148 116.738 20.485 116.731 19.8887C116.664 15.0826 116.632 10.2759 116.633 5.46845C116.635 3.41836 118.386 3.12217 119.973 3.39126C120.904 3.54742 121.358 4.1669 121.337 5.24969Z" fill="white"/>
</svg>
