<svg width="43" height="28" viewBox="0 0 43 28" fill="none" xmlns="http://www.w3.org/2000/svg">
<rect x="0.899963" y="1.0708" width="41" height="26" rx="6.5" fill="white" stroke="#F3D869"/>
<path d="M13.4035 23.604V22.3331C13.4035 21.847 13.1074 21.5286 12.599 21.5286C12.3449 21.5286 12.0685 21.6125 11.8785 21.8889C11.7304 21.657 11.5182 21.5286 11.1998 21.5286C10.9876 21.5286 10.7754 21.5928 10.6076 21.8248V21.5706H10.1634V23.604H10.6076V22.4812C10.6076 22.1209 10.7976 21.9506 11.0937 21.9506C11.3899 21.9506 11.5379 22.1406 11.5379 22.4812V23.604H11.9821V22.4812C11.9821 22.1209 12.1943 21.9506 12.4682 21.9506C12.7644 21.9506 12.9124 22.1406 12.9124 22.4812V23.604H13.4035ZM19.9924 21.5706H19.2718V20.9561H18.8276V21.5706H18.4253V21.9728H18.8276V22.9056C18.8276 23.372 19.0176 23.646 19.526 23.646C19.716 23.646 19.9282 23.5818 20.0763 23.4979L19.9479 23.1154C19.8196 23.1993 19.6715 23.2215 19.5654 23.2215C19.3532 23.2215 19.2693 23.0932 19.2693 22.8834V21.9728H19.9899V21.5706H19.9924ZM23.763 21.5262C23.5089 21.5262 23.3386 21.6545 23.2325 21.8223V21.5681H22.7883V23.6015H23.2325V22.4565C23.2325 22.1184 23.3805 21.9259 23.6569 21.9259C23.7408 21.9259 23.8469 21.9482 23.9333 21.9679L24.0616 21.5434C23.9728 21.5262 23.8469 21.5262 23.763 21.5262ZM18.0651 21.7384C17.8528 21.5903 17.5567 21.5262 17.2384 21.5262C16.73 21.5262 16.3919 21.7804 16.3919 22.1826C16.3919 22.5207 16.6461 22.7132 17.0903 22.7748L17.3025 22.7971C17.5345 22.839 17.6628 22.9032 17.6628 23.0093C17.6628 23.1573 17.4925 23.2635 17.1964 23.2635C16.9003 23.2635 16.6659 23.1573 16.5178 23.0512L16.3056 23.3893C16.5375 23.5596 16.8559 23.6435 17.1742 23.6435C17.7665 23.6435 18.107 23.3671 18.107 22.9871C18.107 22.6268 17.8306 22.4368 17.4086 22.3726L17.1964 22.3504C17.0064 22.3282 16.8583 22.2862 16.8583 22.1604C16.8583 22.0123 17.0064 21.9284 17.2408 21.9284C17.495 21.9284 17.7492 22.0345 17.8775 22.0987L18.0651 21.7384ZM29.883 21.5262C29.6288 21.5262 29.4586 21.6545 29.3524 21.8223V21.5681H28.9083V23.6015H29.3524V22.4565C29.3524 22.1184 29.5005 21.9259 29.7769 21.9259C29.8608 21.9259 29.9669 21.9482 30.0533 21.9679L30.1816 21.5484C30.0952 21.5262 29.9694 21.5262 29.883 21.5262ZM24.2072 22.5873C24.2072 23.2018 24.6317 23.646 25.2881 23.646C25.5842 23.646 25.7965 23.5818 26.0087 23.414L25.7965 23.0537C25.6262 23.182 25.4584 23.2437 25.2659 23.2437C24.9056 23.2437 24.6514 22.9895 24.6514 22.5873C24.6514 22.2048 24.9056 21.9506 25.2659 21.9309C25.4559 21.9309 25.6262 21.995 25.7965 22.1209L26.0087 21.7606C25.7965 21.5903 25.5842 21.5286 25.2881 21.5286C24.6317 21.5262 24.2072 21.9728 24.2072 22.5873ZM28.316 22.5873V21.5706H27.8718V21.8248C27.7237 21.6348 27.5115 21.5286 27.2351 21.5286C26.6626 21.5286 26.2184 21.9728 26.2184 22.5873C26.2184 23.2018 26.6626 23.646 27.2351 23.646C27.5313 23.646 27.7435 23.5398 27.8718 23.3498V23.604H28.316V22.5873ZM26.6848 22.5873C26.6848 22.227 26.9168 21.9309 27.2993 21.9309C27.6596 21.9309 27.9138 22.2073 27.9138 22.5873C27.9138 22.9476 27.6596 23.2437 27.2993 23.2437C26.9193 23.2215 26.6848 22.9451 26.6848 22.5873ZM21.3693 21.5262C20.7771 21.5262 20.3526 21.9506 20.3526 22.5848C20.3526 23.2215 20.7771 23.6435 21.3916 23.6435C21.6877 23.6435 21.9838 23.5596 22.2182 23.3671L22.006 23.0488C21.8357 23.1771 21.6235 23.261 21.4138 23.261C21.1374 23.261 20.8635 23.1327 20.7993 22.7748H22.3021C22.3021 22.7107 22.3021 22.6687 22.3021 22.6046C22.3219 21.9506 21.9394 21.5262 21.3693 21.5262ZM21.3693 21.9087C21.6457 21.9087 21.8357 22.0789 21.8777 22.3948H20.819C20.861 22.1209 21.051 21.9087 21.3693 21.9087ZM32.405 22.5873V20.7661H31.9608V21.8248C31.8128 21.6348 31.6005 21.5286 31.3242 21.5286C30.7516 21.5286 30.3075 21.9728 30.3075 22.5873C30.3075 23.2018 30.7516 23.646 31.3242 23.646C31.6203 23.646 31.8325 23.5398 31.9608 23.3498V23.604H32.405V22.5873ZM30.7739 22.5873C30.7739 22.227 31.0058 21.9309 31.3883 21.9309C31.7486 21.9309 32.0028 22.2073 32.0028 22.5873C32.0028 22.9476 31.7486 23.2437 31.3883 23.2437C31.0058 23.2215 30.7739 22.9451 30.7739 22.5873ZM15.9033 22.5873V21.5706H15.4591V21.8248C15.3111 21.6348 15.0988 21.5286 14.8225 21.5286C14.2499 21.5286 13.8058 21.9728 13.8058 22.5873C13.8058 23.2018 14.2499 23.646 14.8225 23.646C15.1186 23.646 15.3308 23.5398 15.4591 23.3498V23.604H15.9033V22.5873ZM14.2524 22.5873C14.2524 22.227 14.4844 21.9309 14.8669 21.9309C15.2272 21.9309 15.4813 22.2073 15.4813 22.5873C15.4813 22.9476 15.2272 23.2437 14.8669 23.2437C14.4844 23.2215 14.2524 22.9451 14.2524 22.5873Z" fill="#F3D869"/>
<path d="M24.5898 6.12744H17.9171V18.1157H24.5898V6.12744Z" fill="#F8ECC1"/>
<path d="M18.3611 12.1219C18.3611 9.68622 19.5061 7.52448 21.2632 6.12775C19.9701 5.11105 18.3389 4.49658 16.5597 4.49658C12.3448 4.49658 8.93439 7.90698 8.93439 12.1219C8.93439 16.3367 12.3448 19.7471 16.5597 19.7471C18.3389 19.7471 19.9701 19.1327 21.2632 18.116C19.5037 16.739 18.3611 14.5575 18.3611 12.1219Z" fill="#F3D869"/>
<path d="M33.592 12.122C33.592 16.3369 30.1816 19.7473 25.9667 19.7473C24.1875 19.7473 22.5563 19.1328 21.2632 18.1161C23.0425 16.7169 24.1653 14.5576 24.1653 12.122C24.1653 9.68634 23.0203 7.52461 21.2632 6.12787C22.5539 5.11117 24.185 4.4967 25.9643 4.4967C30.1816 4.4967 33.592 7.92931 33.592 12.122Z" fill="#E9C543" fill-opacity="0.33"/>
</svg>
