<svg width="16" height="9" viewBox="0 0 16 9" fill="none" xmlns="http://www.w3.org/2000/svg">
<path d="M3.86274 0.970703C2.65111 0.970703 2.04529 0.970704 1.76477 1.2103C1.52136 1.41819 1.39218 1.73004 1.4173 2.04916C1.44624 2.41694 1.87462 2.84532 2.73137 3.70207L6.86863 7.83933C7.26465 8.23535 7.46265 8.43336 7.69098 8.50755C7.89183 8.5728 8.10817 8.5728 8.30902 8.50755C8.53735 8.43336 8.73535 8.23535 9.13137 7.83933L13.2686 3.70207C14.1254 2.84532 14.5538 2.41694 14.5827 2.04916C14.6078 1.73004 14.4786 1.41819 14.2352 1.2103C13.9547 0.970703 13.3489 0.970703 12.1373 0.970703L3.86274 0.970703Z" fill="#575551"/>
</svg>
