<svg width="51" height="21" viewBox="0 0 51 21" fill="none" xmlns="http://www.w3.org/2000/svg">
<path fill-rule="evenodd" clip-rule="evenodd" d="M33.6666 16.7972C32.7369 17.0546 31.526 17.1619 30.4881 17.1619C27.7853 17.1619 26.0122 15.7675 26.0122 13.2147C26.0122 10.7906 27.6772 9.22458 30.0988 9.22458C30.6394 9.22458 31.2232 9.28894 31.5692 9.46056V5.94238H33.6666V16.7972ZM31.5692 11.2625C31.2449 11.1124 30.7908 11.0265 30.2718 11.0265C28.9962 11.0265 28.1529 11.7988 28.1529 13.1503C28.1529 14.5876 29.061 15.4028 30.5529 15.4028C30.8124 15.4028 31.2232 15.4028 31.5692 15.317V11.2625ZM50.9002 16.7972C49.9704 17.0546 48.7595 17.1619 47.7 17.1619C45.0187 17.1619 43.224 15.7675 43.224 13.2147C43.224 10.7906 44.889 9.22458 47.3108 9.22458C47.873 9.22458 48.4352 9.28894 48.7812 9.46056V5.94238H50.9002V16.7972ZM48.7812 11.2625C48.4568 11.1124 48.0243 11.0265 47.5054 11.0265C46.208 11.0265 45.3647 11.7988 45.3647 13.1503C45.3647 14.5876 46.2945 15.4028 47.7865 15.4028C48.046 15.4028 48.4352 15.4028 48.7812 15.317V11.2625ZM36.975 11.2625C37.3209 11.1124 37.8183 11.0695 38.2291 11.0695C39.5265 11.0695 40.413 11.7988 40.413 13.1074C40.413 14.652 39.4184 15.3599 38.0994 15.3813V17.1619H38.2075C40.932 17.1619 42.5537 15.6817 42.5537 13.0431C42.5537 10.6404 40.8239 9.22458 38.2724 9.22458C36.975 9.22458 35.6992 9.52491 34.8559 9.86812V20.0579H36.975V11.2625Z" fill="#3F3F42"/>
<path fill-rule="evenodd" clip-rule="evenodd" d="M18.2715 4.26855L18.6174 4.6547L18.812 4.54743L18.2715 4.26855Z" fill="#DC0032"/>
<path fill-rule="evenodd" clip-rule="evenodd" d="M17.7524 3.99023L18.4227 4.76252L18.6606 4.6338L18.4011 4.33347L17.7524 3.99023Z" fill="#DC0032"/>
<path fill-rule="evenodd" clip-rule="evenodd" d="M17.2114 3.71094L18.2277 4.86936L18.4655 4.74065L17.8817 4.05417L17.2114 3.71094Z" fill="#DC0032"/>
<path fill-rule="evenodd" clip-rule="evenodd" d="M16.6929 3.43164L18.0335 4.9762L18.2714 4.84749L17.3416 3.77488L16.6929 3.43164ZM19.266 6.15605L19.1146 6.24186L19.266 6.41348V6.15605Z" fill="#DC0032"/>
<path fill-rule="evenodd" clip-rule="evenodd" d="M16.1738 3.15332L17.8388 5.08403L18.0767 4.95531L16.8225 3.49656L16.1738 3.15332ZM19.1794 6.19952L18.9416 6.34968L19.2659 6.73582V6.32823L19.1794 6.19952Z" fill="#DC0032"/>
<path fill-rule="evenodd" clip-rule="evenodd" d="M15.6333 2.875L17.6442 5.19185L17.9037 5.06313L16.3036 3.21824L15.6333 2.875ZM18.9848 6.30734L18.747 6.4575L19.2659 7.05817V6.65057L18.9848 6.30734Z" fill="#DC0032"/>
<path fill-rule="evenodd" clip-rule="evenodd" d="M15.1143 2.5957L17.4712 5.29868L17.709 5.16997L15.7629 2.93893L15.1143 2.5957ZM18.7901 6.43563L18.5523 6.56434L19.2659 7.40098V6.99338L18.7901 6.43563Z" fill="#DC0032"/>
<path fill-rule="evenodd" clip-rule="evenodd" d="M14.5952 2.31738L17.2765 5.4065L17.5143 5.27779L15.2439 2.66062L14.5952 2.31738ZM18.5955 6.54344L18.3576 6.67216L19.2658 7.72332V7.31572L18.5955 6.54344Z" fill="#DC0032"/>
<path fill-rule="evenodd" clip-rule="evenodd" d="M14.0547 2.03809L17.0819 5.51334L17.3197 5.38463L14.725 2.38132L14.0547 2.03809ZM18.4009 6.65028L18.163 6.779L19.2658 8.04468V7.63709L18.4009 6.65028Z" fill="#DC0032"/>
<path fill-rule="evenodd" clip-rule="evenodd" d="M13.5356 1.75977L16.8872 5.64262L17.125 5.49245L14.1843 2.103L13.5356 1.75977ZM18.2062 6.75811L17.9683 6.88682L19.2657 8.38848V7.98089L18.2062 6.75811Z" fill="#DC0032"/>
<path fill-rule="evenodd" clip-rule="evenodd" d="M12.9951 1.48047L16.6926 5.74946L16.9305 5.59929L13.6654 1.8237L12.9951 1.48047ZM18.0333 6.86495L17.7738 6.99366L19.2657 8.70984V8.30225L18.0333 6.86495Z" fill="#DC0032"/>
<path fill-rule="evenodd" clip-rule="evenodd" d="M12.4761 1.20117L16.4979 5.85627L16.7574 5.70613L13.1464 1.54441L12.4761 1.20117ZM17.8386 6.97179L17.6007 7.1005L19.2657 9.05266V8.62361L17.8386 6.97179Z" fill="#DC0032"/>
<path fill-rule="evenodd" clip-rule="evenodd" d="M11.957 0.921875L16.3249 5.96311L16.5627 5.81294L12.6057 1.26511L11.957 0.921875ZM17.6439 7.07863L17.406 7.20734L19.2656 9.37402V8.96643L17.6439 7.07863Z" fill="#DC0032"/>
<path fill-rule="evenodd" clip-rule="evenodd" d="M11.4165 0.62207L16.1303 6.0709L16.3682 5.92073L12.0868 0.986756L11.4165 0.62207ZM17.4493 7.18642L17.2115 7.31513L19.2656 9.69631V9.28874L17.4493 7.18642Z" fill="#DC0032"/>
<path fill-rule="evenodd" clip-rule="evenodd" d="M10.8975 0.342773L15.9356 6.17774L16.1735 6.04903L11.5678 0.707459L10.8975 0.342773ZM17.2546 7.29326L17.0168 7.42197L19.2655 10.0391V9.61011L17.2546 7.29326Z" fill="#DC0032"/>
<path fill-rule="evenodd" clip-rule="evenodd" d="M10.3784 0.0859375L15.7409 6.28559L15.9787 6.15688L11.0271 0.429172L10.3784 0.0859375ZM17.0599 7.40111L16.822 7.52982L19.2654 10.3615V9.9539L17.0599 7.40111Z" fill="#DC0032"/>
<path fill-rule="evenodd" clip-rule="evenodd" d="M10.0327 0L15.5465 6.39272L15.7844 6.26401L10.5084 0.150165L10.3787 0.0858086C10.2706 0.0214521 10.1625 0 10.0327 0ZM16.8655 7.50824L16.6277 7.63696L19.2657 10.6832V10.2756L16.8655 7.50824Z" fill="#DC0032"/>
<path fill-rule="evenodd" clip-rule="evenodd" d="M10.0329 0C9.94642 0 9.85993 0.0214521 9.77344 0.0429043L15.3521 6.49999L15.6116 6.37127L10.0978 0C10.0762 0 10.0545 0 10.0329 0ZM16.6928 7.6155L16.4549 7.74422L19.2659 11.0264V10.5973L16.6928 7.6155Z" fill="#DC0032"/>
<path fill-rule="evenodd" clip-rule="evenodd" d="M9.83809 0.0214844C9.79484 0.0429365 9.72997 0.0643885 9.70835 0.0858408L9.57861 0.150197L15.1789 6.60728L15.4168 6.47857L9.83809 0.0214844ZM16.4979 7.7228L16.2601 7.87296L19.2657 11.3482V10.9406L16.4979 7.7228Z" fill="#DC0032"/>
<path fill-rule="evenodd" clip-rule="evenodd" d="M9.62213 0.107422L9.38428 0.236135L14.9846 6.71467L15.2224 6.58596L9.62213 0.107422ZM16.3036 7.83019L16.0657 7.98036L19.2659 11.6701V11.2625L16.3036 7.83019Z" fill="#DC0032"/>
<path fill-rule="evenodd" clip-rule="evenodd" d="M9.42731 0.214844L9.18945 0.343556L14.7898 6.82209L15.0276 6.69338L9.42731 0.214844ZM16.1088 7.93761L15.8709 8.08778L19.2657 12.0135V11.6059L16.1088 7.93761Z" fill="#DC0032"/>
<path fill-rule="evenodd" clip-rule="evenodd" d="M9.23248 0.321289L8.99463 0.450003L14.5949 6.92854L14.8328 6.79982L9.23248 0.321289ZM15.9139 8.04406L15.6761 8.19422L19.2655 12.3345V11.9269L15.9139 8.04406Z" fill="#DC0032"/>
<path fill-rule="evenodd" clip-rule="evenodd" d="M9.03815 0.428711L8.80029 0.557425L14.4006 7.03596L14.6385 6.90725L9.03815 0.428711ZM15.7196 8.15148L15.4818 8.30165L19.2658 12.6564V12.2488L15.7196 8.15148Z" fill="#DC0032"/>
<path fill-rule="evenodd" clip-rule="evenodd" d="M8.84381 0.536133L8.60596 0.664844L14.2063 7.14338L14.4441 7.01467L8.84381 0.536133ZM15.5469 8.2589L15.309 8.40907L19.266 12.9998V12.5922L15.5469 8.2589Z" fill="#DC0032"/>
<path fill-rule="evenodd" clip-rule="evenodd" d="M8.64899 0.62207L8.41113 0.772236L14.0331 7.25077L14.2709 7.12206L8.64899 0.62207ZM15.3521 8.38775L15.1142 8.51646L19.2658 13.3217V12.9141L15.3521 8.38775Z" fill="#DC0032"/>
<path fill-rule="evenodd" clip-rule="evenodd" d="M8.45416 0.729492L8.21631 0.858206L13.8383 7.3582L14.0761 7.22948L8.45416 0.729492ZM15.1572 8.49517L14.9194 8.62388L19.2656 13.6651V13.2361L15.1572 8.49517Z" fill="#DC0032"/>
<path fill-rule="evenodd" clip-rule="evenodd" d="M8.25983 0.836914L8.02197 0.965628L13.6439 7.48707L13.8818 7.3369L8.25983 0.836914ZM14.9629 8.60259L14.7251 8.7313L19.2659 13.9871V13.5795L14.9629 8.60259Z" fill="#DC0032"/>
<path fill-rule="evenodd" clip-rule="evenodd" d="M8.065 0.944336L7.82715 1.07305L13.4491 7.59449L13.687 7.44433L8.065 0.944336ZM14.7681 8.71001L14.5302 8.83873L19.2657 14.309V13.9014L14.7681 8.71001Z" fill="#DC0032"/>
<path fill-rule="evenodd" clip-rule="evenodd" d="M7.87067 1.05078L7.63281 1.17949L13.2548 7.70094L13.4926 7.55078L7.87067 1.05078ZM14.5738 8.81646L14.3359 8.94517L19.2659 14.6514V14.2224L14.5738 8.81646Z" fill="#DC0032"/>
<path fill-rule="evenodd" clip-rule="evenodd" d="M7.67584 1.1582L7.43799 1.28692L13.06 7.80836L13.2978 7.6582L7.67584 1.1582ZM14.4006 8.92388L14.1627 9.0526L19.2657 14.9734V14.5658L14.4006 8.92388Z" fill="#DC0032"/>
<path fill-rule="evenodd" clip-rule="evenodd" d="M7.48116 1.24414L7.22168 1.37285L12.8869 7.91575L13.1247 7.76559L7.48116 1.24414ZM14.2059 9.03127L13.968 9.15998L19.2656 15.2953V14.8877L14.2059 9.03127Z" fill="#DC0032"/>
<path fill-rule="evenodd" clip-rule="evenodd" d="M7.28682 1.35156L7.02734 1.48027L12.7142 8.04463C12.7358 8.00172 12.7574 7.98027 12.8007 7.95882L12.9304 7.87301L7.28682 1.35156ZM14.0116 9.1387L13.7737 9.26741L19.2227 15.5743C19.2443 15.51 19.2659 15.4456 19.2659 15.3813V15.2096L14.0116 9.1387Z" fill="#DC0032"/>
<path fill-rule="evenodd" clip-rule="evenodd" d="M7.092 1.45898L6.83252 1.5877L12.6491 8.30222V8.21641C12.6491 8.15205 12.6923 8.06624 12.7356 8.00189L7.092 1.45898ZM13.8167 9.24612L13.6438 9.35338C13.6221 9.35338 13.6005 9.37483 13.5789 9.37483L19.1143 15.789C19.1792 15.7032 19.2224 15.6174 19.2441 15.5316L13.8167 9.24612Z" fill="#DC0032"/>
<path fill-rule="evenodd" clip-rule="evenodd" d="M6.89763 1.56543L6.63818 1.69414L12.6493 8.64464V8.21559L6.89763 1.56543ZM13.2115 9.26675L18.9632 15.9384C19.0281 15.8955 19.0929 15.8096 19.1578 15.7453L13.6224 9.35256C13.5359 9.39547 13.4061 9.39547 13.3196 9.35256L13.2115 9.26675Z" fill="#DC0032"/>
<path fill-rule="evenodd" clip-rule="evenodd" d="M6.70281 1.67285L6.44336 1.80156L18.7684 16.0458L18.9414 15.96C18.963 15.9385 18.9846 15.9171 19.0062 15.8956L13.3411 9.35272H13.3194L12.8221 9.05239C12.7789 9.03094 12.7572 8.98804 12.714 8.94513C12.6707 8.88077 12.6707 8.83787 12.6491 8.79496V8.55899L6.70281 1.67285Z" fill="#DC0032"/>
<path fill-rule="evenodd" clip-rule="evenodd" d="M6.5085 1.78125L6.24902 1.90996L18.574 16.1542L18.8119 16.0255L6.5085 1.78125Z" fill="#DC0032"/>
<path fill-rule="evenodd" clip-rule="evenodd" d="M6.31368 1.86621L6.0542 1.99492L18.4008 16.2606L18.6387 16.1319L6.31368 1.86621Z" fill="#DC0032"/>
<path fill-rule="evenodd" clip-rule="evenodd" d="M6.11885 1.97363L5.85938 2.10235L18.206 16.368L18.4439 16.2393L6.11885 1.97363Z" fill="#DC0032"/>
<path fill-rule="evenodd" clip-rule="evenodd" d="M5.92452 2.08105L5.66504 2.20977L18.0117 16.4754L18.2496 16.3467L5.92452 2.08105Z" fill="#DC0032"/>
<path fill-rule="evenodd" clip-rule="evenodd" d="M5.70807 2.18848L5.47021 2.31719L17.8169 16.6043L18.0547 16.4542L5.70807 2.18848Z" fill="#DC0032"/>
<path fill-rule="evenodd" clip-rule="evenodd" d="M5.51373 2.2959L5.27588 2.42461L17.6226 16.7117L17.8604 16.5616L5.51373 2.2959Z" fill="#DC0032"/>
<path fill-rule="evenodd" clip-rule="evenodd" d="M5.31891 2.40234L5.08105 2.53105L17.4494 16.8182L17.6872 16.668L5.31891 2.40234Z" fill="#DC0032"/>
<path fill-rule="evenodd" clip-rule="evenodd" d="M5.12457 2.48828L4.88672 2.61699L17.255 16.9256L17.4929 16.7754L5.12457 2.48828Z" fill="#DC0032"/>
<path fill-rule="evenodd" clip-rule="evenodd" d="M4.92975 2.5957L4.69189 2.72442L17.0602 17.033L17.298 16.9043L4.92975 2.5957Z" fill="#DC0032"/>
<path fill-rule="evenodd" clip-rule="evenodd" d="M4.73541 2.70312L4.49756 2.83184L10.5087 9.78231L10.7033 9.91103C10.7898 9.95393 10.8763 10.0612 10.8763 10.1685V10.1899L16.8659 17.1404L17.1037 17.0117L4.73541 2.70312Z" fill="#DC0032"/>
<path fill-rule="evenodd" clip-rule="evenodd" d="M4.54059 2.81055L4.30273 2.93925L9.94632 9.48217L10.6599 9.86828L4.54059 2.81055ZM10.8545 10.1043C10.8545 10.1257 10.8761 10.1472 10.8761 10.1686V10.5333L16.671 17.2478L16.9089 17.1191L10.8545 10.1043Z" fill="#DC0032"/>
<path fill-rule="evenodd" clip-rule="evenodd" d="M4.34625 2.91797L4.1084 3.04668L9.38439 9.16055L10.098 9.5467L4.34625 2.91797ZM10.8764 10.4477V10.8553L16.4983 17.3553L16.7362 17.2266L10.8764 10.4477Z" fill="#DC0032"/>
<path fill-rule="evenodd" clip-rule="evenodd" d="M4.15143 3.02441L3.91357 3.15313L8.8436 8.83795L9.53554 9.2241L4.15143 3.02441ZM10.8761 10.7686V11.1977L16.3035 17.4617L16.5413 17.333L10.8761 10.7686Z" fill="#DC0032"/>
<path fill-rule="evenodd" clip-rule="evenodd" d="M3.9566 3.11035L3.71875 3.23907L8.28118 8.5163L8.97312 8.92389L3.9566 3.11035ZM10.8759 11.112V11.5196L16.1087 17.5691L16.3465 17.4404L10.8759 11.112Z" fill="#DC0032"/>
<path fill-rule="evenodd" clip-rule="evenodd" d="M3.76226 3.21777L3.52441 3.34649L7.71925 8.19468L8.41119 8.60227L3.76226 3.21777ZM10.8762 11.4339V11.8415L15.9143 17.6765L16.1522 17.5478L10.8762 11.4339Z" fill="#DC0032"/>
<path fill-rule="evenodd" clip-rule="evenodd" d="M3.56744 3.3252L3.32959 3.45391L7.15683 7.8945L7.84877 8.28064L3.56744 3.3252ZM10.876 11.7559V12.1849L15.7195 17.8054L15.9574 17.6552L10.876 11.7559Z" fill="#DC0032"/>
<path fill-rule="evenodd" clip-rule="evenodd" d="M3.3731 3.43164L3.13525 3.56035L6.59493 7.5719L7.28684 7.95805L3.3731 3.43164ZM10.8762 12.0983V12.5059L15.5468 17.9118L15.7846 17.7617L10.8762 12.0983Z" fill="#DC0032"/>
<path fill-rule="evenodd" clip-rule="evenodd" d="M3.17828 3.53906L2.94043 3.66778L6.03251 7.25028L6.74604 7.63642L3.17828 3.53906ZM10.876 12.4203V12.8278L15.352 18.0192L15.5898 17.8691L10.876 12.4203Z" fill="#DC0032"/>
<path fill-rule="evenodd" clip-rule="evenodd" d="M2.98394 3.64648L2.74609 3.7752L5.47058 6.92866L6.18414 7.33625L2.98394 3.64648ZM8.64914 10.597L9.21134 11.2405V11.0046C9.21134 10.9617 9.1681 10.8973 9.12485 10.8758L8.64914 10.597ZM10.8763 12.7422V13.1712L15.1576 18.1267L15.3955 17.9765L10.8763 12.7422Z" fill="#DB0032"/>
<path fill-rule="evenodd" clip-rule="evenodd" d="M2.78912 3.73242L2.55127 3.86114L4.90816 6.607L5.62173 7.01459L2.78912 3.73242ZM8.08672 10.2753L9.21112 11.5624V11.1549L8.80028 10.6829L8.08672 10.2753ZM10.8761 13.0856V13.4932L14.9628 18.2341L15.2006 18.1053L10.8761 13.0856Z" fill="#DC0032"/>
<path fill-rule="evenodd" clip-rule="evenodd" d="M2.5943 3.83984L2.35645 3.96856L4.36737 6.30683L5.05931 6.69297L2.5943 3.83984ZM7.52431 9.97514L9.2109 11.9058V11.4983L8.23787 10.3613L7.52431 9.97514ZM10.8759 13.4075V13.8151L14.768 18.3415L15.0058 18.2128L10.8759 13.4075Z" fill="#DC0032"/>
<path fill-rule="evenodd" clip-rule="evenodd" d="M2.39996 3.94727L2.16211 4.07598L3.80544 5.9852L4.49738 6.37135L2.39996 3.94727ZM6.984 9.65354L9.21117 12.2278V11.8202L7.67594 10.0397L6.984 9.65354ZM10.8761 13.7509V14.1585L14.5953 18.4489L14.8331 18.3202L10.8761 13.7509Z" fill="#DC0032"/>
<path fill-rule="evenodd" clip-rule="evenodd" d="M2.20514 4.05469L1.96729 4.1834L3.24304 5.66361L3.93496 6.04972L2.20514 4.05469ZM6.42161 9.33192L9.21096 12.5497V12.1421L7.11352 9.73949L6.42161 9.33192ZM10.8759 14.0728V14.4804L14.4005 18.5563L14.6383 18.4276L10.8759 14.0728Z" fill="#DC0032"/>
<path fill-rule="evenodd" clip-rule="evenodd" d="M2.0108 4.16211L1.77295 4.29082L2.68111 5.34198L3.37304 5.74958L2.0108 4.16211ZM5.85968 9.0103L9.21122 12.8931V12.4855L6.55162 9.41789L5.85968 9.0103ZM10.8762 14.3948V14.8024L14.2061 18.6637L14.4439 18.535L10.8762 14.3948Z" fill="#DC0032"/>
<path fill-rule="evenodd" clip-rule="evenodd" d="M1.81598 4.26855L1.57812 4.39727L2.1187 5.01939L2.83225 5.42698L1.81598 4.26855ZM5.29727 8.70915L9.21101 13.2141V12.8065L5.9892 9.09529L5.29727 8.70915ZM10.876 14.7372V15.1448L14.0113 18.7702L14.2491 18.6415L10.876 14.7372Z" fill="#DC0032"/>
<path fill-rule="evenodd" clip-rule="evenodd" d="M1.62178 4.35449L1.3623 4.48321L1.55691 4.71918L2.27046 5.10532L1.62178 4.35449ZM4.73547 8.38749L9.21142 13.5574V13.1284L5.44903 8.77363L4.73547 8.38749ZM10.8764 15.0591V15.4667L13.8171 18.899L14.0549 18.7489L10.8764 15.0591Z" fill="#DC0032"/>
<path fill-rule="evenodd" clip-rule="evenodd" d="M1.42675 4.46191L1.27539 4.54772L1.70785 4.7837L1.42675 4.46191ZM4.17285 8.06587L9.21099 13.8794V13.4718L4.88641 8.47346L4.17285 8.06587ZM10.8759 15.381V15.8101L13.6437 19.0064L13.8815 18.8563L10.8759 15.381Z" fill="#DC0032"/>
<path fill-rule="evenodd" clip-rule="evenodd" d="M3.63184 7.74414L9.21054 14.2012V13.7936L4.32376 8.15173L3.63184 7.74414ZM10.8755 15.7243V16.1319L13.4486 19.1138L13.6865 18.9636L10.8755 15.7243Z" fill="#DC0032"/>
<path fill-rule="evenodd" clip-rule="evenodd" d="M3.07031 7.44336L9.21122 14.544V14.115L3.76224 7.8295L3.07031 7.44336ZM10.8762 16.0457V16.4533L13.2547 19.2206L13.4926 19.0704L10.8762 16.0457Z" fill="#DC0032"/>
<path fill-rule="evenodd" clip-rule="evenodd" d="M2.5083 7.12207L9.2114 14.8663V14.4587L3.20023 7.50821L2.5083 7.12207ZM10.8763 16.368V16.797L13.0603 19.3283L13.2981 19.1996L10.8763 16.368Z" fill="#DC0032"/>
<path fill-rule="evenodd" clip-rule="evenodd" d="M1.9458 6.7998L9.2111 15.1876V14.78L2.63773 7.2074L1.9458 6.7998ZM10.876 16.7107V17.1183L12.8654 19.4351L13.1032 19.3064L10.876 16.7107Z" fill="#DB0032"/>
<path fill-rule="evenodd" clip-rule="evenodd" d="M1.38379 6.47852L9.21128 15.5313V15.1237L2.07572 6.88611L1.38379 6.47852ZM10.8762 17.033V17.4405L12.6926 19.5429L12.9304 19.4142L10.8762 17.033Z" fill="#DA0032"/>
<path fill-rule="evenodd" clip-rule="evenodd" d="M0.821777 6.17871L9.21146 15.8536V15.446L1.53533 6.56485L0.821777 6.17871ZM10.8764 17.3553V17.7843L12.4981 19.6507L12.736 19.5219L10.8764 17.3553Z" fill="#D90032"/>
<path fill-rule="evenodd" clip-rule="evenodd" d="M0.799805 6.15723V6.45756L9.21111 16.1754V15.7678L0.972788 6.24304L0.799805 6.15723ZM10.8761 17.6985V17.9559C10.8761 17.9988 10.8544 18.0417 10.8328 18.0632L12.3032 19.7579L12.541 19.6292L10.8761 17.6985Z" fill="#D80032"/>
<path fill-rule="evenodd" clip-rule="evenodd" d="M0.799805 6.37109V6.80014L9.21111 16.518V16.1104L0.799805 6.37109ZM10.8544 18.0196C10.8328 18.1054 10.7679 18.1912 10.7031 18.2127L10.6815 18.2341L12.1086 19.8645L12.3464 19.7358L10.8544 18.0196Z" fill="#D70032"/>
<path fill-rule="evenodd" clip-rule="evenodd" d="M0.799805 6.71484V7.12244L9.21111 16.8403V16.4327L0.799805 6.71484ZM10.7247 18.1917C10.7247 18.2132 10.7247 18.2132 10.7031 18.2132L10.4869 18.3419L11.914 19.9723L12.1518 19.8436L10.7247 18.1917Z" fill="#D60032"/>
<path fill-rule="evenodd" clip-rule="evenodd" d="M0.799805 7.03613V7.44373L9.21111 17.1616V16.754L0.799805 7.03613ZM10.5517 18.2985L10.2923 18.4487L11.741 20.1005L11.9788 19.9503L10.5517 18.2985Z" fill="#D50032"/>
<path fill-rule="evenodd" clip-rule="evenodd" d="M0.799805 7.37988V7.78748L9.21111 17.5053V17.0977L0.799805 7.37988ZM10.3571 18.4063L10.2058 18.4921C10.1625 18.5135 10.1193 18.5135 10.076 18.5135L11.5464 20.2083L11.7842 20.0581L10.3571 18.4063Z" fill="#D40032"/>
<path fill-rule="evenodd" clip-rule="evenodd" d="M0.799805 7.70117V8.10876L9.21111 17.8266V17.419L0.799805 7.70117ZM9.68682 18.4058L11.3518 20.315L11.5896 20.1649L10.1409 18.513C10.1193 18.513 10.076 18.5345 10.0544 18.5345H10.0328C9.96792 18.5345 9.92467 18.513 9.88143 18.4916L9.68682 18.4058Z" fill="#D30032"/>
<path fill-rule="evenodd" clip-rule="evenodd" d="M0.799805 8.02344V8.45248L11.1572 20.4228L11.395 20.2726L9.83818 18.4706L9.36247 18.2132C9.27598 18.1703 9.21111 18.063 9.21111 17.9558V17.7412L0.799805 8.02344Z" fill="#D20032"/>
<path fill-rule="evenodd" clip-rule="evenodd" d="M0.799805 8.36621V8.7738L10.9625 20.5296L11.2004 20.4009L0.799805 8.36621Z" fill="#D10032"/>
<path fill-rule="evenodd" clip-rule="evenodd" d="M0.799805 8.68848V9.09607L10.7679 20.6373L11.0058 20.5086L0.799805 8.68848Z" fill="#D00032"/>
<path fill-rule="evenodd" clip-rule="evenodd" d="M0.799805 9.00977V9.43881L10.595 20.7441L10.8328 20.6154L0.799805 9.00977Z" fill="#CF0032"/>
<path fill-rule="evenodd" clip-rule="evenodd" d="M0.799805 9.35352V9.76108L10.4004 20.8519L10.6382 20.7231L0.799805 9.35352Z" fill="#CE0032"/>
<path fill-rule="evenodd" clip-rule="evenodd" d="M0.799805 9.6748V10.0824L10.1841 20.9372C10.249 20.9157 10.3139 20.8943 10.3788 20.8728L10.4436 20.8299L0.799805 9.6748Z" fill="#CD0032"/>
<path fill-rule="evenodd" clip-rule="evenodd" d="M0.799805 9.99707V10.4261L9.90305 20.9377C9.9463 20.9377 9.98954 20.9377 10.0328 20.9377C10.0977 20.9377 10.1625 20.9377 10.2274 20.9162L0.799805 9.99707Z" fill="#CC0032"/>
<path fill-rule="evenodd" clip-rule="evenodd" d="M0.799805 10.3398V10.7474L9.40572 20.7012L9.70844 20.8729C9.77331 20.9158 9.88143 20.9372 9.96792 20.9372L0.799805 10.3398Z" fill="#CB0032"/>
<path fill-rule="evenodd" clip-rule="evenodd" d="M0.799805 10.6621V11.0697L8.84352 20.3799L9.55708 20.7875L0.799805 10.6621Z" fill="#CA0032"/>
<path fill-rule="evenodd" clip-rule="evenodd" d="M0.799805 11.0049V11.4125L8.28132 20.0577L8.99488 20.4653L0.799805 11.0049Z" fill="#C90032"/>
<path fill-rule="evenodd" clip-rule="evenodd" d="M0.799805 11.3271V11.7347L7.71912 19.7364L8.41106 20.144L0.799805 11.3271Z" fill="#C80033"/>
<path fill-rule="evenodd" clip-rule="evenodd" d="M0.799805 11.6484V12.056L7.15692 19.4141L7.84886 19.8217L0.799805 11.6484Z" fill="#C70033"/>
<path fill-rule="evenodd" clip-rule="evenodd" d="M0.799805 11.9912V12.3988L6.57313 19.0704L7.28666 19.478L0.799805 11.9912Z" fill="#C60033"/>
<path fill-rule="evenodd" clip-rule="evenodd" d="M0.799805 12.3135V12.7211L6.01093 18.7491L6.72446 19.1567L0.799805 12.3135Z" fill="#C50033"/>
<path fill-rule="evenodd" clip-rule="evenodd" d="M0.799805 12.6357V13.0433L5.44873 18.4278L6.16229 18.8354L0.799805 12.6357Z" fill="#C40033"/>
<path fill-rule="evenodd" clip-rule="evenodd" d="M0.799805 12.9785V13.3861L4.88653 18.1056L5.60009 18.5131L0.799805 12.9785Z" fill="#C30033"/>
<path fill-rule="evenodd" clip-rule="evenodd" d="M0.799805 13.2998V13.7074L4.32433 17.7833L5.03789 18.1909L0.799805 13.2998Z" fill="#C20033"/>
<path fill-rule="evenodd" clip-rule="evenodd" d="M0.799805 13.6221V14.0511L3.76213 17.462L4.45407 17.8696L0.799805 13.6221Z" fill="#C10033"/>
<path fill-rule="evenodd" clip-rule="evenodd" d="M0.799805 13.9658V14.3734L3.17832 17.1408L3.89187 17.5483L0.799805 13.9658Z" fill="#C00033"/>
<path fill-rule="evenodd" clip-rule="evenodd" d="M0.799805 14.2871V14.6947L2.61613 16.8185L3.32968 17.2046L0.799805 14.2871Z" fill="#BF0033"/>
<path fill-rule="evenodd" clip-rule="evenodd" d="M0.799805 14.6094V15.0384L2.05393 16.4757L2.76749 16.8833L0.799805 14.6094Z" fill="#BE0033"/>
<path fill-rule="evenodd" clip-rule="evenodd" d="M0.799805 14.9521V15.3597L1.49174 16.1535L2.20529 16.5611L0.799805 14.9521Z" fill="#BD0033"/>
<path fill-rule="evenodd" clip-rule="evenodd" d="M0.799805 15.2744V15.3817C0.799805 15.5962 0.951165 15.8536 1.12415 15.9609L1.6431 16.2398L0.799805 15.2744Z" fill="#BC0033"/>
<path fill-rule="evenodd" clip-rule="evenodd" d="M0.929688 15.7676C0.972933 15.8105 0.994556 15.8534 1.0378 15.8748L0.929688 15.7676Z" fill="#BB0033"/>
</svg>
