<svg width="30" height="31" viewBox="0 0 30 31" fill="none" xmlns="http://www.w3.org/2000/svg">
<path fill-rule="evenodd" clip-rule="evenodd" d="M14.142 3.55797C14.6952 3.35307 15.3048 3.35307 15.858 3.55797L24.4136 6.72799C24.8796 6.90059 25.2812 7.20965 25.5647 7.61385C25.8482 8.01804 26.0001 8.49811 26 8.98987V15.4664C26 17.4848 25.4312 19.4634 24.3573 21.1804C23.2833 22.8975 21.7466 24.2851 19.9194 25.1878L15.8201 27.213C15.5655 27.3388 15.2847 27.4043 15 27.4043C14.7153 27.4043 14.4345 27.3388 14.1799 27.213L10.0806 25.1878C8.25338 24.2851 6.71672 22.8975 5.64275 21.1804C4.56879 19.4634 3.99996 17.4848 4 15.4664V8.98987C3.99994 8.49811 4.1518 8.01804 4.4353 7.61385C4.71879 7.20965 5.1204 6.90059 5.58644 6.72799L14.142 3.55797ZM15 5.81985L6.44444 8.98987V15.4664C6.44473 17.0361 6.88737 18.5748 7.72278 19.91C8.5582 21.2452 9.75339 22.3242 11.1744 23.0261L15 24.9185V5.81985Z" fill="#A2CAF2"/>
</svg>
