<svg width="30" height="31" viewBox="0 0 30 31" fill="none" xmlns="http://www.w3.org/2000/svg">
<path fill-rule="evenodd" clip-rule="evenodd" d="M15 28.4043C18.4478 28.4043 21.7544 27.0347 24.1924 24.5967C26.6304 22.1587 28 18.8521 28 15.4043C28 11.9565 26.6304 8.64988 24.1924 6.21191C21.7544 3.77394 18.4478 2.4043 15 2.4043C11.5522 2.4043 8.24558 3.77394 5.80761 6.21191C3.36964 8.64988 2 11.9565 2 15.4043C2 18.8521 3.36964 22.1587 5.80761 24.5967C8.24558 27.0347 11.5522 28.4043 15 28.4043ZM10.0064 10.513C9.54325 11.2102 9.3125 11.8992 9.3125 12.5768C9.3125 12.9067 9.45875 13.2138 9.75125 13.4965C10.0437 13.7793 10.4013 13.919 10.8254 13.919C11.5452 13.919 12.0344 13.516 12.2928 12.7068C12.5658 11.9349 12.8989 11.3499 13.2937 10.9518C13.6886 10.5553 14.3012 10.357 15.1365 10.357C15.8499 10.357 16.4316 10.552 16.8834 10.9469C17.3335 11.3402 17.5594 11.8244 17.5594 12.3964C17.5613 12.6834 17.4849 12.9654 17.3384 13.2122C17.1894 13.4637 17.0055 13.6929 16.7924 13.893C16.4505 14.2057 16.0993 14.5081 15.7394 14.7998C15.1869 15.258 14.7465 15.6529 14.4199 15.986C14.0949 16.3192 13.8316 16.7059 13.635 17.1447C13.1117 19.1678 15.8287 19.3303 16.456 17.8857C16.5324 17.7459 16.6477 17.5932 16.8021 17.4242C16.9581 17.2568 17.1645 17.0618 17.4229 16.8392C18.0803 16.2916 18.7272 15.7314 19.3631 15.1589C19.7222 14.8274 20.0326 14.4309 20.2943 13.9727C20.564 13.4836 20.6996 12.932 20.6875 12.3737C20.6875 11.6018 20.4584 10.8868 19.9985 10.2287C19.5403 9.56892 18.8903 9.04892 18.0485 8.66542C17.2068 8.28355 16.2366 8.0918 15.1365 8.0918C13.9535 8.0918 12.9184 8.3193 12.0311 8.77917C11.1439 9.23742 10.4695 9.81592 10.0064 10.513ZM13.4839 22.018C13.4839 22.449 13.6551 22.8624 13.9598 23.1671C14.2646 23.4718 14.6779 23.643 15.1089 23.643C15.5399 23.643 15.9532 23.4718 16.2579 23.1671C16.5627 22.8624 16.7339 22.449 16.7339 22.018C16.7339 21.5871 16.5627 21.1737 16.2579 20.869C15.9532 20.5643 15.5399 20.393 15.1089 20.393C14.6779 20.393 14.2646 20.5643 13.9598 20.869C13.6551 21.1737 13.4839 21.5871 13.4839 22.018Z" fill="#A2CAF2"/>
</svg>
