<svg width="28" height="20" viewBox="0 0 28 20" fill="none" xmlns="http://www.w3.org/2000/svg">
<path fill-rule="evenodd" clip-rule="evenodd" d="M5 1.84993C5 1.62451 5.0862 1.40833 5.23964 1.24894C5.39308 1.08955 5.60119 1 5.81818 1H14.8182C15.0352 1 15.2433 1.08955 15.3967 1.24894C15.5502 1.40833 15.6364 1.62451 15.6364 1.84993V6.09957H18.9091C19.4463 6.09957 19.9783 6.20949 20.4746 6.42306C20.9709 6.63662 21.4219 6.94965 21.8018 7.34426C22.1817 7.73888 22.483 8.20736 22.6886 8.72295C22.8942 9.23854 23 9.79115 23 10.3492V13.7489C23.0001 14.2961 22.8308 14.8287 22.5171 15.2683C22.2035 15.7078 21.7621 16.0309 21.2581 16.1899C21.108 16.7041 20.8054 17.156 20.3935 17.4809C19.9816 17.8058 19.4813 17.9873 18.9642 17.9994C18.4471 18.0114 17.9395 17.8535 17.514 17.5481C17.0884 17.2427 16.7666 16.8054 16.5945 16.2987H11.4064C11.2342 16.8054 10.9124 17.2427 10.4869 17.5481C10.0613 17.8535 9.55372 18.0114 9.03661 17.9994C8.51949 17.9873 8.01926 17.8058 7.60732 17.4809C7.19538 17.156 6.89278 16.7041 6.74273 16.1899C6.2386 16.0311 5.79701 15.708 5.48319 15.2685C5.16937 14.8289 4.99997 14.2962 5 13.7489V10.3492H9.90909C10.1261 10.3492 10.3342 10.2597 10.4876 10.1003C10.6411 9.94088 10.7273 9.7247 10.7273 9.49929C10.7273 9.27387 10.6411 9.05769 10.4876 8.8983C10.3342 8.7389 10.1261 8.64936 9.90909 8.64936H5V6.9495H8.27273C8.48972 6.9495 8.69783 6.85996 8.85127 6.70056C9.00471 6.54117 9.09091 6.32499 9.09091 6.09957C9.09091 5.87416 9.00471 5.65797 8.85127 5.49858C8.69783 5.33919 8.48972 5.24964 8.27273 5.24964H5V1.84993ZM15.6364 14.5989H16.5945C16.7562 14.1233 17.0501 13.7082 17.439 13.4062C17.8278 13.1041 18.2942 12.9287 18.7791 12.902C19.2639 12.8754 19.7455 12.9987 20.1629 13.2564C20.5803 13.5141 20.9147 13.8946 21.1239 14.3498C21.2 14.271 21.2603 14.1773 21.3015 14.0742C21.3426 13.9711 21.3637 13.8606 21.3636 13.7489V10.3492C21.3636 9.67297 21.105 9.02442 20.6447 8.54624C20.1844 8.06807 19.5601 7.79943 18.9091 7.79943H15.6364V14.5989ZM9.90909 15.4488C9.90909 15.2234 9.82289 15.0072 9.66945 14.8478C9.51601 14.6884 9.3079 14.5989 9.09091 14.5989C8.87391 14.5989 8.66581 14.6884 8.51237 14.8478C8.35893 15.0072 8.27273 15.2234 8.27273 15.4488C8.27273 15.6742 8.35893 15.8904 8.51237 16.0498C8.66581 16.2092 8.87391 16.2987 9.09091 16.2987C9.3079 16.2987 9.51601 16.2092 9.66945 16.0498C9.82289 15.8904 9.90909 15.6742 9.90909 15.4488ZM18.3306 14.8479C18.2544 14.9266 18.194 15.0203 18.1529 15.1234C18.1117 15.2266 18.0907 15.3371 18.0909 15.4488C18.0909 15.6454 18.1565 15.836 18.2765 15.988C18.3966 16.1401 18.5637 16.2441 18.7493 16.2825C18.935 16.3209 19.1277 16.2913 19.2946 16.1986C19.4616 16.106 19.5925 15.956 19.6649 15.7744C19.7374 15.5927 19.747 15.3906 19.6921 15.2024C19.6372 15.0142 19.5211 14.8516 19.3638 14.7424C19.2064 14.6331 19.0174 14.5839 18.829 14.6031C18.6406 14.6224 18.4645 14.7089 18.3306 14.8479Z" fill="#A2CAF2"/>
</svg>
