<svg width="16" height="17" viewBox="0 0 16 17" fill="none" xmlns="http://www.w3.org/2000/svg">
<path d="M8 0.904297C6.41775 0.904297 4.87103 1.37349 3.55544 2.25254C2.23985 3.13159 1.21447 4.38102 0.608967 5.84283C0.00346627 7.30464 -0.15496 8.91317 0.153721 10.465C0.462403 12.0169 1.22433 13.4423 2.34315 14.5611C3.46197 15.68 4.88743 16.4419 6.43928 16.7506C7.99113 17.0593 9.59966 16.9008 11.0615 16.2953C12.5233 15.6898 13.7727 14.6644 14.6518 13.3489C15.5308 12.0333 16 10.4865 16 8.9043C16 6.78256 15.1571 4.74773 13.6569 3.24744C12.1566 1.74715 10.1217 0.904297 8 0.904297ZM6.85715 12.0986L4 9.24144L4.90857 8.33287L6.85715 10.2814L11.0914 6.04715L12.0034 6.95344L6.85715 12.0986Z" fill="#A2CAF2"/>
</svg>
