<svg width="43" height="27" viewBox="0 0 43 27" fill="none" xmlns="http://www.w3.org/2000/svg">
<rect x="1.30078" y="0.5" width="41" height="26" rx="6.5" fill="white" stroke="#A2CAF2"/>
<path d="M9.56285 9.5625L6.00781 17.4297H10.2637L10.7913 16.1753H11.9973L12.5249 17.4297H17.2094V16.4723L17.6268 17.4297H20.05L20.4675 16.4521V17.4297H30.21L31.3946 16.2079L32.5039 17.4297L37.5079 17.4398L33.9416 13.5181L37.5079 9.5625H32.5815L31.4283 10.7617L30.354 9.5625H19.7554L18.8453 11.5931L17.9138 9.5625H13.6668V10.4873L13.1944 9.5625H9.56285ZM10.3863 10.6796H12.4608L14.8189 16.0144V10.6796H17.0915L18.9128 14.5047L20.5913 10.6796H22.8525V16.3249H21.4766L21.4654 11.9013L19.4595 16.3249H18.2287L16.2116 11.9013V16.3249H13.3811L12.8445 15.0593H9.94535L9.40985 16.3238H7.8933L10.3863 10.6796ZM24.1113 10.6796H29.706L31.4171 12.528L33.1834 10.6796H34.8945L32.2946 13.5169L34.8945 16.3215H33.1058L31.3946 14.4517L29.6193 16.3215H24.1113V10.6796ZM11.3955 11.6348L10.4404 13.8893H12.3496L11.3955 11.6348ZM25.4929 11.8485V12.879H28.545V14.0276H25.4929V15.1527H28.9163L30.507 13.4956L28.9838 11.8475H25.4929V11.8485Z" fill="#A2CAF2"/>
</svg>
