<svg width="60" height="61" viewBox="0 0 60 61" fill="none" xmlns="http://www.w3.org/2000/svg">
<rect y="0.600098" width="60" height="60" rx="8" fill="url(#paint0_linear_529_1495)"/>
<mask id="mask0_529_1495" style="mask-type:luminance" maskUnits="userSpaceOnUse" x="21" y="33" width="18" height="12">
<path d="M29.5103 34.0898L21.1844 43.7638C21.1035 43.8356 21.0468 43.9304 21.0219 44.0356C20.997 44.1407 21.0052 44.2509 21.0453 44.3513C21.0853 44.4516 21.1554 44.5371 21.2458 44.5962C21.3363 44.6552 21.4428 44.6849 21.5508 44.6812H38.3873C38.4945 44.6829 38.5998 44.6535 38.6906 44.5966C38.7814 44.5397 38.8539 44.4577 38.8991 44.3606C38.9444 44.2634 38.9605 44.1553 38.9456 44.0491C38.9307 43.943 38.8855 43.8434 38.8152 43.7625L30.4892 34.0885C30.3624 33.9486 30.1878 33.8613 29.9998 33.8438C29.8203 33.8876 29.6531 33.9712 29.5103 34.0885" fill="white"/>
</mask>
<g mask="url(#mask0_529_1495)">
<path d="M42.8561 29.9871H17.0811V48.5996H42.8561V29.9871Z" fill="white"/>
</g>
<mask id="mask1_529_1495" style="mask-type:luminance" maskUnits="userSpaceOnUse" x="15" y="16" width="30" height="26">
<path d="M23.7545 30.5995C23.7461 31.4941 23.9336 32.3797 24.3039 33.1941C24.6743 34.0085 25.2185 34.7319 25.8982 35.3135C25.968 35.3889 26.0509 35.451 26.143 35.4967C26.1769 35.5263 26.2203 35.5426 26.2653 35.5426C26.3103 35.5426 26.3538 35.5263 26.3877 35.4967C26.4492 35.4352 26.5107 35.3737 26.5107 35.3135C26.817 34.9457 27.0002 34.701 27.1847 34.5178C27.1989 34.5071 27.2104 34.4933 27.2183 34.4774C27.2262 34.4615 27.2303 34.444 27.2303 34.4262C27.2303 34.4085 27.2262 34.391 27.2183 34.3751C27.2104 34.3592 27.1989 34.3453 27.1847 34.3346C26.4053 33.7339 25.8335 32.9042 25.5494 31.9621C25.2653 31.0199 25.2831 30.0124 25.6005 29.0809C25.9178 28.1494 26.5187 27.3406 27.3189 26.7679C28.1191 26.1951 29.0785 25.8871 30.0626 25.8871C31.0467 25.8871 32.0061 26.1951 32.8063 26.7679C33.6065 27.3406 34.2074 28.1494 34.5247 29.0809C34.8421 30.0124 34.8599 31.0199 34.5758 31.9621C34.2917 32.9042 33.7199 33.7339 32.9405 34.3346C32.9263 34.3453 32.9148 34.3592 32.9069 34.3751C32.899 34.391 32.8949 34.4085 32.8949 34.4262C32.8949 34.444 32.899 34.4615 32.9069 34.4774C32.9148 34.4933 32.9263 34.5071 32.9405 34.5178C33.2467 34.8856 33.4299 35.1303 33.6145 35.3135C33.676 35.375 33.676 35.4366 33.7375 35.4967C33.799 35.5569 33.8606 35.5582 33.9822 35.4967C34.0743 35.451 34.1572 35.3889 34.227 35.3135C34.8953 34.7226 35.4314 33.9973 35.8001 33.185C36.1688 32.3727 36.3618 31.4916 36.3666 30.5995C36.3597 28.9453 35.6996 27.3608 34.5298 26.1911C33.3601 25.0214 31.7756 24.3612 30.1214 24.3544C26.6926 24.3544 23.7545 27.1707 23.7545 30.5995ZM19.8363 30.5995C19.8361 32.0953 20.1652 33.5727 20.8 34.9271C21.4349 36.2814 22.3601 37.4794 23.5098 38.4361L23.5713 38.4976C23.6052 38.5272 23.6487 38.5436 23.6937 38.5436C23.7387 38.5436 23.7822 38.5272 23.8161 38.4976V38.4361C24.1223 38.0683 24.3629 37.8236 24.4901 37.6404C24.4901 37.5789 24.5516 37.5789 24.6131 37.5174C24.6273 37.5067 24.6388 37.4928 24.6467 37.4769C24.6546 37.461 24.6587 37.4435 24.6587 37.4258C24.6587 37.408 24.6546 37.3905 24.6467 37.3746C24.6388 37.3587 24.6273 37.3449 24.6131 37.3342L24.5516 37.2726C23.1847 36.1391 22.2006 34.6116 21.7336 32.8983C21.2666 31.1851 21.3393 29.3695 21.9418 27.6991C22.5443 26.0286 23.6473 24.5847 25.1005 23.564C26.5536 22.5434 28.2862 21.9957 30.0619 21.9957C31.8377 21.9957 33.5702 22.5434 35.0234 23.564C36.4765 24.5847 37.5796 26.0286 38.1821 27.6991C38.7846 29.3695 38.8573 31.1851 38.3902 32.8983C37.9232 34.6116 36.9392 36.1391 35.5723 37.2726L35.4492 37.3957C35.435 37.4064 35.4236 37.4202 35.4157 37.4361C35.4077 37.452 35.4036 37.4695 35.4036 37.4873C35.4036 37.505 35.4077 37.5226 35.4157 37.5384C35.4236 37.5543 35.435 37.5682 35.4492 37.5789C35.5107 37.6404 35.5107 37.7019 35.5723 37.7019C35.7555 37.8851 35.94 38.1914 36.2463 38.4976L36.3078 38.5591C36.3185 38.5733 36.3323 38.5848 36.3482 38.5927C36.3641 38.6006 36.3816 38.6047 36.3994 38.6047C36.4171 38.6047 36.4346 38.6006 36.4505 38.5927C36.4664 38.5848 36.4803 38.5733 36.491 38.5591C36.4991 38.5593 36.5072 38.5579 36.5147 38.5548C36.5223 38.5518 36.5291 38.5473 36.5349 38.5415C36.5406 38.5358 36.5452 38.5289 36.5482 38.5214C36.5512 38.5138 36.5527 38.5057 36.5525 38.4976C37.7123 37.5496 38.6444 36.3533 39.2802 34.997C39.916 33.6407 40.2393 32.159 40.2261 30.6611C40.2293 29.3255 39.9686 28.0024 39.459 26.7678C38.9494 25.5333 38.2009 24.4116 37.2565 23.4672C36.3121 22.5228 35.1904 21.7743 33.9558 21.2647C32.7213 20.755 31.3982 20.4944 30.0626 20.4976C24.4299 20.4976 19.8376 24.9669 19.8376 30.5995M15.918 30.5995C15.9142 32.6538 16.3619 34.6838 17.2294 36.5459C18.0969 38.4081 19.3631 40.0568 20.9382 41.3755C20.9463 41.3753 20.9544 41.3768 20.962 41.3798C20.9695 41.3828 20.9764 41.3873 20.9821 41.3931C20.9879 41.3988 20.9924 41.4057 20.9954 41.4132C20.9984 41.4208 20.9999 41.4289 20.9997 41.437C21.0336 41.4666 21.0771 41.4829 21.1221 41.4829C21.1671 41.4829 21.2106 41.4666 21.2444 41.437L21.306 41.3755C21.6122 41.0077 21.8528 40.7015 22.0401 40.5183C22.0399 40.5101 22.0414 40.5021 22.0444 40.4945C22.0475 40.487 22.052 40.4801 22.0577 40.4744C22.0635 40.4686 22.0703 40.4641 22.0779 40.4611C22.0854 40.458 22.0935 40.4566 22.1016 40.4568C22.1313 40.4229 22.1476 40.3794 22.1476 40.3344C22.1476 40.2894 22.1313 40.2459 22.1016 40.212C22.0935 40.2122 22.0854 40.2108 22.0779 40.2077C22.0703 40.2047 22.0635 40.2002 22.0577 40.1944C22.052 40.1887 22.0475 40.1818 22.0444 40.1743C22.0414 40.1667 22.0399 40.1586 22.0401 40.1505C20.614 39.0029 19.4657 37.5477 18.6812 35.8938C17.8966 34.2399 17.496 32.4301 17.5094 30.5995C17.507 28.4949 18.0364 26.4237 19.0486 24.5785C20.0607 22.7332 21.5228 21.1735 23.2989 20.0444C25.0751 18.9153 27.1077 18.2534 29.2082 18.12C31.3086 17.9866 33.4087 18.3861 35.3134 19.2815C37.2181 20.1769 38.8656 21.539 40.1031 23.2415C41.3405 24.9439 42.1277 26.9315 42.3915 29.0195C42.6554 31.1076 42.3873 33.2284 41.6122 35.1852C40.8371 37.1419 39.5801 38.871 37.9579 40.212L37.8964 40.2736C37.8823 40.2843 37.8708 40.2981 37.8629 40.314C37.855 40.3299 37.8508 40.3474 37.8508 40.3652C37.8508 40.3829 37.855 40.4004 37.8629 40.4163C37.8708 40.4322 37.8823 40.4461 37.8964 40.4568L37.9579 40.5183C38.2003 40.8436 38.4662 41.1507 38.7536 41.437C38.7643 41.4512 38.7782 41.4627 38.7941 41.4706C38.81 41.4785 38.8275 41.4826 38.8452 41.4826C38.863 41.4826 38.8805 41.4785 38.8964 41.4706C38.9123 41.4627 38.9261 41.4512 38.9368 41.437C40.5512 40.1311 41.8515 38.4793 42.742 36.6035C43.6324 34.7277 44.0902 32.6759 44.0814 30.5995C44.0814 26.8648 42.5978 23.2831 39.957 20.6423C37.3162 18.0014 33.7344 16.5178 29.9997 16.5178C26.265 16.5178 22.6833 18.0014 20.0424 20.6423C17.4016 23.2831 15.918 26.8648 15.918 30.5995Z" fill="white"/>
</mask>
<g mask="url(#mask1_529_1495)">
<path d="M48 12.5996H12V45.4155H48V12.5996Z" fill="white"/>
</g>
<defs>
<linearGradient id="paint0_linear_529_1495" x1="30" y1="0.600124" x2="30" y2="60.6006" gradientUnits="userSpaceOnUse">
<stop stop-color="#1D6FF2"/>
<stop offset="1" stop-color="#1AC8FC"/>
</linearGradient>
</defs>
</svg>
