<svg width="43" height="28" viewBox="0 0 43 28" fill="none" xmlns="http://www.w3.org/2000/svg">
<rect x="0.900391" y="1.1001" width="41" height="26" rx="6.5" fill="#1D1B1B" stroke="#9B9B9B"/>
<path d="M20.9976 13.9942V17.8291H19.7607V8.34485H22.9776C23.7607 8.34485 24.5026 8.63295 25.0807 9.1692C25.6582 9.66356 25.947 10.4061 25.947 11.1898C25.947 11.9736 25.6588 12.6742 25.0807 13.2104C24.5032 13.7467 23.8026 14.0348 22.9776 14.0348L20.9976 13.9942ZM20.9976 9.4992V12.7986H23.0601C23.5138 12.7986 23.9676 12.6329 24.2563 12.3042C24.9163 11.6861 24.9163 10.6548 24.297 10.0361L24.2563 9.9942C23.9263 9.6642 23.5138 9.45795 23.0601 9.49985H20.9976V9.4992Z" fill="#9B9B9B"/>
<path d="M28.7922 11.1495C29.6997 11.1495 30.4003 11.3964 30.9366 11.892C31.4728 12.3864 31.7197 13.0464 31.7197 13.8714V17.8307H30.5653V16.9232H30.5247C30.0304 17.6657 29.3285 18.037 28.5041 18.037C27.8035 18.037 27.1841 17.8307 26.6898 17.4189C26.236 17.0064 25.9473 16.4289 25.9473 15.8108C25.9473 15.1508 26.1948 14.6158 26.6898 14.2027C27.1841 13.7902 27.8847 13.6252 28.7104 13.6252C29.4529 13.6252 30.0304 13.7489 30.4835 14.0377V13.7496C30.4835 13.3371 30.3191 12.9252 29.9891 12.6771C29.6591 12.389 29.2466 12.2233 28.7929 12.2233C28.0923 12.2233 27.556 12.5114 27.1848 13.0896L26.1123 12.4296C26.7716 11.5614 27.6379 11.1495 28.7922 11.1495ZM27.2254 15.8501C27.2254 16.1801 27.3897 16.4682 27.6379 16.6332C27.926 16.8395 28.256 16.9632 28.586 16.9632C29.0803 16.9632 29.576 16.757 29.9466 16.3864C30.3591 16.0145 30.5647 15.562 30.5647 15.0664C30.1941 14.7782 29.6572 14.6126 28.9566 14.6126C28.4622 14.6126 28.0491 14.7364 27.7197 14.9832C27.3897 15.1901 27.2254 15.4789 27.2254 15.8501Z" fill="#9B9B9B"/>
<path d="M38.4001 11.355L34.3183 20.7149H33.0801L34.6064 17.4574L31.9258 11.3956H33.2458L35.1832 16.0549H35.2245L37.1213 11.3956H38.4001V11.355Z" fill="#9B9B9B"/>
<path d="M16.0923 13.1697C16.0923 12.7978 16.0504 12.4272 16.0098 12.0559H10.8555V14.159H13.7829C13.6592 14.819 13.2886 15.4371 12.7104 15.8084V17.169H14.4835C15.5141 16.2209 16.0923 14.8184 16.0923 13.1697Z" fill="#9B9B9B"/>
<path d="M10.8538 18.4886C12.3382 18.4886 13.5751 17.9943 14.4832 17.1686L12.7101 15.808C12.2157 16.138 11.5963 16.3443 10.8551 16.3443C9.45264 16.3443 8.21578 15.3962 7.80393 14.0762H5.98828V15.4787C6.93639 17.3343 8.79264 18.4886 10.8538 18.4886Z" fill="#C8C8C8"/>
<path d="M7.80256 14.0771C7.55506 13.4171 7.55506 12.6746 7.80256 11.974V10.5715H5.9882C5.20445 12.0978 5.20445 13.9121 5.9882 15.479L7.80256 14.0771Z" fill="#9B9B9B"/>
<path d="M10.8536 9.74676C11.6374 9.74676 12.3799 10.0349 12.9567 10.5711L14.5242 9.00426C13.5342 8.09741 12.2149 7.56116 10.8949 7.60176C8.83236 7.60176 6.9368 8.75612 6.0293 10.6124L7.84365 12.0136C8.2149 10.6955 9.45176 9.74676 10.8536 9.74676Z" fill="#C8C8C8"/>
</svg>
