<svg width="43" height="27" viewBox="0 0 43 27" fill="none" xmlns="http://www.w3.org/2000/svg">
<rect x="0.900391" y="0.5" width="41" height="26" rx="6.5" fill="#1D1B1B" stroke="#9B9B9B"/>
<path d="M20.9976 13.3939V17.2289H19.7607V7.74463H22.9776C23.7607 7.74463 24.5026 8.03273 25.0807 8.56898C25.6582 9.06334 25.947 9.80584 25.947 10.5896C25.947 11.3733 25.6588 12.0739 25.0807 12.6102C24.5032 13.1464 23.8026 13.4345 22.9776 13.4345L20.9976 13.3939ZM20.9976 8.89898V12.1983H23.0601C23.5138 12.1983 23.9676 12.0327 24.2563 11.704C24.9163 11.0859 24.9163 10.0546 24.297 9.43588L24.2563 9.39398C23.9263 9.06398 23.5138 8.85773 23.0601 8.89963H20.9976V8.89898Z" fill="#9B9B9B"/>
<path d="M28.7922 10.5493C29.6997 10.5493 30.4003 10.7962 30.9366 11.2918C31.4728 11.7862 31.7197 12.4462 31.7197 13.2712V17.2305H30.5653V16.323H30.5247C30.0304 17.0655 29.3285 17.4368 28.5041 17.4368C27.8035 17.4368 27.1841 17.2305 26.6898 16.8187C26.236 16.4062 25.9473 15.8287 25.9473 15.2106C25.9473 14.5506 26.1948 14.0156 26.6898 13.6025C27.1841 13.19 27.8847 13.025 28.7104 13.025C29.4529 13.025 30.0304 13.1487 30.4835 13.4375V13.1494C30.4835 12.7369 30.3191 12.325 29.9891 12.0769C29.6591 11.7887 29.2466 11.6231 28.7929 11.6231C28.0923 11.6231 27.556 11.9112 27.1848 12.4894L26.1123 11.8294C26.7716 10.9612 27.6379 10.5493 28.7922 10.5493ZM27.2254 15.2499C27.2254 15.5799 27.3897 15.868 27.6379 16.033C27.926 16.2392 28.256 16.363 28.586 16.363C29.0803 16.363 29.576 16.1567 29.9466 15.7861C30.3591 15.4142 30.5647 14.9618 30.5647 14.4661C30.1941 14.178 29.6572 14.0124 28.9566 14.0124C28.4622 14.0124 28.0491 14.1361 27.7197 14.383C27.3897 14.5899 27.2254 14.8786 27.2254 15.2499Z" fill="#9B9B9B"/>
<path d="M38.4001 10.7549L34.3183 20.1148H33.0801L34.6064 16.8573L31.9258 10.7955H33.2458L35.1832 15.4548H35.2245L37.1213 10.7955H38.4001V10.7549Z" fill="#9B9B9B"/>
<path d="M16.0923 12.5698C16.0923 12.1979 16.0504 11.8273 16.0098 11.4561H10.8555V13.5592H13.7829C13.6592 14.2192 13.2886 14.8373 12.7104 15.2085V16.5691H14.4835C15.5141 15.621 16.0923 14.2185 16.0923 12.5698Z" fill="#9B9B9B"/>
<path d="M10.8538 17.8885C12.3382 17.8885 13.5751 17.3942 14.4832 16.5685L12.7101 15.2079C12.2157 15.5379 11.5963 15.7442 10.8551 15.7442C9.45264 15.7442 8.21578 14.7961 7.80393 13.4761H5.98828V14.8786C6.93639 16.7342 8.79264 17.8885 10.8538 17.8885Z" fill="#C8C8C8"/>
<path d="M7.80256 13.4768C7.55506 12.8168 7.55506 12.0743 7.80256 11.3737V9.97119H5.9882C5.20445 11.4974 5.20445 13.3118 5.9882 14.8787L7.80256 13.4768Z" fill="#9B9B9B"/>
<path d="M10.8536 9.14666C11.6374 9.14666 12.3799 9.43477 12.9567 9.97102L14.5242 8.40416C13.5342 7.49731 12.2149 6.96106 10.8949 7.00166C8.83236 7.00166 6.9368 8.15602 6.0293 10.0123L7.84365 11.4135C8.2149 10.0954 9.45176 9.14666 10.8536 9.14666Z" fill="#C8C8C8"/>
</svg>
