<svg width="79" height="12" viewBox="0 0 79 12" fill="none" xmlns="http://www.w3.org/2000/svg">
<path d="M13.893 0.713867L11.3691 4.14322H25.1247C25.8203 4.14322 25.8116 4.40515 25.4716 4.86829C25.1264 5.33664 24.5488 6.14671 24.1967 6.62373C24.018 6.86484 23.6954 7.3037 24.7639 7.3037H30.3893L32.0563 5.03829C33.0901 3.63497 32.1465 0.715601 28.45 0.715601L13.893 0.713867Z" fill="white"/>
<path d="M10.347 11.8866L15.4173 4.99665H21.7088C22.4044 4.99665 22.3957 5.26032 22.0557 5.72173L20.7721 7.47023C20.5935 7.71134 20.2708 8.1502 21.3394 8.1502H29.7662C29.0671 9.11118 26.7913 11.8866 22.7114 11.8866H10.347ZM39.3812 8.14847L36.6318 11.8866H29.3793L32.1287 8.14847H39.3812ZM50.4897 7.30197H32.7532L37.6032 0.713867H44.8522L42.0733 4.49188H45.3084L48.0907 0.713867H55.3397L50.4897 7.30197ZM49.867 8.14847L47.1176 11.8866H39.8686L42.618 8.14847H49.867ZM0 9.6229H10.6818L10.099 10.4156H0V9.6229ZM0 8.14847H11.7677L11.1831 8.94119H0V8.14847ZM0 11.0973H9.59768L9.01658 11.8866H0V11.0973ZM79 10.4156H68.3564L68.9409 9.6229H79V10.4156ZM79 11.8866H67.2757L67.855 11.0973H79V11.8866ZM70.0251 8.14847H79V8.94292H69.4422L70.0251 8.14847ZM65.3797 0.713867L60.5297 7.30197H52.8471L57.7006 0.713867H65.3797ZM52.2261 8.14847C52.2261 8.14847 51.697 8.87354 51.4386 9.22046C50.5296 10.452 51.3327 11.8848 54.3042 11.8848H65.947L68.6963 8.14847H52.2261Z" fill="white"/>
</svg>
