<svg width="25" height="24" viewBox="0 0 25 24" fill="none" xmlns="http://www.w3.org/2000/svg">
<path fill-rule="evenodd" clip-rule="evenodd" d="M12.5 1.00195C11.9742 1.00195 11.4577 1.14014 11.0021 1.40264L7.80617 3.22891C7.59614 3.2705 7.40022 3.37899 7.25269 3.54518L4.00386 5.40166L4.00386 5.40165L4 5.40388C3.62992 5.61754 3.31077 5.90721 3.06288 6.25254C3.00262 6.31285 2.94913 6.38193 2.90441 6.45924C2.86589 6.52583 2.83591 6.59501 2.81412 6.66552C2.60836 7.07904 2.50048 7.53531 2.5 7.99888V7.9999V15.9999V16.0009C2.50054 16.527 2.63941 17.0437 2.90269 17.4992C3.16597 17.9547 3.54439 18.3329 4 18.5959L4.00386 18.5981L11 22.5959L11.0019 22.597C11.319 22.7798 11.6657 22.9023 12.0245 22.9599C12.1659 23.0365 12.3279 23.08 12.5 23.08C12.6721 23.08 12.8341 23.0365 12.9755 22.9599C13.3343 22.9023 13.6811 22.7798 13.9982 22.597L14 22.5959L20.9961 18.5981L21 18.5959C21.4556 18.3329 21.834 17.9547 22.0973 17.4992C22.3606 17.0437 22.4995 16.527 22.5 16.0009V15.9999V7.9999V7.99888C22.4995 7.53539 22.3917 7.07918 22.186 6.66572C22.1642 6.59514 22.1342 6.52589 22.0956 6.45924C22.0509 6.38187 21.9973 6.31275 21.937 6.2524C21.6891 5.90713 21.37 5.61751 21 5.40387L20.9961 5.40166L14 1.40388L13.9979 1.40267C13.5424 1.14015 13.0258 1.00195 12.5 1.00195ZM13.5 20.5782L20 16.8639L20.0016 16.863C20.1527 16.7753 20.2783 16.6496 20.3658 16.4983C20.4535 16.3465 20.4998 16.1742 20.5 15.9989V8.53751L13.5 12.5868V20.5782ZM11.5 12.5867L4.5 8.53749V15.9993C4.50026 16.1745 4.54654 16.3466 4.63423 16.4983C4.72169 16.6496 4.84726 16.7753 4.99842 16.863L5 16.8639L11.5 20.5782V12.5867ZM13.0039 3.13815L19.4611 6.82797L17.0052 8.24861L10.0608 4.24402L11.9961 3.13815L11.9961 3.13815L12 3.13593C12.152 3.04816 12.3245 3.00195 12.5 3.00195C12.6755 3.00195 12.848 3.04816 13 3.13593L13 3.13594L13.0039 3.13815ZM12.5 10.8547L15.0065 9.40476L8.04993 5.39311L5.53894 6.82796L12.5 10.8547Z" fill="url(#paint0_linear_499_4364)"/>
<defs>
<linearGradient id="paint0_linear_499_4364" x1="12.5" y1="1.00196" x2="12.5" y2="23.0802" gradientUnits="userSpaceOnUse">
<stop stop-color="#1D6FF2"/>
<stop offset="1" stop-color="#1AC8FC"/>
</linearGradient>
</defs>
</svg>
