<svg width="25" height="24" viewBox="0 0 25 24" fill="none" xmlns="http://www.w3.org/2000/svg">
<g clip-path="url(#clip0_499_4367)">
<path fill-rule="evenodd" clip-rule="evenodd" d="M1.5 2C0.947715 2 0.5 2.44772 0.5 3V16C0.5 16.5523 0.947715 17 1.5 17H2.83682C2.62085 17.4546 2.5 17.9632 2.5 18.5C2.5 20.433 4.067 22 6 22C7.933 22 9.5 20.433 9.5 18.5C9.5 17.9632 9.37915 17.4546 9.16318 17H15.8368C15.6208 17.4546 15.5 17.9632 15.5 18.5C15.5 20.433 17.067 22 19 22C20.933 22 22.5 20.433 22.5 18.5C22.5 17.9632 22.3792 17.4546 22.1632 17H23.5C24.0523 17 24.5 16.5523 24.5 16V11C24.5 10.7348 24.3946 10.4804 24.2071 10.2929L21.2071 7.29289C21.0196 7.10536 20.7652 7 20.5 7H17.5V3C17.5 2.44772 17.0523 2 16.5 2H1.5ZM19 15H22.5V11.4142L20.0858 9H17.5V15H19ZM19 17C18.1716 17 17.5 17.6716 17.5 18.5C17.5 19.3284 18.1716 20 19 20C19.8284 20 20.5 19.3284 20.5 18.5C20.5 17.6716 19.8284 17 19 17ZM4.5 18.5C4.5 17.6716 5.17157 17 6 17C6.82843 17 7.5 17.6716 7.5 18.5C7.5 19.3284 6.82843 20 6 20C5.17157 20 4.5 19.3284 4.5 18.5ZM15.5 15H6H2.5V4H15.5V8V15Z" fill="url(#paint0_linear_499_4367)"/>
</g>
<defs>
<linearGradient id="paint0_linear_499_4367" x1="12.5" y1="2.00001" x2="12.5" y2="22.0002" gradientUnits="userSpaceOnUse">
<stop stop-color="#1D6FF2"/>
<stop offset="1" stop-color="#1AC8FC"/>
</linearGradient>
<clipPath id="clip0_499_4367">
<rect width="24" height="24" fill="white" transform="translate(0.5)"/>
</clipPath>
</defs>
</svg>
