<svg width="93" height="24" viewBox="0 0 93 24" fill="none" xmlns="http://www.w3.org/2000/svg">
<g clip-path="url(#clip0_499_6948)">
<path d="M0.533203 18.0386L0.533205 6.63135L6.2368 9.80003V14.9016L10.7997 17.4682L15.3626 14.9016V9.80003L21.0662 6.63135V18.0386L10.7997 23.7422L0.533203 18.0386Z" fill="black"/>
<path fill-rule="evenodd" clip-rule="evenodd" d="M3.38501 8.21571L0.533203 6.63135L10.7997 0.927734L21.0662 6.63135L18.2144 8.21571V16.6127L10.7997 20.8904L3.38501 16.6127L3.38501 8.21571ZM17.9055 8.38735L15.3626 9.80003V9.76834L10.7997 7.20169L6.2368 9.76834V9.80003L3.69396 8.38735V16.4372L10.7997 20.5367L17.9055 16.4372V8.38735Z" fill="url(#paint0_linear_499_6948)"/>
<path d="M31.1068 17.5778L29.0679 13.8771H28.4954V17.5778H26.1074V7.77459H30.1153C30.888 7.77459 31.5443 7.90958 32.0843 8.17957C32.6336 8.44955 33.0432 8.82194 33.3132 9.29674C33.5832 9.76223 33.7182 10.2836 33.7182 10.8608C33.7182 11.5125 33.532 12.0943 33.1596 12.6064C32.7965 13.1184 32.2565 13.4815 31.5397 13.6956L33.8019 17.5778H31.1068ZM28.4954 12.1874H29.9756C30.4132 12.1874 30.739 12.0804 30.9532 11.8662C31.1766 11.6521 31.2883 11.3495 31.2883 10.9585C31.2883 10.5861 31.1766 10.2929 30.9532 10.0788C30.739 9.86464 30.4132 9.75757 29.9756 9.75757H28.4954V12.1874Z" fill="black"/>
<path d="M34.8122 12.6622C34.8122 11.694 35.0217 10.8329 35.4406 10.0788C35.8596 9.31536 36.4414 8.72419 37.1862 8.30525C37.9403 7.877 38.7921 7.66287 39.7417 7.66287C40.9055 7.66287 41.9016 7.9701 42.7302 8.58454C43.5587 9.19899 44.1127 10.0369 44.392 11.0982H41.7666C41.5711 10.6886 41.2918 10.3767 40.9287 10.1625C40.575 9.94842 40.17 9.84136 39.7138 9.84136C38.9783 9.84136 38.3825 10.0974 37.9263 10.6094C37.4701 11.1215 37.2421 11.8057 37.2421 12.6622C37.2421 13.5187 37.4701 14.203 37.9263 14.715C38.3825 15.2271 38.9783 15.4831 39.7138 15.4831C40.17 15.4831 40.575 15.376 40.9287 15.1619C41.2918 14.9478 41.5711 14.6359 41.7666 14.2263H44.392C44.1127 15.2876 43.5587 16.1255 42.7302 16.7399C41.9016 17.345 40.9055 17.6476 39.7417 17.6476C38.7921 17.6476 37.9403 17.4381 37.1862 17.0192C36.4414 16.5909 35.8596 15.9998 35.4406 15.2457C35.0217 14.4916 34.8122 13.6304 34.8122 12.6622Z" fill="black"/>
<path d="M62.3035 7.77459L59.748 17.5778H56.8573L55.2932 11.1261L53.6733 17.5778H50.7826L48.2969 7.77459H50.8525L52.2629 14.9105L54.0085 7.77459H56.6338L58.3096 14.9105L59.734 7.77459H62.3035Z" fill="black"/>
<path d="M64.702 8.97555C64.2831 8.97555 63.9386 8.85452 63.6686 8.61247C63.408 8.36111 63.2776 8.05388 63.2776 7.6908C63.2776 7.31841 63.408 7.01119 63.6686 6.76914C63.9386 6.51777 64.2831 6.39209 64.702 6.39209C65.1117 6.39209 65.4468 6.51777 65.7075 6.76914C65.9775 7.01119 66.1125 7.31841 66.1125 7.6908C66.1125 8.05388 65.9775 8.36111 65.7075 8.61247C65.4468 8.85452 65.1117 8.97555 64.702 8.97555ZM65.889 9.7855V17.5778H63.5011V9.7855H65.889Z" fill="black"/>
<path d="M70.0075 7.24393V17.5778H67.6196V7.24393H70.0075Z" fill="black"/>
<path d="M74.126 7.24393V17.5778H71.738V7.24393H74.126Z" fill="black"/>
<path d="M83.2019 13.556C83.2019 13.7794 83.188 14.0121 83.16 14.2542H77.7557C77.793 14.7383 77.9466 15.1107 78.2166 15.3714C78.4958 15.6227 78.8356 15.7484 79.236 15.7484C79.8318 15.7484 80.2461 15.497 80.4788 14.9943H83.0204C82.8901 15.5064 82.6527 15.9672 82.3082 16.3768C81.973 16.7865 81.5494 17.1076 81.0374 17.3404C80.5254 17.5731 79.9528 17.6895 79.3198 17.6895C78.5564 17.6895 77.8767 17.5266 77.2809 17.2007C76.6851 16.8749 76.2196 16.4094 75.8845 15.8043C75.5493 15.1991 75.3817 14.4916 75.3817 13.6816C75.3817 12.8717 75.5446 12.1642 75.8705 11.559C76.2056 10.9539 76.6711 10.4884 77.267 10.1625C77.8628 9.83671 78.547 9.67379 79.3198 9.67379C80.0738 9.67379 80.7442 9.83205 81.3307 10.1486C81.9172 10.4651 82.3734 10.9166 82.6992 11.5032C83.0344 12.0897 83.2019 12.7739 83.2019 13.556ZM80.7581 12.9276C80.7581 12.5179 80.6185 12.1921 80.3392 11.95C80.0599 11.708 79.7108 11.5869 79.2918 11.5869C78.8915 11.5869 78.5517 11.7033 78.2724 11.9361C78.0024 12.1688 77.8349 12.4993 77.7697 12.9276H80.7581Z" fill="black"/>
<path d="M92.4216 9.7855L87.5339 21.2784H84.9644L86.7519 17.3125L83.5819 9.7855H86.2492L88.0506 14.6592L89.8381 9.7855H92.4216Z" fill="black"/>
</g>
<defs>
<linearGradient id="paint0_linear_499_6948" x1="0.533203" y1="0.927734" x2="24.6196" y2="14.1922" gradientUnits="userSpaceOnUse">
<stop stop-color="#7549F2"/>
<stop offset="0.479167" stop-color="#DF58D2"/>
<stop offset="1" stop-color="#ED787C"/>
</linearGradient>
<clipPath id="clip0_499_6948">
<rect width="92.8953" height="23.072" fill="white" transform="translate(0 0.927734)"/>
</clipPath>
</defs>
</svg>
