<svg width="93" height="24" viewBox="0 0 93 24" fill="none" xmlns="http://www.w3.org/2000/svg">
<g clip-path="url(#clip0_499_4477)">
<path d="M0.533203 17.6387L0.533205 6.23145L6.2368 9.40013V14.5017L10.7997 17.0683L15.3626 14.5017V9.40013L21.0662 6.23145V17.6387L10.7997 23.3423L0.533203 17.6387Z" fill="black"/>
<path fill-rule="evenodd" clip-rule="evenodd" d="M3.38501 7.81532L0.533203 6.23096L10.7997 0.527344L21.0662 6.23096L18.2144 7.81532V16.2123L10.7997 20.49L3.38501 16.2123L3.38501 7.81532ZM17.9055 7.98696L15.3626 9.39964V9.36795L10.7997 6.8013L6.2368 9.36795V9.39964L3.69396 7.98696V16.0368L10.7997 20.1363L17.9055 16.0368V7.98696Z" fill="url(#paint0_linear_499_4477)"/>
<path d="M31.1068 17.1779L29.0679 13.4772H28.4954V17.1779H26.1074V7.37469H30.1153C30.888 7.37469 31.5443 7.50968 32.0843 7.77966C32.6336 8.04965 33.0432 8.42204 33.3132 8.89684C33.5832 9.36233 33.7182 9.88367 33.7182 10.4609C33.7182 11.1126 33.532 11.6944 33.1596 12.2065C32.7965 12.7185 32.2565 13.0816 31.5397 13.2957L33.8019 17.1779H31.1068ZM28.4954 11.7875H29.9756C30.4132 11.7875 30.739 11.6805 30.9532 11.4663C31.1766 11.2522 31.2883 10.9496 31.2883 10.5586C31.2883 10.1862 31.1766 9.89298 30.9532 9.67886C30.739 9.46473 30.4132 9.35767 29.9756 9.35767H28.4954V11.7875Z" fill="black"/>
<path d="M34.8122 12.2623C34.8122 11.2941 35.0217 10.433 35.4406 9.67886C35.8596 8.91546 36.4414 8.32429 37.1862 7.90535C37.9403 7.4771 38.7921 7.26297 39.7417 7.26297C40.9055 7.26297 41.9016 7.57019 42.7302 8.18464C43.5587 8.79908 44.1127 9.63696 44.392 10.6983H41.7666C41.5711 10.2886 41.2918 9.97677 40.9287 9.76265C40.575 9.54852 40.17 9.44146 39.7138 9.44146C38.9783 9.44146 38.3825 9.69748 37.9263 10.2095C37.4701 10.7216 37.2421 11.4058 37.2421 12.2623C37.2421 13.1188 37.4701 13.8031 37.9263 14.3151C38.3825 14.8272 38.9783 15.0832 39.7138 15.0832C40.17 15.0832 40.575 14.9761 40.9287 14.762C41.2918 14.5479 41.5711 14.236 41.7666 13.8264H44.392C44.1127 14.8877 43.5587 15.7256 42.7302 16.34C41.9016 16.9451 40.9055 17.2477 39.7417 17.2477C38.7921 17.2477 37.9403 17.0382 37.1862 16.6193C36.4414 16.191 35.8596 15.5999 35.4406 14.8458C35.0217 14.0917 34.8122 13.2305 34.8122 12.2623Z" fill="black"/>
<path d="M62.3035 7.37469L59.748 17.1779H56.8573L55.2932 10.7262L53.6733 17.1779H50.7826L48.2969 7.37469H50.8525L52.2629 14.5106L54.0085 7.37469H56.6338L58.3096 14.5106L59.734 7.37469H62.3035Z" fill="black"/>
<path d="M64.702 8.57565C64.2831 8.57565 63.9386 8.45462 63.6686 8.21257C63.408 7.9612 63.2776 7.65398 63.2776 7.2909C63.2776 6.91851 63.408 6.61129 63.6686 6.36923C63.9386 6.11787 64.2831 5.99219 64.702 5.99219C65.1117 5.99219 65.4468 6.11787 65.7075 6.36923C65.9775 6.61129 66.1125 6.91851 66.1125 7.2909C66.1125 7.65398 65.9775 7.9612 65.7075 8.21257C65.4468 8.45462 65.1117 8.57565 64.702 8.57565ZM65.889 9.3856V17.1779H63.5011V9.3856H65.889Z" fill="black"/>
<path d="M70.0075 6.84403V17.1779H67.6196V6.84403H70.0075Z" fill="black"/>
<path d="M74.126 6.84403V17.1779H71.738V6.84403H74.126Z" fill="black"/>
<path d="M83.2019 13.1561C83.2019 13.3795 83.188 13.6122 83.16 13.8543H77.7557C77.793 14.3384 77.9466 14.7108 78.2166 14.9715C78.4958 15.2228 78.8356 15.3485 79.236 15.3485C79.8318 15.3485 80.2461 15.0971 80.4788 14.5944H83.0204C82.8901 15.1065 82.6527 15.5673 82.3082 15.9769C81.973 16.3865 81.5494 16.7077 81.0374 16.9405C80.5254 17.1732 79.9528 17.2896 79.3198 17.2896C78.5564 17.2896 77.8767 17.1267 77.2809 16.8008C76.6851 16.475 76.2196 16.0095 75.8845 15.4044C75.5493 14.7992 75.3817 14.0917 75.3817 13.2817C75.3817 12.4718 75.5446 11.7642 75.8705 11.1591C76.2056 10.554 76.6711 10.0885 77.267 9.76265C77.8628 9.4368 78.547 9.27388 79.3198 9.27388C80.0738 9.27388 80.7442 9.43215 81.3307 9.74868C81.9172 10.0652 82.3734 10.5167 82.6992 11.1033C83.0344 11.6898 83.2019 12.374 83.2019 13.1561ZM80.7581 12.5276C80.7581 12.118 80.6185 11.7922 80.3392 11.5501C80.0599 11.3081 79.7108 11.187 79.2918 11.187C78.8915 11.187 78.5517 11.3034 78.2724 11.5362C78.0024 11.7689 77.8349 12.0994 77.7697 12.5276H80.7581Z" fill="black"/>
<path d="M92.4216 9.3856L87.5339 20.8785H84.9644L86.7519 16.9126L83.5819 9.3856H86.2492L88.0506 14.2593L89.8381 9.3856H92.4216Z" fill="black"/>
</g>
<defs>
<linearGradient id="paint0_linear_499_4477" x1="0.533203" y1="0.527344" x2="24.6196" y2="13.7918" gradientUnits="userSpaceOnUse">
<stop stop-color="#7549F2"/>
<stop offset="0.479167" stop-color="#DF58D2"/>
<stop offset="1" stop-color="#ED787C"/>
</linearGradient>
<clipPath id="clip0_499_4477">
<rect width="92.8953" height="23.072" fill="white" transform="translate(0 0.527344)"/>
</clipPath>
</defs>
</svg>
