<svg width="43" height="27" viewBox="0 0 43 27" fill="none" xmlns="http://www.w3.org/2000/svg">
<rect x="1.09961" y="0.5" width="41" height="26" rx="6.5" fill="#1D1B1B" stroke="#9B9B9B"/>
<path d="M13.6034 23.0332V21.7623C13.6034 21.2762 13.3073 20.9578 12.7989 20.9578C12.5448 20.9578 12.2684 21.0417 12.0784 21.3181C11.9303 21.0862 11.7181 20.9578 11.3997 20.9578C11.1875 20.9578 10.9753 21.022 10.8075 21.254V20.9998H10.3633V23.0332H10.8075V21.9104C10.8075 21.5501 10.9975 21.3798 11.2936 21.3798C11.5897 21.3798 11.7378 21.5698 11.7378 21.9104V23.0332H12.182V21.9104C12.182 21.5501 12.3942 21.3798 12.6681 21.3798C12.9643 21.3798 13.1123 21.5698 13.1123 21.9104V23.0332H13.6034ZM20.1922 20.9998H19.4717V20.3853H19.0275V20.9998H18.6252V21.402H19.0275V22.3348C19.0275 22.8012 19.2175 23.0752 19.7258 23.0752C19.9159 23.0752 20.1281 23.011 20.2761 22.9271L20.1478 22.5446C20.0195 22.6285 19.8714 22.6507 19.7653 22.6507C19.5531 22.6507 19.4692 22.5224 19.4692 22.3126V21.402H20.1898V20.9998H20.1922ZM23.9629 20.9554C23.7088 20.9554 23.5385 21.0837 23.4324 21.2515V20.9973H22.9882V23.0307H23.4324V21.8857C23.4324 21.5476 23.5804 21.3551 23.8568 21.3551C23.9407 21.3551 24.0468 21.3774 24.1332 21.3971L24.2615 20.9726C24.1727 20.9554 24.0468 20.9554 23.9629 20.9554ZM18.2649 21.1676C18.0527 21.0195 17.7566 20.9554 17.4383 20.9554C16.9299 20.9554 16.5918 21.2095 16.5918 21.6118C16.5918 21.9499 16.846 22.1424 17.2902 22.204L17.5024 22.2263C17.7344 22.2682 17.8627 22.3324 17.8627 22.4385C17.8627 22.5865 17.6924 22.6927 17.3963 22.6927C17.1002 22.6927 16.8657 22.5865 16.7177 22.4804L16.5055 22.8185C16.7374 22.9888 17.0558 23.0727 17.3741 23.0727C17.9664 23.0727 18.3069 22.7963 18.3069 22.4163C18.3069 22.056 18.0305 21.866 17.6085 21.8018L17.3963 21.7796C17.2063 21.7574 17.0582 21.7154 17.0582 21.5896C17.0582 21.4415 17.2063 21.3576 17.4407 21.3576C17.6949 21.3576 17.9491 21.4637 18.0774 21.5279L18.2649 21.1676ZM30.0829 20.9554C29.8287 20.9554 29.6585 21.0837 29.5523 21.2515V20.9973H29.1081V23.0307H29.5523V21.8857C29.5523 21.5476 29.7004 21.3551 29.9768 21.3551C30.0607 21.3551 30.1668 21.3774 30.2532 21.3971L30.3815 20.9776C30.2951 20.9554 30.1693 20.9554 30.0829 20.9554ZM24.4071 22.0165C24.4071 22.631 24.8316 23.0752 25.488 23.0752C25.7841 23.0752 25.9963 23.011 26.2086 22.8432L25.9963 22.4829C25.8261 22.6112 25.6583 22.6729 25.4658 22.6729C25.1055 22.6729 24.8513 22.4187 24.8513 22.0165C24.8513 21.634 25.1055 21.3798 25.4658 21.3601C25.6558 21.3601 25.8261 21.4242 25.9963 21.5501L26.2086 21.1898C25.9963 21.0195 25.7841 20.9578 25.488 20.9578C24.8316 20.9554 24.4071 21.402 24.4071 22.0165ZM28.5159 22.0165V20.9998H28.0717V21.254C27.9236 21.064 27.7114 20.9578 27.435 20.9578C26.8625 20.9578 26.4183 21.402 26.4183 22.0165C26.4183 22.631 26.8625 23.0752 27.435 23.0752C27.7312 23.0752 27.9434 22.969 28.0717 22.779V23.0332H28.5159V22.0165ZM26.8847 22.0165C26.8847 21.6562 27.1167 21.3601 27.4992 21.3601C27.8595 21.3601 28.1137 21.6365 28.1137 22.0165C28.1137 22.3768 27.8595 22.6729 27.4992 22.6729C27.1192 22.6507 26.8847 22.3743 26.8847 22.0165ZM21.5692 20.9554C20.977 20.9554 20.5525 21.3798 20.5525 22.014C20.5525 22.6507 20.977 23.0727 21.5914 23.0727C21.8876 23.0727 22.1837 22.9888 22.4181 22.7963L22.2059 22.478C22.0356 22.6063 21.8234 22.6902 21.6137 22.6902C21.3373 22.6902 21.0634 22.5619 20.9992 22.204H22.502C22.502 22.1399 22.502 22.0979 22.502 22.0338C22.5218 21.3798 22.1393 20.9554 21.5692 20.9554ZM21.5692 21.3379C21.8456 21.3379 22.0356 21.5081 22.0776 21.824H21.0189C21.0609 21.5501 21.2509 21.3379 21.5692 21.3379ZM32.6049 22.0165V20.1953H32.1607V21.254C32.0127 21.064 31.8004 20.9578 31.5241 20.9578C30.9515 20.9578 30.5073 21.402 30.5073 22.0165C30.5073 22.631 30.9515 23.0752 31.5241 23.0752C31.8202 23.0752 32.0324 22.969 32.1607 22.779V23.0332H32.6049V22.0165ZM30.9737 22.0165C30.9737 21.6562 31.2057 21.3601 31.5882 21.3601C31.9485 21.3601 32.2027 21.6365 32.2027 22.0165C32.2027 22.3768 31.9485 22.6729 31.5882 22.6729C31.2057 22.6507 30.9737 22.3743 30.9737 22.0165ZM16.1032 22.0165V20.9998H15.659V21.254C15.511 21.064 15.2987 20.9578 15.0224 20.9578C14.4498 20.9578 14.0056 21.402 14.0056 22.0165C14.0056 22.631 14.4498 23.0752 15.0224 23.0752C15.3185 23.0752 15.5307 22.969 15.659 22.779V23.0332H16.1032V22.0165ZM14.4523 22.0165C14.4523 21.6562 14.6843 21.3601 15.0668 21.3601C15.4271 21.3601 15.6812 21.6365 15.6812 22.0165C15.6812 22.3768 15.4271 22.6729 15.0668 22.6729C14.6843 22.6507 14.4523 22.3743 14.4523 22.0165Z" fill="#9B9B9B"/>
<path d="M24.7889 5.55664H18.1162V17.5449H24.7889V5.55664Z" fill="#AFAFAF"/>
<path d="M18.5605 11.5511C18.5605 9.11541 19.7055 6.95368 21.4626 5.55695C20.1695 4.54025 18.5383 3.92578 16.7591 3.92578C12.5442 3.92578 9.13379 7.33618 9.13379 11.5511C9.13379 15.7659 12.5442 19.1763 16.7591 19.1763C18.5383 19.1763 20.1695 18.5619 21.4626 17.5452C19.7031 16.1682 18.5605 13.9867 18.5605 11.5511Z" fill="#9B9B9B"/>
<path d="M33.7917 11.5511C33.7917 15.7659 30.3813 19.1763 26.1664 19.1763C24.3871 19.1763 22.756 18.5619 21.4629 17.5452C23.2421 16.146 24.3649 13.9867 24.3649 11.5511C24.3649 9.11541 23.2199 6.95368 21.4629 5.55695C22.7535 4.54025 24.3847 3.92578 26.1639 3.92578C30.3813 3.92578 33.7917 7.35839 33.7917 11.5511Z" fill="#C6C6C6"/>
</svg>
