<svg width="43" height="28" viewBox="0 0 43 28" fill="none" xmlns="http://www.w3.org/2000/svg">
<rect x="1.09961" y="1.1001" width="41" height="26" rx="6.5" fill="#1D1B1B" stroke="#9B9B9B"/>
<path d="M13.6034 23.6333V22.3624C13.6034 21.8763 13.3073 21.5579 12.7989 21.5579C12.5448 21.5579 12.2684 21.6418 12.0784 21.9182C11.9303 21.6863 11.7181 21.5579 11.3997 21.5579C11.1875 21.5579 10.9753 21.6221 10.8075 21.8541V21.5999H10.3633V23.6333H10.8075V22.5105C10.8075 22.1502 10.9975 21.9799 11.2936 21.9799C11.5897 21.9799 11.7378 22.1699 11.7378 22.5105V23.6333H12.182V22.5105C12.182 22.1502 12.3942 21.9799 12.6681 21.9799C12.9643 21.9799 13.1123 22.1699 13.1123 22.5105V23.6333H13.6034ZM20.1922 21.5999H19.4717V20.9854H19.0275V21.5999H18.6252V22.0021H19.0275V22.9349C19.0275 23.4013 19.2175 23.6752 19.7258 23.6752C19.9159 23.6752 20.1281 23.6111 20.2761 23.5272L20.1478 23.1447C20.0195 23.2286 19.8714 23.2508 19.7653 23.2508C19.5531 23.2508 19.4692 23.1225 19.4692 22.9127V22.0021H20.1898V21.5999H20.1922ZM23.9629 21.5555C23.7088 21.5555 23.5385 21.6838 23.4324 21.8516V21.5974H22.9882V23.6308H23.4324V22.4858C23.4324 22.1477 23.5804 21.9552 23.8568 21.9552C23.9407 21.9552 24.0468 21.9775 24.1332 21.9972L24.2615 21.5727C24.1727 21.5555 24.0468 21.5555 23.9629 21.5555ZM18.2649 21.7677C18.0527 21.6196 17.7566 21.5555 17.4383 21.5555C16.9299 21.5555 16.5918 21.8096 16.5918 22.2119C16.5918 22.55 16.846 22.7424 17.2902 22.8041L17.5024 22.8264C17.7344 22.8683 17.8627 22.9325 17.8627 23.0386C17.8627 23.1866 17.6924 23.2928 17.3963 23.2928C17.1002 23.2928 16.8657 23.1866 16.7177 23.0805L16.5055 23.4186C16.7374 23.5889 17.0558 23.6728 17.3741 23.6728C17.9664 23.6728 18.3069 23.3964 18.3069 23.0164C18.3069 22.6561 18.0305 22.4661 17.6085 22.4019L17.3963 22.3797C17.2063 22.3575 17.0582 22.3155 17.0582 22.1897C17.0582 22.0416 17.2063 21.9577 17.4407 21.9577C17.6949 21.9577 17.9491 22.0638 18.0774 22.128L18.2649 21.7677ZM30.0829 21.5555C29.8287 21.5555 29.6585 21.6838 29.5523 21.8516V21.5974H29.1081V23.6308H29.5523V22.4858C29.5523 22.1477 29.7004 21.9552 29.9768 21.9552C30.0607 21.9552 30.1668 21.9775 30.2532 21.9972L30.3815 21.5777C30.2951 21.5555 30.1693 21.5555 30.0829 21.5555ZM24.4071 22.6166C24.4071 23.2311 24.8316 23.6752 25.488 23.6752C25.7841 23.6752 25.9963 23.6111 26.2086 23.4433L25.9963 23.083C25.8261 23.2113 25.6583 23.273 25.4658 23.273C25.1055 23.273 24.8513 23.0188 24.8513 22.6166C24.8513 22.2341 25.1055 21.9799 25.4658 21.9602C25.6558 21.9602 25.8261 22.0243 25.9963 22.1502L26.2086 21.7899C25.9963 21.6196 25.7841 21.5579 25.488 21.5579C24.8316 21.5555 24.4071 22.0021 24.4071 22.6166ZM28.5159 22.6166V21.5999H28.0717V21.8541C27.9236 21.6641 27.7114 21.5579 27.435 21.5579C26.8625 21.5579 26.4183 22.0021 26.4183 22.6166C26.4183 23.2311 26.8625 23.6752 27.435 23.6752C27.7312 23.6752 27.9434 23.5691 28.0717 23.3791V23.6333H28.5159V22.6166ZM26.8847 22.6166C26.8847 22.2563 27.1167 21.9602 27.4992 21.9602C27.8595 21.9602 28.1137 22.2366 28.1137 22.6166C28.1137 22.9769 27.8595 23.273 27.4992 23.273C27.1192 23.2508 26.8847 22.9744 26.8847 22.6166ZM21.5692 21.5555C20.977 21.5555 20.5525 21.9799 20.5525 22.6141C20.5525 23.2508 20.977 23.6728 21.5914 23.6728C21.8876 23.6728 22.1837 23.5889 22.4181 23.3964L22.2059 23.0781C22.0356 23.2064 21.8234 23.2903 21.6137 23.2903C21.3373 23.2903 21.0634 23.162 20.9992 22.8041H22.502C22.502 22.74 22.502 22.698 22.502 22.6339C22.5218 21.9799 22.1393 21.5555 21.5692 21.5555ZM21.5692 21.938C21.8456 21.938 22.0356 22.1082 22.0776 22.4241H21.0189C21.0609 22.1502 21.2509 21.938 21.5692 21.938ZM32.6049 22.6166V20.7954H32.1607V21.8541C32.0127 21.6641 31.8004 21.5579 31.5241 21.5579C30.9515 21.5579 30.5073 22.0021 30.5073 22.6166C30.5073 23.2311 30.9515 23.6752 31.5241 23.6752C31.8202 23.6752 32.0324 23.5691 32.1607 23.3791V23.6333H32.6049V22.6166ZM30.9737 22.6166C30.9737 22.2563 31.2057 21.9602 31.5882 21.9602C31.9485 21.9602 32.2027 22.2366 32.2027 22.6166C32.2027 22.9769 31.9485 23.273 31.5882 23.273C31.2057 23.2508 30.9737 22.9744 30.9737 22.6166ZM16.1032 22.6166V21.5999H15.659V21.8541C15.511 21.6641 15.2987 21.5579 15.0224 21.5579C14.4498 21.5579 14.0056 22.0021 14.0056 22.6166C14.0056 23.2311 14.4498 23.6752 15.0224 23.6752C15.3185 23.6752 15.5307 23.5691 15.659 23.3791V23.6333H16.1032V22.6166ZM14.4523 22.6166C14.4523 22.2563 14.6843 21.9602 15.0668 21.9602C15.4271 21.9602 15.6812 22.2366 15.6812 22.6166C15.6812 22.9769 15.4271 23.273 15.0668 23.273C14.6843 23.2508 14.4523 22.9744 14.4523 22.6166Z" fill="#9B9B9B"/>
<path d="M24.7889 6.15674H18.1162V18.145H24.7889V6.15674Z" fill="#AFAFAF"/>
<path d="M18.5605 12.1512C18.5605 9.71551 19.7055 7.55378 21.4626 6.15705C20.1695 5.14034 18.5383 4.52588 16.7591 4.52588C12.5442 4.52588 9.13379 7.93628 9.13379 12.1512C9.13379 16.366 12.5442 19.7764 16.7591 19.7764C18.5383 19.7764 20.1695 19.162 21.4626 18.1453C19.7031 16.7683 18.5605 14.5868 18.5605 12.1512Z" fill="#9B9B9B"/>
<path d="M33.7917 12.1513C33.7917 16.3662 30.3813 19.7766 26.1664 19.7766C24.3871 19.7766 22.756 19.1621 21.4629 18.1454C23.2421 16.7462 24.3649 14.5869 24.3649 12.1513C24.3649 9.71563 23.2199 7.5539 21.4629 6.15717C22.7535 5.14047 24.3847 4.526 26.1639 4.526C30.3813 4.526 33.7917 7.95861 33.7917 12.1513Z" fill="#C6C6C6"/>
</svg>
