<svg width="16" height="17" viewBox="0 0 16 17" fill="none" xmlns="http://www.w3.org/2000/svg">
<path d="M8 0.599609C6.41775 0.599609 4.87103 1.0688 3.55544 1.94785C2.23985 2.8269 1.21447 4.07633 0.608967 5.53814C0.00346627 6.99995 -0.15496 8.60848 0.153721 10.1603C0.462403 11.7122 1.22433 13.1376 2.34315 14.2565C3.46197 15.3753 4.88743 16.1372 6.43928 16.4459C7.99113 16.7546 9.59966 16.5961 11.0615 15.9906C12.5233 15.3851 13.7727 14.3598 14.6518 13.0442C15.5308 11.7286 16 10.1819 16 8.59961C16 6.47788 15.1571 4.44305 13.6569 2.94275C12.1566 1.44246 10.1217 0.599609 8 0.599609ZM6.85715 11.7939L4 8.93675L4.90857 8.02818L6.85715 9.97675L11.0914 5.74247L12.0034 6.64875L6.85715 11.7939Z" fill="white"/>
</svg>
