<svg width="16" height="17" viewBox="0 0 16 17" fill="none" xmlns="http://www.w3.org/2000/svg">
<path d="M8 0.600098C6.41775 0.600098 4.87103 1.06929 3.55544 1.94834C2.23985 2.82739 1.21447 4.07682 0.608967 5.53863C0.00346627 7.00044 -0.15496 8.60897 0.153721 10.1608C0.462403 11.7127 1.22433 13.1381 2.34315 14.2569C3.46197 15.3758 4.88743 16.1377 6.43928 16.4464C7.99113 16.7551 9.59966 16.5966 11.0615 15.9911C12.5233 15.3856 13.7727 14.3603 14.6518 13.0447C15.5308 11.7291 16 10.1823 16 8.6001C16 6.47836 15.1571 4.44353 13.6569 2.94324C12.1566 1.44295 10.1217 0.600098 8 0.600098ZM6.85715 11.7944L4 8.93724L4.90857 8.02867L6.85715 9.97724L11.0914 5.74295L12.0034 6.64924L6.85715 11.7944Z" fill="white"/>
</svg>
