<svg width="72" height="13" viewBox="0 0 72 13" fill="none" xmlns="http://www.w3.org/2000/svg">
<path d="M8.62549 1.89109C8.13385 1.38003 7.59866 0.994408 7.01994 0.739806C6.4331 0.480792 5.80031 0.348871 5.16132 0.352328C3.72722 0.352328 2.50991 0.914497 1.50576 2.03419C0.502526 3.15388 0.00181417 4.59136 0 6.34476C0 8.03591 0.517039 9.45295 1.55293 10.5894C2.58883 11.7295 3.81702 12.2991 5.2357 12.2991C5.84031 12.3057 6.44003 12.1875 6.99908 11.9516C7.54243 11.7183 8.08305 11.3383 8.62186 10.8068V12.0101H11.3948V0.650603H8.62639L8.62549 1.89109ZM7.89075 8.75233C7.3211 9.37768 6.60268 9.68618 5.73732 9.68804C4.89827 9.68804 4.19165 9.37025 3.61928 8.73374C3.046 8.0991 2.75845 7.28883 2.75845 6.30666C2.75845 5.32728 3.04237 4.52817 3.60476 3.90282C4.16897 3.27839 4.8765 2.96897 5.72916 2.96897C6.60268 2.96897 7.32472 3.2756 7.89437 3.88888C8.46493 4.50401 8.64907 5.2037 8.64726 6.1933C8.64726 7.20613 8.46312 8.12883 7.89075 8.75233ZM27.2997 1.89109C26.8426 1.40456 26.2976 1.01356 25.695 0.739806C25.1072 0.480928 24.4736 0.349021 23.8337 0.352328C22.4032 0.352328 21.1823 0.914497 20.18 2.03419C19.1767 3.15481 18.676 4.59228 18.6742 6.34569C18.6724 8.03684 19.1894 9.45388 20.2271 10.5903C21.263 11.7304 22.4912 12.3 23.9126 12.3C24.5161 12.3067 25.1146 12.1885 25.6724 11.9525C26.2148 11.7193 26.7554 11.3392 27.2942 10.8077V12.011H30.0672V0.650603H27.2997V1.89109ZM26.5649 8.75233C25.9953 9.37768 25.2751 9.68618 24.4133 9.68804C23.5725 9.68804 22.8658 9.37025 22.2917 8.73374C21.7184 8.0991 21.4308 7.28883 21.4326 6.30666C21.4345 5.32728 21.7138 4.52817 22.279 3.90282C22.8432 3.27839 23.5507 2.96897 24.4034 2.96897C25.2751 2.96897 25.9971 3.2756 26.5686 3.88888C27.1391 4.50401 27.3214 5.2037 27.3196 6.1933C27.3196 7.20613 27.1373 8.12883 26.5649 8.75233ZM46.7558 0.927505C46.1598 0.551178 45.4713 0.363479 44.6858 0.363479C43.9547 0.355557 43.2335 0.536432 42.5886 0.889408C41.9491 1.23972 41.4094 1.75078 40.9677 2.42631C40.632 1.75078 40.1858 1.23786 39.6324 0.88755C39.0706 0.534437 38.4229 0.350857 37.7638 0.357904C37.0799 0.357904 36.4495 0.49078 35.8698 0.75839C35.2911 1.02414 34.765 1.42742 34.2915 1.96821V0.650603H31.5158L31.5131 12.011H34.2861L34.2879 6.97105C34.2897 5.88109 34.3831 5.08197 34.5691 4.57463C34.7577 4.06821 35.0389 3.67516 35.4154 3.39175C35.7936 3.11299 36.2118 2.97082 36.6744 2.97082C37.0871 2.97175 37.4418 3.08326 37.7339 3.30534C38.026 3.52835 38.2437 3.86751 38.3897 4.32189C38.5358 4.7772 38.6092 5.51127 38.6092 6.52689L38.6038 12.011H41.3804V6.90136C41.384 5.8179 41.4756 5.0318 41.658 4.54304C41.843 4.05242 42.1242 3.67144 42.5006 3.39175C42.8729 3.11592 43.322 2.97028 43.7814 2.9764C44.4064 2.9764 44.8718 3.20498 45.1865 3.65751C45.5004 4.11467 45.6555 4.98441 45.6555 6.26671L45.6519 12.011H48.4257L48.4294 5.35795C48.4294 3.99295 48.2996 3.00706 48.0393 2.40215C47.7808 1.79538 47.3526 1.30383 46.7558 0.927505ZM58.1107 8.6622C57.3687 9.41857 56.4807 9.79675 55.4484 9.79675C54.583 9.79582 53.8755 9.55144 53.3167 9.06826C52.7589 8.58507 52.4178 7.93463 52.2881 7.11507L61.1857 7.12065L61.1966 6.57985C61.1966 4.70751 60.6542 3.20312 59.5648 2.05928C58.4781 0.920072 57.0648 0.349541 55.3241 0.346753C53.6877 0.346753 52.3244 0.918213 51.2413 2.06578C50.1537 3.2087 49.6113 4.64804 49.6113 6.381C49.6095 8.07494 50.1537 9.48082 51.2395 10.6052C52.3244 11.7323 53.7349 12.2935 55.4629 12.2935C56.5786 12.2935 57.5392 12.091 58.352 11.683C59.1611 11.277 59.8577 10.646 60.4383 9.79675L58.1107 8.6622ZM53.4338 3.44007C54.0161 3.00056 54.6946 2.7822 55.4656 2.78405C56.1795 2.78405 56.8045 2.97919 57.3397 3.36945C57.8803 3.76251 58.2404 4.27078 58.4227 4.8952L52.4178 4.89149C52.728 4.19923 53.0682 3.71419 53.4338 3.441M67.7684 5.9991L71.5174 0.648744H68.3553L66.1847 3.74578L64.0068 0.648744H60.7948L64.5818 6.03069L60.3947 12.011H63.5568L66.1647 8.2868L68.7862 12.011H72L67.7684 5.9991ZM18.071 0.300293C17.5576 0.300293 17.1095 0.399718 16.7357 0.592063C16.3666 0.78162 15.943 1.12728 15.4658 1.63463V0.649673H12.8171V12.011H15.591L15.5892 6.10224C15.5892 3.9372 16.1734 2.85096 17.5875 2.85096C17.8324 2.85096 18.0828 2.90578 18.3349 3.00242C18.7903 2.22189 19.3164 1.48874 19.9042 0.813213C19.2711 0.479629 18.6597 0.300293 18.071 0.300293Z" fill="white"/>
</svg>
