<svg width="42" height="28" viewBox="0 0 42 28" fill="none" xmlns="http://www.w3.org/2000/svg">
<rect x="0.5" y="1.1001" width="41" height="26" rx="6.5" fill="#1D1B1B" stroke="#9B9B9B"/>
<path d="M18.2023 18.3175H15.7344L17.278 8.77289H19.7458L18.2023 18.3175Z" fill="#9B9B9B"/>
<path d="M27.1482 9.00645C26.6614 8.81333 25.8894 8.6001 24.9347 8.6001C22.4975 8.6001 20.7813 9.89972 20.7708 11.7578C20.7505 13.1287 21.9995 13.8901 22.9337 14.3472C23.8885 14.8142 24.2131 15.1191 24.2131 15.5355C24.2034 16.1749 23.4415 16.4696 22.731 16.4696C21.7457 16.4696 21.2178 16.3177 20.4154 15.9619L20.0905 15.8094L19.7451 17.952C20.3239 18.2157 21.3904 18.4497 22.4975 18.4599C25.0871 18.4599 26.7729 17.1804 26.7929 15.2004C26.8027 14.1138 26.1432 13.2813 24.7213 12.601C23.8581 12.1643 23.3295 11.8698 23.3295 11.423C23.3397 11.0167 23.7766 10.6007 24.751 10.6007C25.5533 10.5803 26.1428 10.7731 26.5894 10.9661L26.8126 11.0675L27.1482 9.00645Z" fill="#9B9B9B"/>
<path d="M30.4286 14.9362C30.6319 14.3878 31.414 12.2657 31.414 12.2657C31.4037 12.286 31.6168 11.7072 31.7387 11.3519L31.9111 12.1743C31.9111 12.1743 32.3785 14.459 32.48 14.9362C32.0943 14.9362 30.9161 14.9362 30.4286 14.9362ZM33.475 8.77289H31.566C30.9774 8.77289 30.5301 8.94536 30.2761 9.56481L26.6104 18.3173H29.1999C29.1999 18.3173 29.6262 17.1393 29.7178 16.8856C30.0019 16.8856 32.521 16.8856 32.8864 16.8856C32.9573 17.2207 33.1809 18.3173 33.1809 18.3173H35.466L33.475 8.77289Z" fill="#9B9B9B"/>
<path d="M13.6722 8.77289L11.2553 15.2814L10.9912 13.9614C10.5443 12.4383 9.14296 10.7835 7.5791 9.96063L9.79291 18.3073H12.4027L16.2818 8.77289H13.6722Z" fill="#9B9B9B"/>
<path d="M9.01128 8.77289H5.04062L5 8.96574C8.09736 9.75779 10.1487 11.667 10.9915 13.9618L10.1283 9.5752C9.98619 8.9656 9.54948 8.793 9.01128 8.77289Z" fill="#DFDFDF"/>
</svg>
