<svg width="30" height="13" viewBox="0 0 30 13" fill="none" xmlns="http://www.w3.org/2000/svg">
<path d="M5.48157 2.1472C5.12996 2.55252 4.5674 2.87222 4.00483 2.82655C3.93451 2.2785 4.20994 1.6962 4.53224 1.33654C4.88384 0.919793 5.49915 0.622933 5.99725 0.600098C6.05585 1.17098 5.82731 1.73045 5.48157 2.1472ZM5.99139 2.93502C5.17684 2.88935 4.4795 3.38602 4.09274 3.38602C3.70011 3.38602 3.10825 2.95785 2.46364 2.96927C1.62566 2.98069 0.84627 3.4431 0.418486 4.17955C-0.460521 5.65243 0.189944 7.83321 1.03965 9.03207C1.45571 9.62579 1.95382 10.2766 2.61014 10.2538C3.23131 10.2309 3.47743 9.85985 4.22752 9.85985C4.98346 9.85985 5.20028 10.2538 5.85661 10.2423C6.53637 10.2309 6.96416 9.64862 7.38022 9.0549C7.85489 8.38126 8.04827 7.72474 8.05999 7.69049C8.04827 7.67907 6.74734 7.19382 6.73562 5.73235C6.7239 4.51066 7.76112 3.92836 7.808 3.8941C7.222 3.04919 6.30783 2.95785 5.99139 2.93502ZM10.697 1.27945V10.1795H12.1151V7.13673H14.0783C15.8714 7.13673 17.1313 5.93787 17.1313 4.20238C17.1313 2.46689 15.8949 1.27945 14.1251 1.27945H10.697ZM12.1151 2.44406H13.7501C14.9807 2.44406 15.6839 3.08345 15.6839 4.20809C15.6839 5.33273 14.9807 5.97783 13.7442 5.97783H12.1151V2.44406ZM19.7215 10.2481C20.6122 10.2481 21.4385 9.80847 21.8135 9.11199H21.8428V10.1795H23.1555V5.74948C23.1555 4.46499 22.1007 3.63721 20.4774 3.63721C18.9714 3.63721 17.858 4.47641 17.817 5.62959H19.0945C19.1999 5.08154 19.7215 4.72189 20.4364 4.72189C21.3037 4.72189 21.7901 5.1158 21.7901 5.84082V6.33178L20.0203 6.43454C18.3737 6.53159 17.4829 7.18811 17.4829 8.32988C17.4829 9.48307 18.403 10.2481 19.7215 10.2481ZM20.1024 9.19191C19.3464 9.19191 18.8659 8.83797 18.8659 8.29563C18.8659 7.73616 19.3289 7.41075 20.2137 7.35937L21.7901 7.26232V7.7647C21.7901 8.59819 21.0634 9.19191 20.1024 9.19191ZM24.9076 12.6001C26.2906 12.6001 26.9411 12.0863 27.5095 10.5278L30 3.72284H28.5584L26.8883 8.98069H26.859L25.1889 3.72284H23.7063L26.1089 10.2024L25.98 10.5963C25.7632 11.2642 25.4116 11.5211 24.7846 11.5211C24.6732 11.5211 24.4564 11.5097 24.3685 11.4983V12.5658C24.4505 12.5887 24.8021 12.6001 24.9076 12.6001Z" fill="#9B9B9B"/>
</svg>
