<svg width="39" height="25" viewBox="0 0 39 25" fill="none" xmlns="http://www.w3.org/2000/svg">
<path d="M1.14674 10.4299C1.12718 10.4234 1.11719 8.65779 1.11719 5.21002V0H19.6282H38.1392V5.23089V10.4618L19.6577 10.4508C9.49294 10.4448 1.16299 10.4353 1.14674 10.4299Z" fill="#BDD1EC"/>
<path d="M34.2457 18.3961C34.802 18.1973 35.0682 17.8492 35.0682 17.3208C35.0682 16.8023 34.854 16.5506 34.3 16.4184C34.1165 16.3745 33.9045 16.3632 33.0665 16.3524L32.0545 16.3394V17.4232V18.5069L33.0221 18.4973L33.9898 18.4876L34.2457 18.3961ZM28.972 24.4221C28.9611 24.4111 28.9521 22.0637 28.9521 19.2056V14.0091L32.2096 14.0197C35.42 14.0301 35.4714 14.0312 35.7609 14.0942C36.5438 14.2648 37.0636 14.5271 37.4799 14.9619C37.9531 15.4562 38.1412 15.9819 38.141 16.8098C38.1407 17.8278 37.8987 18.5171 37.3629 19.026C37.1184 19.2584 36.9136 19.3848 36.5829 19.5077C36.4389 19.5613 36.3815 19.5935 36.4286 19.5944C36.5741 19.5972 36.8586 19.6865 37.1024 19.8058C37.5071 20.004 37.7884 20.339 37.9167 20.7757C37.9587 20.9189 38.2297 23.9923 38.2297 24.3262V24.4415H36.6342H35.0387L35.0381 24.05C35.037 23.2696 34.9814 22.0239 34.9386 21.8183C34.8221 21.2599 34.4867 20.9282 33.8833 20.775C33.6708 20.7211 33.5217 20.7099 32.845 20.6971L32.0549 20.6823L32.0473 22.5545L32.0397 24.4267L30.5158 24.4344C29.6777 24.4387 28.983 24.433 28.972 24.4221ZM10.6036 19.2265V14.0115H14.4742H18.3448V15.2821V16.5526H16.0106H13.6764V17.306V18.0594H15.8924H18.1084V19.2265V20.3936H15.8924H13.6764V21.1471V21.9005H16.0697H18.463V23.171V24.4415H14.5333H10.6036V19.2265ZM22.6734 24.6343C20.5125 24.3852 19.3524 23.4 18.9884 21.5047C18.9266 21.1832 18.9252 21.105 18.9145 17.5941L18.9036 14.0115H20.44H21.9765L21.987 17.4168C21.9965 20.5333 22.0018 20.8408 22.0491 21.0437C22.1934 21.662 22.5089 22.0036 23.0784 22.1584C23.3457 22.2311 24.0258 22.2296 24.2689 22.1559C24.8175 21.9895 25.1059 21.6703 25.2473 21.0732C25.2956 20.869 25.3005 20.5829 25.3099 17.4316L25.3202 14.0116H26.8554H28.3907V17.4063C28.3907 19.5525 28.3793 20.9136 28.3598 21.107C28.2918 21.7809 28.0965 22.4225 27.8127 22.9046C27.6342 23.2079 27.2038 23.6673 26.9057 23.8729C26.3657 24.2453 25.7179 24.4786 24.8688 24.6066C24.4387 24.6715 23.1383 24.6879 22.6734 24.6343ZM4.35337 24.7074C3.15018 24.5252 2.25733 24.1272 1.60269 23.4815C1.15195 23.0369 0.87991 22.5557 0.721398 21.9227C0.652297 21.6467 0.578116 21.0054 0.608611 20.9476C0.615042 20.9354 1.35456 20.9255 2.25198 20.9255H3.88366L3.91827 21.2512C3.98704 21.8982 4.21156 22.1645 4.82722 22.3293C5.11024 22.405 5.75212 22.4213 6.05288 22.3604C6.67601 22.2341 6.96953 21.9453 6.9692 21.4589C6.9692 21.28 6.95589 21.214 6.90269 21.1261C6.73221 20.8445 6.56618 20.7817 4.42834 20.1909C2.87727 19.7622 2.22854 19.4781 1.6866 18.9902C1.39159 18.7246 1.13224 18.2909 1.02652 17.8864C0.907714 17.4318 0.9237 16.7014 1.06367 16.1889C1.14162 15.9036 1.37596 15.4291 1.55533 15.1934C2.17682 14.3769 3.21979 13.8518 4.54575 13.6879C4.86269 13.6488 5.89574 13.6482 6.24546 13.6869C8.32008 13.9171 9.55704 14.8823 9.84698 16.4972C9.87141 16.6332 9.89542 16.831 9.90032 16.9366L9.90925 17.1287H8.3285H6.74775L6.72946 16.9584C6.6898 16.5894 6.53389 16.3812 6.15954 16.1973C5.87934 16.0597 5.59964 16.0123 5.16701 16.0292C4.45138 16.0571 4.15318 16.2594 4.15186 16.7178C4.15117 16.9423 4.24361 17.1152 4.43944 17.2558C4.73429 17.4676 5.1094 17.5813 6.30764 17.8221C8.14542 18.1914 9.03186 18.5477 9.64591 19.164C10.1439 19.6637 10.3672 20.2686 10.3672 21.1175C10.3672 22.4803 9.73363 23.5007 8.49752 24.1286C7.93183 24.4159 7.17224 24.627 6.36362 24.7216C5.82289 24.7849 4.81793 24.7778 4.35337 24.7074Z" fill="#E95128"/>
<path d="M38.142 0H7.28125V10.4344H38.142V0Z" fill="#6D9AD3"/>
<path d="M38.1392 0H16.5234V10.4344H38.1392V0Z" fill="#1C64B0"/>
</svg>
