<svg width="85" height="18" viewBox="0 0 85 18" fill="none" xmlns="http://www.w3.org/2000/svg">
<mask id="mask0_296_6073" style="mask-type:luminance" maskUnits="userSpaceOnUse" x="0" y="0" width="52" height="19">
<path d="M0.234375 0.755859H51.3084V18.0085H0.234375V0.755859Z" fill="white"/>
</mask>
<g mask="url(#mask0_296_6073)">
<path d="M39.0614 8.80544H40.9999C42.466 8.80544 43.0627 8.38858 43.0627 7.3084C43.0627 6.52323 42.5653 6.22822 41.2235 6.22822H39.4335L39.0614 8.80544ZM40.8254 14.2292H38.2652L37.7187 18.0085H29.665L32.1259 0.755859H44.4305C49.1528 0.755859 51.2407 2.42423 51.2407 6.17966C51.2407 9.07572 50.2218 10.9896 48.2081 12.2411L50.4204 18.0085H41.9696L40.8254 14.2292ZM8.03931 18.0085H0.234375L2.69528 0.755859H13.4836L14.9748 8.16778L17.4598 3.08755C18.256 1.443 19.3741 0.755859 21.2384 0.755859H29.3913L26.9313 18.0085H19.1255L20.2937 10.7441L20.6167 9.07572L19.4484 11.3827L15.8442 18.0085H11.0718L9.55557 11.3827L9.1083 9.10045L8.9589 10.7441L8.03931 18.0085Z" fill="#203263"/>
</g>
<mask id="mask1_296_6073" style="mask-type:luminance" maskUnits="userSpaceOnUse" x="51" y="0" width="22" height="19">
<path d="M51.7812 0.755859H72.9235V18.0085H51.7812V0.755859Z" fill="white"/>
</mask>
<g mask="url(#mask1_296_6073)">
<path d="M61.4823 18.0085H51.9375L54.2991 0.755859H61.7561L60.7622 7.16181L60.2899 9.46784L61.9305 6.54797L64.1427 2.96478C65.1366 1.3697 66.2306 0.755859 68.144 0.755859H72.768L61.4823 18.0085Z" fill="#F05349"/>
</g>
<mask id="mask2_296_6073" style="mask-type:luminance" maskUnits="userSpaceOnUse" x="65" y="0" width="20" height="19">
<path d="M65.0859 0.755859H84.8289V18.0085H65.0859V0.755859Z" fill="white"/>
</mask>
<g mask="url(#mask2_296_6073)">
<path d="M73.9895 18.0085H65.2891L65.637 13.8362L73.5673 1.51629L72.8704 6.54797L72.2496 9.81233L73.7408 7.16181L76.326 2.96478C77.3199 1.3697 78.4139 0.755859 80.3282 0.755859H84.8269L73.9895 18.0085Z" fill="#F05349"/>
</g>
</svg>
