<svg width="43" height="27" viewBox="0 0 43 27" fill="none" xmlns="http://www.w3.org/2000/svg">
<rect x="0.700195" y="0.5" width="41" height="26" rx="3.5" fill="white" stroke="#9B9B9B"/>
<path d="M17.1345 16.8491V8.11377H20.4109C21.0829 8.11377 21.6461 8.23874 22.1026 8.48868C22.559 8.73863 22.9049 9.08275 23.1386 9.51925C23.3722 9.95574 23.4899 10.452 23.4899 11.0062C23.4899 11.5605 23.3722 12.064 23.1367 12.4986C22.9013 12.9333 22.5517 13.2756 22.0917 13.5238C21.6316 13.7719 21.0629 13.8969 20.3892 13.8969H18.2176V12.5964H20.1755C20.5685 12.5964 20.8891 12.5276 21.139 12.3918C21.3889 12.2559 21.5755 12.0676 21.695 11.8285C21.8164 11.5894 21.8762 11.3159 21.8762 11.0044C21.8762 10.6929 21.8164 10.4212 21.695 10.1858C21.5737 9.95031 21.3871 9.76557 21.1354 9.63335C20.8836 9.50114 20.5594 9.43593 20.1646 9.43593H18.7138V16.8509H17.1309L17.1345 16.8491Z" fill="#9B9B9B"/>
<path d="M26.5665 16.9817C26.1518 16.9817 25.7787 16.9074 25.4472 16.7571C25.1158 16.6086 24.855 16.3876 24.663 16.0942C24.471 15.8008 24.375 15.4404 24.375 15.0111C24.375 14.6416 24.4438 14.3355 24.5797 14.0946C24.7155 13.8538 24.9021 13.66 25.1393 13.5151C25.3748 13.3702 25.641 13.2597 25.9399 13.1836C26.2369 13.1075 26.5448 13.0532 26.8636 13.0188C27.2475 12.979 27.5591 12.9427 27.7981 12.9101C28.0372 12.8775 28.2111 12.8268 28.3216 12.7562C28.4321 12.6855 28.4864 12.5769 28.4864 12.4302V12.4048C28.4864 12.0842 28.3904 11.8343 28.2002 11.6586C28.01 11.4829 27.7347 11.3942 27.3761 11.3942C26.9976 11.3942 26.6987 11.4775 26.4778 11.6423C26.2568 11.8071 26.1083 12.0027 26.0322 12.2273L24.5905 12.0226C24.7046 11.6242 24.8912 11.2909 25.1538 11.0229C25.4146 10.7548 25.7352 10.552 26.1137 10.4179C26.4923 10.2821 26.9107 10.2151 27.3671 10.2151C27.6822 10.2151 27.9974 10.2513 28.3107 10.3256C28.624 10.3998 28.9102 10.5212 29.1674 10.6896C29.4264 10.8581 29.6347 11.0881 29.7922 11.3779C29.9498 11.6677 30.0295 12.0299 30.0295 12.4664V16.8513H28.5443V15.9511H28.4936C28.3994 16.1322 28.269 16.3025 28.0988 16.46C27.9304 16.6176 27.7184 16.7444 27.4631 16.8404C27.2077 16.9364 26.9107 16.9835 26.5702 16.9835L26.5665 16.9817ZM26.9668 15.8479C27.2765 15.8479 27.5464 15.7863 27.7728 15.6631C28.001 15.54 28.1767 15.3751 28.2998 15.1705C28.423 14.9658 28.4846 14.743 28.4846 14.5003V13.7288C28.4357 13.7686 28.3542 13.8049 28.2401 13.8393C28.126 13.8737 27.9956 13.9027 27.8543 13.9298C27.7112 13.9552 27.5717 13.9787 27.4323 13.9986C27.2928 14.0186 27.1715 14.0367 27.07 14.0494C26.84 14.0802 26.6335 14.1327 26.4506 14.2033C26.2677 14.2739 26.1246 14.3736 26.0196 14.5003C25.9145 14.6271 25.862 14.7901 25.862 14.9894C25.862 15.2737 25.9652 15.4893 26.1735 15.6341C26.3818 15.779 26.6462 15.8515 26.9668 15.8515V15.8479Z" fill="#9B9B9B"/>
<path d="M32.3051 19.3068C32.095 19.3068 31.9012 19.2905 31.7237 19.2579C31.5462 19.2253 31.4049 19.1873 31.2999 19.1456L31.6585 17.943C31.8831 18.0082 32.0841 18.039 32.2598 18.0372C32.4355 18.0336 32.5912 17.9792 32.7271 17.8724C32.8629 17.7655 32.977 17.588 33.0712 17.3417L33.2034 16.9885L30.8271 10.2998H32.4645L33.975 15.248H34.0438L35.558 10.2998H37.2007L34.5763 17.646C34.4531 17.9937 34.2919 18.2907 34.0891 18.5389C33.8862 18.787 33.6399 18.979 33.3483 19.1112C33.0567 19.2434 32.709 19.3086 32.3051 19.3086V19.3068Z" fill="#9B9B9B"/>
<path d="M10.0451 17.3165C7.59096 17.3165 5.80875 15.6683 5.80875 13.3989C5.80875 12.5803 6.0587 11.3758 7.24864 10.2891L7.27219 10.2674L8.53096 11.5696C8.51647 11.5841 8.49655 11.6022 8.47119 11.6258C7.9061 12.1419 7.61994 12.7378 7.61994 13.3989C7.61994 14.6595 8.59435 15.5053 10.0451 15.5053C11.9269 15.5053 13.144 14.1922 13.144 12.1582C13.144 10.5354 11.8653 8.81118 9.49632 8.81118C7.74129 8.81118 6.53504 10.0555 6.52417 10.0681L5.2002 8.82929C5.26902 8.75504 6.9335 7 9.49451 7C12.9122 7 14.9534 9.62259 14.9534 12.1582C14.9534 15.1956 12.9339 17.3165 10.0433 17.3165H10.0451Z" fill="#9B9B9B"/>
</svg>
