<svg width="75" height="24" viewBox="0 0 75 24" fill="none" xmlns="http://www.w3.org/2000/svg">
<path d="M74.8279 0.882812V17.3038H0.828125V0.882812H74.8279Z" fill="#FFCC00"/>
<path d="M13.8408 3.83203L11.4766 7.06187H24.3619C25.0132 7.06187 25.0046 7.31072 24.6862 7.74438C24.3629 8.18459 23.8219 8.95018 23.4926 9.39736C23.3255 9.62429 23.0233 10.0377 24.0246 10.0377H29.2939C29.2939 10.0377 30.1432 8.87563 30.855 7.90398C31.8236 6.58241 30.939 3.83216 27.4765 3.83216L13.8408 3.83203Z" fill="#D2002E"/>
<path d="M10.5209 14.3545L15.2696 7.86631H21.1624C21.8137 7.86631 21.8053 8.11516 21.4869 8.54882C21.1636 8.98903 20.6137 9.74648 20.2843 10.1937C20.1171 10.4206 19.8151 10.8347 20.8162 10.8347H28.7108C28.0543 11.7391 25.9246 14.3543 22.1005 14.3543L10.5209 14.3545ZM37.717 10.8339L35.1418 14.3542H28.3489C28.3489 14.3542 30.9226 10.8347 30.9248 10.8347L37.717 10.8339ZM48.1235 10.0377H31.5084L36.052 3.83203H42.8429L40.2387 7.39039H43.2699L45.8752 3.83203H52.6654L48.1235 10.0377ZM47.5403 10.8348L44.9639 14.3545H38.1734C38.1734 14.3545 40.7472 10.8348 40.7494 10.8348H47.5403ZM0.828125 12.2227H10.8354L10.2888 12.9704H0.828125V12.2227ZM0.828125 10.8348H11.8521L11.3044 11.5815H0.828125V10.8348ZM0.828125 13.6113H9.81927L9.27523 14.3545H0.828125V13.6113ZM74.8281 12.9704H64.8593L65.4065 12.2228H74.8281V12.9704ZM74.8281 14.3545L63.8459 14.3555L64.39 13.6113H74.8281V14.3545ZM66.4219 10.8348H74.8281V11.5819L65.8752 11.5826L66.4219 10.8348ZM62.0701 3.83203L57.5273 10.0376H50.3315C50.3315 10.0376 54.8754 3.83203 54.8777 3.83203H62.0701ZM49.7492 10.8348C49.7492 10.8348 49.2528 11.5169 49.0118 11.8448C48.1588 13.004 48.9129 14.3545 51.6964 14.3545H62.6024L65.1785 10.8348H49.7492Z" fill="#D2002E"/>
<path d="M0.828125 19.9727H74.8281V20.3446H0.828125V19.9727ZM0.828125 21.7085H74.8281V22.0804H0.828125V21.7085ZM0.828125 23.4439H74.8281V23.8158H0.828125V23.4439Z" fill="#FFCC00"/>
<path d="M25.6797 23.8173H27.9068L28.2622 23.3328H26.6049L27.5342 22.0665H29.0435L29.3991 21.5819H27.8898L28.7139 20.4589H30.3714L30.7269 19.9744H28.5L25.6797 23.8173ZM28.4128 23.8173H29.0963L31.4258 22.1876L31.4029 23.8173H32.1206L32.1259 21.8078L34.8098 19.9744H34.1606L32.0241 21.4499L32.0475 19.9744H31.364L31.3433 21.8188L28.4128 23.8173ZM35.672 20.4589H36.1561C36.5093 20.4589 36.9039 20.6351 36.5483 21.1195C36.1766 21.6259 35.6071 21.7966 35.2539 21.7966H34.69L35.672 20.4589ZM32.6377 23.8173H33.2072L34.3345 22.2812H34.8926C35.6102 22.2812 36.5216 21.9784 37.1479 21.1249C37.7903 20.2495 37.3145 19.9741 36.5002 19.9741H35.4579L32.6377 23.8173ZM35.9175 23.8173H36.4871L37.7397 22.1105H38.0813C38.383 22.1105 38.5713 22.1105 38.4731 22.4848L38.1048 23.8173H38.7541L39.1256 22.2866C39.174 22.05 39.1494 21.9674 39.0211 21.9011L39.0292 21.8901C39.5472 21.8129 40.1483 21.4827 40.4919 21.0147C41.1666 20.0954 40.498 19.9741 39.7118 19.9741H38.738L35.9175 23.8173ZM38.9519 20.4589H39.4985C40.0227 20.4589 40.1343 20.6792 39.8799 21.0258C39.6092 21.3949 39.1205 21.6259 38.5794 21.6259H38.0952L38.9519 20.4589ZM39.3439 23.8173H41.5709L41.9262 23.3328H40.269L41.1983 22.0665H42.7077L43.063 21.5819H41.5538L42.378 20.4589H44.0354L44.3911 19.9744H42.1642L39.3439 23.8173ZM47.1344 20.0459C46.9297 19.9523 46.6486 19.9082 46.3866 19.9082C45.669 19.9082 44.8442 20.2718 44.3431 20.9544C43.4663 22.1492 45.3488 21.9124 44.7183 22.7713C44.3871 23.2226 43.802 23.399 43.4775 23.399C43.1869 23.399 42.9261 23.2887 42.789 23.2115L42.3564 23.7237C42.5578 23.8062 42.7748 23.8834 43.0539 23.8834C43.8511 23.8834 44.7446 23.5582 45.3466 22.7379C46.2758 21.4718 44.4418 21.6422 44.9833 20.9047C45.2784 20.5028 45.7352 20.3927 46.054 20.3927C46.3503 20.3927 46.4732 20.4424 46.6828 20.5524L47.1344 20.0459ZM49.9823 20.0459C49.7776 19.9523 49.4966 19.9082 49.2345 19.9082C48.5168 19.9082 47.692 20.2718 47.1909 20.9544C46.3142 22.1492 48.1967 21.9124 47.5662 22.7713C47.2351 23.2226 46.6499 23.399 46.3254 23.399C46.0347 23.399 45.7738 23.2887 45.637 23.2115L45.2043 23.7237C45.4057 23.8062 45.6226 23.8834 45.9016 23.8834C46.699 23.8834 47.5923 23.5582 48.1943 22.7379C49.1237 21.4718 47.2897 21.6422 47.8312 20.9047C48.1262 20.5028 48.583 20.3927 48.9019 20.3927C49.1982 20.3927 49.3213 20.4424 49.5306 20.5524L49.9823 20.0459Z" fill="#D2002E"/>
</svg>
