<svg width="26" height="25" viewBox="0 0 26 25" fill="none" xmlns="http://www.w3.org/2000/svg">
<path d="M17.609 10.4858H12.8037H8.00781V9.688V8.88086H12.8037H17.609V9.688V10.4858Z" fill="#00457D"/>
<path d="M16.7983 2.88477C16.2164 2.88477 15.6721 3.0537 15.1934 3.32588C14.7241 3.0537 14.1798 2.88477 13.5979 2.88477C13.3163 2.88477 13.0442 2.92231 12.7814 2.99739C12.528 2.93169 12.2746 2.88477 12.0024 2.88477C11.4205 2.88477 10.8855 3.0537 10.4069 3.32588C9.9376 3.0537 9.38386 2.88477 8.80197 2.88477C7.03752 2.88477 5.60156 4.32073 5.60156 6.08518V7.69007H7.20646V6.08518C7.20646 5.20295 7.91975 4.48028 8.81136 4.48028C8.95214 4.48028 9.09292 4.50843 9.22431 4.53659C8.97091 4.99647 8.81136 5.51267 8.81136 6.07579V7.68069H10.4163V6.08518C10.4163 5.20295 11.1295 4.48028 12.0212 4.48028V7.68069H13.626V4.48028C14.5083 4.48028 15.2309 5.19357 15.2309 6.08518V7.69007H16.7983V6.08518C16.7983 5.52205 16.6388 5.00586 16.3853 4.54598C16.5167 4.50843 16.6575 4.48966 16.7983 4.48966C17.6805 4.48966 18.4032 5.20295 18.4032 6.09456V7.69946H20.0081V6.08518C19.9987 4.31134 18.5721 2.88477 16.7983 2.88477Z" fill="#00457D"/>
<path d="M13.1485 1.02622V0.275391H12.454V1.02622H11.7031V1.73012H12.454V2.48095H13.1485V1.73012H13.9087V1.02622H13.1485Z" fill="#00457D"/>
<path d="M20.8074 11.6777C20.8074 13.5736 20.1504 15.3099 19.0523 16.6801C18.4141 13.8176 15.8613 11.6777 12.811 11.6777C10.8964 11.6777 9.17889 12.5224 8.00572 13.8551V11.6777H0C0 18.7543 5.73446 24.4888 12.8016 24.4888C19.8688 24.4888 25.6033 18.7543 25.6033 11.6871H20.8074V11.6777ZM1.72691 13.2826H6.40082V18.0879C6.40082 19.3362 6.76685 20.5 7.38628 21.4948C4.38296 19.8242 2.23372 16.8209 1.72691 13.2826ZM12.8016 22.8839C10.155 22.8839 7.99633 20.7346 7.99633 18.0786C7.99633 15.4225 10.1456 13.2826 12.8016 13.2826C15.4577 13.2826 17.5976 15.4319 17.5976 18.0692C17.0532 18.4821 16.4619 18.82 15.8237 19.0828C15.927 18.7637 16.002 18.4352 16.002 18.0786C16.002 16.2672 14.5661 14.8781 12.8016 14.8781C11.0372 14.8781 9.60123 16.3047 9.60123 18.0786C9.60123 19.8524 11.0278 21.279 12.8016 21.279C17.56 21.279 21.5113 17.8158 22.2715 13.2826H23.8951C23.1255 18.7074 18.4422 22.8839 12.8016 22.8839ZM14.4065 18.0786C14.4065 18.9608 13.6932 19.6741 12.811 19.6741C11.9288 19.6741 11.2155 18.9608 11.2155 18.0786C11.2155 17.1963 11.9288 16.483 12.811 16.483C13.6932 16.483 14.4065 17.1963 14.4065 18.0786Z" fill="#00457D"/>
</svg>
