<svg width="144" height="51" viewBox="0 0 144 51" fill="none" xmlns="http://www.w3.org/2000/svg">
<path d="M8.96557 31.2526C-1.86474 19.3426 13.0506 2.34764 26.7003 11.1076C31.2578 14.0276 33.1727 18.6826 32.4452 25.0726C32.4148 25.3276 32.526 25.4951 32.7786 25.5751C37.4852 27.0826 37.5913 32.9701 33.1348 34.9276C32.9024 35.0326 32.7988 35.2101 32.8241 35.4601L33.491 42.2776C33.5214 42.5926 33.3748 42.7501 33.0515 42.7501H11.3454C11.2954 42.7496 11.2461 42.7385 11.2009 42.7175C11.1556 42.6965 11.1155 42.6662 11.0831 42.6285C11.0508 42.5908 11.027 42.5466 11.0134 42.499C10.9998 42.4514 10.9967 42.4015 11.0043 42.3526L11.1407 41.5876C11.1494 41.5332 11.1469 41.4775 11.1334 41.4242C11.12 41.3708 11.0958 41.3208 11.0625 41.2773C11.0291 41.2337 10.9873 41.1976 10.9395 41.171C10.8917 41.1444 10.839 41.1279 10.7845 41.1226C5.5702 40.5451 4.53947 34.4701 8.88978 31.7776C9.12726 31.6276 9.15252 31.4526 8.96557 31.2526ZM29.7546 25.2151C31.278 20.8276 29.3984 16.2076 25.7226 13.5901C19.4852 9.15014 9.95842 11.8276 8.12431 19.3126C7.25526 22.8776 7.78073 25.8601 9.70073 28.2601C13.8742 33.4751 19.0936 34.4176 25.3588 31.0876C26.6548 30.3976 26.3289 28.8976 26.958 27.8776C27.5188 26.9576 28.2944 26.2476 29.2847 25.7476C29.5172 25.6326 29.6738 25.4551 29.7546 25.2151ZM33.9988 30.3226C33.9988 29.6344 33.7226 28.9744 33.2308 28.4877C32.739 28.001 32.072 27.7276 31.3765 27.7276C30.681 27.7276 30.014 28.001 29.5223 28.4877C29.0305 28.9744 28.7542 29.6344 28.7542 30.3226C28.7542 31.0109 29.0305 31.6709 29.5223 32.1576C30.014 32.6442 30.681 32.9176 31.3765 32.9176C32.072 32.9176 32.739 32.6442 33.2308 32.1576C33.7226 31.6709 33.9988 31.0109 33.9988 30.3226ZM27.102 33.0976C27.0903 33.0805 27.0751 33.066 27.0573 33.0548C27.0395 33.0437 27.0195 33.0362 26.9983 33.0327C26.9772 33.0292 26.9554 33.0298 26.9342 33.0345C26.913 33.0393 26.8927 33.048 26.8746 33.0601C23.7369 35.1601 20.2759 35.9001 16.4915 35.2801C16.2237 35.2401 16.1075 35.3526 16.1428 35.6176C16.355 37.2876 15.8473 38.6926 14.6195 39.8326C14.3163 40.1126 14.3719 40.2526 14.7862 40.2526L30.1336 40.2301C30.4721 40.2301 30.6186 40.0651 30.5732 39.7351L29.982 35.5351C29.9416 35.2651 29.795 35.0776 29.5424 34.9726C28.5622 34.5526 27.7487 33.9276 27.102 33.0976ZM13.8313 36.2026C13.8313 35.5144 13.555 34.8544 13.0632 34.3677C12.5714 33.881 11.9044 33.6076 11.2089 33.6076C10.5135 33.6076 9.84646 33.881 9.35468 34.3677C8.86291 34.8544 8.58663 35.5144 8.58663 36.2026C8.58663 36.8909 8.86291 37.5509 9.35468 38.0376C9.84646 38.5242 10.5135 38.7976 11.2089 38.7976C11.9044 38.7976 12.5714 38.5242 13.0632 38.0376C13.555 37.5509 13.8313 36.8909 13.8313 36.2026Z" fill="#1F8FCD"/>
<path d="M24.8576 17.8861L11.5351 23.0527C10.6387 23.4003 10.1969 24.4012 10.5481 25.2882L10.5813 25.372C10.9326 26.259 11.944 26.6963 12.8403 26.3487L26.1629 21.182C27.0592 20.8344 27.5011 19.8335 27.1498 18.9465L27.1166 18.8627C26.7654 17.9757 25.754 17.5384 24.8576 17.8861Z" fill="#1F8FCD"/>
<path d="M110.086 17.9311L108.722 17.9335C108.211 17.9343 107.798 18.3447 107.798 18.8501L107.823 32.89C107.824 33.3954 108.239 33.8043 108.749 33.8034L110.114 33.8011C110.624 33.8002 111.038 33.3898 111.037 32.8845L111.012 18.8445C111.011 18.3392 110.596 17.9302 110.086 17.9311Z" fill="#464743"/>
<path d="M118.193 22.0949C113.457 26.3024 118.724 32.9924 124.113 30.1124C124.221 30.0527 124.346 30.0306 124.468 30.0497C124.59 30.0687 124.703 30.1278 124.787 30.2174L126.273 31.7999C126.459 31.9949 126.442 32.1674 126.219 32.3174C124.037 33.8574 121.75 34.2774 119.361 33.5774C107.348 30.0449 115.086 12.7949 126.075 19.2149C126.13 19.247 126.177 19.2905 126.213 19.3423C126.249 19.3942 126.274 19.4532 126.284 19.5152C126.295 19.5772 126.292 19.6409 126.276 19.7017C126.259 19.7625 126.23 19.819 126.189 19.8674L124.886 21.4049C124.699 21.6299 124.471 21.6824 124.203 21.5624C121.798 20.4974 119.795 20.6749 118.193 22.0949Z" fill="#464743"/>
<path d="M51.9383 30.4949C52.6255 30.2649 53.2192 30.4074 53.7194 30.9224L54.7198 31.9349C54.9977 32.2199 54.9547 32.4449 54.591 32.6099C49.7051 34.8449 45.9358 34.1824 43.2832 30.6224C37.6899 23.1074 46.671 14.8199 54.4924 19.3574C54.74 19.5024 54.7703 19.6849 54.5834 19.9049L53.1737 21.5324C52.9665 21.7724 52.7215 21.8174 52.4385 21.6674C46.9362 18.6899 41.7219 25.8749 46.7164 29.8424C48.1211 30.9624 49.8617 31.1799 51.9383 30.4949Z" fill="#464743"/>
<path d="M70.7117 25.9351C70.7117 28.0734 69.8533 30.1241 68.3254 31.6361C66.7975 33.1481 64.7252 33.9976 62.5644 33.9976C60.4035 33.9976 58.3312 33.1481 56.8033 31.6361C55.2754 30.1241 54.417 28.0734 54.417 25.9351C54.417 23.7968 55.2754 21.746 56.8033 20.234C58.3312 18.722 60.4035 17.8726 62.5644 17.8726C64.7252 17.8726 66.7975 18.722 68.3254 20.234C69.8533 21.746 70.7117 23.7968 70.7117 25.9351ZM67.6271 25.9276C67.6271 25.2696 67.4961 24.6182 67.2417 24.0103C66.9873 23.4025 66.6144 22.8502 66.1443 22.385C65.6741 21.9197 65.116 21.5507 64.5018 21.2989C63.8875 21.0471 63.2292 20.9176 62.5644 20.9176C61.2216 20.9176 59.9339 21.4454 58.9845 22.385C58.035 23.3245 57.5016 24.5988 57.5016 25.9276C57.5016 27.2563 58.035 28.5306 58.9845 29.4702C59.9339 30.4097 61.2216 30.9376 62.5644 30.9376C63.2292 30.9376 63.8875 30.808 64.5018 30.5562C65.116 30.3044 65.6741 29.9354 66.1443 29.4702C66.6144 29.0049 66.9873 28.4526 67.2417 27.8448C67.4961 27.237 67.6271 26.5855 67.6271 25.9276Z" fill="#464743"/>
<path d="M89.9089 22.8974C91.4474 25.9124 91.1063 30.3449 91.0305 33.3299C91.0204 33.6199 90.8689 33.7674 90.5758 33.7724H88.4764C88.1632 33.7724 88.0116 33.6174 88.0217 33.3074C88.1682 29.6624 88.1278 27.2499 87.9004 26.0699C86.6272 19.3199 76.911 19.2374 75.7211 26.4374C75.5442 27.5024 75.5341 29.7899 75.6908 33.2999C75.6938 33.3608 75.6844 33.4218 75.6629 33.479C75.6414 33.5362 75.6084 33.5885 75.5659 33.6327C75.5233 33.6769 75.4722 33.7121 75.4155 33.7361C75.3588 33.7601 75.2977 33.7724 75.236 33.7724H73.1215C72.8436 33.7724 72.692 33.6374 72.6668 33.3674C72.2423 29.3024 72.3484 26.3149 72.9851 24.4049C75.5695 16.6274 86.127 15.4799 89.9089 22.8974Z" fill="#464743"/>
<path d="M93.3043 33.4498C93.0391 24.1273 91.7582 16.0573 104.574 18.1123C104.837 18.1523 104.966 18.3048 104.961 18.5698L104.946 20.6098C104.941 20.9198 104.781 21.0723 104.468 21.0673C101.103 21.0523 96.9195 20.3548 96.6845 24.3823C96.5026 27.3873 96.4572 30.4023 96.5481 33.4273C96.5582 33.6623 96.4471 33.7773 96.2146 33.7723H93.6378C93.4256 33.7723 93.3144 33.6648 93.3043 33.4498Z" fill="#464743"/>
<path d="M131.843 29.625L131.896 33.405C131.901 33.69 131.76 33.8325 131.472 33.8325L129.289 33.84C129.016 33.845 128.88 33.7125 128.88 33.4425V18.3675C128.88 18.1075 129.011 17.9775 129.274 17.9775C133.708 17.9625 140.802 18.255 139.309 25.0125C138.581 28.3125 135.269 28.845 132.268 29.16C131.985 29.19 131.843 29.345 131.843 29.625ZM131.866 21.5775V25.6125C131.867 25.6687 131.879 25.7241 131.902 25.7756C131.924 25.8271 131.957 25.8736 131.998 25.9126C132.039 25.9516 132.087 25.9823 132.14 26.0029C132.192 26.0235 132.249 26.0335 132.306 26.0325H132.942C133.893 26.0303 134.804 25.7825 135.474 25.3437C136.145 24.9049 136.521 24.311 136.519 23.6925V23.4675C136.519 23.1611 136.425 22.858 136.244 22.5753C136.063 22.2926 135.798 22.036 135.465 21.8201C135.131 21.6042 134.735 21.4332 134.3 21.3169C133.864 21.2007 133.398 21.1414 132.927 21.1425H132.29C132.234 21.1435 132.178 21.1555 132.126 21.1779C132.074 21.2003 132.027 21.2326 131.987 21.273C131.948 21.3134 131.917 21.3611 131.896 21.4134C131.875 21.4656 131.865 21.5214 131.866 21.5775Z" fill="#464743"/>
<path d="M125.07 24.4637L119.871 24.4816C119.356 24.4834 118.94 24.8979 118.942 25.4074L118.946 26.5624C118.948 27.0718 119.366 27.4834 119.881 27.4816L125.08 27.4637C125.595 27.4619 126.011 27.0474 126.009 26.538L126.005 25.383C126.003 24.8735 125.585 24.4619 125.07 24.4637Z" fill="#464743"/>
<path d="M82.4523 25.6091L81.0578 25.6164C80.6057 25.6187 80.2412 25.9832 80.2435 26.4306L80.2784 33.0155C80.2808 33.4628 80.6491 33.8236 81.1012 33.8213L82.4957 33.814C82.9477 33.8117 83.3123 33.4471 83.3099 32.9998L83.2751 26.4149C83.2727 25.9675 82.9043 25.6068 82.4523 25.6091Z" fill="#464743"/>
<path d="M103.98 25.8702L98.6293 25.8794C98.1647 25.8802 97.7887 26.2536 97.7896 26.7134L97.7919 28.0334C97.7927 28.4931 98.17 28.8652 98.6346 28.8644L103.985 28.8552C104.45 28.8544 104.826 28.481 104.825 28.0212L104.823 26.7012C104.822 26.2414 104.445 25.8694 103.98 25.8702Z" fill="#464743"/>
<path d="M133.89 30.9824C133.844 30.9519 133.813 30.9051 133.801 30.852C133.79 30.7988 133.8 30.7434 133.829 30.6974L133.905 30.5849C134.117 30.2677 134.389 29.9939 134.705 29.7793C135.02 29.5646 135.374 29.4132 135.745 29.3338C136.116 29.2544 136.497 29.2485 136.867 29.3165C137.236 29.3844 137.587 29.5249 137.899 29.7299L138.013 29.8049C138.325 30.0096 138.593 30.2748 138.8 30.5855C139.007 30.8961 139.15 31.2461 139.22 31.6153C139.291 31.9845 139.287 32.3657 139.21 32.7371C139.133 33.1086 138.984 33.4629 138.771 33.7799L138.695 33.8924C138.679 33.9151 138.659 33.9344 138.635 33.9493C138.612 33.9642 138.585 33.9744 138.558 33.9793C138.531 33.9842 138.502 33.9836 138.475 33.9777C138.448 33.9718 138.422 33.9607 138.399 33.9449L133.89 30.9824Z" fill="#464743"/>
</svg>
