<svg width="14" height="14" viewBox="0 0 14 14" fill="none" xmlns="http://www.w3.org/2000/svg">
<path d="M6.90676 10.4903L7.16212 10.6423L10.5115 12.6374L10.5117 12.6374C10.7619 12.7866 11.027 12.559 10.9717 12.3237L6.90676 10.4903ZM6.90676 10.4903L6.65114 10.6419L3.30171 12.629L3.30082 12.6295C3.05049 12.7787 2.78528 12.5509 2.84087 12.3155L3.72861 8.56415L3.79895 8.26692L3.56661 8.06865L0.604582 5.54111L0.604406 5.54096C0.410935 5.37603 0.502686 5.05064 0.779118 5.02899L0.779118 5.029L0.781721 5.02878L4.67997 4.7029L4.97872 4.67793L5.09744 4.40265L6.62285 0.865678L6.62285 0.86568L6.62369 0.86372C6.72536 0.625179 7.08714 0.625179 7.18881 0.863721L7.18949 0.865303L8.71489 4.41022L8.8335 4.68585L9.13253 4.71085L13.0308 5.03673L13.0334 5.03694C13.3098 5.05859 13.4016 5.38397 13.2081 5.54891L13.2079 5.54906L10.2459 8.0766L10.0135 8.27487L10.0839 8.57209L10.9716 12.3234L6.90676 10.4903Z" stroke="#F0C862"/>
</svg>
