<svg width="24" height="25" viewBox="0 0 24 25" fill="none" xmlns="http://www.w3.org/2000/svg">
<ellipse cx="12" cy="12.002" rx="12" ry="12" transform="rotate(-90 12 12.002)" fill="#1D1B1B"/>
<path d="M9 15.9759C9 17.0958 9 17.6558 9.22678 17.9323C9.42382 18.1726 9.72136 18.3076 10.0319 18.2977C10.3894 18.2863 10.8108 17.9175 11.6536 17.18L15.6239 13.7061C16.099 13.2903 16.3366 13.0825 16.4239 12.8362C16.5006 12.62 16.5006 12.3839 16.4239 12.1677C16.3366 11.9214 16.099 11.7136 15.6239 11.2978L11.6536 7.82386C10.8108 7.08639 10.3894 6.71765 10.0319 6.70623C9.72136 6.69631 9.42382 6.83132 9.22678 7.07159C9 7.3481 9 7.90806 9 9.02798L9 15.9759Z" fill="white"/>
</svg>
