<svg width="43" height="28" viewBox="0 0 43 28" fill="none" xmlns="http://www.w3.org/2000/svg">
<rect x="1.09998" y="1.4707" width="41" height="26" rx="6.5" fill="white" stroke="#F3D869"/>
<path d="M21.1975 14.3646V18.1996H19.9607V8.71533H23.1775C23.9607 8.71533 24.7025 9.00344 25.2807 9.53969C25.8582 10.034 26.1469 10.7765 26.1469 11.5603C26.1469 12.344 25.8588 13.0446 25.2807 13.5809C24.7032 14.1171 24.0025 14.4053 23.1775 14.4053L21.1975 14.3646ZM21.1975 9.86969V13.169H23.26C23.7138 13.169 24.1675 13.0034 24.4563 12.6747C25.1163 12.0566 25.1163 11.0253 24.4969 10.4066L24.4563 10.3647C24.1263 10.0347 23.7138 9.82844 23.26 9.87033H21.1975V9.86969Z" fill="#F3D869"/>
<path d="M28.9919 11.52C29.8994 11.52 30.6 11.7669 31.1362 12.2625C31.6725 12.7569 31.9193 13.4169 31.9193 14.2419V18.2012H30.765V17.2937H30.7244C30.23 18.0362 29.5281 18.4075 28.7038 18.4075C28.0032 18.4075 27.3838 18.2012 26.8894 17.7894C26.4357 17.3769 26.1469 16.7994 26.1469 16.1813C26.1469 15.5213 26.3944 14.9863 26.8894 14.5732C27.3838 14.1607 28.0844 13.9957 28.91 13.9957C29.6525 13.9957 30.23 14.1194 30.6831 14.4082V14.1201C30.6831 13.7076 30.5188 13.2957 30.1888 13.0476C29.8588 12.7595 29.4463 12.5938 28.9925 12.5938C28.2919 12.5938 27.7557 12.8819 27.3844 13.4601L26.3119 12.8001C26.9713 11.9319 27.8375 11.52 28.9919 11.52ZM27.425 16.2206C27.425 16.5506 27.5894 16.8387 27.8375 17.0037C28.1256 17.2099 28.4556 17.3337 28.7856 17.3337C29.28 17.3337 29.7756 17.1274 30.1462 16.7568C30.5587 16.3849 30.7643 15.9325 30.7643 15.4368C30.3937 15.1487 29.8568 14.9831 29.1562 14.9831C28.6619 14.9831 28.2487 15.1068 27.9194 15.3537C27.5894 15.5606 27.425 15.8493 27.425 16.2206Z" fill="#F3D869"/>
<path d="M38.6 11.7256L34.5182 21.0855H33.2801L34.8063 17.828L32.1257 11.7662H33.4457L35.3832 16.4255H35.4244L37.3213 11.7662H38.6V11.7256Z" fill="#F3D869"/>
<path d="M16.2914 13.5405C16.2914 13.1686 16.2495 12.798 16.2089 12.4268H11.0546V14.5299H13.982C13.8583 15.1899 13.4877 15.808 12.9095 16.1792V17.5398H14.6826C15.7132 16.5917 16.2914 15.1892 16.2914 13.5405Z" fill="#F3D869"/>
<path d="M11.0534 18.8592C12.5378 18.8592 13.7746 18.3649 14.6828 17.5392L12.9097 16.1786C12.4153 16.5086 11.7959 16.7149 11.0547 16.7149C9.65222 16.7149 8.41537 15.7668 8.00351 14.4468H6.18787V15.8493C7.13597 17.7049 8.99222 18.8592 11.0534 18.8592Z" fill="#F3D869"/>
<path d="M8.00214 14.4475C7.75464 13.7875 7.75464 13.045 8.00214 12.3444V10.9419H6.18779C5.40404 12.4681 5.40404 14.2825 6.18779 15.8494L8.00214 14.4475Z" fill="#F3D869"/>
<path d="M11.0532 10.1174C11.8369 10.1174 12.5794 10.4055 13.1563 10.9417L14.7238 9.37487C13.7338 8.46801 12.4144 7.93176 11.0944 7.97237C9.03195 7.97237 7.13638 9.12672 6.22888 10.983L8.04324 12.3842C8.41449 11.0661 9.65134 10.1174 11.0532 10.1174Z" fill="#F3D869"/>
</svg>
