<svg width="68" height="23" viewBox="0 0 68 23" fill="none" xmlns="http://www.w3.org/2000/svg">
<path d="M68.001 0.0400391V15.7867H0.804688V0.0400391H68.001Z" fill="#FFCC00"/>
<path d="M12.6234 2.86768L10.4766 5.96488H22.1772C22.7687 5.96488 22.7608 6.20352 22.4718 6.61936C22.1782 7.0415 21.6869 7.77566 21.3878 8.20447C21.2361 8.42208 20.9617 8.81855 21.8709 8.81855H26.6558C26.6558 8.81855 27.427 7.70417 28.0733 6.77241C28.9529 5.50511 28.1497 2.8678 25.0055 2.8678L12.6234 2.86768Z" fill="#575551"/>
<path d="M9.60628 12.958L13.9184 6.73629H19.2695C19.8609 6.73629 19.8532 6.97492 19.5641 7.39077C19.2705 7.81291 18.7712 8.53926 18.4721 8.96807C18.3203 9.18569 18.046 9.58278 18.9551 9.58278H26.1239C25.5277 10.4501 23.5938 12.9579 20.1213 12.9579L9.60628 12.958ZM34.302 9.58203L31.9636 12.9578H25.7952C25.7952 12.9578 28.1323 9.58278 28.1343 9.58278L34.302 9.58203ZM43.7517 8.81855H28.6643L32.7901 2.86768H38.9567L36.5918 6.27992H39.3444L41.7102 2.86768H47.8761L43.7517 8.81855ZM43.2221 9.58291L40.8827 12.958H34.7165C34.7165 12.958 37.0536 9.58291 37.0556 9.58291H43.2221ZM0.804688 10.9138H9.89193L9.39554 11.6308H0.804688V10.9138ZM0.804688 9.58291H10.8151L10.3178 10.2989H0.804688V9.58291ZM0.804688 12.2454H8.9692L8.47518 12.958H0.804688V12.2454ZM68.0012 11.6308H58.9489L59.4458 10.9139H68.0012V11.6308ZM68.0012 12.958L58.0287 12.959L58.5227 12.2454H68.0012V12.958ZM60.3678 9.58291H68.0012V10.2993L59.8714 10.2999L60.3678 9.58291ZM56.4161 2.86768L52.291 8.81842H45.7567C45.7567 8.81842 49.8829 2.86768 49.885 2.86768H56.4161ZM45.228 9.58291C45.228 9.58291 44.7772 10.237 44.5584 10.5514C43.7838 11.663 44.4686 12.958 46.9962 12.958H56.8995L59.2387 9.58291H45.228Z" fill="#575551"/>
<path d="M0.804688 18.3467H68.0012V18.7034H0.804688V18.3467ZM0.804688 20.0112H68.0012V20.3679H0.804688V20.0112ZM0.804688 21.6753H68.0012V22.032H0.804688V21.6753Z" fill="#FFCC00"/>
<path d="M23.3711 22.0322H25.3934L25.7162 21.5677H24.2112L25.0551 20.3534H26.4257L26.7485 19.8887H25.378L26.1264 18.8118H27.6314L27.9543 18.3471H25.9321L23.3711 22.0322ZM25.8529 22.0322H26.4735L28.5889 20.4695L28.5682 22.0322H29.2198L29.2247 20.1053L31.6618 18.3471H31.0723L29.1322 19.7621L29.1534 18.3471H28.5328L28.514 20.1159L25.8529 22.0322ZM32.4447 18.8118H32.8843C33.2051 18.8118 33.5634 18.9807 33.2405 19.4453C32.9029 19.9308 32.3858 20.0946 32.0651 20.0946H31.553L32.4447 18.8118ZM29.6894 22.0322H30.2066L31.2302 20.5593H31.737C32.3886 20.5593 33.2162 20.2689 33.7849 19.4504C34.3683 18.6109 33.9363 18.3469 33.1968 18.3469H32.2503L29.6894 22.0322ZM32.6677 22.0322H33.1849L34.3223 20.3955H34.6325C34.9065 20.3955 35.0774 20.3955 34.9883 20.7545L34.6538 22.0322H35.2435L35.5808 20.5644C35.6248 20.3375 35.6024 20.2583 35.4859 20.1948L35.4932 20.1842C35.9637 20.1102 36.5095 19.7935 36.8214 19.3447C37.4341 18.4632 36.827 18.3469 36.1131 18.3469H35.2288L32.6677 22.0322ZM35.4231 18.8118H35.9195C36.3955 18.8118 36.4968 19.023 36.2658 19.3554C36.02 19.7093 35.5762 19.9308 35.0848 19.9308H34.6452L35.4231 18.8118ZM35.779 22.0322H37.8013L38.1239 21.5677H36.6191L37.4629 20.3534H38.8336L39.1562 19.8887H37.7858L38.5342 18.8118H40.0392L40.3622 18.3471H38.34L35.779 22.0322ZM42.8533 18.4157C42.6674 18.326 42.4121 18.2837 42.1743 18.2837C41.5226 18.2837 40.7736 18.6323 40.3186 19.2869C39.5224 20.4327 41.2318 20.2056 40.6594 21.0292C40.3585 21.462 39.8273 21.6311 39.5326 21.6311C39.2687 21.6311 39.0319 21.5254 38.9074 21.4514L38.5146 21.9425C38.6975 22.0217 38.8945 22.0957 39.1479 22.0957C39.8719 22.0957 40.6832 21.7838 41.2298 20.9971C42.0736 19.7831 40.4082 19.9465 40.9 19.2392C41.168 18.8538 41.5827 18.7482 41.8723 18.7482C42.1413 18.7482 42.2528 18.7959 42.4432 18.9014L42.8533 18.4157ZM45.4393 18.4157C45.2535 18.326 44.9983 18.2837 44.7603 18.2837C44.1086 18.2837 43.3597 18.6323 42.9046 19.2869C42.1085 20.4327 43.8179 20.2056 43.2454 21.0292C42.9447 21.462 42.4133 21.6311 42.1187 21.6311C41.8547 21.6311 41.6178 21.5254 41.4936 21.4514L41.1006 21.9425C41.2835 22.0217 41.4805 22.0957 41.7338 22.0957C42.4579 22.0957 43.2691 21.7838 43.8157 20.9971C44.6597 19.7831 42.9943 19.9465 43.486 19.2392C43.7539 18.8538 44.1687 18.7482 44.4583 18.7482C44.7273 18.7482 44.8391 18.7959 45.0292 18.9014L45.4393 18.4157Z" fill="#D2002E"/>
</svg>
