<svg width="36" height="37" viewBox="0 0 36 37" fill="none" xmlns="http://www.w3.org/2000/svg">
<path d="M24.7327 15.2313H17.9828H11.2461V14.0413V12.8374H17.9828H24.7327V14.0413V15.2313Z" fill="#00457D"/>
<path d="M23.5989 3.8916C22.7815 3.8916 22.0169 4.14359 21.3445 4.54956C20.6854 4.14359 19.9207 3.8916 19.1034 3.8916C18.7079 3.8916 18.3255 3.9476 17.9564 4.05959C17.6004 3.9616 17.2445 3.8916 16.8622 3.8916C16.0448 3.8916 15.2934 4.14359 14.621 4.54956C13.9618 4.14359 13.184 3.8916 12.3666 3.8916C9.88816 3.8916 7.87109 6.03348 7.87109 8.66533V11.0592H10.1255V8.66533C10.1255 7.34941 11.1274 6.27147 12.3798 6.27147C12.5776 6.27147 12.7753 6.31347 12.9599 6.35546C12.6039 7.04142 12.3798 7.81138 12.3798 8.65133V11.0452H14.6342V8.66533C14.6342 7.34941 15.6361 6.27147 16.8885 6.27147V11.0452H19.1429V6.27147C20.3821 6.27147 21.3973 7.33541 21.3973 8.66533V11.0592H23.5989V8.66533C23.5989 7.82538 23.3748 7.05542 23.0188 6.36946C23.2034 6.31347 23.4011 6.28547 23.5989 6.28547C24.8381 6.28547 25.8533 7.34941 25.8533 8.67933V11.0732H28.1076V8.66533C28.0944 6.01948 26.0906 3.8916 23.5989 3.8916Z" fill="#00457D"/>
<path d="M18.4717 1.11994V0H17.4961V1.11994H16.4414V2.16988H17.4961V3.28981H18.4717V2.16988H19.5395V1.11994H18.4717Z" fill="#00457D"/>
<path d="M29.2276 17.0088C29.2276 19.8366 28.3048 22.4265 26.7623 24.4704C25.8658 20.2006 22.28 17.0088 17.9954 17.0088C15.3059 17.0088 12.8934 18.2687 11.2454 20.2566V17.0088H0C0 27.5642 8.05506 36.1177 17.9822 36.1177C27.9093 36.1177 35.9643 27.5642 35.9643 17.0228H29.2276V17.0088ZM2.42575 19.4027H8.99108V26.5703C8.99108 28.4321 9.50524 30.168 10.3753 31.652C6.15665 29.1601 3.13765 24.6804 2.42575 19.4027ZM17.9822 33.7238C14.2644 33.7238 11.2323 30.518 11.2323 26.5563C11.2323 22.5945 14.2513 19.4027 17.9822 19.4027C21.7131 19.4027 24.7189 22.6085 24.7189 26.5423C23.9543 27.1582 23.1237 27.6622 22.2272 28.0542C22.3722 27.5782 22.4777 27.0882 22.4777 26.5563C22.4777 23.8544 20.4606 21.7825 17.9822 21.7825C15.5037 21.7825 13.4866 23.9104 13.4866 26.5563C13.4866 29.2021 15.4905 31.33 17.9822 31.33C24.6662 31.33 30.2164 26.1643 31.2842 19.4027H33.565C32.4839 27.4942 25.9054 33.7238 17.9822 33.7238ZM20.2365 26.5563C20.2365 27.8722 19.2346 28.9361 17.9954 28.9361C16.7561 28.9361 15.7542 27.8722 15.7542 26.5563C15.7542 25.2403 16.7561 24.1764 17.9954 24.1764C19.2346 24.1764 20.2365 25.2403 20.2365 26.5563Z" fill="#00457D"/>
</svg>
