<svg width="96" height="21" viewBox="0 0 96 21" fill="none" xmlns="http://www.w3.org/2000/svg">
<mask id="mask0_159_5348" style="mask-type:luminance" maskUnits="userSpaceOnUse" x="0" y="0" width="59" height="21">
<path d="M0.394531 0.0454102H58.1064V20.7466H0.394531V0.0454102Z" fill="white"/>
</mask>
<g mask="url(#mask0_159_5348)">
<path d="M44.2677 9.70401H46.4581C48.1148 9.70401 48.789 9.20382 48.789 7.90772C48.789 6.96561 48.227 6.61163 46.7108 6.61163H44.6882L44.2677 9.70401ZM46.261 16.212H43.368L42.7505 20.7466H33.6501L36.4309 0.0454102H50.3346C55.6706 0.0454102 58.0298 2.04727 58.0298 6.55337C58.0298 10.0283 56.8785 12.3248 54.6032 13.8264L57.1029 20.7466H47.5538L46.261 16.212ZM9.21383 20.7466H0.394531L3.17527 0.0454102H15.3656L17.0506 8.93888L19.8586 2.84317C20.7583 0.869898 22.0218 0.0454102 24.1283 0.0454102H33.3408L30.5611 20.7466H21.7408L23.0609 12.0302L23.4258 10.0283L22.1057 12.7964L18.0331 20.7466H12.6405L10.9272 12.7964L10.4218 10.058L10.2529 12.0302L9.21383 20.7466Z" fill="#203263"/>
</g>
<mask id="mask1_159_5348" style="mask-type:luminance" maskUnits="userSpaceOnUse" x="58" y="0" width="25" height="21">
<path d="M58.6406 0.0449219H82.5306V20.7462H58.6406V0.0449219Z" fill="white"/>
</mask>
<g mask="url(#mask1_159_5348)">
<path d="M69.5978 20.7466H58.8125L61.481 0.0454102H69.9071L68.7841 7.73183L68.2504 10.4988L70.1043 6.99529L72.604 2.69586C73.727 0.781953 74.9632 0.0454102 77.1253 0.0454102H82.3502L69.5978 20.7466Z" fill="#F05349"/>
</g>
<mask id="mask2_159_5348" style="mask-type:luminance" maskUnits="userSpaceOnUse" x="73" y="0" width="23" height="21">
<path d="M73.6758 0.0454102H95.9846V20.7466H73.6758V0.0454102Z" fill="white"/>
</mask>
<g mask="url(#mask2_159_5348)">
<path d="M83.7374 20.7466H73.9062L74.2995 15.7404L83.2603 0.957843L82.4729 6.99529L81.7714 10.9122L83.4564 7.73183L86.3776 2.69586C87.5006 0.781953 88.7369 0.0454102 90.9 0.0454102H95.9833L83.7374 20.7466Z" fill="#F05349"/>
</g>
</svg>
