<svg width="101" height="47" viewBox="0 0 101 47" fill="none" xmlns="http://www.w3.org/2000/svg">
<path d="M20 44C18.4087 44 16.8826 43.3584 15.7574 42.2164C14.6321 41.0744 14 39.5255 14 37.9104C14 33.8507 20 27 20 27C20 27 26 33.8507 26 37.9104C26 39.5255 25.3679 41.0744 24.2426 42.2164C23.1174 43.3584 21.5913 44 20 44Z" fill="#575551"/>
<path d="M4.41319 31.336C4.41319 30.52 4.54919 29.824 4.82119 29.248C5.10919 28.656 5.49319 28.176 5.97319 27.808C6.45319 27.424 7.01319 27.144 7.65319 26.968C8.30919 26.792 9.00519 26.704 9.74119 26.704C10.9252 26.704 11.7972 26.864 12.3572 27.184C12.9172 27.488 13.1972 28.016 13.1972 28.768C13.1972 29.088 13.1252 29.376 12.9812 29.632C12.8532 29.888 12.7092 30.08 12.5492 30.208C12.2452 30.128 11.9252 30.064 11.5892 30.016C11.2692 29.952 10.8932 29.92 10.4612 29.92C9.77319 29.92 9.23719 30.04 8.85319 30.28C8.46919 30.504 8.27719 30.904 8.27719 31.48V32.248H12.2132C12.3092 32.424 12.3972 32.648 12.4772 32.92C12.5732 33.176 12.6212 33.464 12.6212 33.784C12.6212 34.344 12.4932 34.752 12.2372 35.008C11.9972 35.248 11.6692 35.368 11.2532 35.368H8.49319V42.976C8.33319 43.024 8.07719 43.072 7.72519 43.12C7.38919 43.168 7.03719 43.192 6.66919 43.192C6.31719 43.192 5.99719 43.168 5.70919 43.12C5.43719 43.072 5.20519 42.976 5.01319 42.832C4.82119 42.688 4.66919 42.496 4.55719 42.256C4.46119 42 4.41319 41.672 4.41319 41.272V31.336ZM28.7402 31.504C28.9002 31.456 29.1482 31.408 29.4842 31.36C29.8362 31.312 30.1962 31.288 30.5642 31.288C30.9162 31.288 31.2282 31.312 31.5002 31.36C31.7882 31.408 32.0282 31.504 32.2202 31.648C32.4122 31.792 32.5562 31.992 32.6522 32.248C32.7642 32.488 32.8202 32.808 32.8202 33.208V38.368C32.8202 39.024 32.9802 39.496 33.3002 39.784C33.6202 40.056 34.0842 40.192 34.6922 40.192C35.0602 40.192 35.3562 40.16 35.5802 40.096C35.8202 40.032 36.0042 39.968 36.1322 39.904V31.504C36.2922 31.456 36.5402 31.408 36.8762 31.36C37.2282 31.312 37.5882 31.288 37.9562 31.288C38.3082 31.288 38.6202 31.312 38.8922 31.36C39.1802 31.408 39.4202 31.504 39.6122 31.648C39.8042 31.792 39.9482 31.992 40.0442 32.248C40.1562 32.488 40.2122 32.808 40.2122 33.208V40.504C40.2122 41.304 39.8762 41.904 39.2042 42.304C38.6442 42.656 37.9722 42.92 37.1882 43.096C36.4202 43.288 35.5802 43.384 34.6682 43.384C33.8042 43.384 33.0042 43.288 32.2682 43.096C31.5482 42.904 30.9242 42.608 30.3962 42.208C29.8682 41.808 29.4602 41.296 29.1722 40.672C28.8842 40.032 28.7402 39.264 28.7402 38.368V31.504ZM50.1009 35.608C50.1009 35.112 49.9569 34.752 49.6689 34.528C49.3969 34.288 49.0209 34.168 48.5409 34.168C48.2209 34.168 47.9009 34.208 47.5809 34.288C47.2769 34.368 47.0129 34.488 46.7889 34.648V42.976C46.6289 43.024 46.3729 43.072 46.0209 43.12C45.6849 43.168 45.3329 43.192 44.9649 43.192C44.6129 43.192 44.2929 43.168 44.0049 43.12C43.7329 43.072 43.5009 42.976 43.3089 42.832C43.1169 42.688 42.9649 42.496 42.8529 42.256C42.7569 42 42.7089 41.672 42.7089 41.272V34.072C42.7089 33.64 42.7969 33.288 42.9729 33.016C43.1649 32.744 43.4209 32.496 43.7409 32.272C44.2849 31.888 44.9649 31.576 45.7809 31.336C46.6129 31.096 47.5329 30.976 48.5409 30.976C50.3489 30.976 51.7409 31.376 52.7169 32.176C53.6929 32.96 54.1809 34.056 54.1809 35.464V42.976C54.0209 43.024 53.7649 43.072 53.4129 43.12C53.0769 43.168 52.7249 43.192 52.3569 43.192C52.0049 43.192 51.6849 43.168 51.3969 43.12C51.1249 43.072 50.8929 42.976 50.7009 42.832C50.5089 42.688 50.3569 42.496 50.2449 42.256C50.1489 42 50.1009 41.672 50.1009 41.272V35.608ZM60.7811 38.992C60.7811 39.408 60.9091 39.704 61.1651 39.88C61.4371 40.056 61.8131 40.144 62.2931 40.144C62.5331 40.144 62.7811 40.128 63.0371 40.096C63.2931 40.048 63.5171 39.992 63.7091 39.928C63.8531 40.104 63.9731 40.304 64.0691 40.528C64.1811 40.736 64.2371 40.992 64.2371 41.296C64.2371 41.904 64.0051 42.4 63.5411 42.784C63.0931 43.168 62.2931 43.36 61.1411 43.36C59.7331 43.36 58.6451 43.04 57.8771 42.4C57.1251 41.76 56.7491 40.72 56.7491 39.28V29.008C56.9251 28.96 57.1731 28.912 57.4931 28.864C57.8291 28.8 58.1811 28.768 58.5491 28.768C59.2531 28.768 59.7971 28.896 60.1811 29.152C60.5811 29.392 60.7811 29.912 60.7811 30.712V32.248H63.9251C64.0211 32.424 64.1091 32.648 64.1891 32.92C64.2851 33.176 64.3331 33.464 64.3331 33.784C64.3331 34.344 64.2051 34.752 63.9491 35.008C63.7091 35.248 63.3811 35.368 62.9651 35.368H60.7811V38.992ZM71.3025 40.408C71.5745 40.408 71.8705 40.384 72.1905 40.336C72.5265 40.272 72.7745 40.192 72.9345 40.096V38.176L71.2065 38.32C70.7585 38.352 70.3905 38.448 70.1025 38.608C69.8145 38.768 69.6705 39.008 69.6705 39.328C69.6705 39.648 69.7905 39.912 70.0305 40.12C70.2865 40.312 70.7105 40.408 71.3025 40.408ZM71.1105 30.976C71.9745 30.976 72.7585 31.064 73.4625 31.24C74.1825 31.416 74.7905 31.688 75.2865 32.056C75.7985 32.408 76.1905 32.864 76.4625 33.424C76.7345 33.968 76.8705 34.616 76.8705 35.368V40.744C76.8705 41.16 76.7505 41.504 76.5105 41.776C76.2865 42.032 76.0145 42.256 75.6945 42.448C74.6545 43.072 73.1905 43.384 71.3025 43.384C70.4545 43.384 69.6865 43.304 68.9985 43.144C68.3265 42.984 67.7425 42.744 67.2465 42.424C66.7665 42.104 66.3905 41.696 66.1185 41.2C65.8625 40.704 65.7345 40.128 65.7345 39.472C65.7345 38.368 66.0625 37.52 66.7185 36.928C67.3745 36.336 68.3905 35.968 69.7665 35.824L72.9105 35.488V35.32C72.9105 34.856 72.7025 34.528 72.2865 34.336C71.8865 34.128 71.3025 34.024 70.5345 34.024C69.9265 34.024 69.3345 34.088 68.7585 34.216C68.1825 34.344 67.6625 34.504 67.1985 34.696C66.9905 34.552 66.8145 34.336 66.6705 34.048C66.5265 33.744 66.4545 33.432 66.4545 33.112C66.4545 32.696 66.5505 32.368 66.7425 32.128C66.9505 31.872 67.2625 31.656 67.6785 31.48C68.1425 31.304 68.6865 31.176 69.3105 31.096C69.9505 31.016 70.5505 30.976 71.1105 30.976ZM79.2692 28.096C79.2692 27.488 79.4692 26.976 79.8692 26.56C80.2852 26.144 80.8292 25.936 81.5012 25.936C82.1732 25.936 82.7092 26.144 83.1092 26.56C83.5252 26.976 83.7332 27.488 83.7332 28.096C83.7332 28.704 83.5252 29.216 83.1092 29.632C82.7092 30.048 82.1732 30.256 81.5012 30.256C80.8292 30.256 80.2852 30.048 79.8692 29.632C79.4692 29.216 79.2692 28.704 79.2692 28.096ZM83.5412 42.976C83.3652 43.008 83.1012 43.048 82.7492 43.096C82.4132 43.16 82.0692 43.192 81.7172 43.192C81.3652 43.192 81.0452 43.168 80.7572 43.12C80.4852 43.072 80.2532 42.976 80.0612 42.832C79.8692 42.688 79.7172 42.496 79.6052 42.256C79.5092 42 79.4612 41.672 79.4612 41.272V31.504C79.6372 31.472 79.8932 31.432 80.2292 31.384C80.5812 31.32 80.9332 31.288 81.2852 31.288C81.6372 31.288 81.9492 31.312 82.2212 31.36C82.5092 31.408 82.7492 31.504 82.9412 31.648C83.1332 31.792 83.2772 31.992 83.3732 32.248C83.4852 32.488 83.5412 32.808 83.5412 33.208V42.976ZM93.5306 35.608C93.5306 35.112 93.3866 34.752 93.0986 34.528C92.8266 34.288 92.4506 34.168 91.9706 34.168C91.6506 34.168 91.3306 34.208 91.0106 34.288C90.7066 34.368 90.4426 34.488 90.2186 34.648V42.976C90.0586 43.024 89.8026 43.072 89.4506 43.12C89.1146 43.168 88.7626 43.192 88.3946 43.192C88.0426 43.192 87.7226 43.168 87.4346 43.12C87.1626 43.072 86.9306 42.976 86.7386 42.832C86.5466 42.688 86.3946 42.496 86.2826 42.256C86.1866 42 86.1386 41.672 86.1386 41.272V34.072C86.1386 33.64 86.2266 33.288 86.4026 33.016C86.5946 32.744 86.8506 32.496 87.1706 32.272C87.7146 31.888 88.3946 31.576 89.2106 31.336C90.0426 31.096 90.9626 30.976 91.9706 30.976C93.7786 30.976 95.1706 31.376 96.1466 32.176C97.1226 32.96 97.6106 34.056 97.6106 35.464V42.976C97.4506 43.024 97.1946 43.072 96.8426 43.12C96.5066 43.168 96.1546 43.192 95.7866 43.192C95.4346 43.192 95.1146 43.168 94.8266 43.12C94.5546 43.072 94.3226 42.976 94.1306 42.832C93.9386 42.688 93.7866 42.496 93.6746 42.256C93.5786 42 93.5306 41.672 93.5306 41.272V35.608Z" fill="#575551"/>
<path d="M3.60648 4.532C3.60648 3.5 3.90648 2.684 4.50648 2.084C5.10648 1.484 5.92248 1.184 6.95448 1.184H18.8345C19.0025 1.448 19.1465 1.796 19.2665 2.228C19.4105 2.66 19.4825 3.116 19.4825 3.596C19.4825 4.508 19.2785 5.156 18.8705 5.54C18.4865 5.924 17.9705 6.116 17.3225 6.116H9.72648V9.464H17.8265C17.9945 9.728 18.1385 10.076 18.2585 10.508C18.4025 10.916 18.4745 11.36 18.4745 11.84C18.4745 12.752 18.2825 13.4 17.8985 13.784C17.5145 14.168 16.9985 14.36 16.3505 14.36H9.72648V18.14H18.9785C19.1465 18.404 19.2905 18.752 19.4105 19.184C19.5545 19.616 19.6265 20.072 19.6265 20.552C19.6265 21.464 19.4225 22.124 19.0145 22.532C18.6305 22.916 18.1145 23.108 17.4665 23.108H6.95448C5.92248 23.108 5.10648 22.808 4.50648 22.208C3.90648 21.608 3.60648 20.792 3.60648 19.76V4.532ZM28.1171 23.108C27.0851 23.108 26.2691 22.808 25.6691 22.208C25.0691 21.608 24.7691 20.792 24.7691 19.76V1.148C25.0331 1.1 25.4531 1.04 26.0291 0.967998C26.6051 0.871998 27.1571 0.823998 27.6851 0.823998C28.2371 0.823998 28.7171 0.871998 29.1251 0.967998C29.5571 1.04 29.9171 1.184 30.2051 1.4C30.4931 1.616 30.7091 1.916 30.8531 2.3C30.9971 2.684 31.0691 3.188 31.0691 3.812V18.032H39.3131C39.4811 18.296 39.6371 18.656 39.7811 19.112C39.9251 19.544 39.9971 20 39.9971 20.48C39.9971 21.44 39.7931 22.124 39.3851 22.532C38.9771 22.916 38.4371 23.108 37.7651 23.108H28.1171ZM60.0022 1.184C60.1702 1.448 60.3142 1.808 60.4342 2.264C60.5782 2.696 60.6502 3.152 60.6502 3.632C60.6502 4.568 60.4462 5.24 60.0382 5.648C59.6542 6.032 59.1262 6.224 58.4542 6.224H50.8942V10.292H58.7782C58.9702 10.556 59.1262 10.904 59.2462 11.336C59.3902 11.768 59.4622 12.224 59.4622 12.704C59.4622 13.616 59.2582 14.276 58.8502 14.684C58.4662 15.068 57.9382 15.26 57.2662 15.26H50.9662V22.856C50.7022 22.928 50.2822 23 49.7062 23.072C49.1542 23.144 48.6022 23.18 48.0502 23.18C47.4982 23.18 47.0062 23.132 46.5742 23.036C46.1662 22.964 45.8182 22.82 45.5302 22.604C45.2422 22.388 45.0262 22.088 44.8822 21.704C44.7382 21.32 44.6662 20.816 44.6662 20.192V4.532C44.6662 3.5 44.9662 2.684 45.5662 2.084C46.1662 1.484 46.9822 1.184 48.0142 1.184H60.0022ZM71.5312 22.856C71.2672 22.928 70.8472 23 70.2712 23.072C69.7192 23.144 69.1672 23.18 68.6152 23.18C68.0632 23.18 67.5712 23.132 67.1392 23.036C66.7312 22.964 66.3832 22.82 66.0952 22.604C65.8072 22.388 65.5912 22.088 65.4472 21.704C65.3032 21.32 65.2312 20.816 65.2312 20.192V1.184C65.4952 1.136 65.9152 1.076 66.4912 1.004C67.0672 0.908 67.6192 0.86 68.1472 0.86C68.6992 0.86 69.1792 0.908 69.5872 1.004C70.0192 1.076 70.3792 1.22 70.6672 1.436C70.9552 1.652 71.1712 1.952 71.3152 2.336C71.4592 2.72 71.5312 3.224 71.5312 3.848V22.856ZM97.4039 22.244C97.0679 22.58 96.5759 22.832 95.9279 23C95.3039 23.192 94.5479 23.288 93.6599 23.288C92.7719 23.288 91.9319 23.156 91.1399 22.892C90.3479 22.628 89.6999 21.992 89.1959 20.984L85.6319 13.712C85.2719 12.968 84.9479 12.272 84.6599 11.624C84.3719 10.952 84.0599 10.184 83.7239 9.32L83.5079 9.356C83.6039 10.652 83.6519 11.972 83.6519 13.316C83.6759 14.66 83.6879 15.98 83.6879 17.276V22.856C83.4239 22.928 83.0159 23 82.4639 23.072C81.9359 23.144 81.4079 23.18 80.8799 23.18C80.3519 23.18 79.8839 23.144 79.4759 23.072C79.0679 23 78.7319 22.856 78.4679 22.64C78.2039 22.424 77.9999 22.136 77.8559 21.776C77.7119 21.392 77.6399 20.9 77.6399 20.3V2.3C77.9759 1.82 78.4919 1.46 79.1879 1.22C79.8839 0.98 80.6279 0.86 81.4199 0.86C82.3079 0.86 83.1479 1.004 83.9399 1.292C84.7559 1.556 85.4039 2.18 85.8839 3.164L89.4839 10.436C89.8439 11.18 90.1679 11.888 90.4559 12.56C90.7439 13.208 91.0559 13.964 91.3919 14.828L91.5719 14.792C91.4759 13.496 91.4159 12.2 91.3919 10.904C91.3679 9.608 91.3559 8.312 91.3559 7.016V1.184C91.6199 1.112 92.0159 1.04 92.5439 0.967998C93.0959 0.895999 93.6359 0.86 94.1639 0.86C95.2199 0.86 96.0239 1.052 96.5759 1.436C97.1279 1.796 97.4039 2.564 97.4039 3.74V22.244Z" fill="#575551"/>
</svg>
