<svg width="43" height="27" viewBox="0 0 43 27" fill="none" xmlns="http://www.w3.org/2000/svg">
<rect x="0.898438" y="0.5" width="41" height="26" rx="6.5" fill="white" stroke="#A2CAF2"/>
<path d="M13.4042 23.0332V21.7623C13.4042 21.2762 13.1081 20.9578 12.5997 20.9578C12.3455 20.9578 12.0691 21.0417 11.8791 21.3181C11.7311 21.0862 11.5188 20.9578 11.2005 20.9578C10.9883 20.9578 10.7761 21.022 10.6083 21.254V20.9998H10.1641V23.0332H10.6083V21.9104C10.6083 21.5501 10.7983 21.3798 11.0944 21.3798C11.3905 21.3798 11.5386 21.5698 11.5386 21.9104V23.0332H11.9828V21.9104C11.9828 21.5501 12.195 21.3798 12.4689 21.3798C12.765 21.3798 12.9131 21.5698 12.9131 21.9104V23.0332H13.4042ZM19.993 20.9998H19.2724V20.3853H18.8283V20.9998H18.426V21.402H18.8283V22.3348C18.8283 22.8012 19.0183 23.0752 19.5266 23.0752C19.7166 23.0752 19.9289 23.011 20.0769 22.9271L19.9486 22.5446C19.8203 22.6285 19.6722 22.6507 19.5661 22.6507C19.3539 22.6507 19.27 22.5224 19.27 22.3126V21.402H19.9906V20.9998H19.993ZM23.7637 20.9554C23.5095 20.9554 23.3393 21.0837 23.2332 21.2515V20.9973H22.789V23.0307H23.2332V21.8857C23.2332 21.5476 23.3812 21.3551 23.6576 21.3551C23.7415 21.3551 23.8476 21.3774 23.934 21.3971L24.0623 20.9726C23.9735 20.9554 23.8476 20.9554 23.7637 20.9554ZM18.0657 21.1676C17.8535 21.0195 17.5574 20.9554 17.239 20.9554C16.7307 20.9554 16.3926 21.2095 16.3926 21.6118C16.3926 21.9499 16.6468 22.1424 17.091 22.204L17.3032 22.2263C17.5352 22.2682 17.6635 22.3324 17.6635 22.4385C17.6635 22.5865 17.4932 22.6927 17.1971 22.6927C16.901 22.6927 16.6665 22.5865 16.5185 22.4804L16.3062 22.8185C16.5382 22.9888 16.8565 23.0727 17.1749 23.0727C17.7671 23.0727 18.1077 22.7963 18.1077 22.4163C18.1077 22.056 17.8313 21.866 17.4093 21.8018L17.1971 21.7796C17.0071 21.7574 16.859 21.7154 16.859 21.5896C16.859 21.4415 17.0071 21.3576 17.2415 21.3576C17.4957 21.3576 17.7499 21.4637 17.8782 21.5279L18.0657 21.1676ZM29.8837 20.9554C29.6295 20.9554 29.4592 21.0837 29.3531 21.2515V20.9973H28.9089V23.0307H29.3531V21.8857C29.3531 21.5476 29.5012 21.3551 29.7776 21.3551C29.8615 21.3551 29.9676 21.3774 30.054 21.3971L30.1823 20.9776C30.0959 20.9554 29.9701 20.9554 29.8837 20.9554ZM24.2079 22.0165C24.2079 22.631 24.6324 23.0752 25.2888 23.0752C25.5849 23.0752 25.7971 23.011 26.0093 22.8432L25.7971 22.4829C25.6268 22.6112 25.459 22.6729 25.2666 22.6729C24.9063 22.6729 24.6521 22.4187 24.6521 22.0165C24.6521 21.634 24.9063 21.3798 25.2666 21.3601C25.4566 21.3601 25.6268 21.4242 25.7971 21.5501L26.0093 21.1898C25.7971 21.0195 25.5849 20.9578 25.2888 20.9578C24.6324 20.9554 24.2079 21.402 24.2079 22.0165ZM28.3167 22.0165V20.9998H27.8725V21.254C27.7244 21.064 27.5122 20.9578 27.2358 20.9578C26.6633 20.9578 26.2191 21.402 26.2191 22.0165C26.2191 22.631 26.6633 23.0752 27.2358 23.0752C27.5319 23.0752 27.7442 22.969 27.8725 22.779V23.0332H28.3167V22.0165ZM26.6855 22.0165C26.6855 21.6562 26.9175 21.3601 27.3 21.3601C27.6603 21.3601 27.9144 21.6365 27.9144 22.0165C27.9144 22.3768 27.6603 22.6729 27.3 22.6729C26.9199 22.6507 26.6855 22.3743 26.6855 22.0165ZM21.37 20.9554C20.7778 20.9554 20.3533 21.3798 20.3533 22.014C20.3533 22.6507 20.7778 23.0727 21.3922 23.0727C21.6884 23.0727 21.9845 22.9888 22.2189 22.7963L22.0067 22.478C21.8364 22.6063 21.6242 22.6902 21.4144 22.6902C21.1381 22.6902 20.8641 22.5619 20.8 22.204H22.3028C22.3028 22.1399 22.3028 22.0979 22.3028 22.0338C22.3226 21.3798 21.9401 20.9554 21.37 20.9554ZM21.37 21.3379C21.6464 21.3379 21.8364 21.5081 21.8784 21.824H20.8197C20.8617 21.5501 21.0517 21.3379 21.37 21.3379ZM32.4057 22.0165V20.1953H31.9615V21.254C31.8134 21.064 31.6012 20.9578 31.3248 20.9578C30.7523 20.9578 30.3081 21.402 30.3081 22.0165C30.3081 22.631 30.7523 23.0752 31.3248 23.0752C31.621 23.0752 31.8332 22.969 31.9615 22.779V23.0332H32.4057V22.0165ZM30.7745 22.0165C30.7745 21.6562 31.0065 21.3601 31.389 21.3601C31.7493 21.3601 32.0035 21.6365 32.0035 22.0165C32.0035 22.3768 31.7493 22.6729 31.389 22.6729C31.0065 22.6507 30.7745 22.3743 30.7745 22.0165ZM15.904 22.0165V20.9998H15.4598V21.254C15.3117 21.064 15.0995 20.9578 14.8231 20.9578C14.2506 20.9578 13.8064 21.402 13.8064 22.0165C13.8064 22.631 14.2506 23.0752 14.8231 23.0752C15.1193 23.0752 15.3315 22.969 15.4598 22.779V23.0332H15.904V22.0165ZM14.2531 22.0165C14.2531 21.6562 14.4851 21.3601 14.8676 21.3601C15.2278 21.3601 15.482 21.6365 15.482 22.0165C15.482 22.3768 15.2278 22.6729 14.8676 22.6729C14.4851 22.6507 14.2531 22.3743 14.2531 22.0165Z" fill="#A2CAF2"/>
<path d="M24.5907 5.55664H17.918V17.5449H24.5907V5.55664Z" fill="#CDDFF1"/>
<path d="M18.3603 11.5511C18.3603 9.11541 19.5053 6.95368 21.2624 5.55695C19.9693 4.54025 18.3381 3.92578 16.5589 3.92578C12.344 3.92578 8.93359 7.33618 8.93359 11.5511C8.93359 15.7659 12.344 19.1763 16.5589 19.1763C18.3381 19.1763 19.9693 18.5619 21.2624 17.5452C19.5029 16.1682 18.3603 13.9867 18.3603 11.5511Z" fill="#A2CAF2"/>
<path d="M33.5905 11.5511C33.5905 15.7659 30.1801 19.1763 25.9652 19.1763C24.186 19.1763 22.5548 18.5619 21.2617 17.5452C23.041 16.146 24.1638 13.9867 24.1638 11.5511C24.1638 9.11541 23.0187 6.95368 21.2617 5.55695C22.5523 4.54025 24.1835 3.92578 25.9627 3.92578C30.1801 3.92578 33.5905 7.35839 33.5905 11.5511Z" fill="#CDDFF1"/>
</svg>
