<svg width="50" height="35" viewBox="0 0 50 35" fill="none" xmlns="http://www.w3.org/2000/svg">
<path d="M1.28865 14.4958C1.26307 14.4867 1.25 12.0346 1.25 7.24617V0.0102539H25.4608H49.6715V7.27516V14.5401L25.4994 14.5248C12.2048 14.5164 1.30991 14.5033 1.28865 14.4958Z" fill="#BDD1EC"/>
<path d="M44.574 25.5597C45.3015 25.2836 45.6497 24.8002 45.6497 24.0662C45.6497 23.3462 45.3695 22.9967 44.645 22.8129C44.4049 22.7521 44.1276 22.7363 43.0315 22.7214L41.708 22.7033V24.2085V25.7136L42.9736 25.7002L44.2392 25.6868L44.574 25.5597ZM37.6764 33.9289C37.6621 33.9136 37.6503 30.6534 37.6503 26.684V19.4669L41.9109 19.4815C46.1097 19.496 46.177 19.4975 46.5557 19.5851C47.5797 19.8219 48.2595 20.1863 48.8039 20.7902C49.4229 21.4767 49.6689 22.2068 49.6686 23.3566C49.6682 24.7704 49.3517 25.7278 48.651 26.4346C48.3311 26.7573 48.0632 26.9329 47.6307 27.1036C47.4424 27.1779 47.3673 27.2227 47.4289 27.224C47.6193 27.2279 47.9914 27.3518 48.3102 27.5176C48.8396 27.7928 49.2074 28.2581 49.3752 28.8646C49.4302 29.0635 49.7847 33.332 49.7847 33.7956V33.9559H47.6979H45.6111L45.6103 33.4121C45.6088 32.3283 45.5362 30.5981 45.4801 30.3127C45.3278 29.5371 44.8891 29.0764 44.0999 28.8637C43.822 28.7887 43.6269 28.7732 42.742 28.7555L41.7085 28.7348L41.6986 31.3351L41.6886 33.9353L39.6955 33.946C38.5994 33.9519 37.6908 33.9441 37.6764 33.9289ZM13.6521 26.713V19.4702H18.7145H23.7769V21.2348V22.9993H20.724H17.6711V24.0457V25.0921H20.5695H23.4678V26.713V28.334H20.5695H17.6711V29.3804V30.4268H20.8013H23.9315V32.1913V33.9559H18.7918H13.6521V26.713ZM29.4384 34.2236C26.6121 33.8777 25.0948 32.5093 24.6187 29.877C24.5379 29.4305 24.536 29.322 24.522 24.4458L24.5077 19.4702H26.5173H28.5269L28.5405 24.1996C28.5531 28.5279 28.56 28.9551 28.6219 29.2368C28.8106 30.0955 29.2231 30.57 29.968 30.785C30.3176 30.8859 31.2072 30.8839 31.5252 30.7815C32.2426 30.5503 32.6199 30.107 32.8048 29.2778C32.868 28.9942 32.8744 28.5968 32.8867 24.2201L32.9001 19.4702H34.9081H36.9161V24.185C36.9161 27.1657 36.9012 29.0561 36.8757 29.3247C36.7867 30.2607 36.5313 31.1517 36.1601 31.8213C35.9267 32.2426 35.3638 32.8807 34.9739 33.1661C34.2675 33.6833 33.4203 34.0074 32.3098 34.1852C31.7472 34.2753 30.0463 34.298 29.4384 34.2236ZM5.47735 34.3252C3.90368 34.072 2.73591 33.5194 1.8797 32.6226C1.29017 32.0051 0.934366 31.3368 0.727046 30.4576C0.636669 30.0743 0.539646 29.1836 0.579531 29.1034C0.587943 29.0865 1.55517 29.0726 2.72892 29.0726H4.86301L4.90828 29.5249C4.99822 30.4236 5.29187 30.7934 6.0971 31.0223C6.46727 31.1275 7.3068 31.1501 7.70016 31.0655C8.51516 30.8901 8.89906 30.4891 8.89863 29.8135C8.89863 29.565 8.88122 29.4733 8.81164 29.3513C8.58867 28.9602 8.37151 28.873 5.5754 28.0524C3.54674 27.4569 2.69826 27.0624 1.98945 26.3848C1.6036 26.016 1.2644 25.4137 1.12612 24.8518C0.970732 24.2204 0.99164 23.206 1.17471 22.4943C1.27666 22.0979 1.58316 21.4389 1.81775 21.1117C2.63062 19.9777 3.99473 19.2484 5.72897 19.0208C6.14349 18.9664 7.49463 18.9656 7.95204 19.0194C10.6655 19.3391 12.2833 20.6796 12.6625 22.9224C12.6945 23.1114 12.7259 23.386 12.7323 23.5327L12.744 23.7995H10.6765H8.60899L8.58506 23.563C8.5332 23.0505 8.32928 22.7613 7.83966 22.5059C7.47318 22.3148 7.10736 22.249 6.54152 22.2724C5.60554 22.3112 5.21552 22.5921 5.21379 23.2288C5.21289 23.5406 5.33379 23.7807 5.58991 23.9761C5.97556 24.2701 6.46617 24.428 8.03336 24.7625C10.437 25.2753 11.5964 25.7702 12.3995 26.6261C13.0508 27.3203 13.3429 28.1603 13.3429 29.3393C13.3429 31.2321 12.5143 32.6492 10.8975 33.5213C10.1577 33.9203 9.16418 34.2135 8.10658 34.3449C7.39936 34.4327 6.08496 34.4229 5.47735 34.3252Z" fill="#E95128"/>
<path d="M49.6717 0.0107422H9.30859V14.5025H49.6717V0.0107422Z" fill="#6D9AD3"/>
<path d="M49.6699 0.0107422H21.3984V14.5025H49.6699V0.0107422Z" fill="#1C64B0"/>
</svg>
