<svg width="69" height="15" viewBox="0 0 69 15" fill="none" xmlns="http://www.w3.org/2000/svg">
<mask id="mask0_187_2115" style="mask-type:luminance" maskUnits="userSpaceOnUse" x="0" y="0" width="42" height="15">
<path d="M0.320312 0.178711H41.4883V14.0851H0.320312V0.178711Z" fill="white"/>
</mask>
<g mask="url(#mask0_187_2115)">
<path d="M31.6167 6.66705H33.1792C34.361 6.66705 34.8419 6.33103 34.8419 5.46036C34.8419 4.82748 34.441 4.58968 33.3594 4.58968H31.9166L31.6167 6.66705ZM33.0386 11.0389H30.9749L30.5344 14.0851H24.0428L26.0264 0.178711H35.9444C39.7508 0.178711 41.4337 1.52349 41.4337 4.55055C41.4337 6.8849 40.6125 8.42759 38.9894 9.43637L40.7725 14.0851H33.9608L33.0386 11.0389ZM6.61145 14.0851H0.320312L2.30392 0.178711H10.9998L12.2017 6.15306L14.2048 2.05816C14.8465 0.732575 15.7478 0.178711 17.2505 0.178711H23.8221L21.8393 14.0851H15.5474L16.4891 8.22968L16.7494 6.8849L15.8077 8.7444L12.9026 14.0851H9.0558L7.83363 8.7444L7.47311 6.90484L7.35268 8.22968L6.61145 14.0851Z" fill="#203263"/>
</g>
<mask id="mask1_187_2115" style="mask-type:luminance" maskUnits="userSpaceOnUse" x="41" y="0" width="18" height="15">
<path d="M41.8711 0.178223H58.9127V14.0846H41.8711V0.178223Z" fill="white"/>
</mask>
<g mask="url(#mask1_187_2115)">
<path d="M49.6897 14.0851H41.9961L43.8997 0.178711H49.9103L49.1092 5.3422L48.7285 7.20097L50.0509 4.84742L51.8341 1.9592C52.6352 0.673496 53.517 0.178711 55.0593 0.178711H58.7864L49.6897 14.0851Z" fill="#F05349"/>
</g>
<mask id="mask2_187_2115" style="mask-type:luminance" maskUnits="userSpaceOnUse" x="52" y="0" width="17" height="15">
<path d="M52.5938 0.178711H68.5075V14.0851H52.5938V0.178711Z" fill="white"/>
</mask>
<g mask="url(#mask2_187_2115)">
<path d="M59.7707 14.0851H52.7578L53.0383 10.7221L59.4304 0.791654L58.8687 4.84742L58.3683 7.47864L59.5703 5.3422L61.6541 1.9592C62.4552 0.673496 63.337 0.178711 64.8801 0.178711H68.5062L59.7707 14.0851Z" fill="#F05349"/>
</g>
</svg>
