<svg width="49" height="16" viewBox="0 0 49 16" fill="none" xmlns="http://www.w3.org/2000/svg">
<path d="M48.4414 0.723145V11.3013H0.507812V0.723145H48.4414Z" fill="#FFCC00"/>
<path d="M8.9377 2.62256L7.40625 4.70316H15.7528C16.1747 4.70316 16.1691 4.86347 15.9629 5.14282C15.7534 5.4264 15.403 5.91958 15.1897 6.20764C15.0814 6.35383 14.8857 6.62016 15.5343 6.62016H18.9475C18.9475 6.62016 19.4977 5.87156 19.9587 5.24564C20.5861 4.3943 20.0132 2.62264 17.7703 2.62264L8.9377 2.62256Z" fill="#D2002E"/>
<path d="M6.78632 9.40092L9.86233 5.22137H13.6794C14.1013 5.22137 14.0958 5.38168 13.8896 5.66103C13.6802 5.94461 13.324 6.43255 13.1107 6.72061C13.0023 6.8668 12.8067 7.13355 13.4552 7.13355H18.5689C18.1437 7.71618 16.7641 9.40084 14.2871 9.40084L6.78632 9.40092ZM24.4027 7.13304L22.7346 9.40076H18.3345C18.3345 9.40076 20.0016 7.13355 20.0031 7.13355L24.4027 7.13304ZM31.1435 6.62016H20.3811L23.3242 2.62256H27.7231L26.0361 4.91479H27.9996L29.6873 2.62256H34.0856L31.1435 6.62016ZM30.7658 7.13363L29.0969 9.40092H24.6984C24.6984 9.40092 26.3655 7.13363 26.367 7.13363H30.7658ZM0.507812 8.02767H6.99009L6.63599 8.50935H0.507812V8.02767ZM0.507812 7.13363H7.64864L7.29387 7.61464H0.507812V7.13363ZM0.507812 8.9222H6.33186L5.97946 9.40092H0.507812V8.9222ZM48.4416 8.50935H41.9843L42.3387 8.02775H48.4416V8.50935ZM48.4416 9.40092L41.3278 9.4016L41.6802 8.9222H48.4416V9.40092ZM42.9964 7.13363H48.4416V7.61489L42.6423 7.61532L42.9964 7.13363ZM40.1775 2.62256L37.2349 6.62008H32.5738C32.5738 6.62008 35.5171 2.62256 35.5187 2.62256H40.1775ZM32.1966 7.13363C32.1966 7.13363 31.8751 7.57304 31.719 7.78425C31.1665 8.53099 31.6549 9.40092 33.4579 9.40092H40.5223L42.191 7.13363H32.1966Z" fill="#D2002E"/>
<path d="M0.507812 13.021H48.4416V13.2606H0.507812V13.021ZM0.507812 14.1392H48.4416V14.3788H0.507812V14.1392ZM0.507812 15.2571H48.4416V15.4967H0.507812V15.2571Z" fill="#FFCC00"/>
<path d="M16.6055 15.4967H18.0481L18.2783 15.1846H17.2048L17.8068 14.3689H18.7844L19.0147 14.0567H18.0371L18.5709 13.3333H19.6445L19.8748 13.0211H18.4323L16.6055 15.4967ZM18.3759 15.4967H18.8186L20.3275 14.4469L20.3127 15.4967H20.7776L20.7811 14.2022L22.5196 13.0211H22.099L20.7151 13.9716L20.7302 13.0211H20.2875L20.2741 14.2093L18.3759 15.4967ZM23.078 13.3333H23.3916C23.6204 13.3333 23.876 13.4468 23.6457 13.7588C23.4049 14.085 23.036 14.195 22.8072 14.195H22.4419L23.078 13.3333ZM21.1126 15.4967H21.4815L22.2116 14.5072H22.5732C23.038 14.5072 23.6284 14.3121 24.034 13.7623C24.4502 13.1983 24.142 13.021 23.6145 13.021H22.9394L21.1126 15.4967ZM23.2371 15.4967H23.606L24.4174 14.3972H24.6386C24.8341 14.3972 24.956 14.3972 24.8925 14.6383L24.6539 15.4967H25.0745L25.3151 14.5106C25.3465 14.3582 25.3305 14.305 25.2474 14.2623L25.2526 14.2552C25.5882 14.2055 25.9776 13.9928 26.2001 13.6913C26.6371 13.0991 26.2041 13.021 25.6948 13.021H25.064L23.2371 15.4967ZM25.2026 13.3333H25.5567C25.8962 13.3333 25.9685 13.4752 25.8037 13.6985C25.6284 13.9362 25.3118 14.085 24.9613 14.085H24.6477L25.2026 13.3333ZM25.4565 15.4967H26.8991L27.1292 15.1846H26.0558L26.6577 14.3689H27.6354L27.8656 14.0567H26.888L27.4219 13.3333H28.4955L28.7259 13.0211H27.2834L25.4565 15.4967ZM30.5029 13.0672C30.3703 13.0069 30.1882 12.9785 30.0185 12.9785C29.5536 12.9785 29.0193 13.2127 28.6948 13.6525C28.1268 14.4221 29.3462 14.2696 28.9378 14.8229C28.7232 15.1136 28.3443 15.2272 28.1341 15.2272C27.9458 15.2272 27.7769 15.1562 27.6881 15.1065L27.4079 15.4364C27.5384 15.4896 27.6789 15.5393 27.8597 15.5393C28.3761 15.5393 28.9548 15.3298 29.3448 14.8013C29.9467 13.9858 28.7587 14.0955 29.1095 13.6204C29.3006 13.3615 29.5965 13.2906 29.803 13.2906C29.995 13.2906 30.0745 13.3226 30.2103 13.3935L30.5029 13.0672ZM32.3476 13.0672C32.215 13.0069 32.033 12.9785 31.8632 12.9785C31.3983 12.9785 30.864 13.2127 30.5395 13.6525C29.9715 14.4221 31.1909 14.2696 30.7825 14.8229C30.568 15.1136 30.189 15.2272 29.9788 15.2272C29.7905 15.2272 29.6215 15.1562 29.5329 15.1065L29.2526 15.4364C29.3831 15.4896 29.5236 15.5393 29.7043 15.5393C30.2208 15.5393 30.7995 15.3298 31.1894 14.8013C31.7914 13.9858 30.6035 14.0955 30.9542 13.6204C31.1453 13.3615 31.4412 13.2906 31.6477 13.2906C31.8397 13.2906 31.9194 13.3226 32.055 13.3935L32.3476 13.0672Z" fill="#D2002E"/>
</svg>
