<svg width="73" height="18" viewBox="0 0 73 18" fill="none" xmlns="http://www.w3.org/2000/svg">
<path d="M19.9214 6.26367L27.2053 6.26367L27.2053 7.61965L24.3374 7.61965L24.3374 15.2636L22.7654 15.2636L22.7654 7.61965L19.9094 7.61965L19.9214 6.26367ZM26.8933 8.74764L28.2373 8.74764L28.2373 10.0076L28.2613 10.0076C28.3093 9.82763 28.3933 9.65963 28.5133 9.49163C28.6333 9.32363 28.7773 9.16763 28.9573 9.03564C29.1253 8.89164 29.3173 8.78364 29.5333 8.69964C29.7373 8.61564 29.9533 8.56764 30.1693 8.56764C30.3373 8.56764 30.4573 8.57964 30.5173 8.57964C30.5773 8.59164 30.6493 8.60364 30.7093 8.60364L30.7093 9.98363C30.6133 9.95963 30.5053 9.94762 30.3973 9.93562C30.2893 9.92362 30.1933 9.91163 30.0853 9.91163C29.8453 9.91163 29.6173 9.95962 29.4013 10.0556C29.1853 10.1516 29.0053 10.2956 28.8373 10.4756C28.6813 10.6676 28.5493 10.8956 28.4533 11.1716C28.3573 11.4476 28.3093 11.7716 28.3093 12.1316L28.3093 15.2276L26.8693 15.2276L26.8933 8.74764ZM37.3092 15.2636L35.8932 15.2636L35.8932 14.3516L35.8692 14.3516C35.6892 14.6876 35.4252 14.9396 35.0772 15.1436C34.7292 15.3476 34.3692 15.4436 34.0093 15.4436C33.1573 15.4436 32.5333 15.2396 32.1493 14.8076C31.7653 14.3876 31.5733 13.7396 31.5733 12.8876L31.5733 8.74764L33.0133 8.74764L33.0133 12.7436C33.0133 13.3196 33.1213 13.7276 33.3493 13.9556C33.5653 14.1956 33.8772 14.3156 34.2732 14.3156C34.5732 14.3156 34.8252 14.2676 35.0292 14.1716C35.2332 14.0756 35.4012 13.9556 35.5212 13.7996C35.6532 13.6436 35.7372 13.4516 35.7972 13.2356C35.8572 13.0196 35.8812 12.7796 35.8812 12.5276L35.8812 8.74764L37.3212 8.74764L37.3212 15.2636L37.3092 15.2636ZM39.7572 13.1756C39.8052 13.5956 39.9612 13.8836 40.2372 14.0636C40.5132 14.2316 40.8492 14.3156 41.2332 14.3156C41.3652 14.3156 41.5212 14.3036 41.6892 14.2796C41.8572 14.2556 42.0252 14.2196 42.1692 14.1596C42.3251 14.0996 42.4451 14.0156 42.5411 13.8956C42.6371 13.7756 42.6851 13.6316 42.6731 13.4516C42.6611 13.2716 42.6011 13.1156 42.4691 12.9956C42.3371 12.8756 42.1812 12.7916 41.9892 12.7076C41.7972 12.6356 41.5692 12.5756 41.3172 12.5276C41.0652 12.4796 40.8132 12.4196 40.5492 12.3596C40.2852 12.2996 40.0212 12.2276 39.7692 12.1436C39.5172 12.0596 39.3012 11.9516 39.0972 11.7956C38.9052 11.6516 38.7372 11.4716 38.6292 11.2436C38.5092 11.0156 38.4492 10.7516 38.4492 10.4156C38.4492 10.0556 38.5332 9.76763 38.7132 9.52763C38.8812 9.28763 39.1092 9.09564 39.3732 8.95164C39.6372 8.80764 39.9372 8.69964 40.2612 8.63964C40.5852 8.57964 40.8972 8.55564 41.1852 8.55564C41.5212 8.55564 41.8452 8.59164 42.1451 8.66364C42.4451 8.73564 42.7331 8.84364 42.9731 9.01164C43.2251 9.16764 43.4291 9.38363 43.5851 9.63563C43.7531 9.88763 43.8491 10.1996 43.8971 10.5596L42.3971 10.5596C42.3251 10.2116 42.1692 9.98363 41.9292 9.86363C41.6772 9.74363 41.4012 9.68363 41.0772 9.68363C40.9812 9.68363 40.8492 9.69563 40.7172 9.70763C40.5732 9.73163 40.4532 9.75563 40.3212 9.80363C40.2012 9.85163 40.0932 9.92363 40.0092 10.0076C39.9252 10.0916 39.8772 10.2116 39.8772 10.3556C39.8772 10.5356 39.9372 10.6676 40.0572 10.7756C40.1772 10.8836 40.3332 10.9676 40.5372 11.0516C40.7292 11.1236 40.9572 11.1836 41.2092 11.2316C41.4612 11.2796 41.7252 11.3396 41.9892 11.3996C42.2531 11.4596 42.5051 11.5316 42.7571 11.6156C43.0091 11.6996 43.2371 11.8076 43.4291 11.9636C43.6211 12.1076 43.7891 12.2876 43.9091 12.5036C44.0291 12.7196 44.0891 12.9956 44.0891 13.3076C44.0891 13.6916 44.0051 14.0156 43.8251 14.2916C43.6451 14.5556 43.4171 14.7836 43.1411 14.9516C42.8651 15.1196 42.5411 15.2396 42.2051 15.3236C41.8572 15.3956 41.5212 15.4436 41.1852 15.4436C40.7772 15.4436 40.3932 15.3956 40.0452 15.2996C39.6972 15.2036 39.3852 15.0596 39.1332 14.8796C38.8812 14.6876 38.6772 14.4596 38.5332 14.1716C38.3892 13.8956 38.3052 13.5596 38.2932 13.1636L39.7452 13.1636L39.7452 13.1756L39.7572 13.1756ZM44.4971 8.74764L45.5891 8.74764L45.5891 6.77967L47.0291 6.77967L47.0291 8.73564L48.3251 8.73564L48.3251 9.80363L47.0291 9.80363L47.0291 13.2836C47.0291 13.4396 47.0411 13.5596 47.0531 13.6796C47.0651 13.7876 47.1011 13.8836 47.1371 13.9556C47.1851 14.0276 47.2571 14.0876 47.3411 14.1236C47.4371 14.1596 47.5571 14.1836 47.7251 14.1836C47.8211 14.1836 47.9291 14.1836 48.0251 14.1716C48.1211 14.1596 48.2291 14.1476 48.3251 14.1236L48.3251 15.2396C48.1691 15.2636 48.0131 15.2756 47.8571 15.2876C47.7011 15.3116 47.5571 15.3116 47.3891 15.3116C47.0051 15.3116 46.7051 15.2756 46.4771 15.2036C46.2491 15.1316 46.0691 15.0236 45.9371 14.8916C45.8051 14.7476 45.7211 14.5796 45.6731 14.3756C45.6251 14.1716 45.6011 13.9196 45.5891 13.6556L45.5891 9.81563L44.4971 9.81563L44.4971 8.72364L44.4971 8.74764ZM49.3331 8.74764L50.689 8.74764L50.689 9.63563L50.713 9.63563C50.917 9.25163 51.193 8.98764 51.553 8.81964C51.913 8.65164 52.297 8.56764 52.729 8.56764C53.245 8.56764 53.689 8.65165 54.073 8.84364C54.457 9.02364 54.769 9.26364 55.021 9.58763C55.273 9.89963 55.465 10.2716 55.585 10.6916C55.705 11.1116 55.777 11.5676 55.777 12.0356C55.777 12.4796 55.717 12.8996 55.609 13.3076C55.489 13.7156 55.321 14.0876 55.093 14.3996C54.865 14.7116 54.577 14.9636 54.217 15.1556C53.857 15.3476 53.449 15.4436 52.969 15.4436C52.765 15.4436 52.549 15.4196 52.345 15.3836C52.141 15.3476 51.937 15.2876 51.745 15.2036C51.553 15.1196 51.373 15.0116 51.217 14.8796C51.049 14.7476 50.917 14.5916 50.809 14.4236L50.785 14.4236L50.785 17.6755L49.3451 17.6755L49.3451 8.74764L49.3331 8.74764ZM54.361 12.0116C54.361 11.7236 54.325 11.4356 54.241 11.1596C54.169 10.8836 54.049 10.6436 53.893 10.4276C53.737 10.2116 53.545 10.0436 53.329 9.91163C53.101 9.77963 52.837 9.71963 52.549 9.71963C51.949 9.71963 51.493 9.92363 51.181 10.3436C50.881 10.7636 50.725 11.3276 50.725 12.0236C50.725 12.3596 50.761 12.6596 50.845 12.9356C50.929 13.2116 51.037 13.4516 51.205 13.6556C51.361 13.8596 51.553 14.0156 51.781 14.1356C52.009 14.2556 52.261 14.3156 52.561 14.3156C52.897 14.3156 53.161 14.2436 53.389 14.1116C53.617 13.9796 53.797 13.7996 53.953 13.5956C54.097 13.3796 54.205 13.1396 54.265 12.8636C54.325 12.5756 54.361 12.2996 54.361 12.0116ZM56.893 6.26368L58.333 6.26368L58.333 7.61966L56.893 7.61966L56.893 6.26368ZM56.893 8.74764L58.333 8.74764L58.333 15.2636L56.893 15.2636L56.893 8.74764ZM59.6169 6.26368L61.0569 6.26368L61.0569 15.2636L59.6169 15.2636L59.6169 6.26368ZM65.4489 15.4436C64.9329 15.4436 64.4649 15.3596 64.0569 15.1796C63.6489 14.9996 63.3129 14.7716 63.0249 14.4716C62.7489 14.1716 62.5329 13.7996 62.3889 13.3796C62.2449 12.9596 62.1609 12.4916 62.1609 11.9996C62.1609 11.5076 62.2329 11.0516 62.3889 10.6316C62.5329 10.2116 62.7489 9.85163 63.0249 9.53963C63.3009 9.23964 63.6489 8.99964 64.0569 8.83164C64.4649 8.66365 64.9329 8.56765 65.4489 8.56765C65.9649 8.56765 66.4329 8.65165 66.8408 8.83164C67.2488 8.99964 67.5848 9.23964 67.8728 9.53963C68.1488 9.83963 68.3648 10.2116 68.5088 10.6316C68.6528 11.0516 68.7368 11.5076 68.7368 11.9996C68.7368 12.5036 68.6648 12.9596 68.5088 13.3796C68.3528 13.7996 68.1488 14.1596 67.8728 14.4716C67.5968 14.7716 67.2488 15.0116 66.8408 15.1796C66.4329 15.3476 65.9769 15.4436 65.4489 15.4436ZM65.4489 14.3036C65.7609 14.3036 66.0489 14.2316 66.2769 14.0996C66.5169 13.9676 66.6968 13.7876 66.8528 13.5716C67.0088 13.3556 67.1168 13.1036 67.1888 12.8396C67.2608 12.5636 67.2968 12.2876 67.2968 11.9996C67.2968 11.7236 67.2608 11.4476 67.1888 11.1716C67.1168 10.8956 67.0088 10.6556 66.8528 10.4396C66.6968 10.2236 66.5049 10.0556 66.2769 9.92363C66.0369 9.79163 65.7609 9.71963 65.4489 9.71963C65.1369 9.71963 64.8489 9.79163 64.6209 9.92363C64.3809 10.0556 64.2009 10.2356 64.0449 10.4396C63.8889 10.6556 63.7809 10.8956 63.7089 11.1716C63.6369 11.4476 63.6009 11.7236 63.6009 11.9996C63.6009 12.2876 63.6369 12.5636 63.7089 12.8396C63.7809 13.1156 63.8889 13.3556 64.0449 13.5716C64.2009 13.7876 64.3929 13.9676 64.6209 14.0996C64.8609 14.2436 65.1369 14.3036 65.4489 14.3036ZM69.1688 8.74764L70.2608 8.74764L70.2608 6.77967L71.7008 6.77967L71.7008 8.73564L72.9968 8.73564L72.9968 9.80363L71.7008 9.80363L71.7008 13.2836C71.7008 13.4396 71.7128 13.5596 71.7248 13.6796C71.7368 13.7876 71.7728 13.8836 71.8088 13.9556C71.8568 14.0276 71.9288 14.0876 72.0128 14.1236C72.1088 14.1596 72.2288 14.1836 72.3968 14.1836C72.4928 14.1836 72.6008 14.1836 72.6968 14.1716C72.7928 14.1596 72.9008 14.1476 72.9968 14.1236L72.9968 15.2396C72.8408 15.2636 72.6848 15.2756 72.5288 15.2876C72.3728 15.3116 72.2288 15.3116 72.0608 15.3116C71.6768 15.3116 71.3768 15.2756 71.1488 15.2036C70.9208 15.1316 70.7408 15.0236 70.6088 14.8916C70.4768 14.7476 70.3928 14.5796 70.3448 14.3756C70.2968 14.1716 70.2728 13.9196 70.2608 13.6556L70.2608 9.81563L69.1688 9.81563L69.1688 8.72365L69.1688 8.74764Z" fill="black"/>
<path d="M18.242 6.26393L11.654 6.26392L9.62606 7.54274e-07L7.58609 6.26392L0.998168 6.25192L6.3261 10.1279L4.28613 16.3918L9.61406 12.5158L14.942 16.3918L12.914 10.1279L18.242 6.26393Z" fill="#00B67A"/>
<path d="M13.3702 11.5439L12.9142 10.1279L9.62622 12.5159L13.3702 11.5439Z" fill="#005128"/>
</svg>
