<svg width="30" height="31" viewBox="0 0 30 31" fill="none" xmlns="http://www.w3.org/2000/svg">
<path d="M15 13.677C16.1063 12.6777 17.2575 11.6783 18.4219 10.8777C19.9163 9.85016 21.6094 9.01953 23.4375 9.01953C27.0263 9.01953 30 11.9933 30 15.582C30 19.1708 27.0263 22.1445 23.4375 22.1445C21.6094 22.1445 19.9163 21.312 18.4219 20.2864C17.2575 19.4858 16.1063 18.4864 15 17.487C13.8938 18.4864 12.7425 19.4858 11.5781 20.2864C10.0838 21.312 8.39062 22.1445 6.5625 22.1445C2.97375 22.1445 0 19.1708 0 15.582C0 11.9933 2.97375 9.01953 6.5625 9.01953C8.39062 9.01953 10.0838 9.85016 11.5781 10.8777C12.7425 11.6783 13.8938 12.6777 15 13.677ZM17.0888 15.582C18.0938 16.4877 19.0612 17.3108 20.0138 17.9689C21.3337 18.8745 22.4513 19.332 23.4375 19.332C25.4737 19.332 27.1875 17.6183 27.1875 15.582C27.1875 13.5458 25.4737 11.832 23.4375 11.832C22.4531 11.832 21.3337 12.2895 20.0156 13.1952C19.0594 13.8514 18.0938 14.6764 17.0888 15.582ZM6.5625 11.832C4.52625 11.832 2.8125 13.5458 2.8125 15.582C2.8125 17.6183 4.52625 19.332 6.5625 19.332C7.54688 19.332 8.66625 18.8745 9.98438 17.9689C10.9406 17.3127 11.9062 16.4877 12.9113 15.582C11.9062 14.6764 10.9388 13.8533 9.98625 13.1952C8.66438 12.2895 7.54688 11.832 6.5625 11.832Z" fill="black"/>
</svg>
