<svg width="30" height="31" viewBox="0 0 30 31" fill="none" xmlns="http://www.w3.org/2000/svg">
<path fill-rule="evenodd" clip-rule="evenodd" d="M15 28.5708C18.4478 28.5708 21.7544 27.2012 24.1924 24.7632C26.6304 22.3252 28 19.0186 28 15.5708C28 12.123 26.6304 8.81639 24.1924 6.37841C21.7544 3.94044 18.4478 2.5708 15 2.5708C11.5522 2.5708 8.24558 3.94044 5.80761 6.37841C3.36964 8.81639 2 12.123 2 15.5708C2 19.0186 3.36964 22.3252 5.80761 24.7632C8.24558 27.2012 11.5522 28.5708 15 28.5708ZM10.0064 10.6796C9.54325 11.3767 9.3125 12.0657 9.3125 12.7433C9.3125 13.0732 9.45875 13.3803 9.75125 13.6631C10.0437 13.9458 10.4013 14.0856 10.8254 14.0856C11.5452 14.0856 12.0344 13.6826 12.2928 12.8733C12.5658 12.1014 12.8989 11.5164 13.2937 11.1183C13.6886 10.7218 14.3012 10.5236 15.1365 10.5236C15.8499 10.5236 16.4316 10.7186 16.8834 11.1134C17.3335 11.5067 17.5594 11.9909 17.5594 12.5629C17.5613 12.8499 17.4849 13.1319 17.3384 13.3787C17.1894 13.6302 17.0055 13.8594 16.7924 14.0596C16.4505 14.3722 16.0993 14.6746 15.7394 14.9663C15.1869 15.4246 14.7465 15.8194 14.4199 16.1526C14.0949 16.4857 13.8316 16.8724 13.635 17.3112C13.1117 19.3343 15.8287 19.4968 16.456 18.0522C16.5324 17.9124 16.6477 17.7597 16.8021 17.5907C16.9581 17.4233 17.1645 17.2283 17.4229 17.0057C18.0803 16.4581 18.7272 15.8979 19.3631 15.3254C19.7222 14.9939 20.0326 14.5974 20.2943 14.1392C20.564 13.6501 20.6996 13.0985 20.6875 12.5402C20.6875 11.7683 20.4584 11.0533 19.9985 10.3952C19.5403 9.73543 18.8903 9.21543 18.0485 8.83193C17.2068 8.45005 16.2366 8.2583 15.1365 8.2583C13.9535 8.2583 12.9184 8.4858 12.0311 8.94568C11.1439 9.40393 10.4695 9.98243 10.0064 10.6796ZM13.4839 22.1846C13.4839 22.6155 13.6551 23.0289 13.9598 23.3336C14.2646 23.6383 14.6779 23.8096 15.1089 23.8096C15.5399 23.8096 15.9532 23.6383 16.2579 23.3336C16.5627 23.0289 16.7339 22.6155 16.7339 22.1846C16.7339 21.7536 16.5627 21.3402 16.2579 21.0355C15.9532 20.7308 15.5399 20.5596 15.1089 20.5596C14.6779 20.5596 14.2646 20.7308 13.9598 21.0355C13.6551 21.3402 13.4839 21.7536 13.4839 22.1846Z" fill="#F3D869"/>
</svg>
