<svg width="30" height="31" viewBox="0 0 30 31" fill="none" xmlns="http://www.w3.org/2000/svg">
<path d="M15 2.45703L3.75 6.20703V17.457C3.75 23.6709 8.78613 28.707 15 28.707C21.2139 28.707 26.25 23.6709 26.25 17.457V6.20703L15 2.45703ZM24.1406 17.457C24.1406 22.5049 20.0479 26.5977 15 26.5977C9.95215 26.5977 5.85938 22.5049 5.85938 17.457V7.78906L15 4.56641L24.1406 7.78906V17.457Z" fill="black"/>
<path d="M11.0862 14.5012C10.9884 14.403 10.8723 14.3251 10.7443 14.2719C10.6164 14.2188 10.4792 14.1914 10.3406 14.1914C10.202 14.1914 10.0648 14.2188 9.93689 14.2719C9.80893 14.3251 9.69275 14.403 9.59499 14.5012C9.49679 14.599 9.41887 14.7152 9.3657 14.8431C9.31253 14.9711 9.28516 15.1083 9.28516 15.2468C9.28516 15.3854 9.31253 15.5226 9.3657 15.6505C9.41887 15.7785 9.49679 15.8947 9.59499 15.9924L13.386 19.7834L13.4475 19.845C13.54 19.9376 13.6498 20.0111 13.7707 20.0613C13.8916 20.1114 14.0212 20.1372 14.1521 20.1372C14.283 20.1372 14.4126 20.1114 14.5335 20.0613C14.6544 20.0111 14.7642 19.9376 14.8567 19.845L21.4046 13.2971C21.4972 13.2047 21.5707 13.0948 21.6208 12.9739C21.671 12.853 21.6968 12.7234 21.6968 12.5925C21.6968 12.4616 21.671 12.332 21.6208 12.2111C21.5707 12.0902 21.4972 11.9804 21.4046 11.8879L21.3225 11.8059C21.2301 11.7133 21.1202 11.6398 20.9993 11.5896C20.8784 11.5395 20.7488 11.5137 20.6179 11.5137C20.4871 11.5137 20.3574 11.5395 20.2365 11.5896C20.1156 11.6398 20.0058 11.7133 19.9134 11.8059L14.1507 17.5657L11.0862 14.5012Z" fill="black"/>
</svg>
