<svg width="110" height="34" viewBox="0 0 110 34" fill="none" xmlns="http://www.w3.org/2000/svg">
<g clip-path="url(#clip0_117_9945)">
<path d="M10.423 0.394531H12.566C13.7108 2.53477 14.4205 5.52199 14.6952 9.3562C14.7319 9.88443 14.9288 10.2487 15.2859 10.4491C15.7072 10.695 15.9133 10.5766 15.9041 10.0939L15.8079 1.91091C15.7988 1.22786 16.1376 0.936421 16.8245 1.0366L18.4317 1.2825C18.9995 1.36447 19.2834 1.69233 19.2834 2.2661V24.4107C19.2834 24.9389 19.0407 25.3078 18.5553 25.5173C17.8593 25.8178 17.2091 25.7267 16.6047 25.244C16.2017 24.9071 15.9407 24.3561 15.8217 23.591C15.3455 20.5856 14.828 17.5984 14.2694 14.6294C14.2372 14.47 14.1455 14.3287 14.0127 14.234C13.8799 14.1393 13.7159 14.0982 13.5538 14.119C13.3917 14.1398 13.2435 14.2209 13.1393 14.3461C13.035 14.4712 12.9823 14.6311 12.9919 14.7933L13.6787 24.3151C13.6897 24.4446 13.67 24.5747 13.6214 24.6955C13.5727 24.8163 13.4963 24.9244 13.398 25.0116C13.2997 25.0988 13.1823 25.1626 13.0547 25.1982C12.9271 25.2337 12.7928 25.2401 12.6622 25.2167L10.945 24.8888C10.4597 24.7978 10.2216 24.5018 10.2307 24.0009L10.423 0.394531Z" fill="white"/>
<path d="M74.3398 0.394531H75.3701C78.5204 2.22512 79.7522 5.31252 79.0653 9.65674C78.9921 10.0848 78.7402 10.2988 78.3098 10.2988H76.5515C76.3449 10.3002 76.1451 10.2256 75.9905 10.0895C75.8358 9.95332 75.7372 9.76516 75.7135 9.56112L75.3975 6.89721C75.3334 6.35987 75.0679 6.22781 74.6008 6.50103L74.2849 6.69229C73.7812 6.98373 73.5843 7.41177 73.6942 7.97643L74.3123 11.378C74.3948 11.797 74.5642 12.1704 74.8206 12.4982C80.581 19.7751 81.1625 26.6693 76.5652 33.1811H73.7216C70.4248 31.1137 69.3029 27.826 70.3561 23.3178C70.4843 22.7805 70.8231 22.5209 71.3726 22.5391L73.2134 22.6074C73.3264 22.6108 73.4373 22.639 73.5381 22.6899C73.639 22.7408 73.7273 22.8131 73.7969 22.9018C73.8664 22.9905 73.9154 23.0934 73.9404 23.2031C73.9653 23.3127 73.9657 23.4266 73.9414 23.5364C73.6942 24.693 73.8544 25.7586 74.4222 26.7331C74.8343 27.4253 75.132 27.3843 75.3151 26.6101C75.9928 23.7504 75.7227 21.6239 74.5046 20.2304C70.7682 15.9682 66.2762 3.15407 74.3398 0.394531Z" fill="white"/>
<path d="M84.9719 0.394531H86.7165C89.0518 1.45099 90.2973 3.59122 90.4529 6.81524C90.604 9.94363 92.1838 26.255 89.3815 30.5309C85.2466 36.8423 81.3591 29.5063 81.1805 25.5446C80.8508 18.2222 79.1886 3.15407 84.9719 0.394531ZM86.608 8.11427C86.6081 8.03713 86.593 7.96071 86.5634 7.88939C86.5339 7.81806 86.4905 7.75323 86.4357 7.69858C86.381 7.64393 86.3159 7.60054 86.2443 7.57088C86.1727 7.54123 86.0959 7.5259 86.0184 7.52575L85.8261 7.52548C85.7485 7.52534 85.6716 7.54039 85.5999 7.56978C85.5282 7.59916 85.463 7.64231 85.4081 7.69676C85.3531 7.7512 85.3095 7.81588 85.2797 7.8871C85.2498 7.95831 85.2344 8.03467 85.2343 8.11181L85.204 25.3794C85.2039 25.4566 85.219 25.533 85.2486 25.6043C85.2781 25.6756 85.3215 25.7405 85.3763 25.7951C85.431 25.8498 85.4961 25.8932 85.5677 25.9228C85.6393 25.9525 85.7161 25.9678 85.7936 25.9679L85.986 25.9682C86.0635 25.9684 86.1404 25.9533 86.2121 25.9239C86.2838 25.8945 86.349 25.8514 86.404 25.7969C86.4589 25.7425 86.5025 25.6778 86.5324 25.6066C86.5622 25.5354 86.5776 25.459 86.5777 25.3819L86.608 8.11427Z" fill="white"/>
<path d="M96.2365 24.6435C96.4105 24.6435 96.5799 24.6435 96.7448 24.6435C96.8832 24.6435 97.016 24.5888 97.1139 24.4914C97.2118 24.3941 97.2668 24.2621 97.2668 24.1244L97.1844 2.66281C97.1844 2.02529 97.4866 1.80216 98.091 1.99342L100.11 2.60817C100.587 2.76299 100.82 3.0863 100.811 3.5781C100.692 8.45056 100.66 15.8139 100.715 25.6681C100.742 32.6216 91.9918 31.6243 92.0605 27.0342C92.1978 18.5734 92.1337 10.1172 91.8682 1.66555C91.8498 1.16465 92.0925 0.946068 92.5962 1.00982L94.8353 1.31036C95.2932 1.37412 95.5222 1.63368 95.5222 2.08905V23.9331C95.5222 24.3976 95.7603 24.6344 96.2365 24.6435Z" fill="white"/>
<path d="M33.7339 21.7328L33.6926 25.3666C33.6926 25.8584 33.4591 26.1908 32.9921 26.3639C32.2136 26.6371 31.4581 26.5961 30.7255 26.2409C30.2676 26.0132 29.7776 25.904 29.2556 25.9131L21.5766 26.036C20.963 26.0451 20.6562 25.7446 20.6562 25.1344V2.3477C20.6562 1.81947 20.9218 1.60089 21.453 1.69196L26.7829 2.6619C27.3599 2.76208 27.7995 3.05807 28.1017 3.54987C28.7427 4.61544 28.7885 5.65823 28.2391 6.67826C27.9918 7.14274 27.6209 7.29756 27.1264 7.14274L26.3434 6.89684C25.7481 6.70558 25.3314 6.89228 25.0933 7.45694C24.2599 9.39681 24.6033 10.6673 26.1236 11.2684C26.5167 11.4276 26.8588 11.6904 27.1129 12.0286C27.3671 12.3667 27.5238 12.7673 27.5662 13.1873C27.6086 13.6074 27.535 14.031 27.3535 14.4126C27.1719 14.7941 26.8892 15.1193 26.5357 15.353C24.6858 16.5825 24.1546 18.3539 24.9422 20.6672C24.9793 20.7855 25.05 20.8901 25.1453 20.9678C25.2407 21.0456 25.3564 21.0931 25.4779 21.1044L28.2528 21.4049C28.3912 21.4227 28.5231 21.4741 28.6368 21.5546C28.7505 21.635 28.8427 21.7419 28.9051 21.8661C28.9675 21.9902 28.9983 22.1277 28.9947 22.2664C28.9912 22.4052 28.9534 22.5409 28.8847 22.6617C28.3902 23.5087 28.4176 24.342 28.9671 25.1617C29.0229 25.2471 29.104 25.3131 29.1991 25.3507C29.2942 25.3883 29.3988 25.3956 29.4982 25.3716C29.5977 25.3476 29.6873 25.2935 29.7545 25.2168C29.8218 25.14 29.8635 25.0444 29.8738 24.9431L32.2228 5.88592C32.3067 5.26803 32.6114 4.70082 33.0812 4.28801C33.5511 3.8752 34.1547 3.64437 34.7816 3.63774C35.4085 3.6311 36.0169 3.84911 36.4954 4.25189C36.974 4.65467 37.2908 5.2153 37.3879 5.83127L40.4375 26.3502C40.5199 26.8602 40.3001 27.1016 39.7781 27.0743L37.3192 26.9513C36.669 26.9149 36.3027 26.5779 36.2202 25.9404L35.6845 21.6098C35.6681 21.3526 35.5496 21.1123 35.3551 20.942C35.1606 20.7716 34.906 20.6851 34.6474 20.7014C34.3887 20.7177 34.1471 20.8355 33.9758 21.0289C33.8045 21.2223 33.7175 21.4755 33.7339 21.7328ZM34.3108 16.364C33.917 16.8558 33.9445 17.4113 34.3932 18.0306C34.4906 18.1696 34.6314 18.2717 34.7936 18.3211C34.9558 18.3704 35.1304 18.3642 35.2902 18.3035C35.45 18.2427 35.5861 18.1308 35.6773 17.9851C35.7685 17.8394 35.8096 17.6681 35.7944 17.4978L35.3273 12.3339C35.3178 12.2411 35.2756 12.1547 35.2082 12.0898C35.1408 12.0249 35.0525 11.9858 34.9589 11.9792C34.8654 11.9727 34.7725 11.9992 34.6966 12.0541C34.6208 12.109 34.5669 12.1887 34.5443 12.2793C34.233 13.6272 34.1551 14.9888 34.3108 16.364Z" fill="white"/>
<path d="M0.0507812 18.7412V16.7057L0.682682 16.2686C0.711371 16.242 0.838066 16.2101 1.04238 16.1779C1.2467 16.1457 1.51676 16.1151 1.80911 16.091C3.19197 15.9817 3.84677 16.6784 3.7735 18.1811C3.75519 18.7002 4.00245 18.9234 4.5153 18.8505L5.06478 18.7685C5.36165 18.7312 5.64058 18.6083 5.86749 18.4147C6.0944 18.2211 6.25946 17.9652 6.34251 17.6783C6.42556 17.3914 6.423 17.0859 6.33514 16.7992C6.24728 16.5124 6.07794 16.2569 5.84778 16.0636C3.01797 13.723 1.08563 11.214 0.0507812 8.53638V5.85881C1.98769 -0.138406 9.50182 1.51458 8.47155 7.56644C8.37997 8.12199 8.05028 8.39977 7.48249 8.39977H6.58958C6.19579 8.39977 5.92105 8.21762 5.76536 7.85332L5.05104 6.214C4.96829 6.04002 4.82663 5.90055 4.65086 5.82002C4.47509 5.73949 4.27643 5.72303 4.08969 5.77353C3.90295 5.82403 3.74003 5.93827 3.62947 6.09623C3.51892 6.25419 3.46779 6.4458 3.48503 6.63749C4.2543 12.7577 11.6585 12.7577 7.94954 21.4188C7.863 21.6166 7.73609 21.7933 7.57734 21.937C7.41859 22.0807 7.23168 22.1882 7.02917 22.2521C3.28355 23.4178 0.957422 22.2476 0.0507812 18.7412Z" fill="white"/>
<path d="M64.4896 19.8887C63.876 19.7794 63.5692 20.0026 63.5692 20.5581C63.5967 23.8914 63.5967 27.2794 63.5692 30.722C63.5694 30.852 63.5385 30.9802 63.479 31.096C63.4196 31.2117 63.3333 31.3118 63.2273 31.3879C63.1212 31.464 62.9985 31.5138 62.8693 31.5335C62.7401 31.5531 62.608 31.5418 62.484 31.5007L60.8905 30.9815C60.6832 30.9151 60.5024 30.7841 60.3741 30.6074C60.2457 30.4306 60.1764 30.2173 60.1762 29.9979L60.0938 4.43805C60.0945 4.23429 60.1596 4.0355 60.2802 3.8691C60.4008 3.7027 60.5708 3.57691 60.7669 3.5091C69.4486 0.503658 68.487 8.93255 68.3771 14.0281C68.368 14.5108 68.2535 14.9662 68.0337 15.3942C67.4568 16.5509 67.5621 17.6438 68.3497 18.6729C68.5098 18.8766 68.5969 19.1266 68.5969 19.3833L68.7068 31.4323C68.716 32.1154 68.3863 32.3795 67.7178 32.2247L65.9457 31.8149C65.4512 31.7056 65.2085 31.4005 65.2176 30.8996L65.3413 20.8997C65.3417 20.6584 65.2565 20.4247 65.1007 20.2398C64.9449 20.0549 64.7285 19.9306 64.4896 19.8887ZM63.9676 8.91888C63.5188 9.78409 63.4044 10.7085 63.6242 11.6921C63.6974 12.0108 63.6928 12.3296 63.6104 12.6484C63.4456 13.2859 63.6333 13.764 64.1736 14.0828C64.8971 14.5017 65.2451 14.2922 65.2176 13.4544L65.0665 9.16478C65.0669 9.03424 65.0225 8.90747 64.9406 8.80543C64.8587 8.70338 64.7443 8.63214 64.6162 8.60349C64.4882 8.57483 64.3541 8.59046 64.2362 8.6478C64.1182 8.70515 64.0235 8.80077 63.9676 8.91888Z" fill="white"/>
<path d="M109.946 23.2497C109.946 24.4337 109.946 24.6841 109.946 24.0011C107.84 26.7242 105.514 27.8262 102.968 27.3071C102.528 27.216 102.309 26.9473 102.309 26.5011L102.377 4.31546C102.382 4.11124 102.46 3.9158 102.596 3.76517C102.733 3.61455 102.918 3.51888 103.119 3.4958C104.85 3.3182 105.496 4.61601 105.482 6.18703C105.436 11.3782 105.445 16.5922 105.509 21.829C105.518 22.339 105.779 22.5849 106.292 22.5667C107.867 22.512 109.085 22.7397 109.946 23.2497Z" fill="white"/>
<path d="M52.3872 28.3454L52.2636 6.474C52.2636 5.96398 52.5155 5.65433 53.0191 5.54505L58.2529 4.37019C58.8024 4.24269 59.0726 4.46127 59.0634 5.02592L59.0222 8.83737C59.013 9.27452 58.8024 9.5523 58.3903 9.67069L56.5358 10.1898C56.0962 10.3173 55.8261 10.5996 55.7253 11.0368C55.359 12.5395 55.7711 13.7645 56.9617 14.7116C57.3097 14.994 57.5478 15.3491 57.676 15.7772C58.2071 17.5258 57.763 18.8692 56.3435 19.8072C55.7585 20.2047 55.2568 20.8251 54.9359 21.5478C54.6151 22.2704 54.4982 23.0436 54.6079 23.7168C54.7175 24.3901 55.046 24.9152 55.5293 25.1899C56.0127 25.4647 56.6163 25.4695 57.2227 25.2033C57.7355 24.9757 58.1201 24.8982 58.3766 24.9711C58.8711 25.1168 59.1184 25.4447 59.1184 25.9547V29.0967C59.1184 30.0439 58.6467 30.4902 57.7034 30.4355C55.7253 30.3354 53.8342 29.921 52.0301 29.1924C51.6271 29.0284 51.215 28.992 50.7937 29.0831C46.604 30.012 46.7963 22.1569 46.4529 19.5067C46.3888 18.9784 46.0774 18.7826 45.5187 18.9192C45.1066 19.0103 44.9143 19.2653 44.9418 19.6843L45.3814 27.2662C45.3899 27.3957 45.3675 27.5254 45.3158 27.6446C45.2641 27.7637 45.1847 27.869 45.0841 27.9517C44.9835 28.0344 44.8646 28.0922 44.7372 28.1202C44.6097 28.1483 44.4774 28.1459 44.3511 28.1132L42.2356 27.553C41.7869 27.4255 41.5625 27.1341 41.5625 26.6787L41.6312 6.2281C41.6312 5.52683 41.97 5.27182 42.6477 5.46308L44.5022 5.9822C45.0425 6.13703 45.2944 6.49221 45.2577 7.04776L44.9693 12.239C44.9657 12.3608 45.0042 12.4811 45.0781 12.5795C45.1519 12.6779 45.2567 12.7483 45.3747 12.7788C45.4927 12.8094 45.6166 12.7982 45.7254 12.7471C45.8343 12.696 45.9214 12.6082 45.9721 12.4985C46.5948 11.2053 46.9382 9.77998 47.0023 8.22262C47.1031 6.17345 48.1746 5.40843 50.2168 5.92756C50.7113 6.05506 50.8899 6.36016 50.7525 6.84285L48.7469 14.3564C48.6187 14.8391 48.6096 15.3309 48.7195 15.8318L51.4943 28.441C51.5209 28.5466 51.5849 28.6391 51.6747 28.7014C51.7645 28.7637 51.8738 28.7916 51.9827 28.7799C52.0915 28.7683 52.1924 28.7179 52.2668 28.638C52.3411 28.5581 52.3839 28.4542 52.3872 28.3454Z" fill="white"/>
</g>
<defs>
<clipPath id="clip0_117_9945">
<rect width="109.896" height="32.7866" fill="white" transform="translate(0.0507812 0.394531)"/>
</clipPath>
</defs>
</svg>
