<svg width="43" height="42" viewBox="0 0 43 42" fill="none" xmlns="http://www.w3.org/2000/svg">
<circle cx="21.3335" cy="21" r="20" fill="white" stroke="url(#paint0_linear_50_3816)" stroke-width="2"/>
<path d="M25.1223 16.1566C24.5196 16.1566 23.9514 16.1623 23.3774 16.1566C22.8436 16.1508 22.5222 15.6113 22.7632 15.1521C22.8895 14.9111 23.1019 14.7848 23.3717 14.7848C24.5196 14.7848 25.6618 14.779 26.8098 14.7848C27.1944 14.7848 27.4871 15.0603 27.4871 15.4449C27.4986 16.61 27.4986 17.7809 27.4871 18.9461C27.4814 19.3135 27.1542 19.6005 26.7926 19.5947C26.4252 19.589 26.1268 19.2962 26.121 18.9174C26.1153 18.4066 26.121 17.9015 26.121 17.3906C26.121 17.3218 26.121 17.2529 26.121 17.1381C26.0464 17.207 26.0005 17.2471 25.9546 17.2873C24.8411 18.4008 23.7275 19.5201 22.614 20.6279C22.5107 20.7255 22.4992 20.8001 22.5394 20.9436C22.614 21.1789 22.6714 21.4315 22.6772 21.6783C22.6886 23.9512 22.6886 26.2184 22.6829 28.4914C22.6829 29.6967 21.7817 30.5922 20.5764 30.5979C18.3149 30.6036 16.0534 30.6036 13.7862 30.5979C12.5809 30.5979 11.6855 29.6967 11.6855 28.4914C11.6797 26.2299 11.6797 23.9627 11.6855 21.7012C11.6855 20.4959 12.5866 19.6005 13.7977 19.6005C16.0592 19.5947 18.3207 19.5947 20.5879 19.6062C20.8519 19.6062 21.1159 19.7038 21.3857 19.744C21.4546 19.7554 21.5579 19.7497 21.6038 19.7038C22.769 18.5501 23.9284 17.3906 25.0879 16.2255C25.0879 16.2197 25.0936 16.2082 25.1223 16.1566Z" fill="url(#paint1_linear_50_3816)"/>
<path d="M11.6798 13.3546C11.697 12.2641 12.6211 11.3457 13.7059 11.3457C14.0962 11.3457 14.4062 11.6212 14.4234 11.9943C14.4406 12.3789 14.1594 12.6888 13.7576 12.7175C13.3156 12.752 13.0803 12.9815 13.0516 13.4235C13.0229 13.8253 12.7129 14.1123 12.3284 14.0951C11.9553 14.0778 11.674 13.7622 11.6798 13.3546Z" fill="url(#paint2_linear_50_3816)"/>
<path d="M28.9275 11.3458C30.0066 11.3687 30.9192 12.2814 30.9307 13.3605C30.9365 13.7622 30.6552 14.0779 30.2706 14.0894C29.8861 14.1066 29.5819 13.8196 29.5532 13.4121C29.5245 12.9874 29.2777 12.7406 28.8587 12.7119C28.4511 12.6832 28.1641 12.3847 28.1756 12.0001C28.1928 11.6213 28.5085 11.34 28.9275 11.3458Z" fill="url(#paint3_linear_50_3816)"/>
<path d="M30.9308 28.5879C30.9136 29.6784 29.9837 30.5968 28.8989 30.5968C28.5086 30.5968 28.1986 30.3155 28.1814 29.9425C28.1642 29.5579 28.4454 29.2479 28.8472 29.2192C29.2835 29.1848 29.5188 28.9495 29.5532 28.5132C29.5819 28.1115 29.8919 27.8302 30.2764 27.8474C30.661 27.8704 30.9365 28.1803 30.9308 28.5879Z" fill="url(#paint4_linear_50_3816)"/>
<path d="M17.1899 11.3463C17.4195 11.3463 17.6491 11.3406 17.8787 11.3463C18.2633 11.3578 18.556 11.662 18.556 12.0351C18.556 12.4024 18.2633 12.7066 17.8902 12.7124C17.4195 12.7239 16.9431 12.7239 16.4725 12.7124C16.0994 12.7066 15.8066 12.3967 15.8066 12.0351C15.8066 11.6562 16.0994 11.3578 16.4839 11.3463C16.7193 11.3406 16.9546 11.3463 17.1899 11.3463Z" fill="url(#paint5_linear_50_3816)"/>
<path d="M21.2995 12.7179C21.07 12.7179 20.8404 12.7237 20.6108 12.7179C20.2262 12.7064 19.9277 12.408 19.9277 12.0349C19.9277 11.6561 20.2205 11.3518 20.605 11.3461C21.07 11.3404 21.5349 11.3404 21.9998 11.3461C22.3844 11.3518 22.6771 11.6675 22.6714 12.0406C22.6656 12.408 22.3786 12.7064 21.9998 12.7179C21.7759 12.7237 21.5406 12.7179 21.2995 12.7179Z" fill="url(#paint6_linear_50_3816)"/>
<path d="M25.4265 12.7179C25.1969 12.7179 24.9673 12.7237 24.7377 12.7179C24.3532 12.7064 24.0547 12.408 24.0547 12.0349C24.0547 11.6561 24.3474 11.3576 24.732 11.3461C25.1969 11.3404 25.6618 11.3404 26.1268 11.3461C26.5113 11.3518 26.804 11.6675 26.7983 12.0406C26.7926 12.408 26.5056 12.7064 26.1268 12.7179C25.8972 12.7237 25.6618 12.7179 25.4265 12.7179Z" fill="url(#paint7_linear_50_3816)"/>
<path d="M13.0514 16.8445C13.0514 17.0741 13.0571 17.3036 13.0514 17.5332C13.0399 17.9235 12.7472 18.222 12.3741 18.222C11.9895 18.2278 11.6853 17.9235 11.6796 17.5275C11.6739 17.0741 11.6739 16.6264 11.6796 16.1729C11.6853 15.7711 11.9838 15.4727 12.3684 15.4727C12.7529 15.4727 13.0457 15.7769 13.0514 16.1787C13.0571 16.3968 13.0571 16.6206 13.0514 16.8445Z" fill="url(#paint8_linear_50_3816)"/>
<path d="M30.9308 16.8504C30.9308 17.08 30.9365 17.3096 30.9308 17.5392C30.9193 17.9295 30.6209 18.2222 30.2478 18.2222C29.8747 18.2222 29.5647 17.9295 29.559 17.5449C29.5533 17.08 29.5533 16.6151 29.559 16.1502C29.5647 15.7656 29.8747 15.4729 30.2535 15.4786C30.6209 15.4843 30.9193 15.7713 30.9308 16.1444C30.9365 16.374 30.9308 16.6151 30.9308 16.8504Z" fill="url(#paint9_linear_50_3816)"/>
<path d="M29.5533 20.9658C29.5533 20.7362 29.5476 20.5066 29.5533 20.277C29.5648 19.8924 29.8633 19.594 30.2421 19.5997C30.6152 19.5997 30.9194 19.8982 30.9251 20.2827C30.9309 20.7419 30.9309 21.2011 30.9251 21.6545C30.9194 22.0448 30.6209 22.3433 30.2478 22.3433C29.8633 22.349 29.5591 22.0448 29.5533 21.6488C29.5533 21.4192 29.5533 21.1954 29.5533 20.9658Z" fill="url(#paint10_linear_50_3816)"/>
<path d="M29.5533 25.1041C29.5533 24.8745 29.5476 24.6449 29.5533 24.4153C29.5648 24.0135 29.8633 23.715 30.2478 23.7208C30.6209 23.7265 30.9194 24.025 30.9251 24.4153C30.9309 24.8745 30.9309 25.3337 30.9251 25.7871C30.9194 26.1717 30.6152 26.4701 30.2421 26.4701C29.869 26.4701 29.5648 26.1717 29.5533 25.7871C29.5533 25.5633 29.5533 25.3337 29.5533 25.1041Z" fill="url(#paint11_linear_50_3816)"/>
<path d="M25.4324 30.5968C25.2085 30.5968 24.9904 30.6026 24.7665 30.5968C24.3648 30.5911 24.0605 30.2983 24.0605 29.9138C24.0605 29.5292 24.359 29.2307 24.7608 29.225C25.2142 29.2193 25.6619 29.2193 26.1154 29.225C26.5172 29.2307 26.8156 29.535 26.8156 29.9195C26.8099 30.2926 26.5172 30.5911 26.1269 30.6026C25.8858 30.6026 25.6562 30.5968 25.4324 30.5968Z" fill="url(#paint12_linear_50_3816)"/>
<defs>
<linearGradient id="paint0_linear_50_3816" x1="0.333496" y1="24.7939" x2="42.3371" y2="24.7527" gradientUnits="userSpaceOnUse">
<stop stop-color="#EB4747"/>
<stop offset="1" stop-color="#FF8B8B"/>
</linearGradient>
<linearGradient id="paint1_linear_50_3816" x1="11.6812" y1="24.1211" x2="31.3032" y2="24.8918" gradientUnits="userSpaceOnUse">
<stop stop-color="#EB4747"/>
<stop offset="1" stop-color="#FF8B8B"/>
</linearGradient>
<linearGradient id="paint2_linear_50_3816" x1="11.3335" y1="12.9691" x2="31.3028" y2="13.7521" gradientUnits="userSpaceOnUse">
<stop stop-color="#EB4747"/>
<stop offset="1" stop-color="#FF8B8B"/>
</linearGradient>
<linearGradient id="paint3_linear_50_3816" x1="11.3335" y1="12.9658" x2="31.3024" y2="13.7536" gradientUnits="userSpaceOnUse">
<stop stop-color="#EB4747"/>
<stop offset="1" stop-color="#FF8B8B"/>
</linearGradient>
<linearGradient id="paint4_linear_50_3816" x1="11.3335" y1="29.4701" x2="31.3027" y2="30.2548" gradientUnits="userSpaceOnUse">
<stop stop-color="#EB4747"/>
<stop offset="1" stop-color="#FF8B8B"/>
</linearGradient>
<linearGradient id="paint5_linear_50_3816" x1="11.3337" y1="12.1568" x2="31.2115" y2="13.7159" gradientUnits="userSpaceOnUse">
<stop stop-color="#EB4747"/>
<stop offset="1" stop-color="#FF8B8B"/>
</linearGradient>
<linearGradient id="paint6_linear_50_3816" x1="11.3335" y1="12.1557" x2="31.212" y2="13.71" gradientUnits="userSpaceOnUse">
<stop stop-color="#EB4747"/>
<stop offset="1" stop-color="#FF8B8B"/>
</linearGradient>
<linearGradient id="paint7_linear_50_3816" x1="11.3337" y1="12.1557" x2="31.2122" y2="13.71" gradientUnits="userSpaceOnUse">
<stop stop-color="#EB4747"/>
<stop offset="1" stop-color="#FF8B8B"/>
</linearGradient>
<linearGradient id="paint8_linear_50_3816" x1="11.3335" y1="17.0957" x2="31.3257" y2="17.4901" gradientUnits="userSpaceOnUse">
<stop stop-color="#EB4747"/>
<stop offset="1" stop-color="#FF8B8B"/>
</linearGradient>
<linearGradient id="paint9_linear_50_3816" x1="11.3335" y1="17.0982" x2="31.3257" y2="17.4929" gradientUnits="userSpaceOnUse">
<stop stop-color="#EB4747"/>
<stop offset="1" stop-color="#FF8B8B"/>
</linearGradient>
<linearGradient id="paint10_linear_50_3816" x1="11.3335" y1="21.2193" x2="31.3257" y2="21.614" gradientUnits="userSpaceOnUse">
<stop stop-color="#EB4747"/>
<stop offset="1" stop-color="#FF8B8B"/>
</linearGradient>
<linearGradient id="paint11_linear_50_3816" x1="11.3335" y1="25.3438" x2="31.3257" y2="25.7376" gradientUnits="userSpaceOnUse">
<stop stop-color="#EB4747"/>
<stop offset="1" stop-color="#FF8B8B"/>
</linearGradient>
<linearGradient id="paint12_linear_50_3816" x1="11.3337" y1="30.0365" x2="31.2118" y2="31.5936" gradientUnits="userSpaceOnUse">
<stop stop-color="#EB4747"/>
<stop offset="1" stop-color="#FF8B8B"/>
</linearGradient>
</defs>
</svg>
