<svg width="30" height="31" viewBox="0 0 30 31" fill="none" xmlns="http://www.w3.org/2000/svg">
<path d="M23.6115 18.3265V9.69789H23.6918L23.6918 18.3265L23.6918 18.3275C23.6932 19.024 23.5603 19.7137 23.3011 20.3571C23.0419 21.0005 22.6616 21.5848 22.1824 22.0767C21.7032 22.5686 21.1345 22.9586 20.5091 23.2249C19.8838 23.4912 19.2138 23.6289 18.5372 23.6304C18.537 23.6304 18.5369 23.6304 18.5367 23.6304L18.5279 23.6304C17.3892 23.6191 16.2858 23.2171 15.3949 22.4866L15.0825 22.2305L14.7665 22.4821C13.9967 23.0949 13.0762 23.4753 12.1086 23.5817C11.1409 23.6882 10.1631 23.5168 9.28453 23.086C8.40587 22.6552 7.66059 21.9816 7.13359 21.1396C6.60716 20.2985 6.3198 19.3231 6.30469 18.3229V9.69789H6.38493V18.3264C6.38493 18.3265 6.38493 18.3265 6.38493 18.3265C6.38439 19.2887 6.64557 20.2327 7.14022 21.0533C7.63497 21.874 8.34421 22.5394 9.18983 22.9736C10.0356 23.408 10.9836 23.5936 11.9277 23.509C12.8718 23.4244 13.7732 23.0731 14.5313 22.4956L14.9513 22.1756L14.6089 21.7736C13.7958 20.819 13.3438 19.5956 13.3377 18.3262V10.8552C13.3377 10.3985 13.5153 9.96268 13.828 9.64304C14.1403 9.32377 14.5615 9.14648 14.9982 9.14648C15.435 9.14648 15.8562 9.32377 16.1685 9.64304C16.4811 9.96268 16.6587 10.3985 16.6587 10.8552L16.6587 18.3273L16.6587 18.329C16.6628 19.5946 16.2222 20.818 15.4193 21.7768L15.0801 22.1819L15.5033 22.4983C16.0435 22.9022 16.6569 23.1937 17.3084 23.3557C17.96 23.5177 18.6366 23.5468 19.2994 23.4414C19.9622 23.336 20.5976 23.0982 21.1695 22.7421C21.7413 22.3859 22.2381 21.9186 22.632 21.3671C23.2631 20.4837 23.6052 19.4209 23.6115 18.3294V18.3265ZM13.8769 9.7239L14.2344 10.0735L13.8769 9.7239C13.5819 10.0256 13.418 10.4325 13.418 10.8544L13.418 18.3265L13.418 18.3272C13.4197 19.5469 13.8418 20.7283 14.6123 21.6638L14.9984 22.1325L15.3843 21.6637C16.1544 20.7281 16.5764 19.5468 16.5785 18.3274V18.3265V10.8544C16.5785 10.4325 16.4146 10.0256 16.1195 9.7239L15.7621 10.0735L16.1195 9.7239C15.8241 9.42185 15.4209 9.25007 14.9982 9.25007C14.5755 9.25007 14.1724 9.42185 13.8769 9.7239Z" fill="black" stroke="#A2CAF2"/>
<circle cx="15" cy="15.9043" r="14" stroke="#A2CAF2" stroke-width="2"/>
<line x1="6.14022" y1="4.09706" x2="25.371" y2="26.4048" stroke="#A2CAF2" stroke-width="2"/>
</svg>
