<svg width="42" height="43" viewBox="0 0 42 43" fill="none" xmlns="http://www.w3.org/2000/svg">
<circle cx="21" cy="21.9375" r="20" fill="white" stroke="url(#paint0_linear_50_3928)" stroke-width="2"/>
<path d="M11.6973 27.4365C13.5725 27.4365 15.4526 27.4365 17.3376 27.4365C17.3473 27.6066 17.3473 27.762 17.3667 27.9175C17.4299 28.5296 17.9157 29.0154 18.5327 29.0786C18.625 29.0883 18.7124 29.0931 18.8047 29.0931C20.2767 29.0931 21.7488 29.0931 23.2208 29.0931C23.9544 29.0931 24.4936 28.6996 24.6296 28.0535C24.6734 27.8592 24.6685 27.6551 24.6831 27.4414C26.5486 27.4414 28.4238 27.4414 30.3331 27.4414C30.3137 27.8883 30.338 28.3401 30.2699 28.7774C30.1533 29.5012 29.4781 30.0453 28.7445 30.0794C28.6619 30.0842 28.5744 30.0842 28.4919 30.0842C23.5074 30.0842 18.5181 30.0842 13.5336 30.0842C12.5474 30.0842 11.9742 29.647 11.7264 28.6948C11.7216 28.6851 11.7118 28.6753 11.7021 28.6656C11.6973 28.2575 11.6973 27.8495 11.6973 27.4365Z" fill="url(#paint1_linear_50_3928)"/>
<path d="M29.6529 26.7613C23.8814 26.7613 18.1342 26.7613 12.3676 26.7613C12.3628 26.6885 12.3579 26.6253 12.3579 26.5622C12.3579 22.6805 12.3579 18.794 12.3579 14.9123C12.3579 14.2128 12.766 13.8047 13.4607 13.8047C18.4937 13.8047 23.5316 13.8047 28.5647 13.8047C29.24 13.8047 29.6529 14.2176 29.6529 14.8929C29.6529 18.7891 29.6529 22.6854 29.6529 26.5816C29.6529 26.6302 29.6529 26.6836 29.6529 26.7613ZM17.0606 14.7666C16.9731 14.6694 16.91 14.5577 16.8128 14.4945C16.6817 14.412 16.5408 14.4654 16.4339 14.5723C15.336 15.6702 14.238 16.7633 13.1449 17.8612C12.9943 18.0118 12.9943 18.2159 13.1255 18.347C13.2615 18.4831 13.4607 18.4879 13.6113 18.3325C14.7093 17.2394 15.8072 16.1415 16.9003 15.0387C16.9634 14.9852 16.9926 14.8881 17.0606 14.7666ZM13.3441 16.5058C13.4656 16.4281 13.5627 16.3892 13.6307 16.3212C14.0485 15.9083 14.4615 15.4953 14.8793 15.0775C15.0493 14.9026 15.0688 14.7083 14.9327 14.5674C14.787 14.412 14.5927 14.4265 14.408 14.6111C14.1846 14.8298 13.9611 15.0581 13.7425 15.2767C13.5433 15.4759 13.3393 15.6799 13.1401 15.8791C13.0332 15.9909 12.9943 16.1317 13.0721 16.2629C13.1255 16.3601 13.2372 16.4184 13.3441 16.5058Z" fill="url(#paint2_linear_50_3928)"/>
<path d="M18.0178 27.4414C20.0145 27.4414 21.9966 27.4414 23.9836 27.4414C23.9836 27.5969 24.003 27.7523 23.9787 27.8981C23.935 28.1944 23.6629 28.4228 23.3472 28.4228C21.7828 28.4276 20.2185 28.4276 18.6591 28.4228C18.2996 28.4228 18.0324 28.1458 18.0178 27.7912C18.0129 27.6795 18.0178 27.5726 18.0178 27.4414Z" fill="url(#paint3_linear_50_3928)"/>
<defs>
<linearGradient id="paint0_linear_50_3928" x1="2.71107e-09" y1="25.7314" x2="42.0036" y2="25.6902" gradientUnits="userSpaceOnUse">
<stop stop-color="#EB4747"/>
<stop offset="1" stop-color="#FF8B8B"/>
</linearGradient>
<linearGradient id="paint1_linear_50_3928" x1="10.9998" y1="28.7631" x2="25.4434" y2="37.7216" gradientUnits="userSpaceOnUse">
<stop stop-color="#EB4747"/>
<stop offset="1" stop-color="#FF8B8B"/>
</linearGradient>
<linearGradient id="paint2_linear_50_3928" x1="10.9998" y1="20.2965" x2="30.7268" y2="22.6169" gradientUnits="userSpaceOnUse">
<stop stop-color="#EB4747"/>
<stop offset="1" stop-color="#FF8B8B"/>
</linearGradient>
<linearGradient id="paint3_linear_50_3928" x1="10.9998" y1="27.9349" x2="26.5547" y2="36.2501" gradientUnits="userSpaceOnUse">
<stop stop-color="#EB4747"/>
<stop offset="1" stop-color="#FF8B8B"/>
</linearGradient>
</defs>
</svg>
