<svg width="36" height="24" viewBox="0 0 36 24" fill="none" xmlns="http://www.w3.org/2000/svg">
<path d="M0.726791 10.3095C0.708545 10.3035 0.699219 8.65618 0.699219 5.43947V0.578613H17.9697H35.2401V5.45894V10.3393L17.9972 10.329C8.51365 10.3234 0.741956 10.3146 0.726791 10.3095Z" fill="#BDD1EC"/>
<path d="M31.6043 17.7417C32.1233 17.5562 32.3717 17.2314 32.3717 16.7384C32.3717 16.2547 32.1718 16.0199 31.6549 15.8965C31.4837 15.8556 31.2859 15.845 30.504 15.835L29.5599 15.8228V16.834V17.8451L30.4627 17.836L31.3655 17.827L31.6043 17.7417ZM26.684 23.3638C26.6738 23.3536 26.6654 21.1635 26.6654 18.4969V13.6487L29.7046 13.6585C32.6998 13.6683 32.7478 13.6693 33.0179 13.7281C33.7484 13.8872 34.2333 14.132 34.6217 14.5376C35.0632 14.9988 35.2387 15.4893 35.2385 16.2617C35.2382 17.2114 35.0124 17.8546 34.5126 18.3294C34.2844 18.5462 34.0933 18.6641 33.7848 18.7788C33.6505 18.8287 33.5969 18.8588 33.6408 18.8597C33.7766 18.8623 34.0421 18.9456 34.2695 19.0569C34.6471 19.2418 34.9095 19.5544 35.0292 19.9618C35.0685 20.0954 35.3213 22.9629 35.3213 23.2743V23.3819H33.8327H32.3441L32.3435 23.0167C32.3425 22.2886 32.2907 21.1263 32.2507 20.9346C32.1421 20.4135 31.8291 20.1041 31.2662 19.9612C31.0679 19.9108 30.9287 19.9004 30.2975 19.8885L29.5603 19.8746L29.5532 21.6214L29.5461 23.3682L28.1243 23.3753C27.3424 23.3793 26.6943 23.374 26.684 23.3638ZM9.54657 18.5164V13.6509H13.1578H16.769V14.8363V16.0217H14.5912H12.4135V16.7246V17.4276H14.481H16.5485V18.5164V19.6053H14.481H12.4135V20.3083V21.0112H14.6464H16.8793V22.1966V23.3819H13.2129H9.54657V18.5164ZM20.8075 23.5618C18.7914 23.3294 17.7091 22.4102 17.3694 20.6419C17.3118 20.3419 17.3104 20.2691 17.3005 16.9934L17.2903 13.6509H18.7238H20.1573L20.1671 16.828C20.176 19.7356 20.1809 20.0226 20.2251 20.2118C20.3597 20.7887 20.654 21.1074 21.1853 21.2519C21.4347 21.3197 22.0693 21.3183 22.2961 21.2495C22.8079 21.0942 23.077 20.7964 23.2089 20.2394C23.254 20.0489 23.2586 19.7819 23.2673 16.8418L23.2769 13.651H24.7093H26.1416V16.8182C26.1416 18.8205 26.131 20.0904 26.1128 20.2709C26.0494 20.8996 25.8672 21.4982 25.6024 21.948C25.4358 22.231 25.0343 22.6596 24.7562 22.8514C24.2523 23.1988 23.648 23.4165 22.8558 23.536C22.4545 23.5965 21.2412 23.6118 20.8075 23.5618ZM3.71522 23.63C2.59266 23.46 1.75964 23.0887 1.14888 22.4863C0.728344 22.0715 0.474537 21.6225 0.326648 21.0319C0.262178 20.7744 0.192968 20.1761 0.22142 20.1222C0.22742 20.1108 0.917379 20.1015 1.75466 20.1015H3.27698L3.30928 20.4054C3.37344 21.0091 3.58291 21.2575 4.15731 21.4113C4.42136 21.4819 5.02023 21.4971 5.30083 21.4403C5.8822 21.3225 6.15605 21.053 6.15574 20.5992C6.15574 20.4323 6.14332 20.3707 6.09369 20.2887C5.93464 20.026 5.77973 19.9674 3.78516 19.4161C2.33804 19.0162 1.73279 18.7511 1.22717 18.296C0.95193 18.0482 0.709959 17.6436 0.611323 17.2661C0.500478 16.842 0.515392 16.1605 0.645986 15.6824C0.718709 15.4162 0.937343 14.9735 1.10469 14.7536C1.68454 13.9918 2.65761 13.5019 3.89471 13.349C4.1904 13.3125 5.15422 13.3119 5.4805 13.3481C7.41609 13.5628 8.57015 14.4633 8.84066 15.97C8.86346 16.097 8.88585 16.2815 8.89043 16.38L8.89876 16.5592H7.42394H5.94914L5.93206 16.4003C5.89507 16.056 5.7496 15.8618 5.40034 15.6902C5.13892 15.5618 4.87796 15.5176 4.47433 15.5334C3.80666 15.5594 3.52844 15.7481 3.52721 16.1758C3.52657 16.3853 3.61281 16.5466 3.79551 16.6778C4.07061 16.8754 4.42058 16.9815 5.53852 17.2061C7.25313 17.5506 8.08017 17.8831 8.65307 18.4581C9.11767 18.9244 9.32604 19.4887 9.32604 20.2807C9.32604 21.5522 8.73491 22.5042 7.58163 23.09C7.05386 23.3581 6.34517 23.555 5.59074 23.6433C5.08626 23.7023 4.14865 23.6957 3.71522 23.63Z" fill="#E95128"/>
<path d="M35.2379 0.579102H6.44531V10.3142H35.2379V0.579102Z" fill="#6D9AD3"/>
<path d="M35.2374 0.579102H15.0703V10.3142H35.2374V0.579102Z" fill="#1C64B0"/>
</svg>
