<svg width="16" height="17" viewBox="0 0 16 17" fill="none" xmlns="http://www.w3.org/2000/svg">
<path d="M8 0.789062C6.41775 0.789062 4.87103 1.25825 3.55544 2.13731C2.23985 3.01636 1.21447 4.26579 0.608967 5.72759C0.00346627 7.1894 -0.15496 8.79794 0.153721 10.3498C0.462403 11.9016 1.22433 13.3271 2.34315 14.4459C3.46197 15.5647 4.88743 16.3267 6.43928 16.6353C7.99113 16.944 9.59966 16.7856 11.0615 16.1801C12.5233 15.5746 13.7727 14.5492 14.6518 13.2336C15.5308 11.918 16 10.3713 16 8.78906C16 6.66733 15.1571 4.6325 13.6569 3.13221C12.1566 1.63192 10.1217 0.789063 8 0.789062ZM6.85715 11.9833L4 9.1262L4.90857 8.21763L6.85715 10.1662L11.0914 5.93192L12.0034 6.8382L6.85715 11.9833Z" fill="#A868F6"/>
</svg>
