<svg width="46" height="43" viewBox="0 0 46 43" fill="none" xmlns="http://www.w3.org/2000/svg">
<path d="M37.7451 35.4524C43.8604 29.9698 46.0825 20.578 42.2971 13.1181C39.2279 7.06835 33.7224 2.85165 27.0234 1.72848C24.9245 1.37606 22.9407 1.26576 21.0719 1.39757C13.1069 1.95916 5.64945 7.0711 2.91445 14.7342C0.524564 21.4307 2.09872 28.9015 6.89214 34.1425C7.35684 34.6506 7.84336 35.1421 8.35172 35.6172C8.38435 35.6474 8.40556 35.6882 8.41174 35.7326C8.60407 37.0356 8.95874 38.0929 10.0773 38.8329C11.666 39.8856 13.4398 40.6898 15.3986 41.2454C16.0125 41.4203 16.9091 41.5484 18.0886 41.6299C18.7725 41.6766 19.324 41.5173 19.7432 41.1521C19.8124 41.0916 19.8778 41.05 19.9397 41.0271C20.0488 40.9868 20.1261 40.9694 20.1716 40.9749C21.904 41.2038 23.6391 41.2225 25.3769 41.0312C25.9076 40.9736 26.2131 41.1315 26.636 41.391C27.1011 41.6752 28.0806 41.6395 28.4912 41.5777C31.1066 41.1832 33.4996 40.2737 35.6704 38.8494C36.6807 38.1858 37.255 37.2374 37.3932 36.0044C37.395 35.9872 37.4006 35.9699 37.4096 35.9536C37.5078 35.782 37.6019 35.5815 37.7451 35.4524Z" stroke="#9C9C9C" stroke-width="2"/>
<path d="M4.63766 13.0185C1.13058 19.5763 2.40464 27.8394 7.25944 33.3221C7.68958 33.8082 8.1511 34.2553 8.64399 34.6636C8.65175 34.6702 8.66179 34.6736 8.67213 34.6731C8.68247 34.6726 8.69238 34.6682 8.69992 34.6608C9.97671 33.3683 11.5122 32.598 13.3065 32.35C13.4638 32.3289 13.5906 32.2589 13.687 32.1399C14.4673 31.1774 16.5025 28.7786 15.5136 27.4687C14.9115 26.6705 14.5123 25.778 14.3159 24.7912C14.2654 24.5372 14.2777 24.1074 14.1345 23.7806C14.0999 23.7028 14.0694 23.7042 14.0431 23.7847C13.7275 24.745 13.4697 25.4333 13.2696 25.8498C13.0377 26.3345 11.9587 28.1566 11.4063 28.169C10.9534 28.1786 10.8388 27.6458 10.6806 27.2188C9.92078 25.1729 8.22112 24.75 6.78201 23.7504C4.37984 22.0821 3.46454 18.563 5.4452 16.1876C5.59252 16.01 5.99356 15.6589 6.64833 15.1344C7.63411 14.3426 8.48121 13.4213 9.18963 12.3704C10.1759 10.904 11.1689 9.61879 12.4921 8.48326C13.1632 7.90657 13.8194 7.64019 14.7647 7.52898C16.1083 7.3697 17.3237 6.83695 18.5678 6.41404C19.5917 6.06528 20.6389 5.90875 21.7093 5.94445C22.4977 5.97008 22.9033 5.9829 22.926 5.9829C23.8809 5.97466 24.848 5.88679 25.7374 6.0392C27.107 6.27536 28.4247 6.69369 29.6905 7.29418C29.8497 7.37016 30.1502 7.42096 30.5922 7.44659C31.8281 7.51799 32.9262 7.97385 33.8237 8.81692C34.9232 9.85038 35.9063 11.034 36.7729 12.3677C37.6009 13.6405 38.5326 14.5289 39.7139 15.4571C42.7285 17.827 41.8105 22.2373 38.7495 23.9893C37.2394 24.853 35.5425 25.7263 35.1005 27.595C34.9941 28.0426 34.6504 28.4271 34.2057 28.0069C32.9575 26.8247 32.461 25.3693 31.8663 23.8012C31.8617 23.7903 31.8538 23.7809 31.8438 23.7746C31.8337 23.7683 31.822 23.7653 31.8103 23.7661C31.7986 23.7669 31.7876 23.7713 31.7787 23.7789C31.7699 23.7864 31.7638 23.7967 31.7612 23.8081C31.734 23.928 31.7117 24.0969 31.6944 24.3148C31.6135 25.3647 31.2324 26.3551 30.5513 27.2861C30.2921 27.6403 30.1066 27.9712 30.1598 28.3667C30.278 29.2473 30.6295 30.094 31.2142 30.9069C31.6153 31.4634 31.9231 31.8401 32.1377 32.0369C32.3078 32.1943 32.4319 32.2781 32.5101 32.2882C34.0502 32.4859 36.0431 33.2672 37.0921 34.5592C37.1203 34.594 37.1503 34.5963 37.1821 34.5661C41.4845 30.4579 43.6397 24.8351 42.8786 18.8541C41.6809 9.4499 33.5591 2.73834 24.3979 2.19735C19.8786 1.93097 15.4453 2.89212 11.6777 5.32245C8.70128 7.24292 6.35459 9.80827 4.63766 13.0185Z" stroke="#96915D" stroke-width="2"/>
<path d="M16.6787 19.4872C15.5779 20.8438 14.99 22.4832 15.2696 24.2339C15.4133 25.1355 15.733 25.9534 16.2286 26.6876C16.6596 27.326 18.1574 28.6236 18.9459 27.7888C19.898 26.7795 21.2089 25.5603 22.5552 25.3419C24.1485 25.0852 25.9409 26.5983 27.009 27.7942C27.4973 28.3407 28.1958 28.0208 28.7168 27.6693C31.5241 25.7717 31.2363 21.8132 29.2311 19.4776C29.2253 19.4707 29.2219 19.4622 29.2214 19.4533C29.2209 19.4443 29.2233 19.4355 29.2282 19.428C29.2332 19.4206 29.2404 19.415 29.2488 19.412C29.2572 19.4091 29.2663 19.4089 29.2747 19.4117C30.6307 19.8304 31.2377 21.1445 31.5378 22.4338C31.5496 22.485 31.5746 22.4919 31.6128 22.4544C32.1325 21.9381 32.082 21.1486 32.1107 20.3371C32.1857 18.1677 33.086 16.1534 32.8869 13.9757C32.8414 13.4859 32.6941 12.885 32.4449 12.1728C32.1439 11.3096 31.9329 10.7252 31.812 10.4194C31.3982 9.37772 30.6525 8.63763 29.5748 8.19916C28.6364 7.81882 27.6883 7.37944 26.7253 7.13229C25.1934 6.73822 23.6424 6.98263 21.9673 6.88651C20.4109 6.79589 19.16 7.05952 17.65 7.68564C17.0798 7.9218 16.5078 8.15111 15.9339 8.37355C15.6648 8.4779 15.4438 8.61612 15.271 8.78821C14.7854 9.27245 14.3975 9.82488 14.1074 10.4455C13.8878 10.9151 13.7105 11.5865 13.5086 12.1454C13.3012 12.723 13.173 13.1546 13.1239 13.4402C12.9207 14.6073 13.0816 15.4545 13.319 16.8962C13.4499 17.6889 13.5941 18.4789 13.7514 19.2661C13.816 19.5883 13.8678 20.3838 13.9069 21.6525C13.9151 21.917 14.0456 22.1747 14.2984 22.4255C14.3384 22.4649 14.3661 22.4576 14.3816 22.4036C14.7295 21.1445 15.301 19.8195 16.6378 19.4268C16.716 19.4039 16.7297 19.424 16.6787 19.4872Z" stroke="#655C56" stroke-width="2"/>
<path d="M34.6554 10.9944C33.9433 10.1211 33.1135 9.35451 32.1659 8.69452C32.1527 8.68548 32.137 8.68098 32.1211 8.68172C32.1051 8.68245 32.0899 8.68837 32.0776 8.69859C32.0653 8.70881 32.0566 8.72277 32.0528 8.73838C32.0491 8.75399 32.0505 8.7704 32.0568 8.78514C32.8684 10.61 33.8847 12.535 33.9638 14.6042C33.9829 15.0811 33.9165 15.8052 33.7646 16.7764C33.3663 19.3422 33.1813 21.7053 33.2095 23.8656C33.2186 24.564 33.4877 25.2185 34.017 25.8291C34.1698 26.0048 34.4576 26.1023 34.6158 25.9087C35.527 24.7993 36.5519 23.963 37.6905 23.4001C38.3684 23.0651 39.251 22.3511 39.7012 21.7936C40.6615 20.6054 40.8957 19.2186 40.4037 17.6332C40.2245 17.0556 39.9121 16.6071 39.4665 16.2876C38.5744 15.6519 37.7696 15.1713 37.138 14.4243C36.5283 13.7021 36.0959 12.87 35.5311 12.119C35.2074 11.6887 34.9155 11.3139 34.6554 10.9944Z" stroke="#655C56" stroke-width="2"/>
<path d="M13.0788 10.6348C13.3462 10.0041 13.5881 9.44205 13.8045 8.94866C13.9109 8.70608 13.8536 8.65711 13.6327 8.80174C12.1799 9.76014 10.7735 11.438 9.8023 12.9882C9.39943 13.6317 9.08706 14.0784 8.86517 14.3283C8.21859 15.0561 7.47925 15.6804 6.64715 16.2012C6.28976 16.4255 6.02558 16.685 5.85462 16.9797C4.54645 19.2426 5.5968 21.9255 7.79026 23.1174C8.74058 23.6346 9.60723 24.2149 10.3902 24.8584C10.6999 25.1124 11.1787 25.9061 11.5101 26.0077C11.9889 26.1546 12.5127 24.8941 12.6137 24.5344C12.7137 24.1792 12.7578 23.6844 12.746 23.0501C12.7064 21.066 12.5414 19.086 12.2126 17.1267C12.0721 16.2946 11.8593 15.4501 11.9794 14.6002C12.1731 13.2281 12.5396 11.9062 13.0788 10.6348Z" stroke="#655C56" stroke-width="2"/>
<path d="M22.8937 29.5983C22.7391 28.6902 22.6877 27.7744 22.7395 26.8508C22.7468 26.7162 22.7141 26.4563 22.6413 26.0709C22.6313 26.0187 22.6013 25.9999 22.5513 26.0146C22.002 26.1702 21.5 26.4238 21.0453 26.7753C21.0091 26.8029 20.9832 26.842 20.9717 26.8865C20.5461 28.4518 20.3619 29.9882 21.0071 31.5027C21.4709 32.5916 22.4749 33.2644 23.6617 32.7824C24.441 32.4666 24.9344 31.8158 25.1417 30.8299C25.4072 29.5621 25.4213 28.411 25.184 27.3767C24.9985 26.5693 24.0054 26.1134 23.2756 26.0132C23.2274 26.0059 23.2033 26.0269 23.2033 26.0764C23.207 27.0146 23.2015 27.9492 23.187 28.8802C23.1815 29.1786 23.1178 29.4248 22.996 29.6189C22.9441 29.7013 22.91 29.6944 22.8937 29.5983Z" stroke="#96915D" stroke-width="2"/>
<path d="M29.0941 28.6419C28.1638 29.2131 27.3072 29.6484 26.2022 29.7733C26.1613 29.7788 26.1363 29.8017 26.1272 29.842L25.6402 32.0197C25.6275 32.0782 25.6493 32.0984 25.7057 32.0801C27.0998 31.6352 28.3912 30.9853 29.5797 30.1303C29.5969 30.1176 29.6097 30.0997 29.6163 30.0793C29.6229 30.0588 29.623 30.0368 29.6166 30.0163L29.1773 28.6735C29.1628 28.6277 29.135 28.6172 29.0941 28.6419Z" stroke="#4A7D9C" stroke-width="2"/>
<path d="M19.7353 29.7959C18.5281 29.5666 17.7955 29.189 16.8366 28.6686C16.7911 28.6439 16.7607 28.6562 16.7452 28.7057L16.3223 30.0087C16.3078 30.0563 16.3201 30.0943 16.3592 30.1227C17.5368 30.9795 18.8186 31.6271 20.2045 32.0656C20.2764 32.0885 20.3041 32.0628 20.2877 31.9887L19.8171 29.8755C19.8127 29.8555 19.8025 29.8373 19.788 29.8231C19.7734 29.809 19.7551 29.7995 19.7353 29.7959Z" stroke="#4A7D9C" stroke-width="2"/>
<path d="M35.94 36.7559C36.6616 35.4652 35.8745 34.8693 34.8651 34.3104C32.3279 32.9071 29.1468 33.0898 27.2371 35.3787C26.4009 36.381 26.0953 37.36 26.0899 38.6603C26.0853 39.7368 26.6128 40.3034 27.6722 40.3602C27.8796 40.3711 28.0792 40.3235 28.2711 40.2174C28.2899 40.2067 28.3043 40.1895 28.3115 40.1688C28.3188 40.1481 28.3185 40.1254 28.3106 40.1048C27.9941 39.2713 27.7322 38.5436 27.9914 37.7513C28.0805 37.4776 28.2397 37.3975 28.4688 37.511C28.5077 37.5304 28.542 37.5581 28.5693 37.5923C28.5967 37.6264 28.6164 37.6661 28.6271 37.7088L29.1604 39.7986C29.1744 39.8532 29.1995 39.9043 29.2343 39.9486C29.269 39.9929 29.3126 40.0293 29.3622 40.0556C29.4119 40.0819 29.4664 40.0974 29.5223 40.1011C29.5783 40.1048 29.6343 40.0967 29.687 40.0773L33.1504 38.7894C33.2029 38.7699 33.2458 38.7305 33.27 38.6795C33.2942 38.6285 33.2978 38.5699 33.28 38.5161C33.0781 37.9101 32.8944 37.306 32.7289 36.7037C32.6707 36.4904 32.6816 36.3128 32.7616 36.1709C32.7844 36.1325 32.8176 36.1165 32.8612 36.1229C33.1349 36.1604 33.3136 36.2757 33.3973 36.4689C33.5028 36.7105 33.6997 37.3097 33.988 38.2662C34.0043 38.3175 34.0362 38.3312 34.0834 38.3074C34.5581 38.0649 35.0015 37.7838 35.4134 37.4644C35.5689 37.3435 35.7445 37.1074 35.94 36.7559Z" stroke="#655C56" stroke-width="2"/>
<path d="M11.8919 38.3511L12.634 36.2792C12.649 36.2371 12.6741 36.1993 12.7071 36.1692C12.74 36.1391 12.7798 36.1177 12.8229 36.1067C12.866 36.0957 12.9111 36.0955 12.9543 36.1062C12.9975 36.1169 13.0374 36.1381 13.0705 36.168C13.2056 36.2915 13.2178 36.5085 13.166 36.6925C12.9787 37.3616 12.7859 38.0019 12.5876 38.6134C12.5727 38.6591 12.576 38.7089 12.5969 38.7522C12.6178 38.7955 12.6546 38.829 12.6995 38.8455L16.2816 40.165C16.3195 40.1789 16.3598 40.1847 16.4001 40.182C16.4403 40.1793 16.4796 40.1682 16.5153 40.1493C16.551 40.1304 16.5824 40.1042 16.6075 40.0724C16.6325 40.0406 16.6507 40.0038 16.6608 39.9645L17.2555 37.6797C17.2713 37.6197 17.3058 37.5663 17.3539 37.5275C17.402 37.4887 17.4613 37.4665 17.5229 37.4641C17.6875 37.4577 17.798 37.536 17.8544 37.6989C18.149 38.5489 17.868 39.4112 17.5556 40.1979C17.5509 40.2098 17.5487 40.2225 17.5492 40.2353C17.5496 40.248 17.5527 40.2605 17.5582 40.272C17.5638 40.2835 17.5716 40.2937 17.5812 40.302C17.5909 40.3103 17.6021 40.3165 17.6143 40.3201C18.7588 40.6744 19.6577 40.1032 19.7764 38.9333C19.981 36.8998 18.8352 35.1107 17.085 34.1784C15.0866 33.1156 12.9532 33.2612 10.9739 34.3912C10.5183 34.6507 9.71076 35.1794 9.67665 35.6064C9.55934 37.0728 10.6492 37.8157 11.8115 38.3841C11.8506 38.4033 11.8774 38.3923 11.8919 38.3511Z" stroke="#655C56" stroke-width="2"/>
<path d="M24.7871 35.9211C24.7871 35.4375 24.5962 34.9737 24.2565 34.6317C23.9168 34.2898 23.456 34.0977 22.9756 34.0977C22.4951 34.0977 22.0344 34.2898 21.6946 34.6317C21.3549 34.9737 21.1641 35.4375 21.1641 35.9211C21.1641 36.4047 21.3549 36.8685 21.6946 37.2105C22.0344 37.5524 22.4951 37.7445 22.9756 37.7445C23.456 37.7445 23.9168 37.5524 24.2565 37.2105C24.5962 36.8685 24.7871 36.4047 24.7871 35.9211Z" stroke="#96915D" stroke-width="2"/>
<path d="M19.2303 14.4368C18.0845 13.4962 15.6455 13.9809 14.9198 15.2949C14.5338 15.9952 15.0835 16.6845 15.8324 16.3357C16.5717 15.9938 17.4598 15.4789 18.2605 15.3567C18.5551 15.3128 19.4759 15.2977 19.4077 14.7649C19.3904 14.6285 19.3313 14.5192 19.2303 14.4368Z" stroke="#655C56" stroke-width="2"/>
<path d="M27.0608 15.2594C27.9707 15.3363 28.7523 15.5876 29.493 16.0531C29.9459 16.3387 30.7657 16.7753 31.1026 16.0462C31.189 15.8604 31.179 15.6508 31.0726 15.4174C30.632 14.4466 29.3784 13.966 28.3622 13.9688C27.6474 13.9706 27.0504 14.1743 26.5711 14.5798C26.5349 14.61 26.5103 14.6518 26.5015 14.6979C26.4238 15.1084 26.698 15.2279 27.0608 15.2594Z" stroke="#655C56" stroke-width="2"/>
<path d="M19.335 19.5319C18.7075 21.4062 20.4426 22.8836 21.9418 23.5811C22.6629 23.9171 23.3891 23.8988 24.1202 23.5262C25.5471 22.7985 27.2372 21.3485 26.607 19.5374C26.2768 18.5886 25.4502 18.1808 24.4858 17.8884C23.1563 17.4856 21.8376 17.5941 20.5299 18.2138C19.9334 18.4966 19.5351 18.936 19.335 19.5319Z" stroke="#655C56" stroke-width="2"/>
<path d="M24.6717 18.7174C23.264 18.159 21.9095 18.2574 20.6081 19.0126C20.3508 19.1627 20.2089 19.3238 20.1825 19.4959C20.1498 19.7119 20.2362 19.7838 20.4417 19.7115C22.1314 19.1092 23.8201 19.1101 25.5079 19.7142C25.6689 19.7719 25.7507 19.7147 25.7535 19.5426C25.7576 19.1691 24.9759 18.8382 24.6717 18.7174Z" stroke="#9C9C9C" stroke-width="2"/>
<path d="M38.6606 36.5166C38.4023 37.9702 37.7062 39.0852 36.5721 39.8614C34.3114 41.4093 31.7706 42.4103 28.9496 42.8643C27.8788 43.0359 26.6034 43.0593 25.7003 42.4016C25.6608 42.3724 25.6122 42.3592 25.5639 42.3645C23.8679 42.5522 22.1719 42.5535 20.4759 42.3686C20.4295 42.3631 20.3868 42.3737 20.3477 42.4002C19.3178 43.0991 18.3725 43.0552 17.0411 42.9178C14.3811 42.6446 11.9135 41.5338 9.64364 40.1525C8.23135 39.292 7.40334 38.0352 7.15962 36.382C7.15326 36.3354 7.13325 36.296 7.0996 36.264C-3.65352 26.0689 -0.790295 9.1115 12.2327 2.49743C18.1133 -0.489001 25.0415 -0.745766 31.2167 1.45252C36.3812 3.29106 40.6849 7.2098 43.2903 12.1048C45.4442 16.1499 46.0076 20.5821 45.05 25.1366C44.1097 29.6137 42.0021 33.3663 38.7274 36.3944C38.6929 36.4265 38.6694 36.4694 38.6606 36.5166ZM37.7439 35.4525C43.8591 29.9698 46.0812 20.578 42.2959 13.1181C39.2267 7.06837 33.7212 2.85168 27.0222 1.72851C24.9233 1.37608 22.9394 1.26578 21.0706 1.3976C13.1057 1.95918 5.64821 7.07112 2.91321 14.7342C0.523324 21.4307 2.09748 28.9016 6.8909 34.1426C7.3556 34.6506 7.84212 35.1422 8.35048 35.6172C8.38311 35.6474 8.40432 35.6882 8.4105 35.7326C8.60283 37.0356 8.9575 38.0929 10.0761 38.833C11.6648 39.8857 13.4385 40.6898 15.3974 41.2454C16.0112 41.4203 16.9079 41.5484 18.0874 41.6299C18.7712 41.6766 19.3228 41.5173 19.742 41.1521C19.8111 41.0917 19.8766 41.05 19.9384 41.0271C20.0476 40.9869 20.1249 40.9695 20.1703 40.975C21.9027 41.2038 23.6378 41.2226 25.3757 41.0313C25.9063 40.9736 26.2119 41.1315 26.6347 41.391C27.0999 41.6752 28.0793 41.6395 28.4899 41.5777C31.1053 41.1832 33.4984 40.2738 35.6691 38.8494C36.6795 38.1858 37.2537 37.2375 37.392 36.0044C37.3937 35.9872 37.3993 35.9699 37.4083 35.9536C37.5066 35.782 37.6007 35.5815 37.7439 35.4525Z" fill="white"/>
<path d="M42.2971 13.1181C46.0825 20.578 43.8604 29.9698 37.7451 35.4524C37.6019 35.5815 37.5078 35.782 37.4096 35.9536C37.4006 35.9699 37.395 35.9872 37.3932 36.0044C37.255 37.2374 36.6807 38.1858 35.6704 38.8494C33.4996 40.2737 31.1066 41.1832 28.4912 41.5777C28.0806 41.6395 27.1011 41.6752 26.636 41.391C26.2131 41.1315 25.9076 40.9736 25.3769 41.0312C23.6391 41.2225 21.904 41.2038 20.1716 40.9749C20.1261 40.9694 20.0488 40.9868 19.9397 41.0271C19.8778 41.05 19.8124 41.0916 19.7432 41.1521C19.324 41.5173 18.7725 41.6766 18.0886 41.6299C16.9091 41.5484 16.0125 41.4203 15.3986 41.2454C13.4398 40.6898 11.666 39.8856 10.0773 38.8329C8.95874 38.0929 8.60407 37.0356 8.41174 35.7326C8.40556 35.6882 8.38435 35.6474 8.35172 35.6172C7.84336 35.1421 7.35684 34.6506 6.89214 34.1425C2.09872 28.9015 0.524564 21.4307 2.91445 14.7342C5.64945 7.0711 13.1069 1.95916 21.0719 1.39757C22.9407 1.26576 24.9245 1.37606 27.0234 1.72848C33.7224 2.85165 39.2279 7.06835 42.2971 13.1181ZM4.63866 13.0179C1.13158 19.5756 2.40564 27.8388 7.26044 33.3214C7.69059 33.8075 8.1521 34.2547 8.645 34.6629C8.65276 34.6696 8.66279 34.673 8.67313 34.6725C8.68348 34.672 8.69338 34.6676 8.70092 34.6602C9.97771 33.3677 11.5132 32.5974 13.3075 32.3493C13.4648 32.3283 13.5916 32.2582 13.688 32.1392C14.4683 31.1767 16.5035 28.778 15.5146 27.468C14.9125 26.6698 14.5133 25.7773 14.3169 24.7906C14.2664 24.5365 14.2787 24.1068 14.1355 23.78C14.1009 23.7022 14.0704 23.7035 14.0441 23.7841C13.7285 24.7443 13.4707 25.4327 13.2706 25.8492C13.0387 26.3339 11.9597 28.156 11.4073 28.1683C10.9544 28.1779 10.8398 27.6452 10.6816 27.2181C9.92178 25.1723 8.22213 24.7494 6.78301 23.7498C4.38085 22.0815 3.46554 18.5623 5.4462 16.1869C5.59352 16.0093 5.99457 15.6583 6.64933 15.1338C7.63511 14.342 8.48221 13.4206 9.19063 12.3698C10.1769 10.9033 11.1699 9.61814 12.4931 8.48261C13.1642 7.90592 13.8204 7.63955 14.7657 7.52833C16.1093 7.36905 17.3247 6.8363 18.5688 6.4134C19.5927 6.06464 20.6399 5.90811 21.7103 5.94381C22.4987 5.96944 22.9043 5.98225 22.927 5.98225C23.8819 5.97401 24.849 5.88614 25.7384 6.03855C27.108 6.27472 28.4257 6.69304 29.6916 7.29353C29.8507 7.36951 30.1513 7.42031 30.5932 7.44594C31.8291 7.51734 32.9272 7.9732 33.8247 8.81627C34.9242 9.84973 35.9073 11.0333 36.7739 12.367C37.6019 13.6399 38.5336 14.5282 39.7149 15.4564C42.7295 17.8263 41.8115 22.2367 38.7505 23.9887C37.2404 24.8523 35.5435 25.7256 35.1015 27.5944C34.9951 28.042 34.6514 28.4264 34.2067 28.0063C32.9585 26.8241 32.462 25.3686 31.8673 23.8006C31.8627 23.7896 31.8549 23.7803 31.8448 23.774C31.8347 23.7677 31.823 23.7647 31.8113 23.7654C31.7996 23.7662 31.7886 23.7707 31.7797 23.7782C31.7709 23.7858 31.7648 23.796 31.7622 23.8074C31.735 23.9274 31.7127 24.0962 31.6954 24.3141C31.6145 25.364 31.2334 26.3545 30.5523 27.2854C30.2931 27.6397 30.1076 27.9706 30.1608 28.366C30.279 29.2466 30.6305 30.0934 31.2152 30.9062C31.6163 31.4628 31.9241 31.8394 32.1387 32.0362C32.3088 32.1937 32.4329 32.2774 32.5111 32.2875C34.0512 32.4852 36.0441 33.2665 37.0931 34.5586C37.1213 34.5934 37.1513 34.5956 37.1831 34.5654C41.4855 30.4572 43.6407 24.8345 42.8796 18.8534C41.6819 9.44925 33.5601 2.73769 24.3989 2.1967C19.8796 1.93032 15.4464 2.89147 11.6787 5.32181C8.70229 7.24227 6.3556 9.80762 4.63866 13.0179ZM16.6809 19.4864C15.58 20.843 14.9921 22.4824 15.2717 24.2331C15.4154 25.1347 15.7351 25.9526 16.2307 26.6868C16.6618 27.3252 18.1595 28.6228 18.948 27.788C19.9001 26.7788 21.211 25.5595 22.5574 25.3412C24.1506 25.0844 25.943 26.5975 27.0111 27.7935C27.4995 28.3399 28.1979 28.02 28.719 27.6685C31.5263 25.7709 31.2384 21.8124 29.2332 19.4768C29.2275 19.47 29.2241 19.4614 29.2235 19.4525C29.223 19.4436 29.2254 19.4347 29.2304 19.4273C29.2353 19.4198 29.2425 19.4142 29.2509 19.4112C29.2593 19.4083 29.2684 19.4081 29.2769 19.4109C30.6328 19.8297 31.2398 21.1437 31.5399 22.433C31.5517 22.4843 31.5767 22.4911 31.6149 22.4536C32.1346 21.9373 32.0842 21.1478 32.1128 20.3363C32.1878 18.1669 33.0881 16.1526 32.889 13.9749C32.8435 13.4852 32.6962 12.8842 32.447 12.172C32.146 11.3088 31.935 10.7244 31.8141 10.4186C31.4003 9.37694 30.6546 8.63685 29.577 8.19839C28.6385 7.81805 27.6904 7.37866 26.7274 7.13151C25.1955 6.73744 23.6445 6.98185 21.9694 6.88573C20.413 6.79511 19.1621 7.05874 17.6521 7.68486C17.0819 7.92103 16.5099 8.15033 15.9361 8.37277C15.6669 8.47712 15.4459 8.61534 15.2731 8.78743C14.7875 9.27167 14.3996 9.8241 14.1095 10.4447C13.8899 10.9143 13.7126 11.5857 13.5107 12.1446C13.3034 12.7222 13.1751 13.1538 13.126 13.4394C12.9228 14.6065 13.0837 15.4537 13.3211 16.8954C13.4521 17.6881 13.5962 18.4781 13.7535 19.2653C13.8181 19.5875 13.8699 20.383 13.909 21.6517C13.9172 21.9163 14.0477 22.1739 14.3005 22.4248C14.3405 22.4641 14.3683 22.4568 14.3837 22.4028C14.7316 21.1437 15.3031 19.8187 16.6399 19.426C16.7181 19.4031 16.7318 19.4232 16.6809 19.4864ZM34.6555 10.9953C33.9434 10.1221 33.1136 9.35542 32.166 8.69544C32.1528 8.68639 32.1371 8.6819 32.1212 8.68264C32.1052 8.68337 32.09 8.68929 32.0777 8.69951C32.0653 8.70973 32.0567 8.72369 32.0529 8.7393C32.0492 8.75491 32.0506 8.77132 32.0569 8.78606C32.8685 10.6109 33.8848 12.5359 33.9639 14.6051C33.983 15.082 33.9166 15.8061 33.7647 16.7773C33.3664 19.3431 33.1814 21.7062 33.2095 23.8665C33.2186 24.5649 33.4878 25.2194 34.0171 25.83C34.1699 26.0057 34.4577 26.1032 34.6159 25.9096C35.5271 24.8002 36.552 23.964 37.6906 23.401C38.3685 23.066 39.2511 22.352 39.7012 21.7945C40.6616 20.6064 40.8957 19.2196 40.4038 17.6341C40.2246 17.0565 39.9122 16.608 39.4666 16.2885C38.5745 15.6528 37.7697 15.1722 37.1381 14.4253C36.5284 13.703 36.096 12.8709 35.5312 12.1199C35.2075 11.6896 34.9156 11.3148 34.6555 10.9953ZM13.0783 10.6342C13.3457 10.0035 13.5876 9.44147 13.804 8.94808C13.9104 8.70551 13.8531 8.65653 13.6321 8.80116C12.1794 9.75957 10.773 11.4375 9.80174 12.9877C9.39888 13.6312 9.08651 14.0779 8.86461 14.3278C8.21804 15.0555 7.4787 15.6798 6.6466 16.2006C6.28921 16.4249 6.02503 16.6844 5.85407 16.9792C4.5459 19.242 5.59625 21.925 7.78971 23.1168C8.74003 23.634 9.60668 24.2143 10.3897 24.8578C10.6993 25.1119 11.1781 25.9055 11.5096 26.0071C11.9884 26.154 12.5122 24.8935 12.6131 24.5338C12.7132 24.1786 12.7573 23.6839 12.7455 23.0495C12.7059 21.0654 12.5408 19.0855 12.2121 17.1261C12.0716 16.294 11.8588 15.4496 11.9788 14.5996C12.1725 13.2275 12.539 11.9057 13.0783 10.6342ZM22.8943 29.599C22.7397 28.691 22.6883 27.7752 22.7401 26.8515C22.7474 26.717 22.7147 26.457 22.6419 26.0716C22.6319 26.0195 22.6019 26.0007 22.5519 26.0153C22.0026 26.1709 21.5006 26.4245 21.0459 26.776C21.0097 26.8036 20.9838 26.8428 20.9723 26.8872C20.5467 28.4525 20.3625 29.989 21.0077 31.5035C21.4715 32.5923 22.4755 33.2651 23.6623 32.7832C24.4416 32.4674 24.935 31.8166 25.1423 30.8307C25.4079 29.5629 25.4219 28.4118 25.1846 27.3774C24.9991 26.5701 24.006 26.1142 23.2762 26.014C23.228 26.0066 23.2039 26.0277 23.2039 26.0771C23.2076 27.0154 23.2021 27.95 23.1876 28.8809C23.1821 29.1793 23.1185 29.4256 22.9966 29.6196C22.9448 29.702 22.9107 29.6952 22.8943 29.599ZM29.0968 28.642C28.1665 29.2132 27.3099 29.6485 26.2049 29.7734C26.164 29.7789 26.139 29.8018 26.1299 29.8421L25.6429 32.0198C25.6302 32.0784 25.652 32.0985 25.7084 32.0802C27.1025 31.6353 28.3938 30.9854 29.5824 30.1304C29.5996 30.1177 29.6124 30.0998 29.619 30.0794C29.6256 30.059 29.6257 30.037 29.6193 30.0165L29.18 28.6736C29.1655 28.6278 29.1377 28.6173 29.0968 28.642ZM19.7351 29.7968C18.5278 29.5675 17.7953 29.1899 16.8364 28.6695C16.7909 28.6448 16.7604 28.6571 16.745 28.7066L16.3221 30.0096C16.3075 30.0572 16.3198 30.0952 16.3589 30.1236C17.5366 30.9804 18.8184 31.628 20.2043 32.0665C20.2761 32.0893 20.3039 32.0637 20.2875 31.9896L19.8169 29.8764C19.8124 29.8564 19.8023 29.8382 19.7877 29.824C19.7732 29.8098 19.7549 29.8004 19.7351 29.7968ZM35.9405 36.7555C36.6621 35.4648 35.875 34.8689 34.8655 34.3101C32.3283 32.9068 29.1473 33.0894 27.2376 35.3783C26.4014 36.3806 26.0958 37.3596 26.0904 38.6599C26.0858 39.7364 26.6133 40.303 27.6727 40.3598C27.88 40.3708 28.0797 40.3232 28.2715 40.217C28.2904 40.2063 28.3048 40.1891 28.312 40.1684C28.3193 40.1478 28.319 40.125 28.3111 40.1044C27.9946 39.271 27.7327 38.5432 27.9919 37.751C28.081 37.4773 28.2402 37.3972 28.4693 37.5107C28.5082 37.53 28.5425 37.5578 28.5698 37.5919C28.5971 37.626 28.6168 37.6658 28.6276 37.7084L29.1609 39.7982C29.1748 39.8529 29.2 39.904 29.2348 39.9482C29.2695 39.9925 29.3131 40.029 29.3627 40.0552C29.4123 40.0815 29.4669 40.097 29.5228 40.1007C29.5787 40.1045 29.6348 40.0964 29.6875 40.0769L33.1509 38.789C33.2034 38.7695 33.2463 38.7301 33.2705 38.6791C33.2946 38.6281 33.2982 38.5696 33.2805 38.5158C33.0786 37.9098 32.8949 37.3056 32.7294 36.7033C32.6712 36.49 32.6821 36.3124 32.7621 36.1706C32.7849 36.1321 32.818 36.1161 32.8617 36.1225C33.1354 36.16 33.3141 36.2754 33.3978 36.4685C33.5033 36.7102 33.7002 37.3093 33.9884 38.2659C34.0048 38.3171 34.0366 38.3309 34.0839 38.3071C34.5586 38.0645 35.002 37.7835 35.4139 37.464C35.5694 37.3432 35.7449 37.107 35.9405 36.7555ZM11.8915 38.351L12.6336 36.279C12.6486 36.2369 12.6737 36.1991 12.7066 36.1691C12.7396 36.139 12.7793 36.1175 12.8225 36.1065C12.8656 36.0955 12.9107 36.0954 12.9539 36.1061C12.9971 36.1168 13.037 36.138 13.0701 36.1678C13.2052 36.2914 13.2174 36.5083 13.1656 36.6923C12.9783 37.3615 12.7855 38.0018 12.5872 38.6133C12.5723 38.659 12.5756 38.7088 12.5965 38.7521C12.6174 38.7954 12.6541 38.8288 12.6991 38.8453L16.2812 40.1648C16.3191 40.1788 16.3594 40.1846 16.3997 40.1819C16.4399 40.1791 16.4792 40.168 16.5149 40.1491C16.5506 40.1302 16.582 40.104 16.6071 40.0722C16.6321 40.0404 16.6503 40.0037 16.6604 39.9643L17.2551 37.6796C17.2709 37.6195 17.3054 37.5662 17.3535 37.5274C17.4016 37.4886 17.4609 37.4663 17.5225 37.464C17.6871 37.4576 17.7976 37.5358 17.854 37.6988C18.1486 38.5487 17.8676 39.411 17.5552 40.1978C17.5505 40.2096 17.5483 40.2223 17.5488 40.2351C17.5492 40.2479 17.5523 40.2604 17.5578 40.2719C17.5634 40.2834 17.5712 40.2936 17.5808 40.3019C17.5905 40.3101 17.6017 40.3163 17.6139 40.32C18.7584 40.6742 19.6573 40.103 19.776 38.9332C19.9806 36.8997 18.8348 35.1105 17.0846 34.1782C15.0862 33.1155 12.9528 33.261 10.9735 34.3911C10.5179 34.6506 9.71035 35.1792 9.67625 35.6062C9.55894 37.0727 10.6488 37.8155 11.8111 38.3839C11.8502 38.4032 11.877 38.3922 11.8915 38.351ZM24.7876 35.9207C24.7876 35.4371 24.5968 34.9733 24.2571 34.6313C23.9173 34.2893 23.4566 34.0972 22.9761 34.0972C22.4957 34.0972 22.0349 34.2893 21.6952 34.6313C21.3555 34.9733 21.1646 35.4371 21.1646 35.9207C21.1646 36.4043 21.3555 36.8681 21.6952 37.21C22.0349 37.552 22.4957 37.7441 22.9761 37.7441C23.4566 37.7441 23.9173 37.552 24.2571 37.21C24.5968 36.8681 24.7876 36.4043 24.7876 35.9207Z" fill="#383838"/>
<path d="M4.63766 13.0185C6.35459 9.80827 8.70128 7.24292 11.6777 5.32245C15.4453 2.89212 19.8786 1.93097 24.3979 2.19735C33.5591 2.73834 41.6809 9.4499 42.8786 18.8541C43.6397 24.8351 41.4845 30.4579 37.1821 34.5661C37.1503 34.5963 37.1203 34.594 37.0921 34.5592C36.0431 33.2672 34.0502 32.4859 32.5101 32.2882C32.4319 32.2781 32.3078 32.1943 32.1377 32.0369C31.9231 31.8401 31.6153 31.4634 31.2142 30.9069C30.6295 30.094 30.278 29.2473 30.1598 28.3667C30.1066 27.9712 30.2921 27.6403 30.5513 27.2861C31.2324 26.3551 31.6135 25.3647 31.6944 24.3148C31.7117 24.0969 31.734 23.928 31.7612 23.8081C31.7638 23.7967 31.7699 23.7864 31.7787 23.7789C31.7876 23.7713 31.7986 23.7669 31.8103 23.7661C31.822 23.7653 31.8337 23.7683 31.8438 23.7746C31.8538 23.7809 31.8617 23.7903 31.8663 23.8012C32.461 25.3693 32.9575 26.8247 34.2057 28.0069C34.6504 28.4271 34.9941 28.0426 35.1005 27.595C35.5425 25.7263 37.2394 24.853 38.7495 23.9893C41.8105 22.2373 42.7285 17.827 39.7139 15.4571C38.5326 14.5289 37.6009 13.6405 36.7729 12.3677C35.9063 11.034 34.9232 9.85038 33.8237 8.81692C32.9262 7.97385 31.8281 7.51799 30.5922 7.44659C30.1502 7.42096 29.8497 7.37016 29.6905 7.29418C28.4247 6.69369 27.107 6.27536 25.7374 6.0392C24.848 5.88679 23.8809 5.97466 22.926 5.9829C22.9033 5.9829 22.4977 5.97008 21.7093 5.94445C20.6389 5.90875 19.5917 6.06528 18.5678 6.41404C17.3237 6.83695 16.1083 7.3697 14.7647 7.52898C13.8194 7.64019 13.1632 7.90657 12.4921 8.48326C11.1689 9.61879 10.1759 10.904 9.18963 12.3704C8.48121 13.4213 7.63411 14.3426 6.64833 15.1344C5.99356 15.6589 5.59252 16.01 5.4452 16.1876C3.46454 18.563 4.37984 22.0821 6.78201 23.7504C8.22112 24.75 9.92078 25.1729 10.6806 27.2188C10.8388 27.6458 10.9534 28.1786 11.4063 28.169C11.9587 28.1566 13.0377 26.3345 13.2696 25.8498C13.4697 25.4333 13.7275 24.745 14.0431 23.7847C14.0694 23.7042 14.0999 23.7028 14.1345 23.7806C14.2777 24.1074 14.2654 24.5372 14.3159 24.7912C14.5123 25.778 14.9115 26.6705 15.5136 27.4687C16.5025 28.7786 14.4673 31.1774 13.687 32.1399C13.5906 32.2589 13.4638 32.3289 13.3065 32.35C11.5122 32.598 9.97671 33.3683 8.69992 34.6608C8.69238 34.6682 8.68247 34.6726 8.67213 34.6731C8.66179 34.6736 8.65175 34.6702 8.64399 34.6636C8.1511 34.2553 7.68958 33.8082 7.25944 33.3221C2.40464 27.8394 1.13058 19.5763 4.63766 13.0185Z" fill="#F3E982"/>
<path d="M16.6378 19.4268C15.301 19.8195 14.7294 21.1445 14.3816 22.4036C14.3661 22.4576 14.3384 22.4649 14.2984 22.4255C14.0456 22.1747 13.9151 21.917 13.9069 21.6525C13.8678 20.3838 13.816 19.5883 13.7514 19.2661C13.5941 18.4789 13.4499 17.6889 13.319 16.8962C13.0816 15.4545 12.9207 14.6073 13.1239 13.4402C13.173 13.1546 13.3012 12.723 13.5086 12.1454C13.7105 11.5865 13.8878 10.9151 14.1074 10.4455C14.3975 9.82488 14.7854 9.27245 15.271 8.78821C15.4438 8.61612 15.6648 8.4779 15.9339 8.37355C16.5078 8.15111 17.0798 7.9218 17.65 7.68564C19.16 7.05952 20.4109 6.79589 21.9673 6.88651C23.6424 6.98263 25.1934 6.73822 26.7253 7.13229C27.6883 7.37944 28.6364 7.81882 29.5749 8.19916C30.6525 8.63763 31.3982 9.37772 31.812 10.4194C31.9329 10.7252 32.1439 11.3096 32.4449 12.1728C32.6941 12.885 32.8414 13.4859 32.8869 13.9757C33.086 16.1534 32.1857 18.1677 32.1107 20.3371C32.082 21.1486 32.1325 21.9381 31.6128 22.4544C31.5746 22.4919 31.5496 22.485 31.5378 22.4338C31.2377 21.1445 30.6307 19.8304 29.2747 19.4117C29.2663 19.4089 29.2572 19.409 29.2488 19.412C29.2404 19.415 29.2332 19.4206 29.2282 19.428C29.2233 19.4355 29.2209 19.4443 29.2214 19.4533C29.2219 19.4622 29.2253 19.4707 29.2311 19.4776C31.2363 21.8132 31.5241 25.7717 28.7168 27.6693C28.1958 28.0208 27.4973 28.3407 27.009 27.7942C25.9409 26.5983 24.1485 25.0852 22.5552 25.3419C21.2089 25.5603 19.898 26.7795 18.9459 27.7888C18.1574 28.6236 16.6596 27.326 16.2286 26.6876C15.733 25.9534 15.4133 25.1355 15.2696 24.2339C14.99 22.4832 15.5779 20.8438 16.6787 19.4872C16.7297 19.424 16.716 19.4039 16.6378 19.4268ZM19.2309 14.4384C18.0851 13.4978 15.6461 13.9825 14.9204 15.2966C14.5344 15.9968 15.0841 16.6861 15.833 16.3373C16.5723 15.9955 17.4604 15.4806 18.2611 15.3583C18.5557 15.3144 19.4765 15.2993 19.4083 14.7666C19.391 14.6302 19.3319 14.5208 19.2309 14.4384ZM27.0608 15.2595C27.9707 15.3364 28.7523 15.5877 29.493 16.0531C29.9459 16.3387 30.7657 16.7754 31.1026 16.0463C31.189 15.8604 31.179 15.6508 31.0726 15.4174C30.632 14.4466 29.3784 13.9661 28.3622 13.9688C27.6474 13.9706 27.0504 14.1743 26.5711 14.5798C26.5349 14.6101 26.5103 14.6518 26.5016 14.6979C26.4238 15.1085 26.698 15.2279 27.0608 15.2595ZM19.336 19.5325C18.7085 21.4067 20.4436 22.8841 21.9428 23.5817C22.6639 23.9176 23.3901 23.8993 24.1212 23.5267C25.5481 22.799 27.2382 21.3491 26.608 19.538C26.2778 18.5892 25.4512 18.1814 24.4868 17.8889C23.1573 17.4862 21.8386 17.5946 20.5309 18.2143C19.9344 18.4972 19.5361 18.9366 19.336 19.5325Z" fill="#928073"/>
<path d="M35.5311 12.119C36.0959 12.87 36.5283 13.7021 37.138 14.4243C37.7696 15.1713 38.5744 15.6519 39.4665 16.2876C39.9121 16.6071 40.2245 17.0556 40.4037 17.6332C40.8957 19.2186 40.6615 20.6054 39.7012 21.7936C39.251 22.3511 38.3684 23.0651 37.6905 23.4001C36.5519 23.963 35.527 24.7993 34.6158 25.9087C34.4576 26.1023 34.1698 26.0048 34.017 25.8291C33.4877 25.2185 33.2186 24.564 33.2095 23.8656C33.1813 21.7053 33.3663 19.3422 33.7646 16.7764C33.9165 15.8052 33.9829 15.0811 33.9638 14.6042C33.8847 12.535 32.8684 10.61 32.0568 8.78514C32.0505 8.7704 32.0491 8.75399 32.0528 8.73838C32.0566 8.72277 32.0653 8.70881 32.0776 8.69859C32.0899 8.68837 32.1051 8.68245 32.1211 8.68172C32.137 8.68098 32.1527 8.68548 32.1659 8.69452C33.1135 9.35451 33.9433 10.1211 34.6554 10.9944C34.9155 11.3139 35.2074 11.6887 35.5311 12.119Z" fill="#928073"/>
<path d="M13.0788 10.6348C12.5396 11.9062 12.1731 13.2281 11.9794 14.6002C11.8593 15.4501 12.0721 16.2946 12.2126 17.1267C12.5414 19.086 12.7064 21.066 12.746 23.0501C12.7578 23.6844 12.7137 24.1792 12.6137 24.5344C12.5127 24.8941 11.9889 26.1546 11.5101 26.0077C11.1787 25.9061 10.6999 25.1124 10.3902 24.8584C9.60723 24.2149 8.74058 23.6346 7.79026 23.1174C5.5968 21.9255 4.54645 19.2426 5.85462 16.9797C6.02558 16.685 6.28976 16.4255 6.64715 16.2012C7.47925 15.6804 8.21859 15.0561 8.86517 14.3283C9.08706 14.0784 9.39943 13.6317 9.8023 12.9882C10.7735 11.438 12.1799 9.76014 13.6327 8.80174C13.8536 8.65711 13.9109 8.70608 13.8045 8.94866C13.5881 9.44205 13.3462 10.0041 13.0788 10.6348Z" fill="#928073"/>
<path d="M14.9198 15.2949C15.6455 13.9809 18.0845 13.4962 19.2303 14.4368C19.3313 14.5192 19.3904 14.6285 19.4077 14.7649C19.4759 15.2977 18.5551 15.3128 18.2605 15.3567C17.4598 15.4789 16.5717 15.9938 15.8324 16.3357C15.0835 16.6845 14.5338 15.9952 14.9198 15.2949Z" fill="#383838"/>
<path d="M29.493 16.0531C28.7523 15.5876 27.9707 15.3363 27.0608 15.2594C26.698 15.2279 26.4238 15.1084 26.5015 14.6979C26.5103 14.6518 26.5349 14.61 26.5711 14.5798C27.0504 14.1743 27.6474 13.9706 28.3622 13.9688C29.3784 13.966 30.632 14.4466 31.0726 15.4174C31.179 15.6508 31.189 15.8604 31.1026 16.0462C30.7657 16.7753 29.9459 16.3387 29.493 16.0531Z" fill="#383838"/>
<path d="M19.3389 19.5319C19.539 18.936 19.9373 18.4966 20.5338 18.2138C21.8415 17.5941 23.1602 17.4856 24.4897 17.8884C25.4541 18.1808 26.2807 18.5886 26.6109 19.5374C27.2411 21.3485 25.551 22.7985 24.1241 23.5262C23.393 23.8988 22.6668 23.9171 21.9457 23.5811C20.4465 22.8836 18.7114 21.4062 19.3389 19.5319ZM24.6738 18.7177C23.2661 18.1593 21.9116 18.2577 20.6102 19.0129C20.3529 19.163 20.211 19.3241 20.1846 19.4962C20.1519 19.7123 20.2383 19.7841 20.4438 19.7118C22.1335 19.1095 23.8222 19.1104 25.51 19.7146C25.671 19.7722 25.7528 19.715 25.7556 19.5429C25.7597 19.1694 24.978 18.8385 24.6738 18.7177Z" fill="#383838"/>
<path d="M24.6718 18.7174C24.9759 18.8382 25.7576 19.1691 25.7535 19.5426C25.7507 19.7147 25.6689 19.7719 25.5079 19.7142C23.8201 19.1101 22.1314 19.1092 20.4417 19.7115C20.2362 19.7838 20.1498 19.7119 20.1825 19.4959C20.2089 19.3238 20.3508 19.1627 20.6081 19.0126C21.9095 18.2574 23.264 18.159 24.6718 18.7174Z" fill="white"/>
<path d="M22.996 29.6189C23.1178 29.4248 23.1815 29.1786 23.187 28.8802C23.2015 27.9492 23.207 27.0146 23.2033 26.0764C23.2033 26.0269 23.2274 26.0059 23.2756 26.0132C24.0054 26.1134 24.9985 26.5693 25.184 27.3767C25.4213 28.411 25.4072 29.5621 25.1417 30.8299C24.9344 31.8158 24.441 32.4666 23.6617 32.7824C22.4749 33.2644 21.4709 32.5916 21.0071 31.5027C20.3619 29.9882 20.5461 28.4518 20.9717 26.8865C20.9832 26.842 21.0091 26.8029 21.0453 26.7753C21.5 26.4238 22.002 26.1702 22.5513 26.0146C22.6013 25.9999 22.6313 26.0187 22.6413 26.0709C22.7141 26.4563 22.7468 26.7162 22.7395 26.8508C22.6877 27.7744 22.7391 28.6902 22.8937 29.5983C22.91 29.6944 22.9441 29.7013 22.996 29.6189Z" fill="#F3E982"/>
<path d="M26.2022 29.7733C27.3072 29.6484 28.1638 29.2131 29.0941 28.6419C29.135 28.6172 29.1628 28.6277 29.1773 28.6735L29.6166 30.0163C29.623 30.0368 29.6229 30.0588 29.6163 30.0793C29.6097 30.0997 29.5969 30.1176 29.5797 30.1303C28.3912 30.9853 27.0998 31.6352 25.7057 32.0801C25.6493 32.0984 25.6275 32.0782 25.6402 32.0197L26.1272 29.842C26.1363 29.8017 26.1613 29.7788 26.2022 29.7733Z" fill="#5CC2FF"/>
<path d="M16.8366 28.6686C17.7955 29.189 18.5281 29.5666 19.7353 29.7959C19.7551 29.7995 19.7734 29.809 19.788 29.8231C19.8025 29.8373 19.8127 29.8555 19.8171 29.8755L20.2877 31.9887C20.3041 32.0628 20.2764 32.0885 20.2045 32.0656C18.8186 31.6271 17.5368 30.9795 16.3592 30.1227C16.3201 30.0943 16.3078 30.0563 16.3223 30.0087L16.7452 28.7057C16.7607 28.6562 16.7911 28.6439 16.8366 28.6686Z" fill="#5CC2FF"/>
<path d="M35.94 36.7559C35.7445 37.1074 35.5689 37.3435 35.4134 37.4644C35.0015 37.7838 34.5581 38.0649 34.0834 38.3074C34.0362 38.3312 34.0043 38.3175 33.988 38.2662C33.6997 37.3097 33.5028 36.7105 33.3973 36.4689C33.3136 36.2757 33.1349 36.1604 32.8612 36.1229C32.8176 36.1165 32.7844 36.1325 32.7616 36.1709C32.6816 36.3128 32.6707 36.4904 32.7289 36.7037C32.8944 37.306 33.0781 37.9101 33.28 38.5161C33.2978 38.5699 33.2942 38.6285 33.27 38.6795C33.2458 38.7305 33.2029 38.7699 33.1504 38.7894L29.687 40.0773C29.6343 40.0967 29.5783 40.1048 29.5223 40.1011C29.4664 40.0974 29.4119 40.0819 29.3622 40.0556C29.3126 40.0293 29.269 39.9929 29.2343 39.9486C29.1995 39.9043 29.1744 39.8532 29.1604 39.7986L28.6271 37.7088C28.6164 37.6661 28.5967 37.6264 28.5693 37.5923C28.542 37.5581 28.5077 37.5304 28.4688 37.511C28.2397 37.3975 28.0805 37.4776 27.9914 37.7513C27.7322 38.5436 27.9941 39.2713 28.3106 40.1048C28.3185 40.1254 28.3188 40.1481 28.3115 40.1688C28.3043 40.1895 28.2899 40.2067 28.2711 40.2174C28.0792 40.3235 27.8796 40.3711 27.6722 40.3602C26.6128 40.3034 26.0853 39.7368 26.0899 38.6603C26.0953 37.36 26.4009 36.381 27.2371 35.3787C29.1468 33.0898 32.3279 32.9071 34.8651 34.3104C35.8745 34.8693 36.6616 35.4652 35.94 36.7559Z" fill="#928073"/>
<path d="M12.634 36.2792L11.8919 38.3511C11.8774 38.3923 11.8506 38.4033 11.8115 38.3841C10.6492 37.8157 9.55934 37.0728 9.67665 35.6064C9.71076 35.1794 10.5183 34.6507 10.9739 34.3912C12.9532 33.2612 15.0866 33.1156 17.085 34.1784C18.8352 35.1107 19.981 36.8998 19.7764 38.9333C19.6577 40.1032 18.7588 40.6744 17.6143 40.3201C17.6021 40.3165 17.5909 40.3103 17.5812 40.302C17.5716 40.2937 17.5638 40.2835 17.5582 40.272C17.5527 40.2605 17.5496 40.248 17.5492 40.2353C17.5487 40.2225 17.5509 40.2098 17.5556 40.1979C17.868 39.4112 18.149 38.5489 17.8544 37.6989C17.798 37.536 17.6875 37.4577 17.5229 37.4641C17.4613 37.4665 17.402 37.4887 17.3539 37.5275C17.3058 37.5663 17.2713 37.6197 17.2555 37.6797L16.6608 39.9645C16.6507 40.0038 16.6325 40.0406 16.6075 40.0724C16.5824 40.1042 16.551 40.1304 16.5153 40.1493C16.4796 40.1682 16.4403 40.1793 16.4001 40.182C16.3598 40.1847 16.3195 40.1789 16.2816 40.165L12.6995 38.8455C12.6546 38.829 12.6178 38.7955 12.5969 38.7522C12.576 38.7089 12.5727 38.6591 12.5876 38.6134C12.7859 38.0019 12.9787 37.3616 13.166 36.6925C13.2178 36.5085 13.2056 36.2915 13.0705 36.168C13.0374 36.1381 12.9975 36.1169 12.9543 36.1062C12.9111 36.0955 12.866 36.0957 12.8229 36.1067C12.7798 36.1177 12.74 36.1391 12.7071 36.1692C12.6741 36.1993 12.649 36.2371 12.634 36.2792Z" fill="#928073"/>
<path d="M22.9756 37.7445C23.976 37.7445 24.7871 36.9281 24.7871 35.9211C24.7871 34.914 23.976 34.0977 22.9756 34.0977C21.9751 34.0977 21.1641 34.914 21.1641 35.9211C21.1641 36.9281 21.9751 37.7445 22.9756 37.7445Z" fill="#F3E982"/>
</svg>
