<svg width="30" height="31" viewBox="0 0 30 31" fill="none" xmlns="http://www.w3.org/2000/svg">
<g clip-path="url(#clip0_120_18144)">
<path d="M14.4818 17.9895C14.9973 17.9895 15.4192 17.8148 15.777 17.4571C16.1347 17.0993 16.3094 16.6774 16.3094 16.1619V15.1102H15.7577V16.1619C15.7577 16.5079 15.635 16.8215 15.3878 17.0687C15.1405 17.3159 14.8269 17.4386 14.4806 17.4378M14.4818 17.9895L13.706 16.1619L13.206 16.1607C13.206 16.161 13.206 16.1612 13.206 16.1614C13.2053 16.5074 13.328 16.8208 13.5751 17.0679C13.822 17.3148 14.1351 17.4375 14.4806 17.4378M14.4818 17.9895C13.9664 17.9895 13.5444 17.8148 13.1867 17.4571C12.8289 17.0993 12.6542 16.6774 12.6542 16.1619V15.1102M14.4818 17.9895L12.6542 15.1102M14.4806 17.4378L14.4818 16.9378V17.4378C14.4814 17.4378 14.481 17.4378 14.4806 17.4378ZM12.6542 15.1102H13.206H12.6542ZM17.6334 11.1677C17.4068 11.3942 17.1322 11.5073 16.8094 11.5067C16.4861 11.5067 16.2112 11.3935 15.9847 11.1669C15.7581 10.9404 15.6451 10.6657 15.6456 10.3429C15.6456 10.0197 15.7589 9.74475 15.9854 9.5182C16.212 9.29165 16.4866 9.17863 16.8094 9.17915C17.1327 9.17915 17.4076 9.29242 17.6341 9.51898C17.8607 9.74553 17.9737 10.0202 17.9732 10.3429C17.9732 10.6662 17.8599 10.9411 17.6334 11.1677ZM11.4647 22.4353L11.5228 22.8688H11.9603H17.0034H17.4418L17.4991 22.4341L18.6241 13.8997L18.6986 13.3343H18.1284H10.8159H10.2443L10.3203 13.9008L11.4647 22.4353ZM16.1456 10.3437V10.3429C16.1456 10.1509 16.2072 10.0036 16.339 9.87175C16.4708 9.73995 16.6176 9.67884 16.8086 9.67915H16.8094C17.0014 9.67915 17.1488 9.74069 17.2806 9.87253C17.4124 10.0043 17.4735 10.1512 17.4732 10.3421V10.3429C17.4732 10.535 17.4117 10.6823 17.2798 10.8141C17.148 10.9459 17.0012 11.007 16.8102 11.0067H16.8094C16.6174 11.0067 16.4701 10.9452 16.3382 10.8134C16.2064 10.6815 16.1453 10.5347 16.1456 10.3437ZM11.0403 23.4205L9.62187 12.7826H19.3418L17.9234 23.4205H11.0403ZM12.9301 10.2309C12.516 10.2309 12.1852 10.0936 11.9065 9.81482C11.6278 9.53609 11.4904 9.20529 11.4904 8.79122C11.4904 8.37714 11.6278 8.04635 11.9065 7.76762C12.1852 7.48888 12.516 7.35156 12.9301 7.35156C13.3442 7.35156 13.675 7.48888 13.9537 7.76762C14.2324 8.04635 14.3697 8.37714 14.3697 8.79122C14.3697 9.20529 14.2324 9.53609 13.9537 9.81482C13.675 10.0936 13.3442 10.2309 12.9301 10.2309Z" fill="#A2CAF2" stroke="#A2CAF2"/>
</g>
<circle cx="15" cy="15.9043" r="14" stroke="#A2CAF2" stroke-width="2"/>
<line x1="5.93203" y1="4.39323" x2="24.7501" y2="26.4095" stroke="#A2CAF2" stroke-width="2"/>
<defs>
<clipPath id="clip0_120_18144">
<rect width="18.6207" height="18.6207" fill="white" transform="translate(5.17188 6.07617)"/>
</clipPath>
</defs>
</svg>
