<svg width="16" height="17" viewBox="0 0 16 17" fill="none" xmlns="http://www.w3.org/2000/svg">
<path d="M8 0.339844C6.41775 0.339844 4.87103 0.809036 3.55544 1.68809C2.23985 2.56714 1.21447 3.81657 0.608967 5.27838C0.00346625 6.74018 -0.15496 8.34872 0.153721 9.90056C0.462403 11.4524 1.22433 12.8779 2.34315 13.9967C3.46197 15.1155 4.88743 15.8774 6.43928 16.1861C7.99113 16.4948 9.59966 16.3364 11.0615 15.7309C12.5233 15.1254 13.7727 14.1 14.6518 12.7844C15.5308 11.4688 16 9.92209 16 8.33984C16 6.21811 15.1571 4.18328 13.6569 2.68299C12.1566 1.1827 10.1217 0.339844 8 0.339844ZM6.85715 11.5341L4 8.67699L4.90857 7.76841L6.85715 9.71698L11.0914 5.4827L12.0034 6.38899L6.85715 11.5341Z" fill="#5CC2FF"/>
</svg>
