<svg width="69" height="22" viewBox="0 0 69 22" fill="none" xmlns="http://www.w3.org/2000/svg">
<path fill-rule="evenodd" clip-rule="evenodd" d="M62.8982 21.2347L60.071 18.0847L57.2703 21.2347H51.3776L57.1366 14.8033L51.3776 8.37179H57.4547L60.3088 11.4959L63.0566 8.37179H68.9214L63.1885 14.7765L69.0017 21.2347H62.8982ZM40.0547 21.2347V0.970703H51.3776V5.48789H44.8501V8.37179H51.3776V12.7167H44.8501V16.7057H51.3776V21.2347H40.0547Z" fill="#FF7A08"/>
<path fill-rule="evenodd" clip-rule="evenodd" d="M35.2787 0.970703V9.26383H35.2244C34.1673 8.05618 32.8468 7.63668 31.3145 7.63668C28.1489 7.63668 25.7964 9.803 24.986 12.6418C24.0537 9.5115 21.6174 7.57838 17.9696 7.57838C15.0078 7.57838 12.7008 8.92718 11.4959 11.0926V8.37135H5.4188V5.48745H12.0513V0.970703H0V21.2347H5.4188V12.7167H10.85C10.6863 13.3471 10.572 14.0059 10.572 14.72C10.572 18.947 13.821 21.9137 17.9696 21.9137C21.4586 21.9137 23.7572 20.2861 24.9736 17.3198H20.3304C19.7026 18.2127 19.2252 18.4757 17.9691 18.4757C16.5136 18.4757 15.2584 17.2146 15.2584 15.7176H24.7389C25.1514 19.0723 27.7562 21.9707 31.367 21.9707C32.9258 21.9707 34.3531 21.2106 35.2244 19.9236H35.2787V21.2352H40.0533V0.970703H35.2787ZM15.4097 12.7772C15.7102 11.4898 16.7148 10.6495 17.9691 10.6495C19.351 10.6495 20.3044 11.4652 20.555 12.7772H15.4097ZM32.3791 18.15C30.6187 18.15 29.525 16.5194 29.525 14.819C29.525 12.9999 30.4758 11.2509 32.3791 11.2509C34.3531 11.2509 35.1379 12.9999 35.1379 14.819C35.1379 16.5435 34.305 18.15 32.3791 18.15Z" fill="#462895"/>
</svg>
