<svg width="43" height="28" viewBox="0 0 43 28" fill="none" xmlns="http://www.w3.org/2000/svg">
<rect x="0.699219" y="1.21094" width="41" height="26" rx="3.5" fill="#8FA0E6" stroke="#253A8E"/>
<path d="M17.1325 17.5596V8.82422H20.409C21.0809 8.82422 21.6442 8.94919 22.1006 9.19913C22.557 9.44908 22.903 9.7932 23.1366 10.2297C23.3702 10.6662 23.488 11.1625 23.488 11.7167C23.488 12.2709 23.3702 12.7744 23.1348 13.2091C22.8993 13.6438 22.5498 13.9861 22.0897 14.2342C21.6297 14.4824 21.061 14.6073 20.3872 14.6073H18.2156V13.3069H20.1735C20.5665 13.3069 20.8871 13.2381 21.1371 13.1022C21.387 12.9664 21.5735 12.778 21.6931 12.539C21.8144 12.2999 21.8742 12.0264 21.8742 11.7149C21.8742 11.4033 21.8144 11.1317 21.6931 10.8962C21.5717 10.6608 21.3852 10.476 21.1334 10.3438C20.8817 10.2116 20.5575 10.1464 20.1626 10.1464H18.7119V17.5614H17.1289L17.1325 17.5596Z" fill="#253A8E"/>
<path d="M26.5646 17.6924C26.1498 17.6924 25.7767 17.6181 25.4453 17.4678C25.1138 17.3193 24.853 17.0983 24.661 16.8049C24.469 16.5115 24.373 16.151 24.373 15.7218C24.373 15.3523 24.4419 15.0462 24.5777 14.8053C24.7135 14.5644 24.9001 14.3707 25.1374 14.2258C25.3728 14.0809 25.6391 13.9704 25.9379 13.8943C26.2349 13.8182 26.5428 13.7639 26.8616 13.7295C27.2456 13.6896 27.5571 13.6534 27.7962 13.6208C28.0353 13.5882 28.2091 13.5375 28.3196 13.4669C28.4301 13.3962 28.4844 13.2876 28.4844 13.1409V13.1155C28.4844 12.7949 28.3884 12.545 28.1983 12.3693C28.0081 12.1936 27.7328 12.1049 27.3742 12.1049C26.9956 12.1049 26.6968 12.1882 26.4758 12.353C26.2549 12.5178 26.1063 12.7134 26.0303 12.938L24.5886 12.7333C24.7027 12.3349 24.8892 12.0016 25.1519 11.7336C25.4127 11.4655 25.7332 11.2627 26.1118 11.1286C26.4903 10.9928 26.9087 10.9258 27.3651 10.9258C27.6803 10.9258 27.9954 10.962 28.3087 11.0363C28.6221 11.1105 28.9082 11.2319 29.1654 11.4003C29.4244 11.5688 29.6327 11.7988 29.7903 12.0886C29.9479 12.3784 30.0276 12.7406 30.0276 13.1771V17.562H28.5424V16.6618H28.4917C28.3975 16.8429 28.2671 17.0132 28.0968 17.1707C27.9284 17.3283 27.7165 17.4551 27.4611 17.5511C27.2057 17.6471 26.9087 17.6942 26.5682 17.6942L26.5646 17.6924ZM26.9648 16.5586C27.2746 16.5586 27.5444 16.497 27.7708 16.3738C27.999 16.2507 28.1747 16.0858 28.2979 15.8812C28.421 15.6765 28.4826 15.4537 28.4826 15.211V14.4395C28.4337 14.4793 28.3522 14.5155 28.2381 14.55C28.124 14.5844 27.9936 14.6133 27.8523 14.6405C27.7092 14.6659 27.5698 14.6894 27.4303 14.7093C27.2909 14.7293 27.1695 14.7474 27.0681 14.7601C26.8381 14.7908 26.6316 14.8434 26.4487 14.914C26.2657 14.9846 26.1226 15.0843 26.0176 15.211C25.9126 15.3378 25.86 15.5008 25.86 15.7001C25.86 15.9844 25.9633 16.1999 26.1716 16.3448C26.3798 16.4897 26.6443 16.5622 26.9648 16.5622V16.5586Z" fill="#253A8E"/>
<path d="M32.3021 20.0168C32.092 20.0168 31.8982 20.0005 31.7208 19.9679C31.5433 19.9353 31.402 19.8972 31.2969 19.8556L31.6556 18.653C31.8801 18.7182 32.0812 18.749 32.2569 18.7471C32.4325 18.7435 32.5883 18.6892 32.7241 18.5823C32.86 18.4755 32.9741 18.298 33.0683 18.0516L33.2005 17.6985L30.8242 11.0098H32.4615L33.9721 15.9579H34.0409L35.555 11.0098H37.1978L34.5734 18.3559C34.4502 18.7037 34.289 19.0007 34.0862 19.2488C33.8833 19.497 33.637 19.689 33.3454 19.8212C33.0538 19.9534 32.706 20.0186 32.3021 20.0186V20.0168Z" fill="#253A8E"/>
<path d="M10.0441 18.0274C7.58998 18.0274 5.80778 16.3793 5.80778 14.1098C5.80778 13.2912 6.05772 12.0868 7.24767 11L7.27121 10.9783L8.52998 12.2806C8.51549 12.295 8.49557 12.3132 8.47022 12.3367C7.90513 12.8529 7.61896 13.4488 7.61896 14.1098C7.61896 15.3704 8.59338 16.2163 10.0441 16.2163C11.926 16.2163 13.1431 14.9031 13.1431 12.8692C13.1431 11.2464 11.8644 9.52212 9.49535 9.52212C7.74031 9.52212 6.53406 10.7664 6.52319 10.7791L5.19922 9.54023C5.26804 9.46597 6.93252 7.71094 9.49353 7.71094C12.9112 7.71094 14.9524 10.3335 14.9524 12.8692C14.9524 15.9065 12.933 18.0274 10.0423 18.0274H10.0441Z" fill="#253A8E"/>
</svg>
