<svg width="30" height="36" viewBox="0 0 30 36" fill="none" xmlns="http://www.w3.org/2000/svg">
<path d="M15.0005 35.3377C15.2949 35.1888 22.9497 31.8383 25.3787 29.8281C27.8812 27.7433 29.2061 24.7651 29.2061 21.1913V4.43902L28.9853 4.36456C22.8761 1.0141 15.2949 1.23747 14.9269 1.23747C14.6325 1.23747 7.05127 1.0141 0.94213 4.36456L0.794922 4.43902V21.2658C0.794922 24.8396 2.11979 27.8178 4.62233 29.9025C7.05127 31.9128 14.7061 35.2633 15.0005 35.3377Z" fill="#341B14"/>
<path d="M15 35.7109C15 35.7109 6.90355 32.1371 4.40102 30.1268C1.75127 27.8932 0.5 24.8406 0.5 21.3412V3.91879C6.90355 0.41942 15 0.717238 15 0.717238C15 0.717238 23.0964 0.41942 29.5 3.91879V21.2667C29.5 24.7661 28.2487 27.8187 25.599 30.0524C23.0964 32.1371 15 35.7109 15 35.7109ZM1.67766 21.3412C1.67766 24.6172 2.85533 27.2976 5.13706 29.1589C7.19797 30.8714 13.3071 33.6262 15 34.3708C16.6929 33.6262 22.8756 30.7969 24.8629 29.1589C27.1447 27.2976 28.3223 24.5427 28.3223 21.3412V4.21661C19.7843 3.39761 9.6269 3.84434 1.67766 11.2898V21.3412Z" fill="#FFB406"/>
<path d="M23.1708 18.8848C24.2749 19.5549 24.7165 20.0016 24.7901 20.8206C24.7901 21.7141 24.2013 22.2353 23.2444 22.2353C22.4348 22.2353 21.4779 21.7886 20.8155 21.1929V23.5755C21.6251 24.0222 22.582 24.3945 23.6124 24.3945C26.115 24.3945 27.2926 22.6076 27.2926 20.9696C27.3662 19.4805 26.9246 18.2892 24.7901 17.0235C23.8332 16.4278 23.0972 16.0555 23.0972 15.1621C23.0972 14.2686 23.9068 13.8964 24.5693 13.8964C25.4525 13.8964 26.3358 14.4175 26.851 14.9387V12.7051C26.4094 12.3328 25.4525 11.8116 24.054 11.8861C22.3612 11.9605 20.5947 13.1518 20.5947 15.2365C20.6683 16.6512 21.1099 17.6935 23.1708 18.8848ZM14.4855 24.2456C14.7063 24.32 15.0744 24.3945 15.6632 24.3945C18.5337 24.3945 20.153 21.7886 20.153 18.0658C20.153 14.2686 18.4601 11.9605 15.4424 11.9605C14.0439 11.9605 12.9398 12.2584 11.983 12.854V29.6807H14.4855V24.2456ZM14.4855 14.1197C14.7063 14.0453 15.0744 13.8964 15.3688 13.8964C16.8409 13.8964 17.4297 15.0876 17.4297 17.9914C17.4297 20.8206 16.6936 22.1608 15.2216 22.1608C14.8535 22.1608 14.5591 22.0864 14.4119 22.0119V14.1197H14.4855ZM6.7571 24.3945C8.30278 24.3945 9.62766 24.0222 10.5845 23.3521V12.1094H8.00837V21.863C7.71395 22.0864 7.34593 22.1608 6.8307 22.1608C5.65304 22.1608 5.50583 21.044 5.50583 20.3739V12.1094H2.92969V20.225C2.92969 22.9798 4.25456 24.3945 6.7571 24.3945Z" fill="#FFB406"/>
</svg>
