<svg width="75" height="24" viewBox="0 0 75 24" fill="none" xmlns="http://www.w3.org/2000/svg">
<path d="M74.4997 0.710938V17.1319H0.5V0.710938H74.4997Z" fill="#FFCC00"/>
<path d="M13.5127 3.66016L11.1484 6.88999H24.0338C24.6851 6.88999 24.6765 7.13885 24.3581 7.5725C24.0348 8.01272 23.4938 8.77831 23.1644 9.22548C22.9974 9.45242 22.6952 9.86586 23.6965 9.86586H28.9657C28.9657 9.86586 29.8151 8.70376 30.5269 7.7321C31.4955 6.41053 30.6109 3.66029 27.1484 3.66029L13.5127 3.66016Z" fill="black"/>
<path d="M10.1927 14.1826L14.9415 7.69443H20.8343C21.4856 7.69443 21.4771 7.94329 21.1588 8.37694C20.8355 8.81716 20.2855 9.57461 19.9562 10.0218C19.789 10.2487 19.487 10.6628 20.4881 10.6628H28.3827C27.7262 11.5673 25.5965 14.1825 21.7724 14.1825L10.1927 14.1826ZM37.3889 10.662L34.8137 14.1823H28.0208C28.0208 14.1823 30.5945 10.6628 30.5967 10.6628L37.3889 10.662ZM47.7953 9.86586H31.1803L35.7239 3.66016H42.5148L39.9105 7.21851H42.9418L45.5471 3.66016H52.3373L47.7953 9.86586ZM47.2121 10.6629L44.6358 14.1826H37.8453C37.8453 14.1826 40.4191 10.6629 40.4213 10.6629H47.2121ZM0.5 12.0508H10.5073L9.96066 12.7985H0.5V12.0508ZM0.5 10.6629H11.524L10.9763 11.4096H0.5V10.6629ZM0.5 13.4394H9.49115L8.94711 14.1826H0.5V13.4394ZM74.5 12.7985H64.5312L65.0784 12.0509H74.5V12.7985ZM74.5 14.1826L63.5178 14.1836L64.0618 13.4394H74.5V14.1826ZM66.0938 10.6629H74.5V11.41L65.5471 11.4107L66.0938 10.6629ZM61.742 3.66016L57.1992 9.86573H50.0033C50.0033 9.86573 54.5473 3.66016 54.5496 3.66016H61.742ZM49.4211 10.6629C49.4211 10.6629 48.9247 11.3451 48.6837 11.6729C47.8307 12.8321 48.5848 14.1826 51.3683 14.1826H62.2743L64.8504 10.6629H49.4211Z" fill="black"/>
<path d="M0.5 19.8008H74.5V20.1727H0.5V19.8008ZM0.5 21.5366H74.5V21.9085H0.5V21.5366ZM0.5 23.272H74.5V23.644H0.5V23.272Z" fill="#FFCC00"/>
<path d="M25.3477 23.6454H27.5747L27.9301 23.1609H26.2728L27.2022 21.8946H28.7115L29.067 21.41H27.5578L28.3819 20.2871H30.0393L30.3949 19.8025H28.168L25.3477 23.6454ZM28.0808 23.6454H28.7642L31.0938 22.0158L31.0709 23.6454H31.7886L31.7939 21.6359L34.4778 19.8025H33.8286L31.6921 21.278L31.7155 19.8025H31.032L31.0113 21.647L28.0808 23.6454ZM35.34 20.2871H35.8241C36.1773 20.2871 36.5719 20.4632 36.2163 20.9476C35.8446 21.454 35.2751 21.6248 34.9219 21.6248H34.358L35.34 20.2871ZM32.3057 23.6454H32.8752L34.0024 22.1094H34.5606C35.2782 22.1094 36.1896 21.8066 36.8158 20.953C37.4583 20.0776 36.9825 19.8022 36.1682 19.8022H35.1259L32.3057 23.6454ZM35.5855 23.6454H36.1551L37.4076 21.9386H37.7492C38.051 21.9386 38.2392 21.9386 38.1411 22.3129L37.7727 23.6454H38.4221L38.7936 22.1147C38.842 21.8781 38.8173 21.7955 38.689 21.7292L38.6971 21.7182C39.2152 21.641 39.8163 21.3108 40.1598 20.8428C40.8345 19.9235 40.166 19.8022 39.3798 19.8022H38.4059L35.5855 23.6454ZM38.6199 20.2871H39.1665C39.6907 20.2871 39.8023 20.5073 39.5479 20.8539C39.2772 21.223 38.7885 21.454 38.2473 21.454H37.7632L38.6199 20.2871ZM39.0118 23.6454H41.2389L41.5942 23.1609H39.937L40.8662 21.8946H42.3757L42.731 21.41H41.2218L42.0459 20.2871H43.7034L44.0591 19.8025H41.8321L39.0118 23.6454ZM46.8024 19.874C46.5977 19.7804 46.3166 19.7363 46.0546 19.7363C45.3369 19.7363 44.5121 20.0999 44.011 20.7825C43.1343 21.9773 45.0168 21.7405 44.3863 22.5994C44.055 23.0507 43.47 23.2271 43.1455 23.2271C42.8548 23.2271 42.594 23.1168 42.457 23.0397L42.0244 23.5518C42.2258 23.6344 42.4428 23.7115 42.7218 23.7115C43.5191 23.7115 44.4125 23.3863 45.0145 22.566C45.9438 21.2999 44.1097 21.4703 44.6513 20.7328C44.9464 20.3309 45.4031 20.2208 45.722 20.2208C46.0183 20.2208 46.1411 20.2705 46.3508 20.3805L46.8024 19.874ZM49.6502 19.874C49.4456 19.7804 49.1645 19.7363 48.9024 19.7363C48.1848 19.7363 47.36 20.0999 46.8589 20.7825C45.9821 21.9773 47.8646 21.7405 47.2342 22.5994C46.903 23.0507 46.3179 23.2271 45.9934 23.2271C45.7027 23.2271 45.4418 23.1168 45.305 23.0397L44.8723 23.5518C45.0737 23.6344 45.2906 23.7115 45.5695 23.7115C46.3669 23.7115 47.2603 23.3863 47.8623 22.566C48.7916 21.2999 46.9577 21.4703 47.4991 20.7328C47.7941 20.3309 48.251 20.2208 48.5699 20.2208C48.8662 20.2208 48.9892 20.2705 49.1986 20.3805L49.6502 19.874Z" fill="#D2002E"/>
</svg>
