<svg width="73" height="18" viewBox="0 0 73 18" fill="none" xmlns="http://www.w3.org/2000/svg">
<g id="Group 147">
<path id="Vector" d="M18.9378 6.26367L26.2217 6.26367L26.2217 7.61965L23.3537 7.61965L23.3537 15.2636L21.7817 15.2636L21.7817 7.61965L18.9258 7.61965L18.9378 6.26367ZM25.9097 8.74764L27.2537 8.74764L27.2537 10.0076L27.2777 10.0076C27.3257 9.82763 27.4097 9.65963 27.5297 9.49163C27.6497 9.32363 27.7937 9.16763 27.9737 9.03564C28.1417 8.89164 28.3337 8.78364 28.5497 8.69964C28.7537 8.61564 28.9697 8.56764 29.1857 8.56764C29.3537 8.56764 29.4737 8.57964 29.5337 8.57964C29.5936 8.59164 29.6656 8.60364 29.7256 8.60364L29.7256 9.98363C29.6296 9.95963 29.5216 9.94762 29.4137 9.93562C29.3057 9.92362 29.2097 9.91163 29.1017 9.91163C28.8617 9.91163 28.6337 9.95962 28.4177 10.0556C28.2017 10.1516 28.0217 10.2956 27.8537 10.4756C27.6977 10.6676 27.5657 10.8956 27.4697 11.1716C27.3737 11.4476 27.3257 11.7716 27.3257 12.1316L27.3257 15.2276L25.8857 15.2276L25.9097 8.74764ZM36.3256 15.2636L34.9096 15.2636L34.9096 14.3516L34.8856 14.3516C34.7056 14.6876 34.4416 14.9396 34.0936 15.1436C33.7456 15.3476 33.3856 15.4436 33.0256 15.4436C32.1736 15.4436 31.5496 15.2396 31.1656 14.8076C30.7816 14.3876 30.5896 13.7396 30.5896 12.8876L30.5896 8.74764L32.0296 8.74764L32.0296 12.7436C32.0296 13.3196 32.1376 13.7276 32.3656 13.9556C32.5816 14.1956 32.8936 14.3156 33.2896 14.3156C33.5896 14.3156 33.8416 14.2676 34.0456 14.1716C34.2496 14.0756 34.4176 13.9556 34.5376 13.7996C34.6696 13.6436 34.7536 13.4516 34.8136 13.2356C34.8736 13.0196 34.8976 12.7796 34.8976 12.5276L34.8976 8.74764L36.3376 8.74764L36.3376 15.2636L36.3256 15.2636ZM38.7735 13.1756C38.8215 13.5956 38.9775 13.8836 39.2535 14.0636C39.5295 14.2316 39.8655 14.3156 40.2495 14.3156C40.3815 14.3156 40.5375 14.3036 40.7055 14.2796C40.8735 14.2556 41.0415 14.2196 41.1855 14.1596C41.3415 14.0996 41.4615 14.0156 41.5575 13.8956C41.6535 13.7756 41.7015 13.6316 41.6895 13.4516C41.6775 13.2716 41.6175 13.1156 41.4855 12.9956C41.3535 12.8756 41.1975 12.7916 41.0055 12.7076C40.8135 12.6356 40.5855 12.5756 40.3335 12.5276C40.0815 12.4796 39.8295 12.4196 39.5655 12.3596C39.3015 12.2996 39.0375 12.2276 38.7855 12.1436C38.5335 12.0596 38.3175 11.9516 38.1135 11.7956C37.9215 11.6516 37.7536 11.4716 37.6456 11.2436C37.5256 11.0156 37.4656 10.7516 37.4656 10.4156C37.4656 10.0556 37.5496 9.76763 37.7295 9.52763C37.8975 9.28763 38.1255 9.09564 38.3895 8.95164C38.6535 8.80764 38.9535 8.69964 39.2775 8.63964C39.6015 8.57964 39.9135 8.55564 40.2015 8.55564C40.5375 8.55564 40.8615 8.59165 41.1615 8.66364C41.4615 8.73564 41.7495 8.84364 41.9895 9.01164C42.2415 9.16764 42.4455 9.38363 42.6015 9.63563C42.7695 9.88763 42.8655 10.1996 42.9135 10.5596L41.4135 10.5596C41.3415 10.2116 41.1855 9.98363 40.9455 9.86363C40.6935 9.74363 40.4175 9.68363 40.0935 9.68363C39.9975 9.68363 39.8655 9.69563 39.7335 9.70763C39.5895 9.73163 39.4695 9.75563 39.3375 9.80363C39.2175 9.85163 39.1095 9.92363 39.0255 10.0076C38.9415 10.0916 38.8935 10.2116 38.8935 10.3556C38.8935 10.5356 38.9535 10.6676 39.0735 10.7756C39.1935 10.8836 39.3495 10.9676 39.5535 11.0516C39.7455 11.1236 39.9735 11.1836 40.2255 11.2316C40.4775 11.2796 40.7415 11.3396 41.0055 11.3996C41.2695 11.4596 41.5215 11.5316 41.7735 11.6156C42.0255 11.6996 42.2535 11.8076 42.4455 11.9636C42.6375 12.1076 42.8055 12.2876 42.9255 12.5036C43.0455 12.7196 43.1055 12.9956 43.1055 13.3076C43.1055 13.6916 43.0215 14.0156 42.8415 14.2916C42.6615 14.5556 42.4335 14.7836 42.1575 14.9516C41.8815 15.1196 41.5575 15.2396 41.2215 15.3236C40.8735 15.3956 40.5375 15.4436 40.2015 15.4436C39.7935 15.4436 39.4095 15.3956 39.0615 15.2996C38.7135 15.2036 38.4015 15.0596 38.1495 14.8796C37.8975 14.6876 37.6935 14.4596 37.5496 14.1716C37.4056 13.8956 37.3216 13.5596 37.3096 13.1636L38.7615 13.1636L38.7615 13.1756L38.7735 13.1756ZM43.5135 8.74764L44.6055 8.74764L44.6055 6.77967L46.0454 6.77967L46.0454 8.73564L47.3414 8.73564L47.3414 9.80363L46.0454 9.80363L46.0454 13.2836C46.0454 13.4396 46.0574 13.5596 46.0694 13.6796C46.0814 13.7876 46.1174 13.8836 46.1534 13.9556C46.2014 14.0276 46.2734 14.0876 46.3574 14.1236C46.4534 14.1596 46.5734 14.1836 46.7414 14.1836C46.8374 14.1836 46.9454 14.1836 47.0414 14.1716C47.1374 14.1596 47.2454 14.1476 47.3414 14.1236L47.3414 15.2396C47.1854 15.2636 47.0294 15.2756 46.8734 15.2876C46.7174 15.3116 46.5734 15.3116 46.4054 15.3116C46.0214 15.3116 45.7215 15.2756 45.4935 15.2036C45.2655 15.1316 45.0855 15.0236 44.9535 14.8916C44.8215 14.7476 44.7375 14.5796 44.6895 14.3756C44.6415 14.1716 44.6175 13.9196 44.6055 13.6556L44.6055 9.81563L43.5135 9.81563L43.5135 8.72364L43.5135 8.74764ZM48.3494 8.74764L49.7054 8.74764L49.7054 9.63563L49.7294 9.63563C49.9334 9.25163 50.2094 8.98764 50.5694 8.81964C50.9294 8.65164 51.3134 8.56764 51.7454 8.56764C52.2614 8.56764 52.7054 8.65165 53.0894 8.84364C53.4734 9.02364 53.7854 9.26364 54.0374 9.58763C54.2893 9.89963 54.4813 10.2716 54.6013 10.6916C54.7213 11.1116 54.7933 11.5676 54.7933 12.0356C54.7933 12.4796 54.7333 12.8996 54.6253 13.3076C54.5053 13.7156 54.3373 14.0876 54.1093 14.3996C53.8814 14.7116 53.5934 14.9636 53.2334 15.1556C52.8734 15.3476 52.4654 15.4436 51.9854 15.4436C51.7814 15.4436 51.5654 15.4196 51.3614 15.3836C51.1574 15.3476 50.9534 15.2876 50.7614 15.2036C50.5694 15.1196 50.3894 15.0116 50.2334 14.8796C50.0654 14.7476 49.9334 14.5916 49.8254 14.4236L49.8014 14.4236L49.8014 17.6755L48.3614 17.6755L48.3614 8.74764L48.3494 8.74764ZM53.3774 12.0116C53.3774 11.7236 53.3414 11.4356 53.2574 11.1596C53.1854 10.8836 53.0654 10.6436 52.9094 10.4276C52.7534 10.2116 52.5614 10.0436 52.3454 9.91163C52.1174 9.77963 51.8534 9.71963 51.5654 9.71963C50.9654 9.71963 50.5094 9.92363 50.1974 10.3436C49.8974 10.7636 49.7414 11.3276 49.7414 12.0236C49.7414 12.3596 49.7774 12.6596 49.8614 12.9356C49.9454 13.2116 50.0534 13.4516 50.2214 13.6556C50.3774 13.8596 50.5694 14.0156 50.7974 14.1356C51.0254 14.2556 51.2774 14.3156 51.5774 14.3156C51.9134 14.3156 52.1774 14.2436 52.4054 14.1116C52.6334 13.9796 52.8134 13.7996 52.9694 13.5956C53.1134 13.3796 53.2214 13.1396 53.2814 12.8636C53.3414 12.5756 53.3774 12.2996 53.3774 12.0116ZM55.9093 6.26368L57.3493 6.26368L57.3493 7.61966L55.9093 7.61966L55.9093 6.26368ZM55.9093 8.74764L57.3493 8.74764L57.3493 15.2636L55.9093 15.2636L55.9093 8.74764ZM58.6333 6.26368L60.0733 6.26368L60.0733 15.2636L58.6333 15.2636L58.6333 6.26368ZM64.4652 15.4436C63.9492 15.4436 63.4812 15.3596 63.0732 15.1796C62.6652 14.9996 62.3292 14.7716 62.0413 14.4716C61.7653 14.1716 61.5493 13.7996 61.4053 13.3796C61.2613 12.9596 61.1773 12.4916 61.1773 11.9996C61.1773 11.5076 61.2493 11.0516 61.4053 10.6316C61.5493 10.2116 61.7653 9.85163 62.0413 9.53963C62.3173 9.23964 62.6652 8.99964 63.0732 8.83164C63.4812 8.66365 63.9492 8.56765 64.4652 8.56765C64.9812 8.56765 65.4492 8.65165 65.8572 8.83164C66.2652 8.99964 66.6012 9.23964 66.8892 9.53963C67.1652 9.83963 67.3812 10.2116 67.5252 10.6316C67.6692 11.0516 67.7532 11.5076 67.7532 11.9996C67.7532 12.5036 67.6812 12.9596 67.5252 13.3796C67.3692 13.7996 67.1652 14.1596 66.8892 14.4716C66.6132 14.7716 66.2652 15.0116 65.8572 15.1796C65.4492 15.3476 64.9932 15.4436 64.4652 15.4436ZM64.4652 14.3036C64.7772 14.3036 65.0652 14.2316 65.2932 14.0996C65.5332 13.9676 65.7132 13.7876 65.8692 13.5716C66.0252 13.3556 66.1332 13.1036 66.2052 12.8396C66.2772 12.5636 66.3132 12.2876 66.3132 11.9996C66.3132 11.7236 66.2772 11.4476 66.2052 11.1716C66.1332 10.8956 66.0252 10.6556 65.8692 10.4396C65.7132 10.2236 65.5212 10.0556 65.2932 9.92363C65.0532 9.79163 64.7772 9.71963 64.4652 9.71963C64.1532 9.71963 63.8652 9.79163 63.6372 9.92363C63.3972 10.0556 63.2172 10.2356 63.0612 10.4396C62.9052 10.6556 62.7972 10.8956 62.7252 11.1716C62.6532 11.4476 62.6172 11.7236 62.6172 11.9996C62.6172 12.2876 62.6532 12.5636 62.7252 12.8396C62.7972 13.1156 62.9052 13.3556 63.0612 13.5716C63.2172 13.7876 63.4092 13.9676 63.6372 14.0996C63.8772 14.2436 64.1532 14.3036 64.4652 14.3036ZM68.1852 8.74764L69.2772 8.74764L69.2772 6.77967L70.7171 6.77967L70.7171 8.73564L72.0131 8.73564L72.0131 9.80363L70.7171 9.80363L70.7171 13.2836C70.7171 13.4396 70.7291 13.5596 70.7411 13.6796C70.7531 13.7876 70.7891 13.8836 70.8251 13.9556C70.8731 14.0276 70.9451 14.0876 71.0291 14.1236C71.1251 14.1596 71.2451 14.1836 71.4131 14.1836C71.5091 14.1836 71.6171 14.1836 71.7131 14.1716C71.8091 14.1596 71.9171 14.1476 72.0131 14.1236L72.0131 15.2396C71.8571 15.2636 71.7011 15.2756 71.5451 15.2876C71.3891 15.3116 71.2451 15.3116 71.0771 15.3116C70.6931 15.3116 70.3931 15.2756 70.1651 15.2036C69.9372 15.1316 69.7572 15.0236 69.6252 14.8916C69.4932 14.7476 69.4092 14.5796 69.3612 14.3756C69.3132 14.1716 69.2892 13.9196 69.2772 13.6556L69.2772 9.81563L68.1852 9.81563L68.1852 8.72365L68.1852 8.74764Z" fill="#F8F8F8"/>
<path id="Vector_2" d="M17.2575 6.26393L10.6695 6.26393L8.64157 7.54274e-07L6.60159 6.26392L0.0136713 6.25192L5.34161 10.1279L3.30163 16.3918L8.62957 12.5158L13.9575 16.3918L11.9295 10.1279L17.2575 6.26393Z" fill="#00B67A"/>
<path id="Vector_3" d="M12.3865 11.5449L11.9305 10.1289L8.64258 12.5169L12.3865 11.5449Z" fill="#005128"/>
</g>
</svg>
