<svg width="68" height="29" viewBox="0 0 68 29" fill="none" xmlns="http://www.w3.org/2000/svg">
<path fill-rule="evenodd" clip-rule="evenodd" d="M44.4532 22.6746C43.2098 23.0188 41.5904 23.1623 40.2024 23.1623C36.5879 23.1623 34.2168 21.2975 34.2168 17.8836C34.2168 14.6418 36.4434 12.5476 39.6819 12.5476C40.4049 12.5476 41.1856 12.6336 41.6483 12.8631V8.1582H44.4532V22.6746ZM41.6483 15.2729C41.2145 15.0721 40.6073 14.9574 39.9133 14.9574C38.2073 14.9574 37.0795 15.9902 37.0795 17.7975C37.0795 19.7196 38.294 20.8098 40.2892 20.8098C40.6362 20.8098 41.1856 20.8098 41.6483 20.6951V15.2729ZM67.5 22.6746C66.2565 23.0188 64.6372 23.1623 63.2203 23.1623C59.6346 23.1623 57.2345 21.2975 57.2345 17.8836C57.2345 14.6418 59.4611 12.5476 62.6998 12.5476C63.4516 12.5476 64.2034 12.6336 64.6661 12.8631V8.1582H67.5V22.6746ZM64.6661 15.2729C64.2323 15.0721 63.654 14.9574 62.96 14.9574C61.225 14.9574 60.0972 15.9902 60.0972 17.7975C60.0972 19.7196 61.3407 20.8098 63.3359 20.8098C63.6829 20.8098 64.2034 20.8098 64.6661 20.6951V15.2729ZM48.8775 15.2729C49.3402 15.0721 50.0053 15.0147 50.5547 15.0147C52.2897 15.0147 53.4753 15.9902 53.4753 17.7402C53.4753 19.8057 52.1451 20.7524 50.3812 20.7811V23.1623H50.5258C54.1693 23.1623 56.338 21.1828 56.338 17.6541C56.338 14.441 54.0247 12.5476 50.6125 12.5476C48.8775 12.5476 47.1714 12.9492 46.0436 13.4082V27.0352H48.8775V15.2729Z" fill="white"/>
<path fill-rule="evenodd" clip-rule="evenodd" d="M23.8652 5.91992L24.3279 6.43632L24.5881 6.29287L23.8652 5.91992Z" fill="#DC0032"/>
<path fill-rule="evenodd" clip-rule="evenodd" d="M23.1699 5.54688L24.0663 6.57967L24.3844 6.40753L24.0374 6.00589L23.1699 5.54688Z" fill="#DC0032"/>
<path fill-rule="evenodd" clip-rule="evenodd" d="M22.4473 5.17383L23.8064 6.72301L24.1244 6.55088L23.3437 5.63285L22.4473 5.17383Z" fill="#DC0032"/>
<path fill-rule="evenodd" clip-rule="evenodd" d="M21.7539 4.80078L23.5468 6.86636L23.8648 6.69423L22.6214 5.2598L21.7539 4.80078ZM25.195 8.4442L24.9926 8.55895L25.195 8.78846V8.4442Z" fill="#DC0032"/>
<path fill-rule="evenodd" clip-rule="evenodd" d="M21.0605 4.42773L23.2871 7.00971L23.6052 6.83758L21.9281 4.88675L21.0605 4.42773ZM25.08 8.50148L24.7619 8.7023L25.1956 9.2187V8.67361L25.08 8.50148Z" fill="#DC0032"/>
<path fill-rule="evenodd" clip-rule="evenodd" d="M20.3359 4.05469L23.0252 7.15306L23.3722 6.98093L21.2324 4.51371L20.3359 4.05469ZM24.818 8.64483L24.4999 8.84565L25.1939 9.64893V9.10385L24.818 8.64483Z" fill="#DC0032"/>
<path fill-rule="evenodd" clip-rule="evenodd" d="M19.6426 3.68164L22.7945 7.2964L23.1126 7.12426L20.5101 4.14065L19.6426 3.68164ZM24.5584 8.81685L24.2403 8.98899L25.1946 10.1078V9.56276L24.5584 8.81685Z" fill="#DC0032"/>
<path fill-rule="evenodd" clip-rule="evenodd" d="M18.9492 3.31055L22.5349 7.44169L22.853 7.26956L19.8167 3.76956L18.9492 3.31055ZM24.2988 8.96215L23.9807 9.13428L25.1952 10.54V9.99494L24.2988 8.96215Z" fill="#DC0032"/>
<path fill-rule="evenodd" clip-rule="evenodd" d="M18.2266 2.93555L22.2749 7.58309L22.593 7.41095L19.1229 3.39456L18.2266 2.93555ZM24.0388 9.10354L23.7207 9.27568L25.1955 10.9683V10.4232L24.0388 9.10354Z" fill="#DC0032"/>
<path fill-rule="evenodd" clip-rule="evenodd" d="M17.5312 2.5625L22.0133 7.75512L22.3314 7.5543L18.3988 3.02152L17.5312 2.5625ZM23.7773 9.24689L23.4592 9.41902L25.1941 11.4272V10.8821L23.7773 9.24689Z" fill="#DC0032"/>
<path fill-rule="evenodd" clip-rule="evenodd" d="M16.8086 2.18945L21.7533 7.89847L22.0714 7.69765L17.705 2.64847L16.8086 2.18945ZM23.5462 9.39024L23.1992 9.56237L25.1944 11.8575V11.3124L23.5462 9.39024Z" fill="#DC0032"/>
<path fill-rule="evenodd" clip-rule="evenodd" d="M16.1152 1.81836L21.4937 8.04373L21.8407 7.84294L17.0117 2.27737L16.1152 1.81836ZM23.2866 9.53553L22.9685 9.70767L25.1951 12.3183V11.7446L23.2866 9.53553Z" fill="#DC0032"/>
<path fill-rule="evenodd" clip-rule="evenodd" d="M15.4219 1.44336L21.263 8.18512L21.5811 7.9843L16.2894 1.90237L15.4219 1.44336ZM23.027 9.67693L22.7089 9.84906L25.1957 12.7466V12.2015L23.027 9.67693Z" fill="#DC0032"/>
<path fill-rule="evenodd" clip-rule="evenodd" d="M14.6973 1.04297L21.0011 8.32981L21.3192 8.12899L15.5937 1.53067L14.6973 1.04297ZM22.765 9.82162L22.4469 9.99375L25.194 13.1782V12.6331L22.765 9.82162Z" fill="#DC0032"/>
<path fill-rule="evenodd" clip-rule="evenodd" d="M14.0039 0.669922L20.7415 8.47316L21.0596 8.30102L14.9003 1.15762L14.0039 0.669922ZM22.5054 9.96496L22.1873 10.1371L25.1947 13.6371V13.0633L22.5054 9.96496Z" fill="#DC0032"/>
<path fill-rule="evenodd" clip-rule="evenodd" d="M13.3105 0.326172L20.4819 8.61711L20.7999 8.44498L14.178 0.785187L13.3105 0.326172ZM22.2458 10.1089L21.9277 10.281L25.1953 14.0679V13.5228L22.2458 10.1089Z" fill="#DC0032"/>
<path fill-rule="evenodd" clip-rule="evenodd" d="M12.8477 0.210938L20.2214 8.76007L20.5395 8.58794L13.4838 0.411756L13.3103 0.325691C13.1657 0.239626 13.0212 0.210938 12.8477 0.210938ZM21.9853 10.2519L21.6672 10.424L25.195 14.4978V13.9527L21.9853 10.2519Z" fill="#DC0032"/>
<path fill-rule="evenodd" clip-rule="evenodd" d="M12.847 0.210938C12.7313 0.210938 12.6157 0.239626 12.5 0.268314L19.9605 8.90351L20.3075 8.73138L12.9338 0.210938C12.9048 0.210938 12.8759 0.210938 12.847 0.210938ZM21.7533 10.3953L21.4352 10.5675L25.1944 14.9568V14.383L21.7533 10.3953Z" fill="#DC0032"/>
<path fill-rule="evenodd" clip-rule="evenodd" d="M12.5872 0.240234C12.5294 0.268923 12.4427 0.297611 12.4137 0.3263L12.2402 0.412365L19.7296 9.04757L20.0477 8.87543L12.5872 0.240234ZM21.4936 10.5394L21.1755 10.7402L25.1949 15.3877V14.8426L21.4936 10.5394Z" fill="#DC0032"/>
<path fill-rule="evenodd" clip-rule="evenodd" d="M12.2986 0.353516L11.9805 0.525646L19.4699 9.18954L19.7879 9.01741L12.2986 0.353516ZM21.2338 10.6813L20.9157 10.8822L25.1954 15.8166V15.2715L21.2338 10.6813Z" fill="#DC0032"/>
<path fill-rule="evenodd" clip-rule="evenodd" d="M12.0388 0.498047L11.7207 0.670177L19.2101 9.33407L19.5282 9.16194L12.0388 0.498047ZM20.974 10.8259L20.6559 11.0267L25.1958 16.2767V15.7316L20.974 10.8259Z" fill="#DC0032"/>
<path fill-rule="evenodd" clip-rule="evenodd" d="M11.7771 0.640625L11.459 0.812757L18.9484 9.47665L19.2665 9.30452L11.7771 0.640625ZM20.7123 10.9685L20.3942 11.1693L25.1944 16.7061V16.1611L20.7123 10.9685Z" fill="#DC0032"/>
<path fill-rule="evenodd" clip-rule="evenodd" d="M11.5173 0.785156L11.1992 0.957288L18.6886 9.62118L19.0067 9.44905L11.5173 0.785156ZM20.4525 11.113L20.1345 11.3138L25.1949 17.1376V16.5925L20.4525 11.113Z" fill="#DC0032"/>
<path fill-rule="evenodd" clip-rule="evenodd" d="M11.2575 0.927734L10.9395 1.09986L18.4289 9.76376L18.7469 9.59163L11.2575 0.927734ZM20.2217 11.2556L19.9036 11.4564L25.1954 17.5957V17.0506L20.2217 11.2556Z" fill="#DC0032"/>
<path fill-rule="evenodd" clip-rule="evenodd" d="M10.9978 1.04297L10.6797 1.24379L18.198 9.90769L18.5161 9.73555L10.9978 1.04297ZM19.9619 11.4282L19.6438 11.6003L25.1958 18.0265V17.4814L19.9619 11.4282Z" fill="#DC0032"/>
<path fill-rule="evenodd" clip-rule="evenodd" d="M10.7361 1.18555L10.418 1.35768L17.9363 10.0503L18.2544 9.87813L10.7361 1.18555ZM19.7002 11.5708L19.3821 11.7429L25.1944 18.4846V17.9109L19.7002 11.5708Z" fill="#DC0032"/>
<path fill-rule="evenodd" clip-rule="evenodd" d="M10.4763 1.33008L10.1582 1.50221L17.6765 10.2235L17.9946 10.0227L10.4763 1.33008ZM19.4404 11.7153L19.1224 11.8874L25.1949 18.9161V18.371L19.4404 11.7153Z" fill="#DC0032"/>
<path fill-rule="evenodd" clip-rule="evenodd" d="M10.2165 1.47266L9.89844 1.64478L17.4168 10.3661L17.7349 10.1652L10.2165 1.47266ZM19.1807 11.8579L18.8626 12.03L25.1953 19.3455V18.8004L19.1807 11.8579Z" fill="#DC0032"/>
<path fill-rule="evenodd" clip-rule="evenodd" d="M9.9548 1.61719L9.63672 1.78932L17.1551 10.5106L17.4732 10.3098L9.9548 1.61719ZM18.919 12.0024L18.6009 12.1745L25.1939 19.8056V19.2319L18.919 12.0024Z" fill="#DC0032"/>
<path fill-rule="evenodd" clip-rule="evenodd" d="M9.69504 1.75977L9.37695 1.9319L16.8953 10.6532L17.2134 10.4524L9.69504 1.75977ZM18.6881 12.145L18.3701 12.3171L25.1944 20.2351V19.69L18.6881 12.145Z" fill="#DC0032"/>
<path fill-rule="evenodd" clip-rule="evenodd" d="M9.43489 1.875L9.08789 2.04713L16.6641 10.7971L16.9822 10.5963L9.43489 1.875ZM18.428 12.2889L18.1099 12.461L25.1945 20.6659V20.1208L18.428 12.2889Z" fill="#DC0032"/>
<path fill-rule="evenodd" clip-rule="evenodd" d="M9.17513 2.01758L8.82812 2.18971L16.4332 10.9684C16.4621 10.911 16.4911 10.8823 16.5489 10.8536L16.7224 10.7389L9.17513 2.01758ZM18.1682 12.4315L17.8501 12.6036L25.1371 21.038C25.166 20.9519 25.195 20.8659 25.195 20.7798V20.5503L18.1682 12.4315Z" fill="#DC0032"/>
<path fill-rule="evenodd" clip-rule="evenodd" d="M8.91536 2.16211L8.56836 2.33424L16.347 11.3137V11.199C16.347 11.1129 16.4048 10.9981 16.4626 10.9121L8.91536 2.16211ZM17.9085 12.576L17.6771 12.7195C17.6482 12.7195 17.6193 12.7482 17.5904 12.7482L24.993 21.326C25.0798 21.2112 25.1376 21.0965 25.1665 20.9817L17.9085 12.576Z" fill="#DC0032"/>
<path fill-rule="evenodd" clip-rule="evenodd" d="M8.65556 2.30469L8.30859 2.47682L16.3474 11.7719V11.1981L8.65556 2.30469ZM17.0992 12.6038L24.7911 21.5259C24.8778 21.4686 24.9646 21.3538 25.0513 21.2677L17.6487 12.7186C17.533 12.776 17.3595 12.776 17.2438 12.7186L17.0992 12.6038Z" fill="#DC0032"/>
<path fill-rule="evenodd" clip-rule="evenodd" d="M8.39384 2.44922L8.04688 2.62135L24.5293 21.6705L24.7607 21.5557C24.7896 21.527 24.8185 21.4983 24.8474 21.4696L17.2713 12.7197H17.2424L16.5773 12.318C16.5194 12.2894 16.4905 12.232 16.4327 12.1746C16.3749 12.0885 16.3749 12.0312 16.3459 11.9738V11.6582L8.39384 2.44922Z" fill="#DC0032"/>
<path fill-rule="evenodd" clip-rule="evenodd" d="M8.13411 2.5918L7.78711 2.76393L24.2696 21.813L24.5877 21.6409L8.13411 2.5918Z" fill="#DC0032"/>
<path fill-rule="evenodd" clip-rule="evenodd" d="M7.87435 2.70703L7.52734 2.87916L24.0387 21.957L24.3568 21.7848L7.87435 2.70703Z" fill="#DC0032"/>
<path fill-rule="evenodd" clip-rule="evenodd" d="M7.61263 2.84961L7.26562 3.02174L23.777 22.0995L24.0951 21.9274L7.61263 2.84961Z" fill="#DC0032"/>
<path fill-rule="evenodd" clip-rule="evenodd" d="M7.35286 2.99414L7.00586 3.16627L23.5173 22.2441L23.8354 22.0719L7.35286 2.99414Z" fill="#DC0032"/>
<path fill-rule="evenodd" clip-rule="evenodd" d="M7.06418 3.13672L6.74609 3.30885L23.2575 22.4153L23.5756 22.2145L7.06418 3.13672Z" fill="#DC0032"/>
<path fill-rule="evenodd" clip-rule="evenodd" d="M6.80441 3.28125L6.48633 3.45338L22.9977 22.5599L23.3158 22.3591L6.80441 3.28125Z" fill="#DC0032"/>
<path fill-rule="evenodd" clip-rule="evenodd" d="M6.54269 3.42383L6.22461 3.59596L22.7649 22.7025L23.083 22.5016L6.54269 3.42383Z" fill="#DC0032"/>
<path fill-rule="evenodd" clip-rule="evenodd" d="M6.28293 3.53906L5.96484 3.71119L22.5052 22.8464L22.8233 22.6456L6.28293 3.53906Z" fill="#DC0032"/>
<path fill-rule="evenodd" clip-rule="evenodd" d="M6.02316 3.68164L5.70508 3.85377L22.2454 22.989L22.5635 22.8168L6.02316 3.68164Z" fill="#DC0032"/>
<path fill-rule="evenodd" clip-rule="evenodd" d="M5.7634 3.82617L5.44531 3.9983L13.4842 13.2933L13.7444 13.4655C13.86 13.5228 13.9757 13.6663 13.9757 13.8097V13.8384L21.9856 23.1335L22.3037 22.9614L5.7634 3.82617Z" fill="#DC0032"/>
<path fill-rule="evenodd" clip-rule="evenodd" d="M5.50168 3.96875L5.18359 4.14087L12.7309 12.8909L13.6851 13.4072L5.50168 3.96875ZM13.9453 13.7228C13.9453 13.7515 13.9742 13.7802 13.9742 13.8089V14.2966L21.7239 23.2761L22.042 23.1039L13.9453 13.7228Z" fill="#DC0032"/>
<path fill-rule="evenodd" clip-rule="evenodd" d="M5.24191 4.11328L4.92383 4.28541L11.9795 12.4616L12.9338 12.978L5.24191 4.11328ZM13.9747 14.1829V14.728L21.4931 23.4206L21.8112 23.2485L13.9747 14.1829Z" fill="#DC0032"/>
<path fill-rule="evenodd" clip-rule="evenodd" d="M4.98215 4.25586L4.66406 4.42799L11.2571 12.0304L12.1824 12.5468L4.98215 4.25586ZM13.9752 14.6124V15.1861L21.2333 23.5632L21.5514 23.3911L13.9752 14.6124Z" fill="#DC0032"/>
<path fill-rule="evenodd" clip-rule="evenodd" d="M4.72238 4.37109L4.4043 4.54323L10.5057 11.6006L11.4311 12.1457L4.72238 4.37109ZM13.9757 15.0719V15.617L20.9735 23.7071L21.2916 23.5349L13.9757 15.0719Z" fill="#DC0032"/>
<path fill-rule="evenodd" clip-rule="evenodd" d="M4.46261 4.51367L4.14453 4.6858L9.75435 11.1694L10.6797 11.7145L4.46261 4.51367ZM13.9762 15.5013V16.0464L20.7138 23.8497L21.0319 23.6775L13.9762 15.5013Z" fill="#DC0032"/>
<path fill-rule="evenodd" clip-rule="evenodd" d="M4.20089 4.6582L3.88281 4.83034L9.00104 10.7688L9.92638 11.2852L4.20089 4.6582ZM13.9747 15.9328V16.5065L20.452 24.0229L20.7701 23.8221L13.9747 15.9328Z" fill="#DC0032"/>
<path fill-rule="evenodd" clip-rule="evenodd" d="M3.94113 4.80078L3.62305 4.97291L8.24973 10.3376L9.17503 10.854L3.94113 4.80078ZM13.9752 16.3909V16.936L20.2212 24.1655L20.5393 23.9646L13.9752 16.3909Z" fill="#DC0032"/>
<path fill-rule="evenodd" clip-rule="evenodd" d="M3.68136 4.94336L3.36328 5.11549L7.49837 9.90645L8.45259 10.4228L3.68136 4.94336ZM13.9757 16.8204V17.3655L19.9614 24.308L20.2795 24.1072L13.9757 16.8204Z" fill="#DC0032"/>
<path fill-rule="evenodd" clip-rule="evenodd" d="M3.4216 5.08789L3.10352 5.26002L6.74702 9.47721L7.70128 10.0223L3.4216 5.08789ZM10.9978 14.3829L11.7496 15.2436V14.928C11.7496 14.8706 11.6918 14.7846 11.6339 14.7559L10.9978 14.3829ZM13.9762 17.2518V17.8256L19.7017 24.4526L20.0197 24.2517L13.9762 17.2518Z" fill="#DB0032"/>
<path fill-rule="evenodd" clip-rule="evenodd" d="M3.15988 5.20312L2.8418 5.37526L5.99371 9.04736L6.94797 9.59245L3.15988 5.20312ZM10.2445 13.9531L11.7481 15.6744V15.1293L11.1987 14.4982L10.2445 13.9531ZM13.9747 17.7113V18.2564L19.4399 24.5965L19.758 24.4244L13.9747 17.7113Z" fill="#DC0032"/>
<path fill-rule="evenodd" clip-rule="evenodd" d="M2.90011 5.3457L2.58203 5.51784L5.27128 8.64486L6.19662 9.16125L2.90011 5.3457ZM9.4931 13.5506L11.7486 16.1326V15.5875L10.4474 14.067L9.4931 13.5506ZM13.9752 18.1408V18.6858L19.1802 24.7391L19.4983 24.5669L13.9752 18.1408Z" fill="#DC0032"/>
<path fill-rule="evenodd" clip-rule="evenodd" d="M2.64035 5.48828L2.32227 5.66041L4.51992 8.21366L5.44526 8.73006L2.64035 5.48828ZM8.77066 13.1194L11.7491 16.562V16.0169L9.696 13.6358L8.77066 13.1194ZM13.9757 18.5989V19.144L18.9493 24.8816L19.2674 24.7095L13.9757 18.5989Z" fill="#DC0032"/>
<path fill-rule="evenodd" clip-rule="evenodd" d="M2.38058 5.63281L2.0625 5.80494L3.76858 7.78446L4.69391 8.30082L2.38058 5.63281ZM8.01935 12.6902L11.7496 16.9934V16.4483L8.94465 13.2352L8.01935 12.6902ZM13.9761 19.0303V19.5754L18.6896 25.0262L19.0076 24.854L13.9761 19.0303Z" fill="#DC0032"/>
<path fill-rule="evenodd" clip-rule="evenodd" d="M2.11886 5.77734L1.80078 5.94948L3.01528 7.35522L3.94061 7.9003L2.11886 5.77734ZM7.26604 12.2609L11.7481 17.4535V16.9085L8.19138 12.806L7.26604 12.2609ZM13.9747 19.4617V20.0068L18.4279 25.1707L18.7459 24.9986L13.9747 19.4617Z" fill="#DC0032"/>
<path fill-rule="evenodd" clip-rule="evenodd" d="M1.8591 5.91992L1.54102 6.09205L2.26393 6.92402L3.21818 7.46911L1.8591 5.91992ZM6.51469 11.8584L11.7486 17.883V17.3379L7.44003 12.3748L6.51469 11.8584ZM13.9752 19.9199V20.4649L18.1681 25.3133L18.4862 25.1412L13.9752 19.9199Z" fill="#DC0032"/>
<path fill-rule="evenodd" clip-rule="evenodd" d="M1.59895 6.03516L1.25195 6.20729L1.5122 6.52286L2.46645 7.03926L1.59895 6.03516ZM5.76295 11.4286L11.7487 18.3425V17.7687L6.71721 11.945L5.76295 11.4286ZM13.9753 20.3507V20.8958L17.908 25.4859L18.226 25.2851L13.9753 20.3507Z" fill="#DC0032"/>
<path fill-rule="evenodd" clip-rule="evenodd" d="M1.33913 6.17773L1.13672 6.29249L1.71505 6.60806L1.33913 6.17773ZM5.01154 10.9974L11.7491 18.7719V18.2269L5.9658 11.5425L5.01154 10.9974ZM13.9757 20.7801V21.3539L17.6771 25.6285L17.9951 25.4277L13.9757 20.7801Z" fill="#DC0032"/>
<path fill-rule="evenodd" clip-rule="evenodd" d="M4.28711 10.5684L11.7476 19.2036V18.6585L5.21244 11.1134L4.28711 10.5684ZM13.9742 21.2405V21.7855L17.4153 25.7732L17.7334 25.5724L13.9742 21.2405Z" fill="#DC0032"/>
<path fill-rule="evenodd" clip-rule="evenodd" d="M3.53711 10.166L11.7494 19.6619V19.0881L4.46243 10.6824L3.53711 10.166ZM13.976 21.6701V22.2152L17.1569 25.916L17.4749 25.7151L13.976 21.6701Z" fill="#DC0032"/>
<path fill-rule="evenodd" clip-rule="evenodd" d="M2.78516 9.73438L11.7493 20.0909V19.5458L3.71049 10.2508L2.78516 9.73438ZM13.9759 22.0991V22.6729L16.8965 26.0581L17.2146 25.886L13.9759 22.0991Z" fill="#DC0032"/>
<path fill-rule="evenodd" clip-rule="evenodd" d="M2.0332 9.30469L11.7492 20.5219V19.9768L2.95854 9.84977L2.0332 9.30469ZM13.9758 22.5588V23.1038L16.6361 26.2022L16.9542 26.03L13.9758 22.5588Z" fill="#DB0032"/>
<path fill-rule="evenodd" clip-rule="evenodd" d="M1.28125 8.875L11.7491 20.9815V20.4364L2.20658 9.42008L1.28125 8.875ZM13.9756 22.9897V23.5348L16.4047 26.3463L16.7227 26.1741L13.9756 22.9897Z" fill="#DA0032"/>
<path fill-rule="evenodd" clip-rule="evenodd" d="M0.529297 8.47266L11.749 21.4111V20.8661L1.48355 8.98905L0.529297 8.47266ZM13.9755 23.4194V23.9931L16.1443 26.489L16.4624 26.3169L13.9755 23.4194Z" fill="#D90032"/>
<path fill-rule="evenodd" clip-rule="evenodd" d="M0.5 8.44336V8.845L11.7486 21.8409V21.2958L0.731333 8.55811L0.5 8.44336ZM13.9751 23.8777V24.222C13.9751 24.2794 13.9462 24.3367 13.9173 24.3654L15.8837 26.6318L16.2017 26.4597L13.9751 23.8777Z" fill="#D80032"/>
<path fill-rule="evenodd" clip-rule="evenodd" d="M0.5 8.73047V9.30424L11.7486 22.3001V21.755L0.5 8.73047ZM13.9462 24.3083C13.9173 24.423 13.8306 24.5378 13.7438 24.5665L13.7149 24.5952L15.6234 26.7755L15.9415 26.6034L13.9462 24.3083Z" fill="#D70032"/>
<path fill-rule="evenodd" clip-rule="evenodd" d="M0.5 9.18945V9.73454L11.7486 22.7304V22.1853L0.5 9.18945ZM13.7727 24.5378C13.7727 24.5664 13.7727 24.5664 13.7438 24.5664L13.4547 24.7386L15.3632 26.9189L15.6812 26.7468L13.7727 24.5378Z" fill="#D60032"/>
<path fill-rule="evenodd" clip-rule="evenodd" d="M0.5 9.62109V10.1662L11.7486 23.162V22.617L0.5 9.62109ZM13.5414 24.6825L13.1944 24.8833L15.1318 27.0924L15.4499 26.8915L13.5414 24.6825Z" fill="#D50032"/>
<path fill-rule="evenodd" clip-rule="evenodd" d="M0.5 10.0801V10.6252L11.7486 23.621V23.076L0.5 10.0801ZM13.2812 24.8259L13.0788 24.9407C13.0209 24.9694 12.9631 24.9694 12.9053 24.9694L14.8716 27.2358L15.1897 27.0349L13.2812 24.8259Z" fill="#D40032"/>
<path fill-rule="evenodd" clip-rule="evenodd" d="M0.5 10.5098V11.0548L11.7486 24.0507V23.5056L0.5 10.5098ZM12.3848 24.8253L14.6113 27.3786L14.9294 27.1777L12.992 24.9687C12.9631 24.9687 12.9053 24.9974 12.8763 24.9974H12.8474C12.7607 24.9974 12.7028 24.9687 12.645 24.94L12.3848 24.8253Z" fill="#D30032"/>
<path fill-rule="evenodd" clip-rule="evenodd" d="M0.5 10.9414V11.5152L14.3511 27.5233L14.6691 27.3225L12.5872 24.9127L11.951 24.5684C11.8353 24.511 11.7486 24.3676 11.7486 24.2241V23.9372L0.5 10.9414Z" fill="#D20032"/>
<path fill-rule="evenodd" clip-rule="evenodd" d="M0.5 11.3984V11.9435L14.0908 27.6648L14.4089 27.4926L0.5 11.3984Z" fill="#D10032"/>
<path fill-rule="evenodd" clip-rule="evenodd" d="M0.5 11.8301V12.3752L13.8306 27.8095L14.1486 27.6374L0.5 11.8301Z" fill="#D00032"/>
<path fill-rule="evenodd" clip-rule="evenodd" d="M0.5 12.2598V12.8335L13.5992 27.9523L13.9173 27.7802L0.5 12.2598Z" fill="#CF0032"/>
<path fill-rule="evenodd" clip-rule="evenodd" d="M0.5 12.7188V13.2638L13.339 28.0957L13.6571 27.9236L0.5 12.7188Z" fill="#CE0032"/>
<path fill-rule="evenodd" clip-rule="evenodd" d="M0.5 13.1504V13.6955L13.0498 28.2118C13.1366 28.1832 13.2233 28.1545 13.3101 28.1258L13.3968 28.0684L0.5 13.1504Z" fill="#CD0032"/>
<path fill-rule="evenodd" clip-rule="evenodd" d="M0.5 13.5801V14.1539L12.6739 28.2112C12.7318 28.2112 12.7896 28.2112 12.8474 28.2112C12.9342 28.2112 13.0209 28.2112 13.1077 28.1825L0.5 13.5801Z" fill="#CC0032"/>
<path fill-rule="evenodd" clip-rule="evenodd" d="M0.5 14.0391V14.5841L12.0088 27.8956L12.4137 28.1251C12.5004 28.1825 12.645 28.2112 12.7607 28.2112L0.5 14.0391Z" fill="#CB0032"/>
<path fill-rule="evenodd" clip-rule="evenodd" d="M0.5 14.4688V15.0138L11.257 27.4646L12.2113 28.0097L0.5 14.4688Z" fill="#CA0032"/>
<path fill-rule="evenodd" clip-rule="evenodd" d="M0.5 14.9277V15.4728L10.5052 27.0343L11.4594 27.5793L0.5 14.9277Z" fill="#C90032"/>
<path fill-rule="evenodd" clip-rule="evenodd" d="M0.5 15.3574V15.9025L9.75332 26.6033L10.6787 27.1484L0.5 15.3574Z" fill="#C80033"/>
<path fill-rule="evenodd" clip-rule="evenodd" d="M0.5 15.7891V16.3341L9.00148 26.1743L9.92682 26.7194L0.5 15.7891Z" fill="#C70033"/>
<path fill-rule="evenodd" clip-rule="evenodd" d="M0.5 16.248V16.7931L8.22076 25.7152L9.17498 26.2603L0.5 16.248Z" fill="#C60033"/>
<path fill-rule="evenodd" clip-rule="evenodd" d="M0.5 16.6777V17.2228L7.46893 25.2842L8.42314 25.8293L0.5 16.6777Z" fill="#C50033"/>
<path fill-rule="evenodd" clip-rule="evenodd" d="M0.5 17.1074V17.6525L6.71709 24.8533L7.67134 25.3984L0.5 17.1074Z" fill="#C40033"/>
<path fill-rule="evenodd" clip-rule="evenodd" d="M0.5 17.5684V18.1134L5.96525 24.4249L6.91951 24.9699L0.5 17.5684Z" fill="#C30033"/>
<path fill-rule="evenodd" clip-rule="evenodd" d="M0.5 17.998V18.5431L5.21341 23.9939L6.16767 24.539L0.5 17.998Z" fill="#C20033"/>
<path fill-rule="evenodd" clip-rule="evenodd" d="M0.5 18.4277V19.0015L4.46157 23.563L5.38691 24.108L0.5 18.4277Z" fill="#C10033"/>
<path fill-rule="evenodd" clip-rule="evenodd" d="M0.5 18.8867V19.4318L3.68083 23.1326L4.63507 23.6777L0.5 18.8867Z" fill="#C00033"/>
<path fill-rule="evenodd" clip-rule="evenodd" d="M0.5 19.3184V19.8634L2.929 22.7036L3.88325 23.22L0.5 19.3184Z" fill="#BF0033"/>
<path fill-rule="evenodd" clip-rule="evenodd" d="M0.5 19.748V20.3218L2.17717 22.244L3.13142 22.789L0.5 19.748Z" fill="#BE0033"/>
<path fill-rule="evenodd" clip-rule="evenodd" d="M0.5 20.207V20.7521L1.42533 21.8136L2.37958 22.3587L0.5 20.207Z" fill="#BD0033"/>
<path fill-rule="evenodd" clip-rule="evenodd" d="M0.5 20.6367V20.7802C0.5 21.067 0.702417 21.4113 0.933749 21.5548L1.62775 21.9277L0.5 20.6367Z" fill="#BC0033"/>
<path fill-rule="evenodd" clip-rule="evenodd" d="M0.673828 21.2969C0.731661 21.3542 0.760578 21.4116 0.818411 21.4403L0.673828 21.2969Z" fill="#BB0033"/>
</svg>
