<svg width="30" height="31" viewBox="0 0 30 31" fill="none" xmlns="http://www.w3.org/2000/svg">
<path d="M20.7917 9.41441H21.3143C22.9612 9.41441 24.6081 9.42232 26.2542 9.41441C26.8427 9.40913 27.2219 9.65282 27.4577 10.193C28.1835 11.8646 28.9348 13.5176 29.6527 15.1892C29.7571 15.4506 29.7961 15.7336 29.7662 16.0135C29.5304 18.3009 29.2665 20.5936 29.0272 22.8845C28.9251 23.8522 28.5979 24.1716 27.6196 24.1716C27.1146 24.1716 26.6096 24.1813 26.1055 24.1672C25.9023 24.161 25.8046 24.2226 25.7122 24.4118C25.231 25.3883 24.4506 26.005 23.38 26.2118C21.9811 26.4819 20.7407 25.7587 20.2533 24.4153C20.2278 24.3431 20.2014 24.2719 20.1653 24.1716H19.8407C17.3712 24.1716 14.9008 24.1716 12.4313 24.1663C12.2052 24.1663 12.0926 24.2305 11.9914 24.4399C11.1996 26.0429 9.28788 26.7273 7.82835 25.9426C7.12454 25.5625 6.69697 24.9563 6.46383 24.1716C5.49169 24.1716 4.51603 24.1716 3.54125 24.1716C3.09521 24.1716 2.74947 23.9956 2.53744 23.6041C2.45395 23.4487 2.41124 23.2747 2.4133 23.0982C2.41535 22.9218 2.46211 22.7488 2.5492 22.5954C2.63629 22.4419 2.76087 22.3131 2.91128 22.2209C3.0617 22.1286 3.23304 22.0761 3.40929 22.0681C3.76999 22.0487 4.13334 22.0681 4.4958 22.0619C5.11164 22.0496 5.57351 21.593 5.57263 21.0062C5.57175 20.4194 5.10812 19.9637 4.4914 19.9566C3.8219 19.9487 3.1524 19.9566 2.4829 19.9566C1.83627 19.9566 1.36559 19.5115 1.35943 18.915C1.35328 18.2992 1.82483 17.8514 2.49169 17.8505C5.24829 17.8505 8.00489 17.8505 10.7615 17.8505C11.5849 17.8505 12.1251 17.1159 11.8172 16.4077C11.6254 15.9599 11.2691 15.7426 10.7773 15.7434C9.40489 15.7434 8.03246 15.7505 6.66002 15.7434C5.82336 15.7382 5.31398 14.9068 5.70284 14.1959C5.91838 13.8018 6.26589 13.6364 6.71017 13.6373C8.53304 13.6408 10.3553 13.6408 12.177 13.6373H13.8583C14.5806 13.6373 15.0635 13.2062 15.0583 12.5728C15.0521 11.9569 14.5735 11.5302 13.8697 11.5302C10.4773 11.5302 7.08495 11.5302 3.69257 11.5302C3.53948 11.5374 3.38606 11.5277 3.2351 11.5012C2.98067 11.4444 2.75647 11.295 2.60606 11.0821C2.45565 10.8692 2.38979 10.6079 2.42127 10.3492C2.45275 10.0904 2.57934 9.85255 2.77641 9.68191C2.97348 9.51126 3.22697 9.41999 3.48759 9.42584C5.55152 9.42056 7.61545 9.42584 9.67938 9.42584C10.0524 9.42584 10.4254 9.43024 10.7993 9.42584C11.4354 9.41705 11.9043 8.95781 11.8964 8.35869C11.8885 7.77364 11.424 7.3232 10.8028 7.32144C9.07938 7.31617 7.35592 7.32144 5.63158 7.32144C4.84419 7.32144 4.32688 6.61763 4.58642 5.91382C4.74213 5.49241 5.05797 5.26631 5.50137 5.21881C5.59983 5.21352 5.69851 5.21352 5.79697 5.21881H19.8618C20.7996 5.21881 21.2096 5.66836 21.111 6.6018C21.0125 7.53523 20.9025 8.43435 20.7917 9.41441ZM27.6116 16.7886C27.6275 16.442 27.7506 16.0742 27.6389 15.8041C27.0627 14.4212 26.4275 13.0619 25.8037 11.6992C25.7798 11.6556 25.7461 11.6181 25.7054 11.5896C25.6647 11.561 25.618 11.5422 25.5688 11.5346C24.7902 11.5232 24.0116 11.5135 23.2339 11.5346C22.9831 11.5357 22.7418 11.6305 22.5573 11.8005C22.3729 11.9704 22.2587 12.2032 22.2371 12.4531C22.1078 13.5185 21.9873 14.5848 21.8852 15.6528C21.8693 15.7929 21.8828 15.9347 21.9248 16.0693C21.9668 16.2039 22.0365 16.3282 22.1293 16.4342C22.2222 16.5403 22.3361 16.6259 22.4639 16.6854C22.5917 16.7449 22.7305 16.777 22.8715 16.7798C24.4242 16.8 25.9797 16.7886 27.6116 16.7886ZM8.46882 23.3701C8.46882 23.8566 8.78906 24.2059 9.18759 24.1619C9.8914 24.081 10.4404 23.2637 10.2433 22.5827C10.1201 22.1534 9.77879 21.9775 9.35562 22.1235C9.09495 22.2108 8.86866 22.3785 8.70931 22.6025C8.54997 22.8265 8.46577 23.0952 8.46882 23.3701ZM22.1703 23.3701C22.1703 23.8716 22.5064 24.2253 22.919 24.1619C23.599 24.0528 24.0987 23.3279 23.9588 22.6522C23.8586 22.1701 23.4899 21.9651 23.0281 22.1349C22.7753 22.2267 22.5572 22.3944 22.4036 22.6151C22.25 22.8358 22.1685 23.0986 22.1703 23.3675V23.3701Z" fill="#8FA0E6"/>
<path d="M1.8845 15.7356C1.69799 15.7356 1.51148 15.7444 1.32497 15.7356C1.05372 15.725 0.796983 15.6103 0.608088 15.4153C0.419192 15.2204 0.312653 14.9601 0.310599 14.6887C0.307884 14.4163 0.41152 14.1536 0.599471 13.9565C0.787421 13.7593 1.04486 13.6433 1.31705 13.633C1.69975 13.6171 2.08509 13.6171 2.46866 13.633C2.73663 13.6471 2.98907 13.7631 3.17424 13.9573C3.35942 14.1515 3.46333 14.4092 3.46468 14.6775C3.46603 14.9459 3.36472 15.2046 3.1815 15.4006C2.99829 15.5967 2.74704 15.7153 2.47922 15.7321C2.28039 15.7462 2.08245 15.7356 1.8845 15.7356Z" fill="#8FA0E6"/>
</svg>
