<svg width="20" height="21" viewBox="0 0 20 21" fill="none" xmlns="http://www.w3.org/2000/svg">
<path d="M13.8611 6.51455H14.2095C15.3075 6.51455 16.4054 6.51983 17.5028 6.51455C17.8951 6.51103 18.1479 6.6735 18.3051 7.03361C18.789 8.14798 19.2899 9.25004 19.7685 10.3644C19.8381 10.5387 19.864 10.7273 19.8441 10.914C19.6869 12.4389 19.511 13.9673 19.3515 15.4946C19.2834 16.1398 19.0652 16.3527 18.413 16.3527C18.0764 16.3527 17.7397 16.3591 17.4037 16.3497C17.2682 16.3456 17.2031 16.3867 17.1415 16.5128C16.8207 17.1638 16.3004 17.575 15.5866 17.7128C14.6541 17.8929 13.8271 17.4107 13.5022 16.5151C13.4852 16.467 13.4676 16.4195 13.4435 16.3527H13.2271C11.5808 16.3527 9.93386 16.3527 8.28752 16.3492C8.13679 16.3492 8.06172 16.392 7.99427 16.5316C7.46641 17.6002 6.19192 18.0565 5.2189 17.5333C4.74969 17.2799 4.46465 16.8758 4.30922 16.3527C3.66113 16.3527 3.01069 16.3527 2.36084 16.3527C2.06347 16.3527 1.83298 16.2354 1.69163 15.9744C1.63597 15.8708 1.60749 15.7547 1.60887 15.6371C1.61024 15.5195 1.64141 15.4041 1.69947 15.3019C1.75753 15.1996 1.84058 15.1137 1.94085 15.0522C2.04113 14.9907 2.15536 14.9557 2.27286 14.9503C2.51333 14.9374 2.75556 14.9503 2.9972 14.9462C3.40776 14.938 3.71567 14.6336 3.71509 14.2424C3.7145 13.8512 3.40541 13.5474 2.99427 13.5427C2.54793 13.5374 2.1016 13.5427 1.65526 13.5427C1.22418 13.5427 0.910395 13.2459 0.90629 12.8483C0.902184 12.4377 1.21655 12.1392 1.66113 12.1386C3.49886 12.1386 5.33659 12.1386 7.17433 12.1386C7.7233 12.1386 8.08342 11.6489 7.87814 11.1767C7.75028 10.8782 7.51274 10.7333 7.18488 10.7339C6.26993 10.7339 5.35497 10.7386 4.44001 10.7339C3.88224 10.7304 3.54265 10.1761 3.80189 9.70223C3.94559 9.43948 4.17726 9.32922 4.47345 9.3298C5.68869 9.33215 6.90355 9.33215 8.11802 9.3298H9.23884C9.72037 9.3298 10.0424 9.04241 10.0388 8.62012C10.0347 8.20957 9.71567 7.92511 9.24647 7.92511C6.98488 7.92511 4.7233 7.92511 2.46172 7.92511C2.35965 7.92989 2.25737 7.9234 2.15673 7.90575C1.98712 7.86788 1.83765 7.76829 1.73737 7.62634C1.6371 7.4844 1.59319 7.31024 1.61418 7.13772C1.63517 6.9652 1.71956 6.80665 1.85094 6.69289C1.98232 6.57912 2.15131 6.51828 2.32506 6.52218C3.70101 6.51866 5.07696 6.52218 6.45292 6.52218C6.7016 6.52218 6.95028 6.52511 7.19954 6.52218C7.62359 6.51631 7.9362 6.21015 7.93092 5.81074C7.92565 5.42071 7.61597 5.12042 7.20189 5.11924C6.05292 5.11573 4.90394 5.11924 3.75438 5.11924C3.22946 5.11924 2.88459 4.65004 3.05761 4.18083C3.16142 3.89989 3.37198 3.74916 3.66758 3.71748C3.73322 3.71396 3.79901 3.71396 3.86465 3.71748H13.2412C13.8664 3.71748 14.1397 4.01719 14.074 4.63948C14.0083 5.26177 13.935 5.86118 13.8611 6.51455ZM18.4078 11.4307C18.4183 11.1996 18.5004 10.9544 18.4259 10.7744C18.0418 9.85238 17.6183 8.94622 17.2025 8.03772C17.1865 8.00867 17.1641 7.98367 17.1369 7.96465C17.1098 7.94563 17.0786 7.93311 17.0459 7.92804C16.5268 7.92042 16.0078 7.91397 15.4893 7.92804C15.3221 7.92874 15.1612 7.99196 15.0382 8.10526C14.9152 8.21857 14.8391 8.37377 14.8248 8.54036C14.7385 9.25062 14.6582 9.96147 14.5902 10.6735C14.5795 10.7669 14.5885 10.8614 14.6165 10.9511C14.6445 11.0408 14.691 11.1237 14.7529 11.1944C14.8148 11.2652 14.8907 11.3222 14.9759 11.3619C15.0611 11.4015 15.1537 11.423 15.2476 11.4248C16.2828 11.4383 17.3198 11.4307 18.4078 11.4307ZM5.64588 15.8184C5.64588 16.1427 5.85937 16.3755 6.12506 16.3462C6.59427 16.2923 6.96025 15.7474 6.82887 15.2934C6.74676 15.0072 6.51919 14.8899 6.23708 14.9873C6.0633 15.0455 5.91244 15.1573 5.80621 15.3066C5.69998 15.4559 5.64384 15.6351 5.64588 15.8184ZM14.7802 15.8184C14.7802 16.1527 15.0042 16.3885 15.2793 16.3462C15.7327 16.2735 16.0658 15.7902 15.9726 15.3398C15.9057 15.0184 15.66 14.8817 15.352 14.9949C15.1835 15.0561 15.0381 15.1679 14.9357 15.315C14.8333 15.4621 14.779 15.6374 14.7802 15.8166V15.8184Z" fill="#F8F8F8"/>
<path d="M1.25633 10.728C1.13199 10.728 1.00765 10.7339 0.883312 10.728C0.702478 10.721 0.531322 10.6445 0.405392 10.5145C0.279461 10.3845 0.208435 10.2111 0.207066 10.0301C0.205256 9.84851 0.274347 9.67338 0.399647 9.54195C0.524947 9.41051 0.696573 9.33314 0.878034 9.32628C1.13317 9.31572 1.39006 9.31572 1.64578 9.32628C1.82442 9.33569 1.99271 9.41305 2.11616 9.54252C2.23961 9.67199 2.30889 9.84377 2.30979 10.0227C2.31069 10.2016 2.24315 10.374 2.121 10.5047C1.99886 10.6354 1.83136 10.7145 1.65281 10.7257C1.52026 10.7351 1.3883 10.728 1.25633 10.728Z" fill="#F8F8F8"/>
</svg>
