<svg width="30" height="31" viewBox="0 0 30 31" fill="none" xmlns="http://www.w3.org/2000/svg">
<path d="M3.12891 10.6309H10.8022V10.9262C10.8022 12.4796 10.8064 14.0331 10.8022 15.5865C10.8022 16.0078 10.931 16.3415 11.333 16.5116C11.7351 16.6817 12.071 16.5422 12.3627 16.239C12.6829 15.9067 13.0146 15.5865 13.359 15.2428C13.7112 15.5915 14.0499 15.9544 14.4185 16.2789C14.5836 16.4213 14.7802 16.5223 14.9921 16.5735C15.2675 16.6382 15.508 16.5023 15.7073 16.3024C16.0567 15.9515 16.4103 15.6043 16.7925 15.2257C17.0494 15.4918 17.3013 15.7516 17.551 16.0127C17.8862 16.3636 18.2135 16.7478 18.7793 16.5223C19.345 16.2967 19.3365 15.7936 19.3336 15.2905C19.3251 13.8438 19.3336 12.3971 19.3336 10.9497V10.6373H27.0005V10.9141C27.0005 15.5922 27.0005 20.2703 27.0005 24.9484C27.0005 26.5851 25.9188 27.6646 24.28 27.6653H5.84938C4.21268 27.6653 3.13033 26.5822 3.13033 24.9477C3.13033 20.2781 3.13033 15.6088 3.13033 10.9397L3.12891 10.6309ZM20.1804 19.1431C19.3543 19.1431 18.5288 19.1431 17.7033 19.1431C17.1568 19.1431 16.7747 19.4925 16.7711 19.9871C16.7676 20.4816 17.1511 20.846 17.6891 20.8467C19.3495 20.8467 21.0099 20.8467 22.6703 20.8467C23.209 20.8467 23.5954 20.4823 23.589 19.9885C23.5826 19.4946 23.2012 19.1445 22.6568 19.1431C21.8314 19.1417 21.0059 19.1431 20.1804 19.1431ZM20.1804 22.5531C19.355 22.5531 18.5295 22.5531 17.7033 22.5531C17.1575 22.5531 16.7782 22.9032 16.7718 23.3978C16.7654 23.8924 17.1518 24.256 17.6898 24.2567C19.3502 24.2567 21.0106 24.2567 22.6711 24.2567C23.2097 24.2567 23.5961 23.8924 23.5897 23.3985C23.5833 22.9047 23.2019 22.5545 22.6575 22.5531C21.8314 22.5517 21.0059 22.5531 20.1797 22.5531H20.1804Z" fill="#8FA0E6"/>
<path d="M12.0127 3.79996L10.9574 8.90574H3.55664C3.61001 8.81537 3.64915 8.74136 3.69896 8.67233C4.66746 7.21781 5.64165 5.76684 6.60303 4.30734C6.83501 3.95153 7.12891 3.79142 7.55445 3.79498C8.94849 3.80708 10.3425 3.79996 11.7366 3.79996H12.0127Z" fill="#8FA0E6"/>
<path d="M19.1707 8.89433C18.8213 7.20142 18.4733 5.51776 18.1211 3.81275C18.2179 3.80777 18.2947 3.79994 18.3709 3.79994C19.8005 3.79994 21.2301 3.79994 22.6597 3.79994C22.8201 3.792 22.9796 3.82675 23.1221 3.90064C23.2647 3.97452 23.385 4.0849 23.471 4.2205L26.5117 8.78261C26.5309 8.81107 26.5444 8.84309 26.5721 8.89647L19.1707 8.89433Z" fill="#8FA0E6"/>
<path d="M16.3811 3.81836L17.4221 8.89639H12.707C13.0543 7.20276 13.3994 5.51981 13.7474 3.81836H16.3811Z" fill="#8FA0E6"/>
<path d="M12.5273 10.625H17.6039V13.6422L17.3784 13.4287C17.0119 13.0843 16.5244 13.0857 16.1622 13.4358C15.9765 13.6145 15.7965 13.7988 15.6171 13.9831C15.4378 14.1674 15.2734 14.3389 15.0898 14.5339C14.7618 14.2115 14.4494 13.9105 14.147 13.6052C13.5677 13.0267 13.2034 13.0188 12.6092 13.5782C12.5834 13.5981 12.556 13.616 12.5273 13.6315V10.625Z" fill="#8FA0E6"/>
</svg>
