<svg width="30" height="31" viewBox="0 0 30 31" fill="none" xmlns="http://www.w3.org/2000/svg">
<path d="M14.9678 3.71094C21.6134 3.70379 26.9928 9.07051 27 15.7181C27.0071 22.3657 21.6206 27.7038 14.8963 27.7109C8.40805 27.7181 3.00716 22.2941 3.00001 15.7825C2.99285 9.10629 8.33652 3.7181 14.9678 3.71094ZM14.1309 21.7145C13.8662 21.7145 13.6301 21.7145 13.3869 21.7145C12.8146 21.7145 12.4283 22.058 12.4283 22.566C12.4283 23.0741 12.8146 23.4247 13.3797 23.4247C14.4599 23.4247 15.5401 23.4247 16.6203 23.4247C17.1854 23.4247 17.5717 23.0669 17.5717 22.5589C17.5645 22.0651 17.1782 21.7145 16.6346 21.7145C16.377 21.7145 16.1267 21.7145 15.862 21.7145C15.862 21.5642 15.862 21.4641 15.862 21.3567C15.862 18.3871 15.862 15.4104 15.862 12.4408C15.862 11.7539 15.5329 11.4319 14.839 11.4319C14.3383 11.4319 13.8376 11.4319 13.3368 11.4319C12.8146 11.439 12.4283 11.7968 12.4283 12.2834C12.4283 12.77 12.8075 13.1421 13.3297 13.1492C13.5943 13.1564 13.859 13.1492 14.1309 13.1492C14.1309 16.0043 14.1309 18.8379 14.1309 21.7145ZM15.8548 8.85584C15.8548 8.39073 15.4757 8.00432 15.0036 7.99717C14.5386 7.99001 14.1452 8.37642 14.1452 8.84153C14.138 9.32096 14.5314 9.71452 15.0107 9.70736C15.4757 9.70736 15.8548 9.32096 15.8548 8.85584Z" fill="#8FA0E6"/>
</svg>
