<svg width="16" height="17" viewBox="0 0 16 17" fill="none" xmlns="http://www.w3.org/2000/svg">
<g clip-path="url(#clip0_68_2358)">
<path fill-rule="evenodd" clip-rule="evenodd" d="M4.46318 4.82934V4.00868C4.46318 3.20296 4.78619 2.43024 5.36114 1.86051C5.93609 1.29077 6.7159 0.970703 7.529 0.970703C8.34211 0.970703 9.12191 1.29077 9.69686 1.86051C10.2718 2.43024 10.5948 3.20296 10.5948 4.00868V4.82934C11.6552 4.85931 12.3011 4.96706 12.7957 5.36969C13.4742 5.92058 13.6623 6.85546 14.0408 8.72605L14.5313 11.1564C15.0742 13.846 15.3456 15.1909 14.6098 16.0812C13.8732 16.9707 12.4891 16.9707 9.72004 16.9707H5.33796C2.56973 16.9707 1.1848 16.9707 0.449006 16.0812C-0.286791 15.1917 -0.0153633 13.8469 0.527491 11.1564L1.01802 8.72605C1.39573 6.85546 1.58459 5.92058 2.26234 5.36969C2.75777 4.96787 3.40364 4.85931 4.464 4.82934H4.46318ZM5.68951 4.00868C5.68951 3.52525 5.88332 3.06161 6.22829 2.71977C6.57326 2.37794 7.04114 2.18589 7.529 2.18589C8.01687 2.18589 8.48475 2.37794 8.82972 2.71977C9.17469 3.06161 9.36849 3.52525 9.36849 4.00868V4.8188H5.68951V4.00868ZM9.98166 8.05931C10.1985 8.05931 10.4064 7.97396 10.5598 7.82203C10.7131 7.6701 10.7992 7.46404 10.7992 7.24918C10.7992 7.03433 10.7131 6.82827 10.5598 6.67634C10.4064 6.52441 10.1985 6.43906 9.98166 6.43906C9.76483 6.43906 9.55688 6.52441 9.40356 6.67634C9.25024 6.82827 9.16411 7.03433 9.16411 7.24918C9.16411 7.46404 9.25024 7.6701 9.40356 7.82203C9.55688 7.97396 9.76483 8.05931 9.98166 8.05931ZM5.8939 7.24918C5.8939 7.46404 5.80777 7.6701 5.65444 7.82203C5.50112 7.97396 5.29318 8.05931 5.07635 8.05931C4.85952 8.05931 4.65157 7.97396 4.49825 7.82203C4.34493 7.6701 4.2588 7.46404 4.2588 7.24918C4.2588 7.03433 4.34493 6.82827 4.49825 6.67634C4.65157 6.52441 4.85952 6.43906 5.07635 6.43906C5.29318 6.43906 5.50112 6.52441 5.65444 6.67634C5.80777 6.82827 5.8939 7.03433 5.8939 7.24918Z" fill="#F3D869"/>
</g>
<defs>
<clipPath id="clip0_68_2358">
<rect width="16" height="16" fill="white" transform="translate(0 0.970703)"/>
</clipPath>
</defs>
</svg>
