<svg width="30" height="31" viewBox="0 0 30 31" fill="none" xmlns="http://www.w3.org/2000/svg">
<path fill-rule="evenodd" clip-rule="evenodd" d="M24.9964 12.693C24.995 12.2984 24.9936 11.9039 24.9936 11.5093C24.9936 10.1384 24.9936 8.76746 25 7.40992C25 7.06217 24.8651 6.92843 24.5376 6.91505L24.5251 6.91459C24.1631 6.90137 23.795 6.88792 23.4331 6.85486C20.5305 6.57399 17.8591 5.61101 15.4317 3.93247C15.0014 3.63822 14.995 3.63822 14.5776 3.92578C11.8291 5.825 8.79807 6.81474 5.50375 6.91505C5.12487 6.92843 5.00285 7.0488 5.00285 7.44336C5.00285 8.27903 5.00214 9.11546 5.00143 9.95213C5 11.6262 4.99857 13.3013 5.00285 14.9734C5.00928 17.6216 5.79272 20.009 7.34677 22.1022C9.29254 24.7303 11.8548 26.4824 14.7959 27.6795C14.9244 27.733 15.117 27.7129 15.2519 27.6594C17.7884 26.6295 20.036 25.1449 21.8855 23.0518C23.8762 20.7981 24.9615 18.1432 24.9936 15.0603C25.0021 14.2712 24.9993 13.4821 24.9964 12.693ZM6.53621 13.1153C6.53693 12.8069 6.53764 12.4988 6.53764 12.1914C6.53764 11.1147 6.53764 10.0381 6.52479 8.9614C6.52479 8.5869 6.62754 8.45984 6.98074 8.41972C9.74848 8.11878 12.33 7.2093 14.7189 5.718C14.8139 5.66104 14.9024 5.63768 14.9886 5.64009V25.9976C14.8917 25.9974 14.7956 25.974 14.6932 25.9274C12.5483 24.9711 10.6218 23.6804 9.07421 21.8347C7.42383 19.8686 6.55048 17.5882 6.53764 14.9667C6.53335 14.3512 6.53479 13.7327 6.53621 13.1153Z" fill="#F8F8F8"/>
<path fill-rule="evenodd" clip-rule="evenodd" d="M24.9964 12.693C24.995 12.2984 24.9936 11.9039 24.9936 11.5093C24.9936 10.1384 24.9936 8.76746 25 7.40992C25 7.06217 24.8651 6.92843 24.5376 6.91505L24.5251 6.91459C24.1631 6.90137 23.795 6.88792 23.4331 6.85486C20.5305 6.57399 17.8591 5.61101 15.4317 3.93247C15.0014 3.63822 14.995 3.63822 14.5776 3.92578C11.8291 5.825 8.79807 6.81474 5.50375 6.91505C5.12487 6.92843 5.00285 7.0488 5.00285 7.44336C5.00285 8.27903 5.00214 9.11546 5.00143 9.95213C5 11.6262 4.99857 13.3013 5.00285 14.9734C5.00928 17.6216 5.79272 20.009 7.34677 22.1022C9.29254 24.7303 11.8548 26.4824 14.7959 27.6795C14.9244 27.733 15.117 27.7129 15.2519 27.6594C17.7884 26.6295 20.036 25.1449 21.8855 23.0518C23.8762 20.7981 24.9615 18.1432 24.9936 15.0603C25.0021 14.2712 24.9993 13.4821 24.9964 12.693ZM6.53621 13.1153C6.53693 12.8069 6.53764 12.4988 6.53764 12.1914C6.53764 11.1147 6.53764 10.0381 6.52479 8.9614C6.52479 8.5869 6.62754 8.45984 6.98074 8.41972C9.74848 8.11878 12.33 7.2093 14.7189 5.718C14.8139 5.66104 14.9024 5.63768 14.9886 5.64009V25.9976C14.8917 25.9974 14.7956 25.974 14.6932 25.9274C12.5483 24.9711 10.6218 23.6804 9.07421 21.8347C7.42383 19.8686 6.55048 17.5882 6.53764 14.9667C6.53335 14.3512 6.53479 13.7327 6.53621 13.1153Z" fill="#8FA0E6"/>
</svg>
