<svg width="182" height="28" viewBox="0 0 182 28" fill="none" xmlns="http://www.w3.org/2000/svg">
<g id="logo 1" clip-path="url(#clip0_92_2395)">
<g id="Clip path group">
<mask id="mask0_92_2395" style="mask-type:luminance" maskUnits="userSpaceOnUse" x="0" y="0" width="182" height="28">
<g id="clip0_67_1296">
<path id="Vector" d="M182 0H0V28H182V0Z" fill="white"/>
</g>
</mask>
<g mask="url(#mask0_92_2395)">
<g id="Group">
<path id="Vector_2" fill-rule="evenodd" clip-rule="evenodd" d="M25.4427 17.092C25.4398 17.0895 25.4381 17.0859 25.4378 17.0821C25.4104 16.9512 25.3954 16.8151 25.3929 16.6737C25.2971 11.1438 25.1967 5.61677 25.0918 0.0927022C25.0917 0.0846351 25.0884 0.076953 25.0826 0.0713065C25.077 0.0656599 25.0693 0.0624983 25.0612 0.0625H21.5055C21.4785 0.0625 21.4604 0.0752938 21.4512 0.100882L17.4253 11.0871L12.8011 11.2889C12.1981 11.3152 11.7303 11.8291 11.7564 12.4367C11.7826 13.0442 12.2926 13.5154 12.8957 13.4891L16.6043 13.3273L15.4462 16.4877C15.2601 16.3532 15.027 16.2753 14.7645 16.2867L1.06721 16.8844C0.464126 16.9107 -0.00359294 17.4246 0.0225273 18.0321C0.0486475 18.6397 0.558715 19.1109 1.1618 19.0846L14.7112 18.4934L13.6223 21.465L10.5497 21.5991C9.94666 21.6254 9.47898 22.1393 9.50509 22.7468C9.53119 23.3544 10.0413 23.8256 10.6444 23.7993L12.8013 23.7051L11.2726 27.8769C11.2714 27.88 11.2709 27.8834 11.2714 27.8868C11.2716 27.8888 11.2722 27.8907 11.273 27.8925L11.2733 27.8932C11.2738 27.8942 11.2744 27.8952 11.275 27.8961C11.277 27.8989 11.2796 27.9012 11.2827 27.9027C11.2841 27.9035 11.2856 27.9041 11.2872 27.9045C11.2882 27.9048 11.2893 27.9049 11.2904 27.9051C11.2911 27.9051 11.2919 27.9052 11.2925 27.9052H15.238C15.2671 27.9052 15.2867 27.8914 15.2967 27.8637C17.2553 22.5246 19.1844 17.2589 21.0839 12.0666C21.1801 11.8041 21.283 11.3009 21.3925 10.5572C21.395 10.54 21.4009 10.5257 21.41 10.5144C21.4192 10.5026 21.4287 10.4909 21.4387 10.4791C21.4621 10.4502 21.4724 10.4544 21.4699 10.4917C21.4574 10.6595 21.4516 10.7696 21.4524 10.8221C21.5187 16.511 21.5828 22.1959 21.6448 27.8769C21.645 27.8844 21.648 27.8917 21.6533 27.897C21.6586 27.9022 21.6656 27.9052 21.6729 27.9052H25.2342C25.2571 27.9052 25.2726 27.8943 25.2804 27.8725L35.4609 0.0914438C35.4681 0.0721477 35.4614 0.0625 35.441 0.0625H31.493C31.4815 0.0625239 31.4703 0.066089 31.4608 0.0727209C31.4513 0.0793522 31.444 0.0887363 31.44 0.0996236C29.5792 5.17947 27.7171 10.2604 25.8538 15.3423C25.624 15.9703 25.5078 16.4617 25.4666 17.0802C25.4668 17.084 25.4656 17.0878 25.4631 17.0907C25.4605 17.0936 25.4569 17.0954 25.4531 17.0956C25.4493 17.0959 25.4456 17.0946 25.4427 17.092Z" fill="#F8F8F8"/>
<path id="Vector_3" d="M40.6645 24.2602L39.3347 27.8882C39.3329 27.8932 39.3296 27.8975 39.3252 27.9005C39.3209 27.9036 39.3157 27.9052 39.3104 27.9052L27.8932 27.9058C27.889 27.9058 27.8849 27.9048 27.8811 27.9027C27.8774 27.9007 27.8741 27.8978 27.8717 27.8943C27.8694 27.8908 27.8678 27.8868 27.8674 27.8825C27.8669 27.8783 27.8674 27.8739 27.8689 27.87L38.0519 0.0794888C38.0538 0.0745136 38.0571 0.0702305 38.0615 0.067199C38.0658 0.0641674 38.071 0.0625289 38.0762 0.0625H49.386C49.3902 0.0625233 49.3944 0.0635822 49.3981 0.0655857C49.4019 0.0675891 49.4051 0.0704778 49.4075 0.0740033C49.4099 0.0775294 49.4114 0.0815878 49.4119 0.0858312C49.4124 0.090074 49.4119 0.0943747 49.4103 0.0983652L48.0806 3.72641C48.0787 3.73139 48.0754 3.73567 48.0711 3.7387C48.0667 3.74173 48.0616 3.74337 48.0563 3.7434H40.8556C40.8503 3.74343 40.8451 3.74507 40.8408 3.7481C40.8365 3.75113 40.8332 3.75541 40.8312 3.76039L37.8708 11.8401C37.8693 11.8441 37.8688 11.8484 37.8693 11.8526C37.8697 11.8569 37.8713 11.8609 37.8736 11.8645C37.876 11.868 37.8792 11.8709 37.883 11.8729C37.8867 11.8749 37.8909 11.876 37.8951 11.876H44.0421C44.0464 11.876 44.0506 11.8771 44.0543 11.8791C44.0581 11.8811 44.0613 11.884 44.0637 11.8875C44.0661 11.891 44.0676 11.895 44.0681 11.8993C44.0686 11.9035 44.0681 11.9079 44.0665 11.9118L42.7655 15.4612C42.7636 15.4662 42.7603 15.4705 42.756 15.4735C42.7516 15.4766 42.7465 15.4782 42.7412 15.4782H36.5554C36.5502 15.4782 36.545 15.4799 36.5407 15.4829C36.5363 15.486 36.533 15.4902 36.5311 15.4952L33.3464 24.1884C33.3449 24.1924 33.3444 24.1967 33.3449 24.201C33.3453 24.2052 33.3469 24.2093 33.3492 24.2128C33.3516 24.2163 33.3549 24.2192 33.3586 24.2212C33.3624 24.2232 33.3665 24.2243 33.3707 24.2243H40.6401C40.6444 24.2243 40.6485 24.2254 40.6523 24.2274C40.656 24.2294 40.6592 24.2323 40.6616 24.2358C40.664 24.2393 40.6655 24.2434 40.666 24.2476C40.6665 24.2519 40.666 24.2562 40.6645 24.2602Z" fill="#F8F8F8"/>
<path id="Vector_4" d="M54.5857 9.07409C54.5854 9.0785 54.5863 9.08284 54.5884 9.08674C54.5904 9.09058 54.5936 9.09379 54.5973 9.09599C54.6011 9.09813 54.6054 9.0992 54.6098 9.09901C54.6142 9.09882 54.6183 9.09738 54.6219 9.09486C54.644 9.07932 54.6538 9.05818 54.6513 9.03131C56.6561 6.04926 58.6631 3.06867 60.6721 0.0895569C60.6779 0.0812198 60.6856 0.0744092 60.6945 0.0697008C60.7035 0.0649917 60.7133 0.0625227 60.7233 0.0625007H64.9842C64.9973 0.0624421 65.0104 0.0660941 65.0216 0.0730482C65.0329 0.0800016 65.0422 0.0899822 65.0479 0.101871C65.0541 0.11376 65.0566 0.127087 65.0554 0.14036C65.0541 0.153632 65.0497 0.166326 65.0416 0.177018L55.3033 13.5201C55.2888 13.5398 55.2815 13.5621 55.2815 13.5868L55.2452 27.7919C55.2451 27.822 55.2331 27.8508 55.2119 27.872C55.1907 27.8933 55.1621 27.9052 55.1322 27.9052H50.7321C50.7283 27.9052 50.7245 27.9044 50.7209 27.9029C50.7173 27.9014 50.7142 27.8992 50.7115 27.8964C50.7089 27.8936 50.7068 27.8903 50.7055 27.8868C50.7043 27.8832 50.7037 27.8794 50.704 27.8756L51.2486 18.2354C51.249 18.2297 51.2505 18.224 51.2531 18.2188C51.2557 18.2137 51.2593 18.209 51.2636 18.2052C51.2786 18.1922 51.2817 18.1759 51.273 18.1562C51.2711 18.1519 51.2681 18.1481 51.2643 18.1454C51.2605 18.1426 51.2561 18.1409 51.2515 18.1405C51.2468 18.1401 51.2421 18.1409 51.2379 18.1428C51.2337 18.1448 51.23 18.1479 51.2274 18.1518L44.6494 27.8775C44.6436 27.8861 44.636 27.8931 44.627 27.8978C44.6181 27.9027 44.6082 27.9052 44.5982 27.9052H40.3305C40.216 27.9052 40.1927 27.8588 40.2605 27.7661C43.6844 23.0961 47.0736 18.4741 50.4279 13.9002C50.526 13.7661 50.6034 13.7076 50.6047 13.5327C50.6326 9.08964 50.6599 4.64548 50.6865 0.200298C50.6867 0.163695 50.7013 0.128646 50.7271 0.102822C50.753 0.0769978 50.788 0.0624998 50.8245 0.0625007H55.1141C55.1432 0.0625007 55.157 0.0771821 55.1553 0.106546L54.5857 9.07409Z" fill="#F8F8F8"/>
<path id="Vector_5" d="M68.7691 3.7434H64.3103C64.3066 3.74341 64.3035 3.74254 64.2997 3.74088C64.2966 3.73921 64.2941 3.7368 64.2922 3.73384C64.2897 3.73088 64.2885 3.72746 64.2878 3.72387C64.2878 3.72028 64.2878 3.71662 64.2891 3.7132L65.6207 0.0776012C65.6225 0.073179 65.625 0.0693509 65.6288 0.0666459C65.6325 0.0639409 65.6375 0.0624924 65.6419 0.0625H78.806C78.8097 0.0624941 78.8129 0.0633595 78.8166 0.0650225C78.8197 0.0666862 78.8222 0.0690992 78.8241 0.072059C78.8266 0.0750182 78.8279 0.078438 78.8285 0.0820302C78.8291 0.085623 78.8285 0.0892831 78.8272 0.0927023L77.495 3.7283C77.4938 3.73272 77.4906 3.73655 77.4869 3.73925C77.4831 3.74196 77.4781 3.74341 77.4738 3.7434H72.9431C72.9388 3.74339 72.9338 3.74484 72.93 3.74755C72.9263 3.75025 72.9238 3.75408 72.9219 3.7585L64.0792 27.8895C64.078 27.8939 64.0749 27.8977 64.0711 27.9004C64.0674 27.9031 64.0624 27.9046 64.058 27.9046L59.9795 27.9065C59.9759 27.9065 59.9724 27.9056 59.9692 27.9039C59.966 27.9022 59.9632 27.8998 59.9612 27.8969C59.9591 27.8939 59.9577 27.8905 59.9572 27.8869C59.9567 27.8834 59.9571 27.8797 59.9583 27.8763L68.7904 3.7736C68.7916 3.77018 68.7922 3.76652 68.7916 3.76293C68.791 3.75934 68.7897 3.75592 68.7872 3.75296C68.7854 3.75 68.7829 3.74758 68.7797 3.74592C68.776 3.74425 68.7729 3.74339 68.7691 3.7434Z" fill="#F8F8F8"/>
<path id="Vector_6" d="M87.1934 14.5771C87.9628 15.2221 87.8947 16.0721 87.575 16.948C86.5525 19.7539 85.5251 22.5583 84.4939 25.3612C84.0449 26.5832 83.2442 27.5232 81.9476 27.8164C81.6959 27.873 81.2818 27.9015 80.7053 27.902C77.1715 27.9053 73.6227 27.9059 70.0582 27.9039C70.0507 27.9038 70.0439 27.902 70.0376 27.8986C70.0314 27.8952 70.0258 27.8903 70.0214 27.8843C70.0176 27.8783 70.0151 27.8714 70.0139 27.8642C70.0133 27.857 70.0139 27.8496 70.0164 27.8428L80.1832 0.0983016C80.1919 0.0743914 80.2088 0.0624364 80.2338 0.0624364C83.8931 0.0615973 87.56 0.0609682 91.2337 0.0605487C91.8096 0.0599195 92.5928 0.223515 92.8407 0.821267C93.1049 1.45992 92.8182 2.24014 92.5928 2.86118C91.7814 5.09363 90.9639 7.32419 90.1401 9.55286C89.6885 10.7742 89.1632 11.6104 87.9878 12.2094C87.2477 12.5865 86.5032 12.9649 85.7543 13.3445C85.7493 13.347 85.745 13.3508 85.7418 13.3554C85.7387 13.36 85.7368 13.3654 85.7362 13.3709C85.7356 13.3765 85.7368 13.3822 85.7387 13.3874C85.7406 13.3925 85.7443 13.397 85.7487 13.4005C86.234 13.7839 86.7156 14.1761 87.1934 14.5771ZM83.0162 3.62567L80.0726 11.6576C80.0701 11.6644 80.0695 11.6719 80.0701 11.6791C80.0714 11.6864 80.0739 11.6933 80.0782 11.6993C80.082 11.7053 80.0876 11.7102 80.0938 11.7136C80.1007 11.7169 80.1076 11.7187 80.1151 11.7186C81.1294 11.7191 82.1281 11.7186 83.1118 11.7174C83.1967 11.7169 83.2767 11.696 83.351 11.6544C84.1386 11.2127 84.9255 10.7666 85.7131 10.3161C85.7343 10.304 85.7493 10.2863 85.7575 10.2632L88.2014 3.59673C88.2033 3.59168 88.2039 3.58628 88.2033 3.58097C88.2027 3.57565 88.2002 3.57058 88.197 3.5662C88.1945 3.56182 88.1902 3.55825 88.1852 3.55578C88.1808 3.55332 88.1758 3.55204 88.1702 3.55205L83.1124 3.55772C83.0649 3.55772 83.0331 3.58037 83.0162 3.62567ZM83.5871 16.4824C83.5889 16.4774 83.5889 16.4719 83.5877 16.4667C83.5864 16.4616 83.5833 16.457 83.5796 16.4534L82.065 15.122C82.06 15.1179 82.0538 15.1156 82.0475 15.1157H78.8235C78.8185 15.1157 78.8129 15.1174 78.8085 15.1205C78.8041 15.1235 78.801 15.1278 78.7991 15.1327L75.4114 24.3765C75.4102 24.3805 75.4096 24.3848 75.4102 24.389C75.4102 24.3933 75.4121 24.3973 75.4146 24.4009C75.4164 24.4044 75.4202 24.4073 75.4239 24.4093C75.4277 24.4113 75.4314 24.4124 75.4358 24.4124H80.6628C80.6678 24.4124 80.6735 24.4107 80.6778 24.4076C80.6822 24.4046 80.6853 24.4004 80.6872 24.3954L83.5871 16.4824Z" fill="#F8F8F8"/>
<path id="Vector_7" d="M98.2964 24.2224L96.9517 27.8907C96.9504 27.8949 96.9473 27.8985 96.9442 27.901C96.9404 27.9036 96.9361 27.9051 96.9317 27.9052H86.1198C86.116 27.9052 86.1129 27.9044 86.1098 27.9027C86.1066 27.9011 86.1041 27.8987 86.1016 27.8958C86.0998 27.8929 86.0985 27.8896 86.0979 27.8861C86.0973 27.8825 86.0979 27.879 86.0992 27.8756L96.2865 0.0769727C96.2878 0.0728173 96.2909 0.0692145 96.2946 0.0666328C96.2978 0.0640518 96.3021 0.0626115 96.3065 0.0625001H100.39C100.394 0.0624879 100.397 0.0633332 100.4 0.0649641C100.403 0.0665957 100.406 0.068964 100.408 0.0718679C100.41 0.0747723 100.411 0.078126 100.412 0.081644C100.412 0.0851619 100.412 0.0887402 100.411 0.0920732L91.5891 24.1633C91.5879 24.1666 91.5873 24.1702 91.5879 24.1737C91.5885 24.1772 91.5898 24.1806 91.5916 24.1835C91.5941 24.1864 91.5966 24.1887 91.5997 24.1904C91.6029 24.192 91.606 24.1928 91.6097 24.1928H98.2758C98.2795 24.1928 98.2827 24.1937 98.2858 24.1953C98.2889 24.1969 98.292 24.1993 98.2939 24.2022C98.2958 24.2051 98.297 24.2084 98.2976 24.212C98.2983 24.2155 98.2976 24.2191 98.2964 24.2224Z" fill="#F8F8F8"/>
<path id="Vector_8" d="M99.5722 27.3238C99.2137 26.8217 99.386 26.0421 99.5753 25.506C99.7533 25.0035 100.026 24.2497 100.394 23.2446C102.93 16.3203 105.467 9.39647 108.006 2.47304C108.425 1.33039 109.277 0.423063 110.482 0.149985C110.727 0.0941949 111.141 0.0658803 111.724 0.0650409C114.632 0.0608464 117.54 0.0595881 120.448 0.061266C122.115 0.0625244 122.38 1.26873 121.892 2.60266C119.092 10.2501 116.289 17.897 113.485 25.5432C113.069 26.6795 112.112 27.5491 110.971 27.8152C110.716 27.8744 110.337 27.9042 109.831 27.9046C106.87 27.9067 103.908 27.9076 100.946 27.9071C100.45 27.9071 99.8657 27.7347 99.5722 27.3238ZM111.732 3.63331C111.725 3.63329 111.719 3.63532 111.713 3.63915C111.708 3.64298 111.704 3.64841 111.701 3.6547L104.14 24.2904C104.138 24.2954 104.137 24.3006 104.138 24.3059C104.138 24.3112 104.14 24.3161 104.143 24.3205C104.147 24.3248 104.15 24.3283 104.155 24.3308C104.16 24.3332 104.165 24.3344 104.17 24.3344H109.778C109.785 24.3344 109.791 24.3324 109.796 24.3286C109.802 24.3247 109.806 24.3193 109.808 24.313L117.37 3.67736C117.372 3.6724 117.372 3.66708 117.372 3.66183C117.371 3.65659 117.369 3.6516 117.366 3.64727C117.363 3.64294 117.359 3.63941 117.354 3.63698C117.35 3.63454 117.344 3.63329 117.339 3.63331H111.732Z" fill="#F8F8F8"/>
<path id="Vector_9" d="M132.449 18.9376C132.795 18.0895 133.113 17.2287 133.517 16.4126C136.209 10.9695 138.906 5.52869 141.609 0.0901892C141.619 0.0717325 141.633 0.0625038 141.654 0.0625038H145.788C145.792 0.062585 145.795 0.0635118 145.798 0.0652C145.801 0.0668876 145.803 0.0692823 145.805 0.0721641C145.807 0.0750453 145.808 0.078321 145.808 0.0816904C145.808 0.0850599 145.807 0.0884148 145.806 0.0914476L131.566 27.9159C131.56 27.9269 131.551 27.9361 131.541 27.9425C131.531 27.949 131.519 27.9524 131.506 27.9524H127.536C127.531 27.9525 127.525 27.9513 127.52 27.9489C127.516 27.9466 127.512 27.9432 127.508 27.939C127.505 27.9348 127.502 27.9298 127.501 27.9245C127.5 27.9192 127.5 27.9137 127.501 27.9083C128.604 22.6716 129.706 17.4391 130.807 12.2107C130.967 11.4475 131.298 10.6075 131.538 9.88138C131.54 9.87452 131.539 9.8671 131.536 9.86055C131.533 9.85401 131.528 9.84885 131.521 9.84614C131.515 9.84363 131.509 9.84363 131.503 9.84614C131.499 9.84866 131.494 9.85369 131.491 9.86124C131.138 10.7107 130.831 11.5796 130.412 12.3819C127.745 17.4957 125.041 22.6744 122.302 27.9178C122.296 27.9282 122.288 27.9369 122.278 27.943C122.268 27.9491 122.256 27.9524 122.245 27.9524H118.277C118.271 27.9523 118.265 27.951 118.26 27.9484C118.255 27.9459 118.25 27.9422 118.247 27.9377C118.243 27.9331 118.24 27.9279 118.239 27.9223C118.238 27.9167 118.238 27.9108 118.239 27.9052L124.387 0.103403C124.393 0.076137 124.41 0.0625038 124.437 0.0625038H128.578C128.58 0.062452 128.582 0.062926 128.585 0.0638875C128.586 0.0648489 128.588 0.0662716 128.59 0.0680434C128.591 0.0698147 128.593 0.0718854 128.593 0.0740914C128.593 0.0762974 128.593 0.0785777 128.593 0.080751C127.301 5.53268 126.008 10.9856 124.712 16.4397C124.511 17.2879 124.18 18.1448 123.931 18.9546C123.927 18.9664 123.928 18.976 123.934 18.9836C123.947 18.9999 123.957 18.9987 123.965 18.9798C124.304 18.1587 124.597 17.3143 125.001 16.5227C127.794 11.0456 130.589 5.5698 133.388 0.0952229C133.399 0.07341 133.417 0.0625038 133.441 0.0625038H136.791C136.793 0.0625479 136.796 0.0631072 136.798 0.064141C136.8 0.0651742 136.801 0.0666541 136.803 0.0684707C136.805 0.0702866 136.805 0.0723913 136.806 0.0746269C136.806 0.0768631 136.806 0.0791717 136.806 0.0813802C135.577 5.62685 134.346 11.1736 133.114 16.7216C132.97 17.3715 132.644 18.1669 132.421 18.8747C132.415 18.8949 132.411 18.9123 132.409 18.927C132.408 18.9323 132.409 18.938 132.411 18.9427C132.414 18.9475 132.419 18.951 132.424 18.9524C132.429 18.9539 132.435 18.9531 132.44 18.9503C132.444 18.9475 132.448 18.943 132.449 18.9376Z" fill="#F8F8F8"/>
<path id="Vector_10" d="M150.016 24.2539L148.683 27.8907C148.682 27.8949 148.678 27.8985 148.675 27.901C148.672 27.9036 148.667 27.9051 148.663 27.9052L137.235 27.9058C137.231 27.9058 137.228 27.905 137.225 27.9034C137.222 27.9017 137.219 27.8993 137.217 27.8964C137.215 27.8936 137.214 27.8902 137.213 27.8867C137.213 27.8832 137.213 27.8796 137.214 27.8763L147.402 0.0769727C147.403 0.0728173 147.406 0.0692145 147.409 0.0666328C147.413 0.0640518 147.417 0.0626115 147.422 0.0625001H158.741C158.745 0.0624879 158.748 0.0633332 158.751 0.0649641C158.755 0.0665957 158.758 0.068964 158.76 0.0718679C158.761 0.0747723 158.763 0.078126 158.763 0.081644C158.764 0.0851619 158.763 0.0887402 158.762 0.0920732L157.429 3.72893C157.427 3.73308 157.424 3.73669 157.421 3.73926C157.417 3.74184 157.413 3.74329 157.409 3.7434H150.202C150.198 3.74351 150.194 3.74495 150.19 3.74753C150.187 3.75011 150.184 3.75372 150.182 3.75787L147.218 11.8464C147.216 11.8497 147.216 11.8533 147.216 11.8569C147.217 11.8604 147.218 11.8637 147.22 11.8666C147.223 11.8695 147.225 11.8719 147.228 11.8735C147.231 11.8752 147.234 11.876 147.238 11.876H153.398C153.402 11.876 153.405 11.8768 153.408 11.8784C153.411 11.8801 153.415 11.8825 153.416 11.8854C153.418 11.8883 153.42 11.8916 153.42 11.8951C153.421 11.8986 153.42 11.9022 153.419 11.9056L152.114 15.4638C152.112 15.4679 152.109 15.4715 152.106 15.4741C152.102 15.4767 152.098 15.4781 152.094 15.4782H145.902C145.898 15.4784 145.893 15.4798 145.89 15.4824C145.887 15.485 145.883 15.4885 145.882 15.4927L142.692 24.1947C142.691 24.1981 142.691 24.2016 142.691 24.2052C142.692 24.2087 142.693 24.212 142.695 24.2149C142.697 24.2178 142.7 24.2202 142.703 24.2218C142.706 24.2235 142.709 24.2243 142.713 24.2243H149.995C149.999 24.2243 150.002 24.2251 150.005 24.2268C150.008 24.2284 150.011 24.2308 150.013 24.2337C150.015 24.2366 150.016 24.2399 150.017 24.2434C150.017 24.2469 150.017 24.2505 150.016 24.2539Z" fill="#F8F8F8"/>
<path id="Vector_11" fill-rule="evenodd" clip-rule="evenodd" d="M165.763 12.4209L168.971 3.66664C168.973 3.6629 168.973 3.65891 168.973 3.65499C168.973 3.6535 168.972 3.65205 168.971 3.65063C168.971 3.64832 168.97 3.64612 168.968 3.64413C168.966 3.64091 168.963 3.6383 168.96 3.63653C168.956 3.63475 168.953 3.63385 168.949 3.63392H163.809C163.787 3.63392 163.772 3.64461 163.764 3.66601L154.895 27.8674C154.886 27.8926 154.868 27.9052 154.842 27.9052L150.818 27.9065C150.774 27.9065 150.76 27.8859 150.776 27.8448L160.939 0.11032C160.944 0.0963171 160.953 0.0842261 160.965 0.0756757C160.977 0.067126 160.991 0.0625273 161.006 0.0625C164.673 0.0629195 168.35 0.0641781 172.038 0.0662759C173.052 0.0669051 173.825 0.479669 173.728 1.63239C173.705 1.90211 173.657 2.13828 173.582 2.34088C173.343 2.99579 173.104 3.65065 172.865 4.30545L175.474 4.19159C176.078 4.16528 176.587 4.63647 176.614 5.24404C176.64 5.8516 176.172 6.36546 175.569 6.39176L172.045 6.54554C171.689 7.52095 171.332 8.49623 170.974 9.47144L180.837 9.04106C181.441 9.01476 181.951 9.48592 181.977 10.0935C182.003 10.7011 181.535 11.2149 180.932 11.2412L170.18 11.7104C170.17 11.7108 170.161 11.7111 170.152 11.7113C170.085 11.8937 170.017 12.0761 169.951 12.2585L169.946 12.2723C169.733 12.8496 169.537 13.3835 169.206 13.8498C168.158 15.3267 166.773 15.3175 165.133 15.3067C165.087 15.3064 165.041 15.3061 164.996 15.3058C164.975 15.3058 164.965 15.3163 164.965 15.3373V27.7485C164.965 27.7902 164.948 27.8303 164.919 27.8598C164.89 27.8893 164.85 27.9058 164.809 27.9058L160.624 27.9065C160.62 27.9065 160.616 27.9056 160.612 27.904C160.608 27.9024 160.605 27.9 160.602 27.897C160.599 27.8941 160.597 27.8905 160.595 27.8866C160.594 27.8827 160.593 27.8786 160.593 27.8744C160.653 23.7333 160.711 19.6067 160.768 15.4946C160.768 15.4576 160.768 15.4222 160.769 15.3881C160.771 15.1634 160.772 14.9927 160.854 14.7666C161.13 14.0057 161.409 13.2462 161.691 12.4882C161.698 12.4685 161.712 12.4586 161.732 12.4586H165.709C165.721 12.4586 165.732 12.455 165.742 12.4482C165.752 12.4415 165.759 12.4319 165.763 12.4209Z" fill="#F8F8F8"/>
</g>
</g>
</g>
</g>
<defs>
<clipPath id="clip0_92_2395">
<rect width="182" height="28" fill="white"/>
</clipPath>
</defs>
</svg>
