<svg width="42" height="43" viewBox="0 0 42 43" fill="none" xmlns="http://www.w3.org/2000/svg">
<circle cx="21" cy="21.7109" r="21" fill="#8FA0E6" fill-opacity="0.14"/>
<g clip-path="url(#clip0_102_2440)">
<path d="M9.75234 19.4659C11.1666 16.2304 12.5793 12.998 13.9904 9.76874C13.9919 9.76494 13.9945 9.76168 13.9979 9.75938C14.0013 9.75709 14.0053 9.75586 14.0094 9.75586C14.0135 9.75586 14.0175 9.75709 14.0209 9.75938C14.0243 9.76168 14.0269 9.76494 14.0284 9.76874C15.5383 13.2294 17.0476 16.6884 18.5562 20.1455C19.9354 23.3053 17.8649 26.9639 14.3574 27.1922C10.7047 27.4292 8.00912 23.8058 9.37068 20.3685C9.45264 20.1609 9.57986 19.8601 9.75234 19.4659Z" fill="white"/>
<path d="M28.9333 26.7024C26.1001 26.6667 24.1948 23.7358 25.3362 21.1122C26.5464 18.3294 27.7585 15.5469 28.9725 12.7649C28.9743 12.761 28.9771 12.7577 28.9807 12.7555C28.9843 12.7532 28.9885 12.752 28.9927 12.752C28.997 12.752 29.0011 12.7532 29.0047 12.7555C29.0083 12.7577 29.0111 12.761 29.0129 12.7649C30.1544 15.3799 31.2964 17.9988 32.4391 20.6217C32.6595 21.1274 32.7985 21.4913 32.8558 21.7134C33.515 24.2585 31.5663 26.7352 28.9333 26.7024Z" fill="white"/>
<path d="M23.9894 32.9413C21.5578 35.0474 17.9771 32.4355 19.2754 29.4566C20.1773 27.3875 21.0786 25.322 21.9792 23.2599C21.9811 23.2558 21.9841 23.2523 21.9879 23.2499C21.9917 23.2474 21.9961 23.2461 22.0006 23.2461C22.0051 23.2461 22.0095 23.2474 22.0133 23.2499C22.0171 23.2523 22.0201 23.2558 22.022 23.2599C22.9289 25.3372 23.8356 27.4174 24.7422 29.5005C25.2479 30.6619 24.9634 32.0978 23.9894 32.9413Z" fill="white"/>
</g>
<defs>
<clipPath id="clip0_102_2440">
<rect width="24" height="24" fill="white" transform="translate(9 9.71094)"/>
</clipPath>
</defs>
</svg>
