<svg width="42" height="43" viewBox="0 0 42 43" fill="none" xmlns="http://www.w3.org/2000/svg">
<circle cx="21" cy="21.7109" r="21" fill="#8FA0E6" fill-opacity="0.14"/>
<path fill-rule="evenodd" clip-rule="evenodd" d="M11.4485 28.7035C16.0284 28.707 20.6097 28.707 25.1923 28.7035L27.3804 28.7047L27.4203 28.7046C28.1514 28.7035 29.2303 28.7018 29.5913 28.6087C30.46 28.3476 30.981 27.5287 30.9903 26.6272C30.997 25.9962 30.9972 25.3687 30.9909 24.7447C30.9907 24.7321 30.9942 24.7197 31.0008 24.709C31.0074 24.6983 31.017 24.6898 31.0284 24.6844L32.9326 23.7414C32.9482 23.7336 32.9614 23.7217 32.9706 23.7069C32.9798 23.6921 32.9847 23.675 32.9847 23.6577V19.7667C32.9847 19.7246 32.9658 19.6942 32.9279 19.6754L31.0255 18.733C31.0048 18.7228 30.9944 18.7063 30.9944 18.6832C30.9952 18.2138 30.9946 17.7449 30.9927 17.2766C30.9907 16.7213 30.9622 16.3457 30.9072 16.1498C30.6508 15.2348 29.7505 14.7238 28.7987 14.7238L26.63 14.715C21.5771 14.7146 16.5211 14.7148 11.462 14.7156C10.9847 14.7156 10.6458 14.7453 10.4452 14.8046C9.71289 15.0212 9.01514 15.7781 9.01514 16.5771C9.01318 19.8606 9.01318 23.1441 9.01514 26.4276C9.01514 26.8116 9.04284 27.0957 9.09826 27.2799C9.28792 27.9092 9.80479 28.4249 10.4305 28.6134C10.6296 28.6731 10.9689 28.7031 11.4485 28.7035ZM15.0042 17.7308C15.0042 17.7267 15.0025 17.7226 14.9996 17.7197C14.9966 17.7167 14.9926 17.715 14.9884 17.715H13.0298C13.0256 17.715 13.0216 17.7167 13.0186 17.7197C13.0156 17.7226 13.014 17.7267 13.014 17.7308V25.6895C13.014 25.6937 13.0156 25.6977 13.0186 25.7007C13.0216 25.7036 13.0256 25.7053 13.0298 25.7053H14.9884C14.9926 25.7053 14.9966 25.7036 14.9996 25.7007C15.0025 25.6977 15.0042 25.6937 15.0042 25.6895V17.7308ZM18.9993 17.7443C18.9993 17.7365 18.9962 17.7291 18.9908 17.7236C18.9853 17.7181 18.9778 17.715 18.9701 17.715H17.0384C17.0306 17.715 17.0231 17.7181 17.0177 17.7236C17.0122 17.7291 17.0091 17.7365 17.0091 17.7443V25.676C17.0091 25.6838 17.0122 25.6912 17.0177 25.6967C17.0231 25.7022 17.0306 25.7053 17.0384 25.7053H18.9701C18.9778 25.7053 18.9853 25.7022 18.9908 25.6967C18.9962 25.6912 18.9993 25.6838 18.9993 25.676V17.7443ZM22.9945 17.7443C22.9945 17.7365 22.9914 17.7291 22.9859 17.7236C22.9804 17.7181 22.9729 17.715 22.9652 17.715H21.0335C21.0257 17.715 21.0183 17.7181 21.0128 17.7236C21.0073 17.7291 21.0042 17.7365 21.0042 17.7443V25.676C21.0042 25.6838 21.0073 25.6912 21.0128 25.6967C21.0183 25.7022 21.0257 25.7053 21.0335 25.7053H22.9652C22.9729 25.7053 22.9804 25.7022 22.9859 25.6967C22.9914 25.6912 22.9945 25.6838 22.9945 25.676V17.7443ZM27.0288 17.7197C27.0318 17.7226 27.0335 17.7267 27.0335 17.7308V25.6895C27.0335 25.6937 27.0318 25.6977 27.0288 25.7007C27.0259 25.7036 27.0219 25.7053 27.0177 25.7053H25.059C25.0548 25.7053 25.0508 25.7036 25.0479 25.7007C25.0449 25.6977 25.0432 25.6937 25.0432 25.6895V17.7308C25.0432 17.7267 25.0449 17.7226 25.0479 17.7197C25.0508 17.7167 25.0548 17.715 25.059 17.715H27.0177C27.0219 17.715 27.0259 17.7167 27.0288 17.7197Z" fill="white"/>
</svg>
