<svg width="72" height="13" viewBox="0 0 72 13" fill="none" xmlns="http://www.w3.org/2000/svg">
<path d="M8.62549 1.86179C8.13385 1.35073 7.59866 0.965111 7.01994 0.710509C6.4331 0.451495 5.80031 0.319574 5.16132 0.323031C3.72722 0.323031 2.50991 0.8852 1.50576 2.00489C0.502526 3.12458 0.00181417 4.56206 0 6.31547C0 8.00662 0.517039 9.42365 1.55293 10.5601C2.58883 11.7002 3.81702 12.2698 5.2357 12.2698C5.84031 12.2764 6.44003 12.1583 6.99908 11.9223C7.54243 11.689 8.08305 11.309 8.62186 10.7775V11.9808H11.3948V0.621306H8.62639L8.62549 1.86179ZM7.89075 8.72303C7.3211 9.34839 6.60268 9.65688 5.73732 9.65874C4.89827 9.65874 4.19165 9.34095 3.61928 8.70445C3.046 8.0698 2.75845 7.25954 2.75845 6.27737C2.75845 5.29799 3.04237 4.49887 3.60476 3.87352C4.16897 3.24909 4.8765 2.93967 5.72916 2.93967C6.60268 2.93967 7.32472 3.24631 7.89437 3.85958C8.46493 4.47471 8.64907 5.1744 8.64726 6.16401C8.64726 7.17684 8.46312 8.09954 7.89075 8.72303ZM27.2997 1.86179C26.8426 1.37526 26.2976 0.984266 25.695 0.710509C25.1072 0.451631 24.4736 0.319724 23.8337 0.323031C22.4032 0.323031 21.1823 0.8852 20.18 2.00489C19.1767 3.12551 18.676 4.56299 18.6742 6.31639C18.6724 8.00754 19.1894 9.42458 20.2271 10.561C21.263 11.7011 22.4912 12.2707 23.9126 12.2707C24.5161 12.2774 25.1146 12.1592 25.6724 11.9232C26.2148 11.69 26.7554 11.3099 27.2942 10.7784V11.9817H30.0672V0.621306H27.2997V1.86179ZM26.5649 8.72303C25.9953 9.34839 25.2751 9.65688 24.4133 9.65874C23.5725 9.65874 22.8658 9.34095 22.2917 8.70445C21.7184 8.0698 21.4308 7.25954 21.4326 6.27737C21.4345 5.29799 21.7138 4.49887 22.279 3.87352C22.8432 3.24909 23.5507 2.93967 24.4034 2.93967C25.2751 2.93967 25.9971 3.24631 26.5686 3.85958C27.1391 4.47471 27.3214 5.1744 27.3196 6.16401C27.3196 7.17684 27.1373 8.09954 26.5649 8.72303ZM46.7558 0.898208C46.1598 0.521881 45.4713 0.334182 44.6858 0.334182C43.9547 0.32626 43.2335 0.507136 42.5886 0.860111C41.9491 1.21042 41.4094 1.72148 40.9677 2.39701C40.632 1.72148 40.1858 1.20856 39.6324 0.858253C39.0706 0.50514 38.4229 0.32156 37.7638 0.328607C37.0799 0.328607 36.4495 0.461483 35.8698 0.729093C35.2911 0.994846 34.765 1.39812 34.2915 1.93892V0.621306H31.5158L31.5131 11.9817H34.2861L34.2879 6.94175C34.2897 5.85179 34.3831 5.05268 34.5691 4.54533C34.7577 4.03892 35.0389 3.64586 35.4154 3.36246C35.7936 3.0837 36.2118 2.94153 36.6744 2.94153C37.0871 2.94246 37.4418 3.05396 37.7339 3.27604C38.026 3.49905 38.2437 3.83821 38.3897 4.29259C38.5358 4.7479 38.6092 5.48197 38.6092 6.49759L38.6038 11.9817H41.3804V6.87206C41.384 5.78861 41.4756 5.0025 41.658 4.51374C41.843 4.02312 42.1242 3.64215 42.5006 3.36246C42.8729 3.08663 43.322 2.94098 43.7814 2.9471C44.4064 2.9471 44.8718 3.17569 45.1865 3.62821C45.5004 4.08538 45.6555 4.95511 45.6555 6.23741L45.6519 11.9817H48.4257L48.4294 5.32865C48.4294 3.96365 48.2996 2.97777 48.0393 2.37285C47.7808 1.76608 47.3526 1.27454 46.7558 0.898208ZM58.1107 8.6329C57.3687 9.38927 56.4807 9.76746 55.4484 9.76746C54.583 9.76653 53.8755 9.52215 53.3167 9.03896C52.7589 8.55577 52.4178 7.90533 52.2881 7.08578L61.1857 7.09135L61.1966 6.55055C61.1966 4.67821 60.6542 3.17383 59.5648 2.02998C58.4781 0.890775 57.0648 0.320244 55.3241 0.317456C53.6877 0.317456 52.3244 0.888916 51.2413 2.03648C50.1537 3.1794 49.6113 4.61874 49.6113 6.3517C49.6095 8.04564 50.1537 9.45153 51.2395 10.5759C52.3244 11.703 53.7349 12.2642 55.4629 12.2642C56.5786 12.2642 57.5392 12.0617 58.352 11.6537C59.1611 11.2477 59.8577 10.6167 60.4383 9.76746L58.1107 8.6329ZM53.4338 3.41077C54.0161 2.97126 54.6946 2.7529 55.4656 2.75476C56.1795 2.75476 56.8045 2.94989 57.3397 3.34016C57.8803 3.73321 58.2404 4.24148 58.4227 4.86591L52.4178 4.86219C52.728 4.16993 53.0682 3.68489 53.4338 3.4117M67.7684 5.9698L71.5174 0.619447H68.3553L66.1847 3.71648L64.0068 0.619447H60.7948L64.5818 6.00139L60.3947 11.9817H63.5568L66.1647 8.2575L68.7862 11.9817H72L67.7684 5.9698ZM18.071 0.270996C17.5576 0.270996 17.1095 0.370421 16.7357 0.562766C16.3666 0.752324 15.943 1.09799 15.4658 1.60533V0.620377H12.8171V11.9817H15.591L15.5892 6.07294C15.5892 3.9079 16.1734 2.82166 17.5875 2.82166C17.8324 2.82166 18.0828 2.87648 18.3349 2.97312C18.7903 2.19259 19.3164 1.45945 19.9042 0.783916C19.2711 0.450332 18.6597 0.270996 18.071 0.270996Z" fill="#E12626"/>
</svg>
