<svg width="42" height="28" viewBox="0 0 42 28" fill="none" xmlns="http://www.w3.org/2000/svg">
<rect x="0.5" y="1.21094" width="41" height="26" rx="3.5" fill="#8FA0E6" stroke="#253A8E"/>
<path d="M18.2023 18.4274H15.7344L17.278 8.88281H19.7458L18.2023 18.4274Z" fill="#253A8E"/>
<path d="M27.1472 9.11729C26.6605 8.92417 25.8884 8.71094 24.9337 8.71094C22.4966 8.71094 20.7803 10.0106 20.7698 11.8686C20.7496 13.2395 21.9986 14.0009 22.9327 14.458C23.8875 14.9251 24.2121 15.23 24.2121 15.6463C24.2024 16.2857 23.4406 16.5805 22.73 16.5805C21.7447 16.5805 21.2168 16.4285 20.4145 16.0728L20.0895 15.9203L19.7441 18.0628C20.323 18.3265 21.3894 18.5605 22.4966 18.5708C25.0861 18.5708 26.7719 17.2913 26.7919 15.3112C26.8018 14.2247 26.1422 13.3921 24.7203 12.7118C23.8572 12.2751 23.3286 11.9806 23.3286 11.5338C23.3387 11.1276 23.7757 10.7115 24.75 10.7115C25.5523 10.6911 26.1418 10.884 26.5884 11.077L26.8116 11.1783L27.1472 9.11729Z" fill="#253A8E"/>
<path d="M30.4277 15.0461C30.6309 14.4978 31.413 12.3756 31.413 12.3756C31.4027 12.396 31.6158 11.8171 31.7377 11.4618L31.9102 12.2842C31.9102 12.2842 32.3775 14.5689 32.479 15.0461C32.0933 15.0461 30.9151 15.0461 30.4277 15.0461ZM33.474 8.88281H31.5651C30.9764 8.88281 30.5292 9.05529 30.2752 9.67473L26.6094 18.4273H29.1989C29.1989 18.4273 29.6252 17.2492 29.7169 16.9955C30.0009 16.9955 32.52 16.9955 32.8855 16.9955C32.9563 17.3306 33.1799 18.4273 33.1799 18.4273H35.465L33.474 8.88281Z" fill="#253A8E"/>
<path d="M13.6732 8.88281L11.2563 15.3913L10.9922 14.0713C10.5453 12.5482 9.14394 10.8934 7.58008 10.0706L9.79388 18.4173H12.4037L16.2828 8.88281H13.6732Z" fill="#253A8E"/>
<path d="M9.01128 8.88281H5.04062L5 9.07566C8.09736 9.86772 10.1487 11.7769 10.9915 14.0717L10.1283 9.68512C9.98619 9.07553 9.54948 8.90292 9.01128 8.88281Z" fill="#708BFE"/>
</svg>
