<svg width="25" height="25" viewBox="0 0 25 25" fill="none" xmlns="http://www.w3.org/2000/svg">
<path d="M0 21.6515C0 20.7354 0.322214 19.952 0.972959 19.3012C1.6237 18.6505 2.40713 18.3283 3.32322 18.3283C4.23932 18.3283 5.02274 18.6505 5.67349 19.3012C6.32424 19.952 6.64645 20.7354 6.64645 21.6515C6.64645 22.5866 6.32424 23.37 5.67349 24.0144C5.02274 24.6588 4.23932 24.9747 3.32322 24.9747C2.40713 24.9747 1.6237 24.6525 0.972959 24.0018C0.328532 23.351 0 22.5676 0 21.6515ZM0 13.2739V8.4976C2.98206 8.4976 5.74299 9.2368 8.27647 10.7089C10.81 12.1809 12.8127 14.19 14.2911 16.7235C15.7695 19.257 16.5024 22.0179 16.5024 25H11.7008C11.7008 21.7652 10.5572 19.0106 8.27647 16.7235C5.97675 14.4238 3.21582 13.2739 0 13.2739ZM0 4.80162V0C3.38009 0 6.61486 0.663381 9.698 1.99014C12.7811 3.31691 15.441 5.09224 17.6712 7.32878C19.9014 9.56533 21.6894 12.2189 23.0099 15.302C24.3303 18.3851 25 21.6199 25 25H20.1984C20.1984 22.2643 19.6677 19.6487 18.6 17.1531C17.5322 14.6512 16.0981 12.5032 14.2848 10.7026C12.4779 8.90195 10.3298 7.46778 7.83422 6.40005C5.33864 5.33232 2.73566 4.80162 0 4.80162Z" fill="#D21D3A"/>
</svg>
