<svg width="20" height="19" viewBox="0 0 20 19" fill="none" xmlns="http://www.w3.org/2000/svg">
<path fill-rule="evenodd" clip-rule="evenodd" d="M10.6313 5.1041C12.0292 6.50202 12.0292 8.7685 10.6313 10.1664C9.23334 11.5643 6.96687 11.5643 5.56895 10.1664C4.17103 8.7685 4.17103 6.50202 5.56895 5.1041C6.96687 3.70618 9.23334 3.70618 10.6313 5.1041ZM14.5637 11.5973C16.357 8.67722 15.989 4.80501 13.4597 2.27568C10.4997 -0.68434 5.70054 -0.68434 2.74052 2.27568C-0.219496 5.23569 -0.219496 10.0348 2.74052 12.9948C5.30845 15.5628 9.26056 15.9029 12.1952 14.0153L16.6843 18.5044C17.3452 19.1653 18.4167 19.1653 19.0776 18.5044C19.7385 17.8435 19.7385 16.772 19.0776 16.1112L14.5637 11.5973Z" fill="black"/>
</svg>
