<svg width="34" height="25" viewBox="0 0 34 25" fill="none" xmlns="http://www.w3.org/2000/svg">
<path fill-rule="evenodd" clip-rule="evenodd" d="M29.1667 24.082C30.918 23.8346 32.334 22.5 32.666 20.7487C33.0013 18.8346 33.3333 15.9993 33.418 12.5C33.418 9.00065 33.0013 6.16537 32.666 4.2513C32.334 2.5 30.918 1.16537 29.1667 0.91797C26.3346 0.501303 21.8327 0 16.6667 0C11.5006 0 6.91732 0.501303 4.16667 0.91797C2.41536 1.16537 0.999349 2.5 0.667317 4.2513C0.332031 6.16537 0 9.00065 0 12.5C0 15.9993 0.332031 18.8346 0.667317 20.7487C0.999349 22.5 2.41536 23.8346 4.16667 24.082C6.9987 24.4987 11.582 25 16.6667 25C21.8327 25 26.416 24.4987 29.1667 24.082ZM13.3338 6.66692V18.3336L23.3338 12.5003L13.3338 6.66692Z" fill="#D21D3A"/>
</svg>
