<svg width="60" height="61" viewBox="0 0 60 61" fill="none" xmlns="http://www.w3.org/2000/svg">
<rect y="0.600098" width="60" height="60" rx="8" fill="url(#paint0_linear_529_291)"/>
<mask id="mask0_529_291" style="mask-type:luminance" maskUnits="userSpaceOnUse" x="21" y="33" width="18" height="12">
<path d="M29.5103 34.0898L21.1844 43.7638C21.1035 43.8356 21.0468 43.9304 21.0219 44.0356C20.997 44.1407 21.0052 44.2509 21.0453 44.3513C21.0853 44.4516 21.1554 44.5371 21.2458 44.5962C21.3363 44.6552 21.4428 44.6849 21.5508 44.6812H38.3873C38.4945 44.6829 38.5998 44.6535 38.6906 44.5966C38.7814 44.5397 38.8539 44.4577 38.8991 44.3606C38.9444 44.2634 38.9605 44.1553 38.9456 44.0491C38.9307 43.943 38.8855 43.8434 38.8152 43.7625L30.4892 34.0885C30.3624 33.9486 30.1878 33.8613 29.9998 33.8438C29.8203 33.8876 29.6531 33.9712 29.5103 34.0885" fill="white"/>
</mask>
<g mask="url(#mask0_529_291)">
<path d="M42.8566 29.9871H17.0815V48.5996H42.8566V29.9871Z" fill="white"/>
</g>
<mask id="mask1_529_291" style="mask-type:luminance" maskUnits="userSpaceOnUse" x="15" y="16" width="30" height="26">
<path d="M23.755 30.5995C23.7466 31.4941 23.9341 32.3797 24.3044 33.1941C24.6748 34.0085 25.219 34.7319 25.8987 35.3135C25.9685 35.3889 26.0514 35.451 26.1435 35.4967C26.1773 35.5263 26.2208 35.5426 26.2658 35.5426C26.3108 35.5426 26.3543 35.5263 26.3882 35.4967C26.4497 35.4352 26.5112 35.3737 26.5112 35.3135C26.8175 34.9457 27.0007 34.701 27.1852 34.5178C27.1994 34.5071 27.2109 34.4933 27.2188 34.4774C27.2267 34.4615 27.2308 34.444 27.2308 34.4262C27.2308 34.4085 27.2267 34.391 27.2188 34.3751C27.2109 34.3592 27.1994 34.3453 27.1852 34.3346C26.4058 33.7339 25.834 32.9042 25.5499 31.9621C25.2658 31.0199 25.2836 30.0124 25.601 29.0809C25.9183 28.1494 26.5192 27.3406 27.3194 26.7679C28.1196 26.1951 29.079 25.8871 30.0631 25.8871C31.0472 25.8871 32.0066 26.1951 32.8068 26.7679C33.607 27.3406 34.2079 28.1494 34.5252 29.0809C34.8426 30.0124 34.8604 31.0199 34.5763 31.9621C34.2922 32.9042 33.7204 33.7339 32.941 34.3346C32.9268 34.3453 32.9153 34.3592 32.9074 34.3751C32.8995 34.391 32.8954 34.4085 32.8954 34.4262C32.8954 34.444 32.8995 34.4615 32.9074 34.4774C32.9153 34.4933 32.9268 34.5071 32.941 34.5178C33.2472 34.8856 33.4304 35.1303 33.615 35.3135C33.6765 35.375 33.6765 35.4366 33.738 35.4967C33.7995 35.5569 33.8611 35.5582 33.9827 35.4967C34.0748 35.451 34.1577 35.3889 34.2275 35.3135C34.8958 34.7226 35.4319 33.9973 35.8006 33.185C36.1693 32.3727 36.3623 31.4916 36.3671 30.5995C36.3602 28.9453 35.7001 27.3608 34.5303 26.1911C33.3606 25.0214 31.7761 24.3612 30.1219 24.3544C26.6931 24.3544 23.755 27.1707 23.755 30.5995ZM19.8368 30.5995C19.8366 32.0953 20.1657 33.5727 20.8005 34.9271C21.4354 36.2814 22.3605 37.4794 23.5103 38.4361L23.5718 38.4976C23.6057 38.5272 23.6492 38.5436 23.6942 38.5436C23.7392 38.5436 23.7827 38.5272 23.8165 38.4976V38.4361C24.1228 38.0683 24.3634 37.8236 24.4906 37.6404C24.4906 37.5789 24.5521 37.5789 24.6136 37.5174C24.6278 37.5067 24.6392 37.4928 24.6472 37.4769C24.6551 37.461 24.6592 37.4435 24.6592 37.4258C24.6592 37.408 24.6551 37.3905 24.6472 37.3746C24.6392 37.3587 24.6278 37.3449 24.6136 37.3342L24.5521 37.2726C23.1852 36.1391 22.2011 34.6116 21.7341 32.8983C21.267 31.1851 21.3397 29.3695 21.9423 27.6991C22.5448 26.0286 23.6478 24.5847 25.1009 23.564C26.5541 22.5434 28.2866 21.9957 30.0624 21.9957C31.8382 21.9957 33.5707 22.5434 35.0239 23.564C36.477 24.5847 37.58 26.0286 38.1826 27.6991C38.7851 29.3695 38.8578 31.1851 38.3907 32.8983C37.9237 34.6116 36.9396 36.1391 35.5727 37.2726L35.4497 37.3957C35.4355 37.4064 35.4241 37.4202 35.4161 37.4361C35.4082 37.452 35.4041 37.4695 35.4041 37.4873C35.4041 37.505 35.4082 37.5226 35.4161 37.5384C35.4241 37.5543 35.4355 37.5682 35.4497 37.5789C35.5112 37.6404 35.5112 37.7019 35.5727 37.7019C35.7559 37.8851 35.9405 38.1914 36.2467 38.4976L36.3083 38.5591C36.319 38.5733 36.3328 38.5848 36.3487 38.5927C36.3646 38.6006 36.3821 38.6047 36.3999 38.6047C36.4176 38.6047 36.4351 38.6006 36.451 38.5927C36.4669 38.5848 36.4808 38.5733 36.4915 38.5591C36.4996 38.5593 36.5077 38.5579 36.5152 38.5548C36.5228 38.5518 36.5296 38.5473 36.5354 38.5415C36.5411 38.5358 36.5457 38.5289 36.5487 38.5214C36.5517 38.5138 36.5532 38.5057 36.553 38.4976C37.7128 37.5496 38.6449 36.3533 39.2807 34.997C39.9165 33.6407 40.2397 32.159 40.2265 30.6611C40.2298 29.3255 39.9691 28.0024 39.4595 26.7678C38.9499 25.5333 38.2014 24.4116 37.257 23.4672C36.3126 22.5228 35.1909 21.7743 33.9563 21.2647C32.7218 20.755 31.3987 20.4944 30.0631 20.4976C24.4304 20.4976 19.8381 24.9669 19.8381 30.5995M15.9185 30.5995C15.9147 32.6538 16.3624 34.6838 17.2299 36.5459C18.0974 38.4081 19.3635 40.0568 20.9387 41.3755C20.9468 41.3753 20.9549 41.3768 20.9624 41.3798C20.97 41.3828 20.9769 41.3873 20.9826 41.3931C20.9884 41.3988 20.9929 41.4057 20.9959 41.4132C20.9989 41.4208 21.0004 41.4289 21.0002 41.437C21.0341 41.4666 21.0776 41.4829 21.1226 41.4829C21.1676 41.4829 21.211 41.4666 21.2449 41.437L21.3064 41.3755C21.6127 41.0077 21.8533 40.7015 22.0406 40.5183C22.0404 40.5101 22.0419 40.5021 22.0449 40.4945C22.0479 40.487 22.0525 40.4801 22.0582 40.4744C22.064 40.4686 22.0708 40.4641 22.0784 40.4611C22.0859 40.458 22.094 40.4566 22.1021 40.4568C22.1318 40.4229 22.1481 40.3794 22.1481 40.3344C22.1481 40.2894 22.1318 40.2459 22.1021 40.212C22.094 40.2122 22.0859 40.2108 22.0784 40.2077C22.0708 40.2047 22.064 40.2002 22.0582 40.1944C22.0525 40.1887 22.0479 40.1818 22.0449 40.1743C22.0419 40.1667 22.0404 40.1586 22.0406 40.1505C20.6145 39.0029 19.4662 37.5477 18.6817 35.8938C17.8971 34.2399 17.4965 32.4301 17.5099 30.5995C17.5074 28.4949 18.0369 26.4237 19.049 24.5785C20.0612 22.7332 21.5232 21.1735 23.2994 20.0444C25.0756 18.9153 27.1082 18.2534 29.2086 18.12C31.3091 17.9866 33.4092 18.3861 35.3139 19.2815C37.2186 20.1769 38.8661 21.539 40.1036 23.2415C41.341 24.9439 42.1282 26.9315 42.392 29.0195C42.6559 31.1076 42.3878 33.2284 41.6127 35.1852C40.8376 37.1419 39.5806 38.871 37.9584 40.212L37.8969 40.2736C37.8827 40.2843 37.8713 40.2981 37.8634 40.314C37.8554 40.3299 37.8513 40.3474 37.8513 40.3652C37.8513 40.3829 37.8554 40.4004 37.8634 40.4163C37.8713 40.4322 37.8827 40.4461 37.8969 40.4568L37.9584 40.5183C38.2008 40.8436 38.4667 41.1507 38.7541 41.437C38.7648 41.4512 38.7787 41.4627 38.7946 41.4706C38.8105 41.4785 38.828 41.4826 38.8457 41.4826C38.8635 41.4826 38.881 41.4785 38.8969 41.4706C38.9128 41.4627 38.9266 41.4512 38.9373 41.437C40.5516 40.1311 41.852 38.4793 42.7425 36.6035C43.6329 34.7277 44.0907 32.6759 44.0819 30.5995C44.0819 26.8648 42.5983 23.2831 39.9575 20.6423C37.3167 18.0014 33.7349 16.5178 30.0002 16.5178C26.2655 16.5178 22.6838 18.0014 20.0429 20.6423C17.4021 23.2831 15.9185 26.8648 15.9185 30.5995Z" fill="white"/>
</mask>
<g mask="url(#mask1_529_291)">
<path d="M48 12.5996H12V45.4155H48V12.5996Z" fill="white"/>
</g>
<defs>
<linearGradient id="paint0_linear_529_291" x1="30" y1="0.600124" x2="30" y2="60.6006" gradientUnits="userSpaceOnUse">
<stop stop-color="#1D6FF2"/>
<stop offset="1" stop-color="#1AC8FC"/>
</linearGradient>
</defs>
</svg>
