<svg width="43" height="27" viewBox="0 0 43 27" fill="none" xmlns="http://www.w3.org/2000/svg">
<rect x="0.899902" y="0.5" width="41" height="26" rx="6.5" fill="#1D1B1B" stroke="#9B9B9B"/>
<path d="M20.9976 13.3939V17.2289H19.7607V7.74463H22.9776C23.7607 7.74463 24.5026 8.03273 25.0807 8.56898C25.6582 9.06334 25.947 9.80584 25.947 10.5896C25.947 11.3733 25.6588 12.0739 25.0807 12.6102C24.5032 13.1464 23.8026 13.4345 22.9776 13.4345L20.9976 13.3939ZM20.9976 8.89898V12.1983H23.0601C23.5138 12.1983 23.9676 12.0327 24.2563 11.704C24.9163 11.0859 24.9163 10.0546 24.297 9.43588L24.2563 9.39398C23.9263 9.06398 23.5138 8.85773 23.0601 8.89963H20.9976V8.89898Z" fill="#9B9B9B"/>
<path d="M28.7917 10.5493C29.6992 10.5493 30.3998 10.7962 30.9361 11.2918C31.4723 11.7862 31.7192 12.4462 31.7192 13.2712V17.2305H30.5648V16.323H30.5242C30.0299 17.0655 29.328 17.4368 28.5036 17.4368C27.803 17.4368 27.1836 17.2305 26.6893 16.8187C26.2355 16.4062 25.9468 15.8287 25.9468 15.2106C25.9468 14.5506 26.1943 14.0156 26.6893 13.6025C27.1836 13.19 27.8842 13.025 28.7099 13.025C29.4524 13.025 30.0299 13.1487 30.483 13.4375V13.1494C30.483 12.7369 30.3186 12.325 29.9886 12.0769C29.6586 11.7887 29.2461 11.6231 28.7924 11.6231C28.0918 11.6231 27.5555 11.9112 27.1843 12.4894L26.1118 11.8294C26.7711 10.9612 27.6374 10.5493 28.7917 10.5493ZM27.2249 15.2499C27.2249 15.5799 27.3892 15.868 27.6374 16.033C27.9255 16.2392 28.2555 16.363 28.5855 16.363C29.0798 16.363 29.5755 16.1567 29.9461 15.7861C30.3586 15.4142 30.5642 14.9618 30.5642 14.4661C30.1936 14.178 29.6567 14.0124 28.9561 14.0124C28.4617 14.0124 28.0486 14.1361 27.7192 14.383C27.3892 14.5899 27.2249 14.8786 27.2249 15.2499Z" fill="#9B9B9B"/>
<path d="M38.4001 10.7549L34.3183 20.1148H33.0801L34.6064 16.8573L31.9258 10.7955H33.2458L35.1832 15.4548H35.2245L37.1213 10.7955H38.4001V10.7549Z" fill="#9B9B9B"/>
<path d="M16.0913 12.5698C16.0913 12.1979 16.0494 11.8273 16.0088 11.4561H10.8545V13.5592H13.782C13.6582 14.2192 13.2876 14.8373 12.7095 15.2085V16.5691H14.4826C15.5132 15.621 16.0913 14.2185 16.0913 12.5698Z" fill="#9B9B9B"/>
<path d="M10.8534 17.8885C12.3377 17.8885 13.5746 17.3942 14.4827 16.5685L12.7096 15.2079C12.2153 15.5379 11.5959 15.7442 10.8546 15.7442C9.45215 15.7442 8.21529 14.7961 7.80344 13.4761H5.98779V14.8786C6.9359 16.7342 8.79215 17.8885 10.8534 17.8885Z" fill="#C8C8C8"/>
<path d="M7.80207 13.4768C7.55457 12.8168 7.55457 12.0743 7.80207 11.3737V9.97119H5.98771C5.20396 11.4974 5.20396 13.3118 5.98771 14.8787L7.80207 13.4768Z" fill="#9B9B9B"/>
<path d="M10.8531 9.14666C11.6369 9.14666 12.3794 9.43477 12.9562 9.97102L14.5237 8.40416C13.5337 7.49731 12.2144 6.96106 10.8944 7.00166C8.83187 7.00166 6.93631 8.15602 6.02881 10.0123L7.84316 11.4135C8.21441 10.0954 9.45127 9.14666 10.8531 9.14666Z" fill="#C8C8C8"/>
</svg>
