<svg width="43" height="28" viewBox="0 0 43 28" fill="none" xmlns="http://www.w3.org/2000/svg">
<rect x="1.2998" y="1.1001" width="41" height="26" rx="6.5" fill="#1D1B1B" stroke="#9B9B9B"/>
<path d="M17.7336 17.4493V8.71393H21.01C21.682 8.71393 22.2453 8.8389 22.7017 9.08884C23.1581 9.33879 23.504 9.68291 23.7377 10.1194C23.9713 10.5559 24.089 11.0522 24.089 11.6064C24.089 12.1606 23.9713 12.6641 23.7359 13.0988C23.5004 13.5335 23.1509 13.8758 22.6908 14.1239C22.2308 14.3721 21.6621 14.497 20.9883 14.497H18.8167V13.1966H20.7746C21.1676 13.1966 21.4882 13.1278 21.7381 12.9919C21.9881 12.8561 22.1746 12.6677 22.2942 12.4287C22.4155 12.1896 22.4753 11.9161 22.4753 11.6046C22.4753 11.2931 22.4155 11.0214 22.2942 10.7859C22.1728 10.5505 21.9863 10.3657 21.7345 10.2335C21.4828 10.1013 21.1585 10.0361 20.7637 10.0361H19.313V17.4511H17.73L17.7336 17.4493Z" fill="#9B9B9B"/>
<path d="M27.1661 17.5818C26.7514 17.5818 26.3783 17.5076 26.0468 17.3572C25.7154 17.2087 25.4546 16.9878 25.2626 16.6943C25.0706 16.4009 24.9746 16.0405 24.9746 15.6113C24.9746 15.2418 25.0434 14.9357 25.1793 14.6948C25.3151 14.4539 25.5017 14.2601 25.7389 14.1152C25.9744 13.9703 26.2406 13.8598 26.5395 13.7838C26.8365 13.7077 27.1444 13.6534 27.4632 13.619C27.8471 13.5791 28.1587 13.5429 28.3977 13.5103C28.6368 13.4777 28.8107 13.427 28.9212 13.3563C29.0317 13.2857 29.086 13.177 29.086 13.0303V13.005C29.086 12.6844 28.99 12.4344 28.7998 12.2588C28.6097 12.0831 28.3344 11.9943 27.9757 11.9943C27.5972 11.9943 27.2984 12.0776 27.0774 12.2425C26.8564 12.4073 26.7079 12.6029 26.6318 12.8275L25.1901 12.6228C25.3042 12.2243 25.4908 11.8911 25.7534 11.623C26.0142 11.355 26.3348 11.1521 26.7133 11.0181C27.0919 10.8823 27.5103 10.8152 27.9667 10.8152C28.2818 10.8152 28.597 10.8515 28.9103 10.9257C29.2236 11 29.5098 11.1213 29.767 11.2898C30.026 11.4582 30.2343 11.6882 30.3919 11.978C30.5494 12.2678 30.6291 12.6301 30.6291 13.0665V17.4514H29.144V16.5513H29.0932C28.9991 16.7324 28.8687 16.9026 28.6984 17.0602C28.53 17.2178 28.3181 17.3446 28.0627 17.4406C27.8073 17.5365 27.5103 17.5836 27.1698 17.5836L27.1661 17.5818ZM27.5664 16.448C27.8761 16.448 28.146 16.3864 28.3724 16.2633C28.6006 16.1401 28.7763 15.9753 28.8994 15.7706C29.0226 15.566 29.0842 15.3432 29.0842 15.1005V14.3289C29.0353 14.3688 28.9538 14.405 28.8397 14.4394C28.7256 14.4738 28.5952 14.5028 28.4539 14.53C28.3108 14.5553 28.1713 14.5789 28.0319 14.5988C27.8924 14.6187 27.7711 14.6368 27.6696 14.6495C27.4396 14.6803 27.2332 14.7328 27.0502 14.8035C26.8673 14.8741 26.7242 14.9737 26.6192 15.1005C26.5141 15.2273 26.4616 15.3903 26.4616 15.5895C26.4616 15.8739 26.5648 16.0894 26.7731 16.2343C26.9814 16.3792 27.2458 16.4516 27.5664 16.4516V16.448Z" fill="#9B9B9B"/>
<path d="M32.9042 19.907C32.6941 19.907 32.5003 19.8907 32.3228 19.8581C32.1453 19.8255 32.004 19.7875 31.899 19.7458L32.2576 18.5432C32.4822 18.6084 32.6832 18.6392 32.8589 18.6374C33.0346 18.6338 33.1904 18.5794 33.3262 18.4726C33.462 18.3657 33.5761 18.1882 33.6703 17.9419L33.8025 17.5887L31.4263 10.9H33.0636L34.5741 15.8482H34.6429L36.1571 10.9H37.7998L35.1754 18.2462C35.0523 18.5939 34.8911 18.891 34.6882 19.1391C34.4854 19.3872 34.239 19.5792 33.9474 19.7114C33.6558 19.8436 33.3081 19.9088 32.9042 19.9088V19.907Z" fill="#9B9B9B"/>
<path d="M10.6447 17.9167C8.19057 17.9167 6.40836 16.2685 6.40836 13.9991C6.40836 13.1804 6.65831 11.976 7.84825 10.8893L7.8718 10.8675L9.13057 12.1698C9.11608 12.1843 9.09616 12.2024 9.0708 12.2259C8.50571 12.7421 8.21955 13.338 8.21955 13.9991C8.21955 15.2597 9.19396 16.1055 10.6447 16.1055C12.5265 16.1055 13.7437 14.7924 13.7437 12.7584C13.7437 11.1356 12.465 9.41134 10.0959 9.41134C8.34089 9.41134 7.13465 10.6556 7.12378 10.6683L5.7998 9.42945C5.86863 9.3552 7.53311 7.60016 10.0941 7.60016C13.5118 7.60016 15.553 10.2228 15.553 12.7584C15.553 15.7958 13.5336 17.9167 10.6429 17.9167H10.6447Z" fill="#9B9B9B"/>
</svg>
