<svg width="43" height="28" viewBox="0 0 43 28" fill="none" xmlns="http://www.w3.org/2000/svg">
<rect x="0.899902" y="1.1001" width="41" height="26" rx="6.5" fill="#1D1B1B" stroke="#9B9B9B"/>
<path d="M20.9976 13.9942V17.8291H19.7607V8.34485H22.9776C23.7607 8.34485 24.5026 8.63295 25.0807 9.1692C25.6582 9.66356 25.947 10.4061 25.947 11.1898C25.947 11.9736 25.6588 12.6742 25.0807 13.2104C24.5032 13.7467 23.8026 14.0348 22.9776 14.0348L20.9976 13.9942ZM20.9976 9.4992V12.7986H23.0601C23.5138 12.7986 23.9676 12.6329 24.2563 12.3042C24.9163 11.6861 24.9163 10.6548 24.297 10.0361L24.2563 9.9942C23.9263 9.6642 23.5138 9.45795 23.0601 9.49985H20.9976V9.4992Z" fill="#9B9B9B"/>
<path d="M28.7917 11.1495C29.6992 11.1495 30.3998 11.3964 30.9361 11.892C31.4723 12.3864 31.7192 13.0464 31.7192 13.8714V17.8307H30.5648V16.9232H30.5242C30.0299 17.6657 29.328 18.037 28.5036 18.037C27.803 18.037 27.1836 17.8307 26.6893 17.4189C26.2355 17.0064 25.9468 16.4289 25.9468 15.8108C25.9468 15.1508 26.1943 14.6158 26.6893 14.2027C27.1836 13.7902 27.8842 13.6252 28.7099 13.6252C29.4524 13.6252 30.0299 13.7489 30.483 14.0377V13.7496C30.483 13.3371 30.3186 12.9252 29.9886 12.6771C29.6586 12.389 29.2461 12.2233 28.7924 12.2233C28.0918 12.2233 27.5555 12.5114 27.1843 13.0896L26.1118 12.4296C26.7711 11.5614 27.6374 11.1495 28.7917 11.1495ZM27.2249 15.8501C27.2249 16.1801 27.3892 16.4682 27.6374 16.6332C27.9255 16.8395 28.2555 16.9632 28.5855 16.9632C29.0798 16.9632 29.5755 16.757 29.9461 16.3864C30.3586 16.0145 30.5642 15.562 30.5642 15.0664C30.1936 14.7782 29.6567 14.6126 28.9561 14.6126C28.4617 14.6126 28.0486 14.7364 27.7192 14.9832C27.3892 15.1901 27.2249 15.4789 27.2249 15.8501Z" fill="#9B9B9B"/>
<path d="M38.4001 11.355L34.3183 20.7149H33.0801L34.6064 17.4574L31.9258 11.3956H33.2458L35.1832 16.0549H35.2245L37.1213 11.3956H38.4001V11.355Z" fill="#9B9B9B"/>
<path d="M16.0913 13.1697C16.0913 12.7978 16.0494 12.4272 16.0088 12.0559H10.8545V14.159H13.782C13.6582 14.819 13.2876 15.4371 12.7095 15.8084V17.169H14.4826C15.5132 16.2209 16.0913 14.8184 16.0913 13.1697Z" fill="#9B9B9B"/>
<path d="M10.8534 18.4886C12.3377 18.4886 13.5746 17.9943 14.4827 17.1686L12.7096 15.808C12.2153 16.138 11.5959 16.3443 10.8546 16.3443C9.45215 16.3443 8.21529 15.3962 7.80344 14.0762H5.98779V15.4787C6.9359 17.3343 8.79215 18.4886 10.8534 18.4886Z" fill="#C8C8C8"/>
<path d="M7.80207 14.0771C7.55457 13.4171 7.55457 12.6746 7.80207 11.974V10.5715H5.98771C5.20396 12.0978 5.20396 13.9121 5.98771 15.479L7.80207 14.0771Z" fill="#9B9B9B"/>
<path d="M10.8531 9.74676C11.6369 9.74676 12.3794 10.0349 12.9562 10.5711L14.5237 9.00426C13.5337 8.09741 12.2144 7.56116 10.8944 7.60176C8.83187 7.60176 6.93631 8.75612 6.02881 10.6124L7.84316 12.0136C8.21441 10.6955 9.45127 9.74676 10.8531 9.74676Z" fill="#C8C8C8"/>
</svg>
