<svg width="43" height="27" viewBox="0 0 43 27" fill="none" xmlns="http://www.w3.org/2000/svg">
<rect x="1.2998" y="0.5" width="41" height="26" rx="6.5" fill="#1D1B1B" stroke="#9B9B9B"/>
<path d="M17.7336 16.8491V8.11377H21.01C21.682 8.11377 22.2453 8.23874 22.7017 8.48868C23.1581 8.73863 23.504 9.08275 23.7377 9.51925C23.9713 9.95574 24.089 10.452 24.089 11.0062C24.089 11.5605 23.9713 12.064 23.7359 12.4986C23.5004 12.9333 23.1509 13.2756 22.6908 13.5238C22.2308 13.7719 21.6621 13.8969 20.9883 13.8969H18.8167V12.5964H20.7746C21.1676 12.5964 21.4882 12.5276 21.7381 12.3918C21.9881 12.2559 22.1746 12.0676 22.2942 11.8285C22.4155 11.5894 22.4753 11.3159 22.4753 11.0044C22.4753 10.6929 22.4155 10.4212 22.2942 10.1858C22.1728 9.95031 21.9863 9.76557 21.7345 9.63335C21.4828 9.50114 21.1585 9.43593 20.7637 9.43593H19.313V16.8509H17.73L17.7336 16.8491Z" fill="#9B9B9B"/>
<path d="M27.1661 16.9814C26.7514 16.9814 26.3783 16.9072 26.0468 16.7568C25.7154 16.6083 25.4546 16.3874 25.2626 16.0939C25.0706 15.8005 24.9746 15.4401 24.9746 15.0109C24.9746 14.6414 25.0434 14.3353 25.1793 14.0944C25.3151 13.8535 25.5017 13.6597 25.7389 13.5148C25.9744 13.3699 26.2406 13.2594 26.5395 13.1834C26.8365 13.1073 27.1444 13.053 27.4632 13.0186C27.8471 12.9787 28.1587 12.9425 28.3977 12.9099C28.6368 12.8773 28.8107 12.8266 28.9212 12.7559C29.0317 12.6853 29.086 12.5766 29.086 12.4299V12.4046C29.086 12.084 28.99 11.834 28.7998 11.6584C28.6097 11.4827 28.3344 11.3939 27.9757 11.3939C27.5972 11.3939 27.2984 11.4772 27.0774 11.6421C26.8564 11.8069 26.7079 12.0025 26.6318 12.2271L25.1901 12.0224C25.3042 11.6239 25.4908 11.2907 25.7534 11.0226C26.0142 10.7546 26.3348 10.5517 26.7133 10.4177C27.0919 10.2819 27.5103 10.2148 27.9667 10.2148C28.2818 10.2148 28.597 10.2511 28.9103 10.3253C29.2236 10.3996 29.5098 10.5209 29.767 10.6894C30.026 10.8578 30.2343 11.0878 30.3919 11.3776C30.5494 11.6674 30.6291 12.0296 30.6291 12.4661V16.851H29.144V15.9509H29.0932C28.9991 16.132 28.8687 16.3022 28.6984 16.4598C28.53 16.6174 28.3181 16.7442 28.0627 16.8402C27.8073 16.9361 27.5103 16.9832 27.1698 16.9832L27.1661 16.9814ZM27.5664 15.8476C27.8761 15.8476 28.146 15.786 28.3724 15.6629C28.6006 15.5397 28.7763 15.3749 28.8994 15.1702C29.0226 14.9656 29.0842 14.7428 29.0842 14.5001V13.7285C29.0353 13.7684 28.9538 13.8046 28.8397 13.839C28.7256 13.8734 28.5952 13.9024 28.4539 13.9296C28.3108 13.9549 28.1713 13.9785 28.0319 13.9984C27.8924 14.0183 27.7711 14.0364 27.6696 14.0491C27.4396 14.0799 27.2332 14.1324 27.0502 14.2031C26.8673 14.2737 26.7242 14.3733 26.6192 14.5001C26.5141 14.6269 26.4616 14.7899 26.4616 14.9891C26.4616 15.2735 26.5648 15.489 26.7731 15.6339C26.9814 15.7788 27.2458 15.8512 27.5664 15.8512V15.8476Z" fill="#9B9B9B"/>
<path d="M32.9042 19.3068C32.6941 19.3068 32.5003 19.2905 32.3228 19.2579C32.1453 19.2253 32.004 19.1873 31.899 19.1456L32.2576 17.943C32.4822 18.0082 32.6832 18.039 32.8589 18.0372C33.0346 18.0336 33.1904 17.9792 33.3262 17.8724C33.462 17.7655 33.5761 17.588 33.6703 17.3417L33.8025 16.9885L31.4263 10.2998H33.0636L34.5741 15.248H34.6429L36.1571 10.2998H37.7998L35.1754 17.646C35.0523 17.9937 34.8911 18.2907 34.6882 18.5389C34.4854 18.787 34.239 18.979 33.9474 19.1112C33.6558 19.2434 33.3081 19.3086 32.9042 19.3086V19.3068Z" fill="#9B9B9B"/>
<path d="M10.6447 17.3165C8.19057 17.3165 6.40836 15.6683 6.40836 13.3989C6.40836 12.5803 6.65831 11.3758 7.84825 10.2891L7.8718 10.2674L9.13057 11.5696C9.11608 11.5841 9.09616 11.6022 9.0708 11.6258C8.50571 12.1419 8.21955 12.7378 8.21955 13.3989C8.21955 14.6595 9.19396 15.5053 10.6447 15.5053C12.5265 15.5053 13.7437 14.1922 13.7437 12.1582C13.7437 10.5354 12.465 8.81118 10.0959 8.81118C8.34089 8.81118 7.13465 10.0555 7.12378 10.0681L5.7998 8.82929C5.86863 8.75504 7.53311 7 10.0941 7C13.5118 7 15.553 9.62259 15.553 12.1582C15.553 15.1956 13.5336 17.3165 10.6429 17.3165H10.6447Z" fill="#9B9B9B"/>
</svg>
