<svg width="50" height="26" viewBox="0 0 50 26" fill="none" xmlns="http://www.w3.org/2000/svg">
<path fill-rule="evenodd" clip-rule="evenodd" d="M31.3265 17.0401C31.0278 17.0401 30.5683 17.0171 30.17 16.9405V12.1918C30.5529 12.0156 31.0508 11.916 31.6482 11.916C33.1035 11.916 34.0839 12.8122 34.0839 14.39C34.0839 16.0827 33.0269 17.0478 31.3342 17.0478M31.855 9.80973C31.2346 9.80973 30.5759 9.88632 30.1776 10.0855V5.97241H27.7803V18.6792C28.8373 18.9549 30.2159 19.1005 31.4108 19.1005C34.4822 19.1005 36.5195 17.4614 36.5195 14.4742C36.5195 11.6403 34.62 9.80973 31.8474 9.80973M41.3373 9.74079C38.9935 9.74079 37.477 10.6063 37.477 13.3024V18.9626H39.9203V13.4632C39.9203 12.4522 40.4641 11.9237 41.5134 11.9237C42.1032 11.9237 42.7083 12.0003 43.2138 12.1611V9.90164C42.5934 9.80207 41.9653 9.74845 41.3373 9.74079Z" fill="white"/>
<path fill-rule="evenodd" clip-rule="evenodd" d="M48.3225 17.0171C47.2809 17.0171 46.7447 16.4962 46.7447 15.5005V11.9849H49.8927V9.99348H46.7447V6.677H44.332V15.669C44.332 18.3192 45.8256 19.1847 48.1464 19.1847C48.7208 19.1847 49.3642 19.1234 49.9999 19.0238V16.795C49.5021 16.9558 48.9046 17.0324 48.3225 17.0324" fill="white"/>
<path fill-rule="evenodd" clip-rule="evenodd" d="M10.5162 0.64917C10.3784 0.64917 10.2405 0.679807 10.1333 0.733422L0.528493 5.97239L11.2822 12.2377C11.3817 12.2913 11.4583 12.4215 11.4583 12.5364V21.6663C11.4583 21.7812 11.3741 21.9114 11.2745 21.965L10.6924 22.2867C10.6464 22.3097 10.5852 22.325 10.5162 22.325H10.5009C10.432 22.325 10.363 22.3174 10.3171 22.2867L9.73499 21.965C9.63542 21.9114 9.55882 21.7812 9.55882 21.6663V13.5245C9.55882 13.4632 9.51287 13.3943 9.45925 13.3636L0 7.84892V18.6486C0 18.8937 0.168505 19.1847 0.382966 19.3073L10.1409 25.0594C10.2482 25.1207 10.3784 25.1513 10.5162 25.1513C10.6541 25.1513 10.792 25.1207 10.8915 25.0594L20.6495 19.3073C20.8563 19.1847 21.0248 18.886 21.0248 18.6486V7.84892L14.6063 11.5867C14.5067 11.6479 14.3536 11.6403 14.254 11.5867L13.6872 11.2497C13.6412 11.219 13.5953 11.1731 13.5646 11.1195C13.5263 11.0505 13.511 10.9892 13.5034 10.928L13.488 10.2616C13.488 10.1467 13.557 10.0165 13.6566 9.95523L20.4963 5.97239L10.8992 0.733422C10.792 0.672148 10.6541 0.64917 10.5162 0.64917Z" fill="white"/>
</svg>
