<svg width="79" height="12" viewBox="0 0 79 12" fill="none" xmlns="http://www.w3.org/2000/svg">
<path d="M13.8925 0.313721L11.3687 3.74307H25.1242C25.8198 3.74307 25.8111 4.005 25.4711 4.46815C25.126 4.93649 24.5483 5.74656 24.1962 6.22359C24.0175 6.4647 23.6949 6.90356 24.7634 6.90356H30.3888L32.0558 4.63814C33.0896 3.23483 32.146 0.315454 28.4495 0.315454L13.8925 0.313721Z" fill="white"/>
<path d="M10.347 11.4864L15.4173 4.59651H21.7088C22.4044 4.59651 22.3957 4.86017 22.0558 5.32158L20.7721 7.07008C20.5935 7.3112 20.2708 7.75006 21.3394 7.75006H29.7662C29.0671 8.71104 26.7913 11.4864 22.7114 11.4864H10.347ZM39.3812 7.74832L36.6318 11.4864H29.3793L32.1287 7.74832H39.3812ZM50.4897 6.90183H32.7532L37.6032 0.313721H44.8522L42.0733 4.09173H45.3084L48.0907 0.313721H55.3397L50.4897 6.90183ZM49.867 7.74832L47.1176 11.4864H39.8686L42.618 7.74832H49.867ZM0 9.22275H10.6818L10.099 10.0155H0V9.22275ZM0 7.74832H11.7677L11.1831 8.54104H0V7.74832ZM0 10.6972H9.59768L9.01658 11.4864H0V10.6972ZM79 10.0155H68.3564L68.9409 9.22275H79V10.0155ZM79 11.4864H67.2757L67.855 10.6972H79V11.4864ZM70.0251 7.74832H79V8.54278H69.4422L70.0251 7.74832ZM65.3797 0.313721L60.5297 6.90183H52.8471L57.7005 0.313721H65.3797ZM52.2261 7.74832C52.2261 7.74832 51.697 8.47339 51.4386 8.82032C50.5296 10.0519 51.3327 11.4847 54.3042 11.4847H65.947L68.6963 7.74832H52.2261Z" fill="white"/>
</svg>
