<svg width="29" height="36" viewBox="0 0 29 36" fill="none" xmlns="http://www.w3.org/2000/svg">
<path d="M14.5 34.8324C14.7944 34.6852 22.4493 31.373 24.8782 29.3857C27.3807 27.3248 28.7056 24.3806 28.7056 20.8476V4.28668L28.4848 4.21308C22.3757 0.900897 14.7944 1.12171 14.4264 1.12171C14.132 1.12171 6.55078 0.900897 0.441642 4.21308L0.294434 4.28668V20.9212C0.294434 24.4542 1.61931 27.3984 4.12184 29.4593C6.55078 31.4466 14.2056 34.7588 14.5 34.8324Z" fill="#2E2E39"/>
<path d="M14.5 35.2002C14.5 35.2002 6.40355 31.6672 3.90102 29.6799C1.25127 27.4718 0 24.454 0 20.9947V3.7713C6.40355 0.311911 14.5 0.606327 14.5 0.606327C14.5 0.606327 22.5964 0.311911 29 3.7713V20.921C29 24.3804 27.7487 27.3982 25.099 29.6063C22.5964 31.6672 14.5 35.2002 14.5 35.2002ZM1.17766 20.9947C1.17766 24.2332 2.35533 26.883 4.63706 28.7231C6.69797 30.416 12.8071 33.1393 14.5 33.8754C16.1929 33.1393 22.3756 30.3424 24.3629 28.7231C26.6447 26.883 27.8223 24.1596 27.8223 20.9947V4.06572C19.2843 3.25607 9.1269 3.6977 1.17766 11.0581V20.9947Z" fill="white"/>
<path d="M22.6698 18.5658C23.7739 19.2282 24.2155 19.6698 24.2891 20.4795C24.2891 21.3627 23.7003 21.8779 22.7434 21.8779C21.9338 21.8779 20.9769 21.4363 20.3145 20.8475V23.2028C21.1241 23.6444 22.081 24.0125 23.1115 24.0125C25.614 24.0125 26.7917 22.246 26.7917 20.6267C26.8653 19.1546 26.4236 17.9769 24.2891 16.7257C23.3323 16.1368 22.5962 15.7688 22.5962 14.8856C22.5962 14.0023 23.4059 13.6343 24.0683 13.6343C24.9516 13.6343 25.8348 14.1495 26.35 14.6648V12.4566C25.9084 12.0886 24.9516 11.5734 23.5531 11.647C21.8602 11.7206 20.0937 12.8983 20.0937 14.9592C20.1673 16.3576 20.6089 17.3881 22.6698 18.5658ZM13.9845 23.8653C14.2054 23.9389 14.5734 24.0125 15.1622 24.0125C18.0328 24.0125 19.6521 21.4363 19.6521 17.7561C19.6521 14.0023 17.9592 11.7206 14.9414 11.7206C13.5429 11.7206 12.4389 12.015 11.482 12.6038V29.2384H13.9845V23.8653ZM13.9845 13.8551C14.2054 13.7815 14.5734 13.6343 14.8678 13.6343C16.3399 13.6343 16.9287 14.812 16.9287 17.6825C16.9287 20.4795 16.1927 21.8043 14.7206 21.8043C14.3526 21.8043 14.0582 21.7307 13.9109 21.6571V13.8551H13.9845ZM6.25612 24.0125C7.80181 24.0125 9.12668 23.6444 10.0835 22.982V11.8678H7.50739V21.5099C7.21297 21.7307 6.84495 21.8043 6.32973 21.8043C5.15206 21.8043 5.00485 20.7003 5.00485 20.0378V11.8678H2.42871V19.8906C2.42871 22.614 3.75358 24.0125 6.25612 24.0125Z" fill="white"/>
</svg>
