<svg width="29" height="35" viewBox="0 0 29 35" fill="none" xmlns="http://www.w3.org/2000/svg">
<path d="M14.5 34.2323C14.7944 34.0851 22.4493 30.7729 24.8782 28.7856C27.3807 26.7247 28.7056 23.7805 28.7056 20.2475V3.68659L28.4848 3.61298C22.3757 0.300799 14.7944 0.521611 14.4264 0.521611C14.132 0.521611 6.55078 0.300799 0.441642 3.61298L0.294434 3.68659V20.3211C0.294434 23.8541 1.61931 26.7983 4.12184 28.8592C6.55078 30.8465 14.2056 34.1587 14.5 34.2323Z" fill="#2E2E39"/>
<path d="M14.5 34.6001C14.5 34.6001 6.40355 31.0671 3.90102 29.0798C1.25127 26.8717 0 23.8539 0 20.3946V3.1712C6.40355 -0.288187 14.5 0.00622896 14.5 0.00622896C14.5 0.00622896 22.5964 -0.288187 29 3.1712V20.3209C29 23.7803 27.7487 26.7981 25.099 29.0062C22.5964 31.0671 14.5 34.6001 14.5 34.6001ZM1.17766 20.3946C1.17766 23.6331 2.35533 26.2829 4.63706 28.123C6.69797 29.8159 12.8071 32.5392 14.5 33.2753C16.1929 32.5392 22.3756 29.7423 24.3629 28.123C26.6447 26.2829 27.8223 23.5595 27.8223 20.3946V3.46562C19.2843 2.65598 9.1269 3.0976 1.17766 10.458V20.3946Z" fill="white"/>
<path d="M22.6698 17.9654C23.7739 18.6279 24.2155 19.0695 24.2891 19.8791C24.2891 20.7624 23.7003 21.2776 22.7434 21.2776C21.9338 21.2776 20.9769 20.836 20.3145 20.2472V22.6025C21.1241 23.0441 22.081 23.4121 23.1115 23.4121C25.614 23.4121 26.7917 21.6456 26.7917 20.0263C26.8653 18.5543 26.4236 17.3766 24.2891 16.1253C23.3323 15.5365 22.5962 15.1685 22.5962 14.2852C22.5962 13.402 23.4059 13.034 24.0683 13.034C24.9516 13.034 25.8348 13.5492 26.35 14.0644V11.8563C25.9084 11.4883 24.9516 10.973 23.5531 11.0466C21.8602 11.1202 20.0937 12.2979 20.0937 14.3588C20.1673 15.7573 20.6089 16.7878 22.6698 17.9654ZM13.9845 23.2649C14.2054 23.3385 14.5734 23.4121 15.1622 23.4121C18.0328 23.4121 19.6521 20.836 19.6521 17.1558C19.6521 13.402 17.9592 11.1202 14.9414 11.1202C13.5429 11.1202 12.4389 11.4147 11.482 12.0035V28.638H13.9845V23.2649ZM13.9845 13.2548C14.2054 13.1812 14.5734 13.034 14.8678 13.034C16.3399 13.034 16.9287 14.2116 16.9287 17.0822C16.9287 19.8791 16.1927 21.204 14.7206 21.204C14.3526 21.204 14.0582 21.1304 13.9109 21.0568V13.2548H13.9845ZM6.25612 23.4121C7.80181 23.4121 9.12668 23.0441 10.0835 22.3817V11.2675H7.50739V20.9096C7.21297 21.1304 6.84495 21.204 6.32973 21.204C5.15206 21.204 5.00485 20.0999 5.00485 19.4375V11.2675H2.42871V19.2903C2.42871 22.0136 3.75358 23.4121 6.25612 23.4121Z" fill="white"/>
</svg>
