<svg width="37" height="37" viewBox="0 0 37 37" fill="none" xmlns="http://www.w3.org/2000/svg">
<g clip-path="url(#clip0_529_1980)">
<path d="M35.3825 19.6005H20.03C18.452 19.6005 16.88 20.334 15.9905 21.4995V21.474C15.5414 22.1009 14.9495 22.6119 14.2638 22.9648C13.578 23.3177 12.8182 23.5024 12.047 23.5035C10.7537 23.5035 9.51331 22.9897 8.59879 22.0752C7.68427 21.1607 7.1705 19.9203 7.1705 18.627C7.1705 17.3337 7.68427 16.0933 8.59879 15.1788C9.51331 14.2643 10.7537 13.7505 12.047 13.7505C13.6745 13.7505 15.107 14.5545 15.992 15.78V15.7605C16.8785 16.9245 18.452 17.67 20.03 17.67H35.2235C35.5025 17.6625 36.533 17.5275 36.4955 16.1985C35.1695 8.56952 27.6755 2.71802 18.611 2.71802C13.028 2.71802 8.039 4.93802 4.7165 8.42252C4.1825 9.21302 4.7375 9.45602 5.2415 9.52352H15.155C16.73 9.52352 18.305 8.77652 19.193 7.60802V7.63502C19.6421 7.00754 20.2342 6.49595 20.9201 6.14253C21.6061 5.78911 22.3663 5.60401 23.138 5.60252C24.4167 5.62494 25.6355 6.14865 26.5318 7.06088C27.4282 7.9731 27.9305 9.20086 27.9305 10.4798C27.9305 11.7587 27.4282 12.9864 26.5318 13.8987C25.6355 14.8109 24.4167 15.3346 23.138 15.357C22.3663 15.3558 21.606 15.1708 20.92 14.8173C20.234 14.4639 19.642 13.9522 19.193 13.3245V13.353C18.305 12.183 16.73 11.454 15.155 11.454H4.325L4.367 11.4585C4.367 11.4585 2.765 11.3685 1.7885 12.747C1.0415 13.95 0.5 16.53 0.5 18.603C0.5 20.685 0.797 22.578 1.8005 24.4875C2.6465 25.8495 4.3655 25.7625 4.3655 25.7625L4.3025 25.77H15.152C16.727 25.77 18.302 25.035 19.19 23.868V23.898C19.639 23.2703 20.2309 22.7584 20.9169 22.4047C21.6029 22.051 22.3632 21.8657 23.135 21.864C24.4283 21.864 25.6687 22.3778 26.5832 23.2923C27.4977 24.2068 28.0115 25.4472 28.0115 26.7405C28.0115 28.0338 27.4977 29.2742 26.5832 30.1887C25.6687 31.1032 24.4283 31.617 23.135 31.617C22.3635 31.6157 21.6033 31.4308 20.9174 31.0777C20.2314 30.7245 19.6393 30.2132 19.19 29.586V29.613C18.302 28.4445 16.727 27.6975 15.152 27.6975H5.246C4.754 27.7605 4.199 27.9945 4.6775 28.7475C8.0015 32.2515 13.01 34.482 18.611 34.482C27.692 34.482 35.195 28.617 36.5 20.9685C36.494 19.899 35.7665 19.653 35.3825 19.6005Z" fill="white"/>
</g>
<defs>
<clipPath id="clip0_529_1980">
<rect width="36" height="36" fill="white" transform="translate(0.5 0.600098)"/>
</clipPath>
</defs>
</svg>
