<svg width="93" height="25" viewBox="0 0 93 25" fill="none" xmlns="http://www.w3.org/2000/svg">
<g clip-path="url(#clip0_497_26059)">
<path d="M0.533691 18.1748L0.533693 6.76758L6.23729 9.93626V15.0378L10.8002 17.6044L15.3631 15.0378V9.93626L21.0667 6.76758V18.1748L10.8002 23.8784L0.533691 18.1748Z" fill="black"/>
<path fill-rule="evenodd" clip-rule="evenodd" d="M3.3855 8.35145L0.533691 6.76709L10.8002 1.06348L21.0667 6.76709L18.2149 8.35145V16.7484L10.8002 21.0261L3.3855 16.7484L3.3855 8.35145ZM17.906 8.52309L15.3631 9.93577V9.90408L10.8002 7.33743L6.23729 9.90408V9.93577L3.69444 8.52309V16.5729L10.8002 20.6724L17.906 16.5729V8.52309Z" fill="url(#paint0_linear_497_26059)"/>
<path d="M31.1073 17.714L29.0684 14.0134H28.4959V17.714H26.1079V7.91082H30.1158C30.8885 7.91082 31.5448 8.04581 32.0848 8.3158C32.6341 8.58578 33.0437 8.95817 33.3137 9.43297C33.5837 9.89846 33.7187 10.4198 33.7187 10.997C33.7187 11.6487 33.5325 12.2306 33.1601 12.7426C32.797 13.2546 32.257 13.6177 31.5402 13.8318L33.8024 17.714H31.1073ZM28.4959 12.3237H29.9761C30.4137 12.3237 30.7395 12.2166 30.9536 12.0025C31.1771 11.7883 31.2888 11.4858 31.2888 11.0948C31.2888 10.7224 31.1771 10.4291 30.9536 10.215C30.7395 10.0009 30.4137 9.8938 29.9761 9.8938H28.4959V12.3237Z" fill="black"/>
<path d="M34.8127 12.7985C34.8127 11.8302 35.0222 10.9691 35.4411 10.215C35.86 9.45159 36.4419 8.86042 37.1867 8.44148C37.9408 8.01323 38.7926 7.7991 39.7422 7.7991C40.9059 7.7991 41.9021 8.10633 42.7307 8.72077C43.5592 9.33522 44.1132 10.1731 44.3925 11.2344H41.7671C41.5716 10.8248 41.2923 10.5129 40.9292 10.2988C40.5754 10.0847 40.1705 9.97759 39.7143 9.97759C38.9788 9.97759 38.383 10.2336 37.9268 10.7456C37.4706 11.2577 37.2425 11.942 37.2425 12.7985C37.2425 13.655 37.4706 14.3392 37.9268 14.8513C38.383 15.3633 38.9788 15.6193 39.7143 15.6193C40.1705 15.6193 40.5754 15.5123 40.9292 15.2981C41.2923 15.084 41.5716 14.7721 41.7671 14.3625H44.3925C44.1132 15.4238 43.5592 16.2617 42.7307 16.8761C41.9021 17.4813 40.9059 17.7838 39.7422 17.7838C38.7926 17.7838 37.9408 17.5744 37.1867 17.1554C36.4419 16.7272 35.86 16.136 35.4411 15.3819C35.0222 14.6278 34.8127 13.7667 34.8127 12.7985Z" fill="black"/>
<path d="M62.304 7.91082L59.7485 17.714H56.8578L55.2937 11.2623L53.6738 17.714H50.7831L48.2974 7.91082H50.853L52.2634 15.0468L54.009 7.91082H56.6343L58.3101 15.0468L59.7345 7.91082H62.304Z" fill="black"/>
<path d="M64.7025 9.11178C64.2836 9.11178 63.9391 8.99076 63.6691 8.7487C63.4085 8.49734 63.2781 8.19012 63.2781 7.82703C63.2781 7.45464 63.4085 7.14742 63.6691 6.90537C63.9391 6.654 64.2836 6.52832 64.7025 6.52832C65.1122 6.52832 65.4473 6.654 65.708 6.90537C65.978 7.14742 66.1129 7.45464 66.1129 7.82703C66.1129 8.19012 65.978 8.49734 65.708 8.7487C65.4473 8.99076 65.1122 9.11178 64.7025 9.11178ZM65.8895 9.92173V17.714H63.5016V9.92173H65.8895Z" fill="black"/>
<path d="M70.008 7.38017V17.714H67.62V7.38017H70.008Z" fill="black"/>
<path d="M74.1265 7.38017V17.714H71.7385V7.38017H74.1265Z" fill="black"/>
<path d="M83.2024 13.6922C83.2024 13.9156 83.1885 14.1484 83.1605 14.3904H77.7562C77.7934 14.8745 77.9471 15.2469 78.217 15.5076C78.4963 15.759 78.8361 15.8846 79.2365 15.8846C79.8323 15.8846 80.2466 15.6333 80.4793 15.1306H83.0209C82.8905 15.6426 82.6531 16.1034 82.3087 16.5131C81.9735 16.9227 81.5499 17.2439 81.0379 17.4766C80.5259 17.7094 79.9533 17.8257 79.3202 17.8257C78.5568 17.8257 77.8772 17.6628 77.2814 17.337C76.6856 17.0111 76.2201 16.5456 75.8849 15.9405C75.5498 15.3354 75.3822 14.6278 75.3822 13.8179C75.3822 13.0079 75.5451 12.3004 75.871 11.6952C76.2061 11.0901 76.6716 10.6246 77.2674 10.2988C77.8633 9.97294 78.5475 9.81002 79.3202 9.81002C80.0743 9.81002 80.7446 9.96828 81.3312 10.2848C81.9177 10.6013 82.3739 11.0529 82.6997 11.6394C83.0348 12.2259 83.2024 12.9102 83.2024 13.6922ZM80.7586 13.0638C80.7586 12.6542 80.619 12.3283 80.3397 12.0863C80.0604 11.8442 79.7113 11.7232 79.2923 11.7232C78.892 11.7232 78.5522 11.8395 78.2729 12.0723C78.0029 12.305 77.8353 12.6355 77.7702 13.0638H80.7586Z" fill="black"/>
<path d="M92.422 9.92173L87.5344 21.4146H84.9649L86.7524 17.4487L83.5824 9.92173H86.2497L88.0511 14.7954L89.8386 9.92173H92.422Z" fill="black"/>
</g>
<defs>
<linearGradient id="paint0_linear_497_26059" x1="0.533691" y1="1.06348" x2="24.6201" y2="14.328" gradientUnits="userSpaceOnUse">
<stop stop-color="#7549F2"/>
<stop offset="0.479167" stop-color="#DF58D2"/>
<stop offset="1" stop-color="#ED787C"/>
</linearGradient>
<clipPath id="clip0_497_26059">
<rect width="92.8953" height="23.072" fill="white" transform="translate(0 1.06348)"/>
</clipPath>
</defs>
</svg>
