<svg width="154" height="38" viewBox="0 0 154 38" fill="none" xmlns="http://www.w3.org/2000/svg">
<path d="M1.37891 28.1819L1.37891 9.39404L10.7728 14.6129V23.0152L18.288 27.2425L25.8031 23.0152V14.6129L35.1971 9.39404V28.1819L18.288 37.5758L1.37891 28.1819Z" fill="white"/>
<path fill-rule="evenodd" clip-rule="evenodd" d="M6.07588 12.0034L1.37891 9.39394L18.288 0L35.1971 9.39394L30.5001 12.0034V25.8333L18.288 32.8788L6.07587 25.8333L6.07588 12.0034ZM29.9913 12.2861L25.8031 14.6128V14.5606L18.288 10.3333L10.7728 14.5606V14.6128L6.58471 12.2861V25.5443L18.288 32.2962L29.9913 25.5443V12.2861Z" fill="url(#paint0_linear_497_25908)"/>
<path d="M51.734 27.423L48.376 21.328H47.433V27.423H43.5V11.277H50.101C51.3737 11.277 52.4547 11.4993 53.344 11.944C54.2487 12.3887 54.9233 13.002 55.368 13.784C55.8127 14.5507 56.035 15.4093 56.035 16.36C56.035 17.4333 55.7283 18.3917 55.115 19.235C54.517 20.0783 53.6277 20.6763 52.447 21.029L56.173 27.423H51.734ZM47.433 18.545H49.871C50.5917 18.545 51.1283 18.3687 51.481 18.016C51.849 17.6633 52.033 17.165 52.033 16.521C52.033 15.9077 51.849 15.4247 51.481 15.072C51.1283 14.7193 50.5917 14.543 49.871 14.543H47.433V18.545Z" fill="white"/>
<path d="M57.8369 19.327C57.8369 17.7323 58.1819 16.314 58.8719 15.072C59.5619 13.8147 60.5202 12.841 61.7469 12.151C62.9889 11.4457 64.3919 11.093 65.9559 11.093C67.8726 11.093 69.5132 11.599 70.8779 12.611C72.2426 13.623 73.1549 15.003 73.6149 16.751H69.2909C68.9689 16.0763 68.5089 15.5627 67.9109 15.21C67.3282 14.8573 66.6612 14.681 65.9099 14.681C64.6986 14.681 63.7172 15.1027 62.9659 15.946C62.2146 16.7893 61.8389 17.9163 61.8389 19.327C61.8389 20.7377 62.2146 21.8647 62.9659 22.708C63.7172 23.5513 64.6986 23.973 65.9099 23.973C66.6612 23.973 67.3282 23.7967 67.9109 23.444C68.5089 23.0913 68.9689 22.5777 69.2909 21.903H73.6149C73.1549 23.651 72.2426 25.031 70.8779 26.043C69.5132 27.0397 67.8726 27.538 65.9559 27.538C64.3919 27.538 62.9889 27.193 61.7469 26.503C60.5202 25.7977 59.5619 24.824 58.8719 23.582C58.1819 22.34 57.8369 20.9217 57.8369 19.327Z" fill="white"/>
<path d="M103.115 11.277L98.9065 27.423H94.1455L91.5695 16.797L88.9015 27.423H84.1405L80.0465 11.277H84.2555L86.5785 23.03L89.4535 11.277H93.7775L96.5375 23.03L98.8835 11.277H103.115Z" fill="white"/>
<path d="M107.066 13.255C106.376 13.255 105.809 13.0557 105.364 12.657C104.935 12.243 104.72 11.737 104.72 11.139C104.72 10.5257 104.935 10.0197 105.364 9.621C105.809 9.207 106.376 9 107.066 9C107.741 9 108.293 9.207 108.722 9.621C109.167 10.0197 109.389 10.5257 109.389 11.139C109.389 11.737 109.167 12.243 108.722 12.657C108.293 13.0557 107.741 13.255 107.066 13.255ZM109.021 14.589V27.423H105.088V14.589H109.021Z" fill="white"/>
<path d="M115.804 10.403V27.423H111.871V10.403H115.804Z" fill="white"/>
<path d="M122.587 10.403V27.423H118.654V10.403H122.587Z" fill="white"/>
<path d="M137.535 20.799C137.535 21.167 137.512 21.5503 137.466 21.949H128.565C128.627 22.7463 128.88 23.3597 129.325 23.789C129.785 24.203 130.344 24.41 131.003 24.41C131.985 24.41 132.667 23.996 133.05 23.168H137.236C137.022 24.0113 136.631 24.7703 136.063 25.445C135.511 26.1197 134.814 26.6487 133.97 27.032C133.127 27.4153 132.184 27.607 131.141 27.607C129.884 27.607 128.765 27.3387 127.784 26.802C126.802 26.2653 126.035 25.4987 125.483 24.502C124.931 23.5053 124.655 22.34 124.655 21.006C124.655 19.672 124.924 18.5067 125.46 17.51C126.012 16.5133 126.779 15.7467 127.76 15.21C128.742 14.6733 129.869 14.405 131.141 14.405C132.383 14.405 133.487 14.6657 134.453 15.187C135.42 15.7083 136.171 16.452 136.707 17.418C137.259 18.384 137.535 19.511 137.535 20.799ZM133.51 19.764C133.51 19.0893 133.28 18.5527 132.82 18.154C132.36 17.7553 131.785 17.556 131.095 17.556C130.436 17.556 129.876 17.7477 129.416 18.131C128.972 18.5143 128.696 19.0587 128.589 19.764H133.51Z" fill="white"/>
<path d="M152.72 14.589L144.67 33.518H140.438L143.382 26.986L138.161 14.589H142.554L145.521 22.616L148.465 14.589H152.72Z" fill="white"/>
<defs>
<linearGradient id="paint0_linear_497_25908" x1="1.37891" y1="0" x2="41.0496" y2="21.8468" gradientUnits="userSpaceOnUse">
<stop stop-color="#7549F2"/>
<stop offset="0.479167" stop-color="#DF58D2"/>
<stop offset="1" stop-color="#ED787C"/>
</linearGradient>
</defs>
</svg>
