<svg width="93" height="24" viewBox="0 0 93 24" fill="none" xmlns="http://www.w3.org/2000/svg">
<g clip-path="url(#clip0_499_6139)">
<path d="M0.533691 17.5747L0.533693 6.16748L6.23729 9.33616V14.4377L10.8002 17.0043L15.3631 14.4377V9.33616L21.0667 6.16748V17.5747L10.8002 23.2783L0.533691 17.5747Z" fill="black"/>
<path fill-rule="evenodd" clip-rule="evenodd" d="M3.3855 7.75184L0.533691 6.16748L10.8002 0.463867L21.0667 6.16748L18.2149 7.75184V16.1488L10.8002 20.4265L3.3855 16.1488L3.3855 7.75184ZM17.906 7.92349L15.3631 9.33616V9.30447L10.8002 6.73782L6.23729 9.30447V9.33616L3.69444 7.92349V15.9733L10.8002 20.0728L17.906 15.9733V7.92349Z" fill="url(#paint0_linear_499_6139)"/>
<path d="M31.1073 17.1139L29.0684 13.4133H28.4959V17.1139H26.1079V7.31072H30.1158C30.8885 7.31072 31.5448 7.44572 32.0848 7.7157C32.6341 7.98568 33.0437 8.35807 33.3137 8.83287C33.5837 9.29836 33.7187 9.81971 33.7187 10.3969C33.7187 11.0486 33.5325 11.6305 33.1601 12.1425C32.797 12.6545 32.257 13.0176 31.5402 13.2317L33.8024 17.1139H31.1073ZM28.4959 11.7236H29.9761C30.4137 11.7236 30.7395 11.6165 30.9536 11.4024C31.1771 11.1882 31.2888 10.8857 31.2888 10.4947C31.2888 10.1223 31.1771 9.82902 30.9536 9.61489C30.7395 9.40077 30.4137 9.29371 29.9761 9.29371H28.4959V11.7236Z" fill="black"/>
<path d="M34.8127 12.1984C34.8127 11.2301 35.0222 10.369 35.4411 9.61489C35.86 8.85149 36.4419 8.26032 37.1867 7.84138C37.9408 7.41313 38.7926 7.19901 39.7422 7.19901C40.9059 7.19901 41.9021 7.50623 42.7307 8.12067C43.5592 8.73512 44.1132 9.573 44.3925 10.6343H41.7671C41.5716 10.2247 41.2923 9.91281 40.9292 9.69868C40.5754 9.48456 40.1705 9.37749 39.7143 9.37749C38.9788 9.37749 38.383 9.63351 37.9268 10.1456C37.4706 10.6576 37.2425 11.3419 37.2425 12.1984C37.2425 13.0549 37.4706 13.7391 37.9268 14.2512C38.383 14.7632 38.9788 15.0192 39.7143 15.0192C40.1705 15.0192 40.5754 14.9122 40.9292 14.698C41.2923 14.4839 41.5716 14.172 41.7671 13.7624H44.3925C44.1132 14.8237 43.5592 15.6616 42.7307 16.276C41.9021 16.8812 40.9059 17.1837 39.7422 17.1837C38.7926 17.1837 37.9408 16.9743 37.1867 16.5553C36.4419 16.1271 35.86 15.5359 35.4411 14.7818C35.0222 14.0277 34.8127 13.1666 34.8127 12.1984Z" fill="black"/>
<path d="M62.304 7.31072L59.7485 17.1139H56.8578L55.2937 10.6622L53.6738 17.1139H50.7831L48.2974 7.31072H50.853L52.2634 14.4467L54.009 7.31072H56.6343L58.3101 14.4467L59.7345 7.31072H62.304Z" fill="black"/>
<path d="M64.7025 8.51168C64.2836 8.51168 63.9391 8.39066 63.6691 8.1486C63.4085 7.89724 63.2781 7.59002 63.2781 7.22694C63.2781 6.85455 63.4085 6.54732 63.6691 6.30527C63.9391 6.0539 64.2836 5.92822 64.7025 5.92822C65.1122 5.92822 65.4473 6.0539 65.708 6.30527C65.978 6.54732 66.1129 6.85455 66.1129 7.22694C66.1129 7.59002 65.978 7.89724 65.708 8.1486C65.4473 8.39066 65.1122 8.51168 64.7025 8.51168ZM65.8895 9.32164V17.1139H63.5016V9.32164H65.8895Z" fill="black"/>
<path d="M70.008 6.78007V17.1139H67.62V6.78007H70.008Z" fill="black"/>
<path d="M74.1265 6.78007V17.1139H71.7385V6.78007H74.1265Z" fill="black"/>
<path d="M83.2024 13.0921C83.2024 13.3155 83.1885 13.5483 83.1605 13.7903H77.7562C77.7934 14.2744 77.9471 14.6468 78.217 14.9075C78.4963 15.1589 78.8361 15.2845 79.2365 15.2845C79.8323 15.2845 80.2466 15.0332 80.4793 14.5305H83.0209C82.8905 15.0425 82.6531 15.5033 82.3087 15.913C81.9735 16.3226 81.5499 16.6438 81.0379 16.8765C80.5259 17.1093 79.9533 17.2256 79.3202 17.2256C78.5568 17.2256 77.8772 17.0627 77.2814 16.7369C76.6856 16.411 76.2201 15.9455 75.8849 15.3404C75.5498 14.7353 75.3822 14.0277 75.3822 13.2178C75.3822 12.4078 75.5451 11.7003 75.871 11.0951C76.2061 10.49 76.6716 10.0245 77.2674 9.69868C77.8633 9.37284 78.5475 9.20992 79.3202 9.20992C80.0743 9.20992 80.7446 9.36818 81.3312 9.68472C81.9177 10.0012 82.3739 10.4528 82.6997 11.0393C83.0348 11.6258 83.2024 12.3101 83.2024 13.0921ZM80.7586 12.4637C80.7586 12.0541 80.619 11.7282 80.3397 11.4862C80.0604 11.2441 79.7113 11.1231 79.2923 11.1231C78.892 11.1231 78.5522 11.2394 78.2729 11.4722C78.0029 11.7049 77.8353 12.0354 77.7702 12.4637H80.7586Z" fill="black"/>
<path d="M92.422 9.32164L87.5344 20.8146H84.9649L86.7524 16.8486L83.5824 9.32164H86.2497L88.0511 14.1953L89.8386 9.32164H92.422Z" fill="black"/>
</g>
<defs>
<linearGradient id="paint0_linear_499_6139" x1="0.533691" y1="0.463867" x2="24.6201" y2="13.7284" gradientUnits="userSpaceOnUse">
<stop stop-color="#7549F2"/>
<stop offset="0.479167" stop-color="#DF58D2"/>
<stop offset="1" stop-color="#ED787C"/>
</linearGradient>
<clipPath id="clip0_499_6139">
<rect width="92.8953" height="23.072" fill="white" transform="translate(0 0.463867)"/>
</clipPath>
</defs>
</svg>
