<svg width="43" height="27" viewBox="0 0 43 27" fill="none" xmlns="http://www.w3.org/2000/svg">
<rect x="1.1001" y="0.5" width="41" height="26" rx="6.5" fill="#1D1B1B" stroke="#9B9B9B"/>
<path d="M13.6039 23.0332V21.7623C13.6039 21.2762 13.3078 20.9578 12.7994 20.9578C12.5452 20.9578 12.2689 21.0417 12.0788 21.3181C11.9308 21.0862 11.7186 20.9578 11.4002 20.9578C11.188 20.9578 10.9758 21.022 10.808 21.254V20.9998H10.3638V23.0332H10.808V21.9104C10.808 21.5501 10.998 21.3798 11.2941 21.3798C11.5902 21.3798 11.7383 21.5698 11.7383 21.9104V23.0332H12.1825V21.9104C12.1825 21.5501 12.3947 21.3798 12.6686 21.3798C12.9648 21.3798 13.1128 21.5698 13.1128 21.9104V23.0332H13.6039ZM20.1927 20.9998H19.4722V20.3853H19.028V20.9998H18.6257V21.402H19.028V22.3348C19.028 22.8012 19.218 23.0752 19.7263 23.0752C19.9163 23.0752 20.1286 23.011 20.2766 22.9271L20.1483 22.5446C20.02 22.6285 19.8719 22.6507 19.7658 22.6507C19.5536 22.6507 19.4697 22.5224 19.4697 22.3126V21.402H20.1903V20.9998H20.1927ZM23.9634 20.9554C23.7092 20.9554 23.539 21.0837 23.4329 21.2515V20.9973H22.9887V23.0307H23.4329V21.8857C23.4329 21.5476 23.5809 21.3551 23.8573 21.3551C23.9412 21.3551 24.0473 21.3774 24.1337 21.3971L24.262 20.9726C24.1732 20.9554 24.0473 20.9554 23.9634 20.9554ZM18.2654 21.1676C18.0532 21.0195 17.7571 20.9554 17.4387 20.9554C16.9304 20.9554 16.5923 21.2095 16.5923 21.6118C16.5923 21.9499 16.8465 22.1424 17.2907 22.204L17.5029 22.2263C17.7349 22.2682 17.8632 22.3324 17.8632 22.4385C17.8632 22.5865 17.6929 22.6927 17.3968 22.6927C17.1007 22.6927 16.8662 22.5865 16.7182 22.4804L16.5059 22.8185C16.7379 22.9888 17.0562 23.0727 17.3746 23.0727C17.9668 23.0727 18.3074 22.7963 18.3074 22.4163C18.3074 22.056 18.031 21.866 17.609 21.8018L17.3968 21.7796C17.2068 21.7574 17.0587 21.7154 17.0587 21.5896C17.0587 21.4415 17.2068 21.3576 17.4412 21.3576C17.6954 21.3576 17.9496 21.4637 18.0779 21.5279L18.2654 21.1676ZM30.0834 20.9554C29.8292 20.9554 29.6589 21.0837 29.5528 21.2515V20.9973H29.1086V23.0307H29.5528V21.8857C29.5528 21.5476 29.7009 21.3551 29.9773 21.3551C30.0612 21.3551 30.1673 21.3774 30.2537 21.3971L30.382 20.9776C30.2956 20.9554 30.1698 20.9554 30.0834 20.9554ZM24.4076 22.0165C24.4076 22.631 24.8321 23.0752 25.4885 23.0752C25.7846 23.0752 25.9968 23.011 26.2091 22.8432L25.9968 22.4829C25.8266 22.6112 25.6588 22.6729 25.4663 22.6729C25.106 22.6729 24.8518 22.4187 24.8518 22.0165C24.8518 21.634 25.106 21.3798 25.4663 21.3601C25.6563 21.3601 25.8266 21.4242 25.9968 21.5501L26.2091 21.1898C25.9968 21.0195 25.7846 20.9578 25.4885 20.9578C24.8321 20.9554 24.4076 21.402 24.4076 22.0165ZM28.5164 22.0165V20.9998H28.0722V21.254C27.9241 21.064 27.7119 20.9578 27.4355 20.9578C26.863 20.9578 26.4188 21.402 26.4188 22.0165C26.4188 22.631 26.863 23.0752 27.4355 23.0752C27.7316 23.0752 27.9439 22.969 28.0722 22.779V23.0332H28.5164V22.0165ZM26.8852 22.0165C26.8852 21.6562 27.1172 21.3601 27.4997 21.3601C27.86 21.3601 28.1141 21.6365 28.1141 22.0165C28.1141 22.3768 27.86 22.6729 27.4997 22.6729C27.1196 22.6507 26.8852 22.3743 26.8852 22.0165ZM21.5697 20.9554C20.9775 20.9554 20.553 21.3798 20.553 22.014C20.553 22.6507 20.9775 23.0727 21.5919 23.0727C21.8881 23.0727 22.1842 22.9888 22.4186 22.7963L22.2064 22.478C22.0361 22.6063 21.8239 22.6902 21.6141 22.6902C21.3378 22.6902 21.0638 22.5619 20.9997 22.204H22.5025C22.5025 22.1399 22.5025 22.0979 22.5025 22.0338C22.5223 21.3798 22.1398 20.9554 21.5697 20.9554ZM21.5697 21.3379C21.8461 21.3379 22.0361 21.5081 22.0781 21.824H21.0194C21.0614 21.5501 21.2514 21.3379 21.5697 21.3379ZM32.6054 22.0165V20.1953H32.1612V21.254C32.0132 21.064 31.8009 20.9578 31.5245 20.9578C30.952 20.9578 30.5078 21.402 30.5078 22.0165C30.5078 22.631 30.952 23.0752 31.5245 23.0752C31.8207 23.0752 32.0329 22.969 32.1612 22.779V23.0332H32.6054V22.0165ZM30.9742 22.0165C30.9742 21.6562 31.2062 21.3601 31.5887 21.3601C31.949 21.3601 32.2032 21.6365 32.2032 22.0165C32.2032 22.3768 31.949 22.6729 31.5887 22.6729C31.2062 22.6507 30.9742 22.3743 30.9742 22.0165ZM16.1037 22.0165V20.9998H15.6595V21.254C15.5115 21.064 15.2992 20.9578 15.0228 20.9578C14.4503 20.9578 14.0061 21.402 14.0061 22.0165C14.0061 22.631 14.4503 23.0752 15.0228 23.0752C15.319 23.0752 15.5312 22.969 15.6595 22.779V23.0332H16.1037V22.0165ZM14.4528 22.0165C14.4528 21.6562 14.6848 21.3601 15.0673 21.3601C15.4275 21.3601 15.6817 21.6365 15.6817 22.0165C15.6817 22.3768 15.4275 22.6729 15.0673 22.6729C14.6848 22.6507 14.4528 22.3743 14.4528 22.0165Z" fill="#9B9B9B"/>
<path d="M24.7899 5.55664H18.1172V17.5449H24.7899V5.55664Z" fill="#AFAFAF"/>
<path d="M18.5615 11.5511C18.5615 9.11541 19.7065 6.95368 21.4635 5.55695C20.1704 4.54025 18.5393 3.92578 16.76 3.92578C12.5452 3.92578 9.13477 7.33618 9.13477 11.5511C9.13477 15.7659 12.5452 19.1763 16.76 19.1763C18.5393 19.1763 20.1704 18.5619 21.4635 17.5452C19.704 16.1682 18.5615 13.9867 18.5615 11.5511Z" fill="#9B9B9B"/>
<path d="M33.7926 11.5511C33.7926 15.7659 30.3822 19.1763 26.1674 19.1763C24.3881 19.1763 22.757 18.5619 21.4639 17.5452C23.2431 16.146 24.3659 13.9867 24.3659 11.5511C24.3659 9.11541 23.2209 6.95368 21.4639 5.55695C22.7545 4.54025 24.3857 3.92578 26.1649 3.92578C30.3822 3.92578 33.7926 7.35839 33.7926 11.5511Z" fill="#C6C6C6"/>
</svg>
