<svg width="43" height="28" viewBox="0 0 43 28" fill="none" xmlns="http://www.w3.org/2000/svg">
<rect x="1.1001" y="1.1001" width="41" height="26" rx="6.5" fill="#1D1B1B" stroke="#9B9B9B"/>
<path d="M13.6039 23.6333V22.3624C13.6039 21.8763 13.3078 21.5579 12.7994 21.5579C12.5452 21.5579 12.2689 21.6418 12.0788 21.9182C11.9308 21.6863 11.7186 21.5579 11.4002 21.5579C11.188 21.5579 10.9758 21.6221 10.808 21.8541V21.5999H10.3638V23.6333H10.808V22.5105C10.808 22.1502 10.998 21.9799 11.2941 21.9799C11.5902 21.9799 11.7383 22.1699 11.7383 22.5105V23.6333H12.1825V22.5105C12.1825 22.1502 12.3947 21.9799 12.6686 21.9799C12.9648 21.9799 13.1128 22.1699 13.1128 22.5105V23.6333H13.6039ZM20.1927 21.5999H19.4722V20.9854H19.028V21.5999H18.6257V22.0021H19.028V22.9349C19.028 23.4013 19.218 23.6752 19.7263 23.6752C19.9163 23.6752 20.1286 23.6111 20.2766 23.5272L20.1483 23.1447C20.02 23.2286 19.8719 23.2508 19.7658 23.2508C19.5536 23.2508 19.4697 23.1225 19.4697 22.9127V22.0021H20.1903V21.5999H20.1927ZM23.9634 21.5555C23.7092 21.5555 23.539 21.6838 23.4329 21.8516V21.5974H22.9887V23.6308H23.4329V22.4858C23.4329 22.1477 23.5809 21.9552 23.8573 21.9552C23.9412 21.9552 24.0473 21.9775 24.1337 21.9972L24.262 21.5727C24.1732 21.5555 24.0473 21.5555 23.9634 21.5555ZM18.2654 21.7677C18.0532 21.6196 17.7571 21.5555 17.4387 21.5555C16.9304 21.5555 16.5923 21.8096 16.5923 22.2119C16.5923 22.55 16.8465 22.7424 17.2907 22.8041L17.5029 22.8264C17.7349 22.8683 17.8632 22.9325 17.8632 23.0386C17.8632 23.1866 17.6929 23.2928 17.3968 23.2928C17.1007 23.2928 16.8662 23.1866 16.7182 23.0805L16.5059 23.4186C16.7379 23.5889 17.0562 23.6728 17.3746 23.6728C17.9668 23.6728 18.3074 23.3964 18.3074 23.0164C18.3074 22.6561 18.031 22.4661 17.609 22.4019L17.3968 22.3797C17.2068 22.3575 17.0587 22.3155 17.0587 22.1897C17.0587 22.0416 17.2068 21.9577 17.4412 21.9577C17.6954 21.9577 17.9496 22.0638 18.0779 22.128L18.2654 21.7677ZM30.0834 21.5555C29.8292 21.5555 29.6589 21.6838 29.5528 21.8516V21.5974H29.1086V23.6308H29.5528V22.4858C29.5528 22.1477 29.7009 21.9552 29.9773 21.9552C30.0612 21.9552 30.1673 21.9775 30.2537 21.9972L30.382 21.5777C30.2956 21.5555 30.1698 21.5555 30.0834 21.5555ZM24.4076 22.6166C24.4076 23.2311 24.8321 23.6752 25.4885 23.6752C25.7846 23.6752 25.9968 23.6111 26.2091 23.4433L25.9968 23.083C25.8266 23.2113 25.6588 23.273 25.4663 23.273C25.106 23.273 24.8518 23.0188 24.8518 22.6166C24.8518 22.2341 25.106 21.9799 25.4663 21.9602C25.6563 21.9602 25.8266 22.0243 25.9968 22.1502L26.2091 21.7899C25.9968 21.6196 25.7846 21.5579 25.4885 21.5579C24.8321 21.5555 24.4076 22.0021 24.4076 22.6166ZM28.5164 22.6166V21.5999H28.0722V21.8541C27.9241 21.6641 27.7119 21.5579 27.4355 21.5579C26.863 21.5579 26.4188 22.0021 26.4188 22.6166C26.4188 23.2311 26.863 23.6752 27.4355 23.6752C27.7316 23.6752 27.9439 23.5691 28.0722 23.3791V23.6333H28.5164V22.6166ZM26.8852 22.6166C26.8852 22.2563 27.1172 21.9602 27.4997 21.9602C27.86 21.9602 28.1141 22.2366 28.1141 22.6166C28.1141 22.9769 27.86 23.273 27.4997 23.273C27.1196 23.2508 26.8852 22.9744 26.8852 22.6166ZM21.5697 21.5555C20.9775 21.5555 20.553 21.9799 20.553 22.6141C20.553 23.2508 20.9775 23.6728 21.5919 23.6728C21.8881 23.6728 22.1842 23.5889 22.4186 23.3964L22.2064 23.0781C22.0361 23.2064 21.8239 23.2903 21.6141 23.2903C21.3378 23.2903 21.0638 23.162 20.9997 22.8041H22.5025C22.5025 22.74 22.5025 22.698 22.5025 22.6339C22.5223 21.9799 22.1398 21.5555 21.5697 21.5555ZM21.5697 21.938C21.8461 21.938 22.0361 22.1082 22.0781 22.4241H21.0194C21.0614 22.1502 21.2514 21.938 21.5697 21.938ZM32.6054 22.6166V20.7954H32.1612V21.8541C32.0132 21.6641 31.8009 21.5579 31.5245 21.5579C30.952 21.5579 30.5078 22.0021 30.5078 22.6166C30.5078 23.2311 30.952 23.6752 31.5245 23.6752C31.8207 23.6752 32.0329 23.5691 32.1612 23.3791V23.6333H32.6054V22.6166ZM30.9742 22.6166C30.9742 22.2563 31.2062 21.9602 31.5887 21.9602C31.949 21.9602 32.2032 22.2366 32.2032 22.6166C32.2032 22.9769 31.949 23.273 31.5887 23.273C31.2062 23.2508 30.9742 22.9744 30.9742 22.6166ZM16.1037 22.6166V21.5999H15.6595V21.8541C15.5115 21.6641 15.2992 21.5579 15.0228 21.5579C14.4503 21.5579 14.0061 22.0021 14.0061 22.6166C14.0061 23.2311 14.4503 23.6752 15.0228 23.6752C15.319 23.6752 15.5312 23.5691 15.6595 23.3791V23.6333H16.1037V22.6166ZM14.4528 22.6166C14.4528 22.2563 14.6848 21.9602 15.0673 21.9602C15.4275 21.9602 15.6817 22.2366 15.6817 22.6166C15.6817 22.9769 15.4275 23.273 15.0673 23.273C14.6848 23.2508 14.4528 22.9744 14.4528 22.6166Z" fill="#9B9B9B"/>
<path d="M24.7899 6.15674H18.1172V18.145H24.7899V6.15674Z" fill="#AFAFAF"/>
<path d="M18.5615 12.1512C18.5615 9.71551 19.7065 7.55378 21.4635 6.15705C20.1704 5.14034 18.5393 4.52588 16.76 4.52588C12.5452 4.52588 9.13477 7.93628 9.13477 12.1512C9.13477 16.366 12.5452 19.7764 16.76 19.7764C18.5393 19.7764 20.1704 19.162 21.4635 18.1453C19.704 16.7683 18.5615 14.5868 18.5615 12.1512Z" fill="#9B9B9B"/>
<path d="M33.7926 12.1513C33.7926 16.3662 30.3822 19.7766 26.1674 19.7766C24.3881 19.7766 22.757 19.1621 21.4639 18.1454C23.2431 16.7462 24.3659 14.5869 24.3659 12.1513C24.3659 9.71563 23.2209 7.5539 21.4639 6.15717C22.7545 5.14047 24.3857 4.526 26.1649 4.526C30.3822 4.526 33.7926 7.95861 33.7926 12.1513Z" fill="#C6C6C6"/>
</svg>
