<svg width="32" height="9" viewBox="0 0 32 9" fill="none" xmlns="http://www.w3.org/2000/svg">
<path d="M3.96422 0.561523L0.40918 8.4287H4.66506L5.19266 7.17435H6.39865L6.92626 8.4287H11.6108V7.47134L12.0282 8.4287H14.4514L14.8688 7.4511V8.4287H24.6114L25.796 7.20692L26.9053 8.4287L31.9092 8.43882L28.343 4.51708L31.9092 0.561523H26.9829L25.8297 1.76072L24.7554 0.561523H14.1568L13.2467 2.59211L12.3152 0.561523H8.06821V1.48631L7.59575 0.561523H3.96422ZM4.7877 1.67867H6.86222L9.22027 7.01345V1.67867H11.4928L13.3141 5.50368L14.9927 1.67867H17.2539V7.32389H15.878L15.8668 2.90033L13.8609 7.32389H12.6301L10.6129 2.90033V7.32389H7.78244L7.24583 6.05831H4.34672L3.81122 7.32278H2.29466L4.7877 1.67867ZM18.5127 1.67867H24.1073L25.8185 3.52702L27.5848 1.67867H29.2959L26.696 4.51597L29.2959 7.32056H27.5072L25.796 5.45075L24.0207 7.32056H18.5127V1.67867ZM5.79689 2.63381L4.84175 4.88835H6.75092L5.79689 2.63381ZM19.8943 2.84752V3.87805H22.9464V5.02667H19.8943V6.15171H23.3177L24.9084 4.49462L23.3851 2.84653H19.8943V2.84752Z" fill="#9B9B9B"/>
</svg>
