<svg width="72" height="13" viewBox="0 0 72 13" fill="none" xmlns="http://www.w3.org/2000/svg">
<path d="M8.62549 2.49094C8.13385 1.97988 7.59866 1.59426 7.01994 1.33966C6.4331 1.08065 5.80031 0.948724 5.16132 0.952182C3.72722 0.952182 2.50991 1.51435 1.50576 2.63404C0.502526 3.75373 0.00181417 5.19121 0 6.94462C0 8.63577 0.517039 10.0528 1.55293 11.1892C2.58883 12.3294 3.81702 12.899 5.2357 12.899C5.84031 12.9056 6.44003 12.7874 6.99908 12.5514C7.54243 12.3182 8.08305 11.9382 8.62186 11.4067V12.61H11.3948V1.25046H8.62639L8.62549 2.49094ZM7.89075 9.35218C7.3211 9.97754 6.60268 10.286 5.73732 10.2879C4.89827 10.2879 4.19165 9.9701 3.61928 9.3336C3.046 8.69895 2.75845 7.88869 2.75845 6.90652C2.75845 5.92714 3.04237 5.12802 3.60476 4.50267C4.16897 3.87824 4.8765 3.56882 5.72916 3.56882C6.60268 3.56882 7.32472 3.87546 7.89437 4.48873C8.46493 5.10386 8.64907 5.80355 8.64726 6.79316C8.64726 7.80599 8.46312 8.72869 7.89075 9.35218ZM27.2997 2.49094C26.8426 2.00441 26.2976 1.61342 25.695 1.33966C25.1072 1.08078 24.4736 0.948875 23.8337 0.952182C22.4032 0.952182 21.1823 1.51435 20.18 2.63404C19.1767 3.75466 18.676 5.19214 18.6742 6.94554C18.6724 8.6367 19.1894 10.0537 20.2271 11.1901C21.263 12.3303 22.4912 12.8999 23.9126 12.8999C24.5161 12.9065 25.1146 12.7883 25.6724 12.5524C26.2148 12.3191 26.7554 11.9391 27.2942 11.4076V12.6109H30.0672V1.25046H27.2997V2.49094ZM26.5649 9.35218C25.9953 9.97754 25.2751 10.286 24.4133 10.2879C23.5725 10.2879 22.8658 9.9701 22.2917 9.3336C21.7184 8.69895 21.4308 7.88869 21.4326 6.90652C21.4345 5.92714 21.7138 5.12802 22.279 4.50267C22.8432 3.87824 23.5507 3.56882 24.4034 3.56882C25.2751 3.56882 25.9971 3.87546 26.5686 4.48873C27.1391 5.10386 27.3214 5.80355 27.3196 6.79316C27.3196 7.80599 27.1373 8.72869 26.5649 9.35218ZM46.7558 1.52736C46.1598 1.15103 45.4713 0.963332 44.6858 0.963332C43.9547 0.95541 43.2335 1.13629 42.5886 1.48926C41.9491 1.83957 41.4094 2.35063 40.9677 3.02616C40.632 2.35063 40.1858 1.83771 39.6324 1.4874C39.0706 1.13429 38.4229 0.95071 37.7638 0.957757C37.0799 0.957757 36.4495 1.09063 35.8698 1.35824C35.2911 1.624 34.765 2.02727 34.2915 2.56807V1.25046H31.5158L31.5131 12.6109H34.2861L34.2879 7.5709C34.2897 6.48094 34.3831 5.68183 34.5691 5.17448C34.7577 4.66807 35.0389 4.27501 35.4154 3.99161C35.7936 3.71285 36.2118 3.57068 36.6744 3.57068C37.0871 3.57161 37.4418 3.68311 37.7339 3.90519C38.026 4.1282 38.2437 4.46736 38.3897 4.92174C38.5358 5.37705 38.6092 6.11112 38.6092 7.12674L38.6038 12.6109H41.3804V7.50121C41.384 6.41776 41.4756 5.63165 41.658 5.14289C41.843 4.65227 42.1242 4.2713 42.5006 3.99161C42.8729 3.71578 43.322 3.57013 43.7814 3.57625C44.4064 3.57625 44.8718 3.80484 45.1865 4.25736C45.5004 4.71453 45.6555 5.58426 45.6555 6.86656L45.6519 12.6109H48.4257L48.4294 5.9578C48.4294 4.5928 48.2996 3.60692 48.0393 3.00201C47.7808 2.39524 47.3526 1.90369 46.7558 1.52736ZM58.1107 9.26205C57.3687 10.0184 56.4807 10.3966 55.4484 10.3966C54.583 10.3957 53.8755 10.1513 53.3167 9.66811C52.7589 9.18493 52.4178 8.53448 52.2881 7.71493L61.1857 7.7205L61.1966 7.1797C61.1966 5.30736 60.6542 3.80298 59.5647 2.65913C58.4781 1.51993 57.0648 0.949394 55.3241 0.946607C53.6877 0.946607 52.3244 1.51807 51.2413 2.66563C50.1537 3.80855 49.6113 5.24789 49.6113 6.98085C49.6095 8.67479 50.1537 10.0807 51.2395 11.205C52.3244 12.3321 53.7349 12.8934 55.4629 12.8934C56.5786 12.8934 57.5392 12.6908 58.352 12.2829C59.1611 11.8768 59.8577 11.2459 60.4383 10.3966L58.1107 9.26205ZM53.4338 4.03993C54.0161 3.60041 54.6946 3.38205 55.4656 3.38391C56.1795 3.38391 56.8045 3.57904 57.3397 3.96931C57.8803 4.36236 58.2404 4.87063 58.4227 5.49506L52.4178 5.49134C52.728 4.79908 53.0682 4.31404 53.4338 4.04085M67.7684 6.59895L71.5174 1.2486H68.3553L66.1847 4.34563L64.0068 1.2486H60.7948L64.5818 6.63054L60.3947 12.6109H63.5568L66.1647 8.88665L68.7862 12.6109H72L67.7684 6.59895ZM18.071 0.900146C17.5576 0.900146 17.1095 0.999571 16.7357 1.19192C16.3666 1.38147 15.943 1.72714 15.4658 2.23448V1.24953H12.8171V12.6109H15.591L15.5892 6.70209C15.5892 4.53705 16.1734 3.45081 17.5875 3.45081C17.8324 3.45081 18.0828 3.50563 18.3349 3.60227C18.7903 2.82174 19.3164 2.0886 19.9042 1.41307C19.2711 1.07948 18.6597 0.900146 18.071 0.900146Z" fill="white"/>
</svg>
