<svg width="32" height="9" viewBox="0 0 32 9" fill="none" xmlns="http://www.w3.org/2000/svg">
<path d="M3.96422 0.161621L0.40918 8.0288H4.66506L5.19266 6.77444H6.39865L6.92626 8.0288H11.6108V7.07144L12.0282 8.0288H14.4514L14.8688 7.0512V8.0288H24.6114L25.796 6.80702L26.9053 8.0288L31.9092 8.03892L28.343 4.11717L31.9092 0.161621H26.9829L25.8297 1.36082L24.7554 0.161621H14.1568L13.2467 2.19221L12.3152 0.161621H8.06821V1.08641L7.59575 0.161621H3.96422ZM4.7877 1.27877H6.86222L9.22027 6.61355V1.27877H11.4928L13.3141 5.10378L14.9927 1.27877H17.2539V6.92399H15.878L15.8668 2.50043L13.8609 6.92399H12.6301L10.6129 2.50043V6.92399H7.78244L7.24583 5.65841H4.34672L3.81122 6.92288H2.29466L4.7877 1.27877ZM18.5127 1.27877H24.1073L25.8185 3.12711L27.5848 1.27877H29.2959L26.696 4.11606L29.2959 6.92066H27.5072L25.796 5.05085L24.0207 6.92066H18.5127V1.27877ZM5.79689 2.23391L4.84175 4.48845H6.75092L5.79689 2.23391ZM19.8943 2.44762V3.47815H22.9464V4.62676H19.8943V5.75181H23.3177L24.9084 4.09472L23.3851 2.44663H19.8943V2.44762Z" fill="#9B9B9B"/>
</svg>
