<svg width="42" height="27" viewBox="0 0 42 27" fill="none" xmlns="http://www.w3.org/2000/svg">
<rect x="0.5" y="0.5" width="41" height="26" rx="6.5" fill="#1D1B1B" stroke="#9B9B9B"/>
<path d="M18.2018 17.7174H15.7339L17.2775 8.17285H19.7453L18.2018 17.7174Z" fill="#9B9B9B"/>
<path d="M27.1482 8.40635C26.6614 8.21323 25.8894 8 24.9347 8C22.4975 8 20.7813 9.29962 20.7708 11.1577C20.7505 12.5286 21.9995 13.29 22.9337 13.7471C23.8885 14.2142 24.2131 14.519 24.2131 14.9354C24.2034 15.5748 23.4415 15.8695 22.731 15.8695C21.7457 15.8695 21.2178 15.7176 20.4154 15.3618L20.0905 15.2093L19.7451 17.3519C20.3239 17.6156 21.3904 17.8496 22.4975 17.8598C25.0871 17.8598 26.7729 16.5803 26.7929 14.6003C26.8027 13.5137 26.1432 12.6812 24.7213 12.0009C23.8581 11.5642 23.3295 11.2697 23.3295 10.8229C23.3397 10.4166 23.7766 10.0006 24.751 10.0006C25.5533 9.9802 26.1428 10.1731 26.5894 10.366L26.8126 10.4674L27.1482 8.40635Z" fill="#9B9B9B"/>
<path d="M30.4282 14.3361C30.6314 13.7878 31.4135 11.6656 31.4135 11.6656C31.4032 11.686 31.6163 11.1072 31.7382 10.7518L31.9106 11.5743C31.9106 11.5743 32.378 13.8589 32.4795 14.3361C32.0938 14.3361 30.9156 14.3361 30.4282 14.3361ZM33.4745 8.17285H31.5656C30.9769 8.17285 30.5296 8.34532 30.2757 8.96477L26.6099 17.7173H29.1994C29.1994 17.7173 29.6257 16.5393 29.7173 16.2856C30.0014 16.2856 32.5205 16.2856 32.886 16.2856C32.9568 16.6206 33.1804 17.7173 33.1804 17.7173H35.4655L33.4745 8.17285Z" fill="#9B9B9B"/>
<path d="M13.6722 8.17285L11.2553 14.6813L10.9912 13.3613C10.5443 11.8382 9.14296 10.1834 7.5791 9.36059L9.79291 17.7073H12.4027L16.2818 8.17285H13.6722Z" fill="#9B9B9B"/>
<path d="M9.01128 8.17285H5.04062L5 8.3657C8.09736 9.15776 10.1487 11.067 10.9915 13.3617L10.1283 8.97516C9.98619 8.36557 9.54948 8.19296 9.01128 8.17285Z" fill="#DFDFDF"/>
</svg>
