<svg width="50" height="26" viewBox="0 0 50 26" fill="none" xmlns="http://www.w3.org/2000/svg">
<path fill-rule="evenodd" clip-rule="evenodd" d="M31.3266 17.0106C31.0279 17.0106 30.5683 16.9876 30.17 16.911V12.1622C30.553 11.9861 31.0509 11.8865 31.6483 11.8865C33.1036 11.8865 34.0839 12.7826 34.0839 14.3605C34.0839 16.0532 33.027 17.0182 31.3343 17.0182M31.8551 9.78019C31.2347 9.78019 30.576 9.85678 30.1777 10.0559V5.94287H27.7803V18.6497C28.8373 18.9254 30.216 19.0709 31.4108 19.0709C34.4822 19.0709 36.5196 17.4318 36.5196 14.4447C36.5196 11.6108 34.6201 9.78019 31.8474 9.78019M41.3373 9.71125C38.9936 9.71125 37.477 10.5768 37.477 13.2728V18.9331H39.9203V13.4337C39.9203 12.4226 40.4642 11.8942 41.5135 11.8942C42.1032 11.8942 42.7083 11.9707 43.2138 12.1316V9.8721C42.5934 9.77253 41.9654 9.71891 41.3373 9.71125Z" fill="#575551"/>
<path fill-rule="evenodd" clip-rule="evenodd" d="M48.3226 16.9875C47.2809 16.9875 46.7448 16.4667 46.7448 15.471V11.9554H49.8928V9.96394H46.7448V6.64746H44.3321V15.6395C44.3321 18.2896 45.8257 19.1551 48.1464 19.1551C48.7209 19.1551 49.3643 19.0938 50 18.9943V16.7654C49.5021 16.9263 48.9047 17.0029 48.3226 17.0029" fill="#575551"/>
<path fill-rule="evenodd" clip-rule="evenodd" d="M10.5162 0.619629C10.3784 0.619629 10.2405 0.650266 10.1333 0.703881L0.528493 5.94285L11.2822 12.2082C11.3817 12.2618 11.4583 12.392 11.4583 12.5069V21.6368C11.4583 21.7517 11.3741 21.8819 11.2745 21.9355L10.6924 22.2572C10.6464 22.2802 10.5852 22.2955 10.5162 22.2955H10.5009C10.432 22.2955 10.363 22.2878 10.3171 22.2572L9.73499 21.9355C9.63542 21.8819 9.55882 21.7517 9.55882 21.6368V13.4949C9.55882 13.4337 9.51287 13.3647 9.45925 13.3341L0 7.81938V18.619C0 18.8641 0.168505 19.1552 0.382966 19.2777L10.1409 25.0299C10.2482 25.0911 10.3784 25.1218 10.5162 25.1218C10.6541 25.1218 10.792 25.0911 10.8915 25.0299L20.6495 19.2777C20.8563 19.1552 21.0248 18.8565 21.0248 18.619V7.81938L14.6063 11.5571C14.5067 11.6184 14.3536 11.6107 14.254 11.5571L13.6872 11.2201C13.6412 11.1895 13.5953 11.1435 13.5646 11.0899C13.5263 11.021 13.511 10.9597 13.5034 10.8984L13.488 10.2321C13.488 10.1172 13.557 9.98697 13.6566 9.92569L20.4963 5.94285L10.8992 0.703881C10.792 0.642607 10.6541 0.619629 10.5162 0.619629Z" fill="url(#paint0_linear_577_4109)"/>
<defs>
<linearGradient id="paint0_linear_577_4109" x1="3.66421" y1="21.4223" x2="12.5906" y2="13.9694" gradientUnits="userSpaceOnUse">
<stop stop-color="#A80034"/>
<stop offset="1" stop-color="#DB0031"/>
</linearGradient>
</defs>
</svg>
