<svg width="16" height="17" viewBox="0 0 16 17" fill="none" xmlns="http://www.w3.org/2000/svg">
<path d="M8 0.0708008C6.41775 0.0708008 4.87103 0.539993 3.55544 1.41904C2.23985 2.29809 1.21447 3.54752 0.608967 5.00933C0.00346627 6.47114 -0.15496 8.07967 0.153721 9.63152C0.462403 11.1834 1.22433 12.6088 2.34315 13.7277C3.46197 14.8465 4.88743 15.6084 6.43928 15.9171C7.99113 16.2258 9.59966 16.0673 11.0615 15.4618C12.5233 14.8563 13.7727 13.831 14.6518 12.5154C15.5308 11.1998 16 9.65305 16 8.0708C16 5.94907 15.1571 3.91424 13.6569 2.41395C12.1566 0.913655 10.1217 0.0708008 8 0.0708008ZM6.85715 11.2651L4 8.40794L4.90857 7.49937L6.85715 9.44794L11.0914 5.21366L12.0034 6.11994L6.85715 11.2651Z" fill="#F3D869"/>
</svg>
