<svg width="30" height="13" viewBox="0 0 30 13" fill="none" xmlns="http://www.w3.org/2000/svg">
<path d="M5.48157 2.5178C5.12996 2.92313 4.5674 3.24282 4.00483 3.19715C3.93451 2.6491 4.20994 2.0668 4.53224 1.70714C4.88384 1.2904 5.49915 0.993539 5.99725 0.970703C6.05585 1.54159 5.82731 2.10106 5.48157 2.5178ZM5.99139 3.30562C5.17684 3.25995 4.4795 3.75662 4.09274 3.75662C3.70011 3.75662 3.10825 3.32846 2.46364 3.33988C1.62566 3.35129 0.84627 3.81371 0.418486 4.55015C-0.460521 6.02303 0.189944 8.20381 1.03965 9.40267C1.45571 9.99639 1.95382 10.6472 2.61014 10.6244C3.23131 10.6015 3.47743 10.2305 4.22752 10.2305C4.98346 10.2305 5.20028 10.6244 5.85661 10.6129C6.53637 10.6015 6.96416 10.0192 7.38022 9.42551C7.85489 8.75186 8.04827 8.09535 8.05999 8.06109C8.04827 8.04968 6.74734 7.56442 6.73562 6.10296C6.7239 4.88126 7.76112 4.29896 7.808 4.26471C7.222 3.4198 6.30783 3.32846 5.99139 3.30562ZM10.697 1.65006V10.5502H12.1151V7.50733H14.0783C15.8714 7.50733 17.1313 6.30848 17.1313 4.57299C17.1313 2.8375 15.8949 1.65006 14.1251 1.65006H10.697ZM12.1151 2.81466H13.7501C14.9807 2.81466 15.6839 3.45405 15.6839 4.5787C15.6839 5.70334 14.9807 6.34844 13.7442 6.34844H12.1151V2.81466ZM19.7215 10.6187C20.6122 10.6187 21.4385 10.1791 21.8135 9.4826H21.8428V10.5502H23.1555V6.12008C23.1555 4.83559 22.1007 4.00781 20.4774 4.00781C18.9714 4.00781 17.858 4.84701 17.817 6.0002H19.0945C19.1999 5.45215 19.7215 5.09249 20.4364 5.09249C21.3037 5.09249 21.7901 5.4864 21.7901 6.21143V6.70239L20.0203 6.80515C18.3737 6.9022 17.4829 7.55871 17.4829 8.70048C17.4829 9.85367 18.403 10.6187 19.7215 10.6187ZM20.1024 9.56252C19.3464 9.56252 18.8659 9.20857 18.8659 8.66623C18.8659 8.10676 19.3289 7.78136 20.2137 7.72998L21.7901 7.63293V8.13531C21.7901 8.9688 21.0634 9.56252 20.1024 9.56252ZM24.9076 12.9707C26.2906 12.9707 26.9411 12.4569 27.5095 10.8984L30 4.09344H28.5584L26.8883 9.35129H26.859L25.1889 4.09344H23.7063L26.1089 10.573L25.98 10.9669C25.7632 11.6348 25.4116 11.8917 24.7846 11.8917C24.6732 11.8917 24.4564 11.8803 24.3685 11.8689V12.9365C24.4505 12.9593 24.8021 12.9707 24.9076 12.9707Z" fill="#F3D869"/>
</svg>
