<svg width="43" height="27" viewBox="0 0 43 27" fill="none" xmlns="http://www.w3.org/2000/svg">
<rect x="0.699707" y="0.5" width="41" height="26" rx="6.5" fill="#D6E5FF" stroke="#58719C"/>
<path d="M17.1335 16.8496V8.11426H20.4099C21.0819 8.11426 21.6452 8.23923 22.1016 8.48917C22.558 8.73912 22.9039 9.08324 23.1376 9.51974C23.3712 9.95623 23.4889 10.4525 23.4889 11.0067C23.4889 11.5609 23.3712 12.0644 23.1358 12.4991C22.9003 12.9338 22.5508 13.2761 22.0907 13.5243C21.6307 13.7724 21.062 13.8974 20.3882 13.8974H18.2166V12.5969H20.1745C20.5675 12.5969 20.8881 12.5281 21.138 12.3923C21.388 12.2564 21.5745 12.0681 21.6941 11.829C21.8154 11.5899 21.8752 11.3164 21.8752 11.0049C21.8752 10.6934 21.8154 10.4217 21.6941 10.1863C21.5727 9.9508 21.3862 9.76606 21.1344 9.63384C20.8827 9.50162 20.5585 9.43642 20.1636 9.43642H18.7129V16.8514H17.1299L17.1335 16.8496Z" fill="#58719C"/>
<path d="M26.566 16.9824C26.1513 16.9824 25.7782 16.9081 25.4467 16.7578C25.1153 16.6093 24.8545 16.3883 24.6625 16.0949C24.4705 15.8015 24.3745 15.4411 24.3745 15.0118C24.3745 14.6424 24.4433 14.3363 24.5792 14.0954C24.715 13.8545 24.9016 13.6607 25.1388 13.5158C25.3743 13.3709 25.6405 13.2604 25.9394 13.1843C26.2364 13.1083 26.5443 13.0539 26.8631 13.0195C27.247 12.9797 27.5586 12.9435 27.7976 12.9109C28.0367 12.8783 28.2106 12.8275 28.3211 12.7569C28.4316 12.6863 28.4859 12.5776 28.4859 12.4309V12.4055C28.4859 12.085 28.3899 11.835 28.1997 11.6593C28.0096 11.4836 27.7343 11.3949 27.3756 11.3949C26.9971 11.3949 26.6983 11.4782 26.4773 11.643C26.2563 11.8079 26.1078 12.0035 26.0317 12.228L24.59 12.0234C24.7041 11.6249 24.8907 11.2917 25.1533 11.0236C25.4141 10.7556 25.7347 10.5527 26.1132 10.4187C26.4918 10.2828 26.9102 10.2158 27.3666 10.2158C27.6817 10.2158 27.9969 10.252 28.3102 10.3263C28.6235 10.4006 28.9097 10.5219 29.1669 10.6904C29.4259 10.8588 29.6342 11.0888 29.7918 11.3786C29.9493 11.6684 30.029 12.0306 30.029 12.4671V16.852H28.5439V15.9518H28.4931C28.399 16.133 28.2686 16.3032 28.0983 16.4608C27.9299 16.6184 27.718 16.7451 27.4626 16.8411C27.2072 16.9371 26.9102 16.9842 26.5697 16.9842L26.566 16.9824ZM26.9663 15.8486C27.276 15.8486 27.5459 15.787 27.7723 15.6639C28.0005 15.5407 28.1762 15.3759 28.2993 15.1712C28.4225 14.9666 28.4841 14.7438 28.4841 14.5011V13.7295C28.4352 13.7694 28.3537 13.8056 28.2396 13.84C28.1255 13.8744 27.9951 13.9034 27.8538 13.9306C27.7107 13.9559 27.5712 13.9795 27.4318 13.9994C27.2923 14.0193 27.171 14.0374 27.0696 14.0501C26.8395 14.0809 26.6331 14.1334 26.4501 14.204C26.2672 14.2747 26.1241 14.3743 26.0191 14.5011C25.914 14.6279 25.8615 14.7909 25.8615 14.9901C25.8615 15.2745 25.9647 15.49 26.173 15.6349C26.3813 15.7798 26.6457 15.8522 26.9663 15.8522V15.8486Z" fill="#58719C"/>
<path d="M32.3041 19.3078C32.094 19.3078 31.9002 19.2915 31.7227 19.2589C31.5452 19.2263 31.4039 19.1883 31.2989 19.1466L31.6575 17.944C31.8821 18.0092 32.0831 18.04 32.2588 18.0382C32.4345 18.0345 32.5903 17.9802 32.7261 17.8733C32.8619 17.7665 32.976 17.589 33.0702 17.3427L33.2024 16.9895L30.8262 10.3008H32.4635L33.974 15.2489H34.0428L35.557 10.3008H37.1997L34.5753 17.6469C34.4522 17.9947 34.291 18.2917 34.0881 18.5399C33.8853 18.788 33.6389 18.98 33.3473 19.1122C33.0557 19.2444 32.708 19.3096 32.3041 19.3096V19.3078Z" fill="#58719C"/>
<path d="M10.0446 17.3165C7.59047 17.3165 5.80826 15.6683 5.80826 13.3989C5.80826 12.5803 6.05821 11.3758 7.24816 10.2891L7.2717 10.2674L8.53047 11.5696C8.51598 11.5841 8.49606 11.6022 8.4707 11.6258C7.90561 12.1419 7.61945 12.7378 7.61945 13.3989C7.61945 14.6595 8.59386 15.5053 10.0446 15.5053C11.9264 15.5053 13.1436 14.1922 13.1436 12.1582C13.1436 10.5354 11.8649 8.81118 9.49583 8.81118C7.7408 8.81118 6.53455 10.0555 6.52368 10.0681L5.19971 8.82929C5.26853 8.75504 6.93301 7 9.49402 7C12.9117 7 14.9529 9.62259 14.9529 12.1582C14.9529 15.1956 12.9335 17.3165 10.0428 17.3165H10.0446Z" fill="#58719C"/>
</svg>
