<svg width="30" height="31" viewBox="0 0 30 31" fill="none" xmlns="http://www.w3.org/2000/svg">
<path d="M21.9725 6.5107L19.4725 5.1982C17.2775 4.04695 16.18 3.4707 15 3.4707C13.82 3.4707 12.7225 4.0457 10.5275 5.1982L10.1262 5.40945L21.28 11.7832L26.3 9.2707C25.4925 8.3557 24.19 7.67195 21.9725 6.5082V6.5107ZM27.185 10.9257L22.1875 13.4257V17.2207C22.1875 17.4693 22.0887 17.7078 21.9129 17.8836C21.7371 18.0594 21.4986 18.1582 21.25 18.1582C21.0014 18.1582 20.7629 18.0594 20.5871 17.8836C20.4113 17.7078 20.3125 17.4693 20.3125 17.2207V14.362L15.9375 16.5495V28.3507C16.835 28.127 17.8563 27.592 19.4725 26.7432L21.9725 25.4307C24.6612 24.0195 26.0062 23.3145 26.7537 22.0457C27.5 20.7782 27.5 19.1995 27.5 16.0457V15.8995C27.5 13.5332 27.5 12.0532 27.185 10.9257ZM14.0625 28.3507V16.5507L2.815 10.9257C2.5 12.0532 2.5 13.5332 2.5 15.897V16.0432C2.5 19.1995 2.5 20.7782 3.24625 22.0457C3.99375 23.3145 5.33875 24.0207 8.0275 25.432L10.5275 26.7432C12.1437 27.592 13.165 28.127 14.0625 28.3507ZM3.7 9.27195L15 14.922L19.2638 12.7907L8.15625 6.4432L8.0275 6.5107C5.81125 7.6732 4.5075 8.35695 3.7 9.2732V9.27195Z" fill="#F3D869"/>
</svg>
