<svg width="81" height="13" viewBox="0 0 81 13" fill="none" xmlns="http://www.w3.org/2000/svg">
<path fill-rule="evenodd" clip-rule="evenodd" d="M17.3967 3.91415L18.3093 0.342773H0.899902L3.90969 3.91415H17.3967Z" fill="url(#paint0_linear_50_4111)"/>
<path fill-rule="evenodd" clip-rule="evenodd" d="M0.899902 1.26414L3.67277 3.91415H3.90969L0.899902 0.342773V1.26414Z" fill="url(#paint1_linear_50_4111)"/>
<path fill-rule="evenodd" clip-rule="evenodd" d="M8.23547 8.09982L5.28711 4.60742H17.1859L16.3084 8.09982H8.23547Z" fill="url(#paint2_linear_50_4111)"/>
<path fill-rule="evenodd" clip-rule="evenodd" d="M8.02487 8.09982L5.28711 5.48491V4.60742L8.23547 8.09982H8.02487Z" fill="url(#paint3_linear_50_4111)"/>
<path fill-rule="evenodd" clip-rule="evenodd" d="M13.1319 12.4875L10.1484 8.97754H16.0803L15.1677 12.4875H13.1319Z" fill="url(#paint4_linear_50_4111)"/>
<path fill-rule="evenodd" clip-rule="evenodd" d="M10.1484 9.85503L12.9564 12.4875H13.1319L10.1484 8.97754V9.85503Z" fill="url(#paint5_linear_50_4111)"/>
<path fill-rule="evenodd" clip-rule="evenodd" d="M15.7705 12.487H17.4582L18.3517 8.98535H16.664L15.7705 12.487Z" fill="url(#paint6_linear_50_4111)"/>
<path fill-rule="evenodd" clip-rule="evenodd" d="M16.9126 8.0667H18.5755L19.469 4.62305H17.7813L16.9126 8.0667Z" fill="url(#paint7_linear_50_4111)"/>
<path fill-rule="evenodd" clip-rule="evenodd" d="M18.0044 3.89805H19.7045L20.5732 0.361328H18.8731L18.0044 3.89805Z" fill="url(#paint8_linear_50_4111)"/>
<path d="M33.9868 12.5004C33.1834 12.3201 32.7528 11.9834 32.4227 11.2772C32.2427 10.8921 32.2331 10.8226 32.2387 9.95603C32.243 9.28607 32.2851 8.85106 32.3958 8.32998C32.7456 6.68386 33.5004 4.86199 34.1272 4.15131C34.8289 3.35558 35.7605 2.95458 37.1742 2.83978C38.539 2.72896 39.6814 2.90396 40.2414 3.30961C40.8141 3.72448 41.0067 4.20779 41.0067 5.23043C41.0067 5.9759 40.8127 7.07574 40.5897 7.59396C40.3586 8.13125 40.3849 8.12672 37.4929 8.12672H34.982L34.9146 8.38079C34.5987 9.5736 34.6519 10.0799 35.1259 10.3889C35.4713 10.614 36.6844 10.6962 37.6593 10.5606C38.3888 10.4592 38.8769 10.26 39.2487 9.91223C39.7712 9.42352 39.8042 9.48604 39.544 10.4721C39.1187 12.0842 39.041 12.2116 38.3442 12.4391C37.8616 12.5966 34.6191 12.6422 33.9868 12.5004ZM38.8296 6.31434C39.0214 5.55244 38.9742 5.16341 38.6534 4.86075C38.1721 4.40679 36.9187 4.43036 36.2964 4.90507C36.0197 5.11611 35.7568 5.54539 35.5421 6.13686L35.3855 6.56842H37.0756H38.7656L38.8296 6.31434ZM64.7976 12.4604C64.0959 12.2766 63.7298 11.9963 63.4327 11.4154L63.1956 10.9517L63.1959 9.9288C63.1961 9.1041 63.227 8.76812 63.355 8.19501C63.7587 6.38759 64.4409 4.8343 65.1707 4.0606C66.0096 3.17138 67.0105 2.83262 68.819 2.82581C70.6102 2.81906 71.4193 3.17356 71.8144 4.13827C71.9957 4.58087 71.9767 5.9256 71.7778 6.73013C71.5885 7.49575 71.4146 7.88789 71.2137 8.00236C71.092 8.07168 70.4528 8.10077 68.4803 8.12672L65.9057 8.1606L65.7836 8.63486C65.6221 9.26279 65.6114 9.79671 65.755 10.0677C65.8248 10.1992 65.9922 10.342 66.1918 10.4403C66.4898 10.5871 66.5985 10.5996 67.5656 10.5984C69.0044 10.5968 69.6516 10.4251 70.2304 9.89157C70.4963 9.64645 70.6822 9.54904 70.6822 9.6548C70.6822 9.78556 70.123 11.7576 70.0409 11.9164C69.768 12.444 69.0386 12.5998 66.8652 12.5946C65.5418 12.5915 65.2178 12.5705 64.7976 12.4604ZM69.7921 6.18448C70.0359 4.97064 69.6129 4.49692 68.3415 4.55989C67.3465 4.60917 66.8623 5.02133 66.4741 6.14966C66.4037 6.35438 66.3461 6.53235 66.3461 6.54515C66.3461 6.55794 67.1041 6.56842 68.0305 6.56842H69.715L69.7921 6.18448ZM20.6945 12.4493C20.5658 12.3206 20.5981 11.966 20.8127 11.1525C21.8223 7.32535 23.3378 1.33955 23.3435 1.15653C23.3485 0.996603 23.3058 0.89134 23.2015 0.806912C23.1194 0.740474 23.0523 0.637648 23.0523 0.57841C23.0523 0.48332 23.2224 0.470703 24.5042 0.470703C25.7738 0.470703 25.9703 0.484993 26.0699 0.5846C26.227 0.741737 26.195 0.925856 25.6393 3.05862C25.3801 4.05344 25.1849 4.88425 25.2055 4.90487C25.2261 4.92549 26.0312 4.94236 26.9947 4.94236H28.7464L28.8113 4.78992C28.8961 4.59058 29.6769 1.5718 29.7302 1.23708C29.7652 1.01762 29.7451 0.954183 29.5962 0.814593C29.2447 0.484991 29.2988 0.470703 30.898 0.470703C32.4957 0.470703 32.5376 0.48 32.5376 0.833686C32.5376 0.996401 31.7023 4.34313 30.878 7.48307C29.9133 11.1577 29.7501 11.8693 29.8286 12.059C29.8721 12.164 29.9507 12.2664 30.0031 12.2865C30.0556 12.3066 30.0986 12.3698 30.0986 12.4269C30.0986 12.5169 29.9027 12.5306 28.6216 12.5306C27.0278 12.5306 26.982 12.5206 26.982 12.1731C26.982 12.0659 27.2716 10.8629 27.6256 9.49974C27.9796 8.13661 28.2692 6.98039 28.2692 6.93037C28.2692 6.85654 27.9282 6.83948 26.4569 6.8397L24.6445 6.83998L24.0151 9.3296C23.6689 10.6989 23.3868 11.874 23.3883 11.9409C23.3898 12.0078 23.4612 12.1327 23.547 12.2184C23.6327 12.3042 23.6912 12.4095 23.6768 12.4525C23.6392 12.5654 20.8076 12.5624 20.6945 12.4493ZM41.3164 12.4242C41.2579 12.3656 41.2099 12.2779 41.2099 12.2292C41.2099 12.1805 41.7126 10.1797 42.327 7.78305C43.3669 3.72665 43.437 3.41465 43.3417 3.26925C43.2854 3.18334 43.2096 3.11304 43.1732 3.11304C43.1368 3.11304 43.107 3.06731 43.107 3.01142C43.107 2.92458 43.2978 2.90979 44.4177 2.90979C46.13 2.90979 46.0694 2.85826 45.7723 4.06158C45.7453 4.17099 45.8573 4.06306 46.0886 3.75669C46.2855 3.49585 46.5241 3.19858 46.6188 3.09611L46.791 2.90979H47.9979C48.6616 2.90979 49.2047 2.93018 49.2047 2.9551C49.2047 3.10383 48.8294 4.3912 48.7508 4.51205C48.5984 4.74642 48.3503 4.79829 47.2738 4.82083C46.4027 4.83907 46.2188 4.86226 45.9865 4.98306C45.5005 5.2358 45.4159 5.45852 44.5737 8.70261C44.148 10.3422 43.7811 11.7652 43.7583 11.8649C43.7275 11.9994 43.7604 12.0978 43.8862 12.2473C43.9793 12.358 44.0555 12.467 44.0555 12.4896C44.0555 12.5122 43.4632 12.5306 42.7392 12.5306C41.6329 12.5306 41.4059 12.5136 41.3164 12.4242ZM48.2272 12.4242C48.1686 12.3656 48.1206 12.2818 48.1205 12.2378C48.1205 12.1939 48.6117 10.2372 49.2122 7.88959C49.8128 5.54197 50.3045 3.54681 50.3049 3.4559C50.3053 3.36499 50.2409 3.23815 50.1617 3.17403C49.8652 2.93394 49.9724 2.90979 51.3341 2.90979C52.9793 2.90979 53.0112 2.92939 52.7571 3.78495C52.6987 3.98171 52.6631 4.15488 52.678 4.16978C52.6929 4.18467 52.8079 4.05369 52.9335 3.8787C53.6404 2.89434 53.7509 2.84548 55.2733 2.84352C56.4021 2.84207 56.4388 2.84651 56.7978 3.02835C57.179 3.22144 57.3851 3.51252 57.5174 4.04478L57.5721 4.26511L57.9456 3.70771C58.5086 2.86737 58.5663 2.84437 60.1129 2.84381C61.2874 2.84339 61.3876 2.85337 61.705 3.00248C61.8914 3.08999 62.096 3.22038 62.1598 3.29224C62.3527 3.50951 62.4842 3.9024 62.4842 4.26127C62.4842 4.4712 62.1338 6.0044 61.5663 8.27744C61.0456 10.3635 60.6649 12.0193 60.6864 12.1049C60.7072 12.1878 60.7848 12.2881 60.8589 12.3278C61.1712 12.4949 60.9588 12.5306 59.6521 12.5306C58.2263 12.5306 58.148 12.5136 58.148 12.2045C58.148 12.1146 58.5139 10.601 58.9611 8.84091C59.4082 7.08083 59.7741 5.53614 59.7741 5.40826C59.7741 4.9153 59.3479 4.6855 58.5922 4.77099C57.8705 4.85265 57.5589 5.08316 57.3072 5.72151C57.1962 6.00325 55.7544 11.4261 55.6734 11.8668C55.6339 12.0819 55.6523 12.1409 55.8025 12.2801C55.8989 12.3694 55.9579 12.4623 55.9337 12.4866C55.9095 12.5108 55.3063 12.5306 54.5933 12.5306C53.2112 12.5306 53.1344 12.5132 53.1344 12.1991C53.1344 12.1062 53.5002 10.604 53.9474 8.86084C54.3946 7.11768 54.7604 5.56726 54.7604 5.41546C54.7604 4.88211 54.2611 4.6492 53.4421 4.80059C52.8989 4.901 52.6571 5.0596 52.4467 5.4533C52.2553 5.8116 50.6953 11.6364 50.6953 11.9929C50.6953 12.1173 50.7455 12.2221 50.8308 12.2753C50.9053 12.3219 50.9663 12.3984 50.9663 12.4453C50.9663 12.511 50.6631 12.5306 49.65 12.5306C48.5436 12.5306 48.3166 12.5136 48.2272 12.4242ZM72.3415 12.3698C72.2385 12.2125 72.2487 12.14 72.5253 11.0635C72.7517 10.1828 72.8448 9.91854 72.9352 9.90115C73.008 9.88713 73.0818 9.94398 73.131 10.0519C73.2525 10.3185 73.4779 10.4265 74.0829 10.5079C74.8492 10.611 76.7371 10.5518 77.0578 10.4145C77.3552 10.2873 77.566 10.0052 77.6529 9.6183C77.7296 9.27731 77.6642 9.0573 77.4433 8.91257C77.3577 8.85647 76.6803 8.64255 75.9379 8.43719C74.4487 8.02524 74.0615 7.83858 73.8131 7.41292C73.6706 7.1688 73.659 7.08254 73.6861 6.46679C73.7488 5.03788 74.4318 3.65351 75.2894 3.21725C75.8272 2.94363 76.1923 2.90979 78.6058 2.90979H80.8993L80.7288 3.5365C80.5265 4.27985 80.4216 4.50203 80.2177 4.61853C80.1115 4.6792 79.5871 4.71539 78.4706 4.7391C77.0977 4.76825 76.8499 4.78964 76.693 4.89249C76.4583 5.04644 76.3268 5.2541 76.2712 5.55877C76.191 5.99799 76.3613 6.10538 77.8301 6.5421C79.6523 7.08389 80.0004 7.28946 80.1692 7.92346C80.3362 8.55051 80.0609 10.1622 79.6343 11.055C79.3412 11.6686 79.0166 12.0141 78.4894 12.2737L78.0366 12.4967L75.2436 12.5165L72.4506 12.5363L72.3415 12.3698Z" fill="#484649"/>
<defs>
<linearGradient id="paint0_linear_50_4111" x1="2.7614" y1="2.44436" x2="18.3431" y2="0.689381" gradientUnits="userSpaceOnUse">
<stop stop-color="#EEF7FE"/>
<stop offset="1" stop-color="#1E97D0"/>
</linearGradient>
<linearGradient id="paint1_linear_50_4111" x1="0.866026" y1="0.935078" x2="3.94356" y2="3.94803" gradientUnits="userSpaceOnUse">
<stop stop-color="#D6E9F7"/>
<stop offset="1" stop-color="#48A2D7"/>
</linearGradient>
<linearGradient id="paint2_linear_50_4111" x1="7.21881" y1="6.94154" x2="17.2197" y2="4.80047" gradientUnits="userSpaceOnUse">
<stop stop-color="#D4EAF7"/>
<stop offset="1" stop-color="#1493C5"/>
</linearGradient>
<linearGradient id="paint3_linear_50_4111" x1="5.25323" y1="4.60742" x2="8.26935" y2="8.1337" gradientUnits="userSpaceOnUse">
<stop stop-color="#D9EBF7"/>
<stop offset="1" stop-color="#318ABB"/>
</linearGradient>
<linearGradient id="paint4_linear_50_4111" x1="11.8858" y1="11.0055" x2="16.0803" y2="8.97754" gradientUnits="userSpaceOnUse">
<stop stop-color="#9DC4DF"/>
<stop offset="1" stop-color="#137EAB"/>
</linearGradient>
<linearGradient id="paint5_linear_50_4111" x1="10.1146" y1="8.94366" x2="13.1658" y2="12.5214" gradientUnits="userSpaceOnUse">
<stop stop-color="#DEEEF8"/>
<stop offset="1" stop-color="#3586B3"/>
</linearGradient>
<linearGradient id="paint6_linear_50_4111" x1="17.0611" y1="12.5209" x2="17.0611" y2="8.95148" gradientUnits="userSpaceOnUse">
<stop stop-color="#646368"/>
<stop offset="1" stop-color="#646368"/>
</linearGradient>
<linearGradient id="paint7_linear_50_4111" x1="18.2032" y1="8.10058" x2="18.2032" y2="4.62296" gradientUnits="userSpaceOnUse">
<stop stop-color="#636267"/>
<stop offset="1" stop-color="#646368"/>
</linearGradient>
<linearGradient id="paint8_linear_50_4111" x1="19.4563" y1="3.89825" x2="19.4563" y2="0.361329" gradientUnits="userSpaceOnUse">
<stop stop-color="#6B6A6F"/>
<stop offset="1" stop-color="#EAEBED"/>
</linearGradient>
</defs>
</svg>
