<svg width="39" height="25" viewBox="0 0 39 25" fill="none" xmlns="http://www.w3.org/2000/svg">
<path d="M1.14674 10.428C1.12718 10.4214 1.11719 8.65584 1.11719 5.20806V-0.00195312H19.6282H38.1392V5.22894V10.4598L19.6577 10.4488C9.49294 10.4428 1.16299 10.4334 1.14674 10.428Z" fill="#BDD1EC"/>
<path d="M34.2457 18.3942C34.802 18.1953 35.0682 17.8473 35.0682 17.3188C35.0682 16.8004 34.854 16.5487 34.3 16.4164C34.1165 16.3726 33.9045 16.3613 33.0665 16.3505L32.0545 16.3375V17.4212V18.505L33.0221 18.4953L33.9898 18.4856L34.2457 18.3942ZM28.972 24.4201C28.9611 24.4092 28.9521 22.0617 28.9521 19.2037V14.0072L32.2096 14.0177C35.42 14.0281 35.4714 14.0292 35.7609 14.0923C36.5438 14.2628 37.0636 14.5252 37.4799 14.96C37.9531 15.4543 38.1412 15.98 38.141 16.8079C38.1407 17.8258 37.8987 18.5152 37.3629 19.0241C37.1184 19.2564 36.9136 19.3829 36.5829 19.5058C36.4389 19.5593 36.3815 19.5916 36.4286 19.5925C36.5741 19.5953 36.8586 19.6845 37.1024 19.8039C37.5071 20.002 37.7884 20.337 37.9167 20.7738C37.9587 20.917 38.2297 23.9904 38.2297 24.3242V24.4396H36.6342H35.0387L35.0381 24.0481C35.037 23.2677 34.9814 22.0219 34.9386 21.8164C34.8221 21.2579 34.4867 20.9263 33.8833 20.7731C33.6708 20.7191 33.5217 20.7079 32.845 20.6952L32.0549 20.6803L32.0473 22.5526L32.0397 24.4248L30.5158 24.4325C29.6777 24.4367 28.983 24.4311 28.972 24.4201ZM10.6036 19.2246V14.0096H14.4742H18.3448V15.2801V16.5506H16.0106H13.6764V17.304V18.0575H15.8924H18.1084V19.2246V20.3917H15.8924H13.6764V21.1451V21.8986H16.0697H18.463V23.1691V24.4396H14.5333H10.6036V19.2246ZM22.6734 24.6323C20.5125 24.3833 19.3524 23.398 18.9884 21.5027C18.9266 21.1812 18.9252 21.1031 18.9145 17.5921L18.9036 14.0096H20.44H21.9765L21.987 17.4148C21.9965 20.5313 22.0018 20.8389 22.0491 21.0417C22.1934 21.66 22.5089 22.0017 23.0784 22.1565C23.3457 22.2291 24.0258 22.2277 24.2689 22.1539C24.8175 21.9875 25.1059 21.6683 25.2473 21.0713C25.2956 20.8671 25.3005 20.581 25.3099 17.4296L25.3202 14.0096H26.8554H28.3907V17.4043C28.3907 19.5505 28.3793 20.9116 28.3598 21.1051C28.2918 21.7789 28.0965 22.4205 27.8127 22.9027C27.6342 23.2059 27.2038 23.6654 26.9057 23.8709C26.3657 24.2433 25.7179 24.4766 24.8688 24.6047C24.4387 24.6695 23.1383 24.6859 22.6734 24.6323ZM4.35337 24.7055C3.15018 24.5232 2.25733 24.1253 1.60269 23.4796C1.15195 23.035 0.87991 22.5538 0.721398 21.9207C0.652297 21.6447 0.578116 21.0034 0.608611 20.9457C0.615042 20.9335 1.35456 20.9235 2.25198 20.9235H3.88366L3.91827 21.2492C3.98704 21.8962 4.21156 22.1625 4.82722 22.3273C5.11024 22.4031 5.75212 22.4193 6.05288 22.3584C6.67601 22.2321 6.96953 21.9434 6.9692 21.4569C6.9692 21.278 6.95589 21.212 6.90269 21.1241C6.73221 20.8425 6.56618 20.7798 4.42834 20.1889C2.87727 19.7602 2.22854 19.4761 1.6866 18.9883C1.39159 18.7227 1.13224 18.289 1.02652 17.8844C0.907714 17.4298 0.9237 16.6994 1.06367 16.187C1.14162 15.9016 1.37596 15.4271 1.55533 15.1915C2.17682 14.3749 3.21979 13.8499 4.54575 13.686C4.86269 13.6468 5.89574 13.6462 6.24546 13.685C8.32008 13.9152 9.55704 14.8803 9.84698 16.4952C9.87141 16.6313 9.89542 16.8291 9.90032 16.9347L9.90925 17.1267H8.3285H6.74775L6.72946 16.9564C6.6898 16.5874 6.53389 16.3792 6.15954 16.1954C5.87934 16.0577 5.59964 16.0103 5.16701 16.0272C4.45138 16.0552 4.15318 16.2574 4.15186 16.7158C4.15117 16.9404 4.24361 17.1133 4.43944 17.2539C4.73429 17.4656 5.1094 17.5793 6.30764 17.8201C8.14542 18.1894 9.03186 18.5457 9.64591 19.162C10.1439 19.6618 10.3672 20.2667 10.3672 21.1155C10.3672 22.4784 9.73363 23.4987 8.49752 24.1266C7.93183 24.414 7.17224 24.6251 6.36362 24.7197C5.82289 24.7829 4.81793 24.7758 4.35337 24.7055Z" fill="#E95128"/>
<path d="M38.142 -0.00195312H7.28125V10.4324H38.142V-0.00195312Z" fill="#6D9AD3"/>
<path d="M38.1392 -0.00195312H16.5234V10.4324H38.1392V-0.00195312Z" fill="#1C64B0"/>
</svg>
