<svg width="85" height="18" viewBox="0 0 85 18" fill="none" xmlns="http://www.w3.org/2000/svg">
<mask id="mask0_310_9478" style="mask-type:luminance" maskUnits="userSpaceOnUse" x="0" y="0" width="52" height="19">
<path d="M0.234375 0.753906H51.3084V18.0065H0.234375V0.753906Z" fill="white"/>
</mask>
<g mask="url(#mask0_310_9478)">
<path d="M39.0614 8.80349H40.9999C42.466 8.80349 43.0627 8.38663 43.0627 7.30645C43.0627 6.52128 42.5653 6.22627 41.2235 6.22627H39.4335L39.0614 8.80349ZM40.8254 14.2273H38.2652L37.7187 18.0065H29.665L32.1259 0.753906H44.4305C49.1528 0.753906 51.2407 2.42228 51.2407 6.17771C51.2407 9.07376 50.2218 10.9877 48.2081 12.2392L50.4204 18.0065H41.9696L40.8254 14.2273ZM8.03931 18.0065H0.234375L2.69528 0.753906H13.4836L14.9748 8.16583L17.4598 3.08559C18.256 1.44104 19.3741 0.753906 21.2384 0.753906H29.3913L26.9313 18.0065H19.1255L20.2937 10.7421L20.6167 9.07376L19.4484 11.3807L15.8442 18.0065H11.0718L9.55557 11.3807L9.1083 9.0985L8.9589 10.7421L8.03931 18.0065Z" fill="#203263"/>
</g>
<mask id="mask1_310_9478" style="mask-type:luminance" maskUnits="userSpaceOnUse" x="51" y="0" width="22" height="19">
<path d="M51.7812 0.753906H72.9235V18.0065H51.7812V0.753906Z" fill="white"/>
</mask>
<g mask="url(#mask1_310_9478)">
<path d="M61.4823 18.0065H51.9375L54.2991 0.753906H61.7561L60.7622 7.15986L60.2899 9.46589L61.9305 6.54602L64.1427 2.96282C65.1366 1.36775 66.2306 0.753906 68.144 0.753906H72.768L61.4823 18.0065Z" fill="#F05349"/>
</g>
<mask id="mask2_310_9478" style="mask-type:luminance" maskUnits="userSpaceOnUse" x="65" y="0" width="20" height="19">
<path d="M65.0859 0.753906H84.8289V18.0065H65.0859V0.753906Z" fill="white"/>
</mask>
<g mask="url(#mask2_310_9478)">
<path d="M73.9895 18.0065H65.2891L65.637 13.8343L73.5673 1.51434L72.8704 6.54602L72.2496 9.81038L73.7408 7.15986L76.326 2.96282C77.3199 1.36775 78.4139 0.753906 80.3282 0.753906H84.8269L73.9895 18.0065Z" fill="#F05349"/>
</g>
</svg>
