<svg width="75" height="24" viewBox="0 0 75 24" fill="none" xmlns="http://www.w3.org/2000/svg">
<path d="M74.8279 0.880859V17.3019H0.828125V0.880859H74.8279Z" fill="#FFCC00"/>
<path d="M13.8408 3.83008L11.4766 7.05991H24.3619C25.0132 7.05991 25.0046 7.30877 24.6862 7.74242C24.3629 8.18264 23.8219 8.94823 23.4926 9.3954C23.3255 9.62234 23.0233 10.0358 24.0246 10.0358H29.2939C29.2939 10.0358 30.1432 8.87368 30.855 7.90202C31.8236 6.58045 30.939 3.83021 27.4765 3.83021L13.8408 3.83008Z" fill="#D2002E"/>
<path d="M10.5209 14.3525L15.2696 7.86435H21.1624C21.8137 7.86435 21.8053 8.11321 21.4869 8.54686C21.1636 8.98708 20.6137 9.74453 20.2843 10.1917C20.1171 10.4186 19.8151 10.8327 20.8162 10.8327H28.7108C28.0543 11.7372 25.9246 14.3524 22.1005 14.3524L10.5209 14.3525ZM37.717 10.832L35.1418 14.3522H28.3489C28.3489 14.3522 30.9226 10.8327 30.9248 10.8327L37.717 10.832ZM48.1235 10.0358H31.5084L36.052 3.83008H42.8429L40.2387 7.38844H43.2699L45.8752 3.83008H52.6654L48.1235 10.0358ZM47.5403 10.8329L44.9639 14.3525H38.1734C38.1734 14.3525 40.7472 10.8329 40.7494 10.8329H47.5403ZM0.828125 12.2207H10.8354L10.2888 12.9685H0.828125V12.2207ZM0.828125 10.8329H11.8521L11.3044 11.5796H0.828125V10.8329ZM0.828125 13.6094H9.81927L9.27523 14.3525H0.828125V13.6094ZM74.8281 12.9685H64.8593L65.4065 12.2209H74.8281V12.9685ZM74.8281 14.3525L63.8459 14.3536L64.39 13.6094H74.8281V14.3525ZM66.4219 10.8329H74.8281V11.58L65.8752 11.5806L66.4219 10.8329ZM62.0701 3.83008L57.5273 10.0356H50.3315C50.3315 10.0356 54.8754 3.83008 54.8777 3.83008H62.0701ZM49.7492 10.8329C49.7492 10.8329 49.2528 11.515 49.0118 11.8428C48.1588 13.0021 48.9129 14.3525 51.6964 14.3525H62.6024L65.1785 10.8329H49.7492Z" fill="#D2002E"/>
<path d="M0.828125 19.9707H74.8281V20.3427H0.828125V19.9707ZM0.828125 21.7065H74.8281V22.0785H0.828125V21.7065ZM0.828125 23.4419H74.8281V23.8139H0.828125V23.4419Z" fill="#FFCC00"/>
<path d="M25.6797 23.8153H27.9068L28.2622 23.3309H26.6049L27.5342 22.0645H29.0435L29.3991 21.58H27.8898L28.7139 20.457H30.3714L30.7269 19.9724H28.5L25.6797 23.8153ZM28.4128 23.8153H29.0963L31.4258 22.1857L31.4029 23.8153H32.1206L32.1259 21.8059L34.8098 19.9724H34.1606L32.0241 21.4479L32.0475 19.9724H31.364L31.3433 21.8169L28.4128 23.8153ZM35.672 20.457H36.1561C36.5093 20.457 36.9039 20.6331 36.5483 21.1176C36.1766 21.6239 35.6071 21.7947 35.2539 21.7947H34.69L35.672 20.457ZM32.6377 23.8153H33.2072L34.3345 22.2793H34.8926C35.6102 22.2793 36.5216 21.9765 37.1479 21.1229C37.7903 20.2475 37.3145 19.9721 36.5002 19.9721H35.4579L32.6377 23.8153ZM35.9175 23.8153H36.4871L37.7397 22.1085H38.0813C38.383 22.1085 38.5713 22.1085 38.4731 22.4828L38.1048 23.8153H38.7541L39.1256 22.2847C39.174 22.048 39.1494 21.9655 39.0211 21.8992L39.0292 21.8881C39.5472 21.811 40.1483 21.4807 40.4919 21.0127C41.1666 20.0934 40.498 19.9721 39.7118 19.9721H38.738L35.9175 23.8153ZM38.9519 20.457H39.4985C40.0227 20.457 40.1343 20.6772 39.8799 21.0239C39.6092 21.3929 39.1205 21.6239 38.5794 21.6239H38.0952L38.9519 20.457ZM39.3439 23.8153H41.5709L41.9262 23.3309H40.269L41.1983 22.0645H42.7077L43.063 21.58H41.5538L42.378 20.457H44.0354L44.3911 19.9724H42.1642L39.3439 23.8153ZM47.1344 20.0439C46.9297 19.9503 46.6486 19.9062 46.3866 19.9062C45.669 19.9062 44.8442 20.2698 44.3431 20.9525C43.4663 22.1472 45.3488 21.9105 44.7183 22.7694C44.3871 23.2206 43.802 23.397 43.4775 23.397C43.1869 23.397 42.9261 23.2868 42.789 23.2096L42.3564 23.7217C42.5578 23.8043 42.7748 23.8815 43.0539 23.8815C43.8511 23.8815 44.7446 23.5562 45.3466 22.7359C46.2758 21.4698 44.4418 21.6402 44.9833 20.9027C45.2784 20.5008 45.7352 20.3907 46.054 20.3907C46.3503 20.3907 46.4732 20.4404 46.6828 20.5504L47.1344 20.0439ZM49.9823 20.0439C49.7776 19.9503 49.4966 19.9062 49.2345 19.9062C48.5168 19.9062 47.692 20.2698 47.1909 20.9525C46.3142 22.1472 48.1967 21.9105 47.5662 22.7694C47.2351 23.2206 46.6499 23.397 46.3254 23.397C46.0347 23.397 45.7738 23.2868 45.637 23.2096L45.2043 23.7217C45.4057 23.8043 45.6226 23.8815 45.9016 23.8815C46.699 23.8815 47.5923 23.5562 48.1943 22.7359C49.1237 21.4698 47.2897 21.6402 47.8312 20.9027C48.1262 20.5008 48.583 20.3907 48.9019 20.3907C49.1982 20.3907 49.3213 20.4404 49.5306 20.5504L49.9823 20.0439Z" fill="#D2002E"/>
</svg>
