<svg width="30" height="35" viewBox="0 0 30 35" fill="none" xmlns="http://www.w3.org/2000/svg">
<path d="M15 34.6268C15.2944 34.4779 22.9493 31.1274 25.3782 29.1171C27.8807 27.0324 29.2056 24.0542 29.2056 20.4804V3.72808L28.9848 3.65363C22.8757 0.303165 15.2944 0.526529 14.9264 0.526529C14.632 0.526529 7.05078 0.303165 0.941642 3.65363L0.794434 3.72808V20.5548C0.794434 24.1287 2.11931 27.1069 4.62184 29.1916C7.05078 31.2019 14.7056 34.5523 15 34.6268Z" fill="#341B14"/>
<path d="M15 35C15 35 6.90355 31.4262 4.40102 29.4159C1.75127 27.1823 0.5 24.1296 0.5 20.6302V3.20785C6.90355 -0.291517 15 0.00630094 15 0.00630094C15 0.00630094 23.0964 -0.291517 29.5 3.20785V20.5558C29.5 24.0552 28.2487 27.1078 25.599 29.3414C23.0964 31.4262 15 35 15 35ZM1.67766 20.6302C1.67766 23.9063 2.85533 26.5866 5.13706 28.448C7.19797 30.1604 13.3071 32.9153 15 33.6598C16.6929 32.9153 22.8756 30.086 24.8629 28.448C27.1447 26.5866 28.3223 23.8318 28.3223 20.6302V3.50567C19.7843 2.68667 9.6269 3.1334 1.67766 10.5789V20.6302Z" fill="#FFB406"/>
<path d="M23.1703 18.1739C24.2744 18.844 24.716 19.2907 24.7896 20.1097C24.7896 21.0032 24.2008 21.5243 23.2439 21.5243C22.4343 21.5243 21.4774 21.0776 20.815 20.482V22.8645C21.6246 23.3113 22.5815 23.6835 23.6119 23.6835C26.1145 23.6835 27.2921 21.8966 27.2921 20.2586C27.3657 18.7695 26.9241 17.5782 24.7896 16.3125C23.8327 15.7169 23.0967 15.3446 23.0967 14.4511C23.0967 13.5577 23.9064 13.1854 24.5688 13.1854C25.452 13.1854 26.3353 13.7066 26.8505 14.2278V11.9941C26.4089 11.6219 25.452 11.1007 24.0536 11.1751C22.3607 11.2496 20.5942 12.4409 20.5942 14.5256C20.6678 15.9402 21.1094 16.9826 23.1703 18.1739ZM14.485 23.5346C14.7058 23.6091 15.0739 23.6835 15.6627 23.6835C18.5333 23.6835 20.1525 21.0776 20.1525 17.3549C20.1525 13.5577 18.4597 11.2496 15.4419 11.2496C14.0434 11.2496 12.9393 11.5474 11.9825 12.1431V28.9698H14.485V23.5346ZM14.485 13.4088C14.7058 13.3343 15.0739 13.1854 15.3683 13.1854C16.8404 13.1854 17.4292 14.3767 17.4292 17.2804C17.4292 20.1097 16.6932 21.4499 15.2211 21.4499C14.8531 21.4499 14.5586 21.3754 14.4114 21.301V13.4088H14.485ZM6.75661 23.6835C8.30229 23.6835 9.62717 23.3113 10.584 22.6412V11.3985H8.00788V21.1521C7.71346 21.3754 7.34544 21.4499 6.83021 21.4499C5.65255 21.4499 5.50534 20.3331 5.50534 19.663V11.3985H2.9292V19.5141C2.9292 22.2689 4.25407 23.6835 6.75661 23.6835Z" fill="#FFB406"/>
</svg>
