<svg width="70" height="21" viewBox="0 0 70 21" fill="none" xmlns="http://www.w3.org/2000/svg">
<path fill-rule="evenodd" clip-rule="evenodd" d="M63.3962 20.264L60.569 17.114L57.7683 20.264H51.8757L57.6346 13.8325L51.8757 7.40109H57.9527L60.8068 10.5252L63.5546 7.40109H69.4195L63.6865 13.8058L69.4998 20.264H63.3962ZM40.5527 20.264V0H51.8757V4.51719H45.3481V7.40109H51.8757V11.746H45.3481V15.735H51.8757V20.264H40.5527Z" fill="#FF7A08"/>
<path fill-rule="evenodd" clip-rule="evenodd" d="M35.7787 0V8.29313H35.7244C34.6673 7.08548 33.3468 6.66598 31.8145 6.66598C28.6489 6.66598 26.2964 8.8323 25.486 11.671C24.5537 8.5408 22.1174 6.60768 18.4696 6.60768C15.5078 6.60768 13.2008 7.95648 11.9959 10.1219V7.40065H5.9188V4.51675H12.5513V0H0.5V20.264H5.9188V11.746H11.35C11.1863 12.3764 11.072 13.0352 11.072 13.7493C11.072 17.9763 14.321 20.943 18.4696 20.943C21.9586 20.943 24.2572 19.3154 25.4736 16.3491H20.8304C20.2026 17.242 19.7252 17.505 18.4691 17.505C17.0136 17.505 15.7584 16.2439 15.7584 14.7469H25.2389C25.6514 18.1016 28.2562 21 31.867 21C33.4258 21 34.8531 20.2399 35.7244 18.9529H35.7787V20.2644H40.5533V0H35.7787ZM15.9097 11.8065C16.2102 10.5191 17.2148 9.67875 18.4691 9.67875C19.851 9.67875 20.8044 10.4945 21.055 11.8065H15.9097ZM32.8791 17.1793C31.1187 17.1793 30.025 15.5487 30.025 13.8483C30.025 12.0292 30.9758 10.2802 32.8791 10.2802C34.8531 10.2802 35.6379 12.0292 35.6379 13.8483C35.6379 15.5728 34.805 17.1793 32.8791 17.1793Z" fill="#462895"/>
</svg>
