<svg width="63" height="17" viewBox="0 0 63 17" fill="none" xmlns="http://www.w3.org/2000/svg">
<path fill-rule="evenodd" clip-rule="evenodd" d="M23.4851 13.7607C23.2868 13.6714 23.0506 13.6214 22.8462 13.6214C22.1602 13.6214 21.6999 14.2074 21.6999 14.8963C21.6999 15.2385 21.8832 15.5731 22.3889 15.5731C22.5524 15.5731 22.6902 15.5459 22.8234 15.5065L23.0021 14.5587H23.4049L23.1732 15.7972C22.9067 15.8987 22.5872 15.9502 22.3162 15.9502C21.5894 15.9502 21.2578 15.5292 21.2578 14.9463C21.2578 13.9666 21.9543 13.252 22.8916 13.252C23.1429 13.252 23.3897 13.2868 23.6078 13.3564L23.4851 13.7607Z" fill="#044896"/>
<path fill-rule="evenodd" clip-rule="evenodd" d="M24.149 15.0872C24.1414 15.1371 24.1339 15.2235 24.1339 15.281C24.1339 15.546 24.2293 15.6156 24.5139 15.6156C24.6926 15.6156 24.8879 15.5732 25.0545 15.5021V15.8291C24.8607 15.9033 24.629 15.9502 24.3807 15.9502C23.9249 15.9502 23.7266 15.7443 23.7266 15.3082C23.7266 14.5345 24.1687 13.9395 24.7774 13.9395C25.2104 13.9395 25.3588 14.1651 25.3588 14.3952C25.3588 14.8298 24.9288 15.0599 24.149 15.0872ZM24.732 14.2514C24.4579 14.2514 24.2747 14.5027 24.199 14.7995C24.7168 14.7798 24.9606 14.6708 24.9606 14.4497C24.9606 14.321 24.8728 14.2514 24.732 14.2514Z" fill="#044896"/>
<path fill-rule="evenodd" clip-rule="evenodd" d="M27.1034 15.912H26.7037L26.9369 14.687C26.9899 14.4114 26.9399 14.2948 26.7915 14.2948C26.4872 14.2948 26.1147 14.9868 26.0299 15.4532L25.9466 15.912H25.5469L25.7377 14.9005C25.7982 14.578 25.8588 14.2403 25.9012 13.9799H26.2964C26.2737 14.101 26.2252 14.307 26.1026 14.6673L26.1101 14.6719C26.2888 14.2903 26.5704 13.9375 26.952 13.9375C27.3093 13.9375 27.4229 14.1979 27.3517 14.5901L27.1034 15.912Z" fill="#044896"/>
<path fill-rule="evenodd" clip-rule="evenodd" d="M28.1099 15.0872C28.1024 15.1371 28.0948 15.2235 28.0948 15.281C28.0948 15.546 28.1902 15.6156 28.4749 15.6156C28.6535 15.6156 28.8489 15.5732 29.0154 15.5021V15.8291C28.8216 15.9033 28.5899 15.9502 28.3416 15.9502C27.8859 15.9502 27.6875 15.7443 27.6875 15.3082C27.6875 14.5345 28.1296 13.9395 28.7383 13.9395C29.1714 13.9395 29.3198 14.1651 29.3198 14.3952C29.3198 14.8298 28.8897 15.0599 28.1099 15.0872ZM28.6929 14.2514C28.4188 14.2514 28.2356 14.5027 28.1599 14.7995C28.6778 14.7798 28.92 14.6708 28.92 14.4497C28.92 14.321 28.8337 14.2514 28.6929 14.2514Z" fill="#044896"/>
<path fill-rule="evenodd" clip-rule="evenodd" d="M30.8394 14.3417C30.523 14.2478 30.1686 14.8929 30.0581 15.4834L29.9779 15.9119H29.5781L29.7689 14.9004C29.8189 14.6294 29.884 14.2675 29.9324 13.9798H30.3216C30.2943 14.1388 30.2444 14.3296 30.1414 14.6324L30.149 14.637C30.3594 14.1933 30.576 13.8829 30.9227 13.9405L30.8394 14.3417Z" fill="#044896"/>
<path fill-rule="evenodd" clip-rule="evenodd" d="M32.4778 15.9116H32.0811C32.1159 15.7526 32.181 15.5224 32.284 15.2045L32.2749 15.1999C32.1311 15.4921 31.857 15.954 31.4315 15.954C31.1529 15.954 31 15.7677 31 15.3559C31 14.6366 31.3695 13.9492 32.1992 13.9492C32.4203 13.9492 32.6338 13.9674 32.8276 14.0068C32.6413 14.9894 32.5581 15.4331 32.4778 15.9116ZM32.1311 14.2717C31.6253 14.2717 31.4118 14.835 31.4118 15.2817C31.4118 15.5027 31.477 15.5966 31.5829 15.5966C31.9024 15.5966 32.2643 14.885 32.3491 14.4459L32.3748 14.3066C32.3067 14.2869 32.2265 14.2717 32.1311 14.2717Z" fill="#044896"/>
<path fill-rule="evenodd" clip-rule="evenodd" d="M33.4466 15.9114H33.0469L33.539 13.248H33.9387L33.4466 15.9114Z" fill="#044896"/>
<path fill-rule="evenodd" clip-rule="evenodd" d="M36.283 15.9116H35.0156L35.5123 13.2422H35.9196L35.4911 15.5422H36.3541L36.283 15.9116Z" fill="#044896"/>
<path fill-rule="evenodd" clip-rule="evenodd" d="M37.3646 15.9502C36.865 15.9502 36.6484 15.6974 36.6484 15.2583C36.6484 14.4679 37.1511 13.9395 37.7629 13.9395C38.2807 13.9395 38.4866 14.2317 38.4866 14.6435C38.4866 15.4369 37.943 15.9502 37.3646 15.9502ZM37.7023 14.2938C37.3147 14.2938 37.0663 14.748 37.0663 15.1917C37.0663 15.4445 37.1663 15.5914 37.4207 15.5914C37.7795 15.5914 38.0642 15.1962 38.0642 14.6905C38.0642 14.4331 37.9536 14.2938 37.7023 14.2938Z" fill="#044896"/>
<mask id="mask0_320_8052" style="mask-type:luminance" maskUnits="userSpaceOnUse" x="38" y="13" width="3" height="4">
<path d="M38.375 13.5645H40.7007V16.8941H38.375V13.5645Z" fill="white"/>
</mask>
<g mask="url(#mask0_320_8052)">
<path fill-rule="evenodd" clip-rule="evenodd" d="M40.2175 16.063C40.1266 16.5566 39.8223 16.8942 39.0925 16.8942C38.879 16.8942 38.7063 16.864 38.5625 16.817L38.6579 16.4249C38.8063 16.4991 38.9955 16.5369 39.1682 16.5369C39.5452 16.5369 39.7647 16.39 39.8404 15.9933C39.8904 15.7283 39.9358 15.5815 40.0539 15.215H40.0464C39.9101 15.4921 39.636 15.954 39.209 15.954C38.932 15.954 38.779 15.7677 38.779 15.3559C38.779 14.6366 39.153 13.9492 39.9782 13.9492C40.1993 13.9492 40.4128 13.9674 40.6066 14.0068L40.2175 16.063ZM39.9101 14.2717C39.4029 14.2717 39.1909 14.835 39.1909 15.2817C39.1909 15.5027 39.2545 15.5966 39.362 15.5966C39.6815 15.5966 40.0433 14.885 40.1266 14.4459L40.1539 14.3066C40.0857 14.2869 40.0055 14.2717 39.9101 14.2717Z" fill="#044896"/>
</g>
<path fill-rule="evenodd" clip-rule="evenodd" d="M41.2279 15.9105H40.8281L41.19 13.9785H41.5897L41.2279 15.9105ZM41.4747 13.6908C41.3308 13.6908 41.2279 13.5742 41.2324 13.4425C41.2354 13.2865 41.3656 13.1699 41.5095 13.1699C41.6503 13.1699 41.7533 13.2835 41.7487 13.4152C41.7457 13.5742 41.617 13.6908 41.4747 13.6908Z" fill="#044896"/>
<path fill-rule="evenodd" clip-rule="evenodd" d="M43.0465 14.2968C42.9617 14.2665 42.8679 14.2544 42.7755 14.2544C42.5514 14.2544 42.4378 14.3558 42.4378 14.5027C42.4378 14.7798 42.9739 14.8767 42.9739 15.3037C42.9739 15.6277 42.6968 15.9502 42.1365 15.9502C42.0109 15.9502 41.9079 15.9381 41.8125 15.9184L41.8822 15.5611C41.976 15.5914 42.079 15.6111 42.182 15.6111C42.4076 15.6111 42.5544 15.5217 42.5544 15.3476C42.5544 15.063 42.0215 15.0084 42.0215 14.5466C42.0215 14.2075 42.2849 13.9395 42.7982 13.9395C42.9239 13.9395 43.0268 13.9516 43.1222 13.9713L43.0465 14.2968Z" fill="#044896"/>
<path fill-rule="evenodd" clip-rule="evenodd" d="M44.6589 14.302H44.1759L44.0003 15.2498C43.9518 15.5194 43.9897 15.592 44.1608 15.592C44.2637 15.592 44.3395 15.5814 44.4121 15.5648L44.3818 15.904C44.2637 15.9312 44.1229 15.9464 44.0124 15.9464C43.6157 15.9464 43.5052 15.7556 43.593 15.3044L43.7792 14.302H43.4219L43.487 13.9795H43.8398L43.9549 13.3647L44.3697 13.2754L44.2365 13.9795H44.724L44.6589 14.302Z" fill="#044896"/>
<path fill-rule="evenodd" clip-rule="evenodd" d="M45.2747 15.9105H44.875L45.2369 13.9785H45.6381L45.2747 15.9105ZM45.5231 13.6908C45.3777 13.6908 45.2747 13.5742 45.2793 13.4425C45.2838 13.2865 45.4125 13.1699 45.5579 13.1699C45.6972 13.1699 45.8001 13.2835 45.7971 13.4152C45.7926 13.5742 45.6639 13.6908 45.5231 13.6908Z" fill="#044896"/>
<path fill-rule="evenodd" clip-rule="evenodd" d="M47.332 14.3617C47.2397 14.3178 47.1337 14.2905 47.008 14.2905C46.5659 14.2905 46.3645 14.7963 46.3645 15.2005C46.3645 15.3989 46.4326 15.5821 46.7294 15.5821C46.8672 15.5821 47.011 15.5503 47.1246 15.4958L47.0943 15.8622C46.9611 15.9077 46.7945 15.947 46.6158 15.947C46.1162 15.947 45.9375 15.679 45.9375 15.2944C45.9375 14.5555 46.3524 13.9453 47.0337 13.9453C47.1821 13.9453 47.3048 13.965 47.4259 13.9998L47.332 14.3617Z" fill="#044896"/>
<path fill-rule="evenodd" clip-rule="evenodd" d="M48.7184 14.2968C48.6351 14.2665 48.5397 14.2544 48.4474 14.2544C48.2233 14.2544 48.1097 14.3558 48.1097 14.5027C48.1097 14.7798 48.6457 14.8767 48.6457 15.3037C48.6457 15.6277 48.3671 15.9502 47.8084 15.9502C47.6827 15.9502 47.5798 15.9381 47.4844 15.9184L47.554 15.5611C47.6494 15.5914 47.7509 15.6111 47.8538 15.6111C48.0779 15.6111 48.2278 15.5217 48.2278 15.3476C48.2278 15.063 47.6948 15.0084 47.6948 14.5466C47.6948 14.2075 47.9568 13.9395 48.4716 13.9395C48.5973 13.9395 48.6987 13.9516 48.7941 13.9713L48.7184 14.2968Z" fill="#044896"/>
<path fill-rule="evenodd" clip-rule="evenodd" d="M51.515 13.6599C51.3908 13.6175 51.2561 13.5978 51.1577 13.5978C50.7973 13.5978 50.6444 13.7962 50.6444 13.9915C50.6444 14.4306 51.409 14.4412 51.409 15.0681C51.409 15.5647 50.979 15.9508 50.3703 15.9508C50.2219 15.9508 50.0538 15.9387 49.9297 15.8993L50.0054 15.4996C50.1159 15.5465 50.2673 15.5814 50.4006 15.5814C50.767 15.5814 50.9669 15.4057 50.9669 15.1377C50.9669 14.7183 50.2098 14.7137 50.2098 14.0884C50.2098 13.6326 50.5444 13.248 51.1849 13.248C51.3212 13.248 51.4438 13.2571 51.5877 13.2844L51.515 13.6599Z" fill="#044896"/>
<mask id="mask1_320_8052" style="mask-type:luminance" maskUnits="userSpaceOnUse" x="51" y="13" width="3" height="4">
<path d="M51.1641 13.5645H53.8774V16.8941H51.1641V13.5645Z" fill="white"/>
</mask>
<g mask="url(#mask1_320_8052)">
<path fill-rule="evenodd" clip-rule="evenodd" d="M52.1624 16.537C51.9262 16.7747 51.6869 16.8913 51.4537 16.8913C51.3584 16.8913 51.2569 16.8792 51.1797 16.8595L51.2493 16.4946C51.322 16.5218 51.4008 16.5339 51.481 16.5339C51.6097 16.5339 51.7551 16.4628 51.8732 16.3386C52.0064 16.1993 52.067 16.0358 52.067 15.7753C52.067 15.2469 51.9534 14.6095 51.7853 13.9796H52.2305C52.3486 14.4459 52.4364 15.0243 52.4364 15.4377C52.4364 15.4952 52.4243 15.574 52.4137 15.6391H52.4167C52.6954 15.1303 52.9391 14.5973 53.2162 13.9023L53.6008 14.0114C53.0799 15.2499 52.6257 16.0676 52.1624 16.537Z" fill="#044896"/>
</g>
<path fill-rule="evenodd" clip-rule="evenodd" d="M54.7731 14.2968C54.6898 14.2665 54.5944 14.2544 54.5021 14.2544C54.278 14.2544 54.1644 14.3558 54.1644 14.5027C54.1644 14.7798 54.7004 14.8767 54.7004 15.3037C54.7004 15.6277 54.4233 15.9502 53.8631 15.9502C53.7374 15.9502 53.6345 15.9381 53.5391 15.9184L53.6087 15.5611C53.7041 15.5914 53.8071 15.6111 53.91 15.6111C54.1341 15.6111 54.2825 15.5217 54.2825 15.3476C54.2825 15.063 53.7495 15.0084 53.7495 14.5466C53.7495 14.2075 54.0115 13.9395 54.5263 13.9395C54.6504 13.9395 54.7534 13.9516 54.8488 13.9713L54.7731 14.2968Z" fill="#044896"/>
<path fill-rule="evenodd" clip-rule="evenodd" d="M56.3933 14.302H55.9103L55.7347 15.2498C55.6862 15.5194 55.7241 15.592 55.8952 15.592C55.9981 15.592 56.0738 15.5814 56.1465 15.5648L56.1162 15.904C55.9981 15.9312 55.8573 15.9464 55.7468 15.9464C55.3501 15.9464 55.241 15.7556 55.3273 15.3044L55.5151 14.302H55.1562L55.2214 13.9795H55.5757L55.6892 13.3647L56.1041 13.2754L55.9709 13.9795H56.4584L56.3933 14.302Z" fill="#044896"/>
<path fill-rule="evenodd" clip-rule="evenodd" d="M57.0396 15.0872C57.0321 15.1371 57.0245 15.2235 57.0245 15.281C57.0245 15.546 57.1199 15.6156 57.4061 15.6156C57.5847 15.6156 57.7785 15.5732 57.9466 15.5021V15.8291C57.7528 15.9033 57.5196 15.9502 57.2713 15.9502C56.8155 15.9502 56.6172 15.7443 56.6172 15.3082C56.6172 14.5345 57.0593 13.9395 57.668 13.9395C58.1026 13.9395 58.251 14.1651 58.251 14.3952C58.251 14.8298 57.8194 15.0599 57.0396 15.0872ZM57.6226 14.2514C57.3485 14.2514 57.1653 14.5027 57.0896 14.7995C57.6074 14.7798 57.8512 14.6708 57.8512 14.4497C57.8512 14.321 57.7634 14.2514 57.6226 14.2514Z" fill="#044896"/>
<path fill-rule="evenodd" clip-rule="evenodd" d="M61.1097 15.912H60.71L60.9386 14.687C60.9916 14.4114 60.9417 14.2948 60.8054 14.2948C60.554 14.2948 60.1619 14.8778 60.0559 15.4532L59.9681 15.912H59.5729L59.8 14.687C59.853 14.4114 59.8076 14.2948 59.6667 14.2948C59.3821 14.2948 59.0051 14.955 58.9142 15.4532L58.8294 15.912H58.4297L58.6205 14.9005C58.681 14.578 58.7416 14.2449 58.784 13.9799H59.1807C59.1565 14.1041 59.105 14.3145 58.9854 14.6673L58.9945 14.6719C59.1686 14.2903 59.4457 13.9375 59.8227 13.9375C60.0589 13.9375 60.2043 14.0723 60.2043 14.3176C60.2043 14.419 60.177 14.5129 60.1286 14.6794H60.1361C60.3103 14.2903 60.5889 13.9375 60.9644 13.9375C61.3111 13.9375 61.4292 14.1979 61.3565 14.5901L61.1097 15.912Z" fill="#044896"/>
<mask id="mask2_320_8052" style="mask-type:luminance" maskUnits="userSpaceOnUse" x="61" y="13" width="2" height="4">
<path d="M61.6328 13.5645H63.0016V16.2778H61.6328V13.5645Z" fill="white"/>
</mask>
<g mask="url(#mask2_320_8052)">
<path fill-rule="evenodd" clip-rule="evenodd" d="M62.9278 14.2968C62.8446 14.2665 62.7492 14.2544 62.6583 14.2544C62.4327 14.2544 62.3191 14.3558 62.3191 14.5027C62.3191 14.7798 62.8567 14.8767 62.8567 15.3037C62.8567 15.6277 62.5781 15.9502 62.0178 15.9502C61.8922 15.9502 61.7907 15.9381 61.6953 15.9184L61.7634 15.5611C61.8588 15.5914 61.9618 15.6111 62.0648 15.6111C62.2889 15.6111 62.4372 15.5217 62.4372 15.3476C62.4372 15.063 61.9043 15.0084 61.9043 14.5466C61.9043 14.2075 62.1662 13.9395 62.681 13.9395C62.8067 13.9395 62.9081 13.9516 63.0035 13.9713L62.9278 14.2968Z" fill="#044896"/>
</g>
<path fill-rule="evenodd" clip-rule="evenodd" d="M23.4851 13.7607C23.2868 13.6714 23.0506 13.6214 22.8462 13.6214C22.1602 13.6214 21.6999 14.2074 21.6999 14.8963C21.6999 15.2385 21.8832 15.5731 22.3889 15.5731C22.5524 15.5731 22.6902 15.5459 22.8234 15.5065L23.0021 14.5587H23.4049L23.1732 15.7972C22.9067 15.8987 22.5872 15.9502 22.3162 15.9502C21.5894 15.9502 21.2578 15.5292 21.2578 14.9463C21.2578 13.9666 21.9543 13.252 22.8916 13.252C23.1429 13.252 23.3897 13.2868 23.6078 13.3564L23.4851 13.7607Z" fill="#044896"/>
<path fill-rule="evenodd" clip-rule="evenodd" d="M24.149 15.0872C24.1414 15.1371 24.1339 15.2235 24.1339 15.281C24.1339 15.546 24.2293 15.6156 24.5139 15.6156C24.6926 15.6156 24.8879 15.5732 25.0545 15.5021V15.8291C24.8607 15.9033 24.629 15.9502 24.3807 15.9502C23.9249 15.9502 23.7266 15.7443 23.7266 15.3082C23.7266 14.5345 24.1687 13.9395 24.7774 13.9395C25.2104 13.9395 25.3588 14.1651 25.3588 14.3952C25.3588 14.8298 24.9288 15.0599 24.149 15.0872ZM24.732 14.2514C24.4579 14.2514 24.2747 14.5027 24.199 14.7995C24.7168 14.7798 24.9606 14.6708 24.9606 14.4497C24.9606 14.321 24.8728 14.2514 24.732 14.2514Z" fill="#044896"/>
<path fill-rule="evenodd" clip-rule="evenodd" d="M27.1034 15.912H26.7037L26.9369 14.687C26.9899 14.4114 26.9399 14.2948 26.7915 14.2948C26.4872 14.2948 26.1147 14.9868 26.0299 15.4532L25.9466 15.912H25.5469L25.7377 14.9005C25.7982 14.578 25.8588 14.2403 25.9012 13.9799H26.2964C26.2737 14.101 26.2252 14.307 26.1026 14.6673L26.1101 14.6719C26.2888 14.2903 26.5704 13.9375 26.952 13.9375C27.3093 13.9375 27.4229 14.1979 27.3517 14.5901L27.1034 15.912Z" fill="#044896"/>
<path fill-rule="evenodd" clip-rule="evenodd" d="M28.1099 15.0872C28.1024 15.1371 28.0948 15.2235 28.0948 15.281C28.0948 15.546 28.1902 15.6156 28.4749 15.6156C28.6535 15.6156 28.8489 15.5732 29.0154 15.5021V15.8291C28.8216 15.9033 28.5899 15.9502 28.3416 15.9502C27.8859 15.9502 27.6875 15.7443 27.6875 15.3082C27.6875 14.5345 28.1296 13.9395 28.7383 13.9395C29.1714 13.9395 29.3198 14.1651 29.3198 14.3952C29.3198 14.8298 28.8897 15.0599 28.1099 15.0872ZM28.6929 14.2514C28.4188 14.2514 28.2356 14.5027 28.1599 14.7995C28.6778 14.7798 28.92 14.6708 28.92 14.4497C28.92 14.321 28.8337 14.2514 28.6929 14.2514Z" fill="#044896"/>
<path fill-rule="evenodd" clip-rule="evenodd" d="M30.8394 14.3417C30.523 14.2478 30.1686 14.8929 30.0581 15.4834L29.9779 15.9119H29.5781L29.7689 14.9004C29.8189 14.6294 29.884 14.2675 29.9324 13.9798H30.3216C30.2943 14.1388 30.2444 14.3296 30.1414 14.6324L30.149 14.637C30.3594 14.1933 30.576 13.8829 30.9227 13.9405L30.8394 14.3417Z" fill="#044896"/>
<path fill-rule="evenodd" clip-rule="evenodd" d="M32.4778 15.9116H32.0811C32.1159 15.7526 32.181 15.5224 32.284 15.2045L32.2749 15.1999C32.1311 15.4921 31.857 15.954 31.4315 15.954C31.1529 15.954 31 15.7677 31 15.3559C31 14.6366 31.3695 13.9492 32.1992 13.9492C32.4203 13.9492 32.6338 13.9674 32.8276 14.0068C32.6413 14.9894 32.5581 15.4331 32.4778 15.9116ZM32.1311 14.2717C31.6253 14.2717 31.4118 14.835 31.4118 15.2817C31.4118 15.5027 31.477 15.5966 31.5829 15.5966C31.9024 15.5966 32.2643 14.885 32.3491 14.4459L32.3748 14.3066C32.3067 14.2869 32.2265 14.2717 32.1311 14.2717Z" fill="#044896"/>
<path fill-rule="evenodd" clip-rule="evenodd" d="M33.4466 15.9114H33.0469L33.539 13.248H33.9387L33.4466 15.9114Z" fill="#044896"/>
<path fill-rule="evenodd" clip-rule="evenodd" d="M36.283 15.9116H35.0156L35.5123 13.2422H35.9196L35.4911 15.5422H36.3541L36.283 15.9116Z" fill="#044896"/>
<path fill-rule="evenodd" clip-rule="evenodd" d="M37.3646 15.9502C36.865 15.9502 36.6484 15.6974 36.6484 15.2583C36.6484 14.4679 37.1511 13.9395 37.7629 13.9395C38.2807 13.9395 38.4866 14.2317 38.4866 14.6435C38.4866 15.4369 37.943 15.9502 37.3646 15.9502ZM37.7023 14.2938C37.3147 14.2938 37.0663 14.748 37.0663 15.1917C37.0663 15.4445 37.1663 15.5914 37.4207 15.5914C37.7795 15.5914 38.0642 15.1962 38.0642 14.6905C38.0642 14.4331 37.9536 14.2938 37.7023 14.2938Z" fill="#044896"/>
<mask id="mask3_320_8052" style="mask-type:luminance" maskUnits="userSpaceOnUse" x="38" y="13" width="3" height="4">
<path d="M38.375 13.5645H40.7007V16.8941H38.375V13.5645Z" fill="white"/>
</mask>
<g mask="url(#mask3_320_8052)">
<path fill-rule="evenodd" clip-rule="evenodd" d="M40.2175 16.063C40.1266 16.5566 39.8223 16.8942 39.0925 16.8942C38.879 16.8942 38.7063 16.864 38.5625 16.817L38.6579 16.4249C38.8063 16.4991 38.9955 16.5369 39.1682 16.5369C39.5452 16.5369 39.7647 16.39 39.8404 15.9933C39.8904 15.7283 39.9358 15.5815 40.0539 15.215H40.0464C39.9101 15.4921 39.636 15.954 39.209 15.954C38.932 15.954 38.779 15.7677 38.779 15.3559C38.779 14.6366 39.153 13.9492 39.9782 13.9492C40.1993 13.9492 40.4128 13.9674 40.6066 14.0068L40.2175 16.063ZM39.9101 14.2717C39.4029 14.2717 39.1909 14.835 39.1909 15.2817C39.1909 15.5027 39.2545 15.5966 39.362 15.5966C39.6815 15.5966 40.0433 14.885 40.1266 14.4459L40.1539 14.3066C40.0857 14.2869 40.0055 14.2717 39.9101 14.2717Z" fill="#044896"/>
</g>
<path fill-rule="evenodd" clip-rule="evenodd" d="M41.2279 15.9105H40.8281L41.19 13.9785H41.5897L41.2279 15.9105ZM41.4747 13.6908C41.3308 13.6908 41.2279 13.5742 41.2324 13.4425C41.2354 13.2865 41.3656 13.1699 41.5095 13.1699C41.6503 13.1699 41.7533 13.2835 41.7487 13.4152C41.7457 13.5742 41.617 13.6908 41.4747 13.6908Z" fill="#044896"/>
<path fill-rule="evenodd" clip-rule="evenodd" d="M43.0465 14.2968C42.9617 14.2665 42.8679 14.2544 42.7755 14.2544C42.5514 14.2544 42.4378 14.3558 42.4378 14.5027C42.4378 14.7798 42.9739 14.8767 42.9739 15.3037C42.9739 15.6277 42.6968 15.9502 42.1365 15.9502C42.0109 15.9502 41.9079 15.9381 41.8125 15.9184L41.8822 15.5611C41.976 15.5914 42.079 15.6111 42.182 15.6111C42.4076 15.6111 42.5544 15.5217 42.5544 15.3476C42.5544 15.063 42.0215 15.0084 42.0215 14.5466C42.0215 14.2075 42.2849 13.9395 42.7982 13.9395C42.9239 13.9395 43.0268 13.9516 43.1222 13.9713L43.0465 14.2968Z" fill="#044896"/>
<path fill-rule="evenodd" clip-rule="evenodd" d="M44.6589 14.302H44.1759L44.0003 15.2498C43.9518 15.5194 43.9897 15.592 44.1608 15.592C44.2637 15.592 44.3395 15.5814 44.4121 15.5648L44.3818 15.904C44.2637 15.9312 44.1229 15.9464 44.0124 15.9464C43.6157 15.9464 43.5052 15.7556 43.593 15.3044L43.7792 14.302H43.4219L43.487 13.9795H43.8398L43.9549 13.3647L44.3697 13.2754L44.2365 13.9795H44.724L44.6589 14.302Z" fill="#044896"/>
<path fill-rule="evenodd" clip-rule="evenodd" d="M45.2747 15.9105H44.875L45.2369 13.9785H45.6381L45.2747 15.9105ZM45.5231 13.6908C45.3777 13.6908 45.2747 13.5742 45.2793 13.4425C45.2838 13.2865 45.4125 13.1699 45.5579 13.1699C45.6972 13.1699 45.8001 13.2835 45.7971 13.4152C45.7926 13.5742 45.6639 13.6908 45.5231 13.6908Z" fill="#044896"/>
<path fill-rule="evenodd" clip-rule="evenodd" d="M47.332 14.3617C47.2397 14.3178 47.1337 14.2905 47.008 14.2905C46.5659 14.2905 46.3645 14.7963 46.3645 15.2005C46.3645 15.3989 46.4326 15.5821 46.7294 15.5821C46.8672 15.5821 47.011 15.5503 47.1246 15.4958L47.0943 15.8622C46.9611 15.9077 46.7945 15.947 46.6158 15.947C46.1162 15.947 45.9375 15.679 45.9375 15.2944C45.9375 14.5555 46.3524 13.9453 47.0337 13.9453C47.1821 13.9453 47.3048 13.965 47.4259 13.9998L47.332 14.3617Z" fill="#044896"/>
<path fill-rule="evenodd" clip-rule="evenodd" d="M48.7184 14.2968C48.6351 14.2665 48.5397 14.2544 48.4474 14.2544C48.2233 14.2544 48.1097 14.3558 48.1097 14.5027C48.1097 14.7798 48.6457 14.8767 48.6457 15.3037C48.6457 15.6277 48.3671 15.9502 47.8084 15.9502C47.6827 15.9502 47.5798 15.9381 47.4844 15.9184L47.554 15.5611C47.6494 15.5914 47.7509 15.6111 47.8538 15.6111C48.0779 15.6111 48.2278 15.5217 48.2278 15.3476C48.2278 15.063 47.6948 15.0084 47.6948 14.5466C47.6948 14.2075 47.9568 13.9395 48.4716 13.9395C48.5973 13.9395 48.6987 13.9516 48.7941 13.9713L48.7184 14.2968Z" fill="#044896"/>
<path fill-rule="evenodd" clip-rule="evenodd" d="M51.515 13.6599C51.3908 13.6175 51.2561 13.5978 51.1577 13.5978C50.7973 13.5978 50.6444 13.7962 50.6444 13.9915C50.6444 14.4306 51.409 14.4412 51.409 15.0681C51.409 15.5647 50.979 15.9508 50.3703 15.9508C50.2219 15.9508 50.0538 15.9387 49.9297 15.8993L50.0054 15.4996C50.1159 15.5465 50.2673 15.5814 50.4006 15.5814C50.767 15.5814 50.9669 15.4057 50.9669 15.1377C50.9669 14.7183 50.2098 14.7137 50.2098 14.0884C50.2098 13.6326 50.5444 13.248 51.1849 13.248C51.3212 13.248 51.4438 13.2571 51.5877 13.2844L51.515 13.6599Z" fill="#044896"/>
<mask id="mask4_320_8052" style="mask-type:luminance" maskUnits="userSpaceOnUse" x="51" y="13" width="3" height="4">
<path d="M51.1641 13.5645H53.8774V16.8941H51.1641V13.5645Z" fill="white"/>
</mask>
<g mask="url(#mask4_320_8052)">
<path fill-rule="evenodd" clip-rule="evenodd" d="M52.1624 16.537C51.9262 16.7747 51.6869 16.8913 51.4537 16.8913C51.3584 16.8913 51.2569 16.8792 51.1797 16.8595L51.2493 16.4946C51.322 16.5218 51.4008 16.5339 51.481 16.5339C51.6097 16.5339 51.7551 16.4628 51.8732 16.3386C52.0064 16.1993 52.067 16.0358 52.067 15.7753C52.067 15.2469 51.9534 14.6095 51.7853 13.9796H52.2305C52.3486 14.4459 52.4364 15.0243 52.4364 15.4377C52.4364 15.4952 52.4243 15.574 52.4137 15.6391H52.4167C52.6954 15.1303 52.9391 14.5973 53.2162 13.9023L53.6008 14.0114C53.0799 15.2499 52.6257 16.0676 52.1624 16.537Z" fill="#044896"/>
</g>
<path fill-rule="evenodd" clip-rule="evenodd" d="M54.7731 14.2968C54.6898 14.2665 54.5944 14.2544 54.5021 14.2544C54.278 14.2544 54.1644 14.3558 54.1644 14.5027C54.1644 14.7798 54.7004 14.8767 54.7004 15.3037C54.7004 15.6277 54.4233 15.9502 53.8631 15.9502C53.7374 15.9502 53.6345 15.9381 53.5391 15.9184L53.6087 15.5611C53.7041 15.5914 53.8071 15.6111 53.91 15.6111C54.1341 15.6111 54.2825 15.5217 54.2825 15.3476C54.2825 15.063 53.7495 15.0084 53.7495 14.5466C53.7495 14.2075 54.0115 13.9395 54.5263 13.9395C54.6504 13.9395 54.7534 13.9516 54.8488 13.9713L54.7731 14.2968Z" fill="#044896"/>
<path fill-rule="evenodd" clip-rule="evenodd" d="M56.3933 14.302H55.9103L55.7347 15.2498C55.6862 15.5194 55.7241 15.592 55.8952 15.592C55.9981 15.592 56.0738 15.5814 56.1465 15.5648L56.1162 15.904C55.9981 15.9312 55.8573 15.9464 55.7468 15.9464C55.3501 15.9464 55.241 15.7556 55.3273 15.3044L55.5151 14.302H55.1562L55.2214 13.9795H55.5757L55.6892 13.3647L56.1041 13.2754L55.9709 13.9795H56.4584L56.3933 14.302Z" fill="#044896"/>
<path fill-rule="evenodd" clip-rule="evenodd" d="M57.0396 15.0872C57.0321 15.1371 57.0245 15.2235 57.0245 15.281C57.0245 15.546 57.1199 15.6156 57.4061 15.6156C57.5847 15.6156 57.7785 15.5732 57.9466 15.5021V15.8291C57.7528 15.9033 57.5196 15.9502 57.2713 15.9502C56.8155 15.9502 56.6172 15.7443 56.6172 15.3082C56.6172 14.5345 57.0593 13.9395 57.668 13.9395C58.1026 13.9395 58.251 14.1651 58.251 14.3952C58.251 14.8298 57.8194 15.0599 57.0396 15.0872ZM57.6226 14.2514C57.3485 14.2514 57.1653 14.5027 57.0896 14.7995C57.6074 14.7798 57.8512 14.6708 57.8512 14.4497C57.8512 14.321 57.7634 14.2514 57.6226 14.2514Z" fill="#044896"/>
<path fill-rule="evenodd" clip-rule="evenodd" d="M61.1097 15.912H60.71L60.9386 14.687C60.9916 14.4114 60.9417 14.2948 60.8054 14.2948C60.554 14.2948 60.1619 14.8778 60.0559 15.4532L59.9681 15.912H59.5729L59.8 14.687C59.853 14.4114 59.8076 14.2948 59.6667 14.2948C59.3821 14.2948 59.0051 14.955 58.9142 15.4532L58.8294 15.912H58.4297L58.6205 14.9005C58.681 14.578 58.7416 14.2449 58.784 13.9799H59.1807C59.1565 14.1041 59.105 14.3145 58.9854 14.6673L58.9945 14.6719C59.1686 14.2903 59.4457 13.9375 59.8227 13.9375C60.0589 13.9375 60.2043 14.0723 60.2043 14.3176C60.2043 14.419 60.177 14.5129 60.1286 14.6794H60.1361C60.3103 14.2903 60.5889 13.9375 60.9644 13.9375C61.3111 13.9375 61.4292 14.1979 61.3565 14.5901L61.1097 15.912Z" fill="#044896"/>
<mask id="mask5_320_8052" style="mask-type:luminance" maskUnits="userSpaceOnUse" x="61" y="13" width="2" height="4">
<path d="M61.6328 13.5645H63.0016V16.2778H61.6328V13.5645Z" fill="white"/>
</mask>
<g mask="url(#mask5_320_8052)">
<path fill-rule="evenodd" clip-rule="evenodd" d="M62.9278 14.2968C62.8446 14.2665 62.7492 14.2544 62.6583 14.2544C62.4327 14.2544 62.3191 14.3558 62.3191 14.5027C62.3191 14.7798 62.8567 14.8767 62.8567 15.3037C62.8567 15.6277 62.5781 15.9502 62.0178 15.9502C61.8922 15.9502 61.7907 15.9381 61.6953 15.9184L61.7634 15.5611C61.8588 15.5914 61.9618 15.6111 62.0648 15.6111C62.2889 15.6111 62.4372 15.5217 62.4372 15.3476C62.4372 15.063 61.9043 15.0084 61.9043 14.5466C61.9043 14.2075 62.1662 13.9395 62.681 13.9395C62.8067 13.9395 62.9081 13.9516 63.0035 13.9713L62.9278 14.2968Z" fill="#044896"/>
</g>
<path fill-rule="evenodd" clip-rule="evenodd" d="M33.24 8.89382L34.6027 1.89844H32.2285L30.4297 11.2211L34.7617 11.2256L35.1947 8.89382H33.24Z" fill="#044896"/>
<path fill-rule="evenodd" clip-rule="evenodd" d="M40.2108 3.96091C40.6015 3.96091 41.1617 4.05479 41.4994 4.1744L41.9036 2.02734C41.4085 1.94709 40.8755 1.89258 40.2896 1.89258C37.7125 1.89258 36.5011 3.42793 36.5011 5.148C36.5011 7.40258 38.7921 7.37683 38.7921 8.33681C38.7921 8.81831 38.4544 9.0848 37.7261 9.0848C37.2173 9.0848 36.5148 8.96518 36.0984 8.80468L35.6562 11.1092C36.1378 11.2031 36.8146 11.2727 37.4899 11.2727C39.7944 11.2727 41.4085 9.73891 41.4085 7.88408C41.4085 5.69613 39.1055 5.65524 39.1055 4.69527C39.1055 4.26828 39.3917 3.96091 40.2108 3.96091Z" fill="#044896"/>
<path fill-rule="evenodd" clip-rule="evenodd" d="M28.5628 1.90039C25.0227 1.90039 22.75 4.55167 22.75 7.80407C22.75 9.8406 23.8205 11.2457 26.5248 11.2457C27.5953 11.2457 28.7248 11.0489 29.6273 10.6613L30.4949 6.15819H28.1177L27.6089 8.90334C27.4 8.95634 27.1516 8.96996 26.9563 8.96996C25.7677 8.96996 25.3362 8.31434 25.3362 7.4437C25.3362 5.82356 26.3295 4.15042 28.3539 4.15042C28.9232 4.15042 29.5455 4.25641 30.1027 4.42902C30.1587 4.44568 30.2178 4.46385 30.2784 4.48505C30.4782 4.55318 30.6508 4.62738 30.7735 4.694L31.2565 2.25924C30.4419 2.03666 29.4637 1.90039 28.5628 1.90039Z" fill="#044896"/>
<path fill-rule="evenodd" clip-rule="evenodd" d="M10.7774 1.92859L10.14 5.02049H14.5386C10.8956 10.42 3.66245 9.50389 1.75008 7.26446C0.104193 5.33695 1.52598 2.0361 6.40609 -0.00195312C1.57595 1.46829 -1.1359 5.32937 0.456991 7.92766C2.26337 10.8757 7.8945 12.1052 12.8988 10.6743C16.2435 9.49784 17.6699 7.85195 18.1922 6.96314L17.3731 11.2452H20.6603L22.444 1.92859H10.7774Z" fill="#FABE13"/>
</svg>
