<svg width="63" height="21" viewBox="0 0 63 21" fill="none" xmlns="http://www.w3.org/2000/svg">
<path d="M62.7993 0.738281V14.6738H0V0.738281H62.7993Z" fill="#FFCC00"/>
<path d="M11.0455 3.24023L9.03906 5.98121H19.9741C20.5268 5.98121 20.5195 6.19239 20.2494 6.56041C19.975 6.934 19.5158 7.58371 19.2364 7.9632C19.0946 8.15579 18.8381 8.50665 19.6879 8.50665H24.1596C24.1596 8.50665 24.8804 7.52044 25.4844 6.69586C26.3065 5.57432 25.5558 3.24035 22.6173 3.24035L11.0455 3.24023Z" fill="#D2002E"/>
<path d="M8.22567 12.17L12.2556 6.66389H17.2565C17.8093 6.66389 17.8021 6.87508 17.5319 7.24309C17.2575 7.61668 16.7908 8.25949 16.5114 8.63898C16.3695 8.83156 16.1131 9.18298 16.9628 9.18298H23.6624C23.1053 9.95054 21.2979 12.1699 18.0526 12.1699L8.22567 12.17ZM31.3055 9.18232L29.12 12.1698H23.3553C23.3553 12.1698 25.5395 9.18298 25.5414 9.18298L31.3055 9.18232ZM40.1368 8.50665H26.0366L29.8925 3.24023H35.6556L33.4455 6.26001H36.0179L38.2289 3.24023H43.9913L40.1368 8.50665ZM39.6419 9.18309L37.4555 12.17H31.6928C31.6928 12.17 33.877 9.18309 33.8789 9.18309H39.6419ZM0 10.3609H8.49263L8.02872 10.9954H0V10.3609ZM0 9.18309H9.35543L8.89063 9.81677H0V9.18309ZM0 11.5393H7.63027L7.16858 12.17H0V11.5393ZM62.7996 10.9954H54.3396L54.804 10.361H62.7996V10.9954ZM62.7996 12.17L53.4796 12.1709L53.9413 11.5393H62.7996V12.17ZM55.6657 9.18309H62.7996V9.8171L55.2017 9.81766L55.6657 9.18309ZM51.9725 3.24023L48.1174 8.50654H42.0106C42.0106 8.50654 45.8668 3.24023 45.8688 3.24023H51.9725ZM41.5165 9.18309C41.5165 9.18309 41.0952 9.76196 40.8907 10.0402C40.1668 11.024 40.8068 12.17 43.169 12.17H52.4243L54.6104 9.18309H41.5165Z" fill="#D2002E"/>
<path d="M0 16.9395H62.7996V17.2551H0V16.9395ZM0 18.4125H62.7996V18.7282H0V18.4125ZM0 19.8853H62.7996V20.2009H0V19.8853Z" fill="#FFCC00"/>
<path d="M21.0859 20.2002H22.9759L23.2776 19.7891H21.8711L22.6598 18.7144H23.9406L24.2424 18.3032H22.9615L23.6609 17.3502H25.0675L25.3692 16.939H23.4794L21.0859 20.2002ZM23.4054 20.2002H23.9854L25.9623 18.8172L25.9429 20.2002H26.552L26.5565 18.4949L28.8342 16.939H28.2832L26.4701 18.1911L26.4899 16.939H25.9099L25.8923 18.5042L23.4054 20.2002ZM29.5658 17.3502H29.9767C30.2764 17.3502 30.6113 17.4997 30.3095 17.9108C29.9941 18.3405 29.5108 18.4854 29.211 18.4854H28.7325L29.5658 17.3502ZM26.9908 20.2002H27.4741L28.4308 18.8967H28.9044C29.5134 18.8967 30.2868 18.6397 30.8183 17.9154C31.3635 17.1724 30.9598 16.9387 30.2687 16.9387H29.3842L26.9908 20.2002ZM29.7742 20.2002H30.2576L31.3206 18.7517H31.6104C31.8665 18.7517 32.0263 18.7517 31.943 19.0694L31.6304 20.2002H32.1815L32.4967 18.9012C32.5378 18.7004 32.5169 18.6303 32.408 18.5741L32.4149 18.5647C32.8545 18.4992 33.3646 18.219 33.6562 17.8218C34.2288 17.0416 33.6614 16.9387 32.9942 16.9387H32.1677L29.7742 20.2002ZM32.3493 17.3502H32.8132C33.2581 17.3502 33.3528 17.5371 33.1369 17.8313C32.9071 18.1445 32.4924 18.3405 32.0331 18.3405H31.6223L32.3493 17.3502ZM32.6819 20.2002H34.5719L34.8734 19.7891H33.4671L34.2557 18.7144H35.5366L35.8382 18.3032H34.5574L35.2568 17.3502H36.6634L36.9652 16.939H35.0754L32.6819 20.2002ZM39.2933 16.9997C39.1196 16.9202 38.881 16.8828 38.6587 16.8828C38.0497 16.8828 37.3497 17.1913 36.9245 17.7707C36.1804 18.7846 37.778 18.5837 37.243 19.3126C36.9618 19.6955 36.4653 19.8452 36.19 19.8452C35.9433 19.8452 35.722 19.7517 35.6056 19.6862L35.2385 20.1208C35.4095 20.1908 35.5936 20.2563 35.8304 20.2563C36.507 20.2563 37.2652 19.9803 37.7761 19.2842C38.5647 18.2097 37.0082 18.3543 37.4678 17.7285C37.7183 17.3874 38.1059 17.2939 38.3765 17.2939C38.6279 17.2939 38.7322 17.3362 38.9101 17.4295L39.2933 16.9997ZM41.7101 16.9997C41.5365 16.9202 41.298 16.8828 41.0755 16.8828C40.4665 16.8828 39.7666 17.1913 39.3413 17.7707C38.5972 18.7846 40.1948 18.5837 39.6598 19.3126C39.3787 19.6955 38.8821 19.8452 38.6068 19.8452C38.3601 19.8452 38.1387 19.7517 38.0226 19.6862L37.6554 20.1208C37.8263 20.1908 38.0104 20.2563 38.2471 20.2563C38.9238 20.2563 39.6819 19.9803 40.1928 19.2842C40.9815 18.2097 39.4252 18.3543 39.8846 17.7285C40.135 17.3874 40.5227 17.2939 40.7933 17.2939C41.0447 17.2939 41.1492 17.3362 41.3269 17.4295L41.7101 16.9997Z" fill="#D2002E"/>
</svg>
