<svg width="16" height="9" viewBox="0 0 16 9" fill="none" xmlns="http://www.w3.org/2000/svg">
<path d="M3.86274 0.710938C2.65111 0.710938 2.04529 0.710938 1.76477 0.950532C1.52136 1.15842 1.39218 1.47028 1.4173 1.7894C1.44624 2.15718 1.87462 2.58556 2.73137 3.44231L6.86863 7.57957C7.26465 7.97558 7.46265 8.17359 7.69098 8.24778C7.89183 8.31304 8.10817 8.31304 8.30902 8.24778C8.53735 8.17359 8.73535 7.97558 9.13137 7.57957L13.2686 3.44231C14.1254 2.58555 14.5538 2.15718 14.5827 1.7894C14.6078 1.47028 14.4786 1.15842 14.2352 0.950531C13.9547 0.710937 13.3489 0.710937 12.1373 0.710937L3.86274 0.710938Z" fill="#8FA0E6"/>
</svg>
