<svg width="374" height="25" viewBox="0 0 374 25" fill="none" xmlns="http://www.w3.org/2000/svg">
<g clip-path="url(#clip0_68_2343)">
<ellipse cx="362" cy="12.002" rx="12" ry="12" transform="rotate(-90 362 12.002)" fill="#1D1B1B"/>
<path d="M359 15.9759C359 17.0958 359 17.6558 359.227 17.9323C359.424 18.1726 359.721 18.3076 360.032 18.2977C360.389 18.2863 360.811 17.9175 361.654 17.18L365.624 13.7061C366.099 13.2903 366.337 13.0825 366.424 12.8362C366.501 12.62 366.501 12.3839 366.424 12.1677C366.337 11.9214 366.099 11.7136 365.624 11.2978L361.654 7.82386C360.811 7.08639 360.389 6.71765 360.032 6.70623C359.721 6.69631 359.424 6.83132 359.227 7.07159C359 7.3481 359 7.90806 359 9.02798L359 15.9759Z" fill="white"/>
<ellipse cx="12" cy="12.002" rx="12" ry="12" transform="rotate(90 12 12.002)" fill="#1D1B1B"/>
<path d="M15 9.02798C15 7.90806 15 7.3481 14.7732 7.07159C14.5762 6.83132 14.2786 6.69631 13.9681 6.70623C13.6106 6.71765 13.1892 7.08639 12.3464 7.82386L8.37614 11.2978C7.901 11.7136 7.66344 11.9214 7.5761 12.1677C7.49942 12.3839 7.49942 12.62 7.5761 12.8362C7.66344 13.0825 7.901 13.2903 8.37614 13.7061L12.3464 17.18C13.1892 17.9175 13.6106 18.2863 13.9681 18.2977C14.2786 18.3076 14.5762 18.1726 14.7732 17.9323C15 17.6558 15 17.0958 15 15.9759L15 9.02798Z" fill="white"/>
</g>
<defs>
<clipPath id="clip0_68_2343">
<rect width="374" height="24" fill="white" transform="translate(0 0.00195312)"/>
</clipPath>
</defs>
</svg>
