<svg width="30" height="31" viewBox="0 0 30 31" fill="none" xmlns="http://www.w3.org/2000/svg">
<path d="M13.2957 17.4597C13.2957 18.6336 13.2957 19.8076 13.2957 20.9887C13.2957 21.2107 13.2957 21.4326 13.2957 21.6616C13.2957 22.0482 13.124 22.3345 12.7735 22.492C12.4015 22.6495 12.0724 22.5564 11.7935 22.2773C10.6417 21.1319 9.49718 19.9794 8.34547 18.8341C6.68586 17.1733 5.02625 15.5126 3.36664 13.8518C2.87304 13.3579 2.8802 12.9141 3.37379 12.4202C6.1565 9.63554 8.93921 6.85093 11.7148 4.06632C11.958 3.82293 12.2155 3.66545 12.566 3.72272C13.0024 3.7943 13.2814 4.14506 13.2885 4.61751C13.2885 5.92034 13.2885 7.22317 13.2885 8.52599C13.2885 8.61905 13.2885 8.71927 13.2885 8.84812C13.403 8.84812 13.496 8.84812 13.589 8.84812C14.6477 8.86244 15.7136 8.82664 16.7723 8.90539C19.3261 9.08435 21.5508 10.0865 23.425 11.826C25.4495 13.7087 26.6083 16.0495 26.9303 18.7911C26.9803 19.192 26.9946 19.5929 26.9946 19.9937C27.0018 22.2629 27.0018 24.5321 26.9946 26.7942C26.9946 27.4742 26.3651 27.9037 25.7857 27.6246C25.4352 27.4599 25.285 27.1664 25.2778 26.7799C25.2635 25.3983 24.9917 24.0597 24.3693 22.8213C22.7741 19.6501 20.2203 17.8176 16.6793 17.474C15.5777 17.3666 14.4474 17.4597 13.2957 17.4597Z" fill="#8FA0E6"/>
</svg>
