<svg width="17" height="10" viewBox="0 0 17 10" fill="none" xmlns="http://www.w3.org/2000/svg">
<g id="Group 3">
<path id="Vector" d="M8.49069 0.508914C11.7468 0.574412 14.334 1.90307 16.1913 4.60248C16.3691 4.85979 16.3691 5.10307 16.1913 5.36038C14.596 7.69488 12.4018 9.10307 9.5901 9.39313C5.8942 9.77675 2.93747 8.42938 0.780748 5.37909C0.565543 5.075 0.570221 4.89722 0.780748 4.59312C2.36671 2.27733 4.55151 0.929967 7.33513 0.565055C7.53162 0.536984 7.72812 0.52295 7.92929 0.513593C8.11642 0.499558 8.30355 0.508914 8.49069 0.508914ZM8.49069 1.62236C6.60999 1.62704 5.11759 3.1288 5.12227 5.01418C5.12695 6.85277 6.65209 8.35453 8.51408 8.34985C10.348 8.34049 11.8498 6.82938 11.8498 4.99546C11.8451 3.1288 10.3386 1.61301 8.49069 1.62236Z" fill="#F8F8F8"/>
<path id="Vector_2" d="M8.49164 6.66182C7.56533 6.6665 6.80743 5.9086 6.80276 4.98697C6.79808 4.06065 7.55129 3.30276 8.47761 3.30276C9.40392 3.29808 10.1618 4.05129 10.1665 4.97761C10.1712 5.90392 9.41796 6.66182 8.49164 6.66182Z" fill="#F8F8F8"/>
</g>
</svg>
