<svg width="43" height="28" viewBox="0 0 43 28" fill="none" xmlns="http://www.w3.org/2000/svg">
<rect x="0.900391" y="1.21094" width="41" height="26" rx="3.5" fill="#8FA0E6" stroke="#253A8E"/>
<path d="M13.4042 23.7441V22.4733C13.4042 21.9871 13.1081 21.6688 12.5997 21.6688C12.3455 21.6688 12.0691 21.7527 11.8791 22.0291C11.7311 21.7971 11.5188 21.6688 11.2005 21.6688C10.9883 21.6688 10.7761 21.7329 10.6083 21.9649V21.7107H10.1641V23.7441H10.6083V22.6213C10.6083 22.261 10.7983 22.0908 11.0944 22.0908C11.3905 22.0908 11.5386 22.2808 11.5386 22.6213V23.7441H11.9828V22.6213C11.9828 22.261 12.195 22.0908 12.4689 22.0908C12.765 22.0908 12.9131 22.2808 12.9131 22.6213V23.7441H13.4042ZM19.993 21.7107H19.2724V21.0963H18.8283V21.7107H18.426V22.113H18.8283V23.0458C18.8283 23.5122 19.0183 23.7861 19.5266 23.7861C19.7166 23.7861 19.9289 23.7219 20.0769 23.638L19.9486 23.2555C19.8203 23.3394 19.6722 23.3616 19.5661 23.3616C19.3539 23.3616 19.27 23.2333 19.27 23.0236V22.113H19.9906V21.7107H19.993ZM23.7637 21.6663C23.5095 21.6663 23.3393 21.7946 23.2332 21.9624V21.7083H22.789V23.7417H23.2332V22.5966C23.2332 22.2586 23.3812 22.0661 23.6576 22.0661C23.7415 22.0661 23.8476 22.0883 23.934 22.108L24.0623 21.6836C23.9735 21.6663 23.8476 21.6663 23.7637 21.6663ZM18.0657 21.8785C17.8535 21.7305 17.5574 21.6663 17.239 21.6663C16.7307 21.6663 16.3926 21.9205 16.3926 22.3227C16.3926 22.6608 16.6468 22.8533 17.091 22.915L17.3032 22.9372C17.5352 22.9791 17.6635 23.0433 17.6635 23.1494C17.6635 23.2975 17.4932 23.4036 17.1971 23.4036C16.901 23.4036 16.6665 23.2975 16.5185 23.1914L16.3062 23.5294C16.5382 23.6997 16.8565 23.7836 17.1749 23.7836C17.7671 23.7836 18.1077 23.5072 18.1077 23.1272C18.1077 22.7669 17.8313 22.5769 17.4093 22.5127L17.1971 22.4905C17.0071 22.4683 16.859 22.4264 16.859 22.3005C16.859 22.1525 17.0071 22.0686 17.2415 22.0686C17.4957 22.0686 17.7499 22.1747 17.8782 22.2388L18.0657 21.8785ZM29.8837 21.6663C29.6295 21.6663 29.4592 21.7946 29.3531 21.9624V21.7083H28.9089V23.7417H29.3531V22.5966C29.3531 22.2586 29.5012 22.0661 29.7776 22.0661C29.8615 22.0661 29.9676 22.0883 30.054 22.108L30.1823 21.6885C30.0959 21.6663 29.9701 21.6663 29.8837 21.6663ZM24.2079 22.7274C24.2079 23.3419 24.6324 23.7861 25.2888 23.7861C25.5849 23.7861 25.7971 23.7219 26.0093 23.5541L25.7971 23.1938C25.6268 23.3222 25.459 23.3838 25.2666 23.3838C24.9063 23.3838 24.6521 23.1297 24.6521 22.7274C24.6521 22.3449 24.9063 22.0908 25.2666 22.071C25.4566 22.071 25.6268 22.1352 25.7971 22.261L26.0093 21.9007C25.7971 21.7305 25.5849 21.6688 25.2888 21.6688C24.6324 21.6663 24.2079 22.113 24.2079 22.7274ZM28.3167 22.7274V21.7107H27.8725V21.9649C27.7244 21.7749 27.5122 21.6688 27.2358 21.6688C26.6633 21.6688 26.2191 22.113 26.2191 22.7274C26.2191 23.3419 26.6633 23.7861 27.2358 23.7861C27.5319 23.7861 27.7442 23.68 27.8725 23.49V23.7441H28.3167V22.7274ZM26.6855 22.7274C26.6855 22.3671 26.9175 22.071 27.3 22.071C27.6603 22.071 27.9144 22.3474 27.9144 22.7274C27.9144 23.0877 27.6603 23.3838 27.3 23.3838C26.9199 23.3616 26.6855 23.0853 26.6855 22.7274ZM21.37 21.6663C20.7778 21.6663 20.3533 22.0908 20.3533 22.725C20.3533 23.3616 20.7778 23.7836 21.3922 23.7836C21.6884 23.7836 21.9845 23.6997 22.2189 23.5072L22.0067 23.1889C21.8364 23.3172 21.6242 23.4011 21.4144 23.4011C21.1381 23.4011 20.8641 23.2728 20.8 22.915H22.3028C22.3028 22.8508 22.3028 22.8089 22.3028 22.7447C22.3226 22.0908 21.9401 21.6663 21.37 21.6663ZM21.37 22.0488C21.6464 22.0488 21.8364 22.2191 21.8784 22.535H20.8197C20.8617 22.261 21.0517 22.0488 21.37 22.0488ZM32.4057 22.7274V20.9062H31.9615V21.9649C31.8134 21.7749 31.6012 21.6688 31.3248 21.6688C30.7523 21.6688 30.3081 22.113 30.3081 22.7274C30.3081 23.3419 30.7523 23.7861 31.3248 23.7861C31.621 23.7861 31.8332 23.68 31.9615 23.49V23.7441H32.4057V22.7274ZM30.7745 22.7274C30.7745 22.3671 31.0065 22.071 31.389 22.071C31.7493 22.071 32.0035 22.3474 32.0035 22.7274C32.0035 23.0877 31.7493 23.3838 31.389 23.3838C31.0065 23.3616 30.7745 23.0853 30.7745 22.7274ZM15.904 22.7274V21.7107H15.4598V21.9649C15.3117 21.7749 15.0995 21.6688 14.8231 21.6688C14.2506 21.6688 13.8064 22.113 13.8064 22.7274C13.8064 23.3419 14.2506 23.7861 14.8231 23.7861C15.1193 23.7861 15.3315 23.68 15.4598 23.49V23.7441H15.904V22.7274ZM14.2531 22.7274C14.2531 22.3671 14.4851 22.071 14.8676 22.071C15.2278 22.071 15.482 22.3474 15.482 22.7274C15.482 23.0877 15.2278 23.3838 14.8676 23.3838C14.4851 23.3616 14.2531 23.0853 14.2531 22.7274Z" fill="#253A8E"/>
<path d="M24.5907 6.26758H17.918V18.2558H24.5907V6.26758Z" fill="#5168C9"/>
<path d="M18.3623 12.262C18.3623 9.82635 19.5073 7.66462 21.2643 6.26789C19.9712 5.25118 18.3401 4.63672 16.5608 4.63672C12.3459 4.63672 8.93555 8.04712 8.93555 12.262C8.93555 16.4769 12.3459 19.8873 16.5608 19.8873C18.3401 19.8873 19.9712 19.2728 21.2643 18.2561C19.5048 16.8791 18.3623 14.6976 18.3623 12.262Z" fill="#253A8E"/>
<path d="M33.5924 12.262C33.5924 16.4769 30.182 19.8873 25.9672 19.8873C24.1879 19.8873 22.5568 19.2728 21.2637 18.2561C23.0429 16.8569 24.1657 14.6976 24.1657 12.262C24.1657 9.82635 23.0207 7.66462 21.2637 6.26789C22.5543 5.25118 24.1855 4.63672 25.9647 4.63672C30.182 4.63672 33.5924 8.06933 33.5924 12.262Z" fill="#778FEF"/>
</svg>
