<svg width="42" height="43" viewBox="0 0 42 43" fill="none" xmlns="http://www.w3.org/2000/svg">
<circle cx="21" cy="21.7109" r="21" fill="#8FA0E6" fill-opacity="0.14"/>
<g clip-path="url(#clip0_102_2819)">
<mask id="mask0_102_2819" style="mask-type:luminance" maskUnits="userSpaceOnUse" x="9" y="9" width="24" height="25">
<path d="M33 9.71094H9V33.7109H33V9.71094Z" fill="white"/>
</mask>
<g mask="url(#mask0_102_2819)">
<path fill-rule="evenodd" clip-rule="evenodd" d="M20.8275 9.71094H21.1777C27.7186 9.83984 32.8439 15.0322 33 21.5267V21.8295C32.9105 26.6731 30.0609 30.8666 25.6163 32.7612C25.5934 32.771 25.5772 32.7642 25.5675 32.7411L24.8367 30.9772C24.8339 30.9702 24.8338 30.9623 24.8366 30.9552C24.8394 30.9482 24.8448 30.9426 24.8517 30.9397C28.4869 29.3427 30.9028 25.9433 30.9933 21.9542C31.0419 19.8137 30.4147 17.7804 29.2593 16.0903L27.0469 17.9467L26.0045 18.8214L17.8997 25.622L15.8672 27.3275L14.0272 28.8715C15.6183 30.4263 17.6759 31.3746 19.9341 31.6527C19.9806 31.6586 20.0039 31.638 20.0039 31.5908V26.6445C20.0039 26.6224 19.993 26.6088 19.9711 26.6038C19.6746 26.5367 19.388 26.4454 19.1138 26.3318L26.0012 20.5525C25.9993 20.9337 25.9966 21.3148 25.9931 21.6959C25.9706 24.0898 24.3619 26.1036 22.0238 26.6023C22.0159 26.6041 22.0089 26.6084 22.0039 26.6147C21.9989 26.621 21.9961 26.6289 21.9961 26.637V33.7109H20.8331C14.2973 33.5553 9.15328 28.4398 9 21.8952V21.5328C9.13641 15.0209 14.3072 9.83938 20.8275 9.71094ZM25.8019 12.95C26.6086 13.3977 27.3378 13.9426 27.9774 14.5658L24 17.9081C24.0003 17.2527 24 16.5958 23.9991 15.9373C23.9987 15.6861 23.9817 15.5075 23.948 15.4016C23.6489 14.4636 22.2956 14.5077 22.0397 15.4513C22.0119 15.5538 21.9978 15.7381 21.9975 16.0044C21.9956 16.8769 21.9958 17.7734 21.998 18.6941C21.998 18.6985 21.9962 18.7028 21.993 18.706C21.9899 18.7092 21.9855 18.7109 21.9811 18.7109H20.0194C20.0182 18.7109 20.0169 18.7108 20.0158 18.7105C20.0148 18.7103 20.0139 18.71 20.0131 18.7097C20.0111 18.7088 20.0093 18.7076 20.0078 18.706C20.0062 18.7044 20.005 18.7025 20.0042 18.7005C20.0037 18.6993 20.0033 18.6979 20.0032 18.6965C20.003 18.6957 20.003 18.6949 20.003 18.6941C20.0045 17.7063 20.0038 16.7353 20.0006 15.7812C19.9983 15.192 19.5773 14.6877 18.9684 14.7148C18.5658 14.7331 18.2081 14.9848 18.0698 15.3627C18.0236 15.4886 18.0005 15.6942 18.0005 15.9795C17.9999 16.8801 17.9997 17.7794 18 18.6772C18 18.6861 17.9965 18.6947 17.9903 18.701C17.984 18.7074 17.9755 18.7109 17.9667 18.7109H16.0312C16.0119 18.7109 16.002 18.7206 16.0017 18.74C15.988 19.7203 15.99 20.6988 16.0078 21.6753C16.0147 22.0622 16.0395 22.3731 16.0823 22.6081C16.1811 23.1484 16.3638 23.6538 16.6166 24.1128L12.7576 27.3558C9.56177 22.6842 10.8433 16.2203 15.8044 13.1727C18.8316 11.3131 22.6912 11.2241 25.8019 12.95Z" fill="white"/>
</g>
</g>
<defs>
<clipPath id="clip0_102_2819">
<rect width="24" height="24" fill="white" transform="translate(9 9.71094)"/>
</clipPath>
</defs>
</svg>
