<svg width="42" height="43" viewBox="0 0 42 43" fill="none" xmlns="http://www.w3.org/2000/svg">
<circle cx="21" cy="21.7109" r="21" fill="#8FA0E6" fill-opacity="0.14"/>
<path d="M15.253 19.9414C16.3848 21.7737 18.2274 23.2898 20.0347 24.4776C22.8465 26.3251 26.1078 27.8632 29.4148 28.5491C29.417 28.5496 29.4191 28.5509 29.4206 28.5526C29.4221 28.5543 29.423 28.5565 29.4232 28.5588C29.4234 28.5611 29.4229 28.5634 29.4217 28.5654C29.4205 28.5673 29.4187 28.5689 29.4166 28.5698C25.4262 30.2937 20.9442 30.2053 17.0292 28.2415C16.7076 28.0807 16.6047 27.5934 16.5273 27.2784C16.5212 27.2533 16.5072 27.248 16.4853 27.2626C16.0637 27.5519 15.6977 27.4886 15.2822 27.2017C11.5135 24.5964 9.28771 20.4634 9.02395 15.9089C8.99471 15.4033 9.22618 15.1146 9.67999 14.9038C13.4128 13.1726 17.6524 13.1172 21.4382 14.6955C22.065 14.9568 22.2428 15.1822 22.2477 15.8797C22.2501 16.2943 22.2501 16.7063 22.2477 17.1156C22.2477 17.123 22.2495 17.1303 22.2529 17.1369C22.2562 17.1435 22.2611 17.1492 22.2671 17.1535C22.2731 17.1578 22.2801 17.1607 22.2874 17.1618C22.2947 17.163 22.3022 17.1624 22.3092 17.1601C22.8948 16.9708 23.494 16.8498 24.1068 16.797C24.8353 16.7337 25.1965 16.9852 25.704 17.4646C27.8818 19.5211 29.3078 22.0131 29.9819 24.9406C30.0897 25.4102 30.2646 26.1442 30.2761 26.8173C30.2763 26.8305 30.2733 26.8399 30.2671 26.8454C30.2607 26.8511 30.2509 26.8527 30.2378 26.8502C27.3718 26.3288 24.5807 25.0929 22.0467 23.5743C20.0225 22.3609 18.0672 20.9166 16.771 18.9351L15.253 19.9414Z" fill="white"/>
<path d="M29.4938 28.5625C29.4913 28.5618 29.489 28.5604 29.4874 28.5584C29.4857 28.5564 29.4846 28.554 29.4844 28.5514L30.3062 26.8776C30.3109 26.8735 30.3165 26.8704 30.3225 26.8687C30.3285 26.867 30.3349 26.8667 30.3411 26.8679C31.0168 26.9917 31.6806 27.0782 32.3323 27.1273C32.6369 27.1505 32.844 27.1881 32.9537 27.24L32.7155 28.9548C32.6209 28.9698 32.4044 28.9633 32.0661 28.9353C31.2056 28.8646 30.3482 28.7403 29.4938 28.5625Z" fill="white"/>
</svg>
