<svg width="43" height="28" viewBox="0 0 43 28" fill="none" xmlns="http://www.w3.org/2000/svg">
<rect x="1.30078" y="1.21094" width="41" height="26" rx="3.5" fill="#8FA0E6" stroke="#253A8E"/>
<path d="M9.5648 10.2734L6.00977 18.1406H10.2656L10.7932 16.8863H11.9992L12.5268 18.1406H17.2114V17.1833L17.6288 18.1406H20.052L20.4694 17.163V18.1406H30.212L31.3966 16.9188L32.5059 18.1406L37.5098 18.1507L33.9436 14.229L37.5098 10.2734H32.5835L31.4303 11.4726L30.3559 10.2734H19.7573L18.8472 12.304L17.9158 10.2734H13.6688V11.1982L13.1963 10.2734H9.5648ZM10.3883 11.3906H12.4628L14.8209 16.7254V11.3906H17.0934L18.9147 15.2156L20.5933 11.3906H22.8545V17.0358H21.4786L21.4674 12.6122L19.4615 17.0358H18.2307L16.2135 12.6122V17.0358H13.383L12.8464 15.7702H9.9473L9.4118 17.0347H7.89525L10.3883 11.3906ZM24.1133 11.3906H29.7079L31.4191 13.2389L33.1853 11.3906H34.8965L32.2966 14.2279L34.8965 17.0325H33.1077L31.3966 15.1627L29.6213 17.0325H24.1133V11.3906ZM11.3975 12.3457L10.4423 14.6003H12.3515L11.3975 12.3457ZM25.4949 12.5594V13.59H28.547V14.7386H25.4949V15.8636H28.9182L30.5089 14.2065L28.9857 12.5584H25.4949V12.5594Z" fill="#253A8E"/>
</svg>
