<svg width="70" height="22" viewBox="0 0 70 22" fill="none" xmlns="http://www.w3.org/2000/svg">
<path fill-rule="evenodd" clip-rule="evenodd" d="M63.3962 20.9749L60.569 17.825L57.7683 20.9749H51.8757L57.6346 14.5435L51.8757 8.11202H57.9527L60.8068 11.2361L63.5546 8.11202H69.4195L63.6865 14.5167L69.4998 20.9749H63.3962ZM40.5527 20.9749V0.710938H51.8757V5.22813H45.3481V8.11202H51.8757V12.4569H45.3481V16.4459H51.8757V20.9749H40.5527Z" fill="#FF7A08"/>
<path fill-rule="evenodd" clip-rule="evenodd" d="M35.7787 0.710938V9.00407H35.7244C34.6673 7.79641 33.3468 7.37691 31.8145 7.37691C28.6489 7.37691 26.2964 9.54324 25.486 12.382C24.5537 9.25173 22.1174 7.31861 18.4696 7.31861C15.5078 7.31861 13.2008 8.66741 11.9959 10.8329V8.11159H5.9188V5.22769H12.5513V0.710938H0.5V20.9749H5.9188V12.4569H11.35C11.1863 13.0873 11.072 13.7461 11.072 14.4602C11.072 18.6872 14.321 21.6539 18.4696 21.6539C21.9586 21.6539 24.2572 20.0264 25.4736 17.0601H20.8304C20.2026 17.953 19.7252 18.216 18.4691 18.216C17.0136 18.216 15.7584 16.9548 15.7584 15.4579H25.2389C25.6514 18.8126 28.2562 21.7109 31.867 21.7109C33.4258 21.7109 34.8531 20.9508 35.7244 19.6638H35.7787V20.9754H40.5533V0.710938H35.7787ZM15.9097 12.5174C16.2102 11.23 17.2148 10.3897 18.4691 10.3897C19.851 10.3897 20.8044 11.2055 21.055 12.5174H15.9097ZM32.8791 17.8903C31.1187 17.8903 30.025 16.2596 30.025 14.5593C30.025 12.7401 30.9758 10.9911 32.8791 10.9911C34.8531 10.9911 35.6379 12.7401 35.6379 14.5593C35.6379 16.2837 34.805 17.8903 32.8791 17.8903Z" fill="white"/>
</svg>
