<svg width="42" height="28" viewBox="0 0 42 28" fill="none" xmlns="http://www.w3.org/2000/svg">
<rect x="0.5" y="1.21094" width="41" height="26" rx="3.5" fill="#8FA0E6" stroke="#253A8E"/>
<path d="M11.4816 9.25804C11.13 9.66336 10.5674 9.98306 10.0048 9.93739C9.93451 9.38934 10.2099 8.80704 10.5322 8.44738C10.8838 8.03063 11.4991 7.73377 11.9973 7.71094C12.0559 8.28182 11.8273 8.84129 11.4816 9.25804ZM11.9914 10.0459C11.1768 10.0002 10.4795 10.4969 10.0927 10.4969C9.70011 10.4969 9.10825 10.0687 8.46364 10.0801C7.62566 10.0915 6.84627 10.5539 6.41849 11.2904C5.53948 12.7633 6.18994 14.944 7.03965 16.1429C7.45571 16.7366 7.95382 17.3874 8.61014 17.3646C9.23131 17.3418 9.47743 16.9707 10.2275 16.9707C10.9835 16.9707 11.2003 17.3646 11.8566 17.3532C12.5364 17.3418 12.9642 16.7595 13.3802 16.1657C13.8549 15.4921 14.0483 14.8356 14.06 14.8013C14.0483 14.7899 12.7473 14.3047 12.7356 12.8432C12.7239 11.6215 13.7611 11.0392 13.808 11.0049C13.222 10.16 12.3078 10.0687 11.9914 10.0459ZM16.697 8.39029V17.2904H18.1151V14.2476H20.0783C21.8714 14.2476 23.1313 13.0487 23.1313 11.3132C23.1313 9.57773 21.8949 8.39029 20.1251 8.39029H16.697ZM18.1151 9.5549H19.7501C20.9807 9.5549 21.6839 10.1943 21.6839 11.3189C21.6839 12.4436 20.9807 13.0887 19.7442 13.0887H18.1151V9.5549ZM25.7215 17.3589C26.6122 17.3589 27.4385 16.9193 27.8135 16.2228H27.8428V17.2904H29.1555V12.8603C29.1555 11.5758 28.1007 10.748 26.4774 10.748C24.9714 10.748 23.858 11.5872 23.817 12.7404H25.0945C25.1999 12.1924 25.7215 11.8327 26.4364 11.8327C27.3037 11.8327 27.7901 12.2266 27.7901 12.9517V13.4426L26.0203 13.5454C24.3737 13.6424 23.4829 14.2989 23.4829 15.4407C23.4829 16.5939 24.403 17.3589 25.7215 17.3589ZM26.1024 16.3028C25.3464 16.3028 24.8659 15.9488 24.8659 15.4065C24.8659 14.847 25.3289 14.5216 26.2137 14.4702L27.7901 14.3732V14.8755C27.7901 15.709 27.0634 16.3028 26.1024 16.3028ZM30.9076 19.7109C32.2906 19.7109 32.9411 19.1971 33.5095 17.6386L36 10.8337H34.5584L32.8883 16.0915H32.859L31.1889 10.8337H29.7063L32.1089 17.3132L31.98 17.7071C31.7632 18.3751 31.4116 18.632 30.7846 18.632C30.6732 18.632 30.4564 18.6205 30.3685 18.6091V19.6767C30.4505 19.6995 30.8021 19.7109 30.9076 19.7109Z" fill="#253A8E"/>
</svg>
