<svg width="16" height="9" viewBox="0 0 16 9" fill="none" xmlns="http://www.w3.org/2000/svg">
<path d="M3.86274 0.0283206C2.65111 0.0283207 2.04529 0.0283207 1.76477 0.267915C1.52136 0.475806 1.39218 0.787661 1.4173 1.10678C1.44624 1.47456 1.87462 1.90294 2.73137 2.75969L6.86863 6.89695C7.26465 7.29297 7.46265 7.49097 7.69098 7.56516C7.89183 7.63042 8.10817 7.63042 8.30902 7.56516C8.53735 7.49097 8.73535 7.29297 9.13137 6.89695L13.2686 2.75969C14.1254 1.90294 14.5538 1.47456 14.5827 1.10678C14.6078 0.787661 14.4786 0.475806 14.2352 0.267914C13.9547 0.0283202 13.3489 0.0283202 12.1373 0.0283203L3.86274 0.0283206Z" fill="black"/>
</svg>
