<svg width="24" height="25" viewBox="0 0 24 25" fill="none" xmlns="http://www.w3.org/2000/svg">
<ellipse cx="12" cy="12.333" rx="12" ry="12" transform="rotate(-90 12 12.333)" fill="white"/>
<path d="M9 16.307C9 17.4269 9 17.9869 9.22678 18.2634C9.42382 18.5036 9.72136 18.6387 10.0319 18.6287C10.3894 18.6173 10.8108 18.2486 11.6536 17.5111L15.6239 14.0371C16.099 13.6214 16.3366 13.4135 16.4239 13.1672C16.5006 12.951 16.5006 12.715 16.4239 12.4988C16.3366 12.2525 16.099 12.0446 15.6239 11.6289L11.6536 8.15491C10.8108 7.41744 10.3894 7.04871 10.0319 7.03729C9.72136 7.02736 9.42382 7.16238 9.22678 7.40264C9 7.67916 9 8.23912 9 9.35904L9 16.307Z" fill="black"/>
</svg>
