<svg width="16" height="9" viewBox="0 0 16 9" fill="none" xmlns="http://www.w3.org/2000/svg">
<path d="M3.86274 0.428223C2.65111 0.428223 2.04529 0.428223 1.76477 0.667817C1.52136 0.875709 1.39218 1.18756 1.4173 1.50668C1.44624 1.87446 1.87462 2.30284 2.73137 3.15959L6.86863 7.29685C7.26465 7.69287 7.46265 7.89088 7.69098 7.96507C7.89183 8.03032 8.10817 8.03032 8.30902 7.96507C8.53735 7.89088 8.73535 7.69287 9.13137 7.29685L13.2686 3.15959C14.1254 2.30284 14.5538 1.87446 14.5827 1.50668C14.6078 1.18756 14.4786 0.875708 14.2352 0.667816C13.9547 0.428223 13.3489 0.428223 12.1373 0.428223L3.86274 0.428223Z" fill="black"/>
</svg>
