<svg width="42" height="43" viewBox="0 0 42 43" fill="none" xmlns="http://www.w3.org/2000/svg">
<circle cx="21" cy="21.0283" r="21" fill="white"/>
<path fill-rule="evenodd" clip-rule="evenodd" d="M14.0787 14.0972C17.874 10.3073 24.0437 10.3476 27.8622 14.1661C31.6824 17.9863 31.7211 24.1596 27.9262 27.9545C24.1312 31.7494 17.9579 31.7107 14.1377 27.8906C11.8739 25.6267 10.939 22.5382 11.3405 19.6095C11.3967 19.1992 11.775 18.9121 12.1854 18.9683C12.5957 19.0246 12.8828 19.4029 12.8266 19.8132C12.4866 22.2936 13.2778 24.9093 15.1984 26.8299C18.4429 30.0744 23.6664 30.093 26.8655 26.8939C30.0646 23.6947 30.046 18.4712 26.8015 15.2268C23.5587 11.9839 18.3389 11.9637 15.1393 15.1579L15.887 15.1616C16.3013 15.1637 16.6354 15.5012 16.6333 15.9154C16.6312 16.3296 16.2937 16.6637 15.8795 16.6616L13.334 16.6488C12.9227 16.6468 12.5898 16.3139 12.5877 15.9026L12.5749 13.3571C12.5729 12.9429 12.907 12.6054 13.3212 12.6033C13.7354 12.6012 14.0728 12.9353 14.0749 13.3495L14.0787 14.0972ZM20.9999 16.2782C21.4141 16.2782 21.7499 16.614 21.7499 17.0282V20.7176L24.0302 22.9979C24.3231 23.2908 24.3231 23.7657 24.0302 24.0586C23.7373 24.3515 23.2624 24.3515 22.9696 24.0586L20.2499 21.3389V17.0282C20.2499 16.614 20.5857 16.2782 20.9999 16.2782Z" fill="black"/>
</svg>
