<svg width="42" height="43" viewBox="0 0 42 43" fill="none" xmlns="http://www.w3.org/2000/svg">
<circle cx="21" cy="21.0283" r="21" fill="white"/>
<path d="M21.3213 24.1365V29.1781C21.3213 30.2919 20.4168 31.2158 19.3341 30.9956C14.7632 30.0664 11.3213 25.9943 11.3213 21.1115C11.3213 19.2577 11.8174 17.5208 12.6831 16.0283M25.6854 30.1864C29.0216 28.5522 31.3213 25.1027 31.3213 21.1115C31.3213 15.5427 26.8441 11.0283 21.3213 11.0283C19.4999 11.0283 17.7922 11.5193 16.3213 12.3773" stroke="black" stroke-width="1.5" stroke-linecap="round" stroke-linejoin="round"/>
<path d="M18.3213 20.8283C18.3213 20.3865 18.6795 20.0283 19.1213 20.0283H23.5213C23.9631 20.0283 24.3213 20.3865 24.3213 20.8283V21.0283C24.3213 22.6852 22.9781 24.0283 21.3213 24.0283C19.6644 24.0283 18.3213 22.6852 18.3213 21.0283V20.8283Z" stroke="black" stroke-width="1.5"/>
<path d="M22.8213 20.0283V18.0283" stroke="black" stroke-width="1.5" stroke-linecap="round"/>
<path d="M19.8213 20.0283V18.0283" stroke="black" stroke-width="1.5" stroke-linecap="round"/>
</svg>
