<svg width="42" height="43" viewBox="0 0 42 43" fill="none" xmlns="http://www.w3.org/2000/svg">
<circle cx="21" cy="21.0283" r="21" fill="white"/>
<path d="M16 18.0283C16 18.0283 16.5 18.9283 16.5 21.0283C16.5 23.1283 16 24.0283 16 24.0283" stroke="black" stroke-width="1.5" stroke-linecap="round"/>
<path d="M19.5 18.0283C19.5 18.0283 20 18.9283 20 21.0283C20 23.1283 19.5 24.0283 19.5 24.0283" stroke="black" stroke-width="1.5" stroke-linecap="round"/>
<path d="M23 18.0283C23 18.0283 23.5 18.9283 23.5 21.0283C23.5 23.1283 23 24.0283 23 24.0283" stroke="black" stroke-width="1.5" stroke-linecap="round"/>
<path d="M29 19.0283C29.9428 19.0283 30.4142 19.0283 30.7071 19.3212C31 19.6141 31 20.0855 31 21.0283C31 21.9711 31 22.4425 30.7071 22.7354C30.4142 23.0283 29.9428 23.0283 29 23.0283V19.0283Z" stroke="black" stroke-width="1.5"/>
<path d="M11 21.0283C11 17.2571 11 15.3715 12.1716 14.1999C13.3431 13.0283 15.2288 13.0283 19 13.0283H20.5C24.2712 13.0283 26.1569 13.0283 27.3284 14.1999C28.5 15.3715 28.5 17.2571 28.5 21.0283C28.5 24.7996 28.5 26.6852 27.3284 27.8567C26.1569 29.0283 24.2712 29.0283 20.5 29.0283H19C15.2288 29.0283 13.3431 29.0283 12.1716 27.8567C11.5184 27.2036 11.2294 26.3284 11.1015 25.0283" stroke="black" stroke-width="1.5" stroke-linecap="round"/>
</svg>
