<svg width="42" height="43" viewBox="0 0 42 43" fill="none" xmlns="http://www.w3.org/2000/svg">
<circle cx="21" cy="21.0283" r="21" fill="white"/>
<path d="M22.5 16.0283H25.5L22.5 19.0283H25.5" stroke="black" stroke-width="1.5" stroke-linecap="round" stroke-linejoin="round"/>
<path d="M27 10.0283H31L27 14.0283H31" stroke="black" stroke-width="1.5" stroke-linecap="round" stroke-linejoin="round"/>
<path d="M30.0672 19.8852L29.4253 19.4973L30.0672 19.8852ZM21.1432 10.9611L20.7553 10.3192V10.3192L21.1432 10.9611ZM30.25 20.0283C30.25 25.137 26.1086 29.2783 21 29.2783V30.7783C26.9371 30.7783 31.75 25.9654 31.75 20.0283H30.25ZM21 29.2783C15.8914 29.2783 11.75 25.137 11.75 20.0283H10.25C10.25 25.9654 15.0629 30.7783 21 30.7783V29.2783ZM11.75 20.0283C11.75 14.9197 15.8914 10.7783 21 10.7783V9.27832C15.0629 9.27832 10.25 14.0913 10.25 20.0283H11.75ZM24.5 22.2783C21.3244 22.2783 18.75 19.704 18.75 16.5283H17.25C17.25 20.5324 20.4959 23.7783 24.5 23.7783V22.2783ZM29.4253 19.4973C28.4172 21.1657 26.5882 22.2783 24.5 22.2783V23.7783C27.1349 23.7783 29.4407 22.3722 30.7092 20.273L29.4253 19.4973ZM18.75 16.5283C18.75 14.4401 19.8627 12.6111 21.531 11.603L20.7553 10.3192C18.6561 11.5876 17.25 13.8934 17.25 16.5283H18.75ZM21 10.7783C20.9115 10.7783 20.8077 10.7384 20.7324 10.66C20.6686 10.5936 20.6538 10.5308 20.6503 10.5053C20.6461 10.4742 20.6482 10.3839 20.7553 10.3192L21.531 11.603C22.0342 11.299 22.196 10.7423 22.1368 10.3046C22.0754 9.84958 21.7166 9.27832 21 9.27832V10.7783ZM30.7092 20.273C30.6444 20.3802 30.5541 20.3822 30.523 20.378C30.4976 20.3745 30.4347 20.3597 30.3683 20.2959C30.2899 20.2206 30.25 20.1169 30.25 20.0283H31.75C31.75 19.3117 31.1787 18.9529 30.7237 18.8915C30.286 18.8324 29.7293 18.9942 29.4253 19.4973L30.7092 20.273Z" fill="black"/>
</svg>
