<svg width="374" height="25" viewBox="0 0 374 25" fill="none" xmlns="http://www.w3.org/2000/svg">
<g clip-path="url(#clip0_740_1019)">
<ellipse cx="362" cy="12.333" rx="12" ry="12" transform="rotate(-90 362 12.333)" fill="white"/>
<path d="M359 16.307C359 17.4269 359 17.9869 359.227 18.2634C359.424 18.5036 359.721 18.6387 360.032 18.6287C360.389 18.6173 360.811 18.2486 361.654 17.5111L365.624 14.0371C366.099 13.6214 366.337 13.4135 366.424 13.1672C366.501 12.951 366.501 12.715 366.424 12.4988C366.337 12.2525 366.099 12.0446 365.624 11.6289L361.654 8.15491C360.811 7.41744 360.389 7.04871 360.032 7.03729C359.721 7.02736 359.424 7.16238 359.227 7.40264C359 7.67916 359 8.23912 359 9.35904L359 16.307Z" fill="black"/>
<ellipse cx="12" cy="12.333" rx="12" ry="12" transform="rotate(90 12 12.333)" fill="white"/>
<path d="M15 9.35904C15 8.23912 15 7.67916 14.7732 7.40264C14.5762 7.16238 14.2786 7.02736 13.9681 7.03729C13.6106 7.04871 13.1892 7.41744 12.3464 8.15491L8.37614 11.6289C7.901 12.0446 7.66344 12.2525 7.5761 12.4988C7.49942 12.715 7.49942 12.951 7.5761 13.1672C7.66344 13.4135 7.901 13.6214 8.37614 14.0371L12.3464 17.5111C13.1892 18.2486 13.6106 18.6173 13.9681 18.6287C14.2786 18.6387 14.5762 18.5036 14.7732 18.2634C15 17.9869 15 17.4269 15 16.307L15 9.35904Z" fill="black"/>
</g>
<defs>
<clipPath id="clip0_740_1019">
<rect width="374" height="24" fill="white" transform="translate(0 0.333008)"/>
</clipPath>
</defs>
</svg>
