<svg width="43" height="28" viewBox="0 0 43 28" fill="none" xmlns="http://www.w3.org/2000/svg">
<rect x="1.09961" y="0.69043" width="41" height="26" rx="6.5" fill="white" stroke="#9B9B9B"/>
<path d="M21.1968 13.5844V17.4193H19.96V7.93506H23.1768C23.9599 7.93506 24.7018 8.22316 25.2799 8.75941C25.8574 9.25377 26.1462 9.99627 26.1462 10.78C26.1462 11.5638 25.8581 12.2644 25.2799 12.8006C24.7024 13.3369 24.0018 13.625 23.1768 13.625L21.1968 13.5844ZM21.1968 9.08941V12.3888H23.2593C23.7131 12.3888 24.1668 12.2231 24.4556 11.8944C25.1156 11.2763 25.1156 10.2451 24.4962 9.62631L24.4556 9.58441C24.1256 9.25441 23.7131 9.04816 23.2593 9.09006H21.1968V9.08941Z" fill="#9B9B9B"/>
<path d="M28.9914 10.74C29.8989 10.74 30.5995 10.9868 31.1358 11.4825C31.672 11.9768 31.9189 12.6368 31.9189 13.4618V17.4212H30.7645V16.5137H30.7239C30.2296 17.2562 29.5277 17.6274 28.7033 17.6274C28.0027 17.6274 27.3833 17.4212 26.889 17.0093C26.4352 16.5968 26.1465 16.0193 26.1465 15.4012C26.1465 14.7412 26.394 14.2063 26.889 13.7931C27.3833 13.3806 28.0839 13.2156 28.9096 13.2156C29.6521 13.2156 30.2296 13.3394 30.6827 13.6281V13.34C30.6827 12.9275 30.5183 12.5157 30.1883 12.2675C29.8583 11.9794 29.4458 11.8138 28.9921 11.8138C28.2915 11.8138 27.7552 12.1019 27.384 12.68L26.3115 12.02C26.9708 11.1518 27.8371 10.74 28.9914 10.74ZM27.4246 15.4406C27.4246 15.7706 27.5889 16.0587 27.8371 16.2237C28.1252 16.4299 28.4552 16.5537 28.7852 16.5537C29.2796 16.5537 29.7752 16.3474 30.1458 15.9768C30.5583 15.6049 30.7639 15.1524 30.7639 14.6568C30.3933 14.3687 29.8564 14.2031 29.1558 14.2031C28.6614 14.2031 28.2483 14.3268 27.9189 14.5737C27.5889 14.7806 27.4246 15.0693 27.4246 15.4406Z" fill="#9B9B9B"/>
<path d="M38.5993 10.9453L34.5175 20.3052H33.2794L34.8056 17.0477L32.125 10.9859H33.445L35.3825 15.6452H35.4237L37.3206 10.9859H38.5993V10.9453Z" fill="#9B9B9B"/>
<path d="M16.2915 12.76C16.2915 12.3881 16.2496 12.0175 16.209 11.6462H11.0547V13.7493H13.9821C13.8584 14.4093 13.4878 15.0274 12.9096 15.3987V16.7593H14.6828C15.7134 15.8112 16.2915 14.4087 16.2915 12.76Z" fill="#9B9B9B"/>
<path d="M11.0531 18.079C12.5374 18.079 13.7743 17.5846 14.6824 16.759L12.9093 15.3984C12.415 15.7284 11.7956 15.9346 11.0544 15.9346C9.65185 15.9346 8.415 14.9865 8.00314 13.6665H6.1875V15.069C7.13561 16.9246 8.99185 18.079 11.0531 18.079Z" fill="#C8C8C8"/>
<path d="M8.00178 13.6675C7.75428 13.0075 7.75428 12.265 8.00178 11.5644V10.1619H6.18742C5.40367 11.6881 5.40367 13.5025 6.18742 15.0693L8.00178 13.6675Z" fill="#9B9B9B"/>
<path d="M11.0528 9.33709C11.8366 9.33709 12.5791 9.6252 13.1559 10.1614L14.7234 8.59459C13.7334 7.68774 12.4141 7.15149 11.0941 7.19209C9.03158 7.19209 7.13602 8.34645 6.22852 10.2027L8.04287 11.6039C8.41412 10.2858 9.65098 9.33709 11.0528 9.33709Z" fill="#C8C8C8"/>
</svg>
