<svg width="43" height="28" viewBox="0 0 43 28" fill="none" xmlns="http://www.w3.org/2000/svg">
<rect x="0.700195" y="0.928223" width="41" height="26" rx="6.5" fill="white" stroke="#9B9B9B"/>
<path d="M17.1345 17.2773V8.54199H20.4109C21.0829 8.54199 21.6461 8.66696 22.1026 8.91691C22.559 9.16685 22.9049 9.51098 23.1386 9.94747C23.3722 10.384 23.4899 10.8802 23.4899 11.4345C23.4899 11.9887 23.3722 12.4922 23.1367 12.9269C22.9013 13.3616 22.5517 13.7039 22.0917 13.952C21.6316 14.2001 21.0629 14.3251 20.3892 14.3251H18.2176V13.0247H20.1755C20.5685 13.0247 20.8891 12.9558 21.139 12.82C21.3889 12.6842 21.5755 12.4958 21.695 12.2567C21.8164 12.0177 21.8762 11.7442 21.8762 11.4326C21.8762 11.1211 21.8164 10.8494 21.695 10.614C21.5737 10.3785 21.3871 10.1938 21.1354 10.0616C20.8836 9.92936 20.5594 9.86416 20.1646 9.86416H18.7138V17.2791H17.1309L17.1345 17.2773Z" fill="#9B9B9B"/>
<path d="M26.5665 17.4096C26.1518 17.4096 25.7787 17.3354 25.4472 17.1851C25.1158 17.0365 24.855 16.8156 24.663 16.5222C24.471 16.2288 24.375 15.8683 24.375 15.4391C24.375 15.0696 24.4438 14.7635 24.5797 14.5226C24.7155 14.2817 24.9021 14.0879 25.1393 13.943C25.3748 13.7981 25.641 13.6877 25.9399 13.6116C26.2369 13.5355 26.5448 13.4812 26.8636 13.4468C27.2475 13.4069 27.5591 13.3707 27.7981 13.3381C28.0372 13.3055 28.2111 13.2548 28.3216 13.1842C28.4321 13.1135 28.4864 13.0048 28.4864 12.8581V12.8328C28.4864 12.5122 28.3904 12.2623 28.2002 12.0866C28.01 11.9109 27.7347 11.8221 27.3761 11.8221C26.9976 11.8221 26.6987 11.9055 26.4778 12.0703C26.2568 12.2351 26.1083 12.4307 26.0322 12.6553L24.5905 12.4506C24.7046 12.0522 24.8912 11.7189 25.1538 11.4509C25.4146 11.1828 25.7352 10.9799 26.1137 10.8459C26.4923 10.7101 26.9107 10.6431 27.3671 10.6431C27.6822 10.6431 27.9974 10.6793 28.3107 10.7535C28.624 10.8278 28.9102 10.9492 29.1674 11.1176C29.4264 11.286 29.6347 11.5161 29.7922 11.8058C29.9498 12.0956 30.0295 12.4579 30.0295 12.8944V17.2792H28.5443V16.3791H28.4936C28.3994 16.5602 28.269 16.7305 28.0988 16.888C27.9304 17.0456 27.7184 17.1724 27.4631 17.2684C27.2077 17.3644 26.9107 17.4115 26.5702 17.4115L26.5665 17.4096ZM26.9668 16.2758C27.2765 16.2758 27.5464 16.2143 27.7728 16.0911C28.001 15.9679 28.1767 15.8031 28.2998 15.5985C28.423 15.3938 28.4846 15.171 28.4846 14.9283V14.1568C28.4357 14.1966 28.3542 14.2328 28.2401 14.2672C28.126 14.3017 27.9956 14.3306 27.8543 14.3578C27.7112 14.3832 27.5717 14.4067 27.4323 14.4266C27.2928 14.4466 27.1715 14.4647 27.07 14.4773C26.84 14.5081 26.6335 14.5607 26.4506 14.6313C26.2677 14.7019 26.1246 14.8015 26.0196 14.9283C25.9145 15.0551 25.862 15.2181 25.862 15.4173C25.862 15.7017 25.9652 15.9172 26.1735 16.0621C26.3818 16.207 26.6462 16.2795 26.9668 16.2795V16.2758Z" fill="#9B9B9B"/>
<path d="M32.3051 19.735C32.095 19.735 31.9012 19.7187 31.7237 19.6861C31.5462 19.6535 31.4049 19.6155 31.2999 19.5738L31.6585 18.3712C31.8831 18.4364 32.0841 18.4672 32.2598 18.4654C32.4355 18.4618 32.5912 18.4074 32.7271 18.3006C32.8629 18.1937 32.977 18.0162 33.0712 17.7699L33.2034 17.4167L30.8271 10.728H32.4645L33.975 15.6762H34.0438L35.558 10.728H37.2007L34.5763 18.0742C34.4531 18.4219 34.2919 18.719 34.0891 18.9671C33.8862 19.2152 33.6399 19.4072 33.3483 19.5394C33.0567 19.6716 32.709 19.7369 32.3051 19.7369V19.735Z" fill="#9B9B9B"/>
<path d="M10.0451 17.7447C7.59096 17.7447 5.80875 16.0965 5.80875 13.8271C5.80875 13.0085 6.0587 11.804 7.24864 10.7173L7.27219 10.6956L8.53096 11.9978C8.51647 12.0123 8.49655 12.0304 8.47119 12.054C7.9061 12.5702 7.61994 13.1661 7.61994 13.8271C7.61994 15.0877 8.59435 15.9335 10.0451 15.9335C11.9269 15.9335 13.144 14.6204 13.144 12.5865C13.144 10.9637 11.8653 9.23941 9.49632 9.23941C7.74129 9.23941 6.53504 10.4837 6.52417 10.4964L5.2002 9.25752C5.26902 9.18326 6.9335 7.42822 9.49451 7.42822C12.9122 7.42822 14.9534 10.0508 14.9534 12.5865C14.9534 15.6238 12.9339 17.7447 10.0433 17.7447H10.0451Z" fill="#9B9B9B"/>
</svg>
