<svg width="43" height="28" viewBox="0 0 43 28" fill="none" xmlns="http://www.w3.org/2000/svg">
<rect x="0.700195" y="0.69043" width="41" height="26" rx="6.5" fill="white" stroke="#9B9B9B"/>
<path d="M17.1345 17.0395V8.3042H20.4109C21.0829 8.3042 21.6461 8.42917 22.1026 8.67911C22.559 8.92906 22.9049 9.27318 23.1386 9.70968C23.3722 10.1462 23.4899 10.6424 23.4899 11.1967C23.4899 11.7509 23.3722 12.2544 23.1367 12.6891C22.9013 13.1238 22.5517 13.4661 22.0917 13.7142C21.6316 13.9623 21.0629 14.0873 20.3892 14.0873H18.2176V12.7869H20.1755C20.5685 12.7869 20.8891 12.7181 21.139 12.5822C21.3889 12.4464 21.5755 12.258 21.695 12.0189C21.8164 11.7799 21.8762 11.5064 21.8762 11.1948C21.8762 10.8833 21.8164 10.6116 21.695 10.3762C21.5737 10.1407 21.3871 9.956 21.1354 9.82378C20.8836 9.69157 20.5594 9.62636 20.1646 9.62636H18.7138V17.0413H17.1309L17.1345 17.0395Z" fill="#9B9B9B"/>
<path d="M26.5665 17.1721C26.1518 17.1721 25.7787 17.0978 25.4472 16.9475C25.1158 16.799 24.855 16.578 24.663 16.2846C24.471 15.9912 24.375 15.6308 24.375 15.2015C24.375 14.832 24.4438 14.526 24.5797 14.2851C24.7155 14.0442 24.9021 13.8504 25.1393 13.7055C25.3748 13.5606 25.641 13.4501 25.9399 13.374C26.2369 13.298 26.5448 13.2436 26.8636 13.2092C27.2475 13.1694 27.5591 13.1332 27.7981 13.1006C28.0372 13.068 28.2111 13.0172 28.3216 12.9466C28.4321 12.876 28.4864 12.7673 28.4864 12.6206V12.5952C28.4864 12.2747 28.3904 12.0247 28.2002 11.849C28.01 11.6733 27.7347 11.5846 27.3761 11.5846C26.9976 11.5846 26.6987 11.6679 26.4778 11.8327C26.2568 11.9975 26.1083 12.1932 26.0322 12.4177L24.5905 12.2131C24.7046 11.8146 24.8912 11.4814 25.1538 11.2133C25.4146 10.9452 25.7352 10.7424 26.1137 10.6084C26.4923 10.4725 26.9107 10.4055 27.3671 10.4055C27.6822 10.4055 27.9974 10.4417 28.3107 10.516C28.624 10.5903 28.9102 10.7116 29.1674 10.88C29.4264 11.0485 29.6347 11.2785 29.7922 11.5683C29.9498 11.8581 30.0295 12.2203 30.0295 12.6568V17.0417H28.5443V16.1415H28.4936C28.3994 16.3227 28.269 16.4929 28.0988 16.6505C27.9304 16.808 27.7184 16.9348 27.4631 17.0308C27.2077 17.1268 26.9107 17.1739 26.5702 17.1739L26.5665 17.1721ZM26.9668 16.0383C27.2765 16.0383 27.5464 15.9767 27.7728 15.8536C28.001 15.7304 28.1767 15.5656 28.2998 15.3609C28.423 15.1563 28.4846 14.9335 28.4846 14.6908V13.9192C28.4357 13.9591 28.3542 13.9953 28.2401 14.0297C28.126 14.0641 27.9956 14.0931 27.8543 14.1203C27.7112 14.1456 27.5717 14.1692 27.4323 14.1891C27.2928 14.209 27.1715 14.2271 27.07 14.2398C26.84 14.2706 26.6335 14.3231 26.4506 14.3937C26.2677 14.4644 26.1246 14.564 26.0196 14.6908C25.9145 14.8176 25.862 14.9806 25.862 15.1798C25.862 15.4642 25.9652 15.6797 26.1735 15.8246C26.3818 15.9695 26.6462 16.0419 26.9668 16.0419V16.0383Z" fill="#9B9B9B"/>
<path d="M32.3051 19.4972C32.095 19.4972 31.9012 19.4809 31.7237 19.4483C31.5462 19.4157 31.4049 19.3777 31.2999 19.3361L31.6585 18.1334C31.8831 18.1986 32.0841 18.2294 32.2598 18.2276C32.4355 18.224 32.5912 18.1696 32.7271 18.0628C32.8629 17.9559 32.977 17.7784 33.0712 17.5321L33.2034 17.1789L30.8271 10.4902H32.4645L33.975 15.4384H34.0438L35.558 10.4902H37.2007L34.5763 17.8364C34.4531 18.1841 34.2919 18.4812 34.0891 18.7293C33.8862 18.9774 33.6399 19.1694 33.3483 19.3016C33.0567 19.4339 32.709 19.4991 32.3051 19.4991V19.4972Z" fill="#9B9B9B"/>
<path d="M10.0451 17.5069C7.59096 17.5069 5.80875 15.8588 5.80875 13.5893C5.80875 12.7707 6.0587 11.5662 7.24864 10.4795L7.27219 10.4578L8.53096 11.76C8.51647 11.7745 8.49655 11.7926 8.47119 11.8162C7.9061 12.3324 7.61994 12.9283 7.61994 13.5893C7.61994 14.8499 8.59435 15.6957 10.0451 15.6957C11.9269 15.6957 13.144 14.3826 13.144 12.3487C13.144 10.7259 11.8653 9.00161 9.49632 9.00161C7.74129 9.00161 6.53504 10.2459 6.52417 10.2586L5.2002 9.01972C5.26902 8.94547 6.9335 7.19043 9.49451 7.19043C12.9122 7.19043 14.9534 9.81302 14.9534 12.3487C14.9534 15.386 12.9339 17.5069 10.0433 17.5069H10.0451Z" fill="#9B9B9B"/>
</svg>
