<svg width="43" height="28" viewBox="0 0 43 28" fill="none" xmlns="http://www.w3.org/2000/svg">
<rect x="1.09961" y="0.928223" width="41" height="26" rx="6.5" fill="white" stroke="#9B9B9B"/>
<path d="M21.1968 13.8222V17.6571H19.96V8.17285H23.1768C23.9599 8.17285 24.7018 8.46096 25.2799 8.99721C25.8574 9.49156 26.1462 10.2341 26.1462 11.0178C26.1462 11.8016 25.8581 12.5022 25.2799 13.0384C24.7024 13.5747 24.0018 13.8628 23.1768 13.8628L21.1968 13.8222ZM21.1968 9.32721V12.6266H23.2593C23.7131 12.6266 24.1668 12.4609 24.4556 12.1322C25.1156 11.5141 25.1156 10.4829 24.4962 9.8641L24.4556 9.82221C24.1256 9.49221 23.7131 9.28596 23.2593 9.32785H21.1968V9.32721Z" fill="#9B9B9B"/>
<path d="M28.9914 10.9775C29.8989 10.9775 30.5995 11.2244 31.1358 11.72C31.672 12.2144 31.9189 12.8744 31.9189 13.6994V17.6587H30.7645V16.7512H30.7239C30.2296 17.4937 29.5277 17.865 28.7033 17.865C28.0027 17.865 27.3833 17.6587 26.889 17.2469C26.4352 16.8344 26.1465 16.2569 26.1465 15.6388C26.1465 14.9788 26.394 14.4438 26.889 14.0307C27.3833 13.6182 28.0839 13.4532 28.9096 13.4532C29.6521 13.4532 30.2296 13.5769 30.6827 13.8657V13.5776C30.6827 13.1651 30.5183 12.7532 30.1883 12.5051C29.8583 12.217 29.4458 12.0513 28.9921 12.0513C28.2915 12.0513 27.7552 12.3394 27.384 12.9176L26.3115 12.2576C26.9708 11.3894 27.8371 10.9775 28.9914 10.9775ZM27.4246 15.6781C27.4246 16.0081 27.5889 16.2962 27.8371 16.4612C28.1252 16.6675 28.4552 16.7912 28.7852 16.7912C29.2796 16.7912 29.7752 16.585 30.1458 16.2144C30.5583 15.8425 30.7639 15.39 30.7639 14.8944C30.3933 14.6062 29.8564 14.4406 29.1558 14.4406C28.6614 14.4406 28.2483 14.5644 27.9189 14.8112C27.5889 15.0181 27.4246 15.3069 27.4246 15.6781Z" fill="#9B9B9B"/>
<path d="M38.5993 11.1831L34.5175 20.543H33.2794L34.8056 17.2855L32.125 11.2237H33.445L35.3825 15.883H35.4237L37.3206 11.2237H38.5993V11.1831Z" fill="#9B9B9B"/>
<path d="M16.2915 12.998C16.2915 12.6261 16.2496 12.2555 16.209 11.8843H11.0547V13.9874H13.9821C13.8584 14.6474 13.4878 15.2655 12.9096 15.6367V16.9973H14.6828C15.7134 16.0492 16.2915 14.6467 16.2915 12.998Z" fill="#9B9B9B"/>
<path d="M11.0531 18.3168C12.5374 18.3168 13.7743 17.8224 14.6824 16.9968L12.9093 15.6362C12.415 15.9662 11.7956 16.1724 11.0544 16.1724C9.65185 16.1724 8.415 15.2243 8.00314 13.9043H6.1875V15.3068C7.13561 17.1624 8.99185 18.3168 11.0531 18.3168Z" fill="#C8C8C8"/>
<path d="M8.00178 13.905C7.75428 13.245 7.75428 12.5025 8.00178 11.8019V10.3994H6.18742C5.40367 11.9257 5.40367 13.74 6.18742 15.3069L8.00178 13.905Z" fill="#9B9B9B"/>
<path d="M11.0528 9.57489C11.8366 9.57489 12.5791 9.86299 13.1559 10.3992L14.7234 8.83239C13.7334 7.92553 12.4141 7.38928 11.0941 7.42989C9.03158 7.42989 7.13602 8.58424 6.22852 10.4405L8.04287 11.8417C8.41412 10.5236 9.65098 9.57489 11.0528 9.57489Z" fill="#C8C8C8"/>
</svg>
