<svg width="71" height="23" viewBox="0 0 71 23" fill="none" xmlns="http://www.w3.org/2000/svg">
<path d="M70.9997 0.755371V16.4238H0V0.755371H70.9997Z" fill="#FFCC00"/>
<path d="M12.4862 3.56885L10.2178 6.65066H22.5807C23.2056 6.65066 23.1974 6.88811 22.8919 7.30189C22.5817 7.72193 22.0626 8.45243 21.7466 8.87911C21.5863 9.09564 21.2964 9.49014 22.2571 9.49014H27.3128C27.3128 9.49014 28.1277 8.3813 28.8106 7.45417C29.74 6.19317 28.8912 3.56897 25.5691 3.56897L12.4862 3.56885Z" fill="#D2002E"/>
<path d="M9.29979 13.609L13.856 7.41823H19.5099C20.1348 7.41823 20.1267 7.65568 19.8212 8.06946C19.511 8.4895 18.9834 9.21224 18.6674 9.63892C18.507 9.85545 18.2172 10.2506 19.1778 10.2506H26.7523C26.1224 11.1136 24.079 13.6089 20.41 13.6089L9.29979 13.609ZM35.3934 10.2498L32.9226 13.6088H26.405C26.405 13.6088 28.8744 10.2506 28.8766 10.2506L35.3934 10.2498ZM45.3779 9.49014H29.4365L33.7958 3.56885H40.3115L37.8128 6.96412H40.7212L43.2209 3.56885H49.7358L45.3779 9.49014ZM44.8184 10.2507L42.3465 13.609H35.8313C35.8313 13.609 38.3007 10.2507 38.3028 10.2507H44.8184ZM0 11.5749H9.6016L9.07712 12.2884H0V11.5749ZM0 10.2507H10.5771L10.0516 10.9632H0V10.2507ZM0 12.8999H8.62664L8.10466 13.609H0V12.8999ZM71 12.2884H61.4353L61.9603 11.5751H71V12.2884ZM71 13.609L60.463 13.61L60.985 12.8999H71V13.609ZM62.9345 10.2507H71V10.9635L62.41 10.9642L62.9345 10.2507ZM58.7592 3.56885L54.4006 9.49001H47.4964C47.4964 9.49001 51.8562 3.56885 51.8584 3.56885H58.7592ZM46.9378 10.2507C46.9378 10.2507 46.4615 10.9015 46.2303 11.2144C45.4119 12.3205 46.1354 13.609 48.806 13.609H59.2699L61.7415 10.2507H46.9378Z" fill="#D2002E"/>
<path d="M0 18.9712H71V19.3261H0V18.9712ZM0 20.6274H71V20.9824H0V20.6274ZM0 22.2833H71V22.6382H0V22.2833Z" fill="#FFCC00"/>
<path d="M23.8418 22.6381H25.9786L26.3196 22.1759H24.7295L25.6212 20.9676H27.0693L27.4104 20.5052H25.9623L26.753 19.4337H28.3433L28.6844 18.9713H26.5478L23.8418 22.6381ZM26.4641 22.6381H27.1199L29.3549 21.0832L29.333 22.6381H30.0216L30.0267 20.7207L32.6018 18.9713H31.9789L29.929 20.3792L29.9514 18.9713H29.2957L29.2758 20.7313L26.4641 22.6381ZM33.429 19.4337H33.8935C34.2324 19.4337 34.611 19.6018 34.2698 20.064C33.9132 20.5472 33.3668 20.7101 33.0279 20.7101H32.4868L33.429 19.4337ZM30.5178 22.6381H31.0642L32.1457 21.1725H32.6812C33.3698 21.1725 34.2442 20.8836 34.845 20.0691C35.4615 19.2338 35.005 18.9711 34.2236 18.9711H33.2236L30.5178 22.6381ZM33.6646 22.6381H34.2111L35.4129 21.0095H35.7406C36.0302 21.0095 36.2107 21.0095 36.1166 21.3667L35.7632 22.6381H36.3862L36.7426 21.1776C36.7891 20.9518 36.7654 20.873 36.6423 20.8098L36.6501 20.7993C37.1471 20.7256 37.7238 20.4105 38.0535 19.9639C38.7008 19.0868 38.0594 18.9711 37.3051 18.9711H36.3707L33.6646 22.6381ZM36.5759 19.4337H37.1004C37.6034 19.4337 37.7104 19.6438 37.4664 19.9746C37.2066 20.3268 36.7377 20.5472 36.2185 20.5472H35.754L36.5759 19.4337ZM36.952 22.6381H39.0888L39.4297 22.1759H37.8397L38.7312 20.9676H40.1795L40.5204 20.5052H39.0724L39.8631 19.4337H41.4534L41.7946 18.9713H39.658L36.952 22.6381ZM44.4267 19.0396C44.2304 18.9503 43.9606 18.9082 43.7093 18.9082C43.0207 18.9082 42.2293 19.2551 41.7486 19.9065C40.9074 21.0465 42.7135 20.8206 42.1086 21.6401C41.7908 22.0707 41.2295 22.239 40.9181 22.239C40.6392 22.239 40.389 22.1338 40.2575 22.0601L39.8425 22.5488C40.0357 22.6276 40.2438 22.7012 40.5116 22.7012C41.2765 22.7012 42.1338 22.3909 42.7114 21.6082C43.6029 20.4001 41.8432 20.5627 42.3628 19.859C42.646 19.4755 43.0842 19.3704 43.3902 19.3704C43.6744 19.3704 43.7923 19.4179 43.9934 19.5229L44.4267 19.0396ZM47.1591 19.0396C46.9628 18.9503 46.6931 18.9082 46.4417 18.9082C45.7531 18.9082 44.9617 19.2551 44.481 19.9065C43.6398 21.0465 45.4459 20.8206 44.841 21.6401C44.5233 22.0707 43.9619 22.239 43.6505 22.239C43.3716 22.239 43.1213 22.1338 42.99 22.0601L42.5749 22.5488C42.7681 22.6276 42.9763 22.7012 43.2439 22.7012C44.0089 22.7012 44.8661 22.3909 45.4437 21.6082C46.3353 20.4001 44.5758 20.5627 45.0952 19.859C45.3783 19.4755 45.8166 19.3704 46.1226 19.3704C46.4068 19.3704 46.5249 19.4179 46.7258 19.5229L47.1591 19.0396Z" fill="#D2002E"/>
</svg>
