<svg width="50" height="25" viewBox="0 0 50 25" fill="none" xmlns="http://www.w3.org/2000/svg">
<path fill-rule="evenodd" clip-rule="evenodd" d="M31.3265 16.4681C31.0278 16.4681 30.5683 16.4451 30.17 16.3685V11.6198C30.5529 11.4436 31.0508 11.344 31.6482 11.344C33.1035 11.344 34.0839 12.2402 34.0839 13.818C34.0839 15.5107 33.0269 16.4758 31.3342 16.4758M31.855 9.23771C31.2346 9.23771 30.5759 9.3143 30.1776 9.51344V5.40039H27.7803V18.1072C28.8373 18.3829 30.2159 18.5285 31.4108 18.5285C34.4822 18.5285 36.5195 16.8894 36.5195 13.9022C36.5195 11.0683 34.62 9.23771 31.8474 9.23771M41.3373 9.16877C38.9935 9.16877 37.477 10.0343 37.477 12.7304V18.3906H39.9203V12.8912C39.9203 11.8802 40.4641 11.3517 41.5134 11.3517C42.1032 11.3517 42.7083 11.4283 43.2138 11.5891V9.32962C42.5934 9.23005 41.9653 9.17643 41.3373 9.16877Z" fill="black"/>
<path fill-rule="evenodd" clip-rule="evenodd" d="M48.3225 16.4451C47.2809 16.4451 46.7447 15.9242 46.7447 14.9285V11.4129H49.8927V9.42146H46.7447V6.10498H44.332V15.097C44.332 17.7471 45.8256 18.6126 48.1464 18.6126C48.7208 18.6126 49.3642 18.5514 49.9999 18.4518V16.2229C49.5021 16.3838 48.9046 16.4604 48.3225 16.4604" fill="black"/>
<path fill-rule="evenodd" clip-rule="evenodd" d="M10.5162 0.0771484C10.3784 0.0771484 10.2405 0.107786 10.1333 0.161401L0.528493 5.40037L11.2822 11.6657C11.3817 11.7193 11.4583 11.8495 11.4583 11.9644V21.0943C11.4583 21.2092 11.3741 21.3394 11.2745 21.393L10.6924 21.7147C10.6464 21.7377 10.5852 21.753 10.5162 21.753H10.5009C10.432 21.753 10.363 21.7453 10.3171 21.7147L9.73499 21.393C9.63542 21.3394 9.55882 21.2092 9.55882 21.0943V12.9525C9.55882 12.8912 9.51287 12.8222 9.45925 12.7916L0 7.2769V18.0765C0 18.3216 0.168505 18.6127 0.382966 18.7352L10.1409 24.4874C10.2482 24.5487 10.3784 24.5793 10.5162 24.5793C10.6541 24.5793 10.792 24.5487 10.8915 24.4874L20.6495 18.7352C20.8563 18.6127 21.0248 18.314 21.0248 18.0765V7.2769L14.6063 11.0146C14.5067 11.0759 14.3536 11.0683 14.254 11.0146L13.6872 10.6776C13.6412 10.647 13.5953 10.601 13.5646 10.5474C13.5263 10.4785 13.511 10.4172 13.5034 10.3559L13.488 9.68959C13.488 9.5747 13.557 9.44449 13.6566 9.38321L20.4963 5.40037L10.8992 0.161401C10.792 0.100126 10.6541 0.0771484 10.5162 0.0771484Z" fill="url(#paint0_linear_763_7668)"/>
<defs>
<linearGradient id="paint0_linear_763_7668" x1="3.66421" y1="20.8798" x2="12.5906" y2="13.4269" gradientUnits="userSpaceOnUse">
<stop stop-color="#A80034"/>
<stop offset="1" stop-color="#DB0031"/>
</linearGradient>
</defs>
</svg>
