<svg width="29" height="35" viewBox="0 0 29 35" fill="none" xmlns="http://www.w3.org/2000/svg">
<path d="M14.4995 34.2606C14.7939 34.1134 22.4488 30.8012 24.8777 28.8139C27.3802 26.753 28.7051 23.8088 28.7051 20.2758V3.71491L28.4843 3.6413C22.3752 0.329119 14.7939 0.549931 14.4259 0.549931C14.1315 0.549931 6.55029 0.329119 0.441153 3.6413L0.293945 3.71491V20.3494C0.293945 23.8824 1.61882 26.8266 4.12136 28.8875C6.55029 30.8748 14.2051 34.187 14.4995 34.2606Z" fill="#341B14"/>
<path d="M14.5 34.6285C14.5 34.6285 6.40355 31.0955 3.90102 29.1082C1.25127 26.9 0 23.8823 0 20.4229V3.19952C6.40355 -0.259867 14.5 0.0345493 14.5 0.0345493C14.5 0.0345493 22.5964 -0.259867 29 3.19952V20.3493C29 23.8087 27.7487 26.8264 25.099 29.0345C22.5964 31.0955 14.5 34.6285 14.5 34.6285ZM1.17766 20.4229C1.17766 23.6615 2.35533 26.3112 4.63706 28.1513C6.69797 29.8442 12.8071 32.5675 14.5 33.3036C16.1929 32.5675 22.3756 29.7706 24.3629 28.1513C26.6447 26.3112 27.8223 23.5878 27.8223 20.4229V3.49394C19.2843 2.6843 9.1269 3.12592 1.17766 10.4863V20.4229Z" fill="#FFB406"/>
<path d="M22.6698 17.9937C23.7739 18.6562 24.2155 19.0978 24.2891 19.9075C24.2891 20.7907 23.7003 21.3059 22.7434 21.3059C21.9338 21.3059 20.9769 20.8643 20.3145 20.2755V22.6308C21.1241 23.0724 22.081 23.4404 23.1115 23.4404C25.614 23.4404 26.7917 21.6739 26.7917 20.0547C26.8653 18.5826 26.4236 17.4049 24.2891 16.1536C23.3323 15.5648 22.5962 15.1968 22.5962 14.3135C22.5962 13.4303 23.4059 13.0623 24.0683 13.0623C24.9516 13.0623 25.8348 13.5775 26.35 14.0927V11.8846C25.9084 11.5166 24.9516 11.0014 23.5531 11.075C21.8602 11.1486 20.0937 12.3262 20.0937 14.3871C20.1673 15.7856 20.6089 16.8161 22.6698 17.9937ZM13.9845 23.2932C14.2054 23.3668 14.5734 23.4404 15.1622 23.4404C18.0328 23.4404 19.6521 20.8643 19.6521 17.1841C19.6521 13.4303 17.9592 11.1486 14.9414 11.1486C13.5429 11.1486 12.4389 11.443 11.482 12.0318V28.6663H13.9845V23.2932ZM13.9845 13.2831C14.2054 13.2095 14.5734 13.0623 14.8678 13.0623C16.3399 13.0623 16.9287 14.2399 16.9287 17.1105C16.9287 19.9075 16.1927 21.2323 14.7206 21.2323C14.3526 21.2323 14.0582 21.1587 13.9109 21.0851V13.2831H13.9845ZM6.25612 23.4404C7.80181 23.4404 9.12668 23.0724 10.0835 22.41V11.2958H7.50739V20.9379C7.21297 21.1587 6.84495 21.2323 6.32973 21.2323C5.15206 21.2323 5.00485 20.1283 5.00485 19.4658V11.2958H2.42871V19.3186C2.42871 22.042 3.75358 23.4404 6.25612 23.4404Z" fill="#FFB406"/>
</svg>
