<svg width="90" height="91" viewBox="0 0 90 91" fill="none" xmlns="http://www.w3.org/2000/svg">
<circle cx="45" cy="45.3071" r="43" fill="#E9E9E9" stroke="#272727" stroke-width="4"/>
<path d="M27.3327 27.9765L52.7645 43.9703C52.9842 44.1094 53.166 44.3056 53.2922 44.5399C53.4184 44.7742 53.4847 45.0387 53.4847 45.3078C53.4847 45.5768 53.4184 45.8413 53.2922 46.0757C53.166 46.31 52.9842 46.5062 52.7645 46.6453L27.3327 62.639C27.1066 62.7818 26.8483 62.8591 26.5843 62.863C26.3204 62.8668 26.0601 62.7972 25.8302 62.6612C25.6003 62.5252 25.409 62.3276 25.2758 62.0887C25.1427 61.8498 25.0724 61.5782 25.0723 61.3015V29.3203C25.0714 29.0431 25.1409 28.7706 25.2736 28.5309C25.4063 28.2911 25.5975 28.0927 25.8276 27.9559C26.0577 27.8191 26.3183 27.7489 26.5828 27.7526C26.8473 27.7562 27.1062 27.8335 27.3327 27.9765Z" fill="#272727"/>
</svg>
