<svg width="29" height="36" viewBox="0 0 29 36" fill="none" xmlns="http://www.w3.org/2000/svg">
<path d="M14.4995 34.6605C14.7939 34.5133 22.4488 31.2011 24.8777 29.2138C27.3802 27.1529 28.7051 24.2087 28.7051 20.6757V4.11481L28.4843 4.0412C22.3752 0.729022 14.7939 0.949834 14.4259 0.949834C14.1315 0.949834 6.55029 0.729022 0.441153 4.0412L0.293945 4.11481V20.7493C0.293945 24.2823 1.61882 27.2265 4.12136 29.2874C6.55029 31.2747 14.2051 34.5869 14.4995 34.6605Z" fill="#341B14"/>
<path d="M14.5 35.0284C14.5 35.0284 6.40355 31.4954 3.90102 29.5081C1.25127 27.2999 0 24.2822 0 20.8228V3.59943C6.40355 0.140036 14.5 0.434452 14.5 0.434452C14.5 0.434452 22.5964 0.140036 29 3.59943V20.7492C29 24.2086 27.7487 27.2263 25.099 29.4345C22.5964 31.4954 14.5 35.0284 14.5 35.0284ZM1.17766 20.8228C1.17766 24.0614 2.35533 26.7111 4.63706 28.5512C6.69797 30.2441 12.8071 32.9674 14.5 33.7035C16.1929 32.9674 22.3756 30.1705 24.3629 28.5512C26.6447 26.7111 27.8223 23.9878 27.8223 20.8228V3.89384C19.2843 3.0842 9.1269 3.52582 1.17766 10.8862V20.8228Z" fill="#FFB406"/>
<path d="M22.6698 18.3936C23.7739 19.0561 24.2155 19.4977 24.2891 20.3074C24.2891 21.1906 23.7003 21.7058 22.7434 21.7058C21.9338 21.7058 20.9769 21.2642 20.3145 20.6754V23.0307C21.1241 23.4723 22.081 23.8403 23.1115 23.8403C25.614 23.8403 26.7917 22.0739 26.7917 20.4546C26.8653 18.9825 26.4236 17.8048 24.2891 16.5535C23.3323 15.9647 22.5962 15.5967 22.5962 14.7134C22.5962 13.8302 23.4059 13.4622 24.0683 13.4622C24.9516 13.4622 25.8348 13.9774 26.35 14.4926V12.2845C25.9084 11.9165 24.9516 11.4013 23.5531 11.4749C21.8602 11.5485 20.0937 12.7261 20.0937 14.787C20.1673 16.1855 20.6089 17.216 22.6698 18.3936ZM13.9845 23.6931C14.2054 23.7667 14.5734 23.8403 15.1622 23.8403C18.0328 23.8403 19.6521 21.2642 19.6521 17.584C19.6521 13.8302 17.9592 11.5485 14.9414 11.5485C13.5429 11.5485 12.4389 11.8429 11.482 12.4317V29.0662H13.9845V23.6931ZM13.9845 13.683C14.2054 13.6094 14.5734 13.4622 14.8678 13.4622C16.3399 13.4622 16.9287 14.6398 16.9287 17.5104C16.9287 20.3074 16.1927 21.6322 14.7206 21.6322C14.3526 21.6322 14.0582 21.5586 13.9109 21.485V13.683H13.9845ZM6.25612 23.8403C7.80181 23.8403 9.12668 23.4723 10.0835 22.8099V11.6957H7.50739V21.3378C7.21297 21.5586 6.84495 21.6322 6.32973 21.6322C5.15206 21.6322 5.00485 20.5282 5.00485 19.8657V11.6957H2.42871V19.7185C2.42871 22.4419 3.75358 23.8403 6.25612 23.8403Z" fill="#FFB406"/>
</svg>
