<svg width="90" height="91" viewBox="0 0 90 91" fill="none" xmlns="http://www.w3.org/2000/svg">
<circle cx="45" cy="45.6201" r="43" fill="#E9E9E9" stroke="#272727" stroke-width="4"/>
<path d="M27.3327 28.2895L52.7645 44.2833C52.9842 44.4224 53.166 44.6186 53.2922 44.8529C53.4184 45.0872 53.4847 45.3517 53.4847 45.6208C53.4847 45.8898 53.4184 46.1543 53.2922 46.3886C53.166 46.623 52.9842 46.8192 52.7645 46.9583L27.3327 62.952C27.1066 63.0948 26.8483 63.172 26.5843 63.1759C26.3204 63.1798 26.0601 63.1102 25.8302 62.9742C25.6003 62.8382 25.409 62.6406 25.2758 62.4017C25.1427 62.1628 25.0724 61.8912 25.0723 61.6145V29.6333C25.0714 29.3561 25.1409 29.0836 25.2736 28.8439C25.4063 28.6041 25.5975 28.4056 25.8276 28.2689C26.0577 28.1321 26.3183 28.0619 26.5828 28.0656C26.8473 28.0692 27.1062 28.1465 27.3327 28.2895Z" fill="#272727"/>
</svg>
