<svg width="50" height="25" viewBox="0 0 50 25" fill="none" xmlns="http://www.w3.org/2000/svg">
<path fill-rule="evenodd" clip-rule="evenodd" d="M31.3265 16.868C31.0278 16.868 30.5683 16.845 30.17 16.7684V12.0197C30.5529 11.8435 31.0508 11.7439 31.6482 11.7439C33.1035 11.7439 34.0839 12.6401 34.0839 14.2179C34.0839 15.9106 33.0269 16.8757 31.3342 16.8757M31.855 9.63761C31.2346 9.63761 30.5759 9.7142 30.1776 9.91334V5.80029H27.7803V18.5071C28.8373 18.7828 30.2159 18.9284 31.4108 18.9284C34.4822 18.9284 36.5195 17.2893 36.5195 14.3021C36.5195 11.4682 34.62 9.63761 31.8474 9.63761M41.3373 9.56867C38.9935 9.56867 37.477 10.4342 37.477 13.1303V18.7905H39.9203V13.2911C39.9203 12.2801 40.4641 11.7516 41.5134 11.7516C42.1032 11.7516 42.7083 11.8282 43.2138 11.989V9.72952C42.5934 9.62995 41.9653 9.57633 41.3373 9.56867Z" fill="black"/>
<path fill-rule="evenodd" clip-rule="evenodd" d="M48.3225 16.845C47.2809 16.845 46.7447 16.3241 46.7447 15.3284V11.8128H49.8927V9.82136H46.7447V6.50488H44.332V15.4969C44.332 18.147 45.8256 19.0125 48.1464 19.0125C48.7208 19.0125 49.3642 18.9513 49.9999 18.8517V16.6228C49.5021 16.7837 48.9046 16.8603 48.3225 16.8603" fill="black"/>
<path fill-rule="evenodd" clip-rule="evenodd" d="M10.5162 0.477051C10.3784 0.477051 10.2405 0.507688 10.1333 0.561303L0.528493 5.80027L11.2822 12.0656C11.3817 12.1192 11.4583 12.2494 11.4583 12.3643V21.4942C11.4583 21.6091 11.3741 21.7393 11.2745 21.7929L10.6924 22.1146C10.6464 22.1376 10.5852 22.1529 10.5162 22.1529H10.5009C10.432 22.1529 10.3631 22.1452 10.3171 22.1146L9.73499 21.7929C9.63542 21.7393 9.55882 21.6091 9.55882 21.4942V13.3524C9.55882 13.2911 9.51287 13.2221 9.45925 13.1915L0 7.6768V18.4764C0 18.7215 0.168505 19.0126 0.382966 19.1351L10.1409 24.8873C10.2482 24.9486 10.3784 24.9792 10.5162 24.9792C10.6541 24.9792 10.792 24.9486 10.8915 24.8873L20.6495 19.1351C20.8563 19.0126 21.0248 18.7139 21.0248 18.4764V7.6768L14.6063 11.4145C14.5067 11.4758 14.3536 11.4682 14.254 11.4145L13.6872 11.0775C13.6412 11.0469 13.5953 11.0009 13.5646 10.9473C13.5263 10.8784 13.511 10.8171 13.5034 10.7558L13.488 10.0895C13.488 9.9746 13.557 9.84439 13.6566 9.78312L20.4963 5.80027L10.8992 0.561303C10.792 0.500029 10.6541 0.477051 10.5162 0.477051Z" fill="url(#paint0_linear_763_2854)"/>
<defs>
<linearGradient id="paint0_linear_763_2854" x1="3.66421" y1="21.2797" x2="12.5906" y2="13.8268" gradientUnits="userSpaceOnUse">
<stop stop-color="#A80034"/>
<stop offset="1" stop-color="#DB0031"/>
</linearGradient>
</defs>
</svg>
