<svg width="71" height="23" viewBox="0 0 71 23" fill="none" xmlns="http://www.w3.org/2000/svg">
<path d="M70.9997 0.355469V16.0239H0V0.355469H70.9997Z" fill="#FFCC00"/>
<path d="M12.4862 3.16895L10.2178 6.25076H22.5807C23.2056 6.25076 23.1974 6.4882 22.8919 6.90198C22.5817 7.32203 22.0626 8.05253 21.7466 8.47921C21.5863 8.69574 21.2964 9.09024 22.2571 9.09024H27.3128C27.3128 9.09024 28.1277 7.98139 28.8106 7.05427C29.74 5.79327 28.8912 3.16907 25.5691 3.16907L12.4862 3.16895Z" fill="#D2002E"/>
<path d="M9.29979 13.2091L13.856 7.01833H19.5099C20.1348 7.01833 20.1267 7.25578 19.8212 7.66956C19.511 8.0896 18.9834 8.81234 18.6674 9.23902C18.507 9.45555 18.2172 9.85067 19.1778 9.85067H26.7523C26.1224 10.7137 24.079 13.209 20.41 13.209L9.29979 13.2091ZM35.3934 9.84992L32.9226 13.2089H26.405C26.405 13.2089 28.8744 9.85067 28.8766 9.85067L35.3934 9.84992ZM45.3779 9.09024H29.4365L33.7958 3.16895H40.3115L37.8128 6.56422H40.7212L43.2209 3.16895H49.7358L45.3779 9.09024ZM44.8184 9.85079L42.3465 13.2091H35.8313C35.8313 13.2091 38.3007 9.85079 38.3028 9.85079H44.8184ZM0 11.175H9.6016L9.07712 11.8885H0V11.175ZM0 9.85079H10.5771L10.0516 10.5633H0V9.85079ZM0 12.5H8.62664L8.10466 13.2091H0V12.5ZM71 11.8885H61.4353L61.9603 11.1752H71V11.8885ZM71 13.2091L60.463 13.2101L60.985 12.5H71V13.2091ZM62.9345 9.85079H71V10.5636L62.4101 10.5643L62.9345 9.85079ZM58.7592 3.16895L54.4006 9.09011H47.4964C47.4964 9.09011 51.8562 3.16895 51.8584 3.16895H58.7592ZM46.9378 9.85079C46.9378 9.85079 46.4615 10.5016 46.2303 10.8145C45.4119 11.9206 46.1354 13.2091 48.806 13.2091H59.2699L61.7415 9.85079H46.9378Z" fill="#D2002E"/>
<path d="M0 18.5713H71V18.9262H0V18.5713ZM0 20.2275H71V20.5825H0V20.2275ZM0 21.8834H71V22.2383H0V21.8834Z" fill="#FFCC00"/>
<path d="M23.8418 22.2382H25.9786L26.3196 21.776H24.7295L25.6212 20.5677H27.0693L27.4104 20.1053H25.9623L26.753 19.0338H28.3433L28.6844 18.5714H26.5478L23.8418 22.2382ZM26.4641 22.2382H27.1199L29.3549 20.6833L29.333 22.2382H30.0216L30.0267 20.3208L32.6018 18.5714H31.9789L29.929 19.9793L29.9514 18.5714H29.2957L29.2758 20.3314L26.4641 22.2382ZM33.429 19.0338H33.8935C34.2324 19.0338 34.611 19.2019 34.2698 19.6641C33.9132 20.1473 33.3668 20.3102 33.0279 20.3102H32.4868L33.429 19.0338ZM30.5178 22.2382H31.0642L32.1457 20.7726H32.6812C33.3698 20.7726 34.2442 20.4836 34.845 19.6692C35.4615 18.8339 35.005 18.5712 34.2236 18.5712H33.2236L30.5178 22.2382ZM33.6646 22.2382H34.2111L35.4129 20.6096H35.7406C36.0302 20.6096 36.2107 20.6096 36.1166 20.9668L35.7632 22.2382H36.3862L36.7426 20.7777C36.7891 20.5519 36.7654 20.4731 36.6423 20.4099L36.6501 20.3994C37.1471 20.3257 37.7238 20.0106 38.0535 19.564C38.7008 18.6869 38.0594 18.5712 37.3051 18.5712H36.3707L33.6646 22.2382ZM36.5759 19.0338H37.1004C37.6034 19.0338 37.7104 19.2439 37.4664 19.5747C37.2066 19.9269 36.7377 20.1473 36.2185 20.1473H35.754L36.5759 19.0338ZM36.952 22.2382H39.0888L39.4297 21.776H37.8397L38.7312 20.5677H40.1795L40.5204 20.1053H39.0724L39.8631 19.0338H41.4534L41.7946 18.5714H39.658L36.952 22.2382ZM44.4267 18.6397C44.2304 18.5504 43.9606 18.5083 43.7093 18.5083C43.0207 18.5083 42.2293 18.8552 41.7486 19.5066C40.9074 20.6466 42.7135 20.4207 42.1086 21.2402C41.7908 21.6708 41.2295 21.8391 40.9181 21.8391C40.6392 21.8391 40.389 21.7339 40.2575 21.6602L39.8425 22.1489C40.0357 22.2277 40.2438 22.3013 40.5116 22.3013C41.2765 22.3013 42.1338 21.991 42.7114 21.2083C43.6029 20.0002 41.8432 20.1628 42.3628 19.4591C42.646 19.0756 43.0842 18.9705 43.3902 18.9705C43.6744 18.9705 43.7923 19.018 43.9934 19.123L44.4267 18.6397ZM47.1591 18.6397C46.9628 18.5504 46.6931 18.5083 46.4417 18.5083C45.7531 18.5083 44.9617 18.8552 44.481 19.5066C43.6398 20.6466 45.4459 20.4207 44.841 21.2402C44.5233 21.6708 43.9619 21.8391 43.6505 21.8391C43.3716 21.8391 43.1213 21.7339 42.99 21.6602L42.5749 22.1489C42.7681 22.2277 42.9763 22.3013 43.2439 22.3013C44.0089 22.3013 44.8661 21.991 45.4437 21.2083C46.3353 20.0002 44.5758 20.1628 45.0952 19.4591C45.3783 19.0756 45.8166 18.9705 46.1226 18.9705C46.4068 18.9705 46.5249 19.018 46.7258 19.123L47.1591 18.6397Z" fill="#D2002E"/>
</svg>
