<svg width="72" height="19" viewBox="0 0 72 19" fill="none" xmlns="http://www.w3.org/2000/svg">
<path d="M18.9212 6.69385L26.2051 6.69385L26.2051 8.04983L23.3371 8.04983L23.3371 15.6937L21.7651 15.6937L21.7651 8.04983L18.9092 8.04983L18.9212 6.69385ZM25.8931 9.17782L27.2371 9.17782L27.2371 10.4378L27.2611 10.4378C27.3091 10.2578 27.3931 10.0898 27.5131 9.92181C27.6331 9.75381 27.7771 9.59781 27.9571 9.46581C28.1251 9.32181 28.3171 9.21382 28.5331 9.12982C28.7371 9.04582 28.9531 8.99782 29.1691 8.99782C29.3371 8.99782 29.457 9.00982 29.517 9.00982C29.577 9.02182 29.649 9.03382 29.709 9.03382L29.709 10.4138C29.613 10.3898 29.505 10.3778 29.3971 10.3658C29.2891 10.3538 29.1931 10.3418 29.0851 10.3418C28.8451 10.3418 28.6171 10.3898 28.4011 10.4858C28.1851 10.5818 28.0051 10.7258 27.8371 10.9058C27.6811 11.0978 27.5491 11.3258 27.4531 11.6018C27.3571 11.8778 27.3091 12.2018 27.3091 12.5618L27.3091 15.6577L25.8691 15.6577L25.8931 9.17782ZM36.309 15.6937L34.893 15.6937L34.893 14.7817L34.869 14.7817C34.689 15.1177 34.425 15.3697 34.077 15.5737C33.729 15.7777 33.369 15.8737 33.009 15.8737C32.157 15.8737 31.533 15.6697 31.149 15.2377C30.765 14.8177 30.573 14.1698 30.573 13.3178L30.573 9.17782L32.013 9.17782L32.013 13.1738C32.013 13.7498 32.121 14.1578 32.349 14.3858C32.565 14.6257 32.877 14.7457 33.273 14.7457C33.573 14.7457 33.825 14.6977 34.029 14.6018C34.233 14.5058 34.401 14.3858 34.521 14.2298C34.653 14.0738 34.737 13.8818 34.797 13.6658C34.857 13.4498 34.881 13.2098 34.881 12.9578L34.881 9.17782L36.321 9.17782L36.321 15.6937L36.309 15.6937ZM38.7569 13.6058C38.8049 14.0258 38.9609 14.3138 39.2369 14.4938C39.5129 14.6618 39.8489 14.7457 40.2329 14.7457C40.3649 14.7457 40.5209 14.7337 40.6889 14.7097C40.8569 14.6857 41.0249 14.6497 41.1689 14.5898C41.3249 14.5298 41.4449 14.4458 41.5409 14.3258C41.6369 14.2058 41.6849 14.0618 41.6729 13.8818C41.6609 13.7018 41.6009 13.5458 41.4689 13.4258C41.3369 13.3058 41.1809 13.2218 40.9889 13.1378C40.7969 13.0658 40.5689 13.0058 40.3169 12.9578C40.0649 12.9098 39.8129 12.8498 39.5489 12.7898C39.2849 12.7298 39.0209 12.6578 38.7689 12.5738C38.5169 12.4898 38.3009 12.3818 38.0969 12.2258C37.9049 12.0818 37.7369 11.9018 37.6289 11.6738C37.509 11.4458 37.449 11.1818 37.449 10.8458C37.449 10.4858 37.5329 10.1978 37.7129 9.95781C37.8809 9.71781 38.1089 9.52581 38.3729 9.38182C38.6369 9.23782 38.9369 9.12982 39.2609 9.06982C39.5849 9.00982 39.8969 8.98582 40.1849 8.98582C40.5209 8.98582 40.8449 9.02182 41.1449 9.09382C41.4449 9.16582 41.7329 9.27382 41.9729 9.44182C42.2249 9.59781 42.4289 9.81381 42.5849 10.0658C42.7529 10.3178 42.8489 10.6298 42.8969 10.9898L41.3969 10.9898C41.3249 10.6418 41.1689 10.4138 40.9289 10.2938C40.6769 10.1738 40.4009 10.1138 40.0769 10.1138C39.9809 10.1138 39.8489 10.1258 39.7169 10.1378C39.5729 10.1618 39.4529 10.1858 39.3209 10.2338C39.2009 10.2818 39.0929 10.3538 39.0089 10.4378C38.9249 10.5218 38.8769 10.6418 38.8769 10.7858C38.8769 10.9658 38.9369 11.0978 39.0569 11.2058C39.1769 11.3138 39.3329 11.3978 39.5369 11.4818C39.7289 11.5538 39.9569 11.6138 40.2089 11.6618C40.4609 11.7098 40.7249 11.7698 40.9889 11.8298C41.2529 11.8898 41.5049 11.9618 41.7569 12.0458C42.0089 12.1298 42.2369 12.2378 42.4289 12.3938C42.6209 12.5378 42.7889 12.7178 42.9089 12.9338C43.0289 13.1498 43.0889 13.4258 43.0889 13.7378C43.0889 14.1218 43.0049 14.4458 42.8249 14.7217C42.6449 14.9857 42.4169 15.2137 42.1409 15.3817C41.8649 15.5497 41.5409 15.6697 41.2049 15.7537C40.8569 15.8257 40.5209 15.8737 40.1849 15.8737C39.7769 15.8737 39.3929 15.8257 39.0449 15.7297C38.6969 15.6337 38.3849 15.4897 38.1329 15.3097C37.8809 15.1177 37.6769 14.8897 37.5329 14.6018C37.3889 14.3258 37.305 13.9898 37.293 13.5938L38.7449 13.5938L38.7449 13.6058L38.7569 13.6058ZM43.4969 9.17782L44.5889 9.17782L44.5889 7.20984L46.0288 7.20984L46.0288 9.16582L47.3248 9.16582L47.3248 10.2338L46.0288 10.2338L46.0288 13.7138C46.0288 13.8698 46.0408 13.9898 46.0528 14.1098C46.0648 14.2178 46.1008 14.3138 46.1368 14.3858C46.1848 14.4578 46.2568 14.5178 46.3408 14.5538C46.4368 14.5898 46.5568 14.6138 46.7248 14.6138C46.8208 14.6138 46.9288 14.6138 47.0248 14.6018C47.1208 14.5898 47.2288 14.5778 47.3248 14.5538L47.3248 15.6697C47.1688 15.6937 47.0128 15.7057 46.8568 15.7177C46.7008 15.7417 46.5568 15.7417 46.3888 15.7417C46.0048 15.7417 45.7049 15.7057 45.4769 15.6337C45.2489 15.5617 45.0689 15.4537 44.9369 15.3217C44.8049 15.1777 44.7209 15.0097 44.6729 14.8057C44.6249 14.6017 44.6009 14.3498 44.5889 14.0858L44.5889 10.2458L43.4969 10.2458L43.4969 9.15382L43.4969 9.17782ZM48.3328 9.17782L49.6888 9.17782L49.6888 10.0658L49.7128 10.0658C49.9168 9.68181 50.1928 9.41782 50.5528 9.24982C50.9128 9.08182 51.2968 8.99782 51.7288 8.99782C52.2448 8.99782 52.6888 9.08182 53.0728 9.27382C53.4568 9.45382 53.7688 9.69381 54.0208 10.0178C54.2727 10.3298 54.4647 10.7018 54.5847 11.1218C54.7047 11.5418 54.7767 11.9978 54.7767 12.4658C54.7767 12.9098 54.7167 13.3298 54.6087 13.7378C54.4887 14.1458 54.3207 14.5178 54.0927 14.8297C53.8647 15.1417 53.5768 15.3937 53.2168 15.5857C52.8568 15.7777 52.4488 15.8737 51.9688 15.8737C51.7648 15.8737 51.5488 15.8497 51.3448 15.8137C51.1408 15.7777 50.9368 15.7177 50.7448 15.6337C50.5528 15.5497 50.3728 15.4417 50.2168 15.3097C50.0488 15.1777 49.9168 15.0217 49.8088 14.8537L49.7848 14.8537L49.7848 18.1057L48.3448 18.1057L48.3448 9.17782L48.3328 9.17782ZM53.3608 12.4418C53.3608 12.1538 53.3248 11.8658 53.2408 11.5898C53.1688 11.3138 53.0488 11.0738 52.8928 10.8578C52.7368 10.6418 52.5448 10.4738 52.3288 10.3418C52.1008 10.2098 51.8368 10.1498 51.5488 10.1498C50.9488 10.1498 50.4928 10.3538 50.1808 10.7738C49.8808 11.1938 49.7248 11.7578 49.7248 12.4538C49.7248 12.7898 49.7608 13.0898 49.8448 13.3658C49.9288 13.6418 50.0368 13.8818 50.2048 14.0858C50.3608 14.2898 50.5528 14.4458 50.7808 14.5658C51.0088 14.6857 51.2608 14.7457 51.5608 14.7457C51.8968 14.7457 52.1608 14.6738 52.3888 14.5418C52.6168 14.4098 52.7968 14.2298 52.9528 14.0258C53.0968 13.8098 53.2048 13.5698 53.2648 13.2938C53.3248 13.0058 53.3608 12.7298 53.3608 12.4418ZM55.8927 6.69385L57.3327 6.69385L57.3327 8.04983L55.8927 8.04983L55.8927 6.69385ZM55.8927 9.17782L57.3327 9.17782L57.3327 15.6937L55.8927 15.6937L55.8927 9.17782ZM58.6167 6.69385L60.0567 6.69385L60.0567 15.6937L58.6167 15.6937L58.6167 6.69385ZM64.4486 15.8737C63.9326 15.8737 63.4646 15.7897 63.0566 15.6097C62.6486 15.4297 62.3126 15.2017 62.0247 14.9017C61.7487 14.6018 61.5327 14.2298 61.3887 13.8098C61.2447 13.3898 61.1607 12.9218 61.1607 12.4298C61.1607 11.9378 61.2327 11.4818 61.3887 11.0618C61.5327 10.6418 61.7487 10.2818 62.0247 9.96981C62.3007 9.66981 62.6486 9.42982 63.0566 9.26182C63.4646 9.09382 63.9326 8.99782 64.4486 8.99782C64.9646 8.99782 65.4326 9.08182 65.8406 9.26182C66.2486 9.42982 66.5846 9.66981 66.8726 9.96981C67.1486 10.2698 67.3646 10.6418 67.5086 11.0618C67.6526 11.4818 67.7366 11.9378 67.7366 12.4298C67.7366 12.9338 67.6646 13.3898 67.5086 13.8098C67.3526 14.2298 67.1486 14.5898 66.8726 14.9017C66.5966 15.2017 66.2486 15.4417 65.8406 15.6097C65.4326 15.7777 64.9766 15.8737 64.4486 15.8737ZM64.4486 14.7338C64.7606 14.7338 65.0486 14.6618 65.2766 14.5298C65.5166 14.3978 65.6966 14.2178 65.8526 14.0018C66.0086 13.7858 66.1166 13.5338 66.1886 13.2698C66.2606 12.9938 66.2966 12.7178 66.2966 12.4298C66.2966 12.1538 66.2606 11.8778 66.1886 11.6018C66.1166 11.3258 66.0086 11.0858 65.8526 10.8698C65.6966 10.6538 65.5046 10.4858 65.2766 10.3538C65.0366 10.2218 64.7606 10.1498 64.4486 10.1498C64.1366 10.1498 63.8486 10.2218 63.6206 10.3538C63.3806 10.4858 63.2006 10.6658 63.0446 10.8698C62.8886 11.0858 62.7806 11.3258 62.7086 11.6018C62.6366 11.8778 62.6006 12.1538 62.6006 12.4298C62.6006 12.7178 62.6366 12.9938 62.7086 13.2698C62.7806 13.5458 62.8886 13.7858 63.0446 14.0018C63.2006 14.2178 63.3926 14.3978 63.6206 14.5298C63.8606 14.6738 64.1366 14.7338 64.4486 14.7338ZM68.1686 9.17782L69.2606 9.17782L69.2606 7.20984L70.7005 7.20984L70.7005 9.16582L71.9965 9.16582L71.9965 10.2338L70.7005 10.2338L70.7005 13.7138C70.7005 13.8698 70.7125 13.9898 70.7245 14.1098C70.7365 14.2178 70.7725 14.3138 70.8085 14.3858C70.8565 14.4578 70.9285 14.5178 71.0125 14.5538C71.1085 14.5898 71.2285 14.6138 71.3965 14.6138C71.4925 14.6138 71.6005 14.6138 71.6965 14.6018C71.7925 14.5898 71.9005 14.5778 71.9965 14.5538L71.9965 15.6697C71.8405 15.6937 71.6845 15.7057 71.5285 15.7177C71.3725 15.7417 71.2285 15.7417 71.0605 15.7417C70.6765 15.7417 70.3765 15.7057 70.1485 15.6337C69.9206 15.5617 69.7406 15.4537 69.6086 15.3217C69.4766 15.1777 69.3926 15.0097 69.3446 14.8057C69.2966 14.6018 69.2726 14.3498 69.2606 14.0858L69.2606 10.2458L68.1686 10.2458L68.1686 9.15382L68.1686 9.17782Z" fill="black"/>
<path d="M17.2418 6.6941L10.6539 6.6941L8.62594 0.430177L6.58597 6.6941L-0.00195367 6.6821L5.32598 10.5581L3.28601 16.822L8.61394 12.946L13.9419 16.822L11.9139 10.5581L17.2418 6.6941Z" fill="#00B67A"/>
<path d="M12.3699 11.9741L11.9139 10.5581L8.62598 12.9461L12.3699 11.9741Z" fill="#005128"/>
</svg>
