<svg width="24" height="25" viewBox="0 0 24 25" fill="none" xmlns="http://www.w3.org/2000/svg">
<path opacity="0.5" d="M22 12.4282H2" stroke="#6086F9" stroke-width="1.5" stroke-linecap="round"/>
<path opacity="0.5" d="M12 2.42822V22.4282" stroke="#6086F9" stroke-width="1.5" stroke-linecap="round"/>
<path d="M13 12.4282C13 14.6374 14.7909 16.4282 17 16.4282" stroke="#6086F9" stroke-width="1.5" stroke-linecap="round"/>
<path d="M11 12.4282C11 14.6374 9.20914 16.4282 7 16.4282" stroke="#6086F9" stroke-width="1.5" stroke-linecap="round"/>
<path d="M12 10.4634C12 8.97351 13.014 7.67482 14.4594 7.31347C16.0631 6.91253 17.5158 8.3652 17.1148 9.96893C16.7535 11.4143 15.4548 12.4283 13.9649 12.4283H12V10.4634Z" stroke="#6086F9" stroke-width="1.5"/>
<path d="M11.9996 10.4634C11.9996 8.97351 10.9856 7.67482 9.54022 7.31347C7.93649 6.91253 6.48382 8.3652 6.88476 9.96893C7.24611 11.4143 8.5448 12.4283 10.0347 12.4283H11.9996V10.4634Z" stroke="#6086F9" stroke-width="1.5"/>
<path d="M2 12.4282C2 7.71418 2 5.35715 3.46447 3.89269C4.92893 2.42822 7.28595 2.42822 12 2.42822C16.714 2.42822 19.0711 2.42822 20.5355 3.89269C22 5.35715 22 7.71418 22 12.4282C22 17.1423 22 19.4993 20.5355 20.9638C19.0711 22.4282 16.714 22.4282 12 22.4282C7.28595 22.4282 4.92893 22.4282 3.46447 20.9638C2 19.4993 2 17.1423 2 12.4282Z" stroke="#6086F9" stroke-width="1.5"/>
</svg>
