<svg width="24" height="25" viewBox="0 0 24 25" fill="none" xmlns="http://www.w3.org/2000/svg">
<path d="M1.75 3.02832C1.19772 3.02832 0.75 3.47604 0.75 4.02832V17.7783C0.75 18.3306 1.19772 18.7783 1.75 18.7783H2.34326C2.79895 18.7783 3.18237 19.0969 3.4048 19.4946C3.91538 20.4076 4.88388 21.0283 6 21.0283C7.11612 21.0283 8.08462 20.4076 8.5952 19.4946C8.81763 19.0969 9.20105 18.7783 9.65674 18.7783H14.3433C14.7989 18.7783 15.1824 19.0969 15.4048 19.4946C15.9154 20.4076 16.8839 21.0283 18 21.0283C19.1161 21.0283 20.0846 20.4076 20.5952 19.4946C20.8176 19.0969 21.2011 18.7783 21.6567 18.7783H22.25C22.8023 18.7783 23.25 18.3306 23.25 17.7783V11.289C23.25 11.086 23.1749 10.8901 23.0391 10.7393L18.5391 6.23926C18.3882 6.10346 18.1924 6.02832 17.9894 6.02832H15.25C14.6977 6.02832 14.25 5.58061 14.25 5.02832V4.02832C14.25 3.47604 13.8023 3.02832 13.25 3.02832H1.75ZM2.25 5.52832C2.25 4.97604 2.69772 4.52832 3.25 4.52832H11.75C12.3023 4.52832 12.75 4.97604 12.75 5.52832V16.2783C12.75 16.8306 12.3023 17.2783 11.75 17.2783H9.65674C9.20105 17.2783 8.81763 16.9597 8.5952 16.562C8.08462 15.6491 7.11612 15.0283 6 15.0283C4.74379 15.0283 3.67458 15.8147 3.23479 16.9189C3.15237 17.1259 2.96161 17.2783 2.73885 17.2783C2.46887 17.2783 2.25 17.0595 2.25 16.7895V5.52832ZM14.25 8.52832C14.25 7.97604 14.6977 7.52832 15.25 7.52832H17.2577C17.5229 7.52832 17.7772 7.63368 17.9648 7.82121L21.4571 11.3136C21.6446 11.5011 21.75 11.7554 21.75 12.0207V16.7895C21.75 17.0595 21.5311 17.2783 21.2611 17.2783C21.0384 17.2783 20.8476 17.1259 20.7652 16.9189C20.3254 15.8147 19.2562 15.0283 18 15.0283C16.7438 15.0283 15.6746 15.8147 15.2348 16.9189C15.1524 17.1259 14.9616 17.2783 14.7389 17.2783C14.4689 17.2783 14.25 17.0595 14.25 16.7895V8.52832ZM6 16.5283C6.83789 16.5283 7.5 17.1904 7.5 18.0283C7.5 18.8662 6.83789 19.5283 6 19.5283C5.16211 19.5283 4.5 18.8662 4.5 18.0283C4.5 17.1904 5.16211 16.5283 6 16.5283ZM18 16.5283C18.8379 16.5283 19.5 17.1904 19.5 18.0283C19.5 18.8662 18.8379 19.5283 18 19.5283C17.1621 19.5283 16.5 18.8662 16.5 18.0283C16.5 17.1904 17.1621 16.5283 18 16.5283Z" fill="#6086F9"/>
</svg>
