<svg width="24" height="25" viewBox="0 0 24 25" fill="none" xmlns="http://www.w3.org/2000/svg">
<path d="M1.75 3.42822C1.19772 3.42822 0.75 3.87594 0.75 4.42822V18.1782C0.75 18.7305 1.19772 19.1782 1.75 19.1782H2.34326C2.79895 19.1782 3.18237 19.4968 3.4048 19.8945C3.91538 20.8075 4.88388 21.4282 6 21.4282C7.11612 21.4282 8.08462 20.8075 8.5952 19.8945C8.81763 19.4968 9.20105 19.1782 9.65674 19.1782H14.3433C14.7989 19.1782 15.1824 19.4968 15.4048 19.8945C15.9154 20.8075 16.8839 21.4282 18 21.4282C19.1161 21.4282 20.0846 20.8075 20.5952 19.8945C20.8176 19.4968 21.2011 19.1782 21.6567 19.1782H22.25C22.8023 19.1782 23.25 18.7305 23.25 18.1782V11.6889C23.25 11.4859 23.1749 11.29 23.0391 11.1392L18.5391 6.63916C18.3882 6.50336 18.1924 6.42822 17.9894 6.42822H15.25C14.6977 6.42822 14.25 5.98051 14.25 5.42822V4.42822C14.25 3.87594 13.8023 3.42822 13.25 3.42822H1.75ZM2.25 5.92822C2.25 5.37594 2.69772 4.92822 3.25 4.92822H11.75C12.3023 4.92822 12.75 5.37594 12.75 5.92822V16.6782C12.75 17.2305 12.3023 17.6782 11.75 17.6782H9.65674C9.20105 17.6782 8.81763 17.3596 8.5952 16.9619C8.08462 16.049 7.11612 15.4282 6 15.4282C4.74379 15.4282 3.67458 16.2146 3.23479 17.3189C3.15237 17.5258 2.96161 17.6782 2.73885 17.6782C2.46887 17.6782 2.25 17.4594 2.25 17.1894V5.92822ZM14.25 8.92822C14.25 8.37594 14.6977 7.92822 15.25 7.92822H17.2577C17.5229 7.92822 17.7772 8.03358 17.9648 8.22112L21.4571 11.7135C21.6446 11.901 21.75 12.1553 21.75 12.4206V17.1894C21.75 17.4594 21.5311 17.6782 21.2611 17.6782C21.0384 17.6782 20.8476 17.5258 20.7652 17.3189C20.3254 16.2146 19.2562 15.4282 18 15.4282C16.7438 15.4282 15.6746 16.2146 15.2348 17.3189C15.1524 17.5258 14.9616 17.6782 14.7389 17.6782C14.4689 17.6782 14.25 17.4594 14.25 17.1894V8.92822ZM6 16.9282C6.83789 16.9282 7.5 17.5903 7.5 18.4282C7.5 19.2661 6.83789 19.9282 6 19.9282C5.16211 19.9282 4.5 19.2661 4.5 18.4282C4.5 17.5903 5.16211 16.9282 6 16.9282ZM18 16.9282C18.8379 16.9282 19.5 17.5903 19.5 18.4282C19.5 19.2661 18.8379 19.9282 18 19.9282C17.1621 19.9282 16.5 19.2661 16.5 18.4282C16.5 17.5903 17.1621 16.9282 18 16.9282Z" fill="#6086F9"/>
</svg>
