<svg width="24" height="25" viewBox="0 0 24 25" fill="none" xmlns="http://www.w3.org/2000/svg">
<path d="M12 12.6215L11.4813 13.1632C11.7713 13.4409 12.2287 13.4409 12.5187 13.1632L12 12.6215ZM11.0429 16.2957L10.5992 16.9004L11.0429 16.2957ZM12.9571 16.2958L12.5135 15.6911L12.9571 16.2958ZM12 16.7577L12 17.5077L12 16.7577ZM11.4865 15.6911C11.0686 15.3844 10.6081 15.0014 10.2595 14.5983C9.89122 14.1725 9.75 13.8415 9.75 13.6269H8.25C8.25 14.3967 8.6912 15.078 9.1249 15.5795C9.57819 16.1036 10.1391 16.5629 10.5992 16.9004L11.4865 15.6911ZM9.75 13.6269C9.75 13.0509 10.0126 12.8002 10.2419 12.7198C10.4922 12.6321 10.9558 12.66 11.4813 13.1632L12.5187 12.0798C11.6943 11.2905 10.6579 10.9845 9.74566 11.3043C8.81245 11.6314 8.25 12.5297 8.25 13.6269H9.75ZM13.4008 16.9004C13.8609 16.5629 14.4218 16.1037 14.8751 15.5795C15.3088 15.078 15.75 14.3967 15.75 13.6269H14.25C14.25 13.8415 14.1088 14.1725 13.7405 14.5983C13.3919 15.0014 12.9314 15.3844 12.5135 15.6911L13.4008 16.9004ZM15.75 13.6269C15.75 12.5297 15.1875 11.6314 14.2543 11.3043C13.3421 10.9845 12.3057 11.2905 11.4813 12.0798L12.5187 13.1632C13.0442 12.66 13.5078 12.6321 13.7581 12.7198C13.9874 12.8002 14.25 13.0509 14.25 13.6269H15.75ZM10.5992 16.9004C10.9678 17.1709 11.3816 17.5077 12 17.5077L12 16.0077C11.9756 16.0077 11.9605 16.0077 11.9061 15.979C11.8202 15.9336 11.7128 15.8571 11.4865 15.6911L10.5992 16.9004ZM12.5135 15.6911C12.2872 15.8571 12.1798 15.9336 12.0939 15.979C12.0395 16.0077 12.0244 16.0077 12 16.0077L12 17.5077C12.6184 17.5077 13.0322 17.1709 13.4008 16.9004L12.5135 15.6911Z" fill="#6086F9"/>
<path d="M9 6.43018V5.43018C9 3.77332 10.3431 2.43018 12 2.43018C13.6569 2.43018 15 3.77332 15 5.43018V6.43018" stroke="#6086F9" stroke-width="1.5" stroke-linecap="round"/>
<path d="M20.2232 12.9559C19.638 9.83469 19.3454 8.2741 18.2345 7.35214C17.1236 6.43018 15.5358 6.43018 12.3602 6.43018H11.6391C8.4635 6.43018 6.87571 6.43018 5.76481 7.35214C4.65392 8.2741 4.3613 9.83469 3.77608 12.9559C2.95316 17.3448 2.5417 19.5393 3.74132 20.9847C4.94094 22.4302 7.17365 22.4302 11.6391 22.4302H12.3602C16.8257 22.4302 19.0584 22.4302 20.258 20.9847C20.954 20.1461 21.1077 19.0553 20.9533 17.4302" stroke="#6086F9" stroke-width="1.5" stroke-linecap="round"/>
</svg>
