<svg width="24" height="25" viewBox="0 0 24 25" fill="none" xmlns="http://www.w3.org/2000/svg">
<path d="M10.1497 9.23236L9.70794 9.83843L10.1497 9.23236ZM12 3.53633L11.4925 4.0885C11.7794 4.35227 12.2206 4.35227 12.5075 4.0885L12 3.53633ZM13.8503 9.23237L14.2921 9.83844L13.8503 9.23237ZM12 10.1062L12 10.8562H12L12 10.1062ZM10.5915 8.6263C9.90132 8.12316 9.16512 7.51129 8.60883 6.86645C8.03452 6.20071 7.75 5.61251 7.75 5.14494H6.25C6.25 6.16247 6.82845 7.09903 7.47305 7.84625C8.13569 8.61437 8.97435 9.30367 9.70794 9.83843L10.5915 8.6263ZM7.75 5.14494C7.75 4.0863 8.27002 3.48248 8.8955 3.27199C9.54754 3.05256 10.5199 3.19452 11.4925 4.0885L12.5075 2.98416C11.2302 1.81005 9.70254 1.41773 8.41707 1.85034C7.10502 2.29188 6.25 3.52641 6.25 5.14494H7.75ZM14.2921 9.83844C15.0257 9.30368 15.8643 8.61438 16.527 7.84626C17.1716 7.09904 17.75 6.16247 17.75 5.14493H16.25C16.25 5.61251 15.9655 6.20072 15.3912 6.86646C14.8349 7.51131 14.0987 8.12317 13.4085 8.62631L14.2921 9.83844ZM17.75 5.14493C17.75 3.5264 16.895 2.29187 15.5829 1.85033C14.2975 1.41774 12.7698 1.81005 11.4925 2.98416L12.5075 4.0885C13.4801 3.19452 14.4525 3.05256 15.1045 3.27199C15.73 3.48248 16.25 4.0863 16.25 5.14493H17.75ZM9.70794 9.83843C10.463 10.3889 11.0618 10.8562 12 10.8562L12 9.35616C11.635 9.35615 11.4347 9.24091 10.5915 8.6263L9.70794 9.83843ZM13.4085 8.62631C12.5653 9.24092 12.365 9.35616 12 9.35616L12 10.8562C12.9382 10.8562 13.537 10.3889 14.2921 9.83844L13.4085 8.62631Z" fill="#6086F9"/>
<path d="M4 21.8186H6.25993C7.27079 21.8186 8.29253 21.9239 9.27633 22.1266C11.0166 22.4851 12.8488 22.5285 14.6069 22.2439M13.6764 18.9474C13.7962 18.9335 13.911 18.9176 14.0206 18.9001C14.932 18.7547 15.697 18.2677 16.3974 17.7386L18.2046 16.3734C18.8417 15.8922 19.7873 15.8921 20.4245 16.3732C20.9982 16.8064 21.1736 17.5196 20.8109 18.1009C20.388 18.7789 19.7921 19.6462 19.2199 20.1761M13.6764 18.9474C13.6403 18.9516 13.6038 18.9555 13.5668 18.9593M13.6764 18.9474C13.8222 18.9161 13.9669 18.8262 14.1028 18.7077C14.746 18.1463 14.7866 17.2002 14.2285 16.5733C14.0991 16.4279 13.9475 16.3066 13.7791 16.2061C10.9817 14.5376 6.62942 15.8084 4 17.6731M13.6764 18.9474C13.6399 18.9552 13.6033 18.9593 13.5668 18.9593M13.5668 18.9593C13.0434 19.0131 12.4312 19.027 11.7518 18.9628" stroke="#6086F9" stroke-width="1.5" stroke-linecap="round"/>
</svg>
