<svg width="24" height="25" viewBox="0 0 24 25" fill="none" xmlns="http://www.w3.org/2000/svg">
<path d="M12 22.4302C10.6868 22.4302 9.38642 22.1715 8.17317 21.669C6.95991 21.1664 5.85752 20.4298 4.92893 19.5012C3.05357 17.6259 2 15.0823 2 12.4302C2 9.77801 3.05357 7.23447 4.92893 5.35911C6.8043 3.48374 9.34784 2.43018 12 2.43018C13.3132 2.43018 14.6136 2.68883 15.8268 3.19138C17.0401 3.69393 18.1425 4.43052 19.0711 5.35911C19.9997 6.28769 20.7362 7.39009 21.2388 8.60334C21.7413 9.8166 22 11.117 22 12.4302C22 15.0823 20.9464 17.6259 19.0711 19.5012C17.1957 21.3766 14.6522 22.4302 12 22.4302ZM12 20.4302C14.1217 20.4302 16.1566 19.5873 17.6569 18.087C19.1571 16.5867 20 14.5519 20 12.4302C20 10.3084 19.1571 8.27361 17.6569 6.77332C16.1566 5.27303 14.1217 4.43018 12 4.43018C9.87827 4.43018 7.84344 5.27303 6.34315 6.77332C4.84285 8.27361 4 10.3084 4 12.4302C4 14.5519 4.84285 16.5867 6.34315 18.087C7.84344 19.5873 9.87827 20.4302 12 20.4302ZM12 11.4302C12.2652 11.4302 12.5196 11.5355 12.7071 11.7231C12.8946 11.9106 13 12.165 13 12.4302C13 12.6954 12.8946 12.9497 12.7071 13.1373C12.5196 13.3248 12.2652 13.4302 12 13.4302C11.7348 13.4302 11.4804 13.3248 11.2929 13.1373C11.1054 12.9497 11 12.6954 11 12.4302C11 12.165 11.1054 11.9106 11.2929 11.7231C11.4804 11.5355 11.7348 11.4302 12 11.4302ZM12 8.43018C14.63 8.43018 17 10.0002 18 12.4302C16.62 15.7402 12.81 17.3102 9.5 15.9302C7.92 15.2702 6.66 14.0102 6 12.4302C7 10.0002 9.37 8.43018 12 8.43018ZM12 9.93018C11.337 9.93018 10.7011 10.1936 10.2322 10.6624C9.76339 11.1312 9.5 11.7671 9.5 12.4302C9.5 13.0932 9.76339 13.7291 10.2322 14.1979C10.7011 14.6668 11.337 14.9302 12 14.9302C12.663 14.9302 13.2989 14.6668 13.7678 14.1979C14.2366 13.7291 14.5 13.0932 14.5 12.4302C14.5 11.7671 14.2366 11.1312 13.7678 10.6624C13.2989 10.1936 12.663 9.93018 12 9.93018Z" fill="#6086F9"/>
</svg>
