<svg width="24" height="25" viewBox="0 0 24 25" fill="none" xmlns="http://www.w3.org/2000/svg">
<path d="M9.18457 10.7388H12.1843V18.8007" stroke="#6086F9" stroke-width="1.87486" stroke-miterlimit="10" stroke-linecap="round"/>
<path d="M8.76367 18.9883H15.2319" stroke="#6086F9" stroke-width="1.87486" stroke-miterlimit="10" stroke-linecap="round"/>
<path d="M11.9999 7.92653C11.7032 7.92653 11.4133 7.83857 11.1666 7.67376C10.9199 7.50895 10.7277 7.2747 10.6142 7.00063C10.5006 6.72656 10.4709 6.42498 10.5288 6.13403C10.5867 5.84308 10.7295 5.57583 10.9393 5.36607C11.1491 5.1563 11.4163 5.01345 11.7073 4.95558C11.9982 4.8977 12.2998 4.92741 12.5739 5.04093C12.8479 5.15445 13.0822 5.3467 13.247 5.59335C13.4118 5.84001 13.4998 6.13 13.4998 6.42665C13.4998 6.82444 13.3418 7.20594 13.0605 7.48723C12.7792 7.76851 12.3977 7.92653 11.9999 7.92653Z" fill="#6086F9"/>
</svg>
