<svg width="24" height="25" viewBox="0 0 24 25" fill="none" xmlns="http://www.w3.org/2000/svg">
<path d="M20.5 6.43018H9.5C8.67157 6.43018 8 7.10175 8 7.93018V13.9302C8 14.7586 8.67157 15.4302 9.5 15.4302H20.5C21.3284 15.4302 22 14.7586 22 13.9302V7.93018C22 7.10175 21.3284 6.43018 20.5 6.43018Z" stroke="#6086F9" stroke-width="1.5" stroke-linejoin="round"/>
<path d="M12 9.43018V12.4302" stroke="#6086F9" stroke-width="1.5" stroke-linecap="round"/>
<path d="M18 9.43018V12.4302" stroke="#6086F9" stroke-width="1.5" stroke-linecap="round"/>
<path d="M18 6.43018V3.43018H12V6.43018" stroke="#6086F9" stroke-width="1.5" stroke-linecap="round" stroke-linejoin="round"/>
<path d="M22 18.4302H6C5.4477 18.4302 5 17.9825 5 17.4302V5.93018C5 5.37789 4.55229 4.93018 4 4.93018H2" stroke="#6086F9" stroke-width="1.5" stroke-linecap="round" stroke-linejoin="round"/>
<path d="M9.5 21.4302C8.67155 21.4302 8 20.7586 8 19.9302V18.4302H11V19.9302C11 20.7586 10.3285 21.4302 9.5 21.4302Z" stroke="#6086F9" stroke-width="1.5" stroke-linecap="round" stroke-linejoin="round"/>
<path d="M18.5 21.4302C17.6715 21.4302 17 20.7586 17 19.9302V18.4302H20V19.9302C20 20.7586 19.3285 21.4302 18.5 21.4302Z" stroke="#6086F9" stroke-width="1.5" stroke-linecap="round" stroke-linejoin="round"/>
</svg>
