<svg width="43" height="28" viewBox="0 0 43 28" fill="none" xmlns="http://www.w3.org/2000/svg">
<rect x="0.900391" y="0.928223" width="41" height="26" rx="6.5" fill="white" stroke="#9B9B9B"/>
<path d="M13.4042 23.4614V22.1905C13.4042 21.7044 13.1081 21.3861 12.5997 21.3861C12.3455 21.3861 12.0691 21.47 11.8791 21.7464C11.7311 21.5144 11.5188 21.3861 11.2005 21.3861C10.9883 21.3861 10.7761 21.4502 10.6083 21.6822V21.428H10.1641V23.4614H10.6083V22.3386C10.6083 21.9783 10.7983 21.808 11.0944 21.808C11.3905 21.808 11.5386 21.9981 11.5386 22.3386V23.4614H11.9828V22.3386C11.9828 21.9783 12.195 21.808 12.4689 21.808C12.765 21.808 12.9131 21.9981 12.9131 22.3386V23.4614H13.4042ZM19.993 21.428H19.2724V20.8136H18.8283V21.428H18.426V21.8303H18.8283V22.7631C18.8283 23.2295 19.0183 23.5034 19.5266 23.5034C19.7166 23.5034 19.9289 23.4392 20.0769 23.3553L19.9486 22.9728C19.8203 23.0567 19.6722 23.0789 19.5661 23.0789C19.3539 23.0789 19.27 22.9506 19.27 22.7408V21.8303H19.9906V21.428H19.993ZM23.7637 21.3836C23.5095 21.3836 23.3393 21.5119 23.2332 21.6797V21.4255H22.789V23.459H23.2332V22.3139C23.2332 21.9759 23.3812 21.7834 23.6576 21.7834C23.7415 21.7834 23.8476 21.8056 23.934 21.8253L24.0623 21.4009C23.9735 21.3836 23.8476 21.3836 23.7637 21.3836ZM18.0657 21.5958C17.8535 21.4478 17.5574 21.3836 17.239 21.3836C16.7307 21.3836 16.3926 21.6378 16.3926 22.04C16.3926 22.3781 16.6468 22.5706 17.091 22.6323L17.3032 22.6545C17.5352 22.6964 17.6635 22.7606 17.6635 22.8667C17.6635 23.0148 17.4932 23.1209 17.1971 23.1209C16.901 23.1209 16.6665 23.0148 16.5185 22.9087L16.3062 23.2467C16.5382 23.417 16.8565 23.5009 17.1749 23.5009C17.7671 23.5009 18.1077 23.2245 18.1077 22.8445C18.1077 22.4842 17.8313 22.2942 17.4093 22.23L17.1971 22.2078C17.0071 22.1856 16.859 22.1437 16.859 22.0178C16.859 21.8697 17.0071 21.7858 17.2415 21.7858C17.4957 21.7858 17.7499 21.8919 17.8782 21.9561L18.0657 21.5958ZM29.8837 21.3836C29.6295 21.3836 29.4592 21.5119 29.3531 21.6797V21.4255H28.9089V23.459H29.3531V22.3139C29.3531 21.9759 29.5012 21.7834 29.7776 21.7834C29.8615 21.7834 29.9676 21.8056 30.054 21.8253L30.1823 21.4058C30.0959 21.3836 29.9701 21.3836 29.8837 21.3836ZM24.2079 22.4447C24.2079 23.0592 24.6324 23.5034 25.2888 23.5034C25.5849 23.5034 25.7971 23.4392 26.0093 23.2714L25.7971 22.9111C25.6268 23.0394 25.459 23.1011 25.2666 23.1011C24.9063 23.1011 24.6521 22.847 24.6521 22.4447C24.6521 22.0622 24.9063 21.808 25.2666 21.7883C25.4566 21.7883 25.6268 21.8525 25.7971 21.9783L26.0093 21.618C25.7971 21.4478 25.5849 21.3861 25.2888 21.3861C24.6324 21.3836 24.2079 21.8303 24.2079 22.4447ZM28.3167 22.4447V21.428H27.8725V21.6822C27.7244 21.4922 27.5122 21.3861 27.2358 21.3861C26.6633 21.3861 26.2191 21.8303 26.2191 22.4447C26.2191 23.0592 26.6633 23.5034 27.2358 23.5034C27.5319 23.5034 27.7442 23.3973 27.8725 23.2072V23.4614H28.3167V22.4447ZM26.6855 22.4447C26.6855 22.0844 26.9175 21.7883 27.3 21.7883C27.6603 21.7883 27.9144 22.0647 27.9144 22.4447C27.9144 22.805 27.6603 23.1011 27.3 23.1011C26.9199 23.0789 26.6855 22.8025 26.6855 22.4447ZM21.37 21.3836C20.7778 21.3836 20.3533 21.808 20.3533 22.4423C20.3533 23.0789 20.7778 23.5009 21.3922 23.5009C21.6884 23.5009 21.9845 23.417 22.2189 23.2245L22.0067 22.9062C21.8364 23.0345 21.6242 23.1184 21.4144 23.1184C21.1381 23.1184 20.8641 22.9901 20.8 22.6323H22.3028C22.3028 22.5681 22.3028 22.5262 22.3028 22.462C22.3226 21.808 21.9401 21.3836 21.37 21.3836ZM21.37 21.7661C21.6464 21.7661 21.8364 21.9364 21.8784 22.2522H20.8197C20.8617 21.9783 21.0517 21.7661 21.37 21.7661ZM32.4057 22.4447V20.6235H31.9615V21.6822C31.8134 21.4922 31.6012 21.3861 31.3248 21.3861C30.7523 21.3861 30.3081 21.8303 30.3081 22.4447C30.3081 23.0592 30.7523 23.5034 31.3248 23.5034C31.621 23.5034 31.8332 23.3973 31.9615 23.2072V23.4614H32.4057V22.4447ZM30.7745 22.4447C30.7745 22.0844 31.0065 21.7883 31.389 21.7883C31.7493 21.7883 32.0035 22.0647 32.0035 22.4447C32.0035 22.805 31.7493 23.1011 31.389 23.1011C31.0065 23.0789 30.7745 22.8025 30.7745 22.4447ZM15.904 22.4447V21.428H15.4598V21.6822C15.3117 21.4922 15.0995 21.3861 14.8231 21.3861C14.2506 21.3861 13.8064 21.8303 13.8064 22.4447C13.8064 23.0592 14.2506 23.5034 14.8231 23.5034C15.1193 23.5034 15.3315 23.3973 15.4598 23.2072V23.4614H15.904V22.4447ZM14.2531 22.4447C14.2531 22.0844 14.4851 21.7883 14.8676 21.7883C15.2278 21.7883 15.482 22.0647 15.482 22.4447C15.482 22.805 15.2278 23.1011 14.8676 23.1011C14.4851 23.0789 14.2531 22.8025 14.2531 22.4447Z" fill="#9B9B9B"/>
<path d="M24.5897 5.98486H17.917V17.9731H24.5897V5.98486Z" fill="#AFAFAF"/>
<path d="M18.3613 11.9793C18.3613 9.54364 19.5063 7.38191 21.2633 5.98517C19.9703 4.96847 18.3391 4.354 16.5599 4.354C12.345 4.354 8.93457 7.7644 8.93457 11.9793C8.93457 16.1942 12.345 19.6046 16.5599 19.6046C18.3391 19.6046 19.9703 18.9901 21.2633 17.9734C19.5039 16.5964 18.3613 14.4149 18.3613 11.9793Z" fill="#9B9B9B"/>
<path d="M33.5924 11.9793C33.5924 16.1942 30.182 19.6046 25.9672 19.6046C24.1879 19.6046 22.5568 18.9901 21.2637 17.9734C23.0429 16.5742 24.1657 14.4149 24.1657 11.9793C24.1657 9.54364 23.0207 7.38191 21.2637 5.98517C22.5543 4.96847 24.1855 4.354 25.9647 4.354C30.182 4.354 33.5924 7.78661 33.5924 11.9793Z" fill="#C6C6C6"/>
</svg>
