<svg width="43" height="28" viewBox="0 0 43 28" fill="none" xmlns="http://www.w3.org/2000/svg">
<rect x="0.900391" y="0.69043" width="41" height="26" rx="6.5" fill="white" stroke="#9B9B9B"/>
<path d="M13.4042 23.2236V21.9527C13.4042 21.4666 13.1081 21.1483 12.5997 21.1483C12.3455 21.1483 12.0691 21.2322 11.8791 21.5086C11.7311 21.2766 11.5188 21.1483 11.2005 21.1483C10.9883 21.1483 10.7761 21.2124 10.6083 21.4444V21.1902H10.1641V23.2236H10.6083V22.1008C10.6083 21.7405 10.7983 21.5703 11.0944 21.5703C11.3905 21.5703 11.5386 21.7603 11.5386 22.1008V23.2236H11.9828V22.1008C11.9828 21.7405 12.195 21.5703 12.4689 21.5703C12.765 21.5703 12.9131 21.7603 12.9131 22.1008V23.2236H13.4042ZM19.993 21.1902H19.2724V20.5758H18.8283V21.1902H18.426V21.5925H18.8283V22.5253C18.8283 22.9917 19.0183 23.2656 19.5266 23.2656C19.7166 23.2656 19.9289 23.2014 20.0769 23.1175L19.9486 22.735C19.8203 22.8189 19.6722 22.8411 19.5661 22.8411C19.3539 22.8411 19.27 22.7128 19.27 22.5031V21.5925H19.9906V21.1902H19.993ZM23.7637 21.1458C23.5095 21.1458 23.3393 21.2741 23.2332 21.4419V21.1878H22.789V23.2212H23.2332V22.0761C23.2332 21.7381 23.3812 21.5456 23.6576 21.5456C23.7415 21.5456 23.8476 21.5678 23.934 21.5875L24.0623 21.1631C23.9735 21.1458 23.8476 21.1458 23.7637 21.1458ZM18.0657 21.358C17.8535 21.21 17.5574 21.1458 17.239 21.1458C16.7307 21.1458 16.3926 21.4 16.3926 21.8022C16.3926 22.1403 16.6468 22.3328 17.091 22.3945L17.3032 22.4167C17.5352 22.4586 17.6635 22.5228 17.6635 22.6289C17.6635 22.777 17.4932 22.8831 17.1971 22.8831C16.901 22.8831 16.6665 22.777 16.5185 22.6709L16.3062 23.0089C16.5382 23.1792 16.8565 23.2631 17.1749 23.2631C17.7671 23.2631 18.1077 22.9867 18.1077 22.6067C18.1077 22.2464 17.8313 22.0564 17.4093 21.9922L17.1971 21.97C17.0071 21.9478 16.859 21.9059 16.859 21.78C16.859 21.6319 17.0071 21.548 17.2415 21.548C17.4957 21.548 17.7499 21.6542 17.8782 21.7183L18.0657 21.358ZM29.8837 21.1458C29.6295 21.1458 29.4592 21.2741 29.3531 21.4419V21.1878H28.9089V23.2212H29.3531V22.0761C29.3531 21.7381 29.5012 21.5456 29.7776 21.5456C29.8615 21.5456 29.9676 21.5678 30.054 21.5875L30.1823 21.168C30.0959 21.1458 29.9701 21.1458 29.8837 21.1458ZM24.2079 22.2069C24.2079 22.8214 24.6324 23.2656 25.2888 23.2656C25.5849 23.2656 25.7971 23.2014 26.0093 23.0336L25.7971 22.6733C25.6268 22.8016 25.459 22.8633 25.2666 22.8633C24.9063 22.8633 24.6521 22.6092 24.6521 22.2069C24.6521 21.8244 24.9063 21.5703 25.2666 21.5505C25.4566 21.5505 25.6268 21.6147 25.7971 21.7405L26.0093 21.3802C25.7971 21.21 25.5849 21.1483 25.2888 21.1483C24.6324 21.1458 24.2079 21.5925 24.2079 22.2069ZM28.3167 22.2069V21.1902H27.8725V21.4444C27.7244 21.2544 27.5122 21.1483 27.2358 21.1483C26.6633 21.1483 26.2191 21.5925 26.2191 22.2069C26.2191 22.8214 26.6633 23.2656 27.2358 23.2656C27.5319 23.2656 27.7442 23.1595 27.8725 22.9695V23.2236H28.3167V22.2069ZM26.6855 22.2069C26.6855 21.8466 26.9175 21.5505 27.3 21.5505C27.6603 21.5505 27.9144 21.8269 27.9144 22.2069C27.9144 22.5672 27.6603 22.8633 27.3 22.8633C26.9199 22.8411 26.6855 22.5647 26.6855 22.2069ZM21.37 21.1458C20.7778 21.1458 20.3533 21.5703 20.3533 22.2045C20.3533 22.8411 20.7778 23.2631 21.3922 23.2631C21.6884 23.2631 21.9845 23.1792 22.2189 22.9867L22.0067 22.6684C21.8364 22.7967 21.6242 22.8806 21.4144 22.8806C21.1381 22.8806 20.8641 22.7523 20.8 22.3945H22.3028C22.3028 22.3303 22.3028 22.2884 22.3028 22.2242C22.3226 21.5703 21.9401 21.1458 21.37 21.1458ZM21.37 21.5283C21.6464 21.5283 21.8364 21.6986 21.8784 22.0144H20.8197C20.8617 21.7405 21.0517 21.5283 21.37 21.5283ZM32.4057 22.2069V20.3857H31.9615V21.4444C31.8134 21.2544 31.6012 21.1483 31.3248 21.1483C30.7523 21.1483 30.3081 21.5925 30.3081 22.2069C30.3081 22.8214 30.7523 23.2656 31.3248 23.2656C31.621 23.2656 31.8332 23.1595 31.9615 22.9695V23.2236H32.4057V22.2069ZM30.7745 22.2069C30.7745 21.8466 31.0065 21.5505 31.389 21.5505C31.7493 21.5505 32.0035 21.8269 32.0035 22.2069C32.0035 22.5672 31.7493 22.8633 31.389 22.8633C31.0065 22.8411 30.7745 22.5647 30.7745 22.2069ZM15.904 22.2069V21.1902H15.4598V21.4444C15.3117 21.2544 15.0995 21.1483 14.8231 21.1483C14.2506 21.1483 13.8064 21.5925 13.8064 22.2069C13.8064 22.8214 14.2506 23.2656 14.8231 23.2656C15.1193 23.2656 15.3315 23.1595 15.4598 22.9695V23.2236H15.904V22.2069ZM14.2531 22.2069C14.2531 21.8466 14.4851 21.5505 14.8676 21.5505C15.2278 21.5505 15.482 21.8269 15.482 22.2069C15.482 22.5672 15.2278 22.8633 14.8676 22.8633C14.4851 22.8411 14.2531 22.5647 14.2531 22.2069Z" fill="#9B9B9B"/>
<path d="M24.5897 5.74707H17.917V17.7353H24.5897V5.74707Z" fill="#AFAFAF"/>
<path d="M18.3613 11.7415C18.3613 9.30584 19.5063 7.14411 21.2633 5.74738C19.9703 4.73068 18.3391 4.11621 16.5599 4.11621C12.345 4.11621 8.93457 7.52661 8.93457 11.7415C8.93457 15.9564 12.345 19.3668 16.5599 19.3668C18.3391 19.3668 19.9703 18.7523 21.2633 17.7356C19.5039 16.3586 18.3613 14.1771 18.3613 11.7415Z" fill="#9B9B9B"/>
<path d="M33.5924 11.7417C33.5924 15.9566 30.182 19.367 25.9672 19.367C24.1879 19.367 22.5568 18.7526 21.2637 17.7358C23.0429 16.3366 24.1657 14.1774 24.1657 11.7417C24.1657 9.30609 23.0207 7.14436 21.2637 5.74762C22.5543 4.73092 24.1855 4.11646 25.9647 4.11646C30.182 4.11646 33.5924 7.54907 33.5924 11.7417Z" fill="#C6C6C6"/>
</svg>
