<svg width="16" height="9" viewBox="0 0 16 9" fill="none" xmlns="http://www.w3.org/2000/svg">
<path d="M3.86274 0.334961C2.65111 0.334961 2.04529 0.334961 1.76477 0.574555C1.52136 0.782447 1.39218 1.0943 1.4173 1.41342C1.44624 1.7812 1.87462 2.20958 2.73137 3.06633L6.86863 7.20359C7.26465 7.59961 7.46265 7.79762 7.69098 7.8718C7.89183 7.93706 8.10817 7.93706 8.30902 7.8718C8.53735 7.79762 8.73535 7.59961 9.13137 7.20359L13.2686 3.06633C14.1254 2.20958 14.5538 1.7812 14.5827 1.41342C14.6078 1.0943 14.4786 0.782446 14.2352 0.574555C13.9547 0.334961 13.3489 0.334961 12.1373 0.334961L3.86274 0.334961Z" fill="#DEE7FF"/>
</svg>
