<svg width="14" height="14" viewBox="0 0 14 14" fill="none" xmlns="http://www.w3.org/2000/svg">
<path d="M7.25332 10.8335L7.0005 10.6849L6.74743 10.833L3.35253 12.8201L3.35164 12.8206C3.22483 12.8952 3.09098 12.8791 2.9897 12.8075C2.88918 12.7365 2.84375 12.6296 2.87248 12.5096L3.77227 8.75825L3.84429 8.45799L3.60808 8.25913L0.605847 5.73159L0.60567 5.73144C0.417515 5.57318 0.492283 5.24456 0.788644 5.22166L0.788644 5.22166L0.791214 5.22145L4.74238 4.89557L5.03987 4.87104L5.15943 4.59753L6.70554 1.06056L6.70554 1.06057L6.70639 1.05859C6.75545 0.94505 6.86371 0.877441 7 0.877441C7.13629 0.877441 7.24455 0.94505 7.2936 1.05859L7.2943 1.06019L8.84041 4.6051L8.95985 4.87896L9.25762 4.90352L13.2088 5.22941L13.2114 5.22961C13.5077 5.25251 13.5825 5.58113 13.3943 5.73939L13.3942 5.73954L10.3919 8.26708L10.1557 8.46594L10.2277 8.7662L11.1275 12.5175C11.1562 12.6375 11.1108 12.7444 11.0103 12.8155C10.909 12.887 10.7752 12.9031 10.6484 12.8286L10.6482 12.8285L7.25332 10.8335Z" fill="#6086F9" stroke="#6086F9"/>
</svg>
