<svg width="14" height="14" viewBox="0 0 14 14" fill="none" xmlns="http://www.w3.org/2000/svg">
<path d="M7.25332 11.3335L7.0005 11.1849L6.74743 11.333L3.35253 13.3201L3.35164 13.3206C3.22483 13.3952 3.09098 13.3791 2.9897 13.3075C2.88918 13.2365 2.84375 13.1296 2.87248 13.0096L3.77227 9.25825L3.84429 8.95799L3.60808 8.75913L0.605847 6.23159L0.60567 6.23144C0.417515 6.07318 0.492283 5.74456 0.788644 5.72166L0.788644 5.72166L0.791214 5.72145L4.74238 5.39557L5.03987 5.37104L5.15943 5.09753L6.70554 1.56056L6.70554 1.56057L6.70639 1.55859C6.75545 1.44505 6.86371 1.37744 7 1.37744C7.13629 1.37744 7.24455 1.44505 7.2936 1.55859L7.2943 1.56019L8.84041 5.1051L8.95985 5.37896L9.25762 5.40352L13.2088 5.72941L13.2114 5.72961C13.5077 5.75251 13.5825 6.08113 13.3943 6.23939L13.3942 6.23954L10.3919 8.76708L10.1557 8.96594L10.2277 9.2662L11.1275 13.0175C11.1562 13.1375 11.1108 13.2444 11.0103 13.3155C10.909 13.387 10.7752 13.4031 10.6484 13.3286L10.6482 13.3285L7.25332 11.3335Z" fill="#6086F9" stroke="#6086F9"/>
</svg>
