<svg width="14" height="14" viewBox="0 0 14 14" fill="none" xmlns="http://www.w3.org/2000/svg">
<path d="M7.25332 10.6465L7.0005 10.4979L6.74743 10.646L3.35253 12.6331L3.35164 12.6336C3.22483 12.7082 3.09098 12.6921 2.9897 12.6205C2.88918 12.5495 2.84375 12.4426 2.87248 12.3226L3.77227 8.57124L3.84429 8.27098L3.60808 8.07212L0.605847 5.54458L0.60567 5.54443C0.417515 5.38617 0.492283 5.05755 0.788644 5.03465L0.788644 5.03465L0.791214 5.03444L4.74238 4.70856L5.03987 4.68403L5.15943 4.41052L6.70554 0.873552L6.70554 0.873554L6.70639 0.871581C6.75545 0.758039 6.86371 0.69043 7 0.69043C7.13629 0.69043 7.24455 0.758039 7.2936 0.871582L7.2943 0.873175L8.84041 4.41809L8.95985 4.69195L9.25762 4.71651L13.2088 5.0424L13.2114 5.04259C13.5077 5.0655 13.5825 5.39412 13.3943 5.55238L13.3942 5.55253L10.3919 8.08007L10.1557 8.27893L10.2277 8.57919L11.1275 12.3305C11.1562 12.4505 11.1108 12.5574 11.0103 12.6284C10.909 12.7 10.7752 12.7161 10.6484 12.6416L10.6482 12.6415L7.25332 10.6465Z" fill="#6086F9" stroke="#6086F9"/>
</svg>
