<svg width="14" height="14" viewBox="0 0 14 14" fill="none" xmlns="http://www.w3.org/2000/svg">
<path d="M7.25332 11.3862L7.0005 11.2376L6.74743 11.3858L3.35253 13.3728L3.35164 13.3733C3.22483 13.4479 3.09098 13.4318 2.9897 13.3602C2.88918 13.2892 2.84375 13.1823 2.87248 13.0623L3.77227 9.31098L3.84429 9.01073L3.60808 8.81187L0.605847 6.28432L0.60567 6.28418C0.417515 6.12592 0.492283 5.7973 0.788644 5.77439L0.788644 5.7744L0.791214 5.77419L4.74238 5.44831L5.03987 5.42377L5.15943 5.15027L6.70554 1.6133L6.70554 1.6133L6.70639 1.61133C6.75545 1.49778 6.86371 1.43018 7 1.43018C7.13629 1.43018 7.24455 1.49778 7.2936 1.61133L7.2943 1.61292L8.84041 5.15784L8.95985 5.4317L9.25762 5.45626L13.2088 5.78214L13.2114 5.78234C13.5077 5.80524 13.5825 6.13387 13.3943 6.29212L13.3942 6.29227L10.3919 8.81981L10.1557 9.01868L10.2277 9.31893L11.1275 13.0703C11.1562 13.1903 11.1108 13.2972 11.0103 13.3682C10.909 13.4398 10.7752 13.4559 10.6484 13.3813L10.6482 13.3812L7.25332 11.3862Z" fill="#6086F9" stroke="#6086F9"/>
</svg>
