<svg width="14" height="14" viewBox="0 0 14 14" fill="none" xmlns="http://www.w3.org/2000/svg">
<path d="M6.90676 11.1829L7.16212 11.335L10.5115 13.33L10.5117 13.3301C10.7619 13.4792 11.027 13.2516 10.9717 13.0163L6.90676 11.1829ZM6.90676 11.1829L6.65114 11.3345L3.30171 13.3216L3.30082 13.3221C3.05049 13.4713 2.78528 13.2435 2.84087 13.0081L3.72861 9.25677L3.79895 8.95954L3.56661 8.76128L0.604582 6.23374L0.604406 6.23359C0.410935 6.06865 0.502686 5.74327 0.779118 5.72162L0.779118 5.72162L0.781721 5.72141L4.67997 5.39553L4.97872 5.37055L5.09744 5.09527L6.62285 1.5583L6.62285 1.55831L6.62369 1.55635C6.72536 1.31781 7.08714 1.31781 7.18881 1.55635L7.18949 1.55793L8.71489 5.10285L8.8335 5.37848L9.13253 5.40348L13.0308 5.72936L13.0334 5.72957C13.3098 5.75122 13.4016 6.0766 13.2081 6.24154L13.2079 6.24169L10.2459 8.76923L10.0135 8.96749L10.0839 9.26472L10.9716 13.0161L6.90676 11.1829Z" stroke="#6086F9"/>
</svg>
