<svg width="16" height="17" viewBox="0 0 16 17" fill="none" xmlns="http://www.w3.org/2000/svg">
<path d="M8 0.377441C6.41775 0.377441 4.87103 0.846633 3.55544 1.72568C2.23985 2.60474 1.21447 3.85416 0.608967 5.31597C0.00346627 6.77778 -0.15496 8.38631 0.153721 9.93816C0.462403 11.49 1.22433 12.9155 2.34315 14.0343C3.46197 15.1531 4.88743 15.915 6.43928 16.2237C7.99113 16.5324 9.59966 16.374 11.0615 15.7685C12.5233 15.163 13.7727 14.1376 14.6518 12.822C15.5308 11.5064 16 9.95969 16 8.37744C16 6.25571 15.1571 4.22088 13.6569 2.72059C12.1566 1.2203 10.1217 0.377441 8 0.377441ZM6.85715 11.5717L4 8.71458L4.90857 7.80601L6.85715 9.75458L11.0914 5.5203L12.0034 6.42658L6.85715 11.5717Z" fill="#73CA55"/>
</svg>
