<svg width="72" height="13" viewBox="0 0 72 13" fill="none" xmlns="http://www.w3.org/2000/svg">
<path d="M8.62549 2.31931C8.13385 1.80825 7.59866 1.42263 7.01994 1.16803C6.4331 0.909014 5.80031 0.777094 5.16132 0.780551C3.72722 0.780551 2.50991 1.34272 1.50576 2.46241C0.502526 3.5821 0.00181417 5.01958 0 6.77298C0 8.46414 0.517039 9.88117 1.55293 11.0176C2.58883 12.1577 3.81702 12.7273 5.2357 12.7273C5.84031 12.734 6.44003 12.6158 6.99908 12.3798C7.54243 12.1466 8.08305 11.7665 8.62186 11.235V12.4383H11.3948V1.07883H8.62639L8.62549 2.31931ZM7.89075 9.18055C7.3211 9.80591 6.60268 10.1144 5.73732 10.1163C4.89827 10.1163 4.19165 9.79847 3.61928 9.16197C3.046 8.52732 2.75845 7.71706 2.75845 6.73489C2.75845 5.75551 3.04237 4.95639 3.60476 4.33104C4.16897 3.70661 4.8765 3.39719 5.72916 3.39719C6.60268 3.39719 7.32472 3.70383 7.89437 4.3171C8.46493 4.93223 8.64907 5.63192 8.64726 6.62152C8.64726 7.63436 8.46312 8.55706 7.89075 9.18055ZM27.2997 2.31931C26.8426 1.83278 26.2976 1.44179 25.695 1.16803C25.1072 0.90915 24.4736 0.777244 23.8337 0.780551C22.4032 0.780551 21.1823 1.34272 20.18 2.46241C19.1767 3.58303 18.676 5.02051 18.6742 6.77391C18.6724 8.46506 19.1894 9.8821 20.2271 11.0185C21.263 12.1586 22.4912 12.7283 23.9126 12.7283C24.5161 12.7349 25.1146 12.6167 25.6724 12.3807C26.2148 12.1475 26.7554 11.7675 27.2942 11.2359V12.4393H30.0672V1.07883H27.2997V2.31931ZM26.5649 9.18055C25.9953 9.80591 25.2751 10.1144 24.4133 10.1163C23.5725 10.1163 22.8658 9.79847 22.2917 9.16197C21.7184 8.52732 21.4308 7.71706 21.4326 6.73489C21.4345 5.75551 21.7138 4.95639 22.279 4.33104C22.8432 3.70661 23.5507 3.39719 24.4034 3.39719C25.2751 3.39719 25.9971 3.70383 26.5686 4.3171C27.1391 4.93223 27.3214 5.63192 27.3196 6.62152C27.3196 7.63436 27.1373 8.55706 26.5649 9.18055ZM46.7558 1.35573C46.1598 0.979401 45.4713 0.791701 44.6858 0.791701C43.9547 0.78378 43.2335 0.964655 42.5886 1.31763C41.9491 1.66794 41.4094 2.179 40.9677 2.85453C40.632 2.179 40.1858 1.66608 39.6324 1.31577C39.0706 0.96266 38.4229 0.779079 37.7638 0.786126C37.0799 0.786126 36.4495 0.919002 35.8698 1.18661C35.2911 1.45237 34.765 1.85564 34.2915 2.39644V1.07883H31.5158L31.5131 12.4393H34.2861L34.2879 7.39927C34.2897 6.30931 34.3831 5.5102 34.5691 5.00285C34.7577 4.49644 35.0389 4.10338 35.4154 3.81998C35.7936 3.54121 36.2118 3.39905 36.6744 3.39905C37.0871 3.39998 37.4418 3.51148 37.7339 3.73356C38.026 3.95657 38.2437 4.29573 38.3897 4.75011C38.5358 5.20542 38.6092 5.93949 38.6092 6.95511L38.6038 12.4393H41.3804V7.32958C41.384 6.24613 41.4756 5.46002 41.658 4.97126C41.843 4.48064 42.1242 4.09967 42.5006 3.81998C42.8729 3.54414 43.322 3.3985 43.7814 3.40462C44.4064 3.40462 44.8718 3.63321 45.1865 4.08573C45.5004 4.5429 45.6555 5.41263 45.6555 6.69493L45.6519 12.4393H48.4257L48.4294 5.78617C48.4294 4.42117 48.2996 3.43529 48.0393 2.83037C47.7808 2.2236 47.3526 1.73206 46.7558 1.35573ZM58.1107 9.09042C57.3687 9.84679 56.4807 10.225 55.4484 10.225C54.583 10.224 53.8755 9.97967 53.3167 9.49648C52.7589 9.01329 52.4178 8.36285 52.2881 7.54329L61.1857 7.54887L61.1966 7.00807C61.1966 5.13573 60.6542 3.63135 59.5648 2.4875C58.4781 1.34829 57.0648 0.777763 55.3241 0.774976C53.6877 0.774976 52.3244 1.34644 51.2413 2.494C50.1537 3.63692 49.6113 5.07626 49.6113 6.80922C49.6095 8.50316 50.1537 9.90905 51.2395 11.0334C52.3244 12.1605 53.7349 12.7217 55.4629 12.7217C56.5786 12.7217 57.5392 12.5192 58.352 12.1113C59.1611 11.7052 59.8577 11.0743 60.4383 10.225L58.1107 9.09042ZM53.4338 3.86829C54.0161 3.42878 54.6946 3.21042 55.4656 3.21228C56.1795 3.21228 56.8045 3.40741 57.3397 3.79767C57.8803 4.19073 58.2404 4.699 58.4227 5.32343L52.4178 5.31971C52.728 4.62745 53.0682 4.14241 53.4338 3.86922M67.7684 6.42732L71.5174 1.07697H68.3553L66.1847 4.174L64.0068 1.07697H60.7948L64.5818 6.45891L60.3947 12.4393H63.5568L66.1647 8.71502L68.7862 12.4393H72L67.7684 6.42732ZM18.071 0.728516C17.5576 0.728516 17.1095 0.82794 16.7357 1.02029C16.3666 1.20984 15.943 1.55551 15.4658 2.06285V1.0779H12.8171V12.4393H15.591L15.5892 6.53046C15.5892 4.36542 16.1734 3.27918 17.5875 3.27918C17.8324 3.27918 18.0828 3.334 18.3349 3.43064C18.7903 2.65011 19.3164 1.91697 19.9042 1.24144C19.2711 0.907852 18.6597 0.728516 18.071 0.728516Z" fill="#E12626"/>
</svg>
