<svg width="72" height="13" viewBox="0 0 72 13" fill="none" xmlns="http://www.w3.org/2000/svg">
<path d="M8.62549 1.91941C8.13385 1.40835 7.59866 1.02273 7.01994 0.768127C6.4331 0.509112 5.80031 0.377191 5.16132 0.380649C3.72722 0.380649 2.50991 0.942817 1.50576 2.06251C0.502526 3.1822 0.00181417 4.61968 0 6.37308C0 8.06423 0.517039 9.48127 1.55293 10.6177C2.58883 11.7578 3.81702 12.3274 5.2357 12.3274C5.84031 12.3341 6.44003 12.2159 6.99908 11.9799C7.54243 11.7467 8.08305 11.3666 8.62186 10.8351V12.0384H11.3948V0.678923H8.62639L8.62549 1.91941ZM7.89075 8.78065C7.3211 9.406 6.60268 9.7145 5.73732 9.71636C4.89827 9.71636 4.19165 9.39857 3.61928 8.76207C3.046 8.12742 2.75845 7.31715 2.75845 6.33499C2.75845 5.3556 3.04237 4.55649 3.60476 3.93114C4.16897 3.30671 4.8765 2.99729 5.72916 2.99729C6.60268 2.99729 7.32472 3.30392 7.89437 3.9172C8.46493 4.53233 8.64907 5.23202 8.64726 6.22162C8.64726 7.23445 8.46312 8.15715 7.89075 8.78065ZM27.2997 1.91941C26.8426 1.43288 26.2976 1.04188 25.695 0.768127C25.1072 0.509248 24.4736 0.377341 23.8337 0.380649C22.4032 0.380649 21.1823 0.942817 20.18 2.06251C19.1767 3.18313 18.676 4.6206 18.6742 6.37401C18.6724 8.06516 19.1894 9.4822 20.2271 10.6186C21.263 11.7587 22.4912 12.3283 23.9126 12.3283C24.5161 12.335 25.1146 12.2168 25.6724 11.9808C26.2148 11.7476 26.7554 11.3676 27.2942 10.836V12.0394H30.0672V0.678923H27.2997V1.91941ZM26.5649 8.78065C25.9953 9.406 25.2751 9.7145 24.4133 9.71636C23.5725 9.71636 22.8658 9.39857 22.2917 8.76207C21.7184 8.12742 21.4308 7.31715 21.4326 6.33499C21.4345 5.3556 21.7138 4.55649 22.279 3.93114C22.8432 3.30671 23.5507 2.99729 24.4034 2.99729C25.2751 2.99729 25.9971 3.30392 26.5686 3.9172C27.1391 4.53233 27.3214 5.23202 27.3196 6.22162C27.3196 7.23445 27.1373 8.15715 26.5649 8.78065ZM46.7558 0.955826C46.1598 0.579498 45.4713 0.391799 44.6858 0.391799C43.9547 0.383877 43.2335 0.564753 42.5886 0.917728C41.9491 1.26804 41.4094 1.7791 40.9677 2.45463C40.632 1.7791 40.1858 1.26618 39.6324 0.91587C39.0706 0.562757 38.4229 0.379177 37.7638 0.386224C37.0799 0.386224 36.4495 0.5191 35.8698 0.786711C35.2911 1.05246 34.765 1.45574 34.2915 1.99653V0.678923H31.5158L31.5131 12.0394H34.2861L34.2879 6.99937C34.2897 5.90941 34.3831 5.11029 34.5691 4.60295C34.7577 4.09653 35.0389 3.70348 35.4154 3.42007C35.7936 3.14131 36.2118 2.99914 36.6744 2.99914C37.0871 3.00007 37.4418 3.11158 37.7339 3.33366C38.026 3.55667 38.2437 3.89583 38.3897 4.35021C38.5358 4.80552 38.6092 5.53959 38.6092 6.55521L38.6038 12.0394H41.3804V6.92968C41.384 5.84622 41.4756 5.06012 41.658 4.57136C41.843 4.08074 42.1242 3.69976 42.5006 3.42007C42.8729 3.14424 43.322 2.9986 43.7814 3.00472C44.4064 3.00472 44.8718 3.2333 45.1865 3.68583C45.5004 4.14299 45.6555 5.01273 45.6555 6.29503L45.6519 12.0394H48.4257L48.4294 5.38627C48.4294 4.02127 48.2996 3.03538 48.0393 2.43047C47.7808 1.8237 47.3526 1.33215 46.7558 0.955826ZM58.1107 8.69052C57.3687 9.44689 56.4807 9.82507 55.4484 9.82507C54.583 9.82414 53.8755 9.57976 53.3167 9.09658C52.7589 8.61339 52.4178 7.96295 52.2881 7.14339L61.1857 7.14897L61.1966 6.60817C61.1966 4.73583 60.6542 3.23145 59.5647 2.0876C58.4781 0.948392 57.0648 0.377861 55.3241 0.375073C53.6877 0.375073 52.3244 0.946534 51.2413 2.0941C50.1537 3.23702 49.6113 4.67636 49.6113 6.40932C49.6095 8.10326 50.1537 9.50914 51.2395 10.6335C52.3244 11.7606 53.7349 12.3218 55.4629 12.3218C56.5786 12.3218 57.5392 12.1193 58.352 11.7114C59.1611 11.3053 59.8577 10.6744 60.4383 9.82507L58.1107 8.69052ZM53.4338 3.46839C54.0161 3.02888 54.6946 2.81052 55.4656 2.81237C56.1795 2.81237 56.8045 3.00751 57.3397 3.39777C57.8803 3.79083 58.2404 4.2991 58.4227 4.92353L52.4178 4.91981C52.728 4.22755 53.0682 3.74251 53.4338 3.46932M67.7684 6.02742L71.5174 0.677065H68.3553L66.1847 3.7741L64.0068 0.677065H60.7948L64.5818 6.05901L60.3947 12.0394H63.5568L66.1647 8.31512L68.7862 12.0394H72L67.7684 6.02742ZM18.071 0.328613C17.5576 0.328613 17.1095 0.428038 16.7357 0.620383C16.3666 0.809941 15.943 1.1556 15.4658 1.66295V0.677994H12.8171V12.0394H15.591L15.5892 6.13056C15.5892 3.96552 16.1734 2.87928 17.5875 2.87928C17.8324 2.87928 18.0828 2.9341 18.3349 3.03074C18.7903 2.25021 19.3164 1.51706 19.9042 0.841534C19.2711 0.50795 18.6597 0.328613 18.071 0.328613Z" fill="#E12626"/>
</svg>
