<svg width="32" height="9" viewBox="0 0 32 9" fill="none" xmlns="http://www.w3.org/2000/svg">
<path d="M3.56383 0.989746L0.00878906 8.85693H4.26467L4.79227 7.60257H5.99826L6.52586 8.85693H11.2104V7.89956L11.6278 8.85693H14.051L14.4684 7.87933V8.85693H24.211L25.3956 7.63514L26.5049 8.85693L31.5089 8.86704L27.9426 4.9453L31.5089 0.989746H26.5825L25.4293 2.18895L24.355 0.989746H13.7564L12.8463 3.02033L11.9148 0.989746H7.66781V1.91453L7.19536 0.989746H3.56383ZM4.38731 2.10689H6.46183L8.81988 7.44167V2.10689H11.0924L12.9138 5.9319L14.5923 2.10689H16.8535V7.75212H15.4776L15.4664 3.32855L13.4605 7.75212H12.2297L10.2126 3.32855V7.75212H7.38205L6.84544 6.48653H3.94633L3.41083 7.751H1.89427L4.38731 2.10689ZM18.1123 2.10689H23.7069L25.4181 3.95524L27.1844 2.10689H28.8955L26.2956 4.94419L28.8955 7.74878H27.1068L25.3956 5.87897L23.6203 7.74878H18.1123V2.10689ZM5.3965 3.06204L4.44136 5.31657H6.35053L5.3965 3.06204ZM19.4939 3.27574V4.30628H22.546V5.45489H19.4939V6.57994H22.9173L24.508 4.92284L22.9848 3.27476H19.4939V3.27574Z" fill="#9B9B9B"/>
</svg>
