<svg width="32" height="9" viewBox="0 0 32 9" fill="none" xmlns="http://www.w3.org/2000/svg">
<path d="M3.56383 0.751953L0.00878906 8.61913H4.26467L4.79227 7.36478H5.99826L6.52586 8.61913H11.2104V7.66177L11.6278 8.61913H14.051L14.4684 7.64153V8.61913H24.211L25.3956 7.39735L26.5049 8.61913L31.5089 8.62925L27.9426 4.70751L31.5089 0.751953H26.5825L25.4293 1.95115L24.355 0.751953H13.7564L12.8463 2.78254L11.9148 0.751953H7.66781V1.67674L7.19536 0.751953H3.56383ZM4.38731 1.8691H6.46183L8.81988 7.20388V1.8691H11.0924L12.9138 5.69411L14.5923 1.8691H16.8535V7.51432H15.4776L15.4664 3.09076L13.4605 7.51432H12.2297L10.2126 3.09076V7.51432H7.38205L6.84544 6.24874H3.94633L3.41083 7.51321H1.89427L4.38731 1.8691ZM18.1123 1.8691H23.7069L25.4181 3.71745L27.1844 1.8691H28.8955L26.2956 4.7064L28.8955 7.51099H27.1068L25.3956 5.64118L23.6203 7.51099H18.1123V1.8691ZM5.3965 2.82424L4.44136 5.07878H6.35053L5.3965 2.82424ZM19.4939 3.03795V4.06848H22.546V5.2171H19.4939V6.34214H22.9173L24.508 4.68505L22.9848 3.03696H19.4939V3.03795Z" fill="#9B9B9B"/>
</svg>
