<svg width="16" height="17" viewBox="0 0 16 17" fill="none" xmlns="http://www.w3.org/2000/svg">
<path d="M8 0.877441C6.41775 0.877441 4.87103 1.34663 3.55544 2.22568C2.23985 3.10474 1.21447 4.35416 0.608967 5.81597C0.00346627 7.27778 -0.15496 8.88631 0.153721 10.4382C0.462403 11.99 1.22433 13.4155 2.34315 14.5343C3.46197 15.6531 4.88743 16.415 6.43928 16.7237C7.99113 17.0324 9.59966 16.874 11.0615 16.2685C12.5233 15.663 13.7727 14.6376 14.6518 13.322C15.5308 12.0064 16 10.4597 16 8.87744C16 6.75571 15.1571 4.72088 13.6569 3.22059C12.1566 1.7203 10.1217 0.877441 8 0.877441ZM6.85715 12.0717L4 9.21458L4.90857 8.30601L6.85715 10.2546L11.0914 6.0203L12.0034 6.92658L6.85715 12.0717Z" fill="#73CA55"/>
</svg>
