<svg width="42" height="28" viewBox="0 0 42 28" fill="none" xmlns="http://www.w3.org/2000/svg">
<rect x="0.5" y="0.928223" width="41" height="26" rx="6.5" fill="white" stroke="#9B9B9B"/>
<path d="M18.2023 18.1457H15.7344L17.278 8.60107H19.7458L18.2023 18.1457Z" fill="#9B9B9B"/>
<path d="M27.1482 8.83457C26.6614 8.64145 25.8894 8.42822 24.9347 8.42822C22.4975 8.42822 20.7813 9.72784 20.7708 11.5859C20.7505 12.9568 21.9995 13.7182 22.9337 14.1753C23.8885 14.6424 24.2131 14.9472 24.2131 15.3636C24.2034 16.003 23.4415 16.2977 22.731 16.2977C21.7457 16.2977 21.2178 16.1458 20.4154 15.79L20.0905 15.6375L19.7451 17.7801C20.3239 18.0438 21.3904 18.2778 22.4975 18.2881C25.0871 18.2881 26.7729 17.0085 26.7929 15.0285C26.8027 13.942 26.1432 13.1094 24.7213 12.4291C23.8581 11.9924 23.3295 11.6979 23.3295 11.2511C23.3397 10.8449 23.7766 10.4288 24.751 10.4288C25.5533 10.4084 26.1428 10.6013 26.5894 10.7943L26.8126 10.8956L27.1482 8.83457Z" fill="#9B9B9B"/>
<path d="M30.4286 14.7643C30.6319 14.216 31.414 12.0939 31.414 12.0939C31.4037 12.1142 31.6168 11.5354 31.7387 11.1801L31.9111 12.0025C31.9111 12.0025 32.3785 14.2871 32.48 14.7643C32.0943 14.7643 30.9161 14.7643 30.4286 14.7643ZM33.475 8.60107H31.566C30.9774 8.60107 30.5301 8.77355 30.2761 9.39299L26.6104 18.1455H29.1999C29.1999 18.1455 29.6262 16.9675 29.7178 16.7138C30.0019 16.7138 32.521 16.7138 32.8864 16.7138C32.9573 17.0489 33.1809 18.1455 33.1809 18.1455H35.466L33.475 8.60107Z" fill="#9B9B9B"/>
<path d="M13.6722 8.60107L11.2553 15.1096L10.9912 13.7896C10.5443 12.2665 9.14296 10.6116 7.5791 9.78882L9.79291 18.1355H12.4027L16.2818 8.60107H13.6722Z" fill="#9B9B9B"/>
<path d="M9.01128 8.60107H5.04062L5 8.79393C8.09736 9.58598 10.1487 11.4952 10.9915 13.79L10.1283 9.40338C9.98619 8.79379 9.54948 8.62118 9.01128 8.60107Z" fill="#DFDFDF"/>
</svg>
