<svg width="42" height="28" viewBox="0 0 42 28" fill="none" xmlns="http://www.w3.org/2000/svg">
<rect x="0.5" y="0.69043" width="41" height="26" rx="6.5" fill="white" stroke="#9B9B9B"/>
<path d="M18.2023 17.9079H15.7344L17.278 8.36328H19.7458L18.2023 17.9079Z" fill="#9B9B9B"/>
<path d="M27.1482 8.59678C26.6614 8.40366 25.8894 8.19043 24.9347 8.19043C22.4975 8.19043 20.7813 9.49005 20.7708 11.3481C20.7505 12.719 21.9995 13.4804 22.9337 13.9375C23.8885 14.4046 24.2131 14.7094 24.2131 15.1258C24.2034 15.7652 23.4415 16.0599 22.731 16.0599C21.7457 16.0599 21.2178 15.908 20.4154 15.5522L20.0905 15.3997L19.7451 17.5423C20.3239 17.806 21.3904 18.04 22.4975 18.0503C25.0871 18.0503 26.7729 16.7708 26.7929 14.7907C26.8027 13.7042 26.1432 12.8716 24.7213 12.1913C23.8581 11.7546 23.3295 11.4601 23.3295 11.0133C23.3397 10.6071 23.7766 10.191 24.751 10.191C25.5533 10.1706 26.1428 10.3635 26.5894 10.5565L26.8126 10.6578L27.1482 8.59678Z" fill="#9B9B9B"/>
<path d="M30.4286 14.5266C30.6319 13.9782 31.414 11.8561 31.414 11.8561C31.4037 11.8764 31.6168 11.2976 31.7387 10.9423L31.9111 11.7647C31.9111 11.7647 32.3785 14.0494 32.48 14.5266C32.0943 14.5266 30.9161 14.5266 30.4286 14.5266ZM33.475 8.36328H31.566C30.9774 8.36328 30.5301 8.53575 30.2761 9.1552L26.6104 17.9077H29.1999C29.1999 17.9077 29.6262 16.7297 29.7178 16.476C30.0019 16.476 32.521 16.476 32.8864 16.476C32.9573 16.8111 33.1809 17.9077 33.1809 17.9077H35.466L33.475 8.36328Z" fill="#9B9B9B"/>
<path d="M13.6722 8.36328L11.2553 14.8718L10.9912 13.5518C10.5443 12.0287 9.14296 10.3738 7.5791 9.55102L9.79291 17.8977H12.4027L16.2818 8.36328H13.6722Z" fill="#9B9B9B"/>
<path d="M9.01128 8.36328H5.04062L5 8.55613C8.09736 9.34819 10.1487 11.2574 10.9915 13.5522L10.1283 9.16559C9.98619 8.556 9.54948 8.38339 9.01128 8.36328Z" fill="#DFDFDF"/>
</svg>
