<svg width="30" height="13" viewBox="0 0 30 13" fill="none" xmlns="http://www.w3.org/2000/svg">
<path d="M5.48157 1.73753C5.12996 2.14286 4.5674 2.46255 4.00483 2.41688C3.93451 1.86883 4.20994 1.28653 4.53224 0.926871C4.88384 0.510125 5.49915 0.213265 5.99725 0.19043C6.05585 0.761315 5.82731 1.32078 5.48157 1.73753ZM5.99139 2.52535C5.17684 2.47968 4.4795 2.97635 4.09274 2.97635C3.70011 2.97635 3.10825 2.54818 2.46364 2.5596C1.62566 2.57102 0.84627 3.03344 0.418486 3.76988C-0.460521 5.24276 0.189944 7.42354 1.03965 8.6224C1.45571 9.21612 1.95382 9.86693 2.61014 9.84409C3.23131 9.82126 3.47743 9.45018 4.22752 9.45018C4.98346 9.45018 5.20028 9.84409 5.85661 9.83267C6.53637 9.82126 6.96416 9.23896 7.38022 8.64524C7.85489 7.97159 8.04827 7.31507 8.05999 7.28082C8.04827 7.2694 6.74734 6.78415 6.73562 5.32268C6.7239 4.10099 7.76112 3.51869 7.808 3.48444C7.222 2.63953 6.30783 2.54818 5.99139 2.52535ZM10.697 0.869783V9.76988H12.1151V6.72706H14.0783C15.8714 6.72706 17.1313 5.5282 17.1313 3.79271C17.1313 2.05722 15.8949 0.869783 14.1251 0.869783H10.697ZM12.1151 2.03439H13.7501C14.9807 2.03439 15.6839 2.67378 15.6839 3.79842C15.6839 4.92307 14.9807 5.56816 13.7442 5.56816H12.1151V2.03439ZM19.7215 9.83838C20.6122 9.83838 21.4385 9.3988 21.8135 8.70232H21.8428V9.76988H23.1555V5.33981C23.1555 4.05532 22.1007 3.22754 20.4774 3.22754C18.9714 3.22754 17.858 4.06674 17.817 5.21993H19.0945C19.1999 4.67188 19.7215 4.31222 20.4364 4.31222C21.3037 4.31222 21.7901 4.70613 21.7901 5.43115V5.92211L20.0203 6.02487C18.3737 6.12192 17.4829 6.77844 17.4829 7.92021C17.4829 9.0734 18.403 9.83838 19.7215 9.83838ZM20.1024 8.78225C19.3464 8.78225 18.8659 8.4283 18.8659 7.88596C18.8659 7.32649 19.3289 7.00109 20.2137 6.94971L21.7901 6.85266V7.35503C21.7901 8.18853 21.0634 8.78225 20.1024 8.78225ZM24.9076 12.1904C26.2906 12.1904 26.9411 11.6766 27.5095 10.1181L30 3.31317H28.5584L26.8883 8.57102H26.859L25.1889 3.31317H23.7063L26.1089 9.79271L25.98 10.1866C25.7632 10.8546 25.4116 11.1115 24.7846 11.1115C24.6732 11.1115 24.4564 11.1 24.3685 11.0886V12.1562C24.4505 12.179 24.8021 12.1904 24.9076 12.1904Z" fill="#9B9B9B"/>
</svg>
