<svg width="30" height="13" viewBox="0 0 30 13" fill="none" xmlns="http://www.w3.org/2000/svg">
<path d="M5.48157 1.97532C5.12996 2.38065 4.5674 2.70034 4.00483 2.65467C3.93451 2.10662 4.20994 1.52432 4.53224 1.16466C4.88384 0.747918 5.49915 0.451058 5.99725 0.428223C6.05585 0.999108 5.82731 1.55857 5.48157 1.97532ZM5.99139 2.76314C5.17684 2.71747 4.4795 3.21414 4.09274 3.21414C3.70011 3.21414 3.10825 2.78598 2.46364 2.79739C1.62566 2.80881 0.84627 3.27123 0.418486 4.00767C-0.460521 5.48055 0.189944 7.66133 1.03965 8.86019C1.45571 9.45391 1.95382 10.1047 2.61014 10.0819C3.23131 10.0591 3.47743 9.68797 4.22752 9.68797C4.98346 9.68797 5.20028 10.0819 5.85661 10.0705C6.53637 10.059 6.96416 9.47675 7.38022 8.88303C7.85489 8.20938 8.04827 7.55287 8.05999 7.51861C8.04827 7.50719 6.74734 7.02194 6.73562 5.56048C6.7239 4.33878 7.76112 3.75648 7.808 3.72223C7.222 2.87732 6.30783 2.78598 5.99139 2.76314ZM10.697 1.10758V10.0077H12.1151V6.96485H14.0783C15.8714 6.96485 17.1313 5.766 17.1313 4.03051C17.1313 2.29502 15.8949 1.10758 14.1251 1.10758H10.697ZM12.1151 2.27218H13.7501C14.9807 2.27218 15.6839 2.91157 15.6839 4.03622C15.6839 5.16086 14.9807 5.80596 13.7442 5.80596H12.1151V2.27218ZM19.7215 10.0762C20.6122 10.0762 21.4385 9.6366 21.8135 8.94012H21.8428V10.0077H23.1555V5.5776C23.1555 4.29311 22.1007 3.46533 20.4774 3.46533C18.9714 3.46533 17.858 4.30453 17.817 5.45772H19.0945C19.1999 4.90967 19.7215 4.55001 20.4364 4.55001C21.3037 4.55001 21.7901 4.94392 21.7901 5.66895V6.15991L20.0203 6.26267C18.3737 6.35972 17.4829 7.01623 17.4829 8.158C17.4829 9.31119 18.403 10.0762 19.7215 10.0762ZM20.1024 9.02004C19.3464 9.02004 18.8659 8.66609 18.8659 8.12375C18.8659 7.56428 19.3289 7.23888 20.2137 7.1875L21.7901 7.09045V7.59283C21.7901 8.42632 21.0634 9.02004 20.1024 9.02004ZM24.9076 12.4282C26.2906 12.4282 26.9411 11.9144 27.5095 10.3559L30 3.55096H28.5584L26.8883 8.80881H26.859L25.1889 3.55096H23.7063L26.1089 10.0305L25.98 10.4244C25.7632 11.0924 25.4116 11.3493 24.7846 11.3493C24.6732 11.3493 24.4564 11.3378 24.3685 11.3264V12.394C24.4505 12.4168 24.8021 12.4282 24.9076 12.4282Z" fill="#9B9B9B"/>
</svg>
