<svg width="44" height="27" viewBox="0 0 44 27" fill="none" xmlns="http://www.w3.org/2000/svg">
<path d="M36.5234 12.3436C38.6981 8.98585 37.8046 8.3761 35.5372 8.3761H33.2613C33.2529 8.3761 33.1349 8.26228 32.3425 9.0265C31.3985 9.48179 29.1479 9.5387 29.1479 9.73382C29.1479 10.0997 35.0736 9.48179 36.5739 9.73382C37.3747 9.85577 36.4475 11.3924 36.2031 12.3354C36.1609 12.7013 36.4054 12.5224 36.5234 12.3436ZM27.0743 14.181C32.469 12.4493 35.2759 12.2379 35.672 12.0509C36.0429 11.8151 35.3012 11.5143 33.4636 11.5793C29.1057 11.7582 21.8651 14.5956 18.9149 15.9615L16.3272 8.3761H32.8988C32.6713 6.08341 20.0107 6.5387 4.41686 6.5387L0 26.498C16.5548 18.5875 21.823 15.9046 27.0743 14.181ZM5.70651 0.498047C27.0575 4.8639 33.5226 5.83951 33.6996 7.42488C36.7678 7.42488 37.5686 7.42488 38.1165 7.96146C39.895 9.56309 36.8858 13.4655 36.8858 13.4655C36.5149 13.7013 2.62989 26.4899 2.62989 26.4899H38.2935L44 0.498047H5.70651Z" fill="#1D1D1F"/>
</svg>
