<svg width="74" height="23" viewBox="0 0 74 23" fill="none" xmlns="http://www.w3.org/2000/svg">
<path d="M73.9997 0V16.421H0V0H73.9997Z" fill="#FFCC00"/>
<path d="M13.0137 2.94922L10.6494 6.17906H23.5347C24.1861 6.17906 24.1775 6.42791 23.8591 6.86156C23.5358 7.30178 22.9947 8.06737 22.6654 8.51454C22.4983 8.74148 22.1962 9.15492 23.1974 9.15492H28.4667C28.4667 9.15492 29.3161 7.99282 30.0278 7.02116C30.9965 5.69959 30.1119 2.94935 26.6494 2.94935L13.0137 2.94922Z" fill="#D2002E"/>
<path d="M9.69274 13.4716L14.4415 6.9835H20.3343C20.9856 6.9835 20.9771 7.23235 20.6588 7.666C20.3355 8.10622 19.7855 8.86367 19.4562 9.31085C19.289 9.53778 18.987 9.95188 19.9881 9.95188H27.8827C27.2262 10.8563 25.0965 13.4715 21.2724 13.4715L9.69274 13.4716ZM36.8889 9.95109L34.3137 13.4714H27.5208C27.5208 13.4714 30.0945 9.95188 30.0967 9.95188L36.8889 9.95109ZM47.2953 9.15492H30.6803L35.2239 2.94922H42.0148L39.4105 6.50758H42.4418L45.0471 2.94922H51.8373L47.2953 9.15492ZM46.7121 9.95201L44.1358 13.4716H37.3453C37.3453 13.4716 39.9191 9.95201 39.9213 9.95201H46.7121ZM0 11.3399H10.0073L9.46066 12.0876H0V11.3399ZM0 9.95201H11.024L10.4763 10.6987H0V9.95201ZM0 12.7285H8.99115L8.44711 13.4716H0V12.7285ZM74 12.0876H64.0312L64.5784 11.34H74V12.0876ZM74 13.4716L63.0178 13.4727L63.5618 12.7285H74V13.4716ZM65.5938 9.95201H74V10.6991L65.0471 10.6997L65.5938 9.95201ZM61.242 2.94922L56.6992 9.15479H49.5033C49.5033 9.15479 54.0473 2.94922 54.0496 2.94922H61.242ZM48.9211 9.95201C48.9211 9.95201 48.4247 10.6341 48.1837 10.962C47.3307 12.1212 48.0848 13.4716 50.8683 13.4716H61.7743L64.3504 9.95201H48.9211Z" fill="#D2002E"/>
<path d="M0 19.0898H74V19.4618H0V19.0898ZM0 20.8256H74V21.1976H0V20.8256ZM0 22.5611H74V22.933H0V22.5611Z" fill="#FFCC00"/>
<path d="M24.8486 22.9325H27.0757L27.4311 22.4481H25.7738L26.7032 21.1817H28.2125L28.568 20.6972H27.0587L27.8829 19.5742H29.5403L29.8959 19.0896H27.6689L24.8486 22.9325ZM27.5818 22.9325H28.2652L30.5947 21.3029L30.5719 22.9325H31.2895L31.2949 20.923L33.9788 19.0896H33.3295L31.1931 20.5651L31.2164 19.0896H30.533L30.5122 20.9341L27.5818 22.9325ZM34.8409 19.5742H35.3251C35.6783 19.5742 36.0729 19.7503 35.7173 20.2348C35.3455 20.7411 34.7761 20.9119 34.4228 20.9119H33.859L34.8409 19.5742ZM31.8067 22.9325H32.3762L33.5034 21.3965H34.0615C34.7792 21.3965 35.6905 21.0937 36.3168 20.2401C36.9593 19.3647 36.4835 19.0893 35.6691 19.0893H34.6269L31.8067 22.9325ZM35.0865 22.9325H35.6561L36.9086 21.2257H37.2502C37.552 21.2257 37.7402 21.2257 37.6421 21.6L37.2737 22.9325H37.9231L38.2946 21.4018C38.343 21.1652 38.3183 21.0826 38.19 21.0164L38.1981 21.0053C38.7162 20.9282 39.3173 20.5979 39.6608 20.1299C40.3355 19.2106 39.6669 19.0893 38.8808 19.0893H37.9069L35.0865 22.9325ZM38.1208 19.5742H38.6675C39.1917 19.5742 39.3033 19.7944 39.0489 20.141C38.7782 20.5101 38.2895 20.7411 37.7483 20.7411H37.2642L38.1208 19.5742ZM38.5128 22.9325H40.7399L41.0952 22.4481H39.438L40.3672 21.1817H41.8766L42.2319 20.6972H40.7228L41.5469 19.5742H43.2044L43.5601 19.0896H41.3331L38.5128 22.9325ZM46.3034 19.1611C46.0987 19.0675 45.8175 19.0234 45.5556 19.0234C44.8379 19.0234 44.0131 19.387 43.512 20.0696C42.6353 21.2644 44.5177 21.0276 43.8873 21.8866C43.556 22.3378 42.971 22.5142 42.6465 22.5142C42.3558 22.5142 42.095 22.404 41.958 22.3268L41.5254 22.8389C41.7268 22.9215 41.9437 22.9986 42.2228 22.9986C43.0201 22.9986 43.9135 22.6734 44.5155 21.8531C45.4447 20.587 43.6107 20.7574 44.1523 20.0199C44.4474 19.618 44.9041 19.5079 45.223 19.5079C45.5193 19.5079 45.6421 19.5576 45.8517 19.6676L46.3034 19.1611ZM49.1512 19.1611C48.9466 19.0675 48.6655 19.0234 48.4034 19.0234C47.6858 19.0234 46.861 19.387 46.3599 20.0696C45.4831 21.2644 47.3656 21.0276 46.7351 21.8866C46.404 22.3378 45.8188 22.5142 45.4943 22.5142C45.2037 22.5142 44.9427 22.404 44.8059 22.3268L44.3732 22.8389C44.5747 22.9215 44.7916 22.9986 45.0705 22.9986C45.8679 22.9986 46.7613 22.6734 47.3632 21.8531C48.2926 20.587 46.4587 20.7574 47.0001 20.0199C47.2951 19.618 47.752 19.5079 48.0708 19.5079C48.3671 19.5079 48.4902 19.5576 48.6996 19.6676L49.1512 19.1611Z" fill="#D2002E"/>
</svg>
