<svg width="29" height="36" viewBox="0 0 29 36" fill="none" xmlns="http://www.w3.org/2000/svg">
<path d="M14.5 34.8031C14.7944 34.6559 22.4493 31.3437 24.8782 29.3564C27.3807 27.2955 28.7056 24.3513 28.7056 20.8183V4.25739L28.4848 4.18378C22.3757 0.8716 14.7944 1.09241 14.4264 1.09241C14.132 1.09241 6.55078 0.8716 0.441642 4.18378L0.294434 4.25739V20.8919C0.294434 24.4249 1.61931 27.3691 4.12184 29.43C6.55078 31.4173 14.2056 34.7295 14.5 34.8031Z" fill="#341B14"/>
<path d="M14.5 35.1709C14.5 35.1709 6.40355 31.6379 3.90102 29.6506C1.25127 27.4425 0 24.4247 0 20.9654V3.742C6.40355 0.282614 14.5 0.57703 14.5 0.57703C14.5 0.57703 22.5964 0.282614 29 3.742V20.8918C29 24.3511 27.7487 27.3689 25.099 29.577C22.5964 31.6379 14.5 35.1709 14.5 35.1709ZM1.17766 20.9654C1.17766 24.2039 2.35533 26.8537 4.63706 28.6938C6.69797 30.3867 12.8071 33.11 14.5 33.8461C16.1929 33.11 22.3756 30.3131 24.3629 28.6938C26.6447 26.8537 27.8223 24.1303 27.8223 20.9654V4.03642C19.2843 3.22678 9.1269 3.6684 1.17766 11.0288V20.9654Z" fill="#FFB406"/>
<path d="M22.6701 18.5362C23.7741 19.1987 24.2158 19.6403 24.2894 20.4499C24.2894 21.3332 23.7005 21.8484 22.7437 21.8484C21.934 21.8484 20.9772 21.4068 20.3147 20.818V23.1733C21.1244 23.6149 22.0812 23.9829 23.1117 23.9829C25.6142 23.9829 26.7919 22.2164 26.7919 20.5971C26.8655 19.1251 26.4239 17.9474 24.2894 16.6961C23.3325 16.1073 22.5965 15.7393 22.5965 14.856C22.5965 13.9728 23.4061 13.6048 24.0685 13.6048C24.9518 13.6048 25.835 14.12 26.3503 14.6352V12.4271C25.9086 12.0591 24.9518 11.5438 23.5533 11.6174C21.8604 11.691 20.0939 12.8687 20.0939 14.9296C20.1675 16.3281 20.6092 17.3586 22.6701 18.5362ZM13.9848 23.8357C14.2056 23.9093 14.5736 23.9829 15.1625 23.9829C18.033 23.9829 19.6523 21.4068 19.6523 17.7266C19.6523 13.9728 17.9594 11.691 14.9416 11.691C13.5432 11.691 12.4391 11.9855 11.4823 12.5743V29.2088H13.9848V23.8357ZM13.9848 13.8256C14.2056 13.752 14.5736 13.6048 14.868 13.6048C16.3401 13.6048 16.929 14.7824 16.929 17.653C16.929 20.4499 16.1929 21.7748 14.7208 21.7748C14.3528 21.7748 14.0584 21.7012 13.9112 21.6276V13.8256H13.9848ZM6.25637 23.9829C7.80205 23.9829 9.12692 23.6149 10.0838 22.9525V11.8383H7.50763V21.4804C7.21322 21.7012 6.8452 21.7748 6.32997 21.7748C5.1523 21.7748 5.0051 20.6707 5.0051 20.0083V11.8383H2.42896V19.8611C2.42896 22.5844 3.75383 23.9829 6.25637 23.9829Z" fill="#FFB406"/>
</svg>
