<svg width="20" height="21" viewBox="0 0 20 21" fill="none" xmlns="http://www.w3.org/2000/svg">
<path d="M7.51716 7.79167L8.02456 9.68409C8.5024 11.4668 8.74083 12.3587 9.44331 12.764C10.1458 13.1703 11.0374 12.9305 12.8207 12.4531L14.7124 11.9452C16.4957 11.4678 17.3873 11.2291 17.7932 10.5272C18.1992 9.82427 17.9607 8.9324 17.4819 7.14969L16.9755 5.25829C16.4976 3.47457 16.2582 2.5827 15.5567 2.1774C14.8533 1.77109 13.9616 2.01081 12.1783 2.48925L10.2867 2.99511C8.50339 3.47253 7.61174 3.71226 7.20681 4.41519C6.80089 5.1171 7.03932 6.00896 7.51716 7.79167Z" fill="#F3D869"/>
<path d="M0.0279221 4.51004C0.0549803 4.41682 0.100999 4.32962 0.163347 4.25341C0.225695 4.1772 0.303149 4.11349 0.391281 4.06591C0.479414 4.01832 0.576496 3.98781 0.676976 3.97611C0.777457 3.96441 0.879365 3.97175 0.976875 3.99771L2.72587 4.46097C3.18939 4.58127 3.6124 4.8143 3.95365 5.13733C4.29491 5.46035 4.54277 5.86236 4.67307 6.30418L6.88216 13.9459L7.04443 14.4818C7.69452 14.7144 8.25321 15.1492 8.60753 15.7263L8.9259 15.6321L18.0354 13.3698C18.1334 13.3455 18.2353 13.3398 18.3355 13.3531C18.4358 13.3664 18.5323 13.3984 18.6195 13.4473C18.7068 13.4963 18.7831 13.5612 18.8441 13.6383C18.9051 13.7154 18.9497 13.8033 18.9752 13.8969C19.0006 13.9904 19.0066 14.0879 18.9927 14.1837C18.9788 14.2794 18.9452 14.3717 18.894 14.455C18.8428 14.5384 18.7749 14.6114 18.6942 14.6697C18.6135 14.728 18.5216 14.7706 18.4236 14.7949L9.34697 17.0484L9.01011 17.1485C9.00292 18.395 8.10224 19.5345 6.74043 19.8731C5.10646 20.2794 3.42731 19.3804 2.98981 17.8669C2.5523 16.3525 3.5218 14.7959 5.15473 14.3905C5.2352 14.3707 5.31638 14.3537 5.39813 14.3395L3.18802 6.69578C3.12852 6.4994 3.01686 6.32108 2.86389 6.17816C2.71092 6.03524 2.52185 5.93258 2.31506 5.88018L0.565046 5.41594C0.467525 5.39018 0.376271 5.34631 0.296495 5.28684C0.216719 5.22737 0.149985 5.15346 0.100106 5.06933C0.0502264 4.98521 0.0181784 4.89251 0.00579292 4.79655C-0.00659254 4.70058 0.000927079 4.60323 0.0279221 4.51004Z" fill="#F3D869"/>
</svg>
