<svg width="30" height="31" viewBox="0 0 30 31" fill="none" xmlns="http://www.w3.org/2000/svg">
<path fill-rule="evenodd" clip-rule="evenodd" d="M14.142 3.72447C14.6952 3.51958 15.3048 3.51958 15.858 3.72447L24.4136 6.89449C24.8796 7.0671 25.2812 7.37616 25.5647 7.78035C25.8482 8.18454 26.0001 8.66461 26 9.15637V15.6329C26 17.6513 25.4312 19.6299 24.3573 21.3469C23.2833 23.064 21.7466 24.4516 19.9194 25.3543L15.8201 27.3795C15.5655 27.5053 15.2847 27.5708 15 27.5708C14.7153 27.5708 14.4345 27.5053 14.1799 27.3795L10.0806 25.3543C8.25338 24.4516 6.71672 23.064 5.64275 21.3469C4.56879 19.6299 3.99996 17.6513 4 15.6329V9.15637C3.99994 8.66461 4.1518 8.18454 4.4353 7.78035C4.71879 7.37616 5.1204 7.0671 5.58644 6.89449L14.142 3.72447ZM15 5.98635L6.44444 9.15637V15.6329C6.44473 17.2026 6.88737 18.7413 7.72278 20.0765C8.5582 21.4117 9.75339 22.4907 11.1744 23.1926L15 25.085V5.98635Z" fill="#F3D869"/>
</svg>
