<svg width="71" height="23" viewBox="0 0 71 23" fill="none" xmlns="http://www.w3.org/2000/svg">
<path d="M70.9997 0.897949V16.5664H0V0.897949H70.9997Z" fill="#FFCC00"/>
<path d="M12.4861 3.71143L10.2177 6.79324H22.5806C23.2055 6.79324 23.1973 7.03068 22.8918 7.44446C22.5816 7.86451 22.0625 8.59501 21.7465 9.02169C21.5862 9.23822 21.2963 9.63272 22.257 9.63272H27.3126C27.3126 9.63272 28.1275 8.52388 28.8105 7.59675C29.7398 6.33575 28.8911 3.71155 25.569 3.71155L12.4861 3.71143Z" fill="#D2002E"/>
<path d="M9.29979 13.7516L13.856 7.56081H19.5099C20.1348 7.56081 20.1267 7.79826 19.8212 8.21204C19.511 8.63208 18.9834 9.35482 18.6674 9.7815C18.507 9.99803 18.2172 10.3931 19.1778 10.3931H26.7523C26.1224 11.2562 24.079 13.7515 20.41 13.7515L9.29979 13.7516ZM35.3934 10.3924L32.9226 13.7514H26.405C26.405 13.7514 28.8744 10.3931 28.8766 10.3931L35.3934 10.3924ZM45.3779 9.63272H29.4365L33.7958 3.71143H40.3115L37.8128 7.1067H40.7212L43.2209 3.71143H49.7358L45.3779 9.63272ZM44.8184 10.3933L42.3465 13.7516H35.8313C35.8313 13.7516 38.3007 10.3933 38.3028 10.3933H44.8184ZM0 11.7175H9.6016L9.07712 12.431H0V11.7175ZM0 10.3933H10.5771L10.0516 11.1057H0V10.3933ZM0 13.0425H8.62664L8.10466 13.7516H0V13.0425ZM71 12.431H61.4353L61.9603 11.7176H71V12.431ZM71 13.7516L60.463 13.7526L60.985 13.0425H71V13.7516ZM62.9345 10.3933H71V11.1061L62.4101 11.1067L62.9345 10.3933ZM58.7592 3.71143L54.4006 9.63259H47.4964C47.4964 9.63259 51.8562 3.71143 51.8584 3.71143H58.7592ZM46.9378 10.3933C46.9378 10.3933 46.4615 11.0441 46.2303 11.357C45.4119 12.4631 46.1354 13.7516 48.806 13.7516H59.2699L61.7415 10.3933H46.9378Z" fill="#D2002E"/>
<path d="M0 19.1138H71V19.4687H0V19.1138ZM0 20.77H71V21.1249H0V20.77ZM0 22.4259H71V22.7808H0V22.4259Z" fill="#FFCC00"/>
<path d="M23.8413 22.7807H25.9781L26.3191 22.3184H24.729L25.6207 21.1102H27.0688L27.4099 20.6478H25.9618L26.7525 19.5763H28.3428L28.6839 19.1139H26.5473L23.8413 22.7807ZM26.4636 22.7807H27.1194L29.3545 21.2258L29.3325 22.7807H30.0211L30.0262 20.8633L32.6013 19.1139H31.9784L29.9285 20.5218L29.951 19.1139H29.2952L29.2753 20.8738L26.4636 22.7807ZM33.4285 19.5763H33.893C34.2319 19.5763 34.6105 19.7443 34.2693 20.2066C33.9127 20.6897 33.3663 20.8527 33.0274 20.8527H32.4864L33.4285 19.5763ZM30.5173 22.7807H31.0637L32.1452 21.3151H32.6807C33.3693 21.3151 34.2437 21.0261 34.8446 20.2117C35.461 19.3764 35.0045 19.1136 34.2231 19.1136H33.2231L30.5173 22.7807ZM33.6641 22.7807H34.2106L35.4124 21.1521H35.7401C36.0297 21.1521 36.2103 21.1521 36.1161 21.5093L35.7627 22.7807H36.3857L36.7421 21.3202C36.7886 21.0944 36.7649 21.0156 36.6418 20.9524L36.6496 20.9418C37.1466 20.8682 37.7234 20.5531 38.053 20.1065C38.7003 19.2294 38.0589 19.1136 37.3046 19.1136H36.3702L33.6641 22.7807ZM36.5754 19.5763H37.0999C37.6029 19.5763 37.71 19.7864 37.4659 20.1172C37.2061 20.4693 36.7372 20.6897 36.218 20.6897H35.7535L36.5754 19.5763ZM36.9515 22.7807H39.0883L39.4292 22.3184H37.8392L38.7308 21.1102H40.179L40.5199 20.6478H39.0719L39.8626 19.5763H41.4529L41.7942 19.1139H39.6575L36.9515 22.7807ZM44.4262 19.1822C44.2299 19.0929 43.9601 19.0508 43.7088 19.0508C43.0202 19.0508 42.2289 19.3977 41.7481 20.049C40.9069 21.1891 42.713 20.9631 42.1081 21.7827C41.7903 22.2132 41.229 22.3816 40.9176 22.3816C40.6387 22.3816 40.3885 22.2764 40.257 22.2027L39.842 22.6914C40.0352 22.7702 40.2434 22.8438 40.5111 22.8438C41.2761 22.8438 42.1333 22.5335 42.7109 21.7507C43.6024 20.5427 41.8428 20.7053 42.3624 20.0016C42.6455 19.6181 43.0837 19.513 43.3897 19.513C43.674 19.513 43.7918 19.5605 43.9929 19.6654L44.4262 19.1822ZM47.1587 19.1822C46.9623 19.0929 46.6926 19.0508 46.4412 19.0508C45.7526 19.0508 44.9613 19.3977 44.4805 20.049C43.6393 21.1891 45.4454 20.9631 44.8405 21.7827C44.5228 22.2132 43.9614 22.3816 43.65 22.3816C43.3711 22.3816 43.1208 22.2764 42.9895 22.2027L42.5744 22.6914C42.7676 22.7702 42.9758 22.8438 43.2434 22.8438C44.0085 22.8438 44.8656 22.5335 45.4432 21.7507C46.3348 20.5427 44.5753 20.7053 45.0948 20.0016C45.3778 19.6181 45.8161 19.513 46.1221 19.513C46.4064 19.513 46.5245 19.5605 46.7253 19.6654L47.1587 19.1822Z" fill="#D2002E"/>
</svg>
