<svg width="30" height="31" viewBox="0 0 30 31" fill="none" xmlns="http://www.w3.org/2000/svg">
<path d="M14.5 9.9707C15.3284 9.9707 16 9.29913 16 8.4707C16 7.64228 15.3284 6.9707 14.5 6.9707C13.6716 6.9707 13 7.64228 13 8.4707C13 9.29913 13.6716 9.9707 14.5 9.9707Z" fill="#F3D869"/>
<path d="M18.75 20.7707H16.25V11.9707H12.5C12.1685 11.9707 11.8505 12.0866 11.6161 12.2929C11.3817 12.4992 11.25 12.779 11.25 13.0707C11.25 13.3624 11.3817 13.6422 11.6161 13.8485C11.8505 14.0548 12.1685 14.1707 12.5 14.1707H13.75V20.7707H11.25C10.9185 20.7707 10.6005 20.8866 10.3661 21.0929C10.1317 21.2992 10 21.579 10 21.8707C10 22.1624 10.1317 22.4422 10.3661 22.6485C10.6005 22.8548 10.9185 22.9707 11.25 22.9707H18.75C19.0815 22.9707 19.3995 22.8548 19.6339 22.6485C19.8683 22.4422 20 22.1624 20 21.8707C20 21.579 19.8683 21.2992 19.6339 21.0929C19.3995 20.8866 19.0815 20.7707 18.75 20.7707Z" fill="#F3D869"/>
</svg>
