<svg width="20" height="21" viewBox="0 0 20 21" fill="none" xmlns="http://www.w3.org/2000/svg">
<path fill-rule="evenodd" clip-rule="evenodd" d="M1 2.82063C1 2.59522 1.0862 2.37903 1.23964 2.21964C1.39308 2.06025 1.60119 1.9707 1.81818 1.9707H10.8182C11.0352 1.9707 11.2433 2.06025 11.3967 2.21964C11.5502 2.37903 11.6364 2.59522 11.6364 2.82063V7.07028H14.9091C15.4463 7.07028 15.9783 7.1802 16.4746 7.39376C16.9709 7.60732 17.4219 7.92035 17.8018 8.31497C18.1817 8.70958 18.483 9.17806 18.6886 9.69365C18.8942 10.2092 19 10.7618 19 11.3199V14.7196C19.0001 15.2668 18.8308 15.7994 18.5171 16.239C18.2035 16.6785 17.7621 17.0016 17.2581 17.1606C17.108 17.6748 16.8054 18.1267 16.3935 18.4516C15.9816 18.7765 15.4813 18.958 14.9642 18.9701C14.4471 18.9821 13.9395 18.8242 13.514 18.5188C13.0884 18.2134 12.7666 17.7761 12.5945 17.2694H7.40636C7.23424 17.7761 6.91242 18.2134 6.48685 18.5188C6.06129 18.8242 5.55372 18.9821 5.03661 18.9701C4.51949 18.958 4.01926 18.7765 3.60732 18.4516C3.19538 18.1267 2.89278 17.6748 2.74273 17.1606C2.2386 17.0018 1.79701 16.6787 1.48319 16.2392C1.16937 15.7996 0.999969 15.2669 1 14.7196V11.3199H5.90909C6.12609 11.3199 6.33419 11.2304 6.48763 11.071C6.64107 10.9116 6.72727 10.6954 6.72727 10.47C6.72727 10.2446 6.64107 10.0284 6.48763 9.869C6.33419 9.70961 6.12609 9.62006 5.90909 9.62006H1V7.9202H4.27273C4.48972 7.9202 4.69783 7.83066 4.85127 7.67127C5.00471 7.51187 5.09091 7.29569 5.09091 7.07028C5.09091 6.84486 5.00471 6.62868 4.85127 6.46929C4.69783 6.30989 4.48972 6.22035 4.27273 6.22035H1V2.82063ZM11.6364 15.5696H12.5945C12.7562 15.094 13.0501 14.6789 13.439 14.3769C13.8278 14.0748 14.2942 13.8994 14.7791 13.8727C15.2639 13.8461 15.7455 13.9694 16.1629 14.2271C16.5803 14.4848 16.9147 14.8653 17.1239 15.3205C17.2 15.2417 17.2603 15.1481 17.3015 15.0449C17.3426 14.9418 17.3637 14.8313 17.3636 14.7196V11.3199C17.3636 10.6437 17.105 9.99513 16.6447 9.51695C16.1844 9.03877 15.5601 8.77013 14.9091 8.77013H11.6364V15.5696ZM5.90909 16.4195C5.90909 16.1941 5.82289 15.9779 5.66945 15.8185C5.51601 15.6591 5.3079 15.5696 5.09091 15.5696C4.87391 15.5696 4.66581 15.6591 4.51237 15.8185C4.35893 15.9779 4.27273 16.1941 4.27273 16.4195C4.27273 16.6449 4.35893 16.8611 4.51237 17.0205C4.66581 17.1799 4.87391 17.2694 5.09091 17.2694C5.3079 17.2694 5.51601 17.1799 5.66945 17.0205C5.82289 16.8611 5.90909 16.6449 5.90909 16.4195ZM14.3306 15.8186C14.2544 15.8973 14.194 15.991 14.1529 16.0941C14.1117 16.1973 14.0907 16.3078 14.0909 16.4195C14.0909 16.6161 14.1565 16.8067 14.2765 16.9587C14.3966 17.1108 14.5637 17.2148 14.7493 17.2532C14.935 17.2916 15.1277 17.262 15.2946 17.1693C15.4616 17.0767 15.5925 16.9267 15.6649 16.7451C15.7374 16.5634 15.747 16.3613 15.6921 16.1731C15.6372 15.9849 15.5211 15.8223 15.3638 15.7131C15.2064 15.6038 15.0174 15.5546 14.829 15.5738C14.6406 15.5931 14.4645 15.6796 14.3306 15.8186Z" fill="#F3D869"/>
</svg>
