<svg width="30" height="31" viewBox="0 0 30 31" fill="none" xmlns="http://www.w3.org/2000/svg">
<path d="M14.5 9.9707C15.3284 9.9707 16 9.29913 16 8.4707C16 7.64228 15.3284 6.9707 14.5 6.9707C13.6716 6.9707 13 7.64228 13 8.4707C13 9.29913 13.6716 9.9707 14.5 9.9707Z" fill="#F0D161"/>
<path d="M18.75 20.7707H16.25V11.9707H12.5C12.1685 11.9707 11.8505 12.0866 11.6161 12.2929C11.3817 12.4992 11.25 12.779 11.25 13.0707C11.25 13.3624 11.3817 13.6422 11.6161 13.8485C11.8505 14.0548 12.1685 14.1707 12.5 14.1707H13.75V20.7707H11.25C10.9185 20.7707 10.6005 20.8866 10.3661 21.0929C10.1317 21.2992 10 21.579 10 21.8707C10 22.1624 10.1317 22.4422 10.3661 22.6485C10.6005 22.8548 10.9185 22.9707 11.25 22.9707H18.75C19.0815 22.9707 19.3995 22.8548 19.6339 22.6485C19.8683 22.4422 20 22.1624 20 21.8707C20 21.579 19.8683 21.2992 19.6339 21.0929C19.3995 20.8866 19.0815 20.7707 18.75 20.7707Z" fill="#F0D161"/>
<path d="M15 2.9707C12.4288 2.9707 9.91543 3.73314 7.77759 5.1616C5.63975 6.59006 3.97351 8.62038 2.98957 10.9958C2.00563 13.3713 1.74819 15.9851 2.2498 18.5069C2.7514 21.0286 3.98954 23.345 5.80762 25.1631C7.6257 26.9812 9.94208 28.2193 12.4638 28.7209C14.9856 29.2225 17.5994 28.9651 19.9749 27.9811C22.3503 26.9972 24.3806 25.331 25.8091 23.1931C27.2376 21.0553 28 18.5419 28 15.9707C28 12.5229 26.6304 9.21629 24.1924 6.77831C21.7544 4.34034 18.4478 2.9707 15 2.9707ZM15 26.804C12.8574 26.804 10.7629 26.1687 8.98133 24.9783C7.1998 23.7879 5.81126 22.096 4.99131 20.1164C4.17136 18.1369 3.95683 15.9587 4.37483 13.8572C4.79284 11.7558 5.82461 9.82545 7.33968 8.31038C8.85475 6.79531 10.7851 5.76354 12.8865 5.34553C14.988 4.92752 17.1662 5.14206 19.1457 5.96201C21.1253 6.78196 22.8172 8.17049 24.0076 9.95202C25.198 11.7336 25.8333 13.8281 25.8333 15.9707C25.8333 17.3934 25.5531 18.8021 25.0087 20.1164C24.4643 21.4308 23.6663 22.6251 22.6603 23.631C21.6544 24.637 20.4601 25.435 19.1457 25.9794C17.8314 26.5238 16.4227 26.804 15 26.804Z" fill="#F0D161"/>
</svg>
