<svg width="72" height="13" viewBox="0 0 72 13" fill="none" xmlns="http://www.w3.org/2000/svg">
<path d="M8.62549 2.46189C8.13385 1.95083 7.59866 1.56521 7.01994 1.31061C6.4331 1.05159 5.80031 0.919672 5.16132 0.923129C3.72722 0.923129 2.50991 1.4853 1.50576 2.60499C0.502526 3.72468 0.00181417 5.16216 0 6.91556C0 8.60671 0.517039 10.0237 1.55293 11.1602C2.58883 12.3003 3.81702 12.8699 5.2357 12.8699C5.84031 12.8765 6.44003 12.7583 6.99908 12.5224C7.54243 12.2891 8.08305 11.9091 8.62186 11.3776V12.5809H11.3948V1.2214H8.62639L8.62549 2.46189ZM7.89075 9.32313C7.3211 9.94848 6.60268 10.257 5.73732 10.2588C4.89827 10.2588 4.19165 9.94105 3.61928 9.30455C3.046 8.6699 2.75845 7.85963 2.75845 6.87747C2.75845 5.89809 3.04237 5.09897 3.60476 4.47362C4.16897 3.84919 4.8765 3.53977 5.72916 3.53977C6.60268 3.53977 7.32472 3.8464 7.89437 4.45968C8.46493 5.07481 8.64907 5.7745 8.64726 6.7641C8.64726 7.77693 8.46312 8.69963 7.89075 9.32313ZM27.2997 2.46189C26.8426 1.97536 26.2976 1.58436 25.695 1.31061C25.1072 1.05173 24.4736 0.919822 23.8337 0.923129C22.4032 0.923129 21.1823 1.4853 20.18 2.60499C19.1767 3.72561 18.676 5.16309 18.6742 6.91649C18.6724 8.60764 19.1894 10.0247 20.2271 11.1611C21.263 12.3012 22.4912 12.8708 23.9126 12.8708C24.5161 12.8775 25.1146 12.7593 25.6724 12.5233C26.2148 12.2901 26.7554 11.91 27.2942 11.3785V12.5818H30.0672V1.2214H27.2997V2.46189ZM26.5649 9.32313C25.9953 9.94848 25.2751 10.257 24.4133 10.2588C23.5725 10.2588 22.8658 9.94105 22.2917 9.30455C21.7184 8.6699 21.4308 7.85963 21.4326 6.87747C21.4345 5.89809 21.7138 5.09897 22.279 4.47362C22.8432 3.84919 23.5507 3.53977 24.4034 3.53977C25.2751 3.53977 25.9971 3.8464 26.5686 4.45968C27.1391 5.07481 27.3214 5.7745 27.3196 6.7641C27.3196 7.77693 27.1373 8.69963 26.5649 9.32313ZM46.7558 1.49831C46.1598 1.12198 45.4713 0.93428 44.6858 0.93428C43.9547 0.926358 43.2335 1.10723 42.5886 1.46021C41.9491 1.81052 41.4094 2.32158 40.9677 2.99711C40.632 2.32158 40.1858 1.80866 39.6324 1.45835C39.0706 1.10524 38.4229 0.921658 37.7638 0.928704C37.0799 0.928704 36.4495 1.06158 35.8698 1.32919C35.2911 1.59494 34.765 1.99822 34.2915 2.53901V1.2214H31.5158L31.5131 12.5818H34.2861L34.2879 7.54185C34.2897 6.45189 34.3831 5.65278 34.5691 5.14543C34.7577 4.63901 35.0389 4.24596 35.4154 3.96255C35.7936 3.68379 36.2118 3.54162 36.6744 3.54162C37.0871 3.54255 37.4418 3.65406 37.7339 3.87614C38.026 4.09915 38.2437 4.43831 38.3897 4.89269C38.5358 5.348 38.6092 6.08207 38.6092 7.09769L38.6038 12.5818H41.3804V7.47216C41.384 6.3887 41.4756 5.6026 41.658 5.11384C41.843 4.62322 42.1242 4.24224 42.5006 3.96255C42.8729 3.68672 43.322 3.54108 43.7814 3.5472C44.4064 3.5472 44.8718 3.77578 45.1865 4.22831C45.5004 4.68547 45.6555 5.55521 45.6555 6.83751L45.6519 12.5818H48.4257L48.4294 5.92875C48.4294 4.56375 48.2996 3.57786 48.0393 2.97295C47.7808 2.36618 47.3526 1.87463 46.7558 1.49831ZM58.1107 9.233C57.3687 9.98937 56.4807 10.3676 55.4484 10.3676C54.583 10.3666 53.8755 10.1222 53.3167 9.63906C52.7589 9.15587 52.4178 8.50543 52.2881 7.68587L61.1857 7.69145L61.1966 7.15065C61.1966 5.27831 60.6542 3.77393 59.5647 2.63008C58.4781 1.49087 57.0648 0.920342 55.3241 0.917554C53.6877 0.917554 52.3244 1.48901 51.2413 2.63658C50.1537 3.7795 49.6113 5.21884 49.6113 6.9518C49.6095 8.64574 50.1537 10.0516 51.2395 11.176C52.3244 12.3031 53.7349 12.8643 55.4629 12.8643C56.5786 12.8643 57.5392 12.6618 58.352 12.2538C59.1611 11.8478 59.8577 11.2168 60.4383 10.3676L58.1107 9.233ZM53.4338 4.01087C54.0161 3.57136 54.6946 3.353 55.4656 3.35485C56.1795 3.35485 56.8045 3.54999 57.3397 3.94025C57.8803 4.33331 58.2404 4.84158 58.4227 5.46601L52.4178 5.46229C52.728 4.77003 53.0682 4.28499 53.4338 4.0118M67.7684 6.5699L71.5174 1.21955H68.3553L66.1847 4.31658L64.0068 1.21955H60.7948L64.5818 6.60149L60.3947 12.5818H63.5568L66.1647 8.8576L68.7862 12.5818H72L67.7684 6.5699ZM18.071 0.871094C17.5576 0.871094 17.1095 0.970519 16.7357 1.16286C16.3666 1.35242 15.943 1.69808 15.4658 2.20543V1.22047H12.8171V12.5818H15.591L15.5892 6.67304C15.5892 4.508 16.1734 3.42176 17.5875 3.42176C17.8324 3.42176 18.0828 3.47658 18.3349 3.57322C18.7903 2.79269 19.3164 2.05955 19.9042 1.38401C19.2711 1.05043 18.6597 0.871094 18.071 0.871094Z" fill="#E12626"/>
</svg>
