<svg width="32" height="9" viewBox="0 0 32 9" fill="none" xmlns="http://www.w3.org/2000/svg">
<path d="M3.56395 0.132324L0.00891113 7.9995H4.26479L4.79239 6.74515H5.99838L6.52599 7.9995H11.2105V7.04214L11.6279 7.9995H14.0511L14.4686 7.0219V7.9995H24.2111L25.3957 6.77772L26.505 7.9995L31.509 8.00962L27.9427 4.08788L31.509 0.132324H26.5826L25.4294 1.33153L24.3551 0.132324H13.7565L12.8464 2.16291L11.9149 0.132324H7.66794V1.05711L7.19549 0.132324H3.56395ZM4.38744 1.24947H6.46195L8.82 6.58425V1.24947H11.0926L12.9139 5.07448L14.5924 1.24947H16.8536V6.89469H15.4777L15.4665 2.47113L13.4606 6.89469H12.2298L10.2127 2.47113V6.89469H7.38217L6.84556 5.62911H3.94645L3.41095 6.89358H1.89439L4.38744 1.24947ZM18.1124 1.24947H23.7071L25.4182 3.09782L27.1845 1.24947H28.8956L26.2957 4.08677L28.8956 6.89136H27.1069L25.3957 5.02155L23.6204 6.89136H18.1124V1.24947ZM5.39662 2.20462L4.44148 4.45915H6.35065L5.39662 2.20462ZM19.494 2.41832V3.44885H22.5461V4.59747H19.494V5.72251H22.9174L24.5081 4.06542L22.9849 2.41734H19.494V2.41832Z" fill="#F3D869"/>
</svg>
