<svg width="42" height="28" viewBox="0 0 42 28" fill="none" xmlns="http://www.w3.org/2000/svg">
<rect x="0.5" y="1.0708" width="41" height="26" rx="6.5" fill="white" stroke="#F3D869"/>
<path d="M18.2018 18.2882H15.7339L17.2775 8.74365H19.7453L18.2018 18.2882Z" fill="#F3D869"/>
<path d="M27.1482 8.97715C26.6614 8.78403 25.8894 8.5708 24.9347 8.5708C22.4975 8.5708 20.7813 9.87042 20.7708 11.7285C20.7505 13.0994 21.9995 13.8608 22.9337 14.3179C23.8885 14.785 24.2131 15.0898 24.2131 15.5062C24.2034 16.1456 23.4415 16.4403 22.731 16.4403C21.7457 16.4403 21.2178 16.2884 20.4154 15.9326L20.0905 15.7801L19.7451 17.9227C20.3239 18.1864 21.3904 18.4204 22.4975 18.4306C25.0871 18.4306 26.7729 17.1511 26.7929 15.1711C26.8027 14.0845 26.1432 13.252 24.7213 12.5717C23.8581 12.135 23.3295 11.8405 23.3295 11.3937C23.3397 10.9874 23.7766 10.5714 24.751 10.5714C25.5533 10.551 26.1428 10.7439 26.5894 10.9368L26.8126 11.0382L27.1482 8.97715Z" fill="#F3D869"/>
<path d="M30.4283 14.9069C30.6316 14.3586 31.4136 12.2364 31.4136 12.2364C31.4034 12.2568 31.6165 11.678 31.7383 11.3226L31.9108 12.1451C31.9108 12.1451 32.3782 14.4297 32.4797 14.9069C32.094 14.9069 30.9158 14.9069 30.4283 14.9069ZM33.4747 8.74365H31.5657C30.9771 8.74365 30.5298 8.91613 30.2758 9.53557L26.61 18.2881H29.1996C29.1996 18.2881 29.6259 17.1101 29.7175 16.8564C30.0016 16.8564 32.5207 16.8564 32.8861 16.8564C32.957 17.1915 33.1806 18.2881 33.1806 18.2881H35.4657L33.4747 8.74365Z" fill="#F3D869"/>
<path d="M13.6724 8.74365L11.2555 15.2521L10.9914 13.9321C10.5445 12.409 9.14315 10.7542 7.57928 9.93139L9.79309 18.2781H12.4029L16.282 8.74365H13.6724Z" fill="#F3D869"/>
<path d="M9.01128 8.74365H5.04062L5 8.9365C8.09736 9.72856 10.1487 11.6378 10.9915 13.9325L10.1283 9.54596C9.98619 8.93637 9.54948 8.76376 9.01128 8.74365Z" fill="#F3D869"/>
</svg>
