<svg width="21" height="21" viewBox="0 0 21 21" fill="none" xmlns="http://www.w3.org/2000/svg">
<path d="M5.67188 10.5703H16.7422M16.7422 10.5703L11.4284 5.25656M16.7422 10.5703L11.4284 15.8841" stroke="#1F0B0D" stroke-width="1.5" stroke-linecap="round" stroke-linejoin="round"/>
<path d="M5.67188 10.5703H16.7422M16.7422 10.5703L11.4284 5.25656M16.7422 10.5703L11.4284 15.8841" stroke="black" stroke-opacity="0.2" stroke-width="1.5" stroke-linecap="round" stroke-linejoin="round"/>
<path d="M5.67188 10.5703H16.7422M16.7422 10.5703L11.4284 5.25656M16.7422 10.5703L11.4284 15.8841" stroke="black" stroke-opacity="0.2" stroke-width="1.5" stroke-linecap="round" stroke-linejoin="round"/>
<path d="M5.67188 10.5703H16.7422M16.7422 10.5703L11.4284 5.25656M16.7422 10.5703L11.4284 15.8841" stroke="black" stroke-opacity="0.2" stroke-width="1.5" stroke-linecap="round" stroke-linejoin="round"/>
<path d="M5.67188 10.5703H16.7422M16.7422 10.5703L11.4284 5.25656M16.7422 10.5703L11.4284 15.8841" stroke="black" stroke-opacity="0.2" stroke-width="1.5" stroke-linecap="round" stroke-linejoin="round"/>
<path d="M5.67188 10.5703H16.7422M16.7422 10.5703L11.4284 5.25656M16.7422 10.5703L11.4284 15.8841" stroke="black" stroke-opacity="0.2" stroke-width="1.5" stroke-linecap="round" stroke-linejoin="round"/>
<path d="M5.67188 10.5703H16.7422M16.7422 10.5703L11.4284 5.25656M16.7422 10.5703L11.4284 15.8841" stroke="black" stroke-opacity="0.2" stroke-width="1.5" stroke-linecap="round" stroke-linejoin="round"/>
</svg>
