<svg width="43" height="28" viewBox="0 0 43 28" fill="none" xmlns="http://www.w3.org/2000/svg">
<rect x="1.30078" y="1.28906" width="41" height="26" rx="6.5" fill="white" stroke="#BABABA"/>
<path d="M17.7341 17.6377V8.90234H21.0105C21.6825 8.90234 22.2457 9.02732 22.7022 9.27726C23.1586 9.5272 23.5045 9.87133 23.7382 10.3078C23.9718 10.7443 24.0895 11.2406 24.0895 11.7948C24.0895 12.349 23.9718 12.8525 23.7364 13.2872C23.5009 13.7219 23.1513 14.0642 22.6913 14.3123C22.2313 14.5605 21.6625 14.6855 20.9888 14.6855H18.8172V13.385H20.7751C21.1681 13.385 21.4887 13.3162 21.7386 13.1804C21.9886 13.0445 22.1751 12.8562 22.2946 12.6171C22.416 12.378 22.4758 12.1045 22.4758 11.793C22.4758 11.4815 22.416 11.2098 22.2946 10.9743C22.1733 10.7389 21.9867 10.5541 21.735 10.4219C21.4832 10.2897 21.159 10.2245 20.7642 10.2245H19.3134V17.6395H17.7305L17.7341 17.6377Z" fill="#BABABA"/>
<path d="M27.1681 17.7705C26.7533 17.7705 26.3802 17.6962 26.0488 17.5459C25.7173 17.3974 25.4565 17.1764 25.2645 16.883C25.0726 16.5896 24.9766 16.2292 24.9766 15.7999C24.9766 15.4304 25.0454 15.1243 25.1812 14.8835C25.3171 14.6426 25.5036 14.4488 25.7409 14.3039C25.9763 14.159 26.2426 14.0485 26.5414 13.9724C26.8385 13.8964 27.1464 13.842 27.4651 13.8076C27.8491 13.7678 28.1606 13.7315 28.3997 13.6989C28.6388 13.6663 28.8126 13.6156 28.9231 13.545C29.0336 13.4744 29.0879 13.3657 29.0879 13.219V13.1936C29.0879 12.873 28.992 12.6231 28.8018 12.4474C28.6116 12.2717 28.3363 12.183 27.9777 12.183C27.5992 12.183 27.3003 12.2663 27.0793 12.4311C26.8584 12.5959 26.7099 12.7915 26.6338 13.0161L25.1921 12.8115C25.3062 12.413 25.4927 12.0797 25.7554 11.8117C26.0162 11.5436 26.3368 11.3408 26.7153 11.2068C27.0938 11.0709 27.5122 11.0039 27.9686 11.0039C28.2838 11.0039 28.5989 11.0401 28.9123 11.1144C29.2256 11.1886 29.5118 11.31 29.769 11.4784C30.028 11.6469 30.2362 11.8769 30.3938 12.1667C30.5514 12.4565 30.6311 12.8187 30.6311 13.2552V17.6401H29.1459V16.7399H29.0952C29.001 16.921 28.8706 17.0913 28.7004 17.2489C28.5319 17.4064 28.32 17.5332 28.0646 17.6292C27.8093 17.7252 27.5122 17.7723 27.1717 17.7723L27.1681 17.7705ZM27.5684 16.6367C27.8781 16.6367 28.1479 16.5751 28.3743 16.4519C28.6026 16.3288 28.7782 16.164 28.9014 15.9593C29.0246 15.7546 29.0861 15.5319 29.0861 15.2892V14.5176C29.0372 14.5574 28.9557 14.5937 28.8416 14.6281C28.7275 14.6625 28.5971 14.6915 28.4558 14.7186C28.3128 14.744 28.1733 14.7675 28.0338 14.7875C27.8944 14.8074 27.773 14.8255 27.6716 14.8382C27.4416 14.869 27.2351 14.9215 27.0522 14.9921C26.8692 15.0628 26.7262 15.1624 26.6211 15.2892C26.5161 15.4159 26.4635 15.579 26.4635 15.7782C26.4635 16.0625 26.5668 16.2781 26.7751 16.423C26.9834 16.5679 27.2478 16.6403 27.5684 16.6403V16.6367Z" fill="#BABABA"/>
<path d="M32.9037 20.0949C32.6936 20.0949 32.4998 20.0786 32.3223 20.046C32.1448 20.0134 32.0035 19.9754 31.8985 19.9337L32.2571 18.7311C32.4817 18.7963 32.6827 18.8271 32.8584 18.8253C33.0341 18.8216 33.1899 18.7673 33.3257 18.6604C33.4615 18.5536 33.5757 18.3761 33.6698 18.1298L33.8021 17.7766L31.4258 11.0879H33.0631L34.5736 16.036H34.6424L36.1566 11.0879H37.7993L35.1749 18.434C35.0518 18.7818 34.8906 19.0788 34.6877 19.327C34.4849 19.5751 34.2385 19.7671 33.9469 19.8993C33.6553 20.0315 33.3076 20.0967 32.9037 20.0967V20.0949Z" fill="#BABABA"/>
<path d="M10.6457 18.1056C8.19154 18.1056 6.40934 16.4574 6.40934 14.188C6.40934 13.3693 6.65928 12.1649 7.84923 11.0782L7.87277 11.0564L9.13155 12.3587C9.11706 12.3732 9.09713 12.3913 9.07178 12.4148C8.50669 12.931 8.22052 13.5269 8.22052 14.188C8.22052 15.4486 9.19494 16.2944 10.6457 16.2944C12.5275 16.2944 13.7446 14.9813 13.7446 12.9473C13.7446 11.3245 12.4659 9.60025 10.0969 9.60025C8.34187 9.60025 7.13562 10.8445 7.12476 10.8572L5.80078 9.61836C5.86961 9.5441 7.53408 7.78906 10.0951 7.78906C13.5128 7.78906 15.554 10.4117 15.554 12.9473C15.554 15.9847 13.5345 18.1056 10.6439 18.1056H10.6457Z" fill="#BABABA"/>
</svg>
