<svg width="27" height="26" viewBox="0 0 27 26" fill="none" xmlns="http://www.w3.org/2000/svg">
<path d="M18.2025 11.0202H13.3876H8.58203V10.2209V9.41211H13.3876H18.2025V10.2209V11.0202Z" fill="#00457D"/>
<path d="M17.3911 3.40234C16.808 3.40234 16.2626 3.57162 15.783 3.84434C15.3128 3.57162 14.7673 3.40234 14.1843 3.40234C13.9021 3.40234 13.6294 3.43996 13.3661 3.51519C13.1122 3.44936 12.8583 3.40234 12.5856 3.40234C12.0025 3.40234 11.4665 3.57162 10.9868 3.84434C10.5166 3.57162 9.96178 3.40234 9.37871 3.40234C7.61072 3.40234 6.17188 4.84119 6.17188 6.60918V8.2173H7.78V6.60918C7.78 5.72519 8.49472 5.00106 9.38812 5.00106C9.52918 5.00106 9.67024 5.02927 9.8019 5.05749C9.54799 5.51829 9.38812 6.03553 9.38812 6.59978V8.2079H10.9962V6.60918C10.9962 5.72519 11.711 5.00106 12.6044 5.00106V8.2079H14.2125V5.00106C15.0965 5.00106 15.8206 5.71578 15.8206 6.60918V8.2173H17.3911V6.60918C17.3911 6.04493 17.2312 5.5277 16.9773 5.06689C17.109 5.02927 17.25 5.01047 17.3911 5.01047C18.2751 5.01047 18.9992 5.72519 18.9992 6.61859V8.22671H20.6074V6.60918C20.5979 4.83179 19.1685 3.40234 17.3911 3.40234Z" fill="#00457D"/>
<path d="M13.7334 1.54042V0.788086H13.0375V1.54042H12.2852V2.24574H13.0375V2.99808H13.7334V2.24574H14.4951V1.54042H13.7334Z" fill="#00457D"/>
<path d="M21.4077 12.2139C21.4077 14.1135 20.7495 15.8533 19.6492 17.2263C19.0097 14.358 16.4517 12.2139 13.3954 12.2139C11.4769 12.2139 9.75592 13.0602 8.58039 14.3956V12.2139H0.558594C0.558594 19.3046 6.30457 25.0506 13.3859 25.0506C20.4673 25.0506 26.2133 19.3046 26.2133 12.2233H21.4077V12.2139ZM2.28897 13.822H6.97227V18.6369C6.97227 19.8877 7.33903 21.0538 7.95971 22.0507C4.95036 20.3767 2.7968 17.3674 2.28897 13.822ZM13.3859 23.4425C10.734 23.4425 8.57099 21.2889 8.57099 18.6275C8.57099 15.9662 10.7246 13.822 13.3859 13.822C16.0473 13.822 18.1915 15.9756 18.1915 18.6181C17.6461 19.0319 17.0536 19.3705 16.4141 19.6338C16.5176 19.3141 16.5928 18.9849 16.5928 18.6275C16.5928 16.8125 15.1539 15.4207 13.3859 15.4207C11.618 15.4207 10.1791 16.8501 10.1791 18.6275C10.1791 20.4049 11.6085 21.8344 13.3859 21.8344C18.1539 21.8344 22.1131 18.3642 22.8748 13.822H24.5017C23.7306 19.2576 19.0379 23.4425 13.3859 23.4425ZM14.9941 18.6275C14.9941 19.5115 14.2793 20.2263 13.3954 20.2263C12.5114 20.2263 11.7966 19.5115 11.7966 18.6275C11.7966 17.7435 12.5114 17.0288 13.3954 17.0288C14.2793 17.0288 14.9941 17.7435 14.9941 18.6275Z" fill="#00457D"/>
</svg>
