<svg width="49" height="16" viewBox="0 0 49 16" fill="none" xmlns="http://www.w3.org/2000/svg">
<path d="M48.4414 0.511719V11.0898H0.507812V0.511719H48.4414Z" fill="#FFCC00"/>
<path d="M8.9377 2.41113L7.40625 4.49174H15.7528C16.1747 4.49174 16.1691 4.65204 15.9629 4.9314C15.7534 5.21498 15.403 5.70816 15.1897 5.99622C15.0814 6.14241 14.8857 6.40874 15.5343 6.40874H18.9475C18.9475 6.40874 19.4977 5.66013 19.9587 5.03421C20.5861 4.18288 20.0132 2.41122 17.7703 2.41122L8.9377 2.41113Z" fill="#D2002E"/>
<path d="M6.78632 9.1895L9.86233 5.00994H13.6794C14.1013 5.00994 14.0958 5.17025 13.8896 5.4496C13.6802 5.73318 13.324 6.22112 13.1107 6.50918C13.0023 6.65537 12.8067 6.92212 13.4552 6.92212H18.5689C18.1437 7.50476 16.7641 9.18941 14.2871 9.18941L6.78632 9.1895ZM24.4027 6.92162L22.7346 9.18933H18.3345C18.3345 9.18933 20.0016 6.92212 20.0031 6.92212L24.4027 6.92162ZM31.1435 6.40874H20.3811L23.3242 2.41113H27.7231L26.0361 4.70337H27.9996L29.6873 2.41113H34.0856L31.1435 6.40874ZM30.7658 6.92221L29.0969 9.1895H24.6984C24.6984 9.1895 26.3655 6.92221 26.367 6.92221H30.7658ZM0.507812 7.81624H6.99009L6.63599 8.29792H0.507812V7.81624ZM0.507812 6.92221H7.64864L7.29387 7.40321H0.507812V6.92221ZM0.507812 8.71078H6.33186L5.97946 9.1895H0.507812V8.71078ZM48.4416 8.29792H41.9843L42.3387 7.81632H48.4416V8.29792ZM48.4416 9.1895L41.3278 9.19018L41.6802 8.71078H48.4416V9.1895ZM42.9964 6.92221H48.4416V7.40347L42.6423 7.40389L42.9964 6.92221ZM40.1775 2.41113L37.2349 6.40865H32.5738C32.5738 6.40865 35.5171 2.41113 35.5187 2.41113H40.1775ZM32.1966 6.92221C32.1966 6.92221 31.8751 7.36161 31.719 7.57282C31.1665 8.31957 31.6549 9.1895 33.4579 9.1895H40.5223L42.191 6.92221H32.1966Z" fill="#D2002E"/>
<path d="M0.507812 12.8096H48.4416V13.0492H0.507812V12.8096ZM0.507812 13.9277H48.4416V14.1674H0.507812V13.9277ZM0.507812 15.0457H48.4416V15.2853H0.507812V15.0457Z" fill="#FFCC00"/>
<path d="M16.6055 15.2857H18.0481L18.2783 14.9737H17.2048L17.8068 14.1579H18.7844L19.0147 13.8458H18.0371L18.5709 13.1223H19.6445L19.8748 12.8102H18.4323L16.6055 15.2857ZM18.3759 15.2857H18.8186L20.3275 14.236L20.3127 15.2857H20.7776L20.7811 13.9913L22.5196 12.8102H22.099L20.7151 13.7607L20.7302 12.8102H20.2875L20.2741 13.9984L18.3759 15.2857ZM23.078 13.1223H23.3916C23.6204 13.1223 23.876 13.2358 23.6457 13.5479C23.4049 13.8741 23.036 13.9841 22.8072 13.9841H22.4419L23.078 13.1223ZM21.1126 15.2857H21.4815L22.2116 14.2962H22.5732C23.038 14.2962 23.6284 14.1012 24.034 13.5514C24.4502 12.9874 24.142 12.81 23.6145 12.81H22.9394L21.1126 15.2857ZM23.2371 15.2857H23.606L24.4174 14.1862H24.6386C24.8341 14.1862 24.956 14.1862 24.8925 14.4274L24.6539 15.2857H25.0745L25.3151 14.2997C25.3465 14.1473 25.3305 14.0941 25.2474 14.0514L25.2526 14.0443C25.5882 13.9946 25.9776 13.7818 26.2001 13.4803C26.6371 12.8881 26.2041 12.81 25.6948 12.81H25.064L23.2371 15.2857ZM25.2026 13.1223H25.5567C25.8962 13.1223 25.9685 13.2642 25.8037 13.4875C25.6284 13.7253 25.3118 13.8741 24.9613 13.8741H24.6477L25.2026 13.1223ZM25.4565 15.2857H26.8991L27.1292 14.9737H26.0558L26.6577 14.1579H27.6354L27.8656 13.8458H26.888L27.4219 13.1223H28.4955L28.7259 12.8102H27.2834L25.4565 15.2857ZM30.5029 12.8563C30.3703 12.796 30.1882 12.7676 30.0185 12.7676C29.5536 12.7676 29.0193 13.0018 28.6948 13.4415C28.1268 14.2112 29.3462 14.0587 28.9378 14.6119C28.7232 14.9026 28.3443 15.0163 28.1341 15.0163C27.9458 15.0163 27.7769 14.9452 27.6881 14.8955L27.4079 15.2254C27.5384 15.2786 27.6789 15.3283 27.8597 15.3283C28.3761 15.3283 28.9548 15.1188 29.3448 14.5904C29.9467 13.7748 28.7587 13.8846 29.1095 13.4095C29.3006 13.1506 29.5965 13.0797 29.803 13.0797C29.995 13.0797 30.0745 13.1117 30.2103 13.1825L30.5029 12.8563ZM32.3476 12.8563C32.215 12.796 32.033 12.7676 31.8632 12.7676C31.3983 12.7676 30.864 13.0018 30.5395 13.4415C29.9715 14.2112 31.1909 14.0587 30.7825 14.6119C30.568 14.9026 30.189 15.0163 29.9788 15.0163C29.7905 15.0163 29.6215 14.9452 29.5329 14.8955L29.2526 15.2254C29.3831 15.2786 29.5236 15.3283 29.7043 15.3283C30.2208 15.3283 30.7995 15.1188 31.1894 14.5904C31.7914 13.7748 30.6035 13.8846 30.9542 13.4095C31.1453 13.1506 31.4412 13.0797 31.6477 13.0797C31.8397 13.0797 31.9194 13.1117 32.055 13.1825L32.3476 12.8563Z" fill="#D2002E"/>
</svg>
