<svg width="69" height="15" viewBox="0 0 69 15" fill="none" xmlns="http://www.w3.org/2000/svg">
<mask id="mask0_224_4355" style="mask-type:luminance" maskUnits="userSpaceOnUse" x="0" y="0" width="42" height="15">
<path d="M0.320312 0.96582H41.4883V14.8722H0.320312V0.96582Z" fill="white"/>
</mask>
<g mask="url(#mask0_224_4355)">
<path d="M31.6167 7.45415H33.1792C34.361 7.45415 34.8419 7.11814 34.8419 6.24747C34.8419 5.61459 34.441 5.37679 33.3594 5.37679H31.9166L31.6167 7.45415ZM33.0386 11.826H30.9749L30.5344 14.8722H24.0428L26.0264 0.96582H35.9444C39.7508 0.96582 41.4337 2.3106 41.4337 5.33765C41.4337 7.67201 40.6125 9.2147 38.9894 10.2235L40.7725 14.8722H33.9608L33.0386 11.826ZM6.61145 14.8722H0.320312L2.30392 0.96582H10.9998L12.2017 6.94017L14.2048 2.84527C14.8465 1.51968 15.7478 0.96582 17.2505 0.96582H23.8221L21.8393 14.8722H15.5474L16.4891 9.01679L16.7494 7.67201L15.8077 9.53151L12.9026 14.8722H9.0558L7.83363 9.53151L7.47311 7.69195L7.35268 9.01679L6.61145 14.8722Z" fill="#203263"/>
</g>
<mask id="mask1_224_4355" style="mask-type:luminance" maskUnits="userSpaceOnUse" x="41" y="0" width="18" height="15">
<path d="M41.8711 0.96582H58.9127V14.8722H41.8711V0.96582Z" fill="white"/>
</mask>
<g mask="url(#mask1_224_4355)">
<path d="M49.6897 14.8722H41.9961L43.8997 0.96582H49.9103L49.1092 6.12931L48.7285 7.98808L50.0509 5.63453L51.8341 2.74631C52.6352 1.46061 53.517 0.96582 55.0593 0.96582H58.7864L49.6897 14.8722Z" fill="#F05349"/>
</g>
<mask id="mask2_224_4355" style="mask-type:luminance" maskUnits="userSpaceOnUse" x="52" y="0" width="17" height="15">
<path d="M52.5938 0.96582H68.5075V14.8722H52.5938V0.96582Z" fill="white"/>
</mask>
<g mask="url(#mask2_224_4355)">
<path d="M59.7707 14.8722H52.7578L53.0383 11.5092L59.4304 1.57876L58.8687 5.63453L58.3683 8.26575L59.5703 6.12931L61.6541 2.74631C62.4552 1.46061 63.337 0.96582 64.8801 0.96582H68.5062L59.7707 14.8722Z" fill="#F05349"/>
</g>
</svg>
