<svg width="25" height="25" viewBox="0 0 25 25" fill="none" xmlns="http://www.w3.org/2000/svg">
<path d="M22.6113 7.25693L15.1113 3.13193C15.0005 3.07101 14.8762 3.03906 14.7498 3.03906C14.6234 3.03906 14.499 3.07101 14.3883 3.13193L6.88827 7.25693C6.77068 7.32168 6.67262 7.41679 6.60432 7.53236C6.53603 7.64792 6.5 7.7797 6.5 7.91393C6.5 8.04817 6.53603 8.17995 6.60432 8.29551C6.67262 8.41107 6.77068 8.50619 6.88827 8.57093L13.9998 12.4822V20.5214L11.7228 19.2689L10.9998 20.5822L14.3883 22.4459C14.499 22.507 14.6233 22.539 14.7498 22.539C14.8762 22.539 15.0006 22.507 15.1113 22.4459L22.6113 18.3209C22.7289 18.2562 22.827 18.1611 22.8953 18.0456C22.9637 17.93 22.9997 17.7982 22.9998 17.6639V7.91393C22.9997 7.77968 22.9637 7.64788 22.8953 7.53232C22.827 7.41675 22.7289 7.32165 22.6113 7.25693ZM14.7498 4.64543L20.6935 7.91393L14.7498 11.1824L8.80602 7.91393L14.7498 4.64543ZM21.4998 17.2207L15.4998 20.5207V12.4814L21.4998 9.18143V17.2207Z" fill="black"/>
<path d="M8 12.7891H2V11.2891H8V12.7891ZM9.5 18.7891H3.5V17.2891H9.5V18.7891ZM11 15.7891H5V14.2891H11V15.7891Z" fill="black"/>
</svg>
