<svg width="30" height="31" viewBox="0 0 30 31" fill="none" xmlns="http://www.w3.org/2000/svg">
<path d="M15 5.83984C13.3424 5.83984 11.7527 6.49832 10.5806 7.67043C9.40848 8.84253 8.75 10.4322 8.75 12.0898C8.75 12.4214 8.8817 12.7393 9.11612 12.9737C9.35054 13.2081 9.66848 13.3398 10 13.3398C10.3315 13.3398 10.6495 13.2081 10.8839 12.9737C11.1183 12.7393 11.25 12.4214 11.25 12.0898C11.25 10.0173 12.9275 8.33984 15 8.33984C17.0725 8.33984 18.75 10.0173 18.75 12.0898C18.75 13.1098 18.5013 13.7073 18.2025 14.1261C17.875 14.5823 17.4213 14.9236 16.7925 15.3573L16.6475 15.4548C16.0887 15.8373 15.3687 16.3286 14.8112 17.0136C14.1525 17.8236 13.75 18.8473 13.75 20.2148V20.8398C13.75 21.1714 13.8817 21.4893 14.1161 21.7237C14.3505 21.9581 14.6685 22.0898 15 22.0898C15.3315 22.0898 15.6495 21.9581 15.8839 21.7237C16.1183 21.4893 16.25 21.1714 16.25 20.8398V20.2148C16.25 19.3948 16.4725 18.9348 16.75 18.5911C17.0712 18.1986 17.5037 17.9011 18.1425 17.4623L18.2088 17.4161C18.8288 16.9911 19.625 16.4336 20.2338 15.5811C20.875 14.6911 21.25 13.5686 21.25 12.0898C21.25 10.4322 20.5915 8.84253 19.4194 7.67043C18.2473 6.49832 16.6576 5.83984 15 5.83984ZM15 27.4023C15.4144 27.4023 15.8118 27.2377 16.1049 26.9447C16.3979 26.6517 16.5625 26.2542 16.5625 25.8398C16.5625 25.4254 16.3979 25.028 16.1049 24.735C15.8118 24.442 15.4144 24.2773 15 24.2773C14.5856 24.2773 14.1882 24.442 13.8951 24.735C13.6021 25.028 13.4375 25.4254 13.4375 25.8398C13.4375 26.2542 13.6021 26.6517 13.8951 26.9447C14.1882 27.2377 14.5856 27.4023 15 27.4023Z" fill="#5CC2FF"/>
</svg>
