<svg width="30" height="31" viewBox="0 0 30 31" fill="none" xmlns="http://www.w3.org/2000/svg">
<path d="M13.75 24.1289H18.4375C20.178 24.1289 21.8472 23.4375 23.0779 22.2068C24.3086 20.9761 25 19.3069 25 17.5664C25 15.8259 24.3086 14.1567 23.0779 12.926C21.8472 11.6953 20.178 11.0039 18.4375 11.0039H6.25M9.375 6.62891L5 11.0039L9.375 15.3789" stroke="black" stroke-width="2" stroke-linecap="round" stroke-linejoin="round"/>
<path d="M13.75 24.1289H18.4375C20.178 24.1289 21.8472 23.4375 23.0779 22.2068C24.3086 20.9761 25 19.3069 25 17.5664C25 15.8259 24.3086 14.1567 23.0779 12.926C21.8472 11.6953 20.178 11.0039 18.4375 11.0039H6.25M9.375 6.62891L5 11.0039L9.375 15.3789" stroke="black" stroke-width="2" stroke-linecap="round" stroke-linejoin="round"/>
<path d="M13.75 24.1289H18.4375C20.178 24.1289 21.8472 23.4375 23.0779 22.2068C24.3086 20.9761 25 19.3069 25 17.5664C25 15.8259 24.3086 14.1567 23.0779 12.926C21.8472 11.6953 20.178 11.0039 18.4375 11.0039H6.25M9.375 6.62891L5 11.0039L9.375 15.3789" stroke="black" stroke-width="2" stroke-linecap="round" stroke-linejoin="round"/>
<path d="M13.75 24.1289H18.4375C20.178 24.1289 21.8472 23.4375 23.0779 22.2068C24.3086 20.9761 25 19.3069 25 17.5664C25 15.8259 24.3086 14.1567 23.0779 12.926C21.8472 11.6953 20.178 11.0039 18.4375 11.0039H6.25M9.375 6.62891L5 11.0039L9.375 15.3789" stroke="black" stroke-width="2" stroke-linecap="round" stroke-linejoin="round"/>
<path d="M13.75 24.1289H18.4375C20.178 24.1289 21.8472 23.4375 23.0779 22.2068C24.3086 20.9761 25 19.3069 25 17.5664C25 15.8259 24.3086 14.1567 23.0779 12.926C21.8472 11.6953 20.178 11.0039 18.4375 11.0039H6.25M9.375 6.62891L5 11.0039L9.375 15.3789" stroke="black" stroke-width="2" stroke-linecap="round" stroke-linejoin="round"/>
<path d="M13.75 24.1289H18.4375C20.178 24.1289 21.8472 23.4375 23.0779 22.2068C24.3086 20.9761 25 19.3069 25 17.5664C25 15.8259 24.3086 14.1567 23.0779 12.926C21.8472 11.6953 20.178 11.0039 18.4375 11.0039H6.25M9.375 6.62891L5 11.0039L9.375 15.3789" stroke="black" stroke-width="2" stroke-linecap="round" stroke-linejoin="round"/>
<path d="M13.75 24.1289H18.4375C20.178 24.1289 21.8472 23.4375 23.0779 22.2068C24.3086 20.9761 25 19.3069 25 17.5664C25 15.8259 24.3086 14.1567 23.0779 12.926C21.8472 11.6953 20.178 11.0039 18.4375 11.0039H6.25M9.375 6.62891L5 11.0039L9.375 15.3789" stroke="black" stroke-width="2" stroke-linecap="round" stroke-linejoin="round"/>
</svg>
