<svg width="30" height="30" viewBox="0 0 30 30" fill="none" xmlns="http://www.w3.org/2000/svg">
<path d="M3.12842 9.91992H10.8017V10.2152C10.8017 11.7687 10.8059 13.3221 10.8017 14.8756C10.8017 15.2968 10.9305 15.6306 11.3325 15.8006C11.7346 15.9707 12.0705 15.8312 12.3622 15.5281C12.6825 15.1958 13.0141 14.8756 13.3585 14.5318C13.7107 14.8805 14.0494 15.2435 14.4181 15.5679C14.5831 15.7103 14.7797 15.8113 14.9916 15.8626C15.267 15.9273 15.5075 15.7914 15.7068 15.5914C16.0562 15.2406 16.4099 14.8933 16.792 14.5148C17.0489 14.7809 17.3008 15.0406 17.5506 15.3018C17.8857 15.6526 18.2131 16.0369 18.7788 15.8113C19.3445 15.5857 19.336 15.0826 19.3331 14.5795C19.3246 13.1328 19.3331 11.6861 19.3331 10.2387V9.92633H27V10.2031C27 14.8812 27 19.5593 27 24.2374C27 25.8741 25.9183 26.9537 24.2795 26.9544H5.84889C4.21219 26.9544 3.12984 25.8713 3.12984 24.2367C3.12984 19.5672 3.12984 14.8978 3.12984 10.2288L3.12842 9.91992ZM20.1799 18.4322C19.3538 18.4322 18.5283 18.4322 17.7028 18.4322C17.1563 18.4322 16.7742 18.7816 16.7706 19.2761C16.7671 19.7707 17.1506 20.135 17.6886 20.1357C19.349 20.1357 21.0094 20.1357 22.6699 20.1357C23.2085 20.1357 23.5949 19.7714 23.5885 19.2776C23.5821 18.7837 23.2007 18.4336 22.6563 18.4322C21.8309 18.4307 21.0054 18.4322 20.1799 18.4322ZM20.1799 21.8422C19.3545 21.8422 18.529 21.8422 17.7028 21.8422C17.157 21.8422 16.7778 22.1923 16.7713 22.6869C16.7649 23.1814 17.1513 23.5451 17.6893 23.5458C19.3497 23.5458 21.0101 23.5458 22.6706 23.5458C23.2093 23.5458 23.5957 23.1814 23.5893 22.6876C23.5828 22.1937 23.2014 21.8436 22.657 21.8422C21.8309 21.8408 21.0054 21.8422 20.1792 21.8422H20.1799Z" fill="url(#paint0_linear_50_4285)"/>
<path d="M12.0112 3.08902L10.9559 8.1948H3.55518C3.60855 8.10443 3.64768 8.03042 3.6975 7.9614C4.66599 6.50687 5.64018 5.0559 6.60156 3.5964C6.83355 3.2406 7.12744 3.08048 7.55298 3.08404C8.94702 3.09614 10.3411 3.08902 11.7351 3.08902H12.0112Z" fill="url(#paint1_linear_50_4285)"/>
<path d="M19.1692 8.18339C18.8199 6.49048 18.4719 4.80682 18.1196 3.10181C18.2164 3.09683 18.2933 3.089 18.3694 3.089C19.799 3.089 21.2286 3.089 22.6583 3.089C22.8186 3.08107 22.9782 3.11581 23.1207 3.1897C23.2632 3.26358 23.3836 3.37396 23.4695 3.50956L26.5102 8.07167C26.5294 8.10014 26.5429 8.13216 26.5707 8.18553L19.1692 8.18339Z" fill="url(#paint2_linear_50_4285)"/>
<path d="M16.3806 3.10742L17.4216 8.18545H12.7065C13.0538 6.49182 13.3989 4.80887 13.7469 3.10742H16.3806Z" fill="url(#paint3_linear_50_4285)"/>
<path d="M12.5259 9.91406H17.6025V12.9313L17.3769 12.7178C17.0104 12.3734 16.523 12.3748 16.1608 12.7249C15.975 12.9035 15.795 13.0878 15.6157 13.2721C15.4364 13.4564 15.272 13.6279 15.0884 13.8229C14.7603 13.5006 14.4479 13.1996 14.1455 12.8943C13.5662 12.3157 13.2019 12.3079 12.6077 12.8672C12.5819 12.8872 12.5546 12.905 12.5259 12.9206V9.91406Z" fill="url(#paint4_linear_50_4285)"/>
<defs>
<linearGradient id="paint0_linear_50_4285" x1="3.12842" y1="19.9759" x2="26.9076" y2="21.4581" gradientUnits="userSpaceOnUse">
<stop stop-color="#EB4747"/>
<stop offset="1" stop-color="#FF8B8B"/>
</linearGradient>
<linearGradient id="paint1_linear_50_4285" x1="2.99976" y1="5.99951" x2="26.9342" y2="7.25212" gradientUnits="userSpaceOnUse">
<stop stop-color="#EB4747"/>
<stop offset="1" stop-color="#FF8B8B"/>
</linearGradient>
<linearGradient id="paint2_linear_50_4285" x1="2.99976" y1="5.64204" x2="26.9345" y2="6.89201" gradientUnits="userSpaceOnUse">
<stop stop-color="#EB4747"/>
<stop offset="1" stop-color="#FF8B8B"/>
</linearGradient>
<linearGradient id="paint3_linear_50_4285" x1="2.99988" y1="5.65173" x2="26.7842" y2="7.91688" gradientUnits="userSpaceOnUse">
<stop stop-color="#EB4747"/>
<stop offset="1" stop-color="#FF8B8B"/>
</linearGradient>
<linearGradient id="paint4_linear_50_4285" x1="3" y1="11.8726" x2="27.389" y2="13.518" gradientUnits="userSpaceOnUse">
<stop stop-color="#EB4747"/>
<stop offset="1" stop-color="#FF8B8B"/>
</linearGradient>
</defs>
</svg>
