<svg width="18" height="13" viewBox="0 0 18 13" fill="none" xmlns="http://www.w3.org/2000/svg">
<g clip-path="url(#clip0_68_2354)">
<path d="M9 4.5707C8.34901 4.5707 7.72469 4.82356 7.26437 5.27365C6.80406 5.72373 6.54545 6.33418 6.54545 6.9707C6.54545 7.60722 6.80406 8.21767 7.26437 8.66776C7.72469 9.11785 8.34901 9.3707 9 9.3707C9.65099 9.3707 10.2753 9.11785 10.7356 8.66776C11.1959 8.21767 11.4545 7.60722 11.4545 6.9707C11.4545 6.33418 11.1959 5.72373 10.7356 5.27365C10.2753 4.82356 9.65099 4.5707 9 4.5707ZM9 10.9707C7.91502 10.9707 6.87448 10.5493 6.10729 9.79913C5.3401 9.04898 4.90909 8.03157 4.90909 6.9707C4.90909 5.90984 5.3401 4.89242 6.10729 4.14228C6.87448 3.39213 7.91502 2.9707 9 2.9707C10.085 2.9707 11.1255 3.39213 11.8927 4.14228C12.6599 4.89242 13.0909 5.90984 13.0909 6.9707C13.0909 8.03157 12.6599 9.04898 11.8927 9.79913C11.1255 10.5493 10.085 10.9707 9 10.9707ZM9 0.970703C4.90909 0.970703 1.41545 3.4587 0 6.9707C1.41545 10.4827 4.90909 12.9707 9 12.9707C13.0909 12.9707 16.5845 10.4827 18 6.9707C16.5845 3.4587 13.0909 0.970703 9 0.970703Z" fill="#F3D869"/>
</g>
<defs>
<clipPath id="clip0_68_2354">
<rect width="18" height="12" fill="white" transform="translate(0 0.970703)"/>
</clipPath>
</defs>
</svg>
