<svg width="30" height="31" viewBox="0 0 30 31" fill="none" xmlns="http://www.w3.org/2000/svg">
<path fill-rule="evenodd" clip-rule="evenodd" d="M14.142 3.78258C14.6952 3.57768 15.3048 3.57768 15.858 3.78258L24.4136 6.95259C24.8796 7.1252 25.2812 7.43426 25.5647 7.83846C25.8482 8.24265 26.0001 8.72271 26 9.21448V15.691C26 17.7094 25.4312 19.688 24.3573 21.4051C23.2833 23.1221 21.7466 24.5097 19.9194 25.4124L15.8201 27.4376C15.5655 27.5634 15.2847 27.6289 15 27.6289C14.7153 27.6289 14.4345 27.5634 14.1799 27.4376L10.0806 25.4124C8.25338 24.5097 6.71672 23.1221 5.64275 21.4051C4.56879 19.688 3.99996 17.7094 4 15.691V9.21448C3.99994 8.72271 4.1518 8.24265 4.4353 7.83846C4.71879 7.43426 5.1204 7.1252 5.58644 6.95259L14.142 3.78258ZM15 6.04446L6.44444 9.21448V15.691C6.44473 17.2607 6.88737 18.7994 7.72278 20.1346C8.5582 21.4698 9.75339 22.5488 11.1744 23.2507L15 25.1431V6.04446Z" fill="black"/>
<path fill-rule="evenodd" clip-rule="evenodd" d="M14.142 3.78258C14.6952 3.57768 15.3048 3.57768 15.858 3.78258L24.4136 6.95259C24.8796 7.1252 25.2812 7.43426 25.5647 7.83846C25.8482 8.24265 26.0001 8.72271 26 9.21448V15.691C26 17.7094 25.4312 19.688 24.3573 21.4051C23.2833 23.1221 21.7466 24.5097 19.9194 25.4124L15.8201 27.4376C15.5655 27.5634 15.2847 27.6289 15 27.6289C14.7153 27.6289 14.4345 27.5634 14.1799 27.4376L10.0806 25.4124C8.25338 24.5097 6.71672 23.1221 5.64275 21.4051C4.56879 19.688 3.99996 17.7094 4 15.691V9.21448C3.99994 8.72271 4.1518 8.24265 4.4353 7.83846C4.71879 7.43426 5.1204 7.1252 5.58644 6.95259L14.142 3.78258ZM15 6.04446L6.44444 9.21448V15.691C6.44473 17.2607 6.88737 18.7994 7.72278 20.1346C8.5582 21.4698 9.75339 22.5488 11.1744 23.2507L15 25.1431V6.04446Z" fill="black"/>
<path fill-rule="evenodd" clip-rule="evenodd" d="M14.142 3.78258C14.6952 3.57768 15.3048 3.57768 15.858 3.78258L24.4136 6.95259C24.8796 7.1252 25.2812 7.43426 25.5647 7.83846C25.8482 8.24265 26.0001 8.72271 26 9.21448V15.691C26 17.7094 25.4312 19.688 24.3573 21.4051C23.2833 23.1221 21.7466 24.5097 19.9194 25.4124L15.8201 27.4376C15.5655 27.5634 15.2847 27.6289 15 27.6289C14.7153 27.6289 14.4345 27.5634 14.1799 27.4376L10.0806 25.4124C8.25338 24.5097 6.71672 23.1221 5.64275 21.4051C4.56879 19.688 3.99996 17.7094 4 15.691V9.21448C3.99994 8.72271 4.1518 8.24265 4.4353 7.83846C4.71879 7.43426 5.1204 7.1252 5.58644 6.95259L14.142 3.78258ZM15 6.04446L6.44444 9.21448V15.691C6.44473 17.2607 6.88737 18.7994 7.72278 20.1346C8.5582 21.4698 9.75339 22.5488 11.1744 23.2507L15 25.1431V6.04446Z" fill="black"/>
<path fill-rule="evenodd" clip-rule="evenodd" d="M14.142 3.78258C14.6952 3.57768 15.3048 3.57768 15.858 3.78258L24.4136 6.95259C24.8796 7.1252 25.2812 7.43426 25.5647 7.83846C25.8482 8.24265 26.0001 8.72271 26 9.21448V15.691C26 17.7094 25.4312 19.688 24.3573 21.4051C23.2833 23.1221 21.7466 24.5097 19.9194 25.4124L15.8201 27.4376C15.5655 27.5634 15.2847 27.6289 15 27.6289C14.7153 27.6289 14.4345 27.5634 14.1799 27.4376L10.0806 25.4124C8.25338 24.5097 6.71672 23.1221 5.64275 21.4051C4.56879 19.688 3.99996 17.7094 4 15.691V9.21448C3.99994 8.72271 4.1518 8.24265 4.4353 7.83846C4.71879 7.43426 5.1204 7.1252 5.58644 6.95259L14.142 3.78258ZM15 6.04446L6.44444 9.21448V15.691C6.44473 17.2607 6.88737 18.7994 7.72278 20.1346C8.5582 21.4698 9.75339 22.5488 11.1744 23.2507L15 25.1431V6.04446Z" fill="black"/>
<path fill-rule="evenodd" clip-rule="evenodd" d="M14.142 3.78258C14.6952 3.57768 15.3048 3.57768 15.858 3.78258L24.4136 6.95259C24.8796 7.1252 25.2812 7.43426 25.5647 7.83846C25.8482 8.24265 26.0001 8.72271 26 9.21448V15.691C26 17.7094 25.4312 19.688 24.3573 21.4051C23.2833 23.1221 21.7466 24.5097 19.9194 25.4124L15.8201 27.4376C15.5655 27.5634 15.2847 27.6289 15 27.6289C14.7153 27.6289 14.4345 27.5634 14.1799 27.4376L10.0806 25.4124C8.25338 24.5097 6.71672 23.1221 5.64275 21.4051C4.56879 19.688 3.99996 17.7094 4 15.691V9.21448C3.99994 8.72271 4.1518 8.24265 4.4353 7.83846C4.71879 7.43426 5.1204 7.1252 5.58644 6.95259L14.142 3.78258ZM15 6.04446L6.44444 9.21448V15.691C6.44473 17.2607 6.88737 18.7994 7.72278 20.1346C8.5582 21.4698 9.75339 22.5488 11.1744 23.2507L15 25.1431V6.04446Z" fill="black"/>
<path fill-rule="evenodd" clip-rule="evenodd" d="M14.142 3.78258C14.6952 3.57768 15.3048 3.57768 15.858 3.78258L24.4136 6.95259C24.8796 7.1252 25.2812 7.43426 25.5647 7.83846C25.8482 8.24265 26.0001 8.72271 26 9.21448V15.691C26 17.7094 25.4312 19.688 24.3573 21.4051C23.2833 23.1221 21.7466 24.5097 19.9194 25.4124L15.8201 27.4376C15.5655 27.5634 15.2847 27.6289 15 27.6289C14.7153 27.6289 14.4345 27.5634 14.1799 27.4376L10.0806 25.4124C8.25338 24.5097 6.71672 23.1221 5.64275 21.4051C4.56879 19.688 3.99996 17.7094 4 15.691V9.21448C3.99994 8.72271 4.1518 8.24265 4.4353 7.83846C4.71879 7.43426 5.1204 7.1252 5.58644 6.95259L14.142 3.78258ZM15 6.04446L6.44444 9.21448V15.691C6.44473 17.2607 6.88737 18.7994 7.72278 20.1346C8.5582 21.4698 9.75339 22.5488 11.1744 23.2507L15 25.1431V6.04446Z" fill="black"/>
<path fill-rule="evenodd" clip-rule="evenodd" d="M14.142 3.78258C14.6952 3.57768 15.3048 3.57768 15.858 3.78258L24.4136 6.95259C24.8796 7.1252 25.2812 7.43426 25.5647 7.83846C25.8482 8.24265 26.0001 8.72271 26 9.21448V15.691C26 17.7094 25.4312 19.688 24.3573 21.4051C23.2833 23.1221 21.7466 24.5097 19.9194 25.4124L15.8201 27.4376C15.5655 27.5634 15.2847 27.6289 15 27.6289C14.7153 27.6289 14.4345 27.5634 14.1799 27.4376L10.0806 25.4124C8.25338 24.5097 6.71672 23.1221 5.64275 21.4051C4.56879 19.688 3.99996 17.7094 4 15.691V9.21448C3.99994 8.72271 4.1518 8.24265 4.4353 7.83846C4.71879 7.43426 5.1204 7.1252 5.58644 6.95259L14.142 3.78258ZM15 6.04446L6.44444 9.21448V15.691C6.44473 17.2607 6.88737 18.7994 7.72278 20.1346C8.5582 21.4698 9.75339 22.5488 11.1744 23.2507L15 25.1431V6.04446Z" fill="black"/>
</svg>
