<svg width="42" height="42" viewBox="0 0 42 42" fill="none" xmlns="http://www.w3.org/2000/svg">
<circle cx="21" cy="21" r="20" fill="white" stroke="url(#paint0_linear_50_5556)" stroke-width="2"/>
<path d="M28.4476 28.7874C28.9757 28.1149 29.3768 27.4357 29.6309 26.6775C29.7579 26.2951 29.8649 25.9061 29.9451 25.5105C30.1122 24.7259 29.5306 24.0401 28.7217 24.0863C27.2844 24.172 25.8671 24.3566 24.53 24.9368C24.4966 24.95 24.4565 24.9632 24.4231 24.9698C24.2827 24.4819 24.1757 24.0072 24.0086 23.5456C23.5807 22.339 22.8587 21.3237 21.8894 20.4863C21.3211 19.9984 20.6793 19.9984 20.1111 20.4995C18.7874 21.6599 17.9651 23.1039 17.6576 24.8248C17.6509 24.8709 17.6376 24.9171 17.6242 24.9566C17.1696 24.805 16.7417 24.6138 16.2871 24.5281C15.3111 24.35 14.3351 24.1918 13.3523 24.0863C12.5033 24.0006 11.9217 24.6995 12.0754 25.5303C12.2894 26.6577 12.7373 27.6797 13.4392 28.5962C13.4727 28.6423 13.5061 28.6885 13.5128 28.7874C13.2052 28.6753 12.891 28.583 12.5902 28.4511C10.1969 27.3962 8.80636 24.95 9.10051 22.3522C9.38797 19.8401 11.3802 17.75 13.9339 17.2753C14.1545 17.2357 14.3818 17.2226 14.6025 17.1962C14.9234 17.1566 15.037 17.0445 15.0905 16.7346C15.4983 14.4204 16.8153 12.8248 19.0481 12.0335C22.5445 10.7874 26.3685 13.0819 26.91 16.7017C26.9635 17.0709 27.0771 17.1632 27.4916 17.2028C29.671 17.4335 31.2955 18.5083 32.2983 20.4204C34.003 23.6841 32.198 27.739 28.6214 28.7346C28.5947 28.761 28.5545 28.7676 28.4476 28.7874Z" fill="url(#paint1_linear_50_5556)"/>
<path d="M21.0137 30.2839C20.8265 30.2839 19.0415 30.2575 18.0655 30.152C15.271 29.8487 13.4259 28.1147 12.9178 25.385C12.8643 25.1015 12.9981 24.9103 13.2788 24.93C14.5691 25.0224 15.8526 25.174 17.0627 25.6751C17.2833 25.7674 17.4905 25.8927 17.6978 26.018C18.0655 26.2421 18.3864 26.0971 18.4198 25.6751C18.5735 23.8949 19.3022 22.385 20.6393 21.1784C20.9468 20.9015 21.0805 20.9015 21.388 21.1784C22.7184 22.385 23.4471 23.8817 23.6075 25.6553C23.6476 26.1169 23.9618 26.2619 24.3563 26.0114C25.1585 25.4971 26.0677 25.2861 26.9903 25.1344C27.5318 25.0421 28.0799 24.996 28.6281 24.9432C29.0426 24.9037 29.1763 25.0619 29.0961 25.4641C28.7953 26.9542 28.1267 28.2202 26.8499 29.1235C25.8738 29.8158 24.7574 30.1388 23.5741 30.1982C22.7251 30.2443 21.2008 30.2839 21.0137 30.2839Z" fill="url(#paint2_linear_50_5556)"/>
<defs>
<linearGradient id="paint0_linear_50_5556" x1="2.71107e-09" y1="24.7939" x2="42.0036" y2="24.7527" gradientUnits="userSpaceOnUse">
<stop stop-color="#EB4747"/>
<stop offset="1" stop-color="#FF8B8B"/>
</linearGradient>
<linearGradient id="paint1_linear_50_5556" x1="9.06153" y1="21.7836" x2="32.875" y2="23.0908" gradientUnits="userSpaceOnUse">
<stop stop-color="#EB4747"/>
<stop offset="1" stop-color="#FF8B8B"/>
</linearGradient>
<linearGradient id="paint2_linear_50_5556" x1="9.00024" y1="26.4685" x2="32.8885" y2="28.1023" gradientUnits="userSpaceOnUse">
<stop stop-color="#EB4747"/>
<stop offset="1" stop-color="#FF8B8B"/>
</linearGradient>
</defs>
</svg>
