<svg width="30" height="31" viewBox="0 0 30 31" fill="none" xmlns="http://www.w3.org/2000/svg">
<path fill-rule="evenodd" clip-rule="evenodd" d="M19.2316 13.2111H16.8816L18.4001 9.66801C18.4502 9.55101 18.4705 9.4234 18.4592 9.29661C18.4479 9.16982 18.4053 9.04782 18.3353 8.94154C18.2652 8.83527 18.1699 8.74804 18.0578 8.68768C17.9457 8.62732 17.8204 8.59572 17.6931 8.5957H13.847C13.6963 8.59557 13.549 8.63967 13.4232 8.72254C13.2973 8.80541 13.1986 8.9234 13.1393 9.06186L10.8316 14.4465C10.7814 14.5635 10.7611 14.6912 10.7724 14.8181C10.7838 14.9449 10.8264 15.067 10.8966 15.1733C10.9667 15.2796 11.0622 15.3668 11.1744 15.4271C11.2865 15.4874 11.4119 15.5189 11.5393 15.5188H12.8731L10.8254 20.6165C10.5177 21.3819 11.4677 22.0288 12.067 21.4626L15.9316 17.8149L19.7316 14.5649C20.2747 14.1003 19.947 13.2111 19.2316 13.2111ZM15.0085 13.6772C14.9584 13.7942 14.938 13.9217 14.9493 14.0484C14.9606 14.1752 15.0031 14.2971 15.0731 14.4034C15.1431 14.5096 15.2383 14.5969 15.3503 14.6573C15.4622 14.7177 15.5874 14.7494 15.7147 14.7495H17.1485L14.9024 16.6711L13.5577 17.9403L14.7247 15.0365C14.7716 14.9198 14.7892 14.7934 14.7759 14.6683C14.7626 14.5432 14.7189 14.4233 14.6485 14.3191C14.5781 14.2149 14.4832 14.1295 14.3722 14.0704C14.2612 14.0114 14.1374 13.9804 14.0116 13.9803H12.7062L14.3539 10.1342H16.5262L15.0085 13.6772Z" fill="#A2CAF2"/>
<circle cx="15" cy="15.9043" r="14" stroke="#A2CAF2" stroke-width="2"/>
<line x1="6.14022" y1="4.09706" x2="25.371" y2="26.4048" stroke="#A2CAF2" stroke-width="2"/>
</svg>
