<svg width="36" height="24" viewBox="0 0 36 24" fill="none" xmlns="http://www.w3.org/2000/svg">
<path d="M0.726791 10.0981C0.708545 10.092 0.699219 8.44476 0.699219 5.22804V0.367188H17.9697H35.2401V5.24752V10.1278L17.9972 10.1176C8.51365 10.112 0.741956 10.1032 0.726791 10.0981Z" fill="#BDD1EC"/>
<path d="M31.6043 17.5307C32.1233 17.3453 32.3717 17.0205 32.3717 16.5275C32.3717 16.0437 32.1718 15.809 31.6549 15.6855C31.4837 15.6447 31.2859 15.6341 30.504 15.624L29.5599 15.6119V16.623V17.6341L30.4627 17.6251L31.3655 17.6161L31.6043 17.5307ZM26.684 23.1529C26.6738 23.1426 26.6654 20.9525 26.6654 18.286V13.4377L29.7046 13.4476C32.6998 13.4573 32.7478 13.4583 33.0179 13.5172C33.7484 13.6763 34.2333 13.921 34.6217 14.3267C35.0632 14.7879 35.2387 15.2784 35.2385 16.0508C35.2382 17.0005 35.0124 17.6437 34.5126 18.1185C34.2844 18.3352 34.0933 18.4532 33.7848 18.5679C33.6505 18.6178 33.5969 18.6479 33.6408 18.6487C33.7766 18.6513 34.0421 18.7346 34.2695 18.846C34.6471 19.0308 34.9095 19.3434 35.0292 19.7509C35.0685 19.8845 35.3213 22.7519 35.3213 23.0634V23.171H33.8327H32.3441L32.3435 22.8057C32.3425 22.0777 32.2907 20.9154 32.2507 20.7236C32.1421 20.2026 31.8291 19.8932 31.2662 19.7502C31.0679 19.6999 30.9287 19.6894 30.2975 19.6776L29.5603 19.6637L29.5532 21.4104L29.5461 23.1572L28.1243 23.1644C27.3424 23.1683 26.6943 23.1631 26.684 23.1529ZM9.54657 18.3055V13.44H13.1578H16.769V14.6254V15.8107H14.5912H12.4135V16.5137V17.2166H14.481H16.5485V18.3055V19.3944H14.481H12.4135V20.0973V20.8003H14.6464H16.8793V21.9856V23.171H13.2129H9.54657V18.3055ZM20.8075 23.3508C18.7914 23.1185 17.7091 22.1993 17.3694 20.431C17.3118 20.131 17.3104 20.0581 17.3005 16.7825L17.2903 13.44H18.7238H20.1573L20.1671 16.6171C20.176 19.5247 20.1809 19.8116 20.2251 20.0009C20.3597 20.5777 20.654 20.8965 21.1853 21.0409C21.4347 21.1087 22.0693 21.1073 22.2961 21.0385C22.8079 20.8833 23.077 20.5855 23.2089 20.0284C23.254 19.8379 23.2586 19.571 23.2673 16.6308L23.2769 13.44H24.7093H26.1416V16.6073C26.1416 18.6096 26.131 19.8795 26.1128 20.06C26.0494 20.6887 25.8672 21.2873 25.6024 21.7371C25.4358 22.0201 25.0343 22.4487 24.7562 22.6405C24.2523 22.9879 23.648 23.2056 22.8558 23.325C22.4545 23.3856 21.2412 23.4008 20.8075 23.3508ZM3.71522 23.4191C2.59266 23.249 1.75964 22.8778 1.14888 22.2753C0.728344 21.8605 0.474537 21.4116 0.326648 20.8209C0.262178 20.5635 0.192968 19.9652 0.22142 19.9113C0.22742 19.8999 0.917379 19.8906 1.75466 19.8906H3.27698L3.30928 20.1944C3.37344 20.7981 3.58291 21.0466 4.15731 21.2003C4.42136 21.271 5.02023 21.2862 5.30083 21.2293C5.8822 21.1115 6.15605 20.8421 6.15574 20.3883C6.15574 20.2213 6.14332 20.1597 6.09369 20.0778C5.93464 19.815 5.77973 19.7565 3.78516 19.2052C2.33804 18.8052 1.73279 18.5402 1.22717 18.085C0.95193 17.8372 0.709959 17.4326 0.611323 17.0552C0.500478 16.631 0.515392 15.9496 0.645986 15.4715C0.718709 15.2052 0.937343 14.7625 1.10469 14.5427C1.68454 13.7809 2.65761 13.291 3.89471 13.1381C4.1904 13.1015 5.15422 13.101 5.4805 13.1372C7.41609 13.3519 8.57015 14.2524 8.84066 15.7591C8.86346 15.886 8.88585 16.0705 8.89043 16.1691L8.89876 16.3483H7.42394H5.94914L5.93206 16.1894C5.89507 15.8451 5.7496 15.6508 5.40034 15.4793C5.13892 15.3509 4.87796 15.3067 4.47433 15.3224C3.80666 15.3485 3.52844 15.5372 3.52721 15.9649C3.52657 16.1744 3.61281 16.3357 3.79551 16.4669C4.07061 16.6644 4.42058 16.7705 5.53852 16.9952C7.25313 17.3397 8.08017 17.6722 8.65307 18.2471C9.11767 18.7134 9.32604 19.2777 9.32604 20.0697C9.32604 21.3412 8.73491 22.2932 7.58163 22.879C7.05386 23.1471 6.34517 23.3441 5.59074 23.4323C5.08626 23.4914 4.14865 23.4847 3.71522 23.4191Z" fill="#E95128"/>
<path d="M35.2379 0.367188H6.44531V10.1023H35.2379V0.367188Z" fill="#6D9AD3"/>
<path d="M35.2374 0.367188H15.0703V10.1023H35.2374V0.367188Z" fill="#1C64B0"/>
</svg>
