<svg width="42" height="28" viewBox="0 0 42 28" fill="none" xmlns="http://www.w3.org/2000/svg">
<rect x="0.5" y="1.28906" width="41" height="26" rx="6.5" fill="white" stroke="#BABABA"/>
<path d="M11.4816 9.33616C11.13 9.74149 10.5674 10.0612 10.0048 10.0155C9.93451 9.46746 10.2099 8.88516 10.5322 8.5255C10.8838 8.10876 11.4991 7.8119 11.9973 7.78906C12.0559 8.35995 11.8273 8.91941 11.4816 9.33616ZM11.9914 10.124C11.1768 10.0783 10.4795 10.575 10.0927 10.575C9.70011 10.575 9.10825 10.1468 8.46364 10.1582C7.62566 10.1697 6.84627 10.6321 6.41849 11.3685C5.53948 12.8414 6.18994 15.0222 7.03965 16.221C7.45571 16.8148 7.95382 17.4656 8.61014 17.4427C9.23131 17.4199 9.47743 17.0488 10.2275 17.0488C10.9835 17.0488 11.2003 17.4427 11.8566 17.4313C12.5364 17.4199 12.9642 16.8376 13.3802 16.2439C13.8549 15.5702 14.0483 14.9137 14.06 14.8795C14.0483 14.868 12.7473 14.3828 12.7356 12.9213C12.7239 11.6996 13.7611 11.1173 13.808 11.0831C13.222 10.2382 12.3078 10.1468 11.9914 10.124ZM16.697 8.46842V17.3685H18.1151V14.3257H20.0783C21.8714 14.3257 23.1313 13.1268 23.1313 11.3913C23.1313 9.65586 21.8949 8.46842 20.1251 8.46842H16.697ZM18.1151 9.63302H19.7501C20.9807 9.63302 21.6839 10.2724 21.6839 11.3971C21.6839 12.5217 20.9807 13.1668 19.7442 13.1668H18.1151V9.63302ZM25.7215 17.437C26.6122 17.437 27.4385 16.9974 27.8135 16.301H27.8428V17.3685H29.1555V12.9384C29.1555 11.654 28.1007 10.8262 26.4774 10.8262C24.9714 10.8262 23.858 11.6654 23.817 12.8186H25.0945C25.1999 12.2705 25.7215 11.9109 26.4364 11.9109C27.3037 11.9109 27.7901 12.3048 27.7901 13.0298V13.5207L26.0203 13.6235C24.3737 13.7206 23.4829 14.3771 23.4829 15.5188C23.4829 16.672 24.403 17.437 25.7215 17.437ZM26.1024 16.3809C25.3464 16.3809 24.8659 16.0269 24.8659 15.4846C24.8659 14.9251 25.3289 14.5997 26.2137 14.5483L27.7901 14.4513V14.9537C27.7901 15.7872 27.0634 16.3809 26.1024 16.3809ZM30.9076 19.7891C32.2906 19.7891 32.9411 19.2753 33.5095 17.7168L36 10.9118H34.5584L32.8883 16.1697H32.859L31.1889 10.9118H29.7063L32.1089 17.3913L31.98 17.7853C31.7632 18.4532 31.4116 18.7101 30.7846 18.7101C30.6732 18.7101 30.4564 18.6987 30.3685 18.6873V19.7548C30.4505 19.7776 30.8021 19.7891 30.9076 19.7891Z" fill="#BABABA"/>
</svg>
