<svg width="43" height="28" viewBox="0 0 43 28" fill="none" xmlns="http://www.w3.org/2000/svg">
<rect x="1.09998" y="1.0708" width="41" height="26" rx="6.5" fill="white" stroke="#F3D869"/>
<path d="M21.1975 13.9649V17.7998H19.9607V8.31555H23.1775C23.9607 8.31555 24.7025 8.60366 25.2807 9.13991C25.8582 9.63426 26.1469 10.3768 26.1469 11.1605C26.1469 11.9443 25.8588 12.6449 25.2807 13.1811C24.7032 13.7174 24.0025 14.0055 23.1775 14.0055L21.1975 13.9649ZM21.1975 9.46991V12.7693H23.26C23.7138 12.7693 24.1675 12.6036 24.4563 12.2749C25.1163 11.6568 25.1163 10.6256 24.4969 10.0068L24.4563 9.96491C24.1263 9.63491 23.7138 9.42866 23.26 9.47055H21.1975V9.46991Z" fill="#F3D869"/>
<path d="M28.9919 11.1202C29.8994 11.1202 30.6 11.3671 31.1362 11.8627C31.6725 12.3571 31.9193 13.0171 31.9193 13.8421V17.8014H30.765V16.8939H30.7244C30.23 17.6364 29.5281 18.0077 28.7038 18.0077C28.0032 18.0077 27.3838 17.8014 26.8894 17.3896C26.4357 16.9771 26.1469 16.3996 26.1469 15.7815C26.1469 15.1215 26.3944 14.5865 26.8894 14.1734C27.3838 13.7609 28.0844 13.5959 28.91 13.5959C29.6525 13.5959 30.23 13.7196 30.6831 14.0084V13.7203C30.6831 13.3078 30.5188 12.8959 30.1888 12.6478C29.8588 12.3597 29.4463 12.194 28.9925 12.194C28.2919 12.194 27.7557 12.4821 27.3844 13.0603L26.3119 12.4003C26.9713 11.5321 27.8375 11.1202 28.9919 11.1202ZM27.425 15.8208C27.425 16.1508 27.5894 16.4389 27.8375 16.6039C28.1256 16.8102 28.4556 16.9339 28.7856 16.9339C29.28 16.9339 29.7756 16.7277 30.1462 16.3571C30.5587 15.9852 30.7643 15.5327 30.7643 15.0371C30.3937 14.7489 29.8568 14.5833 29.1562 14.5833C28.6619 14.5833 28.2487 14.7071 27.9194 14.9539C27.5894 15.1608 27.425 15.4496 27.425 15.8208Z" fill="#F3D869"/>
<path d="M38.6 11.3257L34.5182 20.6856H33.2801L34.8063 17.4281L32.1257 11.3663H33.4457L35.3832 16.0256H35.4244L37.3213 11.3663H38.6V11.3257Z" fill="#F3D869"/>
<path d="M16.2914 13.1404C16.2914 12.7685 16.2495 12.3979 16.2089 12.0266H11.0546V14.1297H13.982C13.8583 14.7897 13.4877 15.4078 12.9095 15.7791V17.1397H14.6826C15.7132 16.1916 16.2914 14.7891 16.2914 13.1404Z" fill="#F3D869"/>
<path d="M11.0534 18.4593C12.5378 18.4593 13.7746 17.965 14.6828 17.1393L12.9097 15.7787C12.4153 16.1087 11.7959 16.315 11.0547 16.315C9.65222 16.315 8.41537 15.3669 8.00351 14.0469H6.18787V15.4494C7.13597 17.305 8.99222 18.4593 11.0534 18.4593Z" fill="#F3D869"/>
<path d="M8.00214 14.0478C7.75464 13.3878 7.75464 12.6453 8.00214 11.9447V10.5422H6.18779C5.40404 12.0685 5.40404 13.8828 6.18779 15.4497L8.00214 14.0478Z" fill="#F3D869"/>
<path d="M11.0532 9.71746C11.8369 9.71746 12.5794 10.0056 13.1563 10.5418L14.7238 8.97496C13.7338 8.06811 12.4144 7.53186 11.0944 7.57247C9.03195 7.57247 7.13638 8.72682 6.22888 10.5831L8.04324 11.9843C8.41449 10.6662 9.65134 9.71746 11.0532 9.71746Z" fill="#F3D869"/>
</svg>
