<svg width="30" height="31" viewBox="0 0 30 31" fill="none" xmlns="http://www.w3.org/2000/svg">
<path d="M21.9725 6.16891L19.4725 4.85641C17.2775 3.70516 16.18 3.12891 15 3.12891C13.82 3.12891 12.7225 3.70391 10.5275 4.85641L10.1262 5.06766L21.28 11.4414L26.3 8.92891C25.4925 8.01391 24.19 7.33016 21.9725 6.16641V6.16891ZM27.185 10.5839L22.1875 13.0839V16.8789C22.1875 17.1275 22.0887 17.366 21.9129 17.5418C21.7371 17.7176 21.4986 17.8164 21.25 17.8164C21.0014 17.8164 20.7629 17.7176 20.5871 17.5418C20.4113 17.366 20.3125 17.1275 20.3125 16.8789V14.0202L15.9375 16.2077V28.0089C16.835 27.7852 17.8562 27.2502 19.4725 26.4014L21.9725 25.0889C24.6612 23.6777 26.0063 22.9727 26.7537 21.7039C27.5 20.4364 27.5 18.8577 27.5 15.7039V15.5577C27.5 13.1914 27.5 11.7114 27.185 10.5839ZM14.0625 28.0089V16.2089L2.815 10.5839C2.5 11.7114 2.5 13.1914 2.5 15.5552V15.7014C2.5 18.8577 2.5 20.4364 3.24625 21.7039C3.99375 22.9727 5.33875 23.6789 8.0275 25.0902L10.5275 26.4014C12.1438 27.2502 13.165 27.7852 14.0625 28.0089ZM3.7 8.93016L15 14.5802L19.2638 12.4489L8.15625 6.10141L8.0275 6.16891C5.81125 7.33141 4.5075 8.01516 3.7 8.93141V8.93016Z" fill="black"/>
<path d="M21.9725 6.16891L19.4725 4.85641C17.2775 3.70516 16.18 3.12891 15 3.12891C13.82 3.12891 12.7225 3.70391 10.5275 4.85641L10.1262 5.06766L21.28 11.4414L26.3 8.92891C25.4925 8.01391 24.19 7.33016 21.9725 6.16641V6.16891ZM27.185 10.5839L22.1875 13.0839V16.8789C22.1875 17.1275 22.0887 17.366 21.9129 17.5418C21.7371 17.7176 21.4986 17.8164 21.25 17.8164C21.0014 17.8164 20.7629 17.7176 20.5871 17.5418C20.4113 17.366 20.3125 17.1275 20.3125 16.8789V14.0202L15.9375 16.2077V28.0089C16.835 27.7852 17.8562 27.2502 19.4725 26.4014L21.9725 25.0889C24.6612 23.6777 26.0063 22.9727 26.7537 21.7039C27.5 20.4364 27.5 18.8577 27.5 15.7039V15.5577C27.5 13.1914 27.5 11.7114 27.185 10.5839ZM14.0625 28.0089V16.2089L2.815 10.5839C2.5 11.7114 2.5 13.1914 2.5 15.5552V15.7014C2.5 18.8577 2.5 20.4364 3.24625 21.7039C3.99375 22.9727 5.33875 23.6789 8.0275 25.0902L10.5275 26.4014C12.1438 27.2502 13.165 27.7852 14.0625 28.0089ZM3.7 8.93016L15 14.5802L19.2638 12.4489L8.15625 6.10141L8.0275 6.16891C5.81125 7.33141 4.5075 8.01516 3.7 8.93141V8.93016Z" fill="black"/>
<path d="M21.9725 6.16891L19.4725 4.85641C17.2775 3.70516 16.18 3.12891 15 3.12891C13.82 3.12891 12.7225 3.70391 10.5275 4.85641L10.1262 5.06766L21.28 11.4414L26.3 8.92891C25.4925 8.01391 24.19 7.33016 21.9725 6.16641V6.16891ZM27.185 10.5839L22.1875 13.0839V16.8789C22.1875 17.1275 22.0887 17.366 21.9129 17.5418C21.7371 17.7176 21.4986 17.8164 21.25 17.8164C21.0014 17.8164 20.7629 17.7176 20.5871 17.5418C20.4113 17.366 20.3125 17.1275 20.3125 16.8789V14.0202L15.9375 16.2077V28.0089C16.835 27.7852 17.8562 27.2502 19.4725 26.4014L21.9725 25.0889C24.6612 23.6777 26.0063 22.9727 26.7537 21.7039C27.5 20.4364 27.5 18.8577 27.5 15.7039V15.5577C27.5 13.1914 27.5 11.7114 27.185 10.5839ZM14.0625 28.0089V16.2089L2.815 10.5839C2.5 11.7114 2.5 13.1914 2.5 15.5552V15.7014C2.5 18.8577 2.5 20.4364 3.24625 21.7039C3.99375 22.9727 5.33875 23.6789 8.0275 25.0902L10.5275 26.4014C12.1438 27.2502 13.165 27.7852 14.0625 28.0089ZM3.7 8.93016L15 14.5802L19.2638 12.4489L8.15625 6.10141L8.0275 6.16891C5.81125 7.33141 4.5075 8.01516 3.7 8.93141V8.93016Z" fill="black"/>
<path d="M21.9725 6.16891L19.4725 4.85641C17.2775 3.70516 16.18 3.12891 15 3.12891C13.82 3.12891 12.7225 3.70391 10.5275 4.85641L10.1262 5.06766L21.28 11.4414L26.3 8.92891C25.4925 8.01391 24.19 7.33016 21.9725 6.16641V6.16891ZM27.185 10.5839L22.1875 13.0839V16.8789C22.1875 17.1275 22.0887 17.366 21.9129 17.5418C21.7371 17.7176 21.4986 17.8164 21.25 17.8164C21.0014 17.8164 20.7629 17.7176 20.5871 17.5418C20.4113 17.366 20.3125 17.1275 20.3125 16.8789V14.0202L15.9375 16.2077V28.0089C16.835 27.7852 17.8562 27.2502 19.4725 26.4014L21.9725 25.0889C24.6612 23.6777 26.0063 22.9727 26.7537 21.7039C27.5 20.4364 27.5 18.8577 27.5 15.7039V15.5577C27.5 13.1914 27.5 11.7114 27.185 10.5839ZM14.0625 28.0089V16.2089L2.815 10.5839C2.5 11.7114 2.5 13.1914 2.5 15.5552V15.7014C2.5 18.8577 2.5 20.4364 3.24625 21.7039C3.99375 22.9727 5.33875 23.6789 8.0275 25.0902L10.5275 26.4014C12.1438 27.2502 13.165 27.7852 14.0625 28.0089ZM3.7 8.93016L15 14.5802L19.2638 12.4489L8.15625 6.10141L8.0275 6.16891C5.81125 7.33141 4.5075 8.01516 3.7 8.93141V8.93016Z" fill="black"/>
<path d="M21.9725 6.16891L19.4725 4.85641C17.2775 3.70516 16.18 3.12891 15 3.12891C13.82 3.12891 12.7225 3.70391 10.5275 4.85641L10.1262 5.06766L21.28 11.4414L26.3 8.92891C25.4925 8.01391 24.19 7.33016 21.9725 6.16641V6.16891ZM27.185 10.5839L22.1875 13.0839V16.8789C22.1875 17.1275 22.0887 17.366 21.9129 17.5418C21.7371 17.7176 21.4986 17.8164 21.25 17.8164C21.0014 17.8164 20.7629 17.7176 20.5871 17.5418C20.4113 17.366 20.3125 17.1275 20.3125 16.8789V14.0202L15.9375 16.2077V28.0089C16.835 27.7852 17.8562 27.2502 19.4725 26.4014L21.9725 25.0889C24.6612 23.6777 26.0063 22.9727 26.7537 21.7039C27.5 20.4364 27.5 18.8577 27.5 15.7039V15.5577C27.5 13.1914 27.5 11.7114 27.185 10.5839ZM14.0625 28.0089V16.2089L2.815 10.5839C2.5 11.7114 2.5 13.1914 2.5 15.5552V15.7014C2.5 18.8577 2.5 20.4364 3.24625 21.7039C3.99375 22.9727 5.33875 23.6789 8.0275 25.0902L10.5275 26.4014C12.1438 27.2502 13.165 27.7852 14.0625 28.0089ZM3.7 8.93016L15 14.5802L19.2638 12.4489L8.15625 6.10141L8.0275 6.16891C5.81125 7.33141 4.5075 8.01516 3.7 8.93141V8.93016Z" fill="black"/>
<path d="M21.9725 6.16891L19.4725 4.85641C17.2775 3.70516 16.18 3.12891 15 3.12891C13.82 3.12891 12.7225 3.70391 10.5275 4.85641L10.1262 5.06766L21.28 11.4414L26.3 8.92891C25.4925 8.01391 24.19 7.33016 21.9725 6.16641V6.16891ZM27.185 10.5839L22.1875 13.0839V16.8789C22.1875 17.1275 22.0887 17.366 21.9129 17.5418C21.7371 17.7176 21.4986 17.8164 21.25 17.8164C21.0014 17.8164 20.7629 17.7176 20.5871 17.5418C20.4113 17.366 20.3125 17.1275 20.3125 16.8789V14.0202L15.9375 16.2077V28.0089C16.835 27.7852 17.8562 27.2502 19.4725 26.4014L21.9725 25.0889C24.6612 23.6777 26.0063 22.9727 26.7537 21.7039C27.5 20.4364 27.5 18.8577 27.5 15.7039V15.5577C27.5 13.1914 27.5 11.7114 27.185 10.5839ZM14.0625 28.0089V16.2089L2.815 10.5839C2.5 11.7114 2.5 13.1914 2.5 15.5552V15.7014C2.5 18.8577 2.5 20.4364 3.24625 21.7039C3.99375 22.9727 5.33875 23.6789 8.0275 25.0902L10.5275 26.4014C12.1438 27.2502 13.165 27.7852 14.0625 28.0089ZM3.7 8.93016L15 14.5802L19.2638 12.4489L8.15625 6.10141L8.0275 6.16891C5.81125 7.33141 4.5075 8.01516 3.7 8.93141V8.93016Z" fill="black"/>
<path d="M21.9725 6.16891L19.4725 4.85641C17.2775 3.70516 16.18 3.12891 15 3.12891C13.82 3.12891 12.7225 3.70391 10.5275 4.85641L10.1262 5.06766L21.28 11.4414L26.3 8.92891C25.4925 8.01391 24.19 7.33016 21.9725 6.16641V6.16891ZM27.185 10.5839L22.1875 13.0839V16.8789C22.1875 17.1275 22.0887 17.366 21.9129 17.5418C21.7371 17.7176 21.4986 17.8164 21.25 17.8164C21.0014 17.8164 20.7629 17.7176 20.5871 17.5418C20.4113 17.366 20.3125 17.1275 20.3125 16.8789V14.0202L15.9375 16.2077V28.0089C16.835 27.7852 17.8562 27.2502 19.4725 26.4014L21.9725 25.0889C24.6612 23.6777 26.0063 22.9727 26.7537 21.7039C27.5 20.4364 27.5 18.8577 27.5 15.7039V15.5577C27.5 13.1914 27.5 11.7114 27.185 10.5839ZM14.0625 28.0089V16.2089L2.815 10.5839C2.5 11.7114 2.5 13.1914 2.5 15.5552V15.7014C2.5 18.8577 2.5 20.4364 3.24625 21.7039C3.99375 22.9727 5.33875 23.6789 8.0275 25.0902L10.5275 26.4014C12.1438 27.2502 13.165 27.7852 14.0625 28.0089ZM3.7 8.93016L15 14.5802L19.2638 12.4489L8.15625 6.10141L8.0275 6.16891C5.81125 7.33141 4.5075 8.01516 3.7 8.93141V8.93016Z" fill="black"/>
</svg>
