<svg width="30" height="31" viewBox="0 0 30 31" fill="none" xmlns="http://www.w3.org/2000/svg">
<g clip-path="url(#clip0_139_2250)">
<path d="M1.88064 10.9406C2.50446 8.76602 3.12829 6.59121 3.75212 4.41621C4.11364 3.15645 4.82087 2.53887 6.15798 2.53828C12.0384 2.53672 17.9189 2.53672 23.7994 2.53828C24.7674 2.53828 25.4927 2.81895 25.992 3.70547C26.1191 3.93223 26.1965 4.25742 26.2767 4.53633C26.9799 6.98438 27.6795 9.4334 28.3756 11.8834C28.4142 12.0197 28.4336 12.1588 28.4336 12.3006C28.4312 16.7299 28.4308 21.159 28.4324 25.5879C28.4324 26.084 28.4052 26.457 28.3509 26.707C28.0691 27.9943 27.0508 29.0279 25.7564 29.3221C25.5205 29.3756 25.1804 29.4023 24.7363 29.4023C18.3117 29.4031 11.8871 29.4033 5.46247 29.4029C4.91911 29.4029 4.53025 29.3789 4.29587 29.3309C2.98278 29.0619 1.93923 28.016 1.64685 26.717C1.59411 26.4822 1.56775 26.149 1.56775 25.7174C1.56618 21.2916 1.56599 16.8658 1.56716 12.44C1.56716 12.2139 1.57634 12.0646 1.5947 11.9924C1.68493 11.6404 1.78025 11.2898 1.88064 10.9406ZM15.8588 10.0699C15.5547 10.8275 14.4701 10.8521 14.1449 10.091C14.0894 9.96055 14.0617 9.75508 14.0617 9.47461C14.0621 7.79414 14.0621 6.11719 14.0617 4.44375C14.0617 4.43551 14.0584 4.42761 14.0526 4.42179C14.0468 4.41597 14.0389 4.4127 14.0306 4.4127C11.3584 4.4127 8.68552 4.4127 6.01208 4.4127C5.80642 4.4127 5.68161 4.48535 5.62653 4.67988C5.00232 6.87207 4.37829 9.06211 3.75446 11.25C3.75338 11.2538 3.7532 11.2578 3.75392 11.2617C3.75464 11.2656 3.75626 11.2693 3.75864 11.2725C3.76102 11.2757 3.76411 11.2783 3.76765 11.28C3.7712 11.2818 3.7751 11.2828 3.77907 11.2828H26.2199C26.224 11.2829 26.228 11.282 26.2317 11.2802C26.2354 11.2784 26.2386 11.2758 26.2411 11.2726C26.2436 11.2693 26.2454 11.2655 26.2461 11.2615C26.2469 11.2575 26.2468 11.2534 26.2457 11.2494C25.6437 9.13926 25.0398 7.02812 24.434 4.91602C24.3308 4.55684 24.3326 4.41211 23.8861 4.4127C21.2427 4.4127 18.6033 4.4127 15.9677 4.4127C15.9597 4.4127 15.9519 4.41591 15.9462 4.42162C15.9405 4.42733 15.9373 4.43508 15.9373 4.44316C15.9361 6.12754 15.9363 7.81113 15.9379 9.49395C15.9379 9.74668 15.9115 9.93867 15.8588 10.0699ZM3.52653 26.4779C3.78493 27.2145 4.40778 27.5279 5.1572 27.5279C11.7056 27.5279 18.2539 27.5281 24.8019 27.5285C25.9334 27.5285 26.558 26.9062 26.558 25.773C26.5564 21.5953 26.5562 17.3969 26.5574 13.1777C26.5574 13.1725 26.5553 13.1674 26.5516 13.1636C26.5478 13.1599 26.5428 13.1578 26.5375 13.1578H3.47146C3.46353 13.1578 3.45593 13.1609 3.45033 13.1664C3.44472 13.1719 3.44157 13.1793 3.44157 13.1871C3.44118 17.3641 3.44138 21.5412 3.44216 25.7186C3.44216 26.0643 3.47028 26.3174 3.52653 26.4779Z" fill="#5A7BBC"/>
<path d="M22.5242 22.5371H18.7227C18.2243 22.5371 17.8203 22.9411 17.8203 23.4395V23.5004C17.8203 23.9987 18.2243 24.4027 18.7227 24.4027H22.5242C23.0226 24.4027 23.4266 23.9987 23.4266 23.5004V23.4395C23.4266 22.9411 23.0226 22.5371 22.5242 22.5371Z" fill="#5A7BBC"/>
</g>
<defs>
<clipPath id="clip0_139_2250">
<rect width="30" height="30" fill="white" transform="translate(0 0.970703)"/>
</clipPath>
</defs>
</svg>
