<svg width="25" height="25" viewBox="0 0 25 25" fill="none" xmlns="http://www.w3.org/2000/svg">
<path d="M2.5 3.78906V3.03906C2.30109 3.03906 2.11032 3.11808 1.96967 3.25873C1.82902 3.39938 1.75 3.59015 1.75 3.78906H2.5ZM13.5 3.78906H14.25C14.25 3.59015 14.171 3.39938 14.0303 3.25873C13.8897 3.11808 13.6989 3.03906 13.5 3.03906V3.78906ZM13.5 9.78906V9.03906C13.3011 9.03906 13.1103 9.11808 12.9697 9.25873C12.829 9.39938 12.75 9.59015 12.75 9.78906H13.5ZM2.5 4.53906H13.5V3.03906H2.5V4.53906ZM12.75 3.78906V19.7891H14.25V3.78906H12.75ZM3.25 17.7891V3.78906H1.75V17.7891H3.25ZM13.5 10.5391H18.5V9.03906H13.5V10.5391ZM21.75 13.7891V17.7891H23.25V13.7891H21.75ZM14.25 19.7891V9.78906H12.75V19.7891H14.25ZM19.384 20.6731C19.2679 20.7892 19.1301 20.8813 18.9784 20.9441C18.8268 21.007 18.6642 21.0393 18.5 21.0393C18.3358 21.0393 18.1732 21.007 18.0216 20.9441C17.8699 20.8813 17.7321 20.7892 17.616 20.6731L16.556 21.7331C17.0717 22.2488 17.7712 22.5385 18.5005 22.5385C19.2298 22.5385 19.9293 22.2488 20.445 21.7331L19.384 20.6731ZM17.616 18.9051C17.7321 18.789 17.8699 18.6969 18.0216 18.634C18.1732 18.5712 18.3358 18.5388 18.5 18.5388C18.6642 18.5388 18.8268 18.5712 18.9784 18.634C19.1301 18.6969 19.2679 18.789 19.384 18.9051L20.444 17.8451C19.9283 17.3294 19.2288 17.0396 18.4995 17.0396C17.7702 17.0396 17.0707 17.3294 16.555 17.8451L17.616 18.9051ZM7.384 20.6731C7.26792 20.7892 7.13011 20.8813 6.97843 20.9441C6.82675 21.007 6.66418 21.0393 6.5 21.0393C6.33582 21.0393 6.17325 21.007 6.02157 20.9441C5.86989 20.8813 5.73208 20.7892 5.616 20.6731L4.556 21.7331C5.07172 22.2488 5.77118 22.5385 6.5005 22.5385C7.22982 22.5385 7.92928 22.2488 8.445 21.7331L7.384 20.6731ZM5.616 18.9051C5.73208 18.789 5.86989 18.6969 6.02157 18.634C6.17325 18.5712 6.33582 18.5388 6.5 18.5388C6.66418 18.5388 6.82675 18.5712 6.97843 18.634C7.13011 18.6969 7.26792 18.789 7.384 18.9051L8.444 17.8451C7.92828 17.3294 7.22882 17.0396 6.4995 17.0396C5.77018 17.0396 5.07072 17.3294 4.555 17.8451L5.616 18.9051ZM19.384 18.9051C19.628 19.1491 19.75 19.4681 19.75 19.7891H21.25C21.25 19.0861 20.981 18.3811 20.445 17.8441L19.384 18.9051ZM19.75 19.7891C19.75 20.1101 19.628 20.4291 19.384 20.6731L20.445 21.7331C20.7007 21.478 20.9025 21.175 21.0408 20.8414C21.1792 20.5078 21.2502 20.1502 21.25 19.7891H19.75ZM16.5 19.0391H13.5V20.5391H16.5V19.0391ZM17.616 20.6731C17.4997 20.5572 17.4074 20.4194 17.3446 20.2677C17.2818 20.1159 17.2496 19.9533 17.25 19.7891H15.75C15.75 20.4921 16.019 21.1971 16.555 21.7341L17.616 20.6731ZM17.25 19.7891C17.25 19.4681 17.372 19.1491 17.616 18.9051L16.555 17.8451C16.2993 18.1001 16.0975 18.4031 15.9592 18.7367C15.8208 19.0703 15.7498 19.4279 15.75 19.7891H17.25ZM5.616 20.6731C5.49967 20.5572 5.40743 20.4194 5.34461 20.2677C5.2818 20.1159 5.24964 19.9533 5.25 19.7891H3.75C3.75 20.4921 4.019 21.1971 4.555 21.7341L5.616 20.6731ZM5.25 19.7891C5.25 19.4681 5.372 19.1491 5.616 18.9051L4.556 17.8451C4.30034 18.1001 4.09754 18.4031 3.95923 18.7367C3.82092 19.0703 3.74982 19.4279 3.75 19.7891H5.25ZM13.5 19.0391H8.5V20.5391H13.5V19.0391ZM7.384 18.9051C7.628 19.1491 7.75 19.4681 7.75 19.7891H9.25C9.25 19.0861 8.981 18.3811 8.445 17.8441L7.384 18.9051ZM7.75 19.7891C7.75 20.1101 7.628 20.4291 7.384 20.6731L8.444 21.7331C8.69966 21.478 8.90246 21.175 9.04077 20.8414C9.17908 20.5078 9.25018 20.1502 9.25 19.7891H7.75ZM21.75 17.7891C21.75 18.4791 21.19 19.0391 20.5 19.0391V20.5391C21.2293 20.5391 21.9288 20.2493 22.4445 19.7336C22.9603 19.2179 23.25 18.5184 23.25 17.7891H21.75ZM18.5 10.5391C19.362 10.5391 20.1886 10.8815 20.7981 11.491C21.4076 12.1005 21.75 12.9271 21.75 13.7891H23.25C23.25 12.5293 22.7496 11.3211 21.8588 10.4303C20.968 9.53951 19.7598 9.03906 18.5 9.03906V10.5391ZM1.75 17.7891C1.75 18.5184 2.03973 19.2179 2.55546 19.7336C3.07118 20.2493 3.77065 20.5391 4.5 20.5391V19.0391C3.81 19.0391 3.25 18.4791 3.25 17.7891H1.75Z" fill="black"/>
</svg>
