<svg width="30" height="31" viewBox="0 0 30 31" fill="none" xmlns="http://www.w3.org/2000/svg">
<path d="M15 4.85156C8.95937 4.85156 4.0625 9.74844 4.0625 15.7891C4.0625 21.8297 8.95937 26.7266 15 26.7266C21.0406 26.7266 25.9375 21.8297 25.9375 15.7891C25.9375 9.74844 21.0406 4.85156 15 4.85156ZM2.5 15.7891C2.5 8.88531 8.09625 3.28906 15 3.28906C21.9037 3.28906 27.5 8.88531 27.5 15.7891C27.5 22.6928 21.9037 28.2891 15 28.2891C8.09625 28.2891 2.5 22.6928 2.5 15.7891ZM15 13.2891C15.4312 13.2891 15.7812 13.6391 15.7812 14.0703V21.8828C15.7812 22.09 15.6989 22.2887 15.5524 22.4352C15.4059 22.5818 15.2072 22.6641 15 22.6641C14.7928 22.6641 14.5941 22.5818 14.4476 22.4352C14.3011 22.2887 14.2188 22.09 14.2188 21.8828V14.0703C14.2188 13.6391 14.5688 13.2891 15 13.2891ZM15 11.4141C15.3315 11.4141 15.6495 11.2824 15.8839 11.0479C16.1183 10.8135 16.25 10.4956 16.25 10.1641C16.25 9.83254 16.1183 9.5146 15.8839 9.28018C15.6495 9.04576 15.3315 8.91406 15 8.91406C14.6685 8.91406 14.3505 9.04576 14.1161 9.28018C13.8817 9.5146 13.75 9.83254 13.75 10.1641C13.75 10.4956 13.8817 10.8135 14.1161 11.0479C14.3505 11.2824 14.6685 11.4141 15 11.4141Z" fill="black"/>
</svg>
