<svg width="30" height="31" viewBox="0 0 30 31" fill="none" xmlns="http://www.w3.org/2000/svg">
<path fill-rule="evenodd" clip-rule="evenodd" d="M3 4.93897C3 4.63399 3.11493 4.34151 3.31952 4.12586C3.5241 3.91021 3.80158 3.78906 4.09091 3.78906H16.0909C16.3802 3.78906 16.6577 3.91021 16.8623 4.12586C17.0669 4.34151 17.1818 4.63399 17.1818 4.93897V10.6885H21.5455C22.2618 10.6885 22.971 10.8372 23.6328 11.1261C24.2946 11.4151 24.8959 11.8386 25.4024 12.3725C25.9089 12.9064 26.3107 13.5402 26.5848 14.2378C26.8589 14.9353 27 15.683 27 16.438V21.0376C27.0001 21.7779 26.7744 22.4985 26.3562 23.0932C25.938 23.6879 25.3494 24.125 24.6775 24.3401C24.4774 25.0358 24.0739 25.6471 23.5247 26.0867C22.9754 26.5264 22.3084 26.7719 21.6189 26.7882C20.9295 26.8045 20.2527 26.5908 19.6853 26.1776C19.1179 25.7644 18.6888 25.1729 18.4593 24.4873H11.5418C11.3123 25.1729 10.8832 25.7644 10.3158 26.1776C9.74838 26.5908 9.07163 26.8045 8.38214 26.7882C7.69266 26.7719 7.02568 26.5264 6.47643 26.0867C5.92717 25.6471 5.52371 25.0358 5.32364 24.3401C4.65146 24.1252 4.06268 23.6882 3.64425 23.0935C3.22583 22.4988 2.99996 21.778 3 21.0376V16.438H9.54545C9.83478 16.438 10.1123 16.3169 10.3168 16.1012C10.5214 15.8856 10.6364 15.5931 10.6364 15.2881C10.6364 14.9831 10.5214 14.6906 10.3168 14.475C10.1123 14.2593 9.83478 14.1382 9.54545 14.1382H3V11.8384H7.36364C7.65296 11.8384 7.93044 11.7172 8.13503 11.5016C8.33961 11.2859 8.45455 10.9935 8.45455 10.6885C8.45455 10.3835 8.33961 10.091 8.13503 9.87538C7.93044 9.65973 7.65296 9.53858 7.36364 9.53858H3V4.93897ZM17.1818 22.1875H18.4593C18.6749 21.5441 19.0668 20.9825 19.5853 20.5739C20.1038 20.1653 20.7256 19.9279 21.3721 19.8918C22.0186 19.8558 22.6607 20.0226 23.2172 20.3713C23.7737 20.7199 24.2197 21.2348 24.4985 21.8506C24.6 21.744 24.6805 21.6172 24.7353 21.4777C24.7902 21.3382 24.8183 21.1886 24.8182 21.0376V16.438C24.8182 15.5231 24.4734 14.6456 23.8596 13.9987C23.2459 13.3517 22.4134 12.9883 21.5455 12.9883H17.1818V22.1875ZM9.54545 23.3374C9.54545 23.0325 9.43052 22.74 9.22593 22.5243C9.02135 22.3087 8.74387 22.1875 8.45455 22.1875C8.16522 22.1875 7.88774 22.3087 7.68316 22.5243C7.47857 22.74 7.36364 23.0325 7.36364 23.3374C7.36364 23.6424 7.47857 23.9349 7.68316 24.1505C7.88774 24.3662 8.16522 24.4873 8.45455 24.4873C8.74387 24.4873 9.02135 24.3662 9.22593 24.1505C9.43052 23.9349 9.54545 23.6424 9.54545 23.3374ZM20.7742 22.5244C20.6726 22.631 20.592 22.7577 20.5372 22.8972C20.4823 23.0368 20.4542 23.1864 20.4545 23.3374C20.4545 23.6035 20.542 23.8613 20.702 24.067C20.8621 24.2727 21.0849 24.4135 21.3324 24.4654C21.5799 24.5174 21.8369 24.4773 22.0595 24.3519C22.2821 24.2265 22.4566 24.0237 22.5532 23.7779C22.6499 23.5321 22.6627 23.2587 22.5894 23.0041C22.5162 22.7495 22.3615 22.5295 22.1517 22.3817C21.9419 22.2338 21.6899 22.1672 21.4387 22.1933C21.1875 22.2193 20.9527 22.3364 20.7742 22.5244Z" fill="black"/>
<path fill-rule="evenodd" clip-rule="evenodd" d="M3 4.93897C3 4.63399 3.11493 4.34151 3.31952 4.12586C3.5241 3.91021 3.80158 3.78906 4.09091 3.78906H16.0909C16.3802 3.78906 16.6577 3.91021 16.8623 4.12586C17.0669 4.34151 17.1818 4.63399 17.1818 4.93897V10.6885H21.5455C22.2618 10.6885 22.971 10.8372 23.6328 11.1261C24.2946 11.4151 24.8959 11.8386 25.4024 12.3725C25.9089 12.9064 26.3107 13.5402 26.5848 14.2378C26.8589 14.9353 27 15.683 27 16.438V21.0376C27.0001 21.7779 26.7744 22.4985 26.3562 23.0932C25.938 23.6879 25.3494 24.125 24.6775 24.3401C24.4774 25.0358 24.0739 25.6471 23.5247 26.0867C22.9754 26.5264 22.3084 26.7719 21.6189 26.7882C20.9295 26.8045 20.2527 26.5908 19.6853 26.1776C19.1179 25.7644 18.6888 25.1729 18.4593 24.4873H11.5418C11.3123 25.1729 10.8832 25.7644 10.3158 26.1776C9.74838 26.5908 9.07163 26.8045 8.38214 26.7882C7.69266 26.7719 7.02568 26.5264 6.47643 26.0867C5.92717 25.6471 5.52371 25.0358 5.32364 24.3401C4.65146 24.1252 4.06268 23.6882 3.64425 23.0935C3.22583 22.4988 2.99996 21.778 3 21.0376V16.438H9.54545C9.83478 16.438 10.1123 16.3169 10.3168 16.1012C10.5214 15.8856 10.6364 15.5931 10.6364 15.2881C10.6364 14.9831 10.5214 14.6906 10.3168 14.475C10.1123 14.2593 9.83478 14.1382 9.54545 14.1382H3V11.8384H7.36364C7.65296 11.8384 7.93044 11.7172 8.13503 11.5016C8.33961 11.2859 8.45455 10.9935 8.45455 10.6885C8.45455 10.3835 8.33961 10.091 8.13503 9.87538C7.93044 9.65973 7.65296 9.53858 7.36364 9.53858H3V4.93897ZM17.1818 22.1875H18.4593C18.6749 21.5441 19.0668 20.9825 19.5853 20.5739C20.1038 20.1653 20.7256 19.9279 21.3721 19.8918C22.0186 19.8558 22.6607 20.0226 23.2172 20.3713C23.7737 20.7199 24.2197 21.2348 24.4985 21.8506C24.6 21.744 24.6805 21.6172 24.7353 21.4777C24.7902 21.3382 24.8183 21.1886 24.8182 21.0376V16.438C24.8182 15.5231 24.4734 14.6456 23.8596 13.9987C23.2459 13.3517 22.4134 12.9883 21.5455 12.9883H17.1818V22.1875ZM9.54545 23.3374C9.54545 23.0325 9.43052 22.74 9.22593 22.5243C9.02135 22.3087 8.74387 22.1875 8.45455 22.1875C8.16522 22.1875 7.88774 22.3087 7.68316 22.5243C7.47857 22.74 7.36364 23.0325 7.36364 23.3374C7.36364 23.6424 7.47857 23.9349 7.68316 24.1505C7.88774 24.3662 8.16522 24.4873 8.45455 24.4873C8.74387 24.4873 9.02135 24.3662 9.22593 24.1505C9.43052 23.9349 9.54545 23.6424 9.54545 23.3374ZM20.7742 22.5244C20.6726 22.631 20.592 22.7577 20.5372 22.8972C20.4823 23.0368 20.4542 23.1864 20.4545 23.3374C20.4545 23.6035 20.542 23.8613 20.702 24.067C20.8621 24.2727 21.0849 24.4135 21.3324 24.4654C21.5799 24.5174 21.8369 24.4773 22.0595 24.3519C22.2821 24.2265 22.4566 24.0237 22.5532 23.7779C22.6499 23.5321 22.6627 23.2587 22.5894 23.0041C22.5162 22.7495 22.3615 22.5295 22.1517 22.3817C21.9419 22.2338 21.6899 22.1672 21.4387 22.1933C21.1875 22.2193 20.9527 22.3364 20.7742 22.5244Z" fill="black"/>
<path fill-rule="evenodd" clip-rule="evenodd" d="M3 4.93897C3 4.63399 3.11493 4.34151 3.31952 4.12586C3.5241 3.91021 3.80158 3.78906 4.09091 3.78906H16.0909C16.3802 3.78906 16.6577 3.91021 16.8623 4.12586C17.0669 4.34151 17.1818 4.63399 17.1818 4.93897V10.6885H21.5455C22.2618 10.6885 22.971 10.8372 23.6328 11.1261C24.2946 11.4151 24.8959 11.8386 25.4024 12.3725C25.9089 12.9064 26.3107 13.5402 26.5848 14.2378C26.8589 14.9353 27 15.683 27 16.438V21.0376C27.0001 21.7779 26.7744 22.4985 26.3562 23.0932C25.938 23.6879 25.3494 24.125 24.6775 24.3401C24.4774 25.0358 24.0739 25.6471 23.5247 26.0867C22.9754 26.5264 22.3084 26.7719 21.6189 26.7882C20.9295 26.8045 20.2527 26.5908 19.6853 26.1776C19.1179 25.7644 18.6888 25.1729 18.4593 24.4873H11.5418C11.3123 25.1729 10.8832 25.7644 10.3158 26.1776C9.74838 26.5908 9.07163 26.8045 8.38214 26.7882C7.69266 26.7719 7.02568 26.5264 6.47643 26.0867C5.92717 25.6471 5.52371 25.0358 5.32364 24.3401C4.65146 24.1252 4.06268 23.6882 3.64425 23.0935C3.22583 22.4988 2.99996 21.778 3 21.0376V16.438H9.54545C9.83478 16.438 10.1123 16.3169 10.3168 16.1012C10.5214 15.8856 10.6364 15.5931 10.6364 15.2881C10.6364 14.9831 10.5214 14.6906 10.3168 14.475C10.1123 14.2593 9.83478 14.1382 9.54545 14.1382H3V11.8384H7.36364C7.65296 11.8384 7.93044 11.7172 8.13503 11.5016C8.33961 11.2859 8.45455 10.9935 8.45455 10.6885C8.45455 10.3835 8.33961 10.091 8.13503 9.87538C7.93044 9.65973 7.65296 9.53858 7.36364 9.53858H3V4.93897ZM17.1818 22.1875H18.4593C18.6749 21.5441 19.0668 20.9825 19.5853 20.5739C20.1038 20.1653 20.7256 19.9279 21.3721 19.8918C22.0186 19.8558 22.6607 20.0226 23.2172 20.3713C23.7737 20.7199 24.2197 21.2348 24.4985 21.8506C24.6 21.744 24.6805 21.6172 24.7353 21.4777C24.7902 21.3382 24.8183 21.1886 24.8182 21.0376V16.438C24.8182 15.5231 24.4734 14.6456 23.8596 13.9987C23.2459 13.3517 22.4134 12.9883 21.5455 12.9883H17.1818V22.1875ZM9.54545 23.3374C9.54545 23.0325 9.43052 22.74 9.22593 22.5243C9.02135 22.3087 8.74387 22.1875 8.45455 22.1875C8.16522 22.1875 7.88774 22.3087 7.68316 22.5243C7.47857 22.74 7.36364 23.0325 7.36364 23.3374C7.36364 23.6424 7.47857 23.9349 7.68316 24.1505C7.88774 24.3662 8.16522 24.4873 8.45455 24.4873C8.74387 24.4873 9.02135 24.3662 9.22593 24.1505C9.43052 23.9349 9.54545 23.6424 9.54545 23.3374ZM20.7742 22.5244C20.6726 22.631 20.592 22.7577 20.5372 22.8972C20.4823 23.0368 20.4542 23.1864 20.4545 23.3374C20.4545 23.6035 20.542 23.8613 20.702 24.067C20.8621 24.2727 21.0849 24.4135 21.3324 24.4654C21.5799 24.5174 21.8369 24.4773 22.0595 24.3519C22.2821 24.2265 22.4566 24.0237 22.5532 23.7779C22.6499 23.5321 22.6627 23.2587 22.5894 23.0041C22.5162 22.7495 22.3615 22.5295 22.1517 22.3817C21.9419 22.2338 21.6899 22.1672 21.4387 22.1933C21.1875 22.2193 20.9527 22.3364 20.7742 22.5244Z" fill="black"/>
<path fill-rule="evenodd" clip-rule="evenodd" d="M3 4.93897C3 4.63399 3.11493 4.34151 3.31952 4.12586C3.5241 3.91021 3.80158 3.78906 4.09091 3.78906H16.0909C16.3802 3.78906 16.6577 3.91021 16.8623 4.12586C17.0669 4.34151 17.1818 4.63399 17.1818 4.93897V10.6885H21.5455C22.2618 10.6885 22.971 10.8372 23.6328 11.1261C24.2946 11.4151 24.8959 11.8386 25.4024 12.3725C25.9089 12.9064 26.3107 13.5402 26.5848 14.2378C26.8589 14.9353 27 15.683 27 16.438V21.0376C27.0001 21.7779 26.7744 22.4985 26.3562 23.0932C25.938 23.6879 25.3494 24.125 24.6775 24.3401C24.4774 25.0358 24.0739 25.6471 23.5247 26.0867C22.9754 26.5264 22.3084 26.7719 21.6189 26.7882C20.9295 26.8045 20.2527 26.5908 19.6853 26.1776C19.1179 25.7644 18.6888 25.1729 18.4593 24.4873H11.5418C11.3123 25.1729 10.8832 25.7644 10.3158 26.1776C9.74838 26.5908 9.07163 26.8045 8.38214 26.7882C7.69266 26.7719 7.02568 26.5264 6.47643 26.0867C5.92717 25.6471 5.52371 25.0358 5.32364 24.3401C4.65146 24.1252 4.06268 23.6882 3.64425 23.0935C3.22583 22.4988 2.99996 21.778 3 21.0376V16.438H9.54545C9.83478 16.438 10.1123 16.3169 10.3168 16.1012C10.5214 15.8856 10.6364 15.5931 10.6364 15.2881C10.6364 14.9831 10.5214 14.6906 10.3168 14.475C10.1123 14.2593 9.83478 14.1382 9.54545 14.1382H3V11.8384H7.36364C7.65296 11.8384 7.93044 11.7172 8.13503 11.5016C8.33961 11.2859 8.45455 10.9935 8.45455 10.6885C8.45455 10.3835 8.33961 10.091 8.13503 9.87538C7.93044 9.65973 7.65296 9.53858 7.36364 9.53858H3V4.93897ZM17.1818 22.1875H18.4593C18.6749 21.5441 19.0668 20.9825 19.5853 20.5739C20.1038 20.1653 20.7256 19.9279 21.3721 19.8918C22.0186 19.8558 22.6607 20.0226 23.2172 20.3713C23.7737 20.7199 24.2197 21.2348 24.4985 21.8506C24.6 21.744 24.6805 21.6172 24.7353 21.4777C24.7902 21.3382 24.8183 21.1886 24.8182 21.0376V16.438C24.8182 15.5231 24.4734 14.6456 23.8596 13.9987C23.2459 13.3517 22.4134 12.9883 21.5455 12.9883H17.1818V22.1875ZM9.54545 23.3374C9.54545 23.0325 9.43052 22.74 9.22593 22.5243C9.02135 22.3087 8.74387 22.1875 8.45455 22.1875C8.16522 22.1875 7.88774 22.3087 7.68316 22.5243C7.47857 22.74 7.36364 23.0325 7.36364 23.3374C7.36364 23.6424 7.47857 23.9349 7.68316 24.1505C7.88774 24.3662 8.16522 24.4873 8.45455 24.4873C8.74387 24.4873 9.02135 24.3662 9.22593 24.1505C9.43052 23.9349 9.54545 23.6424 9.54545 23.3374ZM20.7742 22.5244C20.6726 22.631 20.592 22.7577 20.5372 22.8972C20.4823 23.0368 20.4542 23.1864 20.4545 23.3374C20.4545 23.6035 20.542 23.8613 20.702 24.067C20.8621 24.2727 21.0849 24.4135 21.3324 24.4654C21.5799 24.5174 21.8369 24.4773 22.0595 24.3519C22.2821 24.2265 22.4566 24.0237 22.5532 23.7779C22.6499 23.5321 22.6627 23.2587 22.5894 23.0041C22.5162 22.7495 22.3615 22.5295 22.1517 22.3817C21.9419 22.2338 21.6899 22.1672 21.4387 22.1933C21.1875 22.2193 20.9527 22.3364 20.7742 22.5244Z" fill="black"/>
<path fill-rule="evenodd" clip-rule="evenodd" d="M3 4.93897C3 4.63399 3.11493 4.34151 3.31952 4.12586C3.5241 3.91021 3.80158 3.78906 4.09091 3.78906H16.0909C16.3802 3.78906 16.6577 3.91021 16.8623 4.12586C17.0669 4.34151 17.1818 4.63399 17.1818 4.93897V10.6885H21.5455C22.2618 10.6885 22.971 10.8372 23.6328 11.1261C24.2946 11.4151 24.8959 11.8386 25.4024 12.3725C25.9089 12.9064 26.3107 13.5402 26.5848 14.2378C26.8589 14.9353 27 15.683 27 16.438V21.0376C27.0001 21.7779 26.7744 22.4985 26.3562 23.0932C25.938 23.6879 25.3494 24.125 24.6775 24.3401C24.4774 25.0358 24.0739 25.6471 23.5247 26.0867C22.9754 26.5264 22.3084 26.7719 21.6189 26.7882C20.9295 26.8045 20.2527 26.5908 19.6853 26.1776C19.1179 25.7644 18.6888 25.1729 18.4593 24.4873H11.5418C11.3123 25.1729 10.8832 25.7644 10.3158 26.1776C9.74838 26.5908 9.07163 26.8045 8.38214 26.7882C7.69266 26.7719 7.02568 26.5264 6.47643 26.0867C5.92717 25.6471 5.52371 25.0358 5.32364 24.3401C4.65146 24.1252 4.06268 23.6882 3.64425 23.0935C3.22583 22.4988 2.99996 21.778 3 21.0376V16.438H9.54545C9.83478 16.438 10.1123 16.3169 10.3168 16.1012C10.5214 15.8856 10.6364 15.5931 10.6364 15.2881C10.6364 14.9831 10.5214 14.6906 10.3168 14.475C10.1123 14.2593 9.83478 14.1382 9.54545 14.1382H3V11.8384H7.36364C7.65296 11.8384 7.93044 11.7172 8.13503 11.5016C8.33961 11.2859 8.45455 10.9935 8.45455 10.6885C8.45455 10.3835 8.33961 10.091 8.13503 9.87538C7.93044 9.65973 7.65296 9.53858 7.36364 9.53858H3V4.93897ZM17.1818 22.1875H18.4593C18.6749 21.5441 19.0668 20.9825 19.5853 20.5739C20.1038 20.1653 20.7256 19.9279 21.3721 19.8918C22.0186 19.8558 22.6607 20.0226 23.2172 20.3713C23.7737 20.7199 24.2197 21.2348 24.4985 21.8506C24.6 21.744 24.6805 21.6172 24.7353 21.4777C24.7902 21.3382 24.8183 21.1886 24.8182 21.0376V16.438C24.8182 15.5231 24.4734 14.6456 23.8596 13.9987C23.2459 13.3517 22.4134 12.9883 21.5455 12.9883H17.1818V22.1875ZM9.54545 23.3374C9.54545 23.0325 9.43052 22.74 9.22593 22.5243C9.02135 22.3087 8.74387 22.1875 8.45455 22.1875C8.16522 22.1875 7.88774 22.3087 7.68316 22.5243C7.47857 22.74 7.36364 23.0325 7.36364 23.3374C7.36364 23.6424 7.47857 23.9349 7.68316 24.1505C7.88774 24.3662 8.16522 24.4873 8.45455 24.4873C8.74387 24.4873 9.02135 24.3662 9.22593 24.1505C9.43052 23.9349 9.54545 23.6424 9.54545 23.3374ZM20.7742 22.5244C20.6726 22.631 20.592 22.7577 20.5372 22.8972C20.4823 23.0368 20.4542 23.1864 20.4545 23.3374C20.4545 23.6035 20.542 23.8613 20.702 24.067C20.8621 24.2727 21.0849 24.4135 21.3324 24.4654C21.5799 24.5174 21.8369 24.4773 22.0595 24.3519C22.2821 24.2265 22.4566 24.0237 22.5532 23.7779C22.6499 23.5321 22.6627 23.2587 22.5894 23.0041C22.5162 22.7495 22.3615 22.5295 22.1517 22.3817C21.9419 22.2338 21.6899 22.1672 21.4387 22.1933C21.1875 22.2193 20.9527 22.3364 20.7742 22.5244Z" fill="black"/>
<path fill-rule="evenodd" clip-rule="evenodd" d="M3 4.93897C3 4.63399 3.11493 4.34151 3.31952 4.12586C3.5241 3.91021 3.80158 3.78906 4.09091 3.78906H16.0909C16.3802 3.78906 16.6577 3.91021 16.8623 4.12586C17.0669 4.34151 17.1818 4.63399 17.1818 4.93897V10.6885H21.5455C22.2618 10.6885 22.971 10.8372 23.6328 11.1261C24.2946 11.4151 24.8959 11.8386 25.4024 12.3725C25.9089 12.9064 26.3107 13.5402 26.5848 14.2378C26.8589 14.9353 27 15.683 27 16.438V21.0376C27.0001 21.7779 26.7744 22.4985 26.3562 23.0932C25.938 23.6879 25.3494 24.125 24.6775 24.3401C24.4774 25.0358 24.0739 25.6471 23.5247 26.0867C22.9754 26.5264 22.3084 26.7719 21.6189 26.7882C20.9295 26.8045 20.2527 26.5908 19.6853 26.1776C19.1179 25.7644 18.6888 25.1729 18.4593 24.4873H11.5418C11.3123 25.1729 10.8832 25.7644 10.3158 26.1776C9.74838 26.5908 9.07163 26.8045 8.38214 26.7882C7.69266 26.7719 7.02568 26.5264 6.47643 26.0867C5.92717 25.6471 5.52371 25.0358 5.32364 24.3401C4.65146 24.1252 4.06268 23.6882 3.64425 23.0935C3.22583 22.4988 2.99996 21.778 3 21.0376V16.438H9.54545C9.83478 16.438 10.1123 16.3169 10.3168 16.1012C10.5214 15.8856 10.6364 15.5931 10.6364 15.2881C10.6364 14.9831 10.5214 14.6906 10.3168 14.475C10.1123 14.2593 9.83478 14.1382 9.54545 14.1382H3V11.8384H7.36364C7.65296 11.8384 7.93044 11.7172 8.13503 11.5016C8.33961 11.2859 8.45455 10.9935 8.45455 10.6885C8.45455 10.3835 8.33961 10.091 8.13503 9.87538C7.93044 9.65973 7.65296 9.53858 7.36364 9.53858H3V4.93897ZM17.1818 22.1875H18.4593C18.6749 21.5441 19.0668 20.9825 19.5853 20.5739C20.1038 20.1653 20.7256 19.9279 21.3721 19.8918C22.0186 19.8558 22.6607 20.0226 23.2172 20.3713C23.7737 20.7199 24.2197 21.2348 24.4985 21.8506C24.6 21.744 24.6805 21.6172 24.7353 21.4777C24.7902 21.3382 24.8183 21.1886 24.8182 21.0376V16.438C24.8182 15.5231 24.4734 14.6456 23.8596 13.9987C23.2459 13.3517 22.4134 12.9883 21.5455 12.9883H17.1818V22.1875ZM9.54545 23.3374C9.54545 23.0325 9.43052 22.74 9.22593 22.5243C9.02135 22.3087 8.74387 22.1875 8.45455 22.1875C8.16522 22.1875 7.88774 22.3087 7.68316 22.5243C7.47857 22.74 7.36364 23.0325 7.36364 23.3374C7.36364 23.6424 7.47857 23.9349 7.68316 24.1505C7.88774 24.3662 8.16522 24.4873 8.45455 24.4873C8.74387 24.4873 9.02135 24.3662 9.22593 24.1505C9.43052 23.9349 9.54545 23.6424 9.54545 23.3374ZM20.7742 22.5244C20.6726 22.631 20.592 22.7577 20.5372 22.8972C20.4823 23.0368 20.4542 23.1864 20.4545 23.3374C20.4545 23.6035 20.542 23.8613 20.702 24.067C20.8621 24.2727 21.0849 24.4135 21.3324 24.4654C21.5799 24.5174 21.8369 24.4773 22.0595 24.3519C22.2821 24.2265 22.4566 24.0237 22.5532 23.7779C22.6499 23.5321 22.6627 23.2587 22.5894 23.0041C22.5162 22.7495 22.3615 22.5295 22.1517 22.3817C21.9419 22.2338 21.6899 22.1672 21.4387 22.1933C21.1875 22.2193 20.9527 22.3364 20.7742 22.5244Z" fill="black"/>
<path fill-rule="evenodd" clip-rule="evenodd" d="M3 4.93897C3 4.63399 3.11493 4.34151 3.31952 4.12586C3.5241 3.91021 3.80158 3.78906 4.09091 3.78906H16.0909C16.3802 3.78906 16.6577 3.91021 16.8623 4.12586C17.0669 4.34151 17.1818 4.63399 17.1818 4.93897V10.6885H21.5455C22.2618 10.6885 22.971 10.8372 23.6328 11.1261C24.2946 11.4151 24.8959 11.8386 25.4024 12.3725C25.9089 12.9064 26.3107 13.5402 26.5848 14.2378C26.8589 14.9353 27 15.683 27 16.438V21.0376C27.0001 21.7779 26.7744 22.4985 26.3562 23.0932C25.938 23.6879 25.3494 24.125 24.6775 24.3401C24.4774 25.0358 24.0739 25.6471 23.5247 26.0867C22.9754 26.5264 22.3084 26.7719 21.6189 26.7882C20.9295 26.8045 20.2527 26.5908 19.6853 26.1776C19.1179 25.7644 18.6888 25.1729 18.4593 24.4873H11.5418C11.3123 25.1729 10.8832 25.7644 10.3158 26.1776C9.74838 26.5908 9.07163 26.8045 8.38214 26.7882C7.69266 26.7719 7.02568 26.5264 6.47643 26.0867C5.92717 25.6471 5.52371 25.0358 5.32364 24.3401C4.65146 24.1252 4.06268 23.6882 3.64425 23.0935C3.22583 22.4988 2.99996 21.778 3 21.0376V16.438H9.54545C9.83478 16.438 10.1123 16.3169 10.3168 16.1012C10.5214 15.8856 10.6364 15.5931 10.6364 15.2881C10.6364 14.9831 10.5214 14.6906 10.3168 14.475C10.1123 14.2593 9.83478 14.1382 9.54545 14.1382H3V11.8384H7.36364C7.65296 11.8384 7.93044 11.7172 8.13503 11.5016C8.33961 11.2859 8.45455 10.9935 8.45455 10.6885C8.45455 10.3835 8.33961 10.091 8.13503 9.87538C7.93044 9.65973 7.65296 9.53858 7.36364 9.53858H3V4.93897ZM17.1818 22.1875H18.4593C18.6749 21.5441 19.0668 20.9825 19.5853 20.5739C20.1038 20.1653 20.7256 19.9279 21.3721 19.8918C22.0186 19.8558 22.6607 20.0226 23.2172 20.3713C23.7737 20.7199 24.2197 21.2348 24.4985 21.8506C24.6 21.744 24.6805 21.6172 24.7353 21.4777C24.7902 21.3382 24.8183 21.1886 24.8182 21.0376V16.438C24.8182 15.5231 24.4734 14.6456 23.8596 13.9987C23.2459 13.3517 22.4134 12.9883 21.5455 12.9883H17.1818V22.1875ZM9.54545 23.3374C9.54545 23.0325 9.43052 22.74 9.22593 22.5243C9.02135 22.3087 8.74387 22.1875 8.45455 22.1875C8.16522 22.1875 7.88774 22.3087 7.68316 22.5243C7.47857 22.74 7.36364 23.0325 7.36364 23.3374C7.36364 23.6424 7.47857 23.9349 7.68316 24.1505C7.88774 24.3662 8.16522 24.4873 8.45455 24.4873C8.74387 24.4873 9.02135 24.3662 9.22593 24.1505C9.43052 23.9349 9.54545 23.6424 9.54545 23.3374ZM20.7742 22.5244C20.6726 22.631 20.592 22.7577 20.5372 22.8972C20.4823 23.0368 20.4542 23.1864 20.4545 23.3374C20.4545 23.6035 20.542 23.8613 20.702 24.067C20.8621 24.2727 21.0849 24.4135 21.3324 24.4654C21.5799 24.5174 21.8369 24.4773 22.0595 24.3519C22.2821 24.2265 22.4566 24.0237 22.5532 23.7779C22.6499 23.5321 22.6627 23.2587 22.5894 23.0041C22.5162 22.7495 22.3615 22.5295 22.1517 22.3817C21.9419 22.2338 21.6899 22.1672 21.4387 22.1933C21.1875 22.2193 20.9527 22.3364 20.7742 22.5244Z" fill="black"/>
</svg>
