<svg width="164" height="30" viewBox="0 0 164 30" fill="none" xmlns="http://www.w3.org/2000/svg">
<path d="M7.68211 22.2C6.56211 22.2 5.59544 22 4.78211 21.6C3.98211 21.2 3.36211 20.5933 2.92211 19.78C2.49544 18.9533 2.28211 17.8933 2.28211 16.6V8.48C2.28211 8.33333 2.32211 8.22 2.40211 8.14C2.48211 8.04667 2.59544 8 2.74211 8H3.76211C3.90878 8 4.02211 8.04667 4.10211 8.14C4.19544 8.22 4.24211 8.33333 4.24211 8.48V16.64C4.24211 17.9467 4.54878 18.9133 5.16211 19.54C5.77544 20.1667 6.61544 20.48 7.68211 20.48C8.73544 20.48 9.56878 20.1667 10.1821 19.54C10.8088 18.9133 11.1221 17.9467 11.1221 16.64V8.48C11.1221 8.33333 11.1621 8.22 11.2421 8.14C11.3354 8.04667 11.4488 8 11.5821 8H12.6221C12.7554 8 12.8621 8.04667 12.9421 8.14C13.0354 8.22 13.0821 8.33333 13.0821 8.48V16.6C13.0821 17.8933 12.8621 18.9533 12.4221 19.78C11.9954 20.5933 11.3821 21.2 10.5821 21.6C9.78211 22 8.81544 22.2 7.68211 22.2ZM20.8855 22C20.7389 22 20.6255 21.96 20.5455 21.88C20.4655 21.7867 20.4255 21.6733 20.4255 21.54V8.46C20.4255 8.32667 20.4655 8.22 20.5455 8.14C20.6255 8.04667 20.7389 8 20.8855 8H21.9455C22.0789 8 22.1855 8.04667 22.2655 8.14C22.3455 8.22 22.3855 8.32667 22.3855 8.46V20.26H29.0455C29.1922 20.26 29.3055 20.3067 29.3855 20.4C29.4655 20.48 29.5055 20.5933 29.5055 20.74V21.54C29.5055 21.6733 29.4655 21.7867 29.3855 21.88C29.3055 21.96 29.1922 22 29.0455 22H20.8855ZM36.8323 22C36.6989 22 36.5856 21.96 36.4923 21.88C36.4123 21.7867 36.3723 21.6733 36.3723 21.54V9.78H32.5323C32.3989 9.78 32.2856 9.74 32.1923 9.66C32.1123 9.56667 32.0723 9.45333 32.0723 9.32V8.48C32.0723 8.33333 32.1123 8.22 32.1923 8.14C32.2856 8.04667 32.3989 8 32.5323 8H42.1723C42.3189 8 42.4323 8.04667 42.5123 8.14C42.6056 8.22 42.6523 8.33333 42.6523 8.48V9.32C42.6523 9.45333 42.6056 9.56667 42.5123 9.66C42.4323 9.74 42.3189 9.78 42.1723 9.78H38.3523V21.54C38.3523 21.6733 38.3056 21.7867 38.2123 21.88C38.1323 21.96 38.0189 22 37.8723 22H36.8323ZM49.3543 22C49.2076 22 49.0943 21.96 49.0143 21.88C48.9343 21.7867 48.8943 21.6733 48.8943 21.54V8.48C48.8943 8.33333 48.9343 8.22 49.0143 8.14C49.0943 8.04667 49.2076 8 49.3543 8H54.2343C55.741 8 56.9343 8.35333 57.8143 9.06C58.6943 9.76667 59.1343 10.8133 59.1343 12.2C59.1343 13.2267 58.8743 14.0667 58.3543 14.72C57.8476 15.36 57.1543 15.8067 56.2743 16.06L59.3543 21.38C59.3943 21.46 59.4143 21.5333 59.4143 21.6C59.4143 21.7067 59.3676 21.8 59.2743 21.88C59.1943 21.96 59.101 22 58.9943 22H58.0343C57.8076 22 57.641 21.94 57.5343 21.82C57.4276 21.7 57.3343 21.58 57.2543 21.46L54.3543 16.38H50.8543V21.54C50.8543 21.6733 50.8076 21.7867 50.7143 21.88C50.6343 21.96 50.521 22 50.3743 22H49.3543ZM50.8543 14.68H54.1543C55.1543 14.68 55.901 14.4733 56.3943 14.06C56.8876 13.6333 57.1343 13.0067 57.1343 12.18C57.1343 11.3667 56.8876 10.7467 56.3943 10.32C55.9143 9.89333 55.1676 9.68 54.1543 9.68H50.8543V14.68ZM65.0598 22C64.9531 22 64.8598 21.96 64.7798 21.88C64.6998 21.8 64.6598 21.7067 64.6598 21.6C64.6598 21.5333 64.6664 21.46 64.6798 21.38L69.6398 8.44C69.6931 8.30667 69.7664 8.2 69.8598 8.12C69.9531 8.04 70.0931 8 70.2798 8H71.6398C71.8131 8 71.9464 8.04 72.0398 8.12C72.1464 8.2 72.2264 8.30667 72.2798 8.44L77.2198 21.38C77.2464 21.46 77.2598 21.5333 77.2598 21.6C77.2598 21.7067 77.2198 21.8 77.1398 21.88C77.0598 21.96 76.9664 22 76.8598 22H75.8398C75.6798 22 75.5598 21.96 75.4798 21.88C75.4131 21.8 75.3664 21.7267 75.3398 21.66L74.2398 18.82H67.6798L66.5798 21.66C66.5664 21.7267 66.5198 21.8 66.4398 21.88C66.3598 21.96 66.2398 22 66.0798 22H65.0598ZM68.2598 17.1H73.6598L70.9598 10L68.2598 17.1ZM87.7029 22.2C86.5429 22.2 85.5696 22.0267 84.7829 21.68C83.9962 21.32 83.3896 20.86 82.9629 20.3C82.5496 19.7267 82.3296 19.12 82.3029 18.48C82.3029 18.3733 82.3429 18.28 82.4229 18.2C82.5162 18.1067 82.6229 18.06 82.7429 18.06H83.7629C83.9229 18.06 84.0429 18.1 84.1229 18.18C84.2029 18.26 84.2562 18.3533 84.2829 18.46C84.3496 18.78 84.5096 19.1 84.7629 19.42C85.0296 19.7267 85.3962 19.9867 85.8629 20.2C86.3429 20.4 86.9562 20.5 87.7029 20.5C88.8496 20.5 89.6896 20.3 90.2229 19.9C90.7696 19.4867 91.0429 18.94 91.0429 18.26C91.0429 17.7933 90.8962 17.42 90.6029 17.14C90.3229 16.8467 89.8896 16.5867 89.3029 16.36C88.7162 16.1333 87.9562 15.8867 87.0229 15.62C86.0496 15.34 85.2429 15.0333 84.6029 14.7C83.9629 14.3667 83.4829 13.9533 83.1629 13.46C82.8562 12.9667 82.7029 12.34 82.7029 11.58C82.7029 10.86 82.8962 10.22 83.2829 9.66C83.6696 9.08667 84.2229 8.63333 84.9429 8.3C85.6762 7.96667 86.5629 7.8 87.6029 7.8C88.4296 7.8 89.1496 7.91333 89.7629 8.14C90.3896 8.35333 90.9096 8.64667 91.3229 9.02C91.7362 9.38 92.0496 9.77333 92.2629 10.2C92.4762 10.6133 92.5896 11.02 92.6029 11.42C92.6029 11.5133 92.5696 11.6067 92.5029 11.7C92.4362 11.78 92.3296 11.82 92.1829 11.82H91.1229C91.0296 11.82 90.9296 11.7933 90.8229 11.74C90.7296 11.6867 90.6562 11.5867 90.6029 11.44C90.5229 10.8933 90.2162 10.4333 89.6829 10.06C89.1496 9.68667 88.4562 9.5 87.6029 9.5C86.7362 9.5 86.0296 9.66667 85.4829 10C84.9496 10.3333 84.6829 10.8533 84.6829 11.56C84.6829 12.0133 84.8096 12.3933 85.0629 12.7C85.3162 12.9933 85.7162 13.2533 86.2629 13.48C86.8096 13.7067 87.5229 13.9467 88.4029 14.2C89.4696 14.4933 90.3429 14.8067 91.0229 15.14C91.7029 15.46 92.2029 15.8667 92.5229 16.36C92.8562 16.84 93.0229 17.46 93.0229 18.22C93.0229 19.06 92.8029 19.78 92.3629 20.38C91.9229 20.9667 91.3029 21.42 90.5029 21.74C89.7162 22.0467 88.7829 22.2 87.7029 22.2ZM104.664 22.2C103.531 22.2 102.558 22.0067 101.744 21.62C100.931 21.22 100.304 20.6133 99.8643 19.8C99.4243 18.9733 99.1776 17.94 99.1243 16.7C99.111 16.1133 99.1043 15.5533 99.1043 15.02C99.1043 14.4733 99.111 13.9067 99.1243 13.32C99.1776 12.0933 99.431 11.0733 99.8843 10.26C100.351 9.43333 100.991 8.82 101.804 8.42C102.631 8.00667 103.584 7.8 104.664 7.8C105.758 7.8 106.711 8.00667 107.524 8.42C108.351 8.82 108.998 9.43333 109.464 10.26C109.931 11.0733 110.184 12.0933 110.224 13.32C110.251 13.9067 110.264 14.4733 110.264 15.02C110.264 15.5533 110.251 16.1133 110.224 16.7C110.184 17.94 109.938 18.9733 109.484 19.8C109.044 20.6133 108.418 21.22 107.604 21.62C106.791 22.0067 105.811 22.2 104.664 22.2ZM104.664 20.5C105.691 20.5 106.524 20.1933 107.164 19.58C107.818 18.9667 108.171 17.9733 108.224 16.6C108.251 16 108.264 15.4667 108.264 15C108.264 14.52 108.251 13.9867 108.224 13.4C108.198 12.48 108.024 11.7333 107.704 11.16C107.398 10.5867 106.984 10.1667 106.464 9.9C105.944 9.63333 105.344 9.5 104.664 9.5C104.011 9.5 103.424 9.63333 102.904 9.9C102.384 10.1667 101.964 10.5867 101.644 11.16C101.338 11.7333 101.164 12.48 101.124 13.4C101.111 13.9867 101.104 14.52 101.104 15C101.104 15.4667 101.111 16 101.124 16.6C101.178 17.9733 101.531 18.9667 102.184 19.58C102.838 20.1933 103.664 20.5 104.664 20.5ZM117.639 22C117.493 22 117.379 21.96 117.299 21.88C117.219 21.7867 117.179 21.6733 117.179 21.54V8.48C117.179 8.33333 117.219 8.22 117.299 8.14C117.379 8.04667 117.493 8 117.639 8H125.799C125.946 8 126.059 8.04667 126.139 8.14C126.219 8.22 126.259 8.33333 126.259 8.48V9.28C126.259 9.42667 126.219 9.54 126.139 9.62C126.059 9.7 125.946 9.74 125.799 9.74H119.119V14.4H125.399C125.546 14.4 125.659 14.4467 125.739 14.54C125.819 14.62 125.859 14.7333 125.859 14.88V15.68C125.859 15.8133 125.819 15.9267 125.739 16.02C125.659 16.1 125.546 16.14 125.399 16.14H119.119V21.54C119.119 21.6733 119.073 21.7867 118.979 21.88C118.899 21.96 118.786 22 118.639 22H117.639ZM136.379 22C136.246 22 136.132 21.96 136.039 21.88C135.959 21.7867 135.919 21.6733 135.919 21.54V9.78H132.079C131.946 9.78 131.832 9.74 131.739 9.66C131.659 9.56667 131.619 9.45333 131.619 9.32V8.48C131.619 8.33333 131.659 8.22 131.739 8.14C131.832 8.04667 131.946 8 132.079 8H141.719C141.866 8 141.979 8.04667 142.059 8.14C142.152 8.22 142.199 8.33333 142.199 8.48V9.32C142.199 9.45333 142.152 9.56667 142.059 9.66C141.979 9.74 141.866 9.78 141.719 9.78H137.899V21.54C137.899 21.6733 137.852 21.7867 137.759 21.88C137.679 21.96 137.566 22 137.419 22H136.379ZM152.941 13.32C152.648 13.32 152.501 13.1733 152.501 12.88V8.44C152.501 8.14667 152.648 8 152.941 8H153.361C153.535 8 153.668 8.05333 153.761 8.16C153.855 8.26667 153.928 8.36 153.981 8.44L155.161 10.34L156.341 8.44C156.395 8.36 156.468 8.26667 156.561 8.16C156.655 8.05333 156.788 8 156.961 8H157.381C157.675 8 157.821 8.14667 157.821 8.44V12.88C157.821 13.1733 157.675 13.32 157.381 13.32H156.941C156.648 13.32 156.501 13.1733 156.501 12.88V10.48L155.801 11.64C155.735 11.7467 155.668 11.84 155.601 11.92C155.535 12 155.428 12.04 155.281 12.04H155.041C154.908 12.04 154.801 12 154.721 11.92C154.655 11.84 154.588 11.7467 154.521 11.64L153.821 10.48V12.88C153.821 13.1733 153.675 13.32 153.381 13.32H152.941ZM149.561 13.32C149.268 13.32 149.121 13.1733 149.121 12.88V9.26H148.081C147.788 9.26 147.641 9.11333 147.641 8.82V8.44C147.641 8.14667 147.788 8 148.081 8H151.461C151.755 8 151.901 8.14667 151.901 8.44V8.82C151.901 9.11333 151.755 9.26 151.461 9.26H150.421V12.88C150.421 13.1733 150.275 13.32 149.981 13.32H149.561Z" fill="black"/>
<path d="M7.68211 22.2C6.56211 22.2 5.59544 22 4.78211 21.6C3.98211 21.2 3.36211 20.5933 2.92211 19.78C2.49544 18.9533 2.28211 17.8933 2.28211 16.6V8.48C2.28211 8.33333 2.32211 8.22 2.40211 8.14C2.48211 8.04667 2.59544 8 2.74211 8H3.76211C3.90878 8 4.02211 8.04667 4.10211 8.14C4.19544 8.22 4.24211 8.33333 4.24211 8.48V16.64C4.24211 17.9467 4.54878 18.9133 5.16211 19.54C5.77544 20.1667 6.61544 20.48 7.68211 20.48C8.73544 20.48 9.56878 20.1667 10.1821 19.54C10.8088 18.9133 11.1221 17.9467 11.1221 16.64V8.48C11.1221 8.33333 11.1621 8.22 11.2421 8.14C11.3354 8.04667 11.4488 8 11.5821 8H12.6221C12.7554 8 12.8621 8.04667 12.9421 8.14C13.0354 8.22 13.0821 8.33333 13.0821 8.48V16.6C13.0821 17.8933 12.8621 18.9533 12.4221 19.78C11.9954 20.5933 11.3821 21.2 10.5821 21.6C9.78211 22 8.81544 22.2 7.68211 22.2ZM20.8855 22C20.7389 22 20.6255 21.96 20.5455 21.88C20.4655 21.7867 20.4255 21.6733 20.4255 21.54V8.46C20.4255 8.32667 20.4655 8.22 20.5455 8.14C20.6255 8.04667 20.7389 8 20.8855 8H21.9455C22.0789 8 22.1855 8.04667 22.2655 8.14C22.3455 8.22 22.3855 8.32667 22.3855 8.46V20.26H29.0455C29.1922 20.26 29.3055 20.3067 29.3855 20.4C29.4655 20.48 29.5055 20.5933 29.5055 20.74V21.54C29.5055 21.6733 29.4655 21.7867 29.3855 21.88C29.3055 21.96 29.1922 22 29.0455 22H20.8855ZM36.8323 22C36.6989 22 36.5856 21.96 36.4923 21.88C36.4123 21.7867 36.3723 21.6733 36.3723 21.54V9.78H32.5323C32.3989 9.78 32.2856 9.74 32.1923 9.66C32.1123 9.56667 32.0723 9.45333 32.0723 9.32V8.48C32.0723 8.33333 32.1123 8.22 32.1923 8.14C32.2856 8.04667 32.3989 8 32.5323 8H42.1723C42.3189 8 42.4323 8.04667 42.5123 8.14C42.6056 8.22 42.6523 8.33333 42.6523 8.48V9.32C42.6523 9.45333 42.6056 9.56667 42.5123 9.66C42.4323 9.74 42.3189 9.78 42.1723 9.78H38.3523V21.54C38.3523 21.6733 38.3056 21.7867 38.2123 21.88C38.1323 21.96 38.0189 22 37.8723 22H36.8323ZM49.3543 22C49.2076 22 49.0943 21.96 49.0143 21.88C48.9343 21.7867 48.8943 21.6733 48.8943 21.54V8.48C48.8943 8.33333 48.9343 8.22 49.0143 8.14C49.0943 8.04667 49.2076 8 49.3543 8H54.2343C55.741 8 56.9343 8.35333 57.8143 9.06C58.6943 9.76667 59.1343 10.8133 59.1343 12.2C59.1343 13.2267 58.8743 14.0667 58.3543 14.72C57.8476 15.36 57.1543 15.8067 56.2743 16.06L59.3543 21.38C59.3943 21.46 59.4143 21.5333 59.4143 21.6C59.4143 21.7067 59.3676 21.8 59.2743 21.88C59.1943 21.96 59.101 22 58.9943 22H58.0343C57.8076 22 57.641 21.94 57.5343 21.82C57.4276 21.7 57.3343 21.58 57.2543 21.46L54.3543 16.38H50.8543V21.54C50.8543 21.6733 50.8076 21.7867 50.7143 21.88C50.6343 21.96 50.521 22 50.3743 22H49.3543ZM50.8543 14.68H54.1543C55.1543 14.68 55.901 14.4733 56.3943 14.06C56.8876 13.6333 57.1343 13.0067 57.1343 12.18C57.1343 11.3667 56.8876 10.7467 56.3943 10.32C55.9143 9.89333 55.1676 9.68 54.1543 9.68H50.8543V14.68ZM65.0598 22C64.9531 22 64.8598 21.96 64.7798 21.88C64.6998 21.8 64.6598 21.7067 64.6598 21.6C64.6598 21.5333 64.6664 21.46 64.6798 21.38L69.6398 8.44C69.6931 8.30667 69.7664 8.2 69.8598 8.12C69.9531 8.04 70.0931 8 70.2798 8H71.6398C71.8131 8 71.9464 8.04 72.0398 8.12C72.1464 8.2 72.2264 8.30667 72.2798 8.44L77.2198 21.38C77.2464 21.46 77.2598 21.5333 77.2598 21.6C77.2598 21.7067 77.2198 21.8 77.1398 21.88C77.0598 21.96 76.9664 22 76.8598 22H75.8398C75.6798 22 75.5598 21.96 75.4798 21.88C75.4131 21.8 75.3664 21.7267 75.3398 21.66L74.2398 18.82H67.6798L66.5798 21.66C66.5664 21.7267 66.5198 21.8 66.4398 21.88C66.3598 21.96 66.2398 22 66.0798 22H65.0598ZM68.2598 17.1H73.6598L70.9598 10L68.2598 17.1ZM87.7029 22.2C86.5429 22.2 85.5696 22.0267 84.7829 21.68C83.9962 21.32 83.3896 20.86 82.9629 20.3C82.5496 19.7267 82.3296 19.12 82.3029 18.48C82.3029 18.3733 82.3429 18.28 82.4229 18.2C82.5162 18.1067 82.6229 18.06 82.7429 18.06H83.7629C83.9229 18.06 84.0429 18.1 84.1229 18.18C84.2029 18.26 84.2562 18.3533 84.2829 18.46C84.3496 18.78 84.5096 19.1 84.7629 19.42C85.0296 19.7267 85.3962 19.9867 85.8629 20.2C86.3429 20.4 86.9562 20.5 87.7029 20.5C88.8496 20.5 89.6896 20.3 90.2229 19.9C90.7696 19.4867 91.0429 18.94 91.0429 18.26C91.0429 17.7933 90.8962 17.42 90.6029 17.14C90.3229 16.8467 89.8896 16.5867 89.3029 16.36C88.7162 16.1333 87.9562 15.8867 87.0229 15.62C86.0496 15.34 85.2429 15.0333 84.6029 14.7C83.9629 14.3667 83.4829 13.9533 83.1629 13.46C82.8562 12.9667 82.7029 12.34 82.7029 11.58C82.7029 10.86 82.8962 10.22 83.2829 9.66C83.6696 9.08667 84.2229 8.63333 84.9429 8.3C85.6762 7.96667 86.5629 7.8 87.6029 7.8C88.4296 7.8 89.1496 7.91333 89.7629 8.14C90.3896 8.35333 90.9096 8.64667 91.3229 9.02C91.7362 9.38 92.0496 9.77333 92.2629 10.2C92.4762 10.6133 92.5896 11.02 92.6029 11.42C92.6029 11.5133 92.5696 11.6067 92.5029 11.7C92.4362 11.78 92.3296 11.82 92.1829 11.82H91.1229C91.0296 11.82 90.9296 11.7933 90.8229 11.74C90.7296 11.6867 90.6562 11.5867 90.6029 11.44C90.5229 10.8933 90.2162 10.4333 89.6829 10.06C89.1496 9.68667 88.4562 9.5 87.6029 9.5C86.7362 9.5 86.0296 9.66667 85.4829 10C84.9496 10.3333 84.6829 10.8533 84.6829 11.56C84.6829 12.0133 84.8096 12.3933 85.0629 12.7C85.3162 12.9933 85.7162 13.2533 86.2629 13.48C86.8096 13.7067 87.5229 13.9467 88.4029 14.2C89.4696 14.4933 90.3429 14.8067 91.0229 15.14C91.7029 15.46 92.2029 15.8667 92.5229 16.36C92.8562 16.84 93.0229 17.46 93.0229 18.22C93.0229 19.06 92.8029 19.78 92.3629 20.38C91.9229 20.9667 91.3029 21.42 90.5029 21.74C89.7162 22.0467 88.7829 22.2 87.7029 22.2ZM104.664 22.2C103.531 22.2 102.558 22.0067 101.744 21.62C100.931 21.22 100.304 20.6133 99.8643 19.8C99.4243 18.9733 99.1776 17.94 99.1243 16.7C99.111 16.1133 99.1043 15.5533 99.1043 15.02C99.1043 14.4733 99.111 13.9067 99.1243 13.32C99.1776 12.0933 99.431 11.0733 99.8843 10.26C100.351 9.43333 100.991 8.82 101.804 8.42C102.631 8.00667 103.584 7.8 104.664 7.8C105.758 7.8 106.711 8.00667 107.524 8.42C108.351 8.82 108.998 9.43333 109.464 10.26C109.931 11.0733 110.184 12.0933 110.224 13.32C110.251 13.9067 110.264 14.4733 110.264 15.02C110.264 15.5533 110.251 16.1133 110.224 16.7C110.184 17.94 109.938 18.9733 109.484 19.8C109.044 20.6133 108.418 21.22 107.604 21.62C106.791 22.0067 105.811 22.2 104.664 22.2ZM104.664 20.5C105.691 20.5 106.524 20.1933 107.164 19.58C107.818 18.9667 108.171 17.9733 108.224 16.6C108.251 16 108.264 15.4667 108.264 15C108.264 14.52 108.251 13.9867 108.224 13.4C108.198 12.48 108.024 11.7333 107.704 11.16C107.398 10.5867 106.984 10.1667 106.464 9.9C105.944 9.63333 105.344 9.5 104.664 9.5C104.011 9.5 103.424 9.63333 102.904 9.9C102.384 10.1667 101.964 10.5867 101.644 11.16C101.338 11.7333 101.164 12.48 101.124 13.4C101.111 13.9867 101.104 14.52 101.104 15C101.104 15.4667 101.111 16 101.124 16.6C101.178 17.9733 101.531 18.9667 102.184 19.58C102.838 20.1933 103.664 20.5 104.664 20.5ZM117.639 22C117.493 22 117.379 21.96 117.299 21.88C117.219 21.7867 117.179 21.6733 117.179 21.54V8.48C117.179 8.33333 117.219 8.22 117.299 8.14C117.379 8.04667 117.493 8 117.639 8H125.799C125.946 8 126.059 8.04667 126.139 8.14C126.219 8.22 126.259 8.33333 126.259 8.48V9.28C126.259 9.42667 126.219 9.54 126.139 9.62C126.059 9.7 125.946 9.74 125.799 9.74H119.119V14.4H125.399C125.546 14.4 125.659 14.4467 125.739 14.54C125.819 14.62 125.859 14.7333 125.859 14.88V15.68C125.859 15.8133 125.819 15.9267 125.739 16.02C125.659 16.1 125.546 16.14 125.399 16.14H119.119V21.54C119.119 21.6733 119.073 21.7867 118.979 21.88C118.899 21.96 118.786 22 118.639 22H117.639ZM136.379 22C136.246 22 136.132 21.96 136.039 21.88C135.959 21.7867 135.919 21.6733 135.919 21.54V9.78H132.079C131.946 9.78 131.832 9.74 131.739 9.66C131.659 9.56667 131.619 9.45333 131.619 9.32V8.48C131.619 8.33333 131.659 8.22 131.739 8.14C131.832 8.04667 131.946 8 132.079 8H141.719C141.866 8 141.979 8.04667 142.059 8.14C142.152 8.22 142.199 8.33333 142.199 8.48V9.32C142.199 9.45333 142.152 9.56667 142.059 9.66C141.979 9.74 141.866 9.78 141.719 9.78H137.899V21.54C137.899 21.6733 137.852 21.7867 137.759 21.88C137.679 21.96 137.566 22 137.419 22H136.379ZM152.941 13.32C152.648 13.32 152.501 13.1733 152.501 12.88V8.44C152.501 8.14667 152.648 8 152.941 8H153.361C153.535 8 153.668 8.05333 153.761 8.16C153.855 8.26667 153.928 8.36 153.981 8.44L155.161 10.34L156.341 8.44C156.395 8.36 156.468 8.26667 156.561 8.16C156.655 8.05333 156.788 8 156.961 8H157.381C157.675 8 157.821 8.14667 157.821 8.44V12.88C157.821 13.1733 157.675 13.32 157.381 13.32H156.941C156.648 13.32 156.501 13.1733 156.501 12.88V10.48L155.801 11.64C155.735 11.7467 155.668 11.84 155.601 11.92C155.535 12 155.428 12.04 155.281 12.04H155.041C154.908 12.04 154.801 12 154.721 11.92C154.655 11.84 154.588 11.7467 154.521 11.64L153.821 10.48V12.88C153.821 13.1733 153.675 13.32 153.381 13.32H152.941ZM149.561 13.32C149.268 13.32 149.121 13.1733 149.121 12.88V9.26H148.081C147.788 9.26 147.641 9.11333 147.641 8.82V8.44C147.641 8.14667 147.788 8 148.081 8H151.461C151.755 8 151.901 8.14667 151.901 8.44V8.82C151.901 9.11333 151.755 9.26 151.461 9.26H150.421V12.88C150.421 13.1733 150.275 13.32 149.981 13.32H149.561Z" fill="black"/>
</svg>
