<svg width="43" height="28" viewBox="0 0 43 28" fill="none" xmlns="http://www.w3.org/2000/svg">
<rect x="1.10156" y="1.28906" width="41" height="26" rx="6.5" fill="white" stroke="#BABABA"/>
<path d="M13.6073 23.8223V22.5514C13.6073 22.0652 13.3112 21.7469 12.8028 21.7469C12.5487 21.7469 12.2723 21.8308 12.0823 22.1072C11.9342 21.8752 11.722 21.7469 11.4036 21.7469C11.1914 21.7469 10.9792 21.8111 10.8114 22.043V21.7889H10.3672V23.8223H10.8114V22.6994C10.8114 22.3392 11.0014 22.1689 11.2975 22.1689C11.5936 22.1689 11.7417 22.3589 11.7417 22.6994V23.8223H12.1859V22.6994C12.1859 22.3392 12.3981 22.1689 12.672 22.1689C12.9682 22.1689 13.1162 22.3589 13.1162 22.6994V23.8223H13.6073ZM20.1961 21.7889H19.4756V21.1744H19.0314V21.7889H18.6291V22.1911H19.0314V23.1239C19.0314 23.5903 19.2214 23.8642 19.7297 23.8642C19.9198 23.8642 20.132 23.8001 20.2801 23.7162L20.1517 23.3337C20.0234 23.4176 19.8753 23.4398 19.7692 23.4398C19.557 23.4398 19.4731 23.3114 19.4731 23.1017V22.1911H20.1937V21.7889H20.1961ZM23.9668 21.7444C23.7127 21.7444 23.5424 21.8728 23.4363 22.0406V21.7864H22.9921V23.8198H23.4363V22.6748C23.4363 22.3367 23.5843 22.1442 23.8607 22.1442C23.9446 22.1442 24.0507 22.1664 24.1371 22.1862L24.2654 21.7617C24.1766 21.7444 24.0507 21.7444 23.9668 21.7444ZM18.2689 21.9567C18.0566 21.8086 17.7605 21.7444 17.4422 21.7444C16.9338 21.7444 16.5957 21.9986 16.5957 22.4009C16.5957 22.7389 16.8499 22.9314 17.2941 22.9931L17.5063 23.0153C17.7383 23.0573 17.8666 23.1214 17.8666 23.2275C17.8666 23.3756 17.6963 23.4817 17.4002 23.4817C17.1041 23.4817 16.8697 23.3756 16.7216 23.2695L16.5094 23.6076C16.7413 23.7778 17.0597 23.8617 17.378 23.8617C17.9703 23.8617 18.3108 23.5854 18.3108 23.2053C18.3108 22.845 18.0344 22.655 17.6124 22.5909L17.4002 22.5687C17.2102 22.5464 17.0621 22.5045 17.0621 22.3786C17.0621 22.2306 17.2102 22.1467 17.4446 22.1467C17.6988 22.1467 17.953 22.2528 18.0813 22.3169L18.2689 21.9567ZM30.0868 21.7444C29.8326 21.7444 29.6624 21.8728 29.5562 22.0406V21.7864H29.1121V23.8198H29.5562V22.6748C29.5562 22.3367 29.7043 22.1442 29.9807 22.1442C30.0646 22.1442 30.1707 22.1664 30.2571 22.1862L30.3854 21.7666C30.299 21.7444 30.1732 21.7444 30.0868 21.7444ZM24.411 22.8056C24.411 23.42 24.8355 23.8642 25.4919 23.8642C25.788 23.8642 26.0002 23.8001 26.2125 23.6322L26.0002 23.272C25.83 23.4003 25.6622 23.462 25.4697 23.462C25.1094 23.462 24.8552 23.2078 24.8552 22.8056C24.8552 22.4231 25.1094 22.1689 25.4697 22.1491C25.6597 22.1491 25.83 22.2133 26.0002 22.3392L26.2125 21.9789C26.0002 21.8086 25.788 21.7469 25.4919 21.7469C24.8355 21.7444 24.411 22.1911 24.411 22.8056ZM28.5198 22.8056V21.7889H28.0756V22.043C27.9275 21.853 27.7153 21.7469 27.4389 21.7469C26.8664 21.7469 26.4222 22.1911 26.4222 22.8056C26.4222 23.42 26.8664 23.8642 27.4389 23.8642C27.7351 23.8642 27.9473 23.7581 28.0756 23.5681V23.8223H28.5198V22.8056ZM26.8886 22.8056C26.8886 22.4453 27.1206 22.1491 27.5031 22.1491C27.8634 22.1491 28.1176 22.4255 28.1176 22.8056C28.1176 23.1658 27.8634 23.462 27.5031 23.462C27.1231 23.4398 26.8886 23.1634 26.8886 22.8056ZM21.5731 21.7444C20.9809 21.7444 20.5564 22.1689 20.5564 22.8031C20.5564 23.4398 20.9809 23.8617 21.5954 23.8617C21.8915 23.8617 22.1876 23.7778 22.422 23.5854L22.2098 23.267C22.0395 23.3953 21.8273 23.4792 21.6176 23.4792C21.3412 23.4792 21.0673 23.3509 21.0031 22.9931H22.5059C22.5059 22.9289 22.5059 22.887 22.5059 22.8228C22.5257 22.1689 22.1432 21.7444 21.5731 21.7444ZM21.5731 22.1269C21.8495 22.1269 22.0395 22.2972 22.0815 22.6131H21.0228C21.0648 22.3392 21.2548 22.1269 21.5731 22.1269ZM32.6088 22.8056V20.9844H32.1646V22.043C32.0166 21.853 31.8043 21.7469 31.528 21.7469C30.9554 21.7469 30.5113 22.1911 30.5113 22.8056C30.5113 23.42 30.9554 23.8642 31.528 23.8642C31.8241 23.8642 32.0363 23.7581 32.1646 23.5681V23.8223H32.6088V22.8056ZM30.9777 22.8056C30.9777 22.4453 31.2096 22.1491 31.5921 22.1491C31.9524 22.1491 32.2066 22.4255 32.2066 22.8056C32.2066 23.1658 31.9524 23.462 31.5921 23.462C31.2096 23.4398 30.9777 23.1634 30.9777 22.8056ZM16.1071 22.8056V21.7889H15.6629V22.043C15.5149 21.853 15.3026 21.7469 15.0263 21.7469C14.4537 21.7469 14.0096 22.1911 14.0096 22.8056C14.0096 23.42 14.4537 23.8642 15.0263 23.8642C15.3224 23.8642 15.5346 23.7581 15.6629 23.5681V23.8223H16.1071V22.8056ZM14.4562 22.8056C14.4562 22.4453 14.6882 22.1491 15.0707 22.1491C15.431 22.1491 15.6851 22.4255 15.6851 22.8056C15.6851 23.1658 15.431 23.462 15.0707 23.462C14.6882 23.4398 14.4562 23.1634 14.4562 22.8056Z" fill="#BABABA"/>
<path d="M24.7938 6.3457H18.1211V18.3339H24.7938V6.3457Z" fill="#BABABA"/>
<path d="M18.5634 12.3401C18.5634 9.90448 19.7085 7.74275 21.4655 6.34601C20.1724 5.32931 18.5412 4.71484 16.762 4.71484C12.5471 4.71484 9.13672 8.12524 9.13672 12.3401C9.13672 16.555 12.5471 19.9654 16.762 19.9654C18.5412 19.9654 20.1724 19.3509 21.4655 18.3342C19.706 16.9572 18.5634 14.7758 18.5634 12.3401Z" fill="#BABABA"/>
<path d="M33.7936 12.3401C33.7936 16.555 30.3832 19.9654 26.1683 19.9654C24.3891 19.9654 22.7579 19.3509 21.4648 18.3342C23.2441 16.935 24.3669 14.7758 24.3669 12.3401C24.3669 9.90448 23.2219 7.74275 21.4648 6.34601C22.7555 5.32931 24.3866 4.71484 26.1659 4.71484C30.3832 4.71484 33.7936 8.14745 33.7936 12.3401Z" fill="#989694"/>
</svg>
