<svg width="43" height="28" viewBox="0 0 43 28" fill="none" xmlns="http://www.w3.org/2000/svg">
<rect x="0.699219" y="1.28906" width="41" height="26" rx="6.5" fill="white" stroke="#BABABA"/>
<path d="M8.96129 10.3516L5.40625 18.2187H9.66213L10.1897 16.9644H11.3957L11.9233 18.2187H16.6079V17.2614L17.0253 18.2187H19.4485L19.8659 17.2411V18.2187H29.6084L30.7931 16.997L31.9023 18.2187L36.9063 18.2289L33.34 14.3071L36.9063 10.3516H31.9799L30.8268 11.5508L29.7524 10.3516H19.1538L18.2437 12.3821L17.3123 10.3516H13.0653V11.2764L12.5928 10.3516H8.96129ZM9.78478 11.4687H11.8593L14.2173 16.8035V11.4687H16.4899L18.3112 15.2937L19.9898 11.4687H22.251V17.1139H20.8751L20.8639 12.6904L18.8579 17.1139H17.6272L15.61 12.6904V17.1139H12.7795L12.2429 15.8483H9.34379L8.80829 17.1128H7.29173L9.78478 11.4687ZM23.5098 11.4687H29.1044L30.8155 13.3171L32.5818 11.4687H34.293L31.6931 14.306L34.293 17.1106H32.5042L30.7931 15.2408L29.0178 17.1106H23.5098V11.4687ZM10.794 12.4239L9.83882 14.6784H11.748L10.794 12.4239ZM24.8913 12.6376V13.6681H27.9435V14.8167H24.8913V15.9418H28.3147L29.9054 14.2847L28.3822 12.6366H24.8913V12.6376Z" fill="#BABABA"/>
</svg>
