<svg width="42" height="28" viewBox="0 0 42 28" fill="none" xmlns="http://www.w3.org/2000/svg">
<rect x="0.5" y="1.28906" width="41" height="26" rx="6.5" fill="white" stroke="#BABABA"/>
<path d="M18.2023 18.5055H15.7344L17.278 8.96094H19.7458L18.2023 18.5055Z" fill="#BABABA"/>
<path d="M27.1492 9.19541C26.6624 9.00229 25.8903 8.78906 24.9357 8.78906C22.4985 8.78906 20.7823 10.0887 20.7718 11.9467C20.7515 13.3176 22.0005 14.079 22.9347 14.5361C23.8895 15.0032 24.2141 15.3081 24.2141 15.7244C24.2043 16.3638 23.4425 16.6586 22.732 16.6586C21.7467 16.6586 21.2187 16.5066 20.4164 16.1509L20.0914 15.9984L19.7461 18.1409C20.3249 18.4046 21.3913 18.6386 22.4985 18.6489C25.088 18.6489 26.7739 17.3694 26.7939 15.3893C26.8037 14.3028 26.1442 13.4703 24.7223 12.7899C23.8591 12.3532 23.3305 12.0588 23.3305 11.6119C23.3406 11.2057 23.7776 10.7896 24.752 10.7896C25.5543 10.7693 26.1438 10.9621 26.5904 11.1551L26.8136 11.2565L27.1492 9.19541Z" fill="#BABABA"/>
<path d="M30.4277 15.1242C30.6309 14.5759 31.413 12.4537 31.413 12.4537C31.4027 12.4741 31.6158 11.8953 31.7377 11.5399L31.9102 12.3624C31.9102 12.3624 32.3775 14.647 32.479 15.1242C32.0933 15.1242 30.9151 15.1242 30.4277 15.1242ZM33.474 8.96094H31.5651C30.9764 8.96094 30.5292 9.13341 30.2752 9.75286L26.6094 18.5054H29.1989C29.1989 18.5054 29.6252 17.3274 29.7169 17.0736C30.0009 17.0736 32.52 17.0736 32.8855 17.0736C32.9563 17.4087 33.1799 18.5054 33.1799 18.5054H35.465L33.474 8.96094Z" fill="#BABABA"/>
<path d="M13.6712 8.96094L11.2543 15.4694L10.9902 14.1494C10.5434 12.6263 9.14199 10.9715 7.57812 10.1487L9.79193 18.4954H12.4017L16.2809 8.96094H13.6712Z" fill="#BABABA"/>
<path d="M9.01128 8.96094H5.04062L5 9.15379C8.09736 9.94584 10.1487 11.8551 10.9915 14.1498L10.1283 9.76325C9.98619 9.15365 9.54948 8.98105 9.01128 8.96094Z" fill="#EDDEC7"/>
</svg>
