<svg width="34" height="35" viewBox="0 0 34 35" fill="none" xmlns="http://www.w3.org/2000/svg">
<path d="M8.54297 17.0605H26.9277M26.9277 17.0605L18.1031 8.23585M26.9277 17.0605L18.1031 25.8852" stroke="#1F0B0D" stroke-width="1.5" stroke-linecap="round" stroke-linejoin="round"/>
<path d="M8.54297 17.0605H26.9277M26.9277 17.0605L18.1031 8.23585M26.9277 17.0605L18.1031 25.8852" stroke="black" stroke-opacity="0.2" stroke-width="1.5" stroke-linecap="round" stroke-linejoin="round"/>
<path d="M8.54297 17.0605H26.9277M26.9277 17.0605L18.1031 8.23585M26.9277 17.0605L18.1031 25.8852" stroke="black" stroke-opacity="0.2" stroke-width="1.5" stroke-linecap="round" stroke-linejoin="round"/>
<path d="M8.54297 17.0605H26.9277M26.9277 17.0605L18.1031 8.23585M26.9277 17.0605L18.1031 25.8852" stroke="black" stroke-opacity="0.2" stroke-width="1.5" stroke-linecap="round" stroke-linejoin="round"/>
<path d="M8.54297 17.0605H26.9277M26.9277 17.0605L18.1031 8.23585M26.9277 17.0605L18.1031 25.8852" stroke="black" stroke-opacity="0.2" stroke-width="1.5" stroke-linecap="round" stroke-linejoin="round"/>
<path d="M8.54297 17.0605H26.9277M26.9277 17.0605L18.1031 8.23585M26.9277 17.0605L18.1031 25.8852" stroke="black" stroke-opacity="0.2" stroke-width="1.5" stroke-linecap="round" stroke-linejoin="round"/>
<path d="M8.54297 17.0605H26.9277M26.9277 17.0605L18.1031 8.23585M26.9277 17.0605L18.1031 25.8852" stroke="black" stroke-opacity="0.2" stroke-width="1.5" stroke-linecap="round" stroke-linejoin="round"/>
</svg>
