<svg width="75" height="24" viewBox="0 0 75 24" fill="none" xmlns="http://www.w3.org/2000/svg">
<path d="M74.028 0.744141V16.974H0.484375V0.744141H74.028Z" fill="#FFCC00"/>
<path d="M13.4161 3.6582L11.0664 6.85044H23.8723C24.5196 6.85044 24.5111 7.09639 24.1947 7.525C23.8733 7.96009 23.3356 8.71677 23.0083 9.15873C22.8423 9.38302 22.542 9.79165 23.5371 9.79165H28.7739C28.7739 9.79165 29.618 8.64308 30.3254 7.68274C31.2881 6.37656 30.4089 3.65833 26.9678 3.65833L13.4161 3.6582Z" fill="#575551"/>
<path d="M10.1174 14.0581L14.8368 7.64551H20.6933C21.3406 7.64551 21.3322 7.89146 21.0158 8.32007C20.6945 8.75516 20.148 9.5038 19.8207 9.94576C19.6545 10.1701 19.3543 10.5793 20.3493 10.5793H28.1952C27.5427 11.4733 25.4262 14.058 21.6257 14.058L10.1174 14.0581ZM37.1459 10.5786L34.5866 14.0579H27.8355C27.8355 14.0579 30.3934 10.5793 30.3956 10.5793L37.1459 10.5786ZM47.4882 9.79165H30.9756L35.4911 3.6582H42.2402L39.652 7.17513H42.6646L45.2538 3.6582H52.0022L47.4882 9.79165ZM46.9086 10.5795L44.3481 14.0581H37.5995C37.5995 14.0581 40.1574 10.5795 40.1596 10.5795H46.9086ZM0.484375 11.9512H10.43L9.88672 12.6902H0.484375V11.9512ZM0.484375 10.5795H11.4404L10.8961 11.3175H0.484375V10.5795ZM0.484375 13.3236H9.42011L8.87942 14.0581H0.484375V13.3236ZM74.0283 12.6902H64.1209L64.6647 11.9513H74.0283V12.6902ZM74.0283 14.0581L63.1138 14.0592L63.6545 13.3236H74.0283V14.0581ZM65.6739 10.5795H74.0283V11.3178L65.1306 11.3185L65.6739 10.5795ZM61.3489 3.6582L56.8341 9.79152H49.6826C49.6826 9.79152 54.1985 3.6582 54.2009 3.6582H61.3489ZM49.1039 10.5795C49.1039 10.5795 48.6106 11.2536 48.3711 11.5777C47.5234 12.7234 48.2728 14.0581 51.0391 14.0581H61.8779L64.4381 10.5795H49.1039Z" fill="#575551"/>
<path d="M0.484375 19.6133H74.0283V19.9809H0.484375V19.6133ZM0.484375 21.3289H74.0283V21.6965H0.484375V21.3289ZM0.484375 23.0441H74.0283V23.4117H0.484375V23.0441Z" fill="#FFCC00"/>
<path d="M25.1797 23.4104H27.393L27.7463 22.9316H26.0992L27.0228 21.68H28.5228L28.8762 21.2011H27.3762L28.1952 20.0912H29.8425L30.1958 19.6123H27.9826L25.1797 23.4104ZM27.896 23.4104H28.5752L30.8904 21.7998L30.8677 23.4104H31.5809L31.5862 21.4244L34.2536 19.6123H33.6083L31.485 21.0706L31.5082 19.6123H30.829L30.8084 21.4353L27.896 23.4104ZM35.1104 20.0912H35.5915C35.9426 20.0912 36.3347 20.2653 35.9814 20.7441C35.6119 21.2446 35.0459 21.4133 34.6949 21.4133H34.1345L35.1104 20.0912ZM32.0948 23.4104H32.6608L33.7811 21.8923H34.3358C35.049 21.8923 35.9548 21.593 36.5772 20.7494C37.2157 19.8842 36.7428 19.612 35.9335 19.612H34.8977L32.0948 23.4104ZM35.3544 23.4104H35.9205L37.1653 21.7235H37.5048C37.8048 21.7235 37.9918 21.7235 37.8943 22.0935L37.5282 23.4104H38.1736L38.5427 21.8976C38.5909 21.6637 38.5664 21.5821 38.4388 21.5166L38.4469 21.5057C38.9618 21.4294 39.5591 21.103 39.9006 20.6404C40.5711 19.7319 39.9067 19.612 39.1253 19.612H38.1575L35.3544 23.4104ZM38.3701 20.0912H38.9134C39.4343 20.0912 39.5452 20.3089 39.2924 20.6515C39.0234 21.0163 38.5377 21.2446 37.9999 21.2446H37.5187L38.3701 20.0912ZM38.7596 23.4104H40.973L41.3261 22.9316H39.6791L40.6026 21.68H42.1027L42.4559 21.2011H40.956L41.7751 20.0912H43.4223L43.7758 19.6123H41.5626L38.7596 23.4104ZM46.5022 19.683C46.2988 19.5905 46.0194 19.5469 45.759 19.5469C45.0458 19.5469 44.2261 19.9062 43.7281 20.5809C42.8567 21.7618 44.7276 21.5278 44.101 22.3767C43.7718 22.8226 43.1903 22.997 42.8679 22.997C42.579 22.997 42.3198 22.888 42.1836 22.8118L41.7537 23.3179C41.9538 23.3995 42.1694 23.4758 42.4468 23.4758C43.2391 23.4758 44.1271 23.1544 44.7254 22.3436C45.6489 21.0923 43.8261 21.2606 44.3643 20.5317C44.6576 20.1345 45.1116 20.0257 45.4285 20.0257C45.7229 20.0257 45.845 20.0748 46.0533 20.1836L46.5022 19.683ZM49.3325 19.683C49.1291 19.5905 48.8498 19.5469 48.5893 19.5469C47.8761 19.5469 47.0564 19.9062 46.5584 20.5809C45.687 21.7618 47.5579 21.5278 46.9313 22.3767C46.6022 22.8226 46.0206 22.997 45.6982 22.997C45.4093 22.997 45.1499 22.888 45.014 22.8118L44.584 23.3179C44.7841 23.3995 44.9997 23.4758 45.2769 23.4758C46.0694 23.4758 46.9573 23.1544 47.5555 22.3436C48.4792 21.0923 46.6566 21.2606 47.1946 20.5317C47.4878 20.1345 47.9419 20.0257 48.2588 20.0257C48.5532 20.0257 48.6756 20.0748 48.8836 20.1836L49.3325 19.683Z" fill="#D2002E"/>
</svg>
