<svg width="182" height="54" viewBox="0 0 182 54" fill="none" xmlns="http://www.w3.org/2000/svg">
<g clip-path="url(#clip0_117_9215)">
<path d="M17.5828 0H21.1123C22.9977 3.525 24.1667 8.445 24.6192 14.76C24.6795 15.63 25.0038 16.23 25.592 16.56C26.2859 16.965 26.6253 16.77 26.6102 15.975L26.4518 2.4975C26.4367 1.3725 26.9948 0.8925 28.126 1.0575L30.7732 1.4625C31.7083 1.5975 32.1759 2.1375 32.1759 3.0825V39.555C32.1759 40.425 31.7762 41.0325 30.9768 41.3775C29.8305 41.8725 28.7595 41.7225 27.764 40.9275C27.1004 40.3725 26.6705 39.465 26.4744 38.205C25.6901 33.255 24.8379 28.335 23.9178 23.445C23.8648 23.1825 23.7137 22.9498 23.495 22.7938C23.2762 22.6378 23.0061 22.5701 22.7391 22.6044C22.4722 22.6386 22.2282 22.7723 22.0564 22.9784C21.8847 23.1845 21.7979 23.4478 21.8137 23.715L22.9449 39.3975C22.963 39.6108 22.9307 39.8252 22.8505 40.0241C22.7703 40.223 22.6444 40.4011 22.4826 40.5447C22.3207 40.6882 22.1273 40.7934 21.9171 40.8519C21.707 40.9105 21.4858 40.921 21.2707 40.8825L18.4425 40.3425C17.6431 40.1925 17.251 39.705 17.266 38.88L17.5828 0Z" fill="#A868F6"/>
<path d="M122.855 0H124.552C129.741 3.015 131.77 8.1 130.638 15.255C130.518 15.96 130.103 16.3125 129.394 16.3125H126.498C126.158 16.3147 125.829 16.1919 125.574 15.9677C125.319 15.7435 125.157 15.4336 125.118 15.0975L124.598 10.71C124.492 9.825 124.055 9.6075 123.285 10.0575L122.765 10.3725C121.935 10.8525 121.611 11.5575 121.792 12.4875L122.81 18.09C122.946 18.78 123.225 19.395 123.647 19.935C133.135 31.92 134.093 43.275 126.521 54H121.837C116.407 50.595 114.56 45.18 116.294 37.755C116.505 36.87 117.063 36.4425 117.968 36.4725L121 36.585C121.186 36.5906 121.369 36.637 121.535 36.7208C121.701 36.8046 121.847 36.9238 121.961 37.0698C122.076 37.2159 122.156 37.3853 122.198 37.566C122.239 37.7466 122.239 37.9341 122.199 38.115C121.792 40.02 122.056 41.775 122.991 43.38C123.67 44.52 124.16 44.4525 124.462 43.1775C125.578 38.4675 125.133 34.965 123.127 32.67C116.973 25.65 109.575 4.545 122.855 0Z" fill="#A868F6"/>
<path d="M140.368 0H143.241C147.088 1.74 149.139 5.265 149.395 10.575C149.644 15.7275 152.246 42.5925 147.631 49.635C140.821 60.03 134.418 47.9475 134.124 41.4225C133.581 29.3625 130.843 4.545 140.368 0ZM143.063 12.7145C143.063 12.5875 143.038 12.4616 142.989 12.3441C142.941 12.2267 142.869 12.1199 142.779 12.0299C142.689 11.9399 142.582 11.8684 142.464 11.8196C142.346 11.7707 142.219 11.7455 142.092 11.7452L141.775 11.7448C141.647 11.7445 141.521 11.7693 141.402 11.8177C141.284 11.8661 141.177 11.9372 141.086 12.0269C140.996 12.1165 140.924 12.2231 140.875 12.3404C140.826 12.4577 140.8 12.5834 140.8 12.7105L140.75 41.1505C140.75 41.2775 140.775 41.4034 140.824 41.5209C140.872 41.6383 140.944 41.7451 141.034 41.8351C141.124 41.9251 141.231 41.9966 141.349 42.0454C141.467 42.0943 141.594 42.1195 141.721 42.1198L142.038 42.1202C142.166 42.1205 142.293 42.0957 142.411 42.0473C142.529 41.9989 142.636 41.9278 142.727 41.8381C142.817 41.7485 142.889 41.6419 142.938 41.5246C142.987 41.4073 143.013 41.2816 143.013 41.1545L143.063 12.7145Z" fill="#A868F6"/>
<path d="M158.919 39.9369C159.206 39.9369 159.485 39.9369 159.756 39.9369C159.984 39.9369 160.203 39.8468 160.364 39.6865C160.525 39.5262 160.616 39.3087 160.616 39.0819L160.48 3.73442C160.48 2.68442 160.978 2.31692 161.973 2.63192L165.299 3.64442C166.084 3.89942 166.468 4.43192 166.453 5.24192C166.257 13.2669 166.204 25.3944 166.295 41.6244C166.34 53.0769 151.928 51.4344 152.041 43.8744C152.267 29.9394 152.162 16.0119 151.724 2.09192C151.694 1.26692 152.094 0.906923 152.923 1.01192L156.611 1.50692C157.365 1.61192 157.743 2.03942 157.743 2.78942V38.7669C157.743 39.5319 158.135 39.9219 158.919 39.9369Z" fill="#A868F6"/>
<path d="M55.9765 35.1441L55.9086 41.1291C55.9086 41.9391 55.524 42.4866 54.7547 42.7716C53.4727 43.2216 52.2283 43.1541 51.0216 42.5691C50.2675 42.1941 49.4605 42.0141 48.6007 42.0291L35.9534 42.2316C34.9428 42.2466 34.4375 41.7516 34.4375 40.7466V3.2166C34.4375 2.3466 34.8749 1.9866 35.7497 2.1366L44.5282 3.7341C45.4785 3.8991 46.2025 4.3866 46.7002 5.1966C47.7561 6.9516 47.8315 8.6691 46.9265 10.3491C46.5192 11.1141 45.9084 11.3691 45.0939 11.1141L43.8042 10.7091C42.8238 10.3941 42.1375 10.7016 41.7454 11.6316C40.3728 14.8266 40.9384 16.9191 43.4422 17.9091C44.0898 18.1714 44.6531 18.6043 45.0718 19.1611C45.4904 19.718 45.7485 20.3778 45.8183 21.0696C45.8881 21.7615 45.767 22.4591 45.4679 23.0876C45.1689 23.7161 44.7032 24.2516 44.121 24.6366C41.0742 26.6616 40.1993 29.5791 41.4965 33.3891C41.5577 33.5839 41.6741 33.7561 41.8311 33.8843C41.9881 34.0124 42.1787 34.0906 42.3789 34.1091L46.9491 34.6041C47.1771 34.6335 47.3943 34.7181 47.5816 34.8506C47.7689 34.983 47.9206 35.1592 48.0234 35.3637C48.1262 35.5681 48.1769 35.7945 48.1711 36.0231C48.1652 36.2516 48.103 36.4751 47.9899 36.6741C47.1754 38.0691 47.2206 39.4416 48.1256 40.7916C48.2175 40.9322 48.351 41.0409 48.5077 41.1029C48.6644 41.1648 48.8365 41.1768 49.0004 41.1373C49.1643 41.0978 49.3118 41.0087 49.4225 40.8823C49.5333 40.7559 49.6019 40.5984 49.6189 40.4316L53.4877 9.0441C53.6259 8.02644 54.1278 7.09224 54.9016 6.41233C55.6755 5.73242 56.6696 5.35224 57.7021 5.34132C58.7347 5.3304 59.7367 5.68946 60.5249 6.35284C61.3131 7.01622 61.8349 7.93959 61.9947 8.9541L67.0175 42.7491C67.1532 43.5891 66.7912 43.9866 65.9315 43.9416L61.8816 43.7391C60.8107 43.6791 60.2074 43.1241 60.0716 42.0741L59.1892 34.9416C59.1622 34.5179 58.9671 34.1223 58.6468 33.8417C58.3264 33.5611 57.9071 33.4185 57.4811 33.4454C57.055 33.4722 56.6572 33.6663 56.375 33.9848C56.0928 34.3034 55.9495 34.7204 55.9765 35.1441ZM56.9268 26.3016C56.2782 27.1116 56.3234 28.0266 57.0625 29.0466C57.2229 29.2755 57.4547 29.4437 57.7219 29.525C57.9891 29.6063 58.2766 29.5961 58.5398 29.496C58.8031 29.3959 59.0272 29.2115 59.1774 28.9716C59.3275 28.7316 59.3953 28.4495 59.3702 28.1691L58.601 19.6641C58.5852 19.5113 58.5157 19.3689 58.4047 19.262C58.2937 19.1551 58.1484 19.0906 57.9942 19.0799C57.8401 19.0691 57.6871 19.1128 57.5622 19.2032C57.4373 19.2936 57.3485 19.425 57.3114 19.5741C56.7985 21.7941 56.6703 24.0366 56.9268 26.3016Z" fill="#A868F6"/>
<path d="M0.5 30.2184V26.8659L1.54075 26.1459C1.588 26.1022 1.79667 26.0496 2.13318 25.9966C2.46969 25.9435 2.91449 25.8931 3.396 25.8534C5.67358 25.6734 6.75204 26.8209 6.63138 29.2959C6.60121 30.1509 7.00846 30.5184 7.85313 30.3984L8.75813 30.2634C9.24708 30.2019 9.70648 29.9994 10.0802 29.6806C10.4539 29.3617 10.7258 28.9402 10.8626 28.4677C10.9993 27.9952 10.9951 27.4921 10.8504 27.0198C10.7057 26.5476 10.4268 26.1266 10.0477 25.8084C5.387 21.9534 2.20442 17.8209 0.5 13.4109V9.00085C3.69012 -0.876646 16.066 1.84585 14.3691 11.8134C14.2183 12.7284 13.6753 13.1859 12.7401 13.1859H11.2695C10.6209 13.1859 10.1684 12.8859 9.912 12.2859L8.7355 9.58585C8.59921 9.29931 8.36588 9.0696 8.07639 8.93696C7.7869 8.80433 7.45971 8.77722 7.15214 8.8604C6.84457 8.94357 6.57624 9.13172 6.39416 9.39189C6.21208 9.65205 6.12786 9.96764 6.15625 10.2834C7.42325 20.3634 19.6181 20.3634 13.5094 34.6284C13.3668 34.9541 13.1578 35.2451 12.8964 35.4819C12.6349 35.7186 12.327 35.8956 11.9935 36.0009C5.82442 37.9208 1.99325 35.9934 0.5 30.2184Z" fill="#A868F6"/>
<path d="M106.635 32.1069C105.624 31.9269 105.119 32.2944 105.119 33.2094C105.164 38.6994 105.164 44.2794 105.119 49.9494C105.119 50.1635 105.068 50.3747 104.97 50.5654C104.872 50.7561 104.73 50.9209 104.555 51.0462C104.381 51.1714 104.179 51.2536 103.966 51.2859C103.753 51.3182 103.536 51.2997 103.331 51.2319L100.707 50.3769C100.365 50.2674 100.068 50.0517 99.8562 49.7606C99.6448 49.4696 99.5307 49.1182 99.5303 48.7569L99.3945 6.65938C99.3957 6.3238 99.503 5.99637 99.7016 5.72231C99.9002 5.44825 100.18 5.24108 100.503 5.12938C114.802 0.179384 113.218 14.0619 113.037 22.4544C113.022 23.2494 112.834 23.9994 112.472 24.7044C111.522 26.6094 111.695 28.4094 112.992 30.1044C113.256 30.4398 113.399 30.8517 113.399 31.2744L113.58 51.1194C113.595 52.2444 113.052 52.6794 111.951 52.4244L109.033 51.7494C108.218 51.5694 107.819 51.0669 107.834 50.2419L108.037 33.7719C108.038 33.3745 107.898 32.9897 107.641 32.6851C107.384 32.3805 107.028 32.1758 106.635 32.1069ZM105.775 14.0394C105.036 15.4644 104.847 16.9869 105.209 18.6069C105.33 19.1319 105.322 19.6569 105.187 20.1819C104.915 21.2319 105.224 22.0194 106.114 22.5444C107.306 23.2344 107.879 22.8894 107.834 21.5094L107.585 14.4444C107.585 14.2294 107.512 14.0206 107.377 13.8525C107.243 13.6844 107.054 13.5671 106.843 13.5199C106.632 13.4727 106.411 13.4985 106.217 13.5929C106.023 13.6874 105.867 13.8448 105.775 14.0394Z" fill="#A868F6"/>
<path d="M181.501 37.6419C181.501 39.5919 181.501 40.0044 181.501 38.8794C178.032 43.3644 174.201 45.1794 170.008 44.3244C169.284 44.1744 168.922 43.7319 168.922 42.9969L169.035 6.45693C169.043 6.12057 169.171 5.79869 169.396 5.5506C169.62 5.30251 169.926 5.14494 170.257 5.10693C173.107 4.81443 174.171 6.95193 174.148 9.53943C174.073 18.0894 174.088 26.6769 174.193 35.3019C174.209 36.1419 174.638 36.5469 175.483 36.5169C178.077 36.4269 180.084 36.8019 181.501 37.6419Z" fill="#A868F6"/>
<path d="M86.6996 46.0358L86.496 10.0133C86.496 9.17326 86.9108 8.66326 87.7403 8.48326L96.3605 6.54826C97.2655 6.33826 97.7104 6.69826 97.6953 7.62826L97.6275 13.9058C97.6124 14.6258 97.2655 15.0833 96.5867 15.2783L93.5323 16.1333C92.8083 16.3433 92.3634 16.8083 92.1975 17.5283C91.5941 20.0033 92.2729 22.0208 94.2337 23.5808C94.8069 24.0458 95.1991 24.6308 95.4102 25.3358C96.2851 28.2158 95.5535 30.4283 93.2156 31.9733C92.2521 32.6279 91.4257 33.6497 90.8973 34.84C90.3689 36.0302 90.1763 37.3037 90.357 38.4125C90.5376 39.5213 91.0786 40.3861 91.8747 40.8387C92.6707 41.2912 93.6649 41.2991 94.6636 40.8608C95.5083 40.4858 96.1418 40.3583 96.5641 40.4783C97.3786 40.7183 97.7858 41.2583 97.7858 42.0983V47.2733C97.7858 48.8333 97.0091 49.5683 95.4555 49.4783C92.1975 49.3133 89.0828 48.6308 86.1113 47.4308C85.4477 47.1608 84.7689 47.1008 84.0751 47.2508C77.1745 48.7808 77.4912 35.8433 76.9256 31.4783C76.82 30.6083 76.3072 30.2858 75.3871 30.5108C74.7083 30.6608 74.3916 31.0808 74.4368 31.7708L75.1608 44.2583C75.175 44.4716 75.1379 44.6852 75.0528 44.8815C74.9677 45.0778 74.8369 45.2512 74.6712 45.3874C74.5055 45.5236 74.3097 45.6187 74.0998 45.6649C73.8899 45.7112 73.672 45.7072 73.464 45.6533L69.9797 44.7308C69.2406 44.5208 68.8711 44.0408 68.8711 43.2908L68.9842 9.60826C68.9842 8.45326 69.5423 8.03326 70.6585 8.34826L73.7128 9.20326C74.6028 9.45826 75.0176 10.0433 74.9572 10.9583L74.4821 19.5083C74.4763 19.709 74.5396 19.9071 74.6613 20.0691C74.7829 20.2312 74.9555 20.3471 75.1498 20.3974C75.3441 20.4477 75.5482 20.4292 75.7275 20.3451C75.9068 20.261 76.0503 20.1164 76.1337 19.9358C77.1594 17.8058 77.725 15.4583 77.8306 12.8933C77.9965 9.51826 79.7613 8.25826 83.1248 9.11326C83.9393 9.32326 84.2335 9.82576 84.0072 10.6208L80.704 22.9958C80.4928 23.7908 80.4777 24.6008 80.6587 25.4258L85.229 46.1933C85.2727 46.3672 85.3782 46.5195 85.526 46.6221C85.6739 46.7247 85.854 46.7706 86.0333 46.7515C86.2125 46.7323 86.3787 46.6492 86.5012 46.5177C86.6236 46.3861 86.6941 46.215 86.6996 46.0358Z" fill="#A868F6"/>
</g>
<defs>
<clipPath id="clip0_117_9215">
<rect width="181" height="54" fill="white" transform="translate(0.5)"/>
</clipPath>
</defs>
</svg>
