<svg width="16" height="9" viewBox="0 0 16 9" fill="none" xmlns="http://www.w3.org/2000/svg">
<path d="M3.86274 0.570801C2.65111 0.570801 2.04529 0.570801 1.76477 0.810395C1.52136 1.01829 1.39218 1.33014 1.4173 1.64926C1.44624 2.01704 1.87462 2.44542 2.73137 3.30217L6.86863 7.43943C7.26465 7.83545 7.46265 8.03346 7.69098 8.10764C7.89183 8.1729 8.10817 8.1729 8.30902 8.10764C8.53735 8.03345 8.73535 7.83545 9.13137 7.43943L13.2686 3.30217C14.1254 2.44542 14.5538 2.01704 14.5827 1.64926C14.6078 1.33014 14.4786 1.01829 14.2352 0.810395C13.9547 0.570801 13.3489 0.570801 12.1373 0.570801L3.86274 0.570801Z" fill="#575551"/>
</svg>
