<svg width="44" height="27" viewBox="0 0 44 27" fill="none" xmlns="http://www.w3.org/2000/svg">
<path d="M36.5234 12.3162C38.6981 8.95851 37.8046 8.34875 35.5372 8.34875H33.2613C33.2529 8.34875 33.1349 8.23493 32.3425 8.99916C31.3985 9.45444 29.1479 9.51135 29.1479 9.70648C29.1479 10.0723 35.0736 9.45444 36.5739 9.70648C37.3747 9.82843 36.4475 11.365 36.2031 12.3081C36.1609 12.674 36.4054 12.4951 36.5234 12.3162ZM27.0743 14.1536C32.469 12.4219 35.2759 12.2105 35.672 12.0236C36.0429 11.7878 35.3012 11.487 33.4636 11.552C29.1057 11.7309 21.8651 14.5683 18.9149 15.9341L16.3272 8.34875H32.8988C32.6713 6.05607 20.0107 6.51135 4.41686 6.51135L0 26.4707C16.5548 18.5601 21.823 15.8772 27.0743 14.1536ZM5.70651 0.470703C27.0575 4.83656 33.5226 5.81217 33.6996 7.39753C36.7678 7.39753 37.5686 7.39753 38.1165 7.93412C39.895 9.53574 36.8858 13.4382 36.8858 13.4382C36.5149 13.674 2.62989 26.4626 2.62989 26.4626H38.2935L44 0.470703H5.70651Z" fill="black"/>
</svg>
