<svg width="74" height="24" viewBox="0 0 74 24" fill="none" xmlns="http://www.w3.org/2000/svg">
<path d="M73.9997 0.970703V17.3917H0V0.970703H73.9997Z" fill="#FFCC00"/>
<path d="M13.0127 3.91895L10.6484 7.14878H23.5338C24.1851 7.14878 24.1765 7.39763 23.8581 7.83129C23.5348 8.27151 22.9938 9.0371 22.6644 9.48427C22.4974 9.7112 22.1952 10.1246 23.1965 10.1246H28.4657C28.4657 10.1246 29.3151 8.96255 30.0269 7.99089C30.9955 6.66932 30.1109 3.91908 26.6484 3.91908L13.0127 3.91895Z" fill="#252B31"/>
<path d="M9.69274 14.4414L14.4415 7.95322H20.3343C20.9856 7.95322 20.9771 8.20207 20.6588 8.63573C20.3355 9.07595 19.7855 9.8334 19.4562 10.2806C19.289 10.5075 18.987 10.9216 19.9881 10.9216H27.8827C27.2262 11.8261 25.0965 14.4412 21.2724 14.4412L9.69274 14.4414ZM36.8889 10.9208L34.3137 14.4411H27.5208C27.5208 14.4411 30.0945 10.9216 30.0967 10.9216L36.8889 10.9208ZM47.2953 10.1246H30.6803L35.2239 3.91895H42.0148L39.4105 7.4773H42.4418L45.0471 3.91895H51.8373L47.2953 10.1246ZM46.7121 10.9217L44.1358 14.4414H37.3453C37.3453 14.4414 39.9191 10.9217 39.9213 10.9217H46.7121ZM0 12.3096H10.0073L9.46066 13.0573H0V12.3096ZM0 10.9217H11.024L10.4763 11.6684H0V10.9217ZM0 13.6982H8.99115L8.44711 14.4414H0V13.6982ZM74 13.0573H64.0312L64.5784 12.3097H74V13.0573ZM74 14.4414L63.0178 14.4424L63.5618 13.6982H74V14.4414ZM65.5938 10.9217H74V11.6688L65.0471 11.6695L65.5938 10.9217ZM61.242 3.91895L56.6992 10.1245H49.5033C49.5033 10.1245 54.0473 3.91895 54.0496 3.91895H61.242ZM48.9211 10.9217C48.9211 10.9217 48.4247 11.6038 48.1837 11.9317C47.3307 13.0909 48.0848 14.4414 50.8683 14.4414H61.7743L64.3504 10.9217H48.9211Z" fill="#252B31"/>
<path d="M0 20.0615H74V20.4335H0V20.0615ZM0 21.7973H74V22.1693H0V21.7973ZM0 23.5327H74V23.9047H0V23.5327Z" fill="#FFCC00"/>
<path d="M24.8477 23.9042H27.0747L27.4301 23.4197H25.7728L26.7022 22.1534H28.2115L28.567 21.6688H27.0578L27.8819 20.5458H29.5393L29.8949 20.0613H27.668L24.8477 23.9042ZM27.5808 23.9042H28.2642L30.5938 22.2746L30.5709 23.9042H31.2886L31.2939 21.8947L33.9778 20.0613H33.3286L31.1921 21.5368L31.2155 20.0613H30.532L30.5113 21.9057L27.5808 23.9042ZM34.84 20.5458H35.3241C35.6773 20.5458 36.0719 20.722 35.7163 21.2064C35.3446 21.7128 34.7751 21.8836 34.4219 21.8836H33.858L34.84 20.5458ZM31.8057 23.9042H32.3752L33.5024 22.3681H34.0606C34.7782 22.3681 35.6896 22.0653 36.3158 21.2118C36.9583 20.3364 36.4825 20.061 35.6682 20.061H34.6259L31.8057 23.9042ZM35.0855 23.9042H35.6551L36.9076 22.1974H37.2492C37.551 22.1974 37.7392 22.1974 37.6411 22.5717L37.2727 23.9042H37.9221L38.2936 22.3735C38.342 22.1369 38.3173 22.0543 38.189 21.988L38.1971 21.977C38.7152 21.8998 39.3163 21.5696 39.6598 21.1016C40.3345 20.1823 39.666 20.061 38.8798 20.061H37.9059L35.0855 23.9042ZM38.1199 20.5458H38.6665C39.1907 20.5458 39.3023 20.7661 39.0479 21.1127C38.7772 21.4818 38.2885 21.7128 37.7473 21.7128H37.2632L38.1199 20.5458ZM38.5118 23.9042H40.7389L41.0942 23.4197H39.437L40.3662 22.1534H41.8757L42.231 21.6688H40.7218L41.5459 20.5458H43.2034L43.5591 20.0613H41.3321L38.5118 23.9042ZM46.3024 20.1328C46.0977 20.0392 45.8166 19.9951 45.5546 19.9951C44.8369 19.9951 44.0121 20.3587 43.511 21.0413C42.6343 22.2361 44.5168 21.9993 43.8863 22.8582C43.555 23.3095 42.97 23.4859 42.6455 23.4859C42.3548 23.4859 42.094 23.3756 41.957 23.2985L41.5244 23.8106C41.7258 23.8932 41.9428 23.9703 42.2218 23.9703C43.0191 23.9703 43.9125 23.6451 44.5145 22.8248C45.4438 21.5587 43.6097 21.7291 44.1513 20.9916C44.4464 20.5897 44.9031 20.4796 45.222 20.4796C45.5183 20.4796 45.6411 20.5293 45.8508 20.6393L46.3024 20.1328ZM49.1502 20.1328C48.9456 20.0392 48.6645 19.9951 48.4024 19.9951C47.6848 19.9951 46.86 20.3587 46.3589 21.0413C45.4821 22.2361 47.3646 21.9993 46.7342 22.8582C46.403 23.3095 45.8179 23.4859 45.4934 23.4859C45.2027 23.4859 44.9418 23.3756 44.805 23.2985L44.3723 23.8106C44.5737 23.8932 44.7906 23.9703 45.0695 23.9703C45.8669 23.9703 46.7603 23.6451 47.3623 22.8248C48.2916 21.5587 46.4577 21.7291 46.9991 20.9916C47.2941 20.5897 47.751 20.4796 48.0699 20.4796C48.3662 20.4796 48.4892 20.5293 48.6986 20.6393L49.1502 20.1328Z" fill="#D2002E"/>
</svg>
