<svg width="29" height="36" viewBox="0 0 29 36" fill="none" xmlns="http://www.w3.org/2000/svg">
<path d="M14.4986 35.5994C14.793 35.4505 22.4478 32.1001 24.8767 30.0898C27.3793 28.0051 28.7041 25.0269 28.7041 21.453V4.70074L28.4833 4.62628C22.3742 1.27582 14.793 1.49919 14.4249 1.49919C14.1305 1.49919 6.54931 1.27582 0.440177 4.62628L0.292969 4.70074V21.5275C0.292969 25.1013 1.61784 28.0795 4.12038 30.1642C6.54931 32.1745 14.2041 35.525 14.4986 35.5994Z" fill="#341B14"/>
<path d="M14.5 35.9707C14.5 35.9707 6.40355 32.3969 3.90102 30.3866C1.25127 28.153 0 25.1003 0 21.601V4.17856C6.40355 0.679186 14.5 0.977004 14.5 0.977004C14.5 0.977004 22.5964 0.679186 29 4.17856V21.5265C29 25.0259 27.7487 28.0785 25.099 30.3121C22.5964 32.3969 14.5 35.9707 14.5 35.9707ZM1.17766 21.601C1.17766 24.877 2.35533 27.5573 4.63706 29.4187C6.69797 31.1311 12.8071 33.886 14.5 34.6305C16.1929 33.886 22.3756 31.0567 24.3629 29.4187C26.6447 27.5573 27.8223 24.8025 27.8223 21.601V4.47637C19.2843 3.65737 9.1269 4.1041 1.17766 11.5496V21.601Z" fill="#FFB406"/>
<path d="M22.6708 19.1426C23.7749 19.8127 24.2165 20.2595 24.2901 21.0785C24.2901 21.9719 23.7013 22.4931 22.7444 22.4931C21.9348 22.4931 20.9779 22.0464 20.3155 21.4507V23.8333C21.1251 24.28 22.082 24.6523 23.1124 24.6523C25.615 24.6523 26.7926 22.8654 26.7926 21.2274C26.8662 19.7383 26.4246 18.547 24.2901 17.2813C23.3332 16.6856 22.5972 16.3134 22.5972 15.4199C22.5972 14.5264 23.4068 14.1542 24.0693 14.1542C24.9525 14.1542 25.8358 14.6754 26.351 15.1965V12.9629C25.9094 12.5906 24.9525 12.0694 23.554 12.1439C21.8612 12.2183 20.0947 13.4096 20.0947 15.4944C20.1683 16.909 20.6099 17.9514 22.6708 19.1426ZM13.9855 24.5034C14.2063 24.5778 14.5744 24.6523 15.1632 24.6523C18.0337 24.6523 19.653 22.0464 19.653 18.3236C19.653 14.5264 17.9601 12.2183 14.9424 12.2183C13.5439 12.2183 12.4398 12.5162 11.483 13.1118V29.9386H13.9855V24.5034ZM13.9855 14.3775C14.2063 14.3031 14.5744 14.1542 14.8688 14.1542C16.3409 14.1542 16.9297 15.3454 16.9297 18.2492C16.9297 21.0785 16.1936 22.4186 14.7216 22.4186C14.3535 22.4186 14.0591 22.3442 13.9119 22.2697V14.3775H13.9855ZM6.2571 24.6523C7.80278 24.6523 9.12766 24.28 10.0845 23.6099V12.3673H7.50837V22.1208C7.21395 22.3442 6.84593 22.4186 6.3307 22.4186C5.15304 22.4186 5.00583 21.3018 5.00583 20.6317V12.3673H2.42969V20.4828C2.42969 23.2376 3.75456 24.6523 6.2571 24.6523Z" fill="#FFB406"/>
</svg>
