<svg width="30" height="31" viewBox="0 0 30 31" fill="none" xmlns="http://www.w3.org/2000/svg">
<g clip-path="url(#clip0_139_8224)">
<path d="M24.1032 6.10057C29.7927 11.3336 29.9081 20.4344 24.211 25.7535C21.7782 28.025 18.8792 29.2408 15.514 29.401C10.3571 29.6459 5.41534 26.7027 3.06339 22.1394C1.6087 19.3172 1.2087 16.3193 1.86339 13.1459C1.92237 12.8603 1.99874 12.6558 2.09249 12.5324C2.59639 11.8685 3.61944 12.1568 3.74893 12.9625C3.76807 13.0824 3.75694 13.2406 3.71554 13.4371C3.20343 15.8723 3.42432 18.4756 4.4714 20.7385C7.55929 27.4146 15.8737 29.6195 21.8187 25.3082C24.9054 23.0705 26.7007 19.3644 26.5513 15.516C26.2677 8.21639 19.4732 3.15975 12.4056 4.70018C12.1583 4.75409 11.9802 4.77401 11.8712 4.75995C11.031 4.64979 10.7907 3.55057 11.4698 3.06835C11.5612 3.0035 11.6964 2.9496 11.8753 2.90663C16.2581 1.84842 20.8179 3.07831 24.1032 6.10057Z" fill="#5A7BBC"/>
<path d="M7.33294 5.04592C8.10813 4.88069 8.7222 5.74612 8.30794 6.44514C8.25052 6.54202 8.09407 6.69241 7.8386 6.89631C7.06009 7.51702 6.36849 8.22346 5.7638 9.01565C5.6013 9.22854 5.47103 9.36526 5.37298 9.42581C4.52513 9.94963 3.54778 8.90491 4.12845 8.08752C4.84368 7.07932 5.7179 6.17288 6.7511 5.36819C6.9847 5.18616 7.17864 5.07873 7.33294 5.04592Z" fill="#5A7BBC"/>
<path d="M14.9996 10.9641C15.6876 10.9641 16.2453 10.4063 16.2453 9.71836C16.2453 9.03038 15.6876 8.47266 14.9996 8.47266C14.3116 8.47266 13.7539 9.03038 13.7539 9.71836C13.7539 10.4063 14.3116 10.9641 14.9996 10.9641Z" fill="#5A7BBC"/>
<path d="M14.9751 12.5333C15.4173 12.563 15.7093 12.7505 15.8511 13.0958C15.9097 13.238 15.9388 13.4802 15.9384 13.8224C15.9372 16.3009 15.9372 18.7796 15.9384 21.2585C15.9384 21.2666 15.9416 21.2743 15.9473 21.2801C15.953 21.2858 15.9608 21.289 15.9689 21.289C16.4856 21.2884 17.1653 21.156 17.5603 21.5989C18.0161 22.1105 17.814 22.9003 17.1589 23.1101C17.0503 23.1448 16.8665 23.1624 16.6075 23.1628C15.4665 23.1648 14.3253 23.1644 13.1839 23.1616C12.1251 23.1593 11.7876 21.7536 12.7773 21.3546C13.0989 21.2251 13.6579 21.2919 14.0235 21.2872C14.0497 21.2868 14.0628 21.2737 14.0628 21.248V14.3861C14.0628 14.3638 14.0526 14.3482 14.0323 14.3392C13.1657 13.9466 13.2899 12.7548 14.2052 12.5527C14.3689 12.5163 14.6255 12.5099 14.9751 12.5333Z" fill="#5A7BBC"/>
</g>
<defs>
<clipPath id="clip0_139_8224">
<rect width="30" height="30" fill="white" transform="translate(0 0.970703)"/>
</clipPath>
</defs>
</svg>
