<svg width="30" height="31" viewBox="0 0 30 31" fill="none" xmlns="http://www.w3.org/2000/svg">
<g clip-path="url(#clip0_139_2271)">
<path d="M19.0443 24.4092H14.7083C14.7043 24.4092 14.7003 24.41 14.6966 24.4116C14.6929 24.4131 14.6896 24.4154 14.6868 24.4183C14.684 24.4212 14.6818 24.4247 14.6804 24.4284C14.6789 24.4322 14.6783 24.4362 14.6784 24.4402C14.7269 25.5102 14.404 26.4006 13.7099 27.1115C11.4558 29.4189 7.61848 27.6588 7.83411 24.4385C7.83445 24.4339 7.83381 24.4293 7.83223 24.425C7.83065 24.4207 7.82817 24.4168 7.82495 24.4135C7.82174 24.4102 7.81786 24.4077 7.81358 24.406C7.80929 24.4044 7.80471 24.4036 7.80013 24.4039C6.25442 24.459 5.27239 23.4904 5.30931 21.9377C5.31009 21.9154 5.29915 21.9043 5.27649 21.9043C4.39954 21.9043 3.52102 21.9041 2.64095 21.9037C2.43274 21.9037 2.27708 21.8846 2.17395 21.8463C1.33841 21.534 1.38235 20.3352 2.23079 20.0773C2.33274 20.0465 2.50071 20.0309 2.7347 20.0305C3.8679 20.0285 5.0011 20.0283 6.13431 20.0299C6.80696 20.0311 7.18899 20.3908 7.19251 21.0705C7.19446 21.4697 7.19466 21.8588 7.19309 22.2377C7.19286 22.2765 7.20033 22.3151 7.21507 22.351C7.2298 22.387 7.25152 22.4197 7.27897 22.4472C7.30641 22.4748 7.33904 22.4967 7.37499 22.5116C7.41093 22.5265 7.44948 22.5342 7.48841 22.5342H8.57005C8.57943 22.5342 8.58868 22.5322 8.59717 22.5284C8.60567 22.5245 8.6132 22.5189 8.61927 22.5119C10.0472 20.8824 12.463 20.876 13.8874 22.5137C13.8995 22.5273 13.9146 22.5342 13.9325 22.5342H17.7845C17.7923 22.5342 17.7997 22.5311 17.8052 22.5256C17.8107 22.5201 17.8138 22.5127 17.8138 22.5049V16.9391C17.8138 16.9311 17.8106 16.9235 17.805 16.9179C17.7994 16.9123 17.7918 16.9092 17.7839 16.9092C16.0109 16.9092 14.2337 16.9092 12.4525 16.9092C12.199 16.9092 11.971 16.7906 11.7687 16.5535C11.348 16.0613 11.6099 15.275 12.2199 15.0816C12.3199 15.05 12.4769 15.0342 12.6909 15.0342C14.3886 15.0342 16.0859 15.0342 17.7827 15.0342C17.791 15.0342 17.7989 15.0309 17.8047 15.0251C17.8105 15.0193 17.8138 15.0114 17.8138 15.0031C17.8138 12.8301 17.8138 10.6529 17.8138 8.47168C17.8138 8.26133 17.6486 8.16465 17.4458 8.16465C14.1165 8.16426 10.798 8.16406 7.49016 8.16406C7.41179 8.16406 7.33662 8.19522 7.28114 8.25069C7.22567 8.30617 7.19442 8.38143 7.19427 8.45996C7.1927 10.0705 7.19309 11.6953 7.19544 13.3344C7.19602 14.0293 6.82513 14.4348 6.08391 14.4113C5.73977 14.4004 5.01263 14.398 3.90247 14.4043C3.68059 14.4055 3.51458 14.384 3.40442 14.3398C2.59759 14.0158 2.63274 12.8521 3.46009 12.585C3.56985 12.5498 3.75852 12.5316 4.0261 12.5305C4.4304 12.5285 4.84915 12.5291 5.28235 12.5322C5.29199 12.5322 5.30123 12.5285 5.30804 12.5218C5.31485 12.5151 5.31868 12.506 5.31868 12.4965C5.31907 11.1211 5.31888 9.74043 5.31809 8.35449C5.31751 7.43164 6.07571 6.6043 6.92942 6.36699C7.11536 6.31543 7.37474 6.28945 7.70755 6.28906C10.8126 6.28906 13.9173 6.28906 17.0216 6.28906C17.549 6.28906 17.9179 6.31934 18.1284 6.37988C18.8527 6.58848 19.4398 7.20664 19.6214 7.94727C19.762 8.51621 19.6876 9.35996 19.6894 10.0039C19.6894 10.0262 19.7007 10.0373 19.7234 10.0373C20.7292 10.0408 21.7329 10.0412 22.7345 10.0385C23.1759 10.0377 23.4956 10.0652 23.6937 10.1211C24.1913 10.2617 24.6134 10.5625 24.9599 11.0234C26.0622 12.4895 27.163 13.9568 28.2622 15.4256C28.5435 15.8018 28.4286 16.6133 28.4286 17.0738C28.4286 18.7863 28.431 20.499 28.4357 22.2119C28.4392 23.5525 27.2966 24.5076 25.9806 24.3992C25.9435 24.3961 25.9259 24.4131 25.9279 24.4502C25.9771 25.5143 25.6546 26.4012 24.9605 27.1109C22.7005 29.4219 18.8872 27.66 19.0765 24.4432C19.0777 24.4205 19.0669 24.4092 19.0443 24.4092ZM26.4675 16.2828C26.4843 16.2961 26.5023 16.299 26.5214 16.2916C26.5259 16.2899 26.5299 16.2872 26.5332 16.2837C26.5365 16.2802 26.5389 16.276 26.5402 16.2714C26.5416 16.2668 26.5419 16.2619 26.5411 16.2572C26.5402 16.2525 26.5383 16.248 26.5355 16.2441L23.3697 12.0266C23.3436 11.9916 23.3098 11.9633 23.2708 11.9438C23.2319 11.9242 23.1889 11.9141 23.1452 11.9141L19.7181 11.9135C19.7103 11.9135 19.7029 11.9166 19.6974 11.9222C19.6919 11.9278 19.6888 11.9354 19.6888 11.9434V16.2512C19.6888 16.2591 19.6919 16.2667 19.6974 16.2723C19.7029 16.2779 19.7103 16.2811 19.7181 16.2811C21.9939 16.2775 24.2437 16.2781 26.4675 16.2828ZM19.8575 22.523C21.289 20.89 23.7048 20.8648 25.1351 22.5113C25.1476 22.5258 25.1636 22.5332 25.1831 22.5336C25.5152 22.5355 25.8466 22.5352 26.1775 22.5324C26.3697 22.5307 26.5589 22.4469 26.5589 22.2412C26.5589 20.8908 26.5589 19.5477 26.5589 18.2117C26.5589 18.1965 26.5529 18.1819 26.5421 18.1711C26.5313 18.1603 26.5167 18.1543 26.5015 18.1543H19.7181C19.7103 18.1543 19.7029 18.1574 19.6974 18.1629C19.6919 18.1684 19.6888 18.1758 19.6888 18.1836V22.4598C19.6887 22.4794 19.6947 22.4986 19.7058 22.5147C19.7169 22.5309 19.7328 22.5432 19.7512 22.5501C19.7695 22.557 19.7896 22.5581 19.8086 22.5533C19.8276 22.5484 19.8447 22.5379 19.8575 22.523ZM12.8081 24.7221C12.8081 24.3092 12.6441 23.9132 12.3521 23.6212C12.0602 23.3293 11.6642 23.1652 11.2513 23.1652C10.8384 23.1652 10.4424 23.3293 10.1504 23.6212C9.85849 23.9132 9.69446 24.3092 9.69446 24.7221C9.69446 24.9265 9.73473 25.129 9.81297 25.3178C9.89121 25.5067 10.0059 25.6784 10.1504 25.8229C10.295 25.9675 10.4666 26.0822 10.6555 26.1604C10.8444 26.2386 11.0469 26.2789 11.2513 26.2789C11.4557 26.2789 11.6582 26.2386 11.8471 26.1604C12.036 26.0822 12.2076 25.9675 12.3521 25.8229C12.4967 25.6784 12.6114 25.5067 12.6896 25.3178C12.7679 25.129 12.8081 24.9265 12.8081 24.7221ZM24.0581 24.7221C24.0581 24.3092 23.8941 23.9132 23.6021 23.6212C23.3102 23.3293 22.9142 23.1652 22.5013 23.1652C22.0884 23.1652 21.6924 23.3293 21.4004 23.6212C21.1085 23.9132 20.9445 24.3092 20.9445 24.7221C20.9445 24.9265 20.9847 25.129 21.063 25.3178C21.1412 25.5067 21.2559 25.6784 21.4004 25.8229C21.545 25.9675 21.7166 26.0822 21.9055 26.1604C22.0944 26.2386 22.2969 26.2789 22.5013 26.2789C22.7057 26.2789 22.9082 26.2386 23.0971 26.1604C23.286 26.0822 23.4576 25.9675 23.6021 25.8229C23.7467 25.6784 23.8614 25.5067 23.9396 25.3178C24.0179 25.129 24.0581 24.9265 24.0581 24.7221Z" fill="#5A7BBC"/>
<path d="M7.52539 16.2852H3.72266C3.22431 16.2852 2.82031 16.6891 2.82031 17.1875V17.2484C2.82031 17.7468 3.22431 18.1508 3.72266 18.1508H7.52539C8.02374 18.1508 8.42773 17.7468 8.42773 17.2484V17.1875C8.42773 16.6891 8.02374 16.2852 7.52539 16.2852Z" fill="#5A7BBC"/>
</g>
<defs>
<clipPath id="clip0_139_2271">
<rect width="30" height="30" fill="white" transform="translate(0 0.970703)"/>
</clipPath>
</defs>
</svg>
