<svg width="20" height="21" viewBox="0 0 20 21" fill="none" xmlns="http://www.w3.org/2000/svg">
<g clip-path="url(#clip0_119_5732)">
<path d="M12.127 6.19402C13.2867 6.19635 14.4463 6.19664 15.6057 6.19489C16.3019 6.19358 16.6482 6.51898 17.1284 7.0651C17.918 7.9622 18.7044 8.86192 19.4878 9.76426C19.842 10.1725 19.9995 10.5106 19.9999 11.034C20.0002 12.0762 20.0005 13.1183 20.0008 14.1602C20.0011 14.4158 19.9819 14.6147 19.9432 14.7569C19.7899 15.3217 19.4147 15.7086 18.8174 15.9176C18.813 15.9191 18.8083 15.9195 18.8037 15.9187C18.7992 15.9178 18.7949 15.9158 18.7914 15.9129C18.7879 15.9099 18.7852 15.9061 18.7836 15.9018C18.7821 15.8975 18.7817 15.8929 18.7825 15.8884C19.2396 13.3293 16.7062 11.246 14.3058 12.2807C12.862 12.9035 12.0917 14.4211 12.3984 15.9525C12.3989 15.9554 12.3989 15.9584 12.3982 15.9612C12.3975 15.9641 12.3962 15.9667 12.3944 15.969C12.3925 15.9713 12.3902 15.9731 12.3876 15.9744C12.385 15.9757 12.3821 15.9765 12.3792 15.9765C12.1475 15.9787 11.9687 15.9765 11.6991 15.9525C11.5613 15.9399 11.4165 15.977 11.2952 15.977C10.3039 15.977 9.31462 15.977 8.32737 15.977C8.31254 15.977 8.30628 15.9697 8.30861 15.9552C8.50112 14.7577 8.19884 13.7607 7.40176 12.9642C6.41291 11.9758 4.88144 11.7372 3.6444 12.371C2.32142 13.0488 1.63485 14.4956 1.92928 15.9477C1.93 15.9514 1.92991 15.9551 1.92903 15.9586C1.92816 15.9622 1.92651 15.9655 1.92422 15.9684C1.92192 15.9712 1.91903 15.9735 1.91576 15.9751C1.91249 15.9766 1.90891 15.9774 1.90529 15.9774C1.67847 15.9787 1.42984 15.9778 1.21698 15.9159C0.380797 15.6729 -0.000435819 15.0378 3.73866e-07 14.1929C0.00116356 11.5101 0.00145437 8.82732 0.000872781 6.14473C0.000872781 5.88999 0.0164303 5.69967 0.0475455 5.57375C0.185819 5.01542 0.632481 4.56004 1.1799 4.40606C1.33228 4.36332 1.57509 4.34194 1.90835 4.34194C4.75116 4.34136 7.59398 4.34252 10.4368 4.34543C11.2202 4.34587 11.9203 4.88326 12.0612 5.63918C12.0749 5.71217 12.0876 5.88839 12.0996 6.16785C12.1004 6.1853 12.1096 6.19402 12.127 6.19402ZM17.7365 9.89076C17.1226 9.18354 16.5131 8.48709 15.908 7.80139C15.8111 7.69147 15.7653 7.60249 15.6061 7.60249C14.6 7.60132 13.5929 7.60132 12.5851 7.60249C12.5705 7.60249 12.5632 7.60976 12.5632 7.6243L12.5628 9.88073C12.5628 9.9101 12.5775 9.92478 12.6069 9.92478H17.7212C17.7512 9.92478 17.7563 9.91344 17.7365 9.89076Z" fill="#5A7BBC"/>
<path d="M5.1157 17.5986C6.39851 17.5986 7.43843 16.5587 7.43843 15.2759C7.43843 13.993 6.39851 12.9531 5.1157 12.9531C3.83289 12.9531 2.79297 13.993 2.79297 15.2759C2.79297 16.5587 3.83289 17.5986 5.1157 17.5986Z" fill="#5A7BBC"/>
<path d="M15.5844 17.5986C16.8673 17.5986 17.9072 16.5587 17.9072 15.2759C17.9072 13.993 16.8673 12.9531 15.5844 12.9531C14.3016 12.9531 13.2617 13.993 13.2617 15.2759C13.2617 16.5587 14.3016 17.5986 15.5844 17.5986Z" fill="#5A7BBC"/>
</g>
<defs>
<clipPath id="clip0_119_5732">
<rect width="20" height="20" fill="white" transform="translate(0 0.970703)"/>
</clipPath>
</defs>
</svg>
