<svg width="43" height="28" viewBox="0 0 43 28" fill="none" xmlns="http://www.w3.org/2000/svg">
<rect x="0.898438" y="1.4707" width="41" height="26" rx="3.5" fill="white" stroke="#9B9B9B"/>
<path d="M13.4042 24.0039V22.733C13.4042 22.2469 13.1081 21.9285 12.5997 21.9285C12.3455 21.9285 12.0691 22.0124 11.8791 22.2888C11.7311 22.0569 11.5188 21.9285 11.2005 21.9285C10.9883 21.9285 10.7761 21.9927 10.6083 22.2247V21.9705H10.1641V24.0039H10.6083V22.8811C10.6083 22.5208 10.7983 22.3505 11.0944 22.3505C11.3905 22.3505 11.5386 22.5405 11.5386 22.8811V24.0039H11.9828V22.8811C11.9828 22.5208 12.195 22.3505 12.4689 22.3505C12.765 22.3505 12.9131 22.5405 12.9131 22.8811V24.0039H13.4042ZM19.993 21.9705H19.2724V21.356H18.8283V21.9705H18.426V22.3727H18.8283V23.3055C18.8283 23.7719 19.0183 24.0459 19.5266 24.0459C19.7166 24.0459 19.9289 23.9817 20.0769 23.8978L19.9486 23.5153C19.8203 23.5992 19.6722 23.6214 19.5661 23.6214C19.3539 23.6214 19.27 23.4931 19.27 23.2833V22.3727H19.9906V21.9705H19.993ZM23.7637 21.9261C23.5095 21.9261 23.3393 22.0544 23.2332 22.2222V21.968H22.789V24.0014H23.2332V22.8564C23.2332 22.5183 23.3812 22.3258 23.6576 22.3258C23.7415 22.3258 23.8476 22.3481 23.934 22.3678L24.0623 21.9434C23.9735 21.9261 23.8476 21.9261 23.7637 21.9261ZM18.0657 22.1383C17.8535 21.9902 17.5574 21.9261 17.239 21.9261C16.7307 21.9261 16.3926 22.1803 16.3926 22.5825C16.3926 22.9206 16.6468 23.1131 17.091 23.1747L17.3032 23.197C17.5352 23.2389 17.6635 23.3031 17.6635 23.4092C17.6635 23.5572 17.4932 23.6634 17.1971 23.6634C16.901 23.6634 16.6665 23.5572 16.5185 23.4511L16.3062 23.7892C16.5382 23.9595 16.8565 24.0434 17.1749 24.0434C17.7671 24.0434 18.1077 23.767 18.1077 23.387C18.1077 23.0267 17.8313 22.8367 17.4093 22.7725L17.1971 22.7503C17.0071 22.7281 16.859 22.6861 16.859 22.5603C16.859 22.4122 17.0071 22.3283 17.2415 22.3283C17.4957 22.3283 17.7499 22.4344 17.8782 22.4986L18.0657 22.1383ZM29.8837 21.9261C29.6295 21.9261 29.4592 22.0544 29.3531 22.2222V21.968H28.9089V24.0014H29.3531V22.8564C29.3531 22.5183 29.5012 22.3258 29.7776 22.3258C29.8615 22.3258 29.9676 22.3481 30.054 22.3678L30.1823 21.9483C30.0959 21.9261 29.9701 21.9261 29.8837 21.9261ZM24.2079 22.9872C24.2079 23.6017 24.6324 24.0459 25.2888 24.0459C25.5849 24.0459 25.7971 23.9817 26.0093 23.8139L25.7971 23.4536C25.6268 23.5819 25.459 23.6436 25.2666 23.6436C24.9063 23.6436 24.6521 23.3894 24.6521 22.9872C24.6521 22.6047 24.9063 22.3505 25.2666 22.3308C25.4566 22.3308 25.6268 22.3949 25.7971 22.5208L26.0093 22.1605C25.7971 21.9902 25.5849 21.9285 25.2888 21.9285C24.6324 21.9261 24.2079 22.3727 24.2079 22.9872ZM28.3167 22.9872V21.9705H27.8725V22.2247C27.7244 22.0347 27.5122 21.9285 27.2358 21.9285C26.6633 21.9285 26.2191 22.3727 26.2191 22.9872C26.2191 23.6017 26.6633 24.0459 27.2358 24.0459C27.5319 24.0459 27.7442 23.9397 27.8725 23.7497V24.0039H28.3167V22.9872ZM26.6855 22.9872C26.6855 22.6269 26.9175 22.3308 27.3 22.3308C27.6603 22.3308 27.9144 22.6072 27.9144 22.9872C27.9144 23.3475 27.6603 23.6436 27.3 23.6436C26.9199 23.6214 26.6855 23.345 26.6855 22.9872ZM21.37 21.9261C20.7778 21.9261 20.3533 22.3505 20.3533 22.9847C20.3533 23.6214 20.7778 24.0434 21.3922 24.0434C21.6884 24.0434 21.9845 23.9595 22.2189 23.767L22.0067 23.4487C21.8364 23.577 21.6242 23.6609 21.4144 23.6609C21.1381 23.6609 20.8641 23.5326 20.8 23.1747H22.3028C22.3028 23.1106 22.3028 23.0686 22.3028 23.0045C22.3226 22.3505 21.9401 21.9261 21.37 21.9261ZM21.37 22.3086C21.6464 22.3086 21.8364 22.4788 21.8784 22.7947H20.8197C20.8617 22.5208 21.0517 22.3086 21.37 22.3086ZM32.4057 22.9872V21.166H31.9615V22.2247C31.8134 22.0347 31.6012 21.9285 31.3248 21.9285C30.7523 21.9285 30.3081 22.3727 30.3081 22.9872C30.3081 23.6017 30.7523 24.0459 31.3248 24.0459C31.621 24.0459 31.8332 23.9397 31.9615 23.7497V24.0039H32.4057V22.9872ZM30.7745 22.9872C30.7745 22.6269 31.0065 22.3308 31.389 22.3308C31.7493 22.3308 32.0035 22.6072 32.0035 22.9872C32.0035 23.3475 31.7493 23.6436 31.389 23.6436C31.0065 23.6214 30.7745 23.345 30.7745 22.9872ZM15.904 22.9872V21.9705H15.4598V22.2247C15.3117 22.0347 15.0995 21.9285 14.8231 21.9285C14.2506 21.9285 13.8064 22.3727 13.8064 22.9872C13.8064 23.6017 14.2506 24.0459 14.8231 24.0459C15.1193 24.0459 15.3315 23.9397 15.4598 23.7497V24.0039H15.904V22.9872ZM14.2531 22.9872C14.2531 22.6269 14.4851 22.3308 14.8676 22.3308C15.2278 22.3308 15.482 22.6072 15.482 22.9872C15.482 23.3475 15.2278 23.6436 14.8676 23.6436C14.4851 23.6214 14.2531 23.345 14.2531 22.9872Z" fill="#9B9B9B"/>
<path d="M24.5907 6.52734H17.918V18.5156H24.5907V6.52734Z" fill="#AFAFAF"/>
<path d="M18.3603 12.5218C18.3603 10.0861 19.5053 7.92439 21.2624 6.52765C19.9693 5.51095 18.3381 4.89648 16.5589 4.89648C12.344 4.89648 8.93359 8.30689 8.93359 12.5218C8.93359 16.7366 12.344 20.147 16.5589 20.147C18.3381 20.147 19.9693 19.5326 21.2624 18.5159C19.5029 17.1389 18.3603 14.9574 18.3603 12.5218Z" fill="#9B9B9B"/>
<path d="M33.5905 12.5218C33.5905 16.7366 30.1801 20.147 25.9652 20.147C24.186 20.147 22.5548 19.5326 21.2617 18.5159C23.041 17.1167 24.1638 14.9574 24.1638 12.5218C24.1638 10.0861 23.0187 7.92439 21.2617 6.52765C22.5523 5.51095 24.1835 4.89648 25.9627 4.89648C30.1801 4.89648 33.5905 8.32909 33.5905 12.5218Z" fill="#C6C6C6"/>
</svg>
