<svg width="16" height="9" viewBox="0 0 16 9" fill="none" xmlns="http://www.w3.org/2000/svg">
<path d="M3.86274 0.642578C2.65111 0.642578 2.04529 0.642579 1.76477 0.882173C1.52136 1.09006 1.39218 1.40192 1.4173 1.72104C1.44624 2.08882 1.87462 2.5172 2.73137 3.37395L6.86863 7.51121C7.26465 7.90722 7.46265 8.10523 7.69098 8.17942C7.89183 8.24468 8.10817 8.24468 8.30902 8.17942C8.53735 8.10523 8.73535 7.90722 9.13137 7.51121L13.2686 3.37395C14.1254 2.5172 14.5538 2.08882 14.5827 1.72104C14.6078 1.40192 14.4786 1.09006 14.2352 0.882172C13.9547 0.642578 13.3489 0.642578 12.1373 0.642578L3.86274 0.642578Z" fill="#575551"/>
</svg>
