<svg width="42" height="43" viewBox="0 0 42 43" fill="none" xmlns="http://www.w3.org/2000/svg">
<path d="M7.62659 9.10845C5.81841 9.10488 4.30682 7.83703 4.03891 6.0549C3.7701 4.25848 4.9206 2.5576 6.67322 2.09868C6.99639 2.01416 7.4898 1.9716 8.15346 1.971C13.0237 1.97041 17.8936 1.9707 22.7632 1.97189C23.4477 1.97189 23.9516 2.01505 24.2747 2.10136C27.8275 3.04867 27.7782 8.13256 24.1986 9.00398C23.9041 9.07541 23.4226 9.11142 22.7542 9.11202C20.817 9.1144 18.881 9.1147 16.9462 9.11291C16.94 9.11291 16.934 9.11411 16.9283 9.11645C16.9227 9.11878 16.9175 9.1222 16.9132 9.12651C16.9089 9.13082 16.9054 9.13594 16.9031 9.14157C16.9008 9.14721 16.8996 9.15324 16.8996 9.15934V12.7513C16.8996 12.7705 16.9034 12.7895 16.9107 12.8071C16.9181 12.8248 16.9289 12.8407 16.9426 12.854C18.0626 13.9513 19.2669 14.9423 19.6405 16.5396C19.7235 16.8944 19.7654 17.4861 19.7659 18.3146C19.7677 23.9289 19.7677 29.5345 19.7659 35.1315C19.7659 35.1749 19.7854 35.2068 19.8242 35.227C20.9066 35.7895 21.3232 36.544 21.7462 37.6422C21.7569 37.6707 21.7775 37.685 21.808 37.685C23.0254 37.685 24.2419 37.685 25.4575 37.685C26.2872 37.685 26.8825 37.6562 27.2433 37.5984C29.9376 37.1681 32.0863 35.0493 32.5612 32.3833C32.6819 31.7089 32.6968 31.1169 32.606 30.6074C32.356 29.2092 31.2279 28.0556 29.8167 27.7637C29.7115 27.7416 29.3528 27.7131 28.7405 27.678C25.2908 27.4762 22.5947 24.6253 22.6386 21.1637C22.6762 18.1307 24.8805 15.5138 27.8669 14.9468C28.2689 14.8706 28.8639 14.8313 29.6518 14.8289C30.6422 14.8266 31.6317 14.8266 32.6203 14.8289C32.6312 14.8292 32.6417 14.8254 32.6498 14.8183C32.658 14.8112 32.6631 14.8013 32.6642 14.7905C32.7771 13.7388 33.4608 13.3995 34.4222 13.4004C35.4312 13.4004 36.7913 13.2763 37.6614 13.5263C39.5269 14.062 40.5018 16.0977 39.7393 17.87C39.0475 19.478 37.415 20.1334 35.708 19.7262C35.3944 19.6512 34.7995 19.4542 33.9231 19.1352C33.1562 18.8548 32.7556 18.5557 32.6723 17.7486C32.6675 17.7063 32.6439 17.6852 32.6015 17.6852C31.4713 17.6852 30.3292 17.6858 29.1751 17.687C27.1098 17.6887 25.4656 19.2691 25.5104 21.3521C25.548 23.0717 26.8284 24.5057 28.5479 24.7824C28.9583 24.8485 29.5514 24.8315 29.9788 24.8932C33.4662 25.3923 35.7582 28.4431 35.5091 31.8877C35.1883 36.319 31.7978 39.9002 27.3732 40.4636C25.9288 40.6475 24.2219 40.5413 22.6968 40.543C22.6652 40.543 22.6473 40.5585 22.6431 40.5895C22.4943 41.6671 21.8044 41.9707 20.8098 41.9707C17.1248 41.9701 13.4394 41.9639 9.75376 41.952C8.98586 41.9502 8.35237 41.3966 8.3022 40.6341C8.29085 40.4526 8.34043 40.193 8.45094 39.8555C8.6857 39.1389 8.92523 38.424 9.16955 37.7109C9.57634 36.5252 10.0459 35.7886 11.1229 35.219C11.1356 35.2122 11.1462 35.202 11.1537 35.1896C11.1611 35.1772 11.165 35.163 11.165 35.1484C11.1644 29.3628 11.1644 23.5792 11.165 17.7977C11.165 15.4745 12.5019 14.3834 13.9982 12.8602C14.02 12.8379 14.0322 12.8081 14.0323 12.7772V9.15845C14.0323 9.14684 14.0276 9.13572 14.0192 9.12751C14.0108 9.11931 13.9994 9.1147 13.9875 9.1147C11.8741 9.1147 9.75376 9.11261 7.62659 9.10845ZM24.0597 5.53972C24.0597 5.44639 24.0413 5.35398 24.0054 5.26775C23.9696 5.18152 23.917 5.10317 23.8508 5.03718C23.7846 4.97118 23.7059 4.91883 23.6194 4.88312C23.5329 4.8474 23.4401 4.82902 23.3465 4.82902H7.58538C7.39621 4.82902 7.2148 4.90389 7.08104 5.03718C6.94728 5.17046 6.87214 5.35123 6.87214 5.53972V5.5558C6.87214 5.74429 6.94728 5.92506 7.08104 6.05834C7.2148 6.19163 7.39621 6.2665 7.58538 6.2665H23.3465C23.4401 6.2665 23.5329 6.24812 23.6194 6.21241C23.7059 6.17669 23.7846 6.12434 23.8508 6.05834C23.917 5.99235 23.9696 5.914 24.0054 5.82777C24.0413 5.74154 24.0597 5.64913 24.0597 5.5558V5.53972ZM15.4677 15.4352C15.4599 15.428 15.4525 15.428 15.4453 15.4352C14.8468 16.0263 14.0332 16.6459 14.0332 17.5521C14.0308 23.2932 14.0308 29.036 14.0332 34.7806C14.0332 34.8121 14.049 34.8279 14.0807 34.8279H16.8539C16.866 34.8279 16.8776 34.8231 16.8862 34.8146C16.8947 34.806 16.8996 34.7944 16.8996 34.7824C16.9002 29.1181 16.8999 23.4527 16.8987 17.7861C16.8987 16.628 16.2293 16.137 15.4677 15.4352ZM36.5207 16.9236C36.9445 17.0352 37.1121 16.5548 36.8424 16.3477C36.6291 16.1843 35.8792 16.2548 35.5969 16.2584C35.5569 16.2584 35.5369 16.2786 35.5369 16.3191V16.5959C35.5369 16.6358 35.5563 16.6611 35.5951 16.6718C35.9046 16.7581 36.2131 16.842 36.5207 16.9236ZM11.768 39.1145L19.1558 39.1154C19.1916 39.1154 19.2038 39.0984 19.1925 39.0645C19.0464 38.6091 18.8601 37.6868 18.2436 37.6859C16.4623 37.6835 14.6813 37.6838 12.9006 37.6868C11.9974 37.6886 11.9643 38.4181 11.7331 39.0645C11.7311 39.0701 11.7305 39.0761 11.7313 39.082C11.7321 39.0879 11.7343 39.0935 11.7377 39.0984C11.7411 39.1033 11.7456 39.1073 11.7509 39.1101C11.7562 39.1129 11.762 39.1144 11.768 39.1145Z" fill="#252B31"/>
</svg>
