<svg width="42" height="43" viewBox="0 0 42 43" fill="none" xmlns="http://www.w3.org/2000/svg">
<g clip-path="url(#clip0_139_6205)">
<path d="M15.2636 0.970703H15.919C18.2859 1.11781 20.2174 2.05625 21.7137 3.78602C25.8948 8.62012 23.0188 16.158 16.7295 17.0693C16.3499 17.1246 15.8047 17.1522 15.0938 17.1522C10.6821 17.1511 6.27047 17.1508 1.85883 17.1514C0.860508 17.1522 0.168164 16.7027 0 15.6494V15.3828C0.119766 14.6751 0.468125 14.2144 1.04508 14.0005C1.2775 13.9141 1.69695 13.8709 2.30344 13.8709C6.58437 13.8682 10.8659 13.8687 15.1479 13.8726C15.7451 13.8731 16.2124 13.8373 16.5498 13.7651C19.5374 13.1245 21.2477 9.94082 19.9713 7.10992C17.9115 2.53914 11.1087 3.78191 10.7879 8.77762C10.7707 9.04586 10.7699 9.32723 10.6895 9.57168C10.2268 10.9826 8.22855 11.0917 7.63301 9.7259C7.53621 9.50496 7.49328 9.21156 7.50422 8.8457C7.63055 4.53414 10.9799 1.23484 15.2636 0.970703Z" fill="#252B31"/>
<path d="M42 15.2469V15.7826C41.8015 19.7455 38.9427 22.9743 35.0183 23.5304C34.6431 23.584 34.0976 23.6108 33.3818 23.6108C25.1349 23.6119 16.8886 23.6122 8.64278 23.6116C8.17028 23.6111 7.84025 23.5783 7.65267 23.5132C6.22696 23.0177 6.20892 20.9563 7.6338 20.4403C7.8356 20.367 8.16454 20.3304 8.62064 20.3304C16.8216 20.3304 25.0225 20.3304 33.2234 20.3304C33.9781 20.3304 34.5226 20.2978 34.8567 20.2328C37.3365 19.7496 38.9804 17.3691 38.6793 14.895C38.4209 12.7786 36.6761 11.0485 34.5761 10.7524C31.687 10.3447 29.2408 12.5333 29.0924 15.3978C29.077 15.7008 29.0431 15.9228 28.9906 16.0639C28.3131 17.899 25.725 17.2993 25.8193 15.2641C25.9325 12.8207 26.9152 10.8232 28.7675 9.27175C31.7305 6.78948 36.1413 6.83214 39.0887 9.31769C40.8792 10.8276 41.8496 12.804 42 15.2469Z" fill="#252B31"/>
<path d="M27.7225 42.9705H27.1679C22.9253 42.7392 19.6211 39.522 19.3725 35.2793C19.3307 34.5681 19.4562 33.9701 20.0197 33.5616C21.1034 32.7773 22.5701 33.5025 22.639 34.833C22.6592 35.2197 22.6704 35.4201 22.6726 35.4343C23.0861 38.1799 25.5519 40.1396 28.3213 39.6089C31.7043 38.96 33.39 35.0775 31.4286 32.1859C30.7068 31.1222 29.7079 30.4534 28.432 30.1794C28.0891 30.1056 27.6024 30.0687 26.9719 30.0687C18.7337 30.072 10.4964 30.0725 2.25996 30.0703C1.68027 30.0703 1.27613 30.0279 1.04754 29.9432C0.466758 29.7282 0.117578 29.2634 0 28.5486V28.3025C0.159961 27.2427 0.856406 26.7891 1.85883 26.7891C10.2151 26.7902 18.5711 26.7902 26.9268 26.7891C27.6536 26.7891 28.1991 26.8142 28.5633 26.8645C34.6648 27.7095 37.6343 34.8782 33.8961 39.7672C32.3796 41.7513 30.3218 42.8191 27.7225 42.9705Z" fill="#252B31"/>
</g>
<defs>
<clipPath id="clip0_139_6205">
<rect width="42" height="42" fill="white" transform="translate(0 0.970703)"/>
</clipPath>
</defs>
</svg>
