<svg width="16" height="16" viewBox="0 0 16 16" fill="none" xmlns="http://www.w3.org/2000/svg">
<path d="M1 4.4707V12.1707C1 13.1507 1 13.6407 1.19075 14.0152C1.35853 14.3445 1.62623 14.6122 1.9555 14.78C2.32912 14.9707 2.81912 14.9707 3.79738 14.9707H12.2026C13.1809 14.9707 13.67 14.9707 14.0436 14.78C14.3735 14.612 14.6412 14.3442 14.8092 14.0152C15 13.6407 15 13.1516 15 12.1733V4.4707M1 4.4707H15M1 4.4707L2.19437 2.37945C2.4875 1.86758 2.6345 1.6112 2.84013 1.42395C3.023 1.25858 3.23913 1.13345 3.47275 1.05645C3.73875 0.970703 4.03275 0.970703 4.62512 0.970703H11.3749C11.9664 0.970703 12.263 0.970703 12.5281 1.05733C12.7617 1.13345 12.977 1.25858 13.159 1.42483C13.3655 1.6112 13.5125 1.86758 13.8065 2.3812L15 4.4707M8 7.0957V12.3457M8 12.3457L10.625 10.5957M8 12.3457L5.375 10.5957" stroke="#F3D869" stroke-width="1.75" stroke-linecap="round" stroke-linejoin="round"/>
</svg>
