<svg width="43" height="28" viewBox="0 0 43 28" fill="none" xmlns="http://www.w3.org/2000/svg">
<rect x="1.30078" y="1.4707" width="41" height="26" rx="3.5" fill="white" stroke="#9B9B9B"/>
<path d="M9.56285 10.5312L6.00781 18.3984H10.2637L10.7913 17.1441H11.9973L12.5249 18.3984H17.2094V17.4411L17.6268 18.3984H20.05L20.4675 17.4208V18.3984H30.21L31.3946 17.1766L32.5039 18.3984L37.5079 18.4085L33.9416 14.4868L37.5079 10.5312H32.5815L31.4283 11.7305L30.354 10.5312H19.7554L18.8453 12.5618L17.9138 10.5312H13.6668V11.456L13.1944 10.5312H9.56285ZM10.3863 11.6484H12.4608L14.8189 16.9832V11.6484H17.0915L18.9128 15.4734L20.5913 11.6484H22.8525V17.2936H21.4766L21.4654 12.8701L19.4595 17.2936H18.2287L16.2116 12.8701V17.2936H13.3811L12.8445 16.028H9.94535L9.40985 17.2925H7.8933L10.3863 11.6484ZM24.1113 11.6484H29.706L31.4171 13.4967L33.1834 11.6484H34.8945L32.2946 14.4857L34.8945 17.2903H33.1058L31.3946 15.4205L29.6193 17.2903H24.1113V11.6484ZM11.3955 12.6035L10.4404 14.8581H12.3496L11.3955 12.6035ZM25.4929 12.8172V13.8478H28.545V14.9964H25.4929V16.1214H28.9163L30.507 14.4643L28.9838 12.8163H25.4929V12.8172Z" fill="#9B9B9B"/>
</svg>
