<svg width="42" height="28" viewBox="0 0 42 28" fill="none" xmlns="http://www.w3.org/2000/svg">
<rect x="0.5" y="1.4707" width="41" height="26" rx="3.5" fill="white" stroke="#9B9B9B"/>
<path d="M18.2023 18.6872H15.7344L17.278 9.14258H19.7458L18.2023 18.6872Z" fill="#9B9B9B"/>
<path d="M27.1492 9.37705C26.6624 9.18393 25.8903 8.9707 24.9357 8.9707C22.4985 8.9707 20.7823 10.2703 20.7718 12.1284C20.7515 13.4993 22.0005 14.2607 22.9347 14.7178C23.8895 15.1849 24.2141 15.4897 24.2141 15.9061C24.2043 16.5455 23.4425 16.8402 22.732 16.8402C21.7467 16.8402 21.2187 16.6883 20.4164 16.3325L20.0914 16.18L19.7461 18.3226C20.3249 18.5863 21.3913 18.8203 22.4985 18.8305C25.088 18.8305 26.7739 17.551 26.7939 15.571C26.8037 14.4844 26.1442 13.6519 24.7223 12.9716C23.8591 12.5349 23.3305 12.2404 23.3305 11.7936C23.3406 11.3873 23.7776 10.9713 24.752 10.9713C25.5543 10.9509 26.1438 11.1438 26.5904 11.3367L26.8136 11.4381L27.1492 9.37705Z" fill="#9B9B9B"/>
<path d="M30.4277 15.3059C30.6309 14.7575 31.413 12.6354 31.413 12.6354C31.4027 12.6557 31.6158 12.0769 31.7377 11.7216L31.9102 12.544C31.9102 12.544 32.3775 14.8287 32.479 15.3059C32.0933 15.3059 30.9151 15.3059 30.4277 15.3059ZM33.474 9.14258H31.5651C30.9764 9.14258 30.5292 9.31505 30.2752 9.9345L26.6094 18.687H29.1989C29.1989 18.687 29.6252 17.509 29.7169 17.2553C30.0009 17.2553 32.52 17.2553 32.8855 17.2553C32.9563 17.5904 33.1799 18.687 33.1799 18.687H35.465L33.474 9.14258Z" fill="#9B9B9B"/>
<path d="M13.6712 9.14258L11.2543 15.6511L10.9902 14.3311C10.5434 12.808 9.14199 11.1531 7.57812 10.3303L9.79193 18.677H12.4017L16.2809 9.14258H13.6712Z" fill="#9B9B9B"/>
<path d="M9.01128 9.14258H5.04062L5 9.33543C8.09736 10.1275 10.1487 12.0367 10.9915 14.3315L10.1283 9.94489C9.98619 9.33529 9.54948 9.16269 9.01128 9.14258Z" fill="#DFDFDF"/>
</svg>
