<svg width="42" height="28" viewBox="0 0 42 28" fill="none" xmlns="http://www.w3.org/2000/svg">
<rect x="0.5" y="1.4707" width="41" height="26" rx="3.5" fill="white" stroke="#9B9B9B"/>
<path d="M11.4816 9.5178C11.13 9.92313 10.5674 10.2428 10.0048 10.1972C9.93451 9.6491 10.2099 9.0668 10.5322 8.70714C10.8838 8.2904 11.4991 7.99354 11.9973 7.9707C12.0559 8.54159 11.8273 9.10106 11.4816 9.5178ZM11.9914 10.3056C11.1768 10.26 10.4795 10.7566 10.0927 10.7566C9.70011 10.7566 9.10825 10.3285 8.46364 10.3399C7.62566 10.3513 6.84627 10.8137 6.41849 11.5502C5.53948 13.023 6.18994 15.2038 7.03965 16.4027C7.45571 16.9964 7.95382 17.6472 8.61014 17.6244C9.23131 17.6015 9.47743 17.2305 10.2275 17.2305C10.9835 17.2305 11.2003 17.6244 11.8566 17.6129C12.5364 17.6015 12.9642 17.0192 13.3802 16.4255C13.8549 15.7519 14.0483 15.0953 14.06 15.0611C14.0483 15.0497 12.7473 14.5644 12.7356 13.103C12.7239 11.8813 13.7611 11.299 13.808 11.2647C13.222 10.4198 12.3078 10.3285 11.9914 10.3056ZM16.697 8.65006V17.5502H18.1151V14.5073H20.0783C21.8714 14.5073 23.1313 13.3085 23.1313 11.573C23.1313 9.8375 21.8949 8.65006 20.1251 8.65006H16.697ZM18.1151 9.81466H19.7501C20.9807 9.81466 21.6839 10.4541 21.6839 11.5787C21.6839 12.7033 20.9807 13.3484 19.7442 13.3484H18.1151V9.81466ZM25.7215 17.6187C26.6122 17.6187 27.4385 17.1791 27.8135 16.4826H27.8428V17.5502H29.1555V13.1201C29.1555 11.8356 28.1007 11.0078 26.4774 11.0078C24.9714 11.0078 23.858 11.847 23.817 13.0002H25.0945C25.1999 12.4521 25.7215 12.0925 26.4364 12.0925C27.3037 12.0925 27.7901 12.4864 27.7901 13.2114V13.7024L26.0203 13.8051C24.3737 13.9022 23.4829 14.5587 23.4829 15.7005C23.4829 16.8537 24.403 17.6187 25.7215 17.6187ZM26.1024 16.5625C25.3464 16.5625 24.8659 16.2086 24.8659 15.6662C24.8659 15.1068 25.3289 14.7814 26.2137 14.73L27.7901 14.6329V15.1353C27.7901 15.9688 27.0634 16.5625 26.1024 16.5625ZM30.9076 19.9707C32.2906 19.9707 32.9411 19.4569 33.5095 17.8984L36 11.0934H34.5584L32.8883 16.3513H32.859L31.1889 11.0934H29.7063L32.1089 17.573L31.98 17.9669C31.7632 18.6348 31.4116 18.8917 30.7846 18.8917C30.6732 18.8917 30.4564 18.8803 30.3685 18.8689V19.9365C30.4505 19.9593 30.8021 19.9707 30.9076 19.9707Z" fill="#9B9B9B"/>
</svg>
