<svg width="67" height="29" viewBox="0 0 67 29" fill="none" xmlns="http://www.w3.org/2000/svg">
<path fill-rule="evenodd" clip-rule="evenodd" d="M43.4532 22.5867C42.2098 22.9309 40.5904 23.0744 39.2024 23.0744C35.5879 23.0744 33.2168 21.2096 33.2168 17.7957C33.2168 14.5539 35.4434 12.4597 38.6819 12.4597C39.4049 12.4597 40.1856 12.5457 40.6483 12.7752V8.07031H43.4532V22.5867ZM40.6483 15.1851C40.2145 14.9842 39.6073 14.8695 38.9133 14.8695C37.2073 14.8695 36.0795 15.9023 36.0795 17.7097C36.0795 19.6318 37.294 20.7219 39.2892 20.7219C39.6362 20.7219 40.1856 20.7219 40.6483 20.6072V15.1851ZM66.5 22.5867C65.2565 22.9309 63.6372 23.0744 62.2203 23.0744C58.6346 23.0744 56.2345 21.2096 56.2345 17.7957C56.2345 14.5539 58.4611 12.4597 61.6998 12.4597C62.4516 12.4597 63.2034 12.5457 63.6661 12.7752V8.07031H66.5V22.5867ZM63.6661 15.1851C63.2323 14.9842 62.654 14.8695 61.96 14.8695C60.225 14.8695 59.0972 15.9023 59.0972 17.7097C59.0972 19.6318 60.3407 20.7219 62.3359 20.7219C62.6829 20.7219 63.2034 20.7219 63.6661 20.6072V15.1851ZM47.8775 15.1851C48.3402 14.9842 49.0053 14.9269 49.5547 14.9269C51.2897 14.9269 52.4753 15.9023 52.4753 17.6523C52.4753 19.7178 51.1451 20.6645 49.3812 20.6932V23.0744H49.5258C53.1693 23.0744 55.338 21.0949 55.338 17.5662C55.338 14.3531 53.0247 12.4597 49.6125 12.4597C47.8775 12.4597 46.1714 12.8613 45.0436 13.3203V26.9473H47.8775V15.1851Z" fill="#3F3F42"/>
<path fill-rule="evenodd" clip-rule="evenodd" d="M12.0044 0.5C11.847 0.5 11.6896 0.535011 11.5672 0.59628L0.603279 6.58315L12.8787 13.7429C12.9923 13.8042 13.0798 13.953 13.0798 14.0842V24.5175C13.0798 24.6488 12.9836 24.7976 12.8699 24.8589L12.2055 25.2265C12.153 25.2527 12.0831 25.2702 12.0044 25.2702H11.9869C11.9082 25.2702 11.8295 25.2615 11.777 25.2265L11.1126 24.8589C10.9989 24.7976 10.9115 24.6488 10.9115 24.5175V15.2133C10.9115 15.1433 10.859 15.0646 10.7978 15.0295L0 8.72757V21.0689C0 21.349 0.19235 21.6816 0.437158 21.8217L11.576 28.395C11.6984 28.465 11.847 28.5 12.0044 28.5C12.1617 28.5 12.3191 28.465 12.4328 28.395L23.5716 21.8217C23.8076 21.6816 24 21.3403 24 21.0689V8.72757L16.6732 12.9989C16.5596 13.0689 16.3847 13.0602 16.271 12.9989L15.624 12.6138C15.5716 12.5788 15.5191 12.5263 15.4842 12.465C15.4404 12.3862 15.4229 12.3162 15.4142 12.2462L15.3967 11.4847C15.3967 11.3534 15.4754 11.2046 15.5891 11.1346L23.3967 6.58315L12.4415 0.59628C12.3191 0.526258 12.1617 0.5 12.0044 0.5Z" fill="url(#paint0_linear_1180_33213)"/>
<defs>
<linearGradient id="paint0_linear_1180_33213" x1="4.18273" y1="24.2724" x2="14.3814" y2="15.7665" gradientUnits="userSpaceOnUse">
<stop stop-color="#A80034"/>
<stop offset="1" stop-color="#DB0031"/>
</linearGradient>
</defs>
</svg>
