<svg width="67" height="28" viewBox="0 0 67 28" fill="none" xmlns="http://www.w3.org/2000/svg">
<path fill-rule="evenodd" clip-rule="evenodd" d="M43.4532 22.0867C42.2098 22.4309 40.5904 22.5744 39.2024 22.5744C35.5879 22.5744 33.2168 20.7096 33.2168 17.2957C33.2168 14.0539 35.4434 11.9597 38.6819 11.9597C39.4049 11.9597 40.1856 12.0457 40.6483 12.2752V7.57031H43.4532V22.0867ZM40.6483 14.6851C40.2145 14.4842 39.6073 14.3695 38.9133 14.3695C37.2073 14.3695 36.0795 15.4023 36.0795 17.2097C36.0795 19.1318 37.294 20.2219 39.2892 20.2219C39.6362 20.2219 40.1856 20.2219 40.6483 20.1072V14.6851ZM66.5 22.0867C65.2565 22.4309 63.6372 22.5744 62.2203 22.5744C58.6346 22.5744 56.2345 20.7096 56.2345 17.2957C56.2345 14.0539 58.4611 11.9597 61.6998 11.9597C62.4516 11.9597 63.2034 12.0457 63.6661 12.2752V7.57031H66.5V22.0867ZM63.6661 14.6851C63.2323 14.4842 62.654 14.3695 61.96 14.3695C60.225 14.3695 59.0972 15.4023 59.0972 17.2097C59.0972 19.1318 60.3407 20.2219 62.3359 20.2219C62.6829 20.2219 63.2034 20.2219 63.6661 20.1072V14.6851ZM47.8775 14.6851C48.3402 14.4842 49.0053 14.4269 49.5547 14.4269C51.2897 14.4269 52.4753 15.4023 52.4753 17.1523C52.4753 19.2178 51.1451 20.1645 49.3812 20.1932V22.5744H49.5258C53.1693 22.5744 55.338 20.5949 55.338 17.0662C55.338 13.8531 53.0247 11.9597 49.6125 11.9597C47.8775 11.9597 46.1714 12.3613 45.0436 12.8203V26.4473H47.8775V14.6851Z" fill="#3F3F42"/>
<path fill-rule="evenodd" clip-rule="evenodd" d="M12.0044 0C11.847 0 11.6896 0.0350109 11.5672 0.0962801L0.603279 6.08315L12.8787 13.2429C12.9923 13.3042 13.0798 13.453 13.0798 13.5842V24.0175C13.0798 24.1488 12.9836 24.2976 12.8699 24.3589L12.2055 24.7265C12.153 24.7527 12.0831 24.7702 12.0044 24.7702H11.9869C11.9082 24.7702 11.8295 24.7615 11.777 24.7265L11.1126 24.3589C10.9989 24.2976 10.9115 24.1488 10.9115 24.0175V14.7133C10.9115 14.6433 10.859 14.5646 10.7978 14.5295L0 8.22757V20.5689C0 20.849 0.19235 21.1816 0.437158 21.3217L11.576 27.895C11.6984 27.965 11.847 28 12.0044 28C12.1617 28 12.3191 27.965 12.4328 27.895L23.5716 21.3217C23.8076 21.1816 24 20.8403 24 20.5689V8.22757L16.6732 12.4989C16.5596 12.5689 16.3847 12.5602 16.271 12.4989L15.624 12.1138C15.5716 12.0788 15.5191 12.0263 15.4842 11.965C15.4404 11.8862 15.4229 11.8162 15.4142 11.7462L15.3967 10.9847C15.3967 10.8534 15.4754 10.7046 15.5891 10.6346L23.3967 6.08315L12.4415 0.0962801C12.3191 0.0262582 12.1617 0 12.0044 0Z" fill="url(#paint0_linear_1180_27558)"/>
<defs>
<linearGradient id="paint0_linear_1180_27558" x1="4.18273" y1="23.7724" x2="14.3814" y2="15.2665" gradientUnits="userSpaceOnUse">
<stop stop-color="#A80034"/>
<stop offset="1" stop-color="#DB0031"/>
</linearGradient>
</defs>
</svg>
