<svg width="70" height="22" viewBox="0 0 70 22" fill="none" xmlns="http://www.w3.org/2000/svg">
<path fill-rule="evenodd" clip-rule="evenodd" d="M63.3962 20.764L60.569 17.614L57.7683 20.764H51.8757L57.6346 14.3325L51.8757 7.90109H57.9527L60.8068 11.0252L63.5546 7.90109H69.4195L63.6865 14.3058L69.4998 20.764H63.3962ZM40.5527 20.764V0.5H51.8757V5.01719H45.3481V7.90109H51.8757V12.246H45.3481V16.235H51.8757V20.764H40.5527Z" fill="#FF7A08"/>
<path fill-rule="evenodd" clip-rule="evenodd" d="M35.7787 0.5V8.79313H35.7244C34.6673 7.58548 33.3468 7.16598 31.8145 7.16598C28.6489 7.16598 26.2964 9.3323 25.486 12.171C24.5537 9.0408 22.1174 7.10768 18.4696 7.10768C15.5078 7.10768 13.2008 8.45648 11.9959 10.6219V7.90065H5.9188V5.01675H12.5513V0.5H0.5V20.764H5.9188V12.246H11.35C11.1863 12.8764 11.072 13.5352 11.072 14.2493C11.072 18.4763 14.321 21.443 18.4696 21.443C21.9586 21.443 24.2572 19.8154 25.4736 16.8491H20.8304C20.2026 17.742 19.7252 18.005 18.4691 18.005C17.0136 18.005 15.7584 16.7439 15.7584 15.2469H25.2389C25.6514 18.6016 28.2562 21.5 31.867 21.5C33.4258 21.5 34.8531 20.7399 35.7244 19.4529H35.7787V20.7644H40.5533V0.5H35.7787ZM15.9097 12.3065C16.2102 11.0191 17.2148 10.1787 18.4691 10.1787C19.851 10.1787 20.8044 10.9945 21.055 12.3065H15.9097ZM32.8791 17.6793C31.1187 17.6793 30.025 16.0487 30.025 14.3483C30.025 12.5292 30.9758 10.7802 32.8791 10.7802C34.8531 10.7802 35.6379 12.5292 35.6379 14.3483C35.6379 16.0728 34.805 17.6793 32.8791 17.6793Z" fill="#462895"/>
</svg>
