<svg width="29" height="35" viewBox="0 0 29 35" fill="none" xmlns="http://www.w3.org/2000/svg">
<path d="M14.5 34.6268C14.7944 34.4779 22.4493 31.1274 24.8782 29.1171C27.3807 27.0324 28.7056 24.0542 28.7056 20.4804V3.72808L28.4848 3.65363C22.3757 0.303165 14.7944 0.526529 14.4264 0.526529C14.132 0.526529 6.55078 0.303165 0.441642 3.65363L0.294434 3.72808V20.5548C0.294434 24.1287 1.61931 27.1069 4.12184 29.1916C6.55078 31.2019 14.2056 34.5523 14.5 34.6268Z" fill="#341B14"/>
<path d="M14.5 35C14.5 35 6.40355 31.4262 3.90102 29.4159C1.25127 27.1823 0 24.1296 0 20.6302V3.20785C6.40355 -0.291517 14.5 0.00630094 14.5 0.00630094C14.5 0.00630094 22.5964 -0.291517 29 3.20785V20.5558C29 24.0552 27.7487 27.1078 25.099 29.3414C22.5964 31.4262 14.5 35 14.5 35ZM1.17766 20.6302C1.17766 23.9063 2.35533 26.5866 4.63706 28.448C6.69797 30.1604 12.8071 32.9153 14.5 33.6598C16.1929 32.9153 22.3756 30.086 24.3629 28.448C26.6447 26.5866 27.8223 23.8318 27.8223 20.6302V3.50567C19.2843 2.68667 9.1269 3.1334 1.17766 10.5789V20.6302Z" fill="#FFB406"/>
<path d="M22.6703 18.1739C23.7744 18.844 24.216 19.2907 24.2896 20.1097C24.2896 21.0032 23.7008 21.5243 22.7439 21.5243C21.9343 21.5243 20.9774 21.0776 20.315 20.482V22.8645C21.1246 23.3113 22.0815 23.6835 23.1119 23.6835C25.6145 23.6835 26.7921 21.8966 26.7921 20.2586C26.8657 18.7695 26.4241 17.5782 24.2896 16.3125C23.3327 15.7169 22.5967 15.3446 22.5967 14.4511C22.5967 13.5577 23.4064 13.1854 24.0688 13.1854C24.952 13.1854 25.8353 13.7066 26.3505 14.2278V11.9941C25.9089 11.6219 24.952 11.1007 23.5536 11.1751C21.8607 11.2496 20.0942 12.4409 20.0942 14.5256C20.1678 15.9402 20.6094 16.9826 22.6703 18.1739ZM13.985 23.5346C14.2058 23.6091 14.5739 23.6835 15.1627 23.6835C18.0333 23.6835 19.6525 21.0776 19.6525 17.3549C19.6525 13.5577 17.9597 11.2496 14.9419 11.2496C13.5434 11.2496 12.4393 11.5474 11.4825 12.1431V28.9698H13.985V23.5346ZM13.985 13.4088C14.2058 13.3343 14.5739 13.1854 14.8683 13.1854C16.3404 13.1854 16.9292 14.3767 16.9292 17.2804C16.9292 20.1097 16.1932 21.4499 14.7211 21.4499C14.3531 21.4499 14.0586 21.3754 13.9114 21.301V13.4088H13.985ZM6.25661 23.6835C7.80229 23.6835 9.12717 23.3113 10.084 22.6412V11.3985H7.50788V21.1521C7.21346 21.3754 6.84544 21.4499 6.33021 21.4499C5.15255 21.4499 5.00534 20.3331 5.00534 19.663V11.3985H2.4292V19.5141C2.4292 22.2689 3.75407 23.6835 6.25661 23.6835Z" fill="#FFB406"/>
</svg>
