<svg width="74" height="24" viewBox="0 0 74 24" fill="none" xmlns="http://www.w3.org/2000/svg">
<path d="M73.9997 0.5V16.921H0V0.5H73.9997Z" fill="#FFCC00"/>
<path d="M13.0137 3.44922L10.6494 6.67906H23.5347C24.1861 6.67906 24.1775 6.92791 23.8591 7.36156C23.5358 7.80178 22.9947 8.56737 22.6654 9.01454C22.4983 9.24148 22.1962 9.65492 23.1974 9.65492H28.4667C28.4667 9.65492 29.3161 8.49282 30.0278 7.52116C30.9965 6.19959 30.1119 3.44935 26.6494 3.44935L13.0137 3.44922Z" fill="#D2002E"/>
<path d="M9.69274 13.9716L14.4415 7.4835H20.3343C20.9856 7.4835 20.9771 7.73235 20.6588 8.166C20.3355 8.60622 19.7855 9.36367 19.4562 9.81085C19.289 10.0378 18.987 10.4519 19.9881 10.4519H27.8827C27.2262 11.3563 25.0965 13.9715 21.2724 13.9715L9.69274 13.9716ZM36.8889 10.4511L34.3137 13.9714H27.5208C27.5208 13.9714 30.0945 10.4519 30.0967 10.4519L36.8889 10.4511ZM47.2953 9.65492H30.6803L35.2239 3.44922H42.0148L39.4105 7.00758H42.4418L45.0471 3.44922H51.8373L47.2953 9.65492ZM46.7121 10.452L44.1358 13.9716H37.3453C37.3453 13.9716 39.9191 10.452 39.9213 10.452H46.7121ZM0 11.8399H10.0073L9.46066 12.5876H0V11.8399ZM0 10.452H11.024L10.4763 11.1987H0V10.452ZM0 13.2285H8.99115L8.44711 13.9716H0V13.2285ZM74 12.5876H64.0312L64.5784 11.84H74V12.5876ZM74 13.9716L63.0178 13.9727L63.5618 13.2285H74V13.9716ZM65.5938 10.452H74V11.1991L65.0471 11.1997L65.5938 10.452ZM61.242 3.44922L56.6992 9.65479H49.5033C49.5033 9.65479 54.0473 3.44922 54.0496 3.44922H61.242ZM48.9211 10.452C48.9211 10.452 48.4247 11.1341 48.1837 11.462C47.3307 12.6212 48.0848 13.9716 50.8683 13.9716H61.7743L64.3504 10.452H48.9211Z" fill="#D2002E"/>
<path d="M0 19.5898H74V19.9618H0V19.5898ZM0 21.3256H74V21.6976H0V21.3256ZM0 23.0611H74V23.433H0V23.0611Z" fill="#FFCC00"/>
<path d="M24.8486 23.4325H27.0757L27.4311 22.9481H25.7738L26.7032 21.6817H28.2125L28.568 21.1972H27.0587L27.8829 20.0742H29.5403L29.8959 19.5896H27.6689L24.8486 23.4325ZM27.5818 23.4325H28.2652L30.5947 21.8029L30.5719 23.4325H31.2895L31.2949 21.423L33.9788 19.5896H33.3295L31.1931 21.0651L31.2164 19.5896H30.533L30.5122 21.4341L27.5818 23.4325ZM34.8409 20.0742H35.3251C35.6783 20.0742 36.0729 20.2503 35.7173 20.7348C35.3455 21.2411 34.7761 21.4119 34.4228 21.4119H33.859L34.8409 20.0742ZM31.8067 23.4325H32.3762L33.5034 21.8965H34.0615C34.7792 21.8965 35.6905 21.5937 36.3168 20.7401C36.9593 19.8647 36.4835 19.5893 35.6691 19.5893H34.6269L31.8067 23.4325ZM35.0865 23.4325H35.6561L36.9086 21.7257H37.2502C37.552 21.7257 37.7402 21.7257 37.6421 22.1L37.2737 23.4325H37.9231L38.2946 21.9018C38.343 21.6652 38.3183 21.5826 38.19 21.5164L38.1981 21.5053C38.7162 21.4282 39.3173 21.0979 39.6608 20.6299C40.3355 19.7106 39.6669 19.5893 38.8808 19.5893H37.9069L35.0865 23.4325ZM38.1208 20.0742H38.6675C39.1917 20.0742 39.3033 20.2944 39.0489 20.641C38.7782 21.0101 38.2895 21.2411 37.7483 21.2411H37.2642L38.1208 20.0742ZM38.5128 23.4325H40.7399L41.0952 22.9481H39.438L40.3672 21.6817H41.8766L42.2319 21.1972H40.7228L41.5469 20.0742H43.2044L43.5601 19.5896H41.3331L38.5128 23.4325ZM46.3034 19.6611C46.0987 19.5675 45.8175 19.5234 45.5556 19.5234C44.8379 19.5234 44.0131 19.887 43.512 20.5696C42.6353 21.7644 44.5177 21.5276 43.8873 22.3866C43.556 22.8378 42.971 23.0142 42.6465 23.0142C42.3558 23.0142 42.095 22.904 41.958 22.8268L41.5254 23.3389C41.7268 23.4215 41.9437 23.4986 42.2228 23.4986C43.0201 23.4986 43.9135 23.1734 44.5155 22.3531C45.4447 21.087 43.6107 21.2574 44.1523 20.5199C44.4474 20.118 44.9041 20.0079 45.223 20.0079C45.5193 20.0079 45.6421 20.0576 45.8517 20.1676L46.3034 19.6611ZM49.1512 19.6611C48.9466 19.5675 48.6655 19.5234 48.4034 19.5234C47.6858 19.5234 46.861 19.887 46.3599 20.5696C45.4831 21.7644 47.3656 21.5276 46.7351 22.3866C46.404 22.8378 45.8188 23.0142 45.4943 23.0142C45.2037 23.0142 44.9427 22.904 44.8059 22.8268L44.3732 23.3389C44.5746 23.4215 44.7916 23.4986 45.0705 23.4986C45.8679 23.4986 46.7612 23.1734 47.3632 22.3531C48.2926 21.087 46.4587 21.2574 47.0001 20.5199C47.2951 20.118 47.752 20.0079 48.0708 20.0079C48.3671 20.0079 48.4902 20.0576 48.6996 20.1676L49.1512 19.6611Z" fill="#D2002E"/>
</svg>
