<svg width="16" height="16" viewBox="0 0 16 16" fill="none" xmlns="http://www.w3.org/2000/svg">
<g clip-path="url(#clip0_1008_35402)">
<path fill-rule="evenodd" clip-rule="evenodd" d="M4.46318 3.85863V3.03797C4.46318 2.23225 4.78619 1.45953 5.36114 0.889802C5.93609 0.320071 6.7159 0 7.529 0C8.34211 0 9.12191 0.320071 9.69686 0.889802C10.2718 1.45953 10.5948 2.23225 10.5948 3.03797V3.85863C11.6552 3.88861 12.3011 3.99635 12.7957 4.39899C13.4742 4.94987 13.6623 5.88476 14.0408 7.75534L14.5313 10.1857C15.0742 12.8753 15.3456 14.2202 14.6098 15.1105C13.8732 16 12.4891 16 9.72004 16H5.33796C2.56973 16 1.1848 16 0.449006 15.1105C-0.286791 14.221 -0.0153633 12.8762 0.527491 10.1857L1.01802 7.75534C1.39573 5.88476 1.58459 4.94987 2.26234 4.39899C2.75777 3.99716 3.40364 3.88861 4.464 3.85863H4.46318ZM5.68951 3.03797C5.68951 2.55454 5.88332 2.09091 6.22829 1.74907C6.57326 1.40723 7.04114 1.21519 7.529 1.21519C8.01687 1.21519 8.48475 1.40723 8.82972 1.74907C9.17469 2.09091 9.36849 2.55454 9.36849 3.03797V3.8481H5.68951V3.03797ZM9.98166 7.08861C10.1985 7.08861 10.4064 7.00326 10.5598 6.85133C10.7131 6.6994 10.7992 6.49334 10.7992 6.27848C10.7992 6.06362 10.7131 5.85756 10.5598 5.70564C10.4064 5.55371 10.1985 5.46835 9.98166 5.46835C9.76483 5.46835 9.55688 5.55371 9.40356 5.70564C9.25024 5.85756 9.16411 6.06362 9.16411 6.27848C9.16411 6.49334 9.25024 6.6994 9.40356 6.85133C9.55688 7.00326 9.76483 7.08861 9.98166 7.08861ZM5.8939 6.27848C5.8939 6.49334 5.80777 6.6994 5.65444 6.85133C5.50112 7.00326 5.29318 7.08861 5.07635 7.08861C4.85952 7.08861 4.65157 7.00326 4.49825 6.85133C4.34493 6.6994 4.2588 6.49334 4.2588 6.27848C4.2588 6.06362 4.34493 5.85756 4.49825 5.70564C4.65157 5.55371 4.85952 5.46835 5.07635 5.46835C5.29318 5.46835 5.50112 5.55371 5.65444 5.70564C5.80777 5.85756 5.8939 6.06362 5.8939 6.27848Z" fill="url(#paint0_linear_1008_35402)"/>
</g>
<defs>
<linearGradient id="paint0_linear_1008_35402" x1="1.23773e-08" y1="8.06504" x2="15.0588" y2="8.06504" gradientUnits="userSpaceOnUse">
<stop stop-color="#EF43C9"/>
<stop offset="1" stop-color="#EF436C"/>
</linearGradient>
<clipPath id="clip0_1008_35402">
<rect width="16" height="16" fill="white"/>
</clipPath>
</defs>
</svg>
