<svg width="108" height="26" viewBox="0 0 108 26" fill="none" xmlns="http://www.w3.org/2000/svg">
<path d="M102.474 12.7469C104.958 10.8303 106.038 8.82337 105.876 6.25591C105.624 2.51321 102.618 0 99.198 0H89.406V21.6606H93.294V12.7469H97.902L103.41 21.6606H108L102.474 12.7469ZM102.096 6.27399C102.096 7.93742 100.944 8.91377 99.18 8.91377H93.294V3.8331H99.18C101.412 3.81502 102.096 5.36996 102.096 6.27399ZM59.742 13.5605L64.764 21.6426H69.39L62.244 10.1613L59.742 13.5605ZM67.986 0H63.036L52.848 13.6871V0H48.942V19.7441C48.942 20.4673 49.356 21.3714 50.472 21.6245C50.922 21.733 51.804 21.6245 52.344 20.9013C52.416 20.8289 67.986 0 67.986 0ZM76.662 12.7469H84.348V8.91377H76.662V12.7469ZM86.328 0H71.064V19.7441C71.064 20.2504 71.262 20.7385 71.622 21.1001C71.982 21.4618 72.468 21.6606 72.972 21.6606H86.328V17.8275H74.97V3.8331H86.328V0ZM41.112 0V13.6871L30.924 0H25.956V21.6606H29.862V5.18915C34.488 11.3727 41.58 20.8651 41.634 20.9193C42.174 21.6245 43.056 21.733 43.506 21.6426C44.622 21.3894 45.036 20.4854 45.036 19.7622V0H41.112ZM10.026 1.15716L0 21.6606H4.374L11.916 6.27399L19.458 21.6606H23.778L13.842 1.22948C13.662 0.86787 13.374 0.542421 13.032 0.325453C12.69 0.108485 12.294 0 11.88 0C11.502 0 11.124 0.108483 10.782 0.307371C10.458 0.506258 10.206 0.813629 10.026 1.15716ZM15.462 18.5869H12.87H12.852C12.852 18.5869 12.834 18.5869 12.834 18.5688V18.5508V18.5327L13.338 12.9638C13.338 12.9458 13.338 12.9458 13.338 12.9458L13.32 12.9277H13.302C13.302 12.9277 13.284 12.9277 13.284 12.9458L7.722 20.2865V20.3046V20.3227C7.722 20.3227 7.722 20.3408 7.74 20.3408H7.758H10.332H10.35C10.35 20.3408 10.368 20.3408 10.368 20.3588V20.3769V20.395L9.864 25.9638C9.864 25.9819 9.864 25.9819 9.864 25.9819L9.882 26H9.9C9.9 26 9.918 26 9.918 25.9819L15.48 18.6412V18.6231V18.605C15.48 18.605 15.48 18.5869 15.462 18.5869Z" fill="black"/>
</svg>
