<svg width="66" height="16" viewBox="0 0 66 16" fill="none" xmlns="http://www.w3.org/2000/svg">
<path d="M62.218 7.84485C63.7262 6.6812 64.3819 5.46266 64.2836 3.9038C64.1306 1.63139 62.3055 0.105469 60.229 0.105469H54.2837V13.2569H56.6443V7.84485H59.4421L62.7863 13.2569H65.5732L62.218 7.84485ZM61.9885 3.91478C61.9885 4.92474 61.2891 5.51754 60.218 5.51754H56.6443V2.43277H60.218C61.5732 2.4218 61.9885 3.36589 61.9885 3.91478ZM36.2729 8.33885L39.3221 13.2459H42.1308L37.792 6.27502L36.2729 8.33885ZM41.2783 0.105469H38.2729L32.0871 8.4157V0.105469H29.7156V12.0933C29.7156 12.5324 29.9669 13.0813 30.6445 13.235C30.9178 13.3008 31.4533 13.235 31.7811 12.7959C31.8249 12.7519 41.2783 0.105469 41.2783 0.105469ZM46.546 7.84485H51.2127V5.51754H46.546V7.84485ZM52.4148 0.105469H43.1472V12.0933C43.1472 12.4007 43.2674 12.6971 43.486 12.9166C43.7045 13.1362 43.9996 13.2569 44.3056 13.2569H52.4148V10.9296H45.5187V2.43277H52.4148V0.105469ZM24.9615 0.105469V8.4157L18.7758 0.105469H15.7594V13.2569H18.131V3.25611C20.9397 7.01053 25.2457 12.7739 25.2785 12.8068C25.6063 13.235 26.1418 13.3008 26.4151 13.2459C27.0927 13.0923 27.344 12.5434 27.344 12.1042V0.105469H24.9615ZM6.08738 0.80805L0 13.2569H2.65571L7.23491 3.91478L11.8141 13.2569H14.437L8.4043 0.851961C8.29501 0.632404 8.12015 0.434804 7.9125 0.30307C7.70485 0.171336 7.46441 0.105469 7.21305 0.105469C6.98354 0.105469 6.75404 0.171335 6.54639 0.292092C6.34967 0.412848 6.19667 0.599471 6.08738 0.80805ZM9.38789 11.3907H7.81414H7.80321C7.80321 11.3907 7.79228 11.3907 7.79228 11.3797V11.3687V11.3578L8.09829 7.97658C8.09829 7.96561 8.09829 7.96561 8.09829 7.96561L8.08736 7.95463H8.07643C8.07643 7.95463 8.0655 7.95463 8.0655 7.96561L4.68848 12.4226V12.4336V12.4446C4.68848 12.4446 4.68848 12.4555 4.69941 12.4555H4.71034H6.27317H6.2841C6.2841 12.4555 6.29503 12.4555 6.29503 12.4665V12.4775V12.4885L5.98902 15.8697C5.98902 15.8806 5.98902 15.8806 5.98902 15.8806L5.99995 15.8916H6.01088C6.01088 15.8916 6.0218 15.8916 6.0218 15.8806L9.39882 11.4236V11.4126V11.4017C9.39882 11.4017 9.39882 11.3907 9.38789 11.3907Z" fill="#1D1D1F"/>
</svg>
