<svg width="51" height="17" viewBox="0 0 51 17" fill="none" xmlns="http://www.w3.org/2000/svg">
<path fill-rule="evenodd" clip-rule="evenodd" d="M11.481 0.496094L19.723 5.23302L37.0953 5.42918C38.6243 4.15488 38.9855 3.08337 39.0355 2.69759C39.0873 2.31181 38.5563 0.932912 37 0.907445C35.4427 0.879148 11.481 0.496094 11.481 0.496094ZM20.5558 5.80659C21.2226 6.79886 20.6558 7.69489 19.5484 8.16461C18.4411 8.62868 0 16.4989 0 16.4989L50.459 6.42063L20.5558 5.80659ZM32.7923 10.5198L3.1117 16.4056C3.1117 16.4056 23.9514 16.381 25.5379 16.4074C27.1263 16.4329 27.9459 16.3264 28.7213 15.4218C29.4947 14.521 32.7923 10.5198 32.7923 10.5198Z" fill="#073DA0"/>
</svg>
