<svg width="36" height="36" viewBox="0 0 36 36" fill="none" xmlns="http://www.w3.org/2000/svg">
<path d="M15.1833 15.1776H8.14258V13.7695H13.7752V8.13672H15.1833V15.1776Z" fill="white"/>
<path d="M3.99749 3L14.9754 13.978L13.9796 14.9738L3.00195 3.99576L3.99749 3ZM27.8559 15.1839H20.8152V8.14308H22.2233V13.7758H27.8559V15.1839Z" fill="white"/>
<path d="M32.0041 3L32.9997 3.99556L22.0219 14.9737L21.0261 13.9779L32.0041 3ZM15.1833 27.8547H13.7752V22.222H8.14258V20.8139H15.1833V27.8547Z" fill="white"/>
<path d="M13.9778 21.0193L14.9736 22.0149L3.99574 32.993L3 31.9973L13.9778 21.0193ZM22.2245 27.8534H20.8164V20.8125H27.8571V22.2206H22.2245V27.8534Z" fill="white"/>
<path d="M22.019 21.0273L32.997 32.0056L32.0012 33.0011L21.0234 22.0232L22.019 21.0273Z" fill="white"/>
</svg>
