<svg width="94" height="21" viewBox="0 0 94 21" fill="none" xmlns="http://www.w3.org/2000/svg">
<path d="M12.2598 9.44467H12.0074L11.566 9.18933C11.5492 9.18963 11.5325 9.18653 11.517 9.1802C11.5014 9.17387 11.4873 9.16445 11.4755 9.15252C11.4637 9.14058 11.4545 9.12637 11.4483 9.11076C11.4422 9.09514 11.4393 9.07844 11.4398 9.06166V8.35911C11.4398 8.23144 11.4398 8.23144 11.566 8.10377L16.8661 4.78437L9.16799 0.507812H8.66315L0.902309 4.7851L9.60936 9.89187C9.73557 9.89187 9.73557 10.0195 9.73557 10.1472V17.552C9.73557 17.6797 9.73557 17.6797 9.60936 17.8074L9.16799 18.0627H8.91557L8.4742 17.8074C8.34798 17.8074 8.34798 17.6797 8.34798 17.552V10.9767C8.34838 10.9599 8.34539 10.9433 8.33921 10.9277C8.33302 10.9121 8.32376 10.898 8.31199 10.8861C8.30021 10.8742 8.28615 10.8647 8.27065 10.8584C8.25515 10.852 8.23853 10.8488 8.22177 10.849L0.460938 6.31713V15.1263C0.4903 15.3376 0.577678 15.5366 0.713358 15.7012L8.53693 20.36C8.66315 20.36 8.66315 20.4877 8.78936 20.4877C8.91557 20.4877 9.04178 20.4877 9.04178 20.36L16.8654 15.7005C16.949 15.6307 17.0154 15.5425 17.0592 15.4427C17.103 15.343 17.1231 15.2344 17.1178 15.1256V6.31713L12.2598 9.44467Z" fill="url(#paint0_linear_304_13163)"/>
<path d="M68.2237 17.8703H66.208V7.97631C67.2118 7.56743 68.2771 7.32995 69.3596 7.27377C71.7744 7.27377 73.4603 8.79631 73.4603 10.9762C73.4603 13.4508 71.9655 14.8705 69.3596 14.8705V13.2742C69.6364 13.2864 69.9125 13.2381 70.1687 13.1328C70.425 13.0275 70.6552 12.8676 70.8435 12.6643C71.2203 12.185 71.4104 11.5851 71.3782 10.9762C71.4052 10.7033 71.3717 10.4279 71.2801 10.1694C71.1886 9.911 71.0412 9.67591 70.8485 9.4809C70.6558 9.28587 70.4224 9.13572 70.1651 9.0411C69.9078 8.94648 69.6327 8.90974 69.3596 8.93347C68.9624 8.87377 68.5572 8.96486 68.2237 9.18881V17.8703ZM26.5181 15.3169C26.0033 15.3378 25.4897 15.2511 25.0103 15.0622C24.5309 14.8733 24.0961 14.5865 23.7339 14.22C23.3716 13.8536 23.0898 13.4156 22.9065 12.934C22.7231 12.4525 22.6423 11.938 22.6691 11.4234C22.6423 10.9088 22.7231 10.3942 22.9065 9.91263C23.0898 9.43104 23.3716 8.99299 23.7339 8.62649C24.0961 8.25998 24.5308 7.97308 25.0102 7.78413C25.4897 7.59517 26.0032 7.50831 26.5181 7.5291C27.2227 7.44041 27.9362 7.59844 28.5375 7.97631V9.89062C28.042 9.42736 27.3853 9.17559 26.7071 9.18881C26.4339 9.16507 26.1589 9.20182 25.9016 9.29644C25.6442 9.39106 25.4109 9.54121 25.2182 9.73623C25.0255 9.93125 24.8781 10.1663 24.7865 10.4248C24.695 10.6832 24.6615 10.9587 24.6884 11.2315C24.6615 11.5044 24.695 11.7798 24.7865 12.0382C24.8781 12.2967 25.0255 12.5318 25.2182 12.7268C25.4109 12.9218 25.6442 13.072 25.9016 13.1666C26.1589 13.2612 26.4339 13.298 26.7071 13.2742C27.0794 13.2625 27.4497 13.2136 27.8123 13.1283H27.8225C28.057 13.0707 28.2964 13.0351 28.5375 13.0218V14.8734L28.3536 14.9295L28.3113 14.9427L28.2515 14.9616C27.6949 15.1668 27.1105 15.2865 26.5181 15.3169ZM91.7564 15.1251C89.6627 15.1251 88.6019 14.1154 88.6019 12.1252V4.78385H90.6206V7.5291H93.1448V9.12534H90.6206V12.1252C90.6206 12.8445 91.14 13.2742 92.0067 13.2742C92.464 13.3264 92.9263 13.2373 93.3315 13.0189V14.8705C92.8288 15.0599 92.2932 15.1465 91.7564 15.1251ZM84.7529 15.1251C83.9869 15.1015 83.2399 14.8817 82.5832 14.4867H82.7328V12.6359C83.3556 13.201 84.1636 13.5189 85.0046 13.5296C85.1087 13.5415 85.2142 13.5329 85.315 13.504C85.4158 13.4752 85.5099 13.4268 85.592 13.3615C85.6741 13.2963 85.7424 13.2155 85.7932 13.1237C85.844 13.032 85.8762 12.9312 85.888 12.827C85.888 12.5549 85.5802 12.3652 84.7529 12.1252C83.1391 11.864 82.4811 11.198 82.4811 9.82715C82.4603 9.49549 82.5189 9.16366 82.652 8.85917C82.7851 8.55467 82.9888 8.28629 83.2464 8.07626C83.8176 7.68392 84.5022 7.49061 85.1942 7.52619C85.897 7.46566 86.6014 7.62172 87.2129 7.97339V9.82715C86.629 9.38971 85.9236 9.14447 85.1942 9.12534C84.5997 9.12534 84.3108 9.35514 84.3108 9.82715C84.3108 10.0606 84.4567 10.259 85.1942 10.529C85.9004 10.57 86.5784 10.8202 87.1421 11.2476C87.3474 11.453 87.5053 11.7007 87.6047 11.9736C87.7042 12.2464 87.7427 12.5377 87.7177 12.827C87.7206 14.5217 86.1886 15.1251 84.7529 15.1251ZM77.9382 15.0616C77.4234 15.0825 76.9098 14.9957 76.4304 14.8069C75.951 14.618 75.5163 14.3312 75.154 13.9647C74.7917 13.5983 74.5099 13.1603 74.3266 12.6787C74.1432 12.1971 74.0624 11.6826 74.0892 11.168C74.0892 10.1472 74.4947 9.16819 75.2166 8.44636C75.9384 7.72452 76.9174 7.319 77.9382 7.319C78.9591 7.319 79.9381 7.72452 80.6599 8.44636C81.3818 9.16819 81.7873 10.1472 81.7873 11.168C81.8141 11.6824 81.7333 12.1968 81.5501 12.6782C81.3669 13.1596 81.0852 13.5975 80.7232 13.9639C80.3612 14.3303 79.9267 14.6172 79.4476 14.8062C78.9684 14.9952 78.4551 15.0822 77.9404 15.0616H77.9382ZM77.9382 9.12534C76.7411 9.12534 76.1086 9.83153 76.1086 11.168C76.0833 11.4247 76.1116 11.6837 76.1917 11.9288C76.2719 12.1739 76.4021 12.3997 76.5742 12.5918C76.7462 12.7838 76.9563 12.9381 77.1912 13.0446C77.426 13.1512 77.6804 13.2078 77.9382 13.2108C79.1354 13.2108 79.7679 12.5046 79.7679 11.168C79.7701 9.86947 79.1033 9.12534 77.9404 9.12534H77.9382ZM61.6615 15.0616C61.1467 15.0824 60.6332 14.9955 60.1539 14.8066C59.6746 14.6177 59.2399 14.3309 58.8777 13.9644C58.5156 13.598 58.2338 13.16 58.0505 12.6785C57.8672 12.197 57.7864 11.6826 57.8132 11.168C57.8061 10.6582 57.9005 10.152 58.0908 9.67888C58.281 9.20579 58.5634 8.77521 58.9215 8.41217C59.2796 8.04912 59.7062 7.76085 60.1767 7.56409C60.6471 7.36733 61.1519 7.26601 61.6619 7.26601C62.1718 7.26601 62.6766 7.36733 63.1471 7.56409C63.6175 7.76085 64.0441 8.04912 64.4022 8.41217C64.7603 8.77521 65.0427 9.20579 65.2329 9.67888C65.4232 10.152 65.5176 10.6582 65.5105 11.168C65.5374 11.6826 65.4565 12.1971 65.2731 12.6787C65.0898 13.1603 64.808 13.5983 64.4457 13.9647C64.0835 14.3312 63.6487 14.618 63.1693 14.8069C62.6899 14.9957 62.1763 15.0825 61.6615 15.0616ZM61.6615 9.12534C60.465 9.12534 59.8325 9.83153 59.8325 11.168C59.8072 11.4246 59.8356 11.6836 59.9157 11.9287C59.9958 12.1737 60.126 12.3994 60.2979 12.5915C60.4699 12.7836 60.6799 12.9378 60.9146 13.0444C61.1494 13.151 61.4037 13.2077 61.6615 13.2108C62.8587 13.2108 63.4912 12.5046 63.4912 11.168C63.511 10.9125 63.4789 10.6556 63.3967 10.4129C63.3145 10.1701 63.184 9.94651 63.013 9.7556C62.842 9.56469 62.634 9.41041 62.4018 9.30209C62.1695 9.19376 61.9177 9.13363 61.6615 9.12534ZM45.7619 15.0616C45.2471 15.0825 44.7335 14.9957 44.2541 14.8069C43.7747 14.618 43.3399 14.3312 42.9777 13.9647C42.6154 13.5983 42.3336 13.1603 42.1503 12.6787C41.9669 12.1971 41.8861 11.6826 41.9129 11.168C41.8861 10.6534 41.9669 10.1389 42.1503 9.65729C42.3336 9.1757 42.6154 8.73765 42.9776 8.37115C43.3399 8.00464 43.7746 7.71775 44.254 7.52879C44.7335 7.33983 45.247 7.25297 45.7619 7.27377C46.2768 7.25297 46.7904 7.33983 47.2698 7.52879C47.7492 7.71775 48.1839 8.00464 48.5462 8.37115C48.9084 8.73765 49.1902 9.1757 49.3736 9.65729C49.5569 10.1389 49.6378 10.6534 49.611 11.168C49.6378 11.6826 49.5569 12.1971 49.3736 12.6787C49.1902 13.1603 48.9084 13.5983 48.5462 13.9647C48.1839 14.3312 47.7492 14.618 47.2697 14.8069C46.7903 14.9957 46.2768 15.0825 45.7619 15.0616ZM45.7619 9.12534C44.5647 9.12534 43.9322 9.83153 43.9322 11.168C43.9069 11.4247 43.9353 11.6837 44.0154 11.9288C44.0956 12.1739 44.2258 12.3997 44.3979 12.5918C44.5699 12.7838 44.78 12.9381 45.0148 13.0446C45.2497 13.1512 45.5041 13.2078 45.7619 13.2108C46.9591 13.2108 47.5916 12.5046 47.5916 11.168C47.5916 9.86947 46.9248 9.12534 45.7619 9.12534ZM52.3241 14.8712H50.5572V7.97631C51.6317 7.50559 52.7932 7.26622 53.9663 7.27377C54.7962 7.19727 55.6256 7.42433 56.3008 7.91284C56.6021 8.22241 56.8317 8.59437 56.9734 9.00243C57.1151 9.4105 57.1654 9.8447 57.1208 10.2744V14.8705H55.1022V10.2744C55.1022 9.55503 54.5835 9.12534 53.7161 9.12534C53.2394 9.07982 52.7594 9.16799 52.33 9.37995V14.8705L52.3241 14.8712ZM39.3894 14.8712H37.37V10.2751C37.3314 9.83982 37.3915 9.40145 37.5457 8.99259C37.6999 8.58374 37.9443 8.21492 38.2608 7.91357C38.9165 7.44215 39.7169 7.21597 40.5224 7.27449C40.7554 7.28382 40.9864 7.32155 41.2103 7.38684C41.5205 7.47545 41.8406 7.52447 42.1631 7.53275V9.37995C41.73 9.17939 41.2531 9.0918 40.777 9.12534C39.7644 9.12534 39.3908 9.43685 39.3908 10.2744V14.8705L39.3894 14.8712ZM34.4708 14.8712V10.2751C34.4708 9.55576 33.9521 9.12606 33.0847 9.12606C32.608 9.08048 32.128 9.16864 31.6986 9.38067V14.8712H29.6727V4.08203H31.9437V7.5291C32.1809 7.51741 32.4165 7.48272 32.647 7.42551H32.666C33.0286 7.34025 33.3989 7.29137 33.7712 7.2796C34.1519 7.28118 34.5281 7.36216 34.8757 7.51737C35.2234 7.67258 35.5348 7.8986 35.7901 8.18098C36.0455 8.46337 36.2391 8.79592 36.3586 9.15738C36.4782 9.51883 36.521 9.90125 36.4844 10.2802V14.8763L34.4708 14.8712Z" fill="#3C3C3B"/>
<defs>
<linearGradient id="paint0_linear_304_13163" x1="0.394307" y1="10.5177" x2="17.3518" y2="10.5177" gradientUnits="userSpaceOnUse">
<stop stop-color="#006CAF"/>
<stop offset="0.332" stop-color="#0081C5"/>
<stop offset="0.733" stop-color="#0095DA"/>
<stop offset="1" stop-color="#009CE1"/>
</linearGradient>
</defs>
</svg>
