<svg width="74" height="23" viewBox="0 0 74 23" fill="none" xmlns="http://www.w3.org/2000/svg">
<path d="M73.9997 -0.00195312V16.419H0V-0.00195312H73.9997Z" fill="#FFCC00"/>
<path d="M13.0127 2.94727L10.6484 6.1771H23.5338C24.1851 6.1771 24.1765 6.42595 23.8581 6.85961C23.5348 7.29983 22.9938 8.06542 22.6644 8.51259C22.4974 8.73952 22.1952 9.15297 23.1965 9.15297H28.4657C28.4657 9.15297 29.3151 7.99087 30.0269 7.01921C30.9955 5.69764 30.1109 2.9474 26.6484 2.9474L13.0127 2.94727Z" fill="#D2002E"/>
<path d="M9.69274 13.4697L14.4415 6.98154H20.3343C20.9856 6.98154 20.9771 7.23039 20.6588 7.66405C20.3355 8.10427 19.7855 8.86172 19.4562 9.30889C19.289 9.53583 18.987 9.94993 19.9881 9.94993H27.8827C27.2262 10.8544 25.0965 13.4696 21.2724 13.4696L9.69274 13.4697ZM36.8889 9.94914L34.3137 13.4694H27.5208C27.5208 13.4694 30.0945 9.94993 30.0967 9.94993L36.8889 9.94914ZM47.2953 9.15297H30.6803L35.2239 2.94727H42.0148L39.4105 6.50562H42.4418L45.0471 2.94727H51.8373L47.2953 9.15297ZM46.7121 9.95006L44.1358 13.4697H37.3453C37.3453 13.4697 39.9191 9.95006 39.9213 9.95006H46.7121ZM0 11.3379H10.0073L9.46066 12.0856H0V11.3379ZM0 9.95006H11.024L10.4763 10.6967H0V9.95006ZM0 12.7265H8.99115L8.44711 13.4697H0V12.7265ZM74 12.0856H64.0312L64.5784 11.338H74V12.0856ZM74 13.4697L63.0178 13.4707L63.5618 12.7265H74V13.4697ZM65.5938 9.95006H74V10.6971L65.0471 10.6978L65.5938 9.95006ZM61.242 2.94727L56.6992 9.15284H49.5033C49.5033 9.15284 54.0473 2.94727 54.0496 2.94727H61.242ZM48.9211 9.95006C48.9211 9.95006 48.4247 10.6322 48.1837 10.96C47.3307 12.1192 48.0848 13.4697 50.8683 13.4697H61.7743L64.3504 9.95006H48.9211Z" fill="#D2002E"/>
<path d="M0 19.0879H74V19.4599H0V19.0879ZM0 20.8237H74V21.1957H0V20.8237ZM0 22.5591H74V22.9311H0V22.5591Z" fill="#FFCC00"/>
<path d="M24.8516 22.9325H27.0786L27.4341 22.4481H25.7767L26.7061 21.1817H28.2154L28.571 20.6972H27.0617L27.8858 19.5742H29.5433L29.8988 19.0896H27.6719L24.8516 22.9325ZM27.5847 22.9325H28.2681L30.5977 21.3029L30.5748 22.9325H31.2925L31.2978 20.923L33.9817 19.0896H33.3325L31.196 20.5651L31.2194 19.0896H30.5359L30.5152 20.9341L27.5847 22.9325ZM34.8439 19.5742H35.328C35.6812 19.5742 36.0758 19.7503 35.7202 20.2348C35.3485 20.7411 34.779 20.9119 34.4258 20.9119H33.8619L34.8439 19.5742ZM31.8096 22.9325H32.3791L33.5063 21.3965H34.0645C34.7821 21.3965 35.6935 21.0937 36.3197 20.2401C36.9622 19.3647 36.4864 19.0893 35.6721 19.0893H34.6298L31.8096 22.9325ZM35.0894 22.9325H35.659L36.9116 21.2257H37.2531C37.5549 21.2257 37.7431 21.2257 37.645 21.6L37.2766 22.9325H37.926L38.2975 21.4018C38.3459 21.1652 38.3213 21.0826 38.1929 21.0164L38.201 21.0053C38.7191 20.9282 39.3202 20.5979 39.6637 20.1299C40.3384 19.2106 39.6699 19.0893 38.8837 19.0893H37.9098L35.0894 22.9325ZM38.1238 19.5742H38.6704C39.1946 19.5742 39.3062 19.7944 39.0518 20.141C38.7811 20.5101 38.2924 20.7411 37.7512 20.7411H37.2671L38.1238 19.5742ZM38.5157 22.9325H40.7428L41.0981 22.4481H39.4409L40.3701 21.1817H41.8796L42.2349 20.6972H40.7257L41.5499 19.5742H43.2073L43.563 19.0896H41.3361L38.5157 22.9325ZM46.3063 19.1611C46.1016 19.0675 45.8205 19.0234 45.5585 19.0234C44.8409 19.0234 44.0161 19.387 43.515 20.0696C42.6382 21.2644 44.5207 21.0276 43.8902 21.8866C43.5589 22.3378 42.9739 22.5142 42.6494 22.5142C42.3587 22.5142 42.0979 22.404 41.9609 22.3268L41.5283 22.8389C41.7297 22.9215 41.9467 22.9986 42.2257 22.9986C43.023 22.9986 43.9165 22.6734 44.5184 21.8531C45.4477 20.587 43.6136 20.7574 44.1552 20.0199C44.4503 19.618 44.907 19.5079 45.2259 19.5079C45.5222 19.5079 45.645 19.5576 45.8547 19.6676L46.3063 19.1611ZM49.1541 19.1611C48.9495 19.0675 48.6685 19.0234 48.4064 19.0234C47.6887 19.0234 46.8639 19.387 46.3628 20.0696C45.4861 21.2644 47.3685 21.0276 46.7381 21.8866C46.4069 22.3378 45.8218 22.5142 45.4973 22.5142C45.2066 22.5142 44.9457 22.404 44.8089 22.3268L44.3762 22.8389C44.5776 22.9215 44.7945 22.9986 45.0735 22.9986C45.8709 22.9986 46.7642 22.6734 47.3662 21.8531C48.2955 20.587 46.4616 20.7574 47.003 20.0199C47.298 19.618 47.7549 19.5079 48.0738 19.5079C48.3701 19.5079 48.4932 19.5576 48.7025 19.6676L49.1541 19.1611Z" fill="#D2002E"/>
</svg>
