<svg width="30" height="35" viewBox="0 0 30 35" fill="none" xmlns="http://www.w3.org/2000/svg">
<path d="M14.8306 34.6268C15.125 34.4779 22.7798 31.1274 25.2088 29.1171C27.7113 27.0324 29.0362 24.0542 29.0362 20.4804V3.72808L28.8154 3.65363C22.7062 0.303165 15.125 0.526529 14.757 0.526529C14.4626 0.526529 6.88135 0.303165 0.772208 3.65363L0.625 3.72808V20.5548C0.625 24.1287 1.94987 27.1069 4.45241 29.1916C6.88134 31.2019 14.5362 34.5523 14.8306 34.6268Z" fill="#341B14"/>
<path d="M14.8281 34.998C14.8281 34.998 6.73168 31.4242 4.22914 29.4139C1.57939 27.1803 0.328125 24.1277 0.328125 20.6283V3.2059C6.73168 -0.293471 14.8281 0.00434782 14.8281 0.00434782C14.8281 0.00434782 22.9246 -0.293471 29.3281 3.2059V20.5538C29.3281 24.0532 28.0769 27.1059 25.4271 29.3395C22.9246 31.4242 14.8281 34.998 14.8281 34.998ZM1.50579 20.6283C1.50579 23.9043 2.68345 26.5847 4.96518 28.446C7.02609 30.1585 13.1352 32.9133 14.8281 33.6579C16.521 32.9133 22.7038 30.084 24.6911 28.446C26.9728 26.5847 28.1505 23.8298 28.1505 20.6283V3.50372C19.6124 2.68472 9.45503 3.13144 1.50579 10.5769V20.6283Z" fill="#FFB406"/>
<path d="M22.9989 18.17C24.103 18.8401 24.5446 19.2868 24.6182 20.1058C24.6182 20.9993 24.0294 21.5204 23.0725 21.5204C22.2629 21.5204 21.306 21.0737 20.6436 20.4781V22.8606C21.4532 23.3074 22.4101 23.6796 23.4405 23.6796C25.9431 23.6796 27.1208 21.8927 27.1208 20.2547C27.1944 18.7656 26.7527 17.5743 24.6182 16.3086C23.6614 15.713 22.9253 15.3407 22.9253 14.4472C22.9253 13.5538 23.735 13.1815 24.3974 13.1815C25.2807 13.1815 26.1639 13.7027 26.6791 14.2239V11.9902C26.2375 11.618 25.2807 11.0968 23.8822 11.1712C22.1893 11.2457 20.4228 12.437 20.4228 14.5217C20.4964 15.9363 20.938 16.9787 22.9989 18.17ZM14.3136 23.5307C14.5345 23.6052 14.9025 23.6796 15.4913 23.6796C18.3619 23.6796 19.9812 21.0737 19.9812 17.351C19.9812 13.5538 18.2883 11.2457 15.2705 11.2457C13.872 11.2457 12.768 11.5435 11.8111 12.1391V28.9659H14.3136V23.5307ZM14.3136 13.4049C14.5345 13.3304 14.9025 13.1815 15.1969 13.1815C16.669 13.1815 17.2578 14.3728 17.2578 17.2765C17.2578 20.1058 16.5218 21.446 15.0497 21.446C14.6817 21.446 14.3873 21.3715 14.24 21.2971V13.4049H14.3136ZM6.58522 23.6796C8.13091 23.6796 9.45578 23.3073 10.4126 22.6373V11.3946H7.83649V21.1482C7.54207 21.3715 7.17406 21.446 6.65883 21.446C5.48116 21.446 5.33395 20.3292 5.33395 19.6591V11.3946H2.75781V19.5102C2.75781 22.265 4.08268 23.6796 6.58522 23.6796Z" fill="#FFB406"/>
</svg>
