<svg width="56" height="18" viewBox="0 0 56 18" fill="none" xmlns="http://www.w3.org/2000/svg">
<path d="M55.2965 11.3423L55.6676 11.6166C55.517 11.9393 55.2374 12.2458 54.8287 12.5362C54.4307 12.8266 54.065 12.9718 53.7316 12.9718C53.097 12.9718 52.7798 12.6384 52.7798 11.9715C52.7798 11.6596 52.8604 11.2886 53.0218 10.8583L52.4248 11.4714C51.844 12.063 51.3385 12.4609 50.9083 12.6653C50.4889 12.8696 50.0748 12.9718 49.6661 12.9718C49.2574 12.9718 48.9455 12.8589 48.7304 12.633C48.526 12.3964 48.4238 12.0737 48.4238 11.665C48.4238 10.9121 48.7142 10.17 49.295 9.43864C49.8758 8.69651 50.6179 8.09421 51.5214 7.63173C52.4248 7.16925 53.3283 6.93263 54.2317 6.92188L54.264 7.45427L53.5864 7.59947C52.6077 7.81457 51.7419 8.24479 50.989 8.89011C50.2469 9.53544 49.8758 10.1808 49.8758 10.8261C49.8758 11.4607 50.1339 11.7779 50.6502 11.7779C51.1342 11.7779 51.7311 11.4391 52.441 10.7616C53.1508 10.084 53.7424 9.28806 54.2156 8.37385L54.8932 8.77718C54.2264 10.1216 53.8929 10.9767 53.8929 11.3423C53.8929 11.4929 53.9413 11.622 54.0381 11.7295C54.1457 11.8263 54.2479 11.8747 54.3447 11.8747C54.4522 11.8747 54.5221 11.8694 54.5544 11.8586C54.5867 11.8478 54.6189 11.8371 54.6512 11.8263C54.6835 11.8048 54.7211 11.7779 54.7641 11.7457C54.8179 11.7134 54.8609 11.6811 54.8932 11.6489C54.9362 11.6166 55.0007 11.5682 55.0868 11.5037C55.1728 11.4391 55.2427 11.3854 55.2965 11.3423Z" fill="white"/>
<path d="M46.8264 11.1622L47.1814 11.5655C46.9125 11.985 46.5844 12.313 46.1972 12.5496C45.8208 12.7863 45.439 12.9046 45.0518 12.9046C44.6646 12.9046 44.3581 12.797 44.1322 12.5819C43.9063 12.356 43.7934 12.0495 43.7934 11.6623C43.7934 10.7589 44.1322 9.51125 44.8098 7.91945C44.2613 8.00549 43.7127 8.13456 43.1642 8.30664L43.0513 7.67745L43.0352 7.66132C43.5729 7.43546 44.2774 7.25262 45.1486 7.1128C45.2346 6.95146 45.4282 6.55889 45.7294 5.93508C46.3317 4.69821 46.7619 3.89693 47.02 3.53125L47.7137 3.80551C47.6062 4.04213 47.418 4.44008 47.1491 4.99936C46.8802 5.54789 46.5791 6.1717 46.2456 6.8708C46.7296 6.83853 47.1114 6.8224 47.3911 6.8224C47.6707 6.8224 47.8858 6.86542 48.0364 6.95146V7.64519C47.8858 7.61292 47.6654 7.59679 47.375 7.59679C47.0953 7.59679 46.5898 7.64519 45.8584 7.74199C45.2239 9.1617 44.9066 10.1942 44.9066 10.8395C44.9066 11.0869 44.9819 11.2913 45.1325 11.4526C45.2938 11.6139 45.5035 11.6946 45.7616 11.6946C46.0305 11.6946 46.3855 11.5171 46.8264 11.1622Z" fill="white"/>
<path d="M41.8327 7.25895C42.1015 7.25895 42.322 7.35038 42.4941 7.53322C42.6662 7.71606 42.7522 7.95268 42.7522 8.24307C42.7522 8.82386 42.4188 9.43692 41.752 10.0822L41.3648 9.77572C41.5154 9.4423 41.5907 9.2003 41.5907 9.04973C41.5907 8.75933 41.4293 8.61413 41.1067 8.61413C40.784 8.61413 40.4775 8.81849 40.1871 9.22719C39.8967 9.6359 39.5525 10.2705 39.1546 11.1309C38.7674 11.9806 38.4716 12.5829 38.2672 12.9378L37.3477 12.5345C37.9392 11.19 38.278 10.3995 38.364 10.1629C38.6544 9.32399 38.7996 8.25921 38.7996 6.96856L39.7031 6.72656C39.6708 7.42566 39.6224 7.96881 39.5579 8.356C39.4934 8.73244 39.3374 9.35088 39.09 10.2113C40.1763 8.24307 41.0905 7.25895 41.8327 7.25895Z" fill="white"/>
<path d="M36.5725 8.17959C36.8522 8.64207 36.992 9.15295 36.992 9.71223C36.992 10.5834 36.6908 11.3632 36.0885 12.0515C35.4862 12.7291 34.7764 13.0679 33.959 13.0679C33.3352 13.0679 32.8458 12.8905 32.4909 12.5355C32.1467 12.1698 31.9746 11.6697 31.9746 11.0351C31.9746 10.0134 32.3726 9.09917 33.1685 8.29252C33.9644 7.47511 34.8571 7.06641 35.8466 7.06641C36.0294 7.06641 36.1585 7.07178 36.2337 7.08254L36.2821 7.61493C35.4217 7.61493 34.7065 7.86231 34.1364 8.35705C33.5664 8.8518 33.2814 9.48637 33.2814 10.2608C33.2814 10.7232 33.3943 11.0997 33.6202 11.3901C33.846 11.6697 34.1741 11.8095 34.6043 11.8095C35.0453 11.8095 35.3948 11.6159 35.653 11.2287C35.9111 10.8415 36.0401 10.3898 36.0401 9.87356C36.0401 9.34655 35.938 8.86793 35.7336 8.43772L36.5725 8.17959Z" fill="white"/>
<path d="M29.9291 6.63057L29.4129 8.58268L31.5102 8.34068L31.0423 9.09894L29.2354 9.34093C29.0956 9.92172 28.859 10.7983 28.5255 11.9706C27.8049 14.5089 27.4446 16.1168 27.4446 16.7944L26.4121 17.3268C26.4121 16.4018 26.8101 14.6165 27.606 11.9706C28.0147 10.6477 28.2674 9.79804 28.3642 9.4216C27.9878 9.5184 27.6436 9.5668 27.3317 9.5668C26.7186 9.5668 26.4121 9.3248 26.4121 8.84081C26.4121 8.57192 26.6165 8.24926 27.0252 7.87282C27.6167 7.3243 28.3212 6.8403 29.1386 6.42084C29.7732 4.25901 30.2303 2.90383 30.5099 2.35531C30.8864 1.61318 31.2305 1.13995 31.5424 0.935594C32.0049 0.645198 32.4835 0.5 32.9783 0.5C33.473 0.5 33.8226 0.63982 34.0269 0.919461C34.2313 1.1991 34.3227 1.52714 34.3012 1.90358C34.2474 3.25876 32.7901 4.83442 29.9291 6.63057ZM32.5104 1.87131C31.9081 1.87131 31.4618 2.16171 31.1714 2.7425C30.9455 3.19423 30.7465 3.73737 30.5744 4.37194C30.4024 5.00651 30.2787 5.4421 30.2034 5.67872C30.7949 5.31304 31.4295 4.81829 32.1071 4.19448C32.7847 3.57066 33.1342 3.02752 33.1557 2.56504C33.1772 2.10255 32.9621 1.87131 32.5104 1.87131ZM28.5901 8.66334L28.945 7.24363C28.5363 7.41572 28.2136 7.59318 27.977 7.77602C27.7512 7.95886 27.6382 8.11482 27.6382 8.24388C27.6382 8.52352 27.9555 8.66334 28.5901 8.66334Z" fill="white"/>
<path d="M25.7562 10.8705L26.095 11.1932C25.4819 12.2903 24.7774 12.8388 23.9815 12.8388C23.6589 12.8388 23.4061 12.7527 23.2233 12.5806C23.0512 12.3978 22.9651 12.1612 22.9651 11.8708C22.9651 11.5696 23.1426 11.0588 23.4975 10.3382C23.8525 9.61754 24.0407 9.06901 24.0622 8.69258C24.0729 8.52049 24.0192 8.38067 23.9009 8.27312C23.7933 8.16556 23.6427 8.11178 23.4491 8.11178C23.2555 8.11178 23.0566 8.16018 22.8522 8.25698C22.6586 8.34303 22.465 8.48822 22.2714 8.69258C22.0886 8.89693 21.9165 9.0959 21.7552 9.2895C21.6046 9.4831 21.4325 9.75736 21.2389 10.1123C21.0561 10.4672 20.9001 10.763 20.771 10.9996C20.5452 11.4406 20.2225 12.102 19.8031 12.984L18.8351 12.6452C18.8351 12.6129 19.0125 12.0052 19.3675 10.8221C19.7224 9.63905 19.8999 8.93457 19.8999 8.70871C19.8999 8.48285 19.8461 8.32151 19.7385 8.22472C19.631 8.11716 19.4965 8.06338 19.3352 8.06338C18.8512 8.06338 18.179 8.66569 17.3186 9.87029C16.4689 11.0749 15.9257 12.102 15.6891 12.9517L14.7695 12.6452C14.8233 12.0751 15.0761 11.0534 15.5278 9.5799C15.9795 8.09565 16.3613 7.08464 16.6732 6.54688L17.3992 6.805C17.0658 7.54713 16.8346 8.17632 16.7055 8.69258C16.5764 9.19808 16.4635 9.74123 16.3667 10.322C17.2917 8.9991 18.0661 8.07414 18.6899 7.54713C19.3137 7.00936 19.8783 6.74047 20.3838 6.74047C20.9324 6.74047 21.2066 7.01473 21.2066 7.56326C21.2066 7.77837 21.1098 8.2032 20.9162 8.83777C20.7334 9.47234 20.5882 9.97247 20.4806 10.3382C21.9649 7.95045 23.2932 6.75661 24.4655 6.75661C24.7559 6.75661 24.9872 6.84803 25.1592 7.03087C25.3313 7.20295 25.4174 7.46646 25.4174 7.82139C25.4174 8.16556 25.213 8.74098 24.8043 9.54763C24.4064 10.3543 24.2074 10.8652 24.2074 11.0803C24.2074 11.2846 24.2504 11.4352 24.3365 11.532C24.4225 11.6288 24.5301 11.6772 24.6591 11.6772C24.9388 11.6772 25.3044 11.4083 25.7562 10.8705Z" fill="white"/>
<path d="M14.0901 8.17959C14.3698 8.64207 14.5096 9.15295 14.5096 9.71223C14.5096 10.5834 14.2084 11.3632 13.6061 12.0515C13.0038 12.7291 12.294 13.0679 11.4766 13.0679C10.8527 13.0679 10.3634 12.8905 10.0084 12.5355C9.66427 12.1698 9.49219 11.6697 9.49219 11.0351C9.49219 10.0134 9.89014 9.09917 10.686 8.29252C11.4819 7.47511 12.3746 7.06641 13.3641 7.06641C13.547 7.06641 13.676 7.07178 13.7513 7.08254L13.7997 7.61493C12.9393 7.61493 12.2241 7.86231 11.654 8.35705C11.084 8.8518 10.799 9.48637 10.799 10.2608C10.799 10.7232 10.9119 11.0997 11.1378 11.3901C11.3636 11.6697 11.6917 11.8095 12.1219 11.8095C12.5629 11.8095 12.9124 11.6159 13.1705 11.2287C13.4287 10.8415 13.5577 10.3898 13.5577 9.87356C13.5577 9.34655 13.4555 8.86793 13.2512 8.43772L14.0901 8.17959Z" fill="white"/>
<path d="M7.58255 2.77734C7.9805 2.77734 8.28703 2.89028 8.50214 3.11614C8.728 3.33125 8.84093 3.62702 8.84093 4.00346C8.84093 4.84238 8.34081 5.62214 7.34055 6.34276C6.3403 7.05261 5.20023 7.40754 3.92034 7.40754C3.36106 7.40754 2.76951 7.32687 2.1457 7.16554C1.737 7.83238 1.53264 8.55837 1.53264 9.34351C1.53264 10.1179 1.74775 10.7471 2.17797 11.2311C2.60818 11.7043 3.23737 11.9409 4.06554 11.9409C5.54978 11.9409 6.52314 11.0751 6.98563 9.34351H7.74388C7.62557 10.3438 7.15233 11.2257 6.32417 11.9893C5.50676 12.753 4.42584 13.1348 3.08142 13.1348C2.37156 13.1348 1.71011 12.8767 1.09705 12.3604C0.483993 11.8334 0.177464 11.0751 0.177464 10.0856C0.177464 9.09614 0.553903 8.01522 1.30678 6.84288C0.758255 6.52022 0.322662 6.12227 0 5.64903L0.435593 5.16504C0.510881 5.24033 0.613057 5.35326 0.742122 5.50383C0.989496 5.79423 1.32291 6.04698 1.74237 6.26209C2.37694 5.38015 3.29653 4.57887 4.50113 3.85826C5.71649 3.13765 6.74363 2.77734 7.58255 2.77734ZM3.87194 6.76222C4.80766 6.76222 5.63045 6.54173 6.3403 6.10076C7.05016 5.65979 7.40509 5.14353 7.40509 4.55198C7.40509 4.34763 7.3298 4.1863 7.17922 4.06799C7.0394 3.93893 6.85656 3.87439 6.6307 3.87439C5.97462 3.87439 5.24325 4.1379 4.4366 4.66491C3.62994 5.18117 2.99 5.80499 2.51676 6.53635C2.90396 6.68693 3.35568 6.76222 3.87194 6.76222Z" fill="white"/>
</svg>
