<svg width="24" height="25" viewBox="0 0 24 25" fill="none" xmlns="http://www.w3.org/2000/svg">
<ellipse cx="12" cy="12.0625" rx="12" ry="12" transform="rotate(-90 12 12.0625)" fill="#37ADE5"/>
<path d="M9 16.0365C9 17.1564 9 17.7163 9.22678 17.9929C9.42382 18.2331 9.72136 18.3681 10.0319 18.3582C10.3894 18.3468 10.8108 17.9781 11.6536 17.2406L15.6239 13.7666C16.099 13.3509 16.3366 13.143 16.4239 12.8967C16.5006 12.6805 16.5006 12.4445 16.4239 12.2283C16.3366 11.982 16.099 11.7741 15.6239 11.3584L11.6536 7.8844C10.8108 7.14693 10.3894 6.7782 10.0319 6.76678C9.72136 6.75685 9.42382 6.89187 9.22678 7.13213C9 7.40865 9 7.96861 9 9.08853L9 16.0365Z" fill="white"/>
</svg>
