<svg width="51" height="17" viewBox="0 0 51 17" fill="none" xmlns="http://www.w3.org/2000/svg">
<path fill-rule="evenodd" clip-rule="evenodd" d="M11.481 0.498047L19.723 5.23498L37.0953 5.43114C38.6243 4.15684 38.9855 3.08532 39.0355 2.69954C39.0873 2.31376 38.5563 0.934865 37 0.909398C35.4427 0.881101 11.481 0.498047 11.481 0.498047ZM20.5558 5.80854C21.2226 6.80082 20.6558 7.69684 19.5484 8.16657C18.4411 8.63063 0 16.5008 0 16.5008L50.459 6.42258L20.5558 5.80854ZM32.7923 10.5217L3.1117 16.4075C3.1117 16.4075 23.9514 16.3829 25.5379 16.4094C27.1263 16.4349 27.9459 16.3283 28.7213 15.4238C29.4947 14.523 32.7923 10.5217 32.7923 10.5217Z" fill="#073DA0"/>
</svg>
