<svg width="374" height="25" viewBox="0 0 374 25" fill="none" xmlns="http://www.w3.org/2000/svg">
<g clip-path="url(#clip0_1002_80964)">
<ellipse cx="362" cy="12.0625" rx="12" ry="12" transform="rotate(-90 362 12.0625)" fill="#37ADE5"/>
<path d="M359 16.0365C359 17.1564 359 17.7163 359.227 17.9929C359.424 18.2331 359.721 18.3681 360.032 18.3582C360.389 18.3468 360.811 17.9781 361.654 17.2406L365.624 13.7666C366.099 13.3509 366.337 13.143 366.424 12.8967C366.501 12.6805 366.501 12.4445 366.424 12.2283C366.337 11.982 366.099 11.7741 365.624 11.3584L361.654 7.8844C360.811 7.14693 360.389 6.7782 360.032 6.76678C359.721 6.75685 359.424 6.89187 359.227 7.13213C359 7.40865 359 7.96861 359 9.08853L359 16.0365Z" fill="white"/>
<ellipse cx="12" cy="12.0625" rx="12" ry="12" transform="rotate(90 12 12.0625)" fill="#37ADE5"/>
<path d="M15 9.08853C15 7.96861 15 7.40865 14.7732 7.13213C14.5762 6.89187 14.2786 6.75685 13.9681 6.76678C13.6106 6.7782 13.1892 7.14694 12.3464 7.88441L8.37614 11.3584C7.901 11.7741 7.66344 11.982 7.5761 12.2283C7.49942 12.4445 7.49942 12.6805 7.5761 12.8967C7.66344 13.143 7.901 13.3509 8.37614 13.7666L12.3464 17.2406C13.1892 17.9781 13.6106 18.3468 13.9681 18.3582C14.2786 18.3681 14.5762 18.2331 14.7732 17.9929C15 17.7163 15 17.1564 15 16.0365L15 9.08853Z" fill="white"/>
</g>
<defs>
<clipPath id="clip0_1002_80964">
<rect width="374" height="24" fill="white" transform="translate(0 0.03125)"/>
</clipPath>
</defs>
</svg>
