<svg width="94" height="21" viewBox="0 0 94 21" fill="none" xmlns="http://www.w3.org/2000/svg">
<path d="M12.2598 9.44662H12.0074L11.566 9.19128C11.5492 9.19158 11.5325 9.18848 11.517 9.18215C11.5014 9.17582 11.4873 9.16641 11.4755 9.15447C11.4637 9.14253 11.4545 9.12833 11.4483 9.11271C11.4422 9.09709 11.4393 9.08039 11.4398 9.06361V8.36107C11.4398 8.2334 11.4398 8.2334 11.566 8.10573L16.8661 4.78632L9.16799 0.509766H8.66315L0.902309 4.78705L9.60936 9.89383C9.73557 9.89383 9.73557 10.0215 9.73557 10.1492V17.554C9.73557 17.6817 9.73557 17.6817 9.60936 17.8093L9.16799 18.0647H8.91557L8.4742 17.8093C8.34798 17.8093 8.34798 17.6817 8.34798 17.554V10.9787C8.34838 10.9619 8.34539 10.9452 8.33921 10.9297C8.33302 10.9141 8.32376 10.8999 8.31199 10.888C8.30021 10.8761 8.28615 10.8667 8.27065 10.8603C8.25515 10.854 8.23853 10.8508 8.22177 10.851L0.460938 6.31909V15.1283C0.4903 15.3396 0.577678 15.5385 0.713358 15.7031L8.53693 20.362C8.66315 20.362 8.66315 20.4897 8.78936 20.4897C8.91557 20.4897 9.04178 20.4897 9.04178 20.362L16.8654 15.7024C16.949 15.6327 17.0154 15.5444 17.0592 15.4447C17.103 15.3449 17.1231 15.2364 17.1178 15.1275V6.31909L12.2598 9.44662Z" fill="url(#paint0_linear_297_12203)"/>
<path d="M68.2237 17.8723H66.208V7.97827C67.2118 7.56938 68.2771 7.3319 69.3596 7.27572C71.7744 7.27572 73.4603 8.79827 73.4603 10.9781C73.4603 13.4527 71.9655 14.8724 69.3596 14.8724V13.2762C69.6364 13.2883 69.9125 13.24 70.1687 13.1347C70.425 13.0294 70.6552 12.8696 70.8435 12.6663C71.2203 12.1869 71.4104 11.587 71.3782 10.9781C71.4052 10.7053 71.3717 10.4298 71.2801 10.1714C71.1886 9.91296 71.0412 9.67787 70.8485 9.48285C70.6558 9.28783 70.4224 9.13767 70.1651 9.04305C69.9078 8.94844 69.6327 8.91169 69.3596 8.93542C68.9624 8.87573 68.5572 8.96681 68.2237 9.19076V17.8723ZM26.5181 15.3189C26.0033 15.3398 25.4897 15.253 25.0103 15.0641C24.5309 14.8753 24.0961 14.5884 23.7339 14.222C23.3716 13.8556 23.0898 13.4176 22.9065 12.936C22.7231 12.4544 22.6423 11.9399 22.6691 11.4253C22.6423 10.9107 22.7231 10.3962 22.9065 9.91458C23.0898 9.43299 23.3716 8.99494 23.7339 8.62844C24.0961 8.26194 24.5308 7.97504 25.0102 7.78608C25.4897 7.59713 26.0032 7.51027 26.5181 7.53106C27.2227 7.44237 27.9362 7.60039 28.5375 7.97827V9.89258C28.042 9.42931 27.3853 9.17754 26.7071 9.19076C26.4339 9.16703 26.1589 9.20378 25.9016 9.29839C25.6442 9.39301 25.4109 9.54317 25.2182 9.73819C25.0255 9.93321 24.8781 10.1683 24.7865 10.4267C24.695 10.6852 24.6615 10.9606 24.6884 11.2335C24.6615 11.5063 24.695 11.7818 24.7865 12.0402C24.8781 12.2986 25.0255 12.5337 25.2182 12.7287C25.4109 12.9238 25.6442 13.0739 25.9016 13.1685C26.1589 13.2632 26.4339 13.2999 26.7071 13.2762C27.0794 13.2644 27.4497 13.2155 27.8123 13.1303H27.8225C28.057 13.0727 28.2964 13.037 28.5375 13.0238V14.8753L28.3536 14.9315L28.3113 14.9446L28.2515 14.9636C27.6949 15.1687 27.1105 15.2885 26.5181 15.3189ZM91.7564 15.127C89.6627 15.127 88.6019 14.1173 88.6019 12.1272V4.7858H90.6206V7.53106H93.1448V9.12729H90.6206V12.1272C90.6206 12.8465 91.14 13.2762 92.0067 13.2762C92.464 13.3284 92.9263 13.2393 93.3315 13.0208V14.8724C92.8288 15.0619 92.2932 15.1484 91.7564 15.127ZM84.7529 15.127C83.9869 15.1035 83.2399 14.8837 82.5832 14.4887H82.7328V12.6378C83.3556 13.203 84.1636 13.5209 85.0046 13.5315C85.1087 13.5435 85.2142 13.5348 85.315 13.506C85.4158 13.4772 85.5099 13.4287 85.592 13.3635C85.6741 13.2982 85.7424 13.2174 85.7932 13.1257C85.844 13.034 85.8762 12.9331 85.888 12.829C85.888 12.5569 85.5802 12.3672 84.7529 12.1272C83.1391 11.866 82.4811 11.1999 82.4811 9.82911C82.4603 9.49745 82.5189 9.16562 82.652 8.86112C82.7851 8.55663 82.9888 8.28824 83.2464 8.07821C83.8176 7.68587 84.5022 7.49256 85.1942 7.52814C85.897 7.46762 86.6014 7.62368 87.2129 7.97535V9.82911C86.629 9.39166 85.9236 9.14642 85.1942 9.12729C84.5997 9.12729 84.3108 9.35709 84.3108 9.82911C84.3108 10.0626 84.4567 10.261 85.1942 10.5309C85.9004 10.572 86.5784 10.8221 87.1421 11.2495C87.3474 11.4549 87.5053 11.7027 87.6047 11.9755C87.7042 12.2484 87.7427 12.5397 87.7177 12.829C87.7206 14.5237 86.1886 15.127 84.7529 15.127ZM77.9382 15.0635C77.4234 15.0844 76.9098 14.9977 76.4304 14.8088C75.951 14.6199 75.5163 14.3331 75.154 13.9667C74.7917 13.6002 74.5099 13.1622 74.3266 12.6807C74.1432 12.1991 74.0624 11.6846 74.0892 11.17C74.0892 10.1492 74.4947 9.17015 75.2166 8.44831C75.9384 7.72647 76.9174 7.32095 77.9382 7.32095C78.9591 7.32095 79.9381 7.72647 80.6599 8.44831C81.3818 9.17015 81.7873 10.1492 81.7873 11.17C81.8141 11.6844 81.7333 12.1987 81.5501 12.6801C81.3669 13.1615 81.0852 13.5994 80.7232 13.9658C80.3612 14.3322 79.9267 14.6191 79.4476 14.8081C78.9684 14.9971 78.4551 15.0841 77.9404 15.0635H77.9382ZM77.9382 9.12729C76.7411 9.12729 76.1086 9.83348 76.1086 11.17C76.0833 11.4266 76.1116 11.6857 76.1917 11.9308C76.2719 12.1759 76.4021 12.4016 76.5742 12.5937C76.7462 12.7858 76.9563 12.94 77.1912 13.0466C77.426 13.1531 77.6804 13.2097 77.9382 13.2127C79.1354 13.2127 79.7679 12.5065 79.7679 11.17C79.7701 9.87142 79.1033 9.12729 77.9404 9.12729H77.9382ZM61.6615 15.0635C61.1467 15.0843 60.6332 14.9975 60.1539 14.8086C59.6746 14.6197 59.2399 14.3328 58.8777 13.9664C58.5156 13.5999 58.2338 13.162 58.0505 12.6805C57.8672 12.199 57.7864 11.6845 57.8132 11.17C57.8061 10.6601 57.9005 10.1539 58.0908 9.68084C58.281 9.20774 58.5634 8.77716 58.9215 8.41412C59.2796 8.05108 59.7062 7.7628 60.1767 7.56604C60.6471 7.36928 61.1519 7.26796 61.6619 7.26796C62.1718 7.26796 62.6766 7.36928 63.1471 7.56604C63.6175 7.7628 64.0441 8.05108 64.4022 8.41412C64.7603 8.77716 65.0427 9.20774 65.2329 9.68084C65.4232 10.1539 65.5176 10.6601 65.5105 11.17C65.5374 11.6846 65.4565 12.1991 65.2731 12.6807C65.0898 13.1622 64.808 13.6002 64.4457 13.9667C64.0835 14.3331 63.6487 14.6199 63.1693 14.8088C62.6899 14.9977 62.1763 15.0844 61.6615 15.0635ZM61.6615 9.12729C60.465 9.12729 59.8325 9.83348 59.8325 11.17C59.8072 11.4266 59.8356 11.6856 59.9157 11.9306C59.9958 12.1757 60.126 12.4014 60.2979 12.5934C60.4699 12.7855 60.6799 12.9397 60.9146 13.0464C61.1494 13.153 61.4037 13.2096 61.6615 13.2127C62.8587 13.2127 63.4912 12.5065 63.4912 11.17C63.511 10.9145 63.4789 10.6576 63.3967 10.4148C63.3145 10.172 63.184 9.94846 63.013 9.75755C62.842 9.56664 62.634 9.41237 62.4018 9.30404C62.1695 9.19572 61.9177 9.13559 61.6615 9.12729ZM45.7619 15.0635C45.2471 15.0844 44.7335 14.9977 44.2541 14.8088C43.7747 14.6199 43.3399 14.3331 42.9777 13.9667C42.6154 13.6002 42.3336 13.1622 42.1503 12.6807C41.9669 12.1991 41.8861 11.6846 41.9129 11.17C41.8861 10.6554 41.9669 10.1408 42.1503 9.65924C42.3336 9.17765 42.6154 8.7396 42.9776 8.3731C43.3399 8.0066 43.7746 7.7197 44.254 7.53074C44.7335 7.34179 45.247 7.25493 45.7619 7.27572C46.2768 7.25493 46.7904 7.34179 47.2698 7.53074C47.7492 7.7197 48.1839 8.0066 48.5462 8.3731C48.9084 8.7396 49.1902 9.17765 49.3736 9.65924C49.5569 10.1408 49.6378 10.6554 49.611 11.17C49.6378 11.6846 49.5569 12.1991 49.3736 12.6807C49.1902 13.1622 48.9084 13.6002 48.5462 13.9667C48.1839 14.3331 47.7492 14.6199 47.2697 14.8088C46.7903 14.9977 46.2768 15.0844 45.7619 15.0635ZM45.7619 9.12729C44.5647 9.12729 43.9322 9.83348 43.9322 11.17C43.9069 11.4266 43.9353 11.6857 44.0154 11.9308C44.0956 12.1759 44.2258 12.4016 44.3979 12.5937C44.5699 12.7858 44.78 12.94 45.0148 13.0466C45.2497 13.1531 45.5041 13.2097 45.7619 13.2127C46.9591 13.2127 47.5916 12.5065 47.5916 11.17C47.5916 9.87142 46.9248 9.12729 45.7619 9.12729ZM52.3241 14.8731H50.5572V7.97827C51.6317 7.50754 52.7932 7.26817 53.9663 7.27572C54.7962 7.19922 55.6256 7.42628 56.3008 7.91479C56.6021 8.22436 56.8317 8.59632 56.9734 9.00439C57.1151 9.41245 57.1654 9.84666 57.1208 10.2763V14.8724H55.1022V10.2763C55.1022 9.55699 54.5835 9.12729 53.7161 9.12729C53.2394 9.08178 52.7594 9.16994 52.33 9.3819V14.8724L52.3241 14.8731ZM39.3894 14.8731H37.37V10.277C37.3314 9.84177 37.3915 9.4034 37.5457 8.99455C37.6999 8.58569 37.9443 8.21687 38.2608 7.91552C38.9165 7.4441 39.7169 7.21792 40.5224 7.27645C40.7554 7.28577 40.9864 7.3235 41.2103 7.3888C41.5205 7.4774 41.8406 7.52642 42.1631 7.5347V9.3819C41.73 9.18134 41.2531 9.09375 40.777 9.12729C39.7644 9.12729 39.3908 9.4388 39.3908 10.2763V14.8724L39.3894 14.8731ZM34.4708 14.8731V10.277C34.4708 9.55772 33.9521 9.12802 33.0847 9.12802C32.608 9.08243 32.128 9.1706 31.6986 9.38263V14.8731H29.6727V4.08398H31.9437V7.53106C32.1809 7.51937 32.4165 7.48467 32.647 7.42746H32.666C33.0286 7.3422 33.3989 7.29333 33.7712 7.28156C34.1519 7.28314 34.5281 7.36412 34.8757 7.51932C35.2234 7.67453 35.5348 7.90055 35.7901 8.18294C36.0455 8.46533 36.2391 8.79787 36.3586 9.15933C36.4782 9.52079 36.521 9.90321 36.4844 10.2821V14.8782L34.4708 14.8731Z" fill="#3C3C3B"/>
<defs>
<linearGradient id="paint0_linear_297_12203" x1="0.394307" y1="10.5197" x2="17.3518" y2="10.5197" gradientUnits="userSpaceOnUse">
<stop stop-color="#006CAF"/>
<stop offset="0.332" stop-color="#0081C5"/>
<stop offset="0.733" stop-color="#0095DA"/>
<stop offset="1" stop-color="#009CE1"/>
</linearGradient>
</defs>
</svg>
