<svg width="43" height="27" viewBox="0 0 43 27" fill="none" xmlns="http://www.w3.org/2000/svg">
<rect x="1.09961" y="0.5" width="41" height="26" rx="3.5" fill="white" stroke="#9B9B9B"/>
<path d="M21.1968 13.3939V17.2289H19.96V7.74463H23.1768C23.9599 7.74463 24.7018 8.03273 25.2799 8.56898C25.8574 9.06334 26.1462 9.80584 26.1462 10.5896C26.1462 11.3733 25.8581 12.0739 25.2799 12.6102C24.7024 13.1464 24.0018 13.4345 23.1768 13.4345L21.1968 13.3939ZM21.1968 8.89898V12.1983H23.2593C23.7131 12.1983 24.1668 12.0327 24.4556 11.704C25.1156 11.0859 25.1156 10.0546 24.4962 9.43588L24.4556 9.39398C24.1256 9.06398 23.7131 8.85773 23.2593 8.89963H21.1968V8.89898Z" fill="#9B9B9B"/>
<path d="M28.9914 10.5496C29.8989 10.5496 30.5995 10.7964 31.1358 11.2921C31.672 11.7864 31.9189 12.4464 31.9189 13.2714V17.2308H30.7645V16.3233H30.7239C30.2296 17.0658 29.5277 17.437 28.7033 17.437C28.0027 17.437 27.3833 17.2308 26.889 16.8189C26.4352 16.4064 26.1465 15.8289 26.1465 15.2108C26.1465 14.5508 26.394 14.0158 26.889 13.6027C27.3833 13.1902 28.0839 13.0252 28.9096 13.0252C29.6521 13.0252 30.2296 13.149 30.6827 13.4377V13.1496C30.6827 12.7371 30.5183 12.3252 30.1883 12.0771C29.8583 11.789 29.4458 11.6233 28.9921 11.6233C28.2915 11.6233 27.7552 11.9115 27.384 12.4896L26.3115 11.8296C26.9708 10.9614 27.8371 10.5496 28.9914 10.5496ZM27.4246 15.2501C27.4246 15.5801 27.5889 15.8682 27.8371 16.0332C28.1252 16.2395 28.4552 16.3632 28.7852 16.3632C29.2796 16.3632 29.7752 16.157 30.1458 15.7864C30.5583 15.4145 30.7639 14.962 30.7639 14.4664C30.3933 14.1783 29.8564 14.0126 29.1558 14.0126C28.6614 14.0126 28.2483 14.1364 27.9189 14.3832C27.5889 14.5901 27.4246 14.8789 27.4246 15.2501Z" fill="#9B9B9B"/>
<path d="M38.5993 10.7549L34.5175 20.1148H33.2794L34.8056 16.8573L32.125 10.7955H33.445L35.3825 15.4548H35.4237L37.3206 10.7955H38.5993V10.7549Z" fill="#9B9B9B"/>
<path d="M16.2915 12.5696C16.2915 12.1977 16.2496 11.8271 16.209 11.4558H11.0547V13.5589H13.9821C13.8584 14.2189 13.4878 14.837 12.9096 15.2083V16.5689H14.6828C15.7134 15.6208 16.2915 14.2183 16.2915 12.5696Z" fill="#9B9B9B"/>
<path d="M11.0531 17.8885C12.5374 17.8885 13.7743 17.3942 14.6824 16.5685L12.9093 15.2079C12.415 15.5379 11.7956 15.7442 11.0544 15.7442C9.65185 15.7442 8.415 14.7961 8.00314 13.4761H6.1875V14.8786C7.13561 16.7342 8.99185 17.8885 11.0531 17.8885Z" fill="#C8C8C8"/>
<path d="M8.00178 13.477C7.75428 12.817 7.75428 12.0745 8.00178 11.3739V9.97144H6.18742C5.40367 11.4977 5.40367 13.312 6.18742 14.8789L8.00178 13.477Z" fill="#9B9B9B"/>
<path d="M11.0528 9.14666C11.8366 9.14666 12.5791 9.43477 13.1559 9.97102L14.7234 8.40416C13.7334 7.49731 12.4141 6.96106 11.0941 7.00166C9.03158 7.00166 7.13602 8.15602 6.22852 10.0123L8.04287 11.4135C8.41412 10.0954 9.65098 9.14666 11.0528 9.14666Z" fill="#C8C8C8"/>
</svg>
