<svg width="30" height="35" viewBox="0 0 30 35" fill="none" xmlns="http://www.w3.org/2000/svg">
<path d="M14.8306 34.6268C15.125 34.4779 22.7798 31.1274 25.2088 29.1171C27.7113 27.0324 29.0362 24.0542 29.0362 20.4804V3.72808L28.8154 3.65363C22.7062 0.303165 15.125 0.526529 14.757 0.526529C14.4626 0.526529 6.88135 0.303165 0.772208 3.65363L0.625 3.72808V20.5548C0.625 24.1287 1.94987 27.1069 4.45241 29.1916C6.88134 31.2019 14.5362 34.5523 14.8306 34.6268Z" fill="#341B14"/>
<path d="M14.8281 35C14.8281 35 6.73168 31.4262 4.22914 29.4159C1.57939 27.1823 0.328125 24.1296 0.328125 20.6302V3.20785C6.73168 -0.291517 14.8281 0.00630094 14.8281 0.00630094C14.8281 0.00630094 22.9246 -0.291517 29.3281 3.20785V20.5558C29.3281 24.0552 28.0769 27.1078 25.4271 29.3414C22.9246 31.4262 14.8281 35 14.8281 35ZM1.50579 20.6302C1.50579 23.9063 2.68345 26.5866 4.96518 28.448C7.02609 30.1604 13.1352 32.9153 14.8281 33.6598C16.521 32.9153 22.7038 30.086 24.6911 28.448C26.9728 26.5866 28.1505 23.8318 28.1505 20.6302V3.50567C19.6124 2.68667 9.45503 3.1334 1.50579 10.5789V20.6302Z" fill="#FFB406"/>
<path d="M22.9989 18.1739C24.103 18.844 24.5446 19.2907 24.6182 20.1097C24.6182 21.0032 24.0294 21.5243 23.0725 21.5243C22.2629 21.5243 21.306 21.0776 20.6436 20.482V22.8645C21.4532 23.3113 22.4101 23.6835 23.4405 23.6835C25.9431 23.6835 27.1208 21.8966 27.1208 20.2586C27.1944 18.7695 26.7527 17.5782 24.6182 16.3125C23.6614 15.7169 22.9253 15.3446 22.9253 14.4511C22.9253 13.5577 23.735 13.1854 24.3974 13.1854C25.2807 13.1854 26.1639 13.7066 26.6791 14.2278V11.9941C26.2375 11.6219 25.2807 11.1007 23.8822 11.1751C22.1893 11.2496 20.4228 12.4409 20.4228 14.5256C20.4964 15.9402 20.938 16.9826 22.9989 18.1739ZM14.3136 23.5346C14.5345 23.6091 14.9025 23.6835 15.4913 23.6835C18.3619 23.6835 19.9812 21.0776 19.9812 17.3549C19.9812 13.5577 18.2883 11.2496 15.2705 11.2496C13.872 11.2496 12.768 11.5474 11.8111 12.1431V28.9698H14.3136V23.5346ZM14.3136 13.4088C14.5345 13.3343 14.9025 13.1854 15.1969 13.1854C16.669 13.1854 17.2578 14.3767 17.2578 17.2804C17.2578 20.1097 16.5218 21.4499 15.0497 21.4499C14.6817 21.4499 14.3873 21.3754 14.24 21.301V13.4088H14.3136ZM6.58522 23.6835C8.13091 23.6835 9.45578 23.3113 10.4126 22.6412V11.3985H7.83649V21.1521C7.54207 21.3754 7.17406 21.4499 6.65883 21.4499C5.48116 21.4499 5.33395 20.3331 5.33395 19.663V11.3985H2.75781V19.5141C2.75781 22.2689 4.08268 23.6835 6.58522 23.6835Z" fill="#FFB406"/>
</svg>
