<svg width="74" height="23" viewBox="0 0 74 23" fill="none" xmlns="http://www.w3.org/2000/svg">
<path d="M73.9997 0V16.421H0V0H73.9997Z" fill="#FFCC00"/>
<path d="M13.0127 2.94922L10.6484 6.17906H23.5338C24.1851 6.17906 24.1765 6.42791 23.8581 6.86156C23.5348 7.30178 22.9938 8.06737 22.6644 8.51454C22.4974 8.74148 22.1952 9.15492 23.1965 9.15492H28.4657C28.4657 9.15492 29.3151 7.99282 30.0269 7.02116C30.9955 5.69959 30.1109 2.94935 26.6484 2.94935L13.0127 2.94922Z" fill="#D2002E"/>
<path d="M9.69274 13.4716L14.4415 6.9835H20.3343C20.9856 6.9835 20.9771 7.23235 20.6588 7.666C20.3355 8.10622 19.7855 8.86367 19.4562 9.31085C19.289 9.53778 18.987 9.95188 19.9881 9.95188H27.8827C27.2262 10.8563 25.0965 13.4715 21.2724 13.4715L9.69274 13.4716ZM36.8889 9.95109L34.3137 13.4714H27.5208C27.5208 13.4714 30.0945 9.95188 30.0967 9.95188L36.8889 9.95109ZM47.2953 9.15492H30.6803L35.2239 2.94922H42.0148L39.4105 6.50758H42.4418L45.0471 2.94922H51.8373L47.2953 9.15492ZM46.7121 9.95201L44.1358 13.4716H37.3453C37.3453 13.4716 39.9191 9.95201 39.9213 9.95201H46.7121ZM0 11.3399H10.0073L9.46066 12.0876H0V11.3399ZM0 9.95201H11.024L10.4763 10.6987H0V9.95201ZM0 12.7285H8.99115L8.44711 13.4716H0V12.7285ZM74 12.0876H64.0312L64.5784 11.34H74V12.0876ZM74 13.4716L63.0178 13.4727L63.5618 12.7285H74V13.4716ZM65.5938 9.95201H74V10.6991L65.0471 10.6997L65.5938 9.95201ZM61.242 2.94922L56.6992 9.15479H49.5033C49.5033 9.15479 54.0473 2.94922 54.0496 2.94922H61.242ZM48.9211 9.95201C48.9211 9.95201 48.4247 10.6341 48.1837 10.962C47.3307 12.1212 48.0848 13.4716 50.8683 13.4716H61.7743L64.3504 9.95201H48.9211Z" fill="#D2002E"/>
<path d="M0 19.0898H74V19.4618H0V19.0898ZM0 20.8256H74V21.1976H0V20.8256ZM0 22.5611H74V22.933H0V22.5611Z" fill="#FFCC00"/>
<path d="M24.8516 22.9345H27.0786L27.4341 22.45H25.7767L26.7061 21.1837H28.2154L28.571 20.6991H27.0617L27.8858 19.5761H29.5433L29.8988 19.0915H27.6719L24.8516 22.9345ZM27.5847 22.9345H28.2681L30.5977 21.3048L30.5748 22.9345H31.2925L31.2978 20.925L33.9817 19.0915H33.3325L31.196 20.5671L31.2194 19.0915H30.5359L30.5152 20.936L27.5847 22.9345ZM34.8439 19.5761H35.328C35.6812 19.5761 36.0758 19.7523 35.7202 20.2367C35.3485 20.7431 34.779 20.9138 34.4258 20.9138H33.8619L34.8439 19.5761ZM31.8096 22.9345H32.3791L33.5063 21.3984H34.0645C34.7821 21.3984 35.6935 21.0956 36.3197 20.2421C36.9622 19.3666 36.4864 19.0913 35.6721 19.0913H34.6298L31.8096 22.9345ZM35.0894 22.9345H35.659L36.9116 21.2277H37.2531C37.5549 21.2277 37.7431 21.2277 37.645 21.602L37.2766 22.9345H37.926L38.2975 21.4038C38.3459 21.1672 38.3213 21.0846 38.1929 21.0183L38.201 21.0073C38.7191 20.9301 39.3202 20.5999 39.6637 20.1318C40.3384 19.2126 39.6699 19.0913 38.8837 19.0913H37.9098L35.0894 22.9345ZM38.1238 19.5761H38.6704C39.1946 19.5761 39.3062 19.7964 39.0518 20.143C38.7811 20.5121 38.2924 20.7431 37.7512 20.7431H37.2671L38.1238 19.5761ZM38.5157 22.9345H40.7428L41.0981 22.45H39.4409L40.3701 21.1837H41.8796L42.2349 20.6991H40.7257L41.5499 19.5761H43.2073L43.563 19.0915H41.3361L38.5157 22.9345ZM46.3063 19.1631C46.1016 19.0695 45.8205 19.0254 45.5585 19.0254C44.8409 19.0254 44.0161 19.389 43.515 20.0716C42.6382 21.2664 44.5207 21.0296 43.8902 21.8885C43.5589 22.3398 42.9739 22.5162 42.6494 22.5162C42.3587 22.5162 42.0979 22.4059 41.9609 22.3287L41.5283 22.8409C41.7297 22.9234 41.9467 23.0006 42.2257 23.0006C43.023 23.0006 43.9165 22.6754 44.5184 21.855C45.4477 20.589 43.6136 20.7594 44.1552 20.0219C44.4503 19.62 44.907 19.5098 45.2259 19.5098C45.5222 19.5098 45.645 19.5596 45.8547 19.6696L46.3063 19.1631ZM49.1541 19.1631C48.9495 19.0695 48.6685 19.0254 48.4064 19.0254C47.6887 19.0254 46.8639 19.389 46.3628 20.0716C45.4861 21.2664 47.3685 21.0296 46.7381 21.8885C46.4069 22.3398 45.8218 22.5162 45.4973 22.5162C45.2066 22.5162 44.9457 22.4059 44.8089 22.3287L44.3762 22.8409C44.5776 22.9234 44.7945 23.0006 45.0735 23.0006C45.8709 23.0006 46.7642 22.6754 47.3662 21.855C48.2955 20.589 46.4616 20.7594 47.003 20.0219C47.298 19.62 47.7549 19.5098 48.0738 19.5098C48.3701 19.5098 48.4932 19.5596 48.7025 19.6696L49.1541 19.1631Z" fill="#D2002E"/>
</svg>
