<svg width="30" height="30" viewBox="0 0 30 30" fill="none" xmlns="http://www.w3.org/2000/svg">
<path d="M11.2382 3.00008C11.2456 2.9993 11.2511 3.00399 11.2546 3.01415C11.2577 3.02391 11.2646 3.02879 11.2751 3.02879C14.4279 3.02958 17.5808 3.02958 20.7339 3.02879C21.1327 3.0284 21.4009 3.05672 21.5384 3.11376C21.9105 3.26786 22.081 3.59129 22.1056 3.99266C22.1853 5.31629 23.0191 6.42079 24.3363 6.71434C24.914 6.84266 25.5515 6.68504 25.814 7.39403C25.862 7.52372 25.8865 7.77372 25.8872 8.14403C25.8904 9.71043 25.889 11.2768 25.8831 12.8432C25.865 17.8114 23.6671 22.2153 19.5978 25.097C18.8704 25.6118 18.1333 26.1352 17.3865 26.6673C17.2814 26.7337 17.1732 26.8075 17.0618 26.8888C15.788 27.8163 14.1755 27.8854 12.8941 26.9233C12.0286 26.2741 11.1363 25.6524 10.2527 25.0272C6.36615 22.2763 4.02298 17.8061 4.00775 13.0747C3.99876 10.311 3.99759 8.54969 4.00423 7.79071C4.00814 7.31024 4.21205 6.99559 4.61595 6.84676C4.70541 6.81395 4.87611 6.78817 5.12806 6.76942C6.49681 6.66805 7.64876 5.66258 7.79408 4.26629C7.82689 3.9495 7.85267 3.76278 7.87142 3.70614C8.0349 3.21395 8.42337 3.02587 8.92845 3.02762C9.94642 3.03153 10.707 3.03172 11.2101 3.02821C11.2265 3.02821 11.2359 3.01883 11.2382 3.00008ZM9.18392 6.05809C8.73333 6.84149 8.23294 7.44794 7.46478 7.93836C7.45697 7.94344 7.4515 7.9495 7.44837 7.95653C7.44525 7.96473 7.44388 7.97274 7.44427 7.98055C7.43958 7.97743 7.43529 7.97489 7.43138 7.97293C7.42318 7.96903 7.41517 7.96942 7.40736 7.97411C6.94603 8.2534 6.45111 8.44715 5.92259 8.55536C5.89291 8.56161 5.87806 8.57958 5.87806 8.60926C5.87767 9.91551 5.87767 11.2284 5.87806 12.5479C5.87806 13.0612 5.88666 13.4516 5.90384 13.7192C6.15052 17.5806 8.03138 21.1167 11.2025 23.3972C12.1259 24.0612 13.0501 24.7241 13.9751 25.3858C14.4099 25.6968 14.8765 25.7962 15.3749 25.6841C15.5257 25.6427 15.6576 25.5829 15.7704 25.5048C16.263 25.1657 17.1095 24.5706 18.3099 23.7194C18.7345 23.4186 19.0482 23.186 19.2509 23.0216C21.9773 20.8126 23.6736 17.5841 23.963 14.0878C23.9865 13.8042 24.0003 13.414 24.0046 12.9171C24.0167 11.4745 24.0183 10.0327 24.0093 8.59168C24.0093 8.58402 24.0066 8.57658 24.0017 8.5706C23.9968 8.56463 23.99 8.56049 23.9824 8.55887C22.1419 8.14872 20.7292 6.78817 20.3361 4.93426C20.3318 4.91434 20.3195 4.90438 20.2992 4.90438L10.5333 4.90555L9.61458 4.9079C9.59349 4.90829 9.5806 4.91864 9.57591 4.93895C9.48841 5.312 9.35775 5.68504 9.18392 6.05809Z" fill="#232323"/>
<path d="M12.0068 13.4543C12.5974 14.0398 13.1783 14.633 13.7494 15.2338C13.7574 15.2424 13.7685 15.2476 13.7802 15.2484C13.792 15.2491 13.8036 15.2454 13.8127 15.2379C15.5986 13.7879 17.3883 12.3363 19.1816 10.8832C19.4183 10.691 19.5959 10.5416 19.9093 10.5398C20.3316 10.5375 20.6244 10.7158 20.7877 11.0748C20.9564 11.4463 20.8785 11.9156 20.5603 12.174C18.7357 13.6564 16.9105 15.1379 15.0847 16.6183C14.7496 16.8902 14.4922 17.0611 14.3125 17.131C13.6785 17.3789 13.0644 17.1937 12.5916 16.7162C11.9244 16.0424 11.2613 15.3646 10.6023 14.683C10.498 14.5752 10.4179 14.4636 10.3621 14.3484C10.0006 13.6066 10.7898 12.7992 11.514 13.0857C11.648 13.1385 11.8123 13.2613 12.0068 13.4543Z" fill="#232323"/>
</svg>
