<svg width="30" height="30" viewBox="0 0 30 30" fill="none" xmlns="http://www.w3.org/2000/svg">
<path fill-rule="evenodd" clip-rule="evenodd" d="M25.8702 21.6516C26.2769 21.6112 26.6523 21.4752 26.9965 21.2435C27.4544 20.9101 27.7565 20.4881 27.9028 19.9772C27.9682 19.7501 28.0009 19.3568 28.0009 18.7972C28.0009 18.0868 28.0003 17.3762 27.999 16.6653C27.9978 16.1266 27.9738 15.7393 27.9271 15.5034C27.7666 14.6931 27.4316 14.2454 26.8638 13.4868C26.8391 13.4538 26.814 13.4202 26.7884 13.3859C26.0729 12.4292 25.3554 11.474 24.6358 10.5203C24.06 9.75734 23.3252 9.27921 22.4314 9.08587C22.1639 9.02795 21.7492 8.99941 21.1871 9.00025C20.3596 9.00108 19.5289 9.00087 18.6952 8.99962C18.6727 8.99962 18.6618 8.98837 18.6627 8.96587C18.7364 7.10023 17.5795 5.43396 15.7301 5.07271C15.4822 5.02438 15.0668 5.00021 14.4839 5.00021C11.6626 4.99979 8.84132 5 6.02004 5.00083C5.50879 5.00125 5.12524 5.02958 4.86941 5.08583C3.46877 5.39584 2.38063 6.52147 2.08688 7.89774C2.02855 8.17065 1.99959 8.58483 2 9.14025C2 12.4274 2.00021 15.7145 2.00063 19.0016C2.00063 19.4041 2.02355 19.701 2.06938 19.8922C2.34938 21.0704 3.47064 21.7491 4.63753 21.6479C4.64566 21.6471 4.65386 21.648 4.66166 21.6504C4.66946 21.6529 4.6767 21.6568 4.68298 21.6621C4.68925 21.6674 4.69443 21.6739 4.69822 21.6812C4.702 21.6885 4.70432 21.6965 4.70503 21.7047C4.99003 24.9104 8.46319 26.6454 11.2163 25.0454C11.3243 24.9825 11.5068 24.8537 11.7638 24.6591C12.6693 23.8571 13.1805 22.8677 13.2976 21.691C13.2997 21.6697 13.3116 21.6591 13.3332 21.6591L14.9808 21.6604L16.667 21.6597C16.6757 21.6597 16.6841 21.6629 16.6905 21.6686C16.697 21.6744 16.7011 21.6824 16.702 21.691C17.0601 25.1454 20.9983 26.9154 23.7646 24.6573C24.6683 23.8602 25.1798 22.8735 25.299 21.6972C25.3015 21.6731 25.3146 21.6604 25.3384 21.6591C25.4237 21.6537 25.5172 21.655 25.6072 21.6562C25.7037 21.6575 25.7962 21.6587 25.8702 21.6516ZM23.8127 18.0241L23.8121 18.0035C23.7992 17.998 23.7858 17.9935 23.7721 17.9897C23.7579 17.9851 23.7456 17.9789 23.7352 17.971C22.2308 16.7866 20.3446 16.6897 18.7114 17.6647C18.6852 17.6805 18.672 17.673 18.672 17.6422V11.0315C18.672 11.0107 18.6827 11.0003 18.7039 11.0003C19.566 10.9994 20.4271 10.9992 21.2871 10.9996C22.2102 10.9996 22.5977 11.134 23.1265 11.8353C24.2498 13.3253 25.1011 14.4607 25.6802 15.2416C25.9409 15.5934 25.9965 15.9284 25.9996 16.4028C26.0042 17.2387 26.0019 18.0847 25.9927 18.941C26.0102 19.0964 26.0088 19.242 25.9884 19.3778C25.9395 19.7095 25.4807 19.6814 25.1719 19.6625C25.1175 19.6591 25.0678 19.6561 25.0258 19.6553C25.0025 19.6545 24.9863 19.6435 24.9771 19.6222C24.7117 19.0114 24.3279 18.4883 23.8258 18.0528C23.8219 18.0493 23.8187 18.0449 23.8164 18.0399C23.8142 18.035 23.8129 18.0296 23.8127 18.0241ZM9.26757 19.0122C11.9901 19.4116 12.0045 23.2404 9.27132 23.6491C8.2534 23.6937 7.50589 23.3295 7.0288 22.5566C5.99254 20.8772 7.32443 18.8285 9.26757 19.0122ZM21.2671 19.0091C23.9902 19.4203 24.0052 23.2398 21.2714 23.6491C20.2802 23.6925 19.5452 23.3479 19.0664 22.6154C17.9458 20.901 19.2927 18.8797 21.2671 19.0091ZM12.9745 19.6185C12.7124 19.013 12.3303 18.4918 11.8282 18.0547C11.7887 18.0198 11.7609 17.9931 11.752 17.9841C9.65008 16.3122 6.70317 16.8284 5.28941 19.101C5.22474 19.2047 5.16008 19.3365 5.09583 19.4674C5.06755 19.525 5.03936 19.5824 5.01128 19.6372C5.00128 19.6572 4.98503 19.6666 4.96253 19.6653C4.89721 19.6618 4.82003 19.6651 4.73824 19.6685C4.4069 19.6827 4.00002 19.7001 4.00002 19.276C4.00044 15.8384 4.00023 12.4007 3.9994 8.96275C3.99898 8.61941 4.02711 8.35649 4.08377 8.17399C4.35065 7.31085 5.03878 6.99648 5.89379 6.99773C8.82799 7.00189 11.7622 7.00189 14.6964 6.99773C15.0372 6.99689 15.2993 7.0246 15.4826 7.08085C16.0472 7.25252 16.4141 7.6169 16.5833 8.17399C16.6429 8.37066 16.6726 8.67483 16.6726 9.0865C16.6722 12.5986 16.672 16.1109 16.672 19.6235C16.672 19.6456 16.661 19.6566 16.6389 19.6566L14.5507 19.6572H13.0326C13.0202 19.6572 13.008 19.6535 12.9977 19.6466C12.9874 19.6397 12.9793 19.6299 12.9745 19.6185Z" fill="#232323"/>
</svg>
