<svg width="43" height="28" viewBox="0 0 43 28" fill="none" xmlns="http://www.w3.org/2000/svg">
<rect x="0.699951" y="1.0708" width="41" height="26" rx="6.5" fill="white" stroke="#F3D869"/>
<path d="M17.1338 17.4199V8.68457H20.4102C21.0822 8.68457 21.6455 8.80954 22.1019 9.05949C22.5583 9.30943 22.9042 9.65355 23.1379 10.09C23.3715 10.5265 23.4893 11.0228 23.4893 11.577C23.4893 12.1313 23.3715 12.6348 23.1361 13.0694C22.9006 13.5041 22.5511 13.8464 22.091 14.0946C21.631 14.3427 21.0623 14.4677 20.3885 14.4677H18.2169V13.1672H20.1748C20.5678 13.1672 20.8884 13.0984 21.1383 12.9626C21.3883 12.8267 21.5748 12.6384 21.6944 12.3993C21.8157 12.1602 21.8755 11.8867 21.8755 11.5752C21.8755 11.2637 21.8157 10.992 21.6944 10.7566C21.573 10.5211 21.3865 10.3364 21.1347 10.2042C20.883 10.0719 20.5588 10.0067 20.1639 10.0067H18.7132V17.4217H17.1302L17.1338 17.4199Z" fill="#F3D869"/>
<path d="M26.5663 17.5525C26.1515 17.5525 25.7784 17.4782 25.447 17.3279C25.1155 17.1794 24.8547 16.9584 24.6627 16.665C24.4707 16.3716 24.3748 16.0112 24.3748 15.5819C24.3748 15.2124 24.4436 14.9063 24.5794 14.6654C24.7153 14.4246 24.9018 14.2308 25.1391 14.0859C25.3745 13.941 25.6408 13.8305 25.9396 13.7544C26.2367 13.6783 26.5446 13.624 26.8633 13.5896C27.2473 13.5498 27.5588 13.5135 27.7979 13.4809C28.037 13.4483 28.2108 13.3976 28.3213 13.327C28.4318 13.2563 28.4861 13.1477 28.4861 13.001V12.9756C28.4861 12.655 28.3901 12.4051 28.2 12.2294C28.0098 12.0537 27.7345 11.965 27.3759 11.965C26.9973 11.965 26.6985 12.0483 26.4775 12.2131C26.2566 12.3779 26.1081 12.5735 26.032 12.7981L24.5903 12.5934C24.7044 12.195 24.8909 11.8617 25.1536 11.5937C25.4144 11.3256 25.735 11.1228 26.1135 10.9887C26.492 10.8529 26.9104 10.7859 27.3668 10.7859C27.682 10.7859 27.9971 10.8221 28.3105 10.8964C28.6238 10.9706 28.91 11.092 29.1671 11.2604C29.4261 11.4289 29.6344 11.6589 29.792 11.9487C29.9496 12.2385 30.0293 12.6007 30.0293 13.0372V17.4221H28.5441V16.5219H28.4934C28.3992 16.703 28.2688 16.8733 28.0985 17.0308C27.9301 17.1884 27.7182 17.3152 27.4628 17.4112C27.2074 17.5072 26.9104 17.5543 26.5699 17.5543L26.5663 17.5525ZM26.9666 16.4187C27.2763 16.4187 27.5461 16.3571 27.7725 16.2339C28.0007 16.1108 28.1764 15.9459 28.2996 15.7413C28.4227 15.5366 28.4843 15.3138 28.4843 15.0711V14.2996C28.4354 14.3394 28.3539 14.3757 28.2398 14.4101C28.1257 14.4445 27.9953 14.4735 27.854 14.5006C27.711 14.526 27.5715 14.5495 27.432 14.5694C27.2926 14.5894 27.1712 14.6075 27.0698 14.6202C26.8398 14.651 26.6333 14.7035 26.4504 14.7741C26.2674 14.8447 26.1244 14.9444 26.0193 15.0711C25.9143 15.1979 25.8617 15.3609 25.8617 15.5602C25.8617 15.8445 25.965 16.0601 26.1733 16.2049C26.3815 16.3498 26.646 16.4223 26.9666 16.4223V16.4187Z" fill="#F3D869"/>
<path d="M32.3042 19.8777C32.0941 19.8777 31.9003 19.8614 31.7228 19.8288C31.5453 19.7962 31.4041 19.7582 31.299 19.7165L31.6576 18.5139C31.8822 18.5791 32.0833 18.6099 32.2589 18.6081C32.4346 18.6045 32.5904 18.5501 32.7262 18.4433C32.8621 18.3364 32.9762 18.1589 33.0703 17.9126L33.2026 17.5594L30.8263 10.8707H32.4636L33.9741 15.8189H34.043L35.5571 10.8707H37.1998L34.5754 18.2169C34.4523 18.5646 34.2911 18.8617 34.0882 19.1098C33.8854 19.3579 33.6391 19.5499 33.3475 19.6821C33.0559 19.8143 32.7081 19.8796 32.3042 19.8796V19.8777Z" fill="#F3D869"/>
<path d="M10.0449 17.8873C7.59071 17.8873 5.80851 16.2391 5.80851 13.9697C5.80851 13.1511 6.05845 11.9466 7.2484 10.8599L7.27194 10.8382L8.53072 12.1404C8.51623 12.1549 8.4963 12.173 8.47095 12.1966C7.90586 12.7127 7.61969 13.3086 7.61969 13.9697C7.61969 15.2303 8.59411 16.0761 10.0449 16.0761C11.9267 16.0761 13.1438 14.763 13.1438 12.729C13.1438 11.1062 11.8651 9.38198 9.49608 9.38198C7.74104 9.38198 6.53479 10.6263 6.52393 10.6389L5.19995 9.4001C5.26878 9.32584 6.93325 7.5708 9.49427 7.5708C12.912 7.5708 14.9532 10.1934 14.9532 12.729C14.9532 15.7664 12.9337 17.8873 10.0431 17.8873H10.0449Z" fill="#F3D869"/>
</svg>
