<svg width="30" height="30" viewBox="0 0 30 30" fill="none" xmlns="http://www.w3.org/2000/svg">
<path d="M14.9678 3.00001C21.6134 2.99285 26.9928 8.35958 27 15.0072C27.0071 21.6547 21.6206 26.9928 14.8963 27C8.40805 27.0071 3.00716 21.5832 3.00001 15.0716C2.99285 8.39535 8.33652 3.00716 14.9678 3.00001ZM14.1309 21.0036C13.8662 21.0036 13.6301 21.0036 13.3869 21.0036C12.8146 21.0036 12.4283 21.347 12.4283 21.8551C12.4283 22.3631 12.8146 22.7138 13.3797 22.7138C14.4599 22.7138 15.5401 22.7138 16.6203 22.7138C17.1854 22.7138 17.5717 22.356 17.5717 21.8479C17.5645 21.3542 17.1782 21.0036 16.6346 21.0036C16.377 21.0036 16.1267 21.0036 15.862 21.0036C15.862 20.8533 15.862 20.7531 15.862 20.6458C15.862 17.6762 15.862 14.6995 15.862 11.7299C15.862 11.0429 15.5329 10.7209 14.839 10.7209C14.3383 10.7209 13.8376 10.7209 13.3368 10.7209C12.8146 10.7281 12.4283 11.0859 12.4283 11.5725C12.4283 12.059 12.8075 12.4311 13.3297 12.4383C13.5943 12.4454 13.859 12.4383 14.1309 12.4383C14.1309 15.2934 14.1309 18.127 14.1309 21.0036ZM15.8548 8.14491C15.8548 7.67979 15.4757 7.29339 15.0036 7.28623C14.5386 7.27908 14.1452 7.66548 14.1452 8.1306C14.138 8.61002 14.5314 9.00358 15.0107 8.99643C15.4757 8.99643 15.8548 8.61002 15.8548 8.14491Z" fill="url(#paint0_linear_50_723)"/>
<defs>
<linearGradient id="paint0_linear_50_723" x1="3" y1="17.1678" x2="26.963" y2="18.1093" gradientUnits="userSpaceOnUse">
<stop stop-color="#EB4747"/>
<stop offset="1" stop-color="#FF8B8B"/>
</linearGradient>
</defs>
</svg>
