<svg width="42" height="43" viewBox="0 0 42 43" fill="none" xmlns="http://www.w3.org/2000/svg">
<circle cx="21" cy="21.9375" r="20" fill="white" stroke="url(#paint0_linear_50_5614)" stroke-width="2"/>
<path d="M13.7809 22.0976C14.1957 22.3621 14.5864 22.6145 14.9891 22.861C15.1454 22.9572 15.2235 23.0774 15.2235 23.2637C15.2175 23.7266 15.2235 24.1954 15.2235 24.6582C15.2235 25.5539 15.6082 26.2451 16.4077 26.6479C17.2011 27.0506 17.9765 26.9544 18.6979 26.4375C18.7219 26.4194 18.7459 26.4014 18.77 26.3834C18.776 26.3774 18.782 26.3834 18.794 26.3834C18.8301 26.6238 18.8481 26.8703 18.9082 27.0987C19.1787 28.1145 20.1886 28.7998 21.2104 28.6735C22.2984 28.5413 23.1159 27.6637 23.1399 26.5878C23.152 25.8364 23.1459 25.085 23.1459 24.3397C23.1459 23.979 23.2421 23.8768 23.5968 23.8227C24.8831 23.6304 26.1454 23.3479 27.2875 22.6867C27.594 22.5063 27.8765 22.2839 28.1891 22.0615C28.1891 22.1457 28.1891 22.2238 28.1891 22.302C28.1891 24.8386 28.1771 25.1692 28.1951 27.7058C28.2011 28.385 27.9246 28.8839 27.4077 29.2867C26.7285 29.8096 25.941 30.0981 25.1235 30.3085C23.2301 30.7954 21.3066 30.9096 19.3651 30.7353C18.0908 30.6211 16.8405 30.3987 15.6503 29.9058C15.1394 29.6954 14.6645 29.4309 14.2738 29.0342C13.9432 28.6976 13.7749 28.3009 13.7809 27.82C13.7869 25.2413 13.7869 24.8626 13.7869 22.2779C13.7809 22.2118 13.7809 22.1457 13.7809 22.0976Z" fill="url(#paint1_linear_50_5614)"/>
<path d="M17.6399 17.7998C18.1148 18.8517 18.8602 19.5249 19.9 19.8796C19.9 20.0659 19.894 20.2463 19.9 20.4206C19.9181 21.0157 20.399 21.4845 20.988 21.4785C21.5711 21.4725 22.0399 21.0096 22.058 20.4206C22.064 20.2402 22.058 20.0599 22.058 19.8976C22.3104 19.7774 22.5509 19.6752 22.7793 19.549C23.4164 19.1883 23.8973 18.6714 24.2099 18.0102C24.282 17.8599 24.3481 17.8419 24.4984 17.8719C25.4541 18.0883 26.3919 18.3468 27.2093 18.9118C27.4558 19.0861 27.6902 19.2965 27.8766 19.537C28.2973 20.0779 28.2793 20.7151 27.8766 21.2681C27.5219 21.749 27.029 22.0435 26.5 22.29C25.5503 22.7288 24.5465 22.9572 23.5186 23.1014C22.7733 23.2096 22.4186 23.6004 22.4186 24.3457C22.4186 25.049 22.4186 25.7583 22.4186 26.4616C22.4126 27.3151 21.7995 27.9583 20.988 27.9643C20.1645 27.9703 19.5454 27.3211 19.5394 26.4555C19.5394 25.7883 19.5394 25.1211 19.5394 24.4539C19.5394 24.1714 19.4011 24.0031 19.1787 24.0091C18.9563 24.0091 18.8301 24.1774 18.8181 24.4599C18.8061 24.6883 18.8121 24.9288 18.752 25.1512C18.5656 25.8184 17.8864 26.2512 17.2132 26.161C16.5039 26.0708 15.9629 25.4878 15.9449 24.7725C15.9328 24.2856 15.9388 23.7987 15.9449 23.3118C15.9509 22.7949 15.7225 22.4402 15.2656 22.1878C14.923 21.9954 14.5804 21.779 14.2979 21.5085C13.5946 20.8353 13.6066 19.9758 14.2979 19.2845C14.7066 18.8697 15.2055 18.5932 15.7465 18.4009C16.3596 18.1785 16.9908 18.0042 17.6399 17.7998Z" fill="url(#paint2_linear_50_5614)"/>
<path d="M22.0279 19.1044C22.07 18.9601 22.082 18.8339 22.1421 18.7377C22.4126 18.329 22.4908 17.9022 22.3405 17.4333C22.1121 16.724 21.7094 16.1109 21.2706 15.5219C21.1203 15.3235 20.8498 15.3115 20.7055 15.5098C20.2307 16.147 19.7859 16.8022 19.5815 17.5896C19.4793 17.9923 19.5815 18.359 19.7919 18.7016C19.858 18.8098 19.888 18.9361 19.9361 19.0563C19.9181 19.0683 19.9001 19.0863 19.876 19.0984C19.7979 19.0623 19.7197 19.0322 19.6416 18.9902C18.1148 18.1907 17.6159 16.2251 18.5897 14.8005C18.8361 14.4399 19.1247 14.1153 19.3951 13.7787C19.8339 13.2377 20.0022 12.6186 19.9001 11.9273C19.876 11.759 19.882 11.5967 20.0323 11.4765C20.1886 11.3623 20.3389 11.3984 20.4951 11.4825C22.04 12.306 23.2121 13.4481 23.6809 15.1852C23.8793 15.9246 23.9394 16.676 23.6689 17.4213C23.4044 18.1907 22.7613 18.8639 22.0279 19.1044Z" fill="url(#paint3_linear_50_5614)"/>
<path d="M21.3429 19.6873C21.3429 19.9217 21.3489 20.1501 21.3429 20.3846C21.3368 20.613 21.1866 20.7632 20.9882 20.7693C20.7838 20.7693 20.6336 20.619 20.6276 20.3906C20.6215 19.9277 20.6215 19.4589 20.6276 18.996C20.6276 18.7676 20.7778 18.6173 20.9822 18.6113C21.1866 18.6113 21.3368 18.7616 21.3429 18.99C21.3429 19.2184 21.3429 19.4529 21.3429 19.6873Z" fill="url(#paint4_linear_50_5614)"/>
<defs>
<linearGradient id="paint0_linear_50_5614" x1="2.71107e-09" y1="25.7314" x2="42.0036" y2="25.6902" gradientUnits="userSpaceOnUse">
<stop stop-color="#EB4747"/>
<stop offset="1" stop-color="#FF8B8B"/>
</linearGradient>
<linearGradient id="paint1_linear_50_5614" x1="13.5" y1="26.446" x2="28.1905" y2="28.5784" gradientUnits="userSpaceOnUse">
<stop stop-color="#EB4747"/>
<stop offset="1" stop-color="#FF8B8B"/>
</linearGradient>
<linearGradient id="paint2_linear_50_5614" x1="13.5" y1="22.8927" x2="28.2695" y2="24.7378" gradientUnits="userSpaceOnUse">
<stop stop-color="#EB4747"/>
<stop offset="1" stop-color="#FF8B8B"/>
</linearGradient>
<linearGradient id="paint3_linear_50_5614" x1="13.5" y1="15.2624" x2="28.4351" y2="16.2472" gradientUnits="userSpaceOnUse">
<stop stop-color="#EB4747"/>
<stop offset="1" stop-color="#FF8B8B"/>
</linearGradient>
<linearGradient id="paint4_linear_50_5614" x1="13.5002" y1="19.6926" x2="28.4872" y2="20.1348" gradientUnits="userSpaceOnUse">
<stop stop-color="#EB4747"/>
<stop offset="1" stop-color="#FF8B8B"/>
</linearGradient>
</defs>
</svg>
