<svg width="71" height="23" viewBox="0 0 71 23" fill="none" xmlns="http://www.w3.org/2000/svg">
<path d="M70.9997 0.297852V15.9663H0V0.297852H70.9997Z" fill="#FFCC00"/>
<path d="M12.4861 3.11133L10.2177 6.19314H22.5806C23.2055 6.19314 23.1973 6.43059 22.8918 6.84437C22.5816 7.26441 22.0625 7.99491 21.7465 8.42159C21.5862 8.63812 21.2963 9.03262 22.257 9.03262H27.3126C27.3126 9.03262 28.1275 7.92378 28.8105 6.99665C29.7398 5.73565 28.8911 3.11145 25.569 3.11145L12.4861 3.11133Z" fill="#D2002E"/>
<path d="M9.29979 13.1515L13.856 6.96071H19.5099C20.1348 6.96071 20.1267 7.19816 19.8212 7.61194C19.511 8.03198 18.9834 8.75472 18.6674 9.1814C18.507 9.39793 18.2172 9.79305 19.1778 9.79305H26.7523C26.1224 10.6561 24.079 13.1514 20.41 13.1514L9.29979 13.1515ZM35.3934 9.7923L32.9226 13.1513H26.405C26.405 13.1513 28.8744 9.79305 28.8766 9.79305L35.3934 9.7923ZM45.3779 9.03262H29.4365L33.7958 3.11133H40.3115L37.8128 6.50661H40.7212L43.2209 3.11133H49.7358L45.3779 9.03262ZM44.8184 9.79318L42.3465 13.1515H35.8313C35.8313 13.1515 38.3007 9.79318 38.3028 9.79318H44.8184ZM0 11.1174H9.6016L9.07712 11.8309H0V11.1174ZM0 9.79318H10.5771L10.0516 10.5056H0V9.79318ZM0 12.4424H8.62664L8.10466 13.1515H0V12.4424ZM71 11.8309H61.4353L61.9603 11.1175H71V11.8309ZM71 13.1515L60.463 13.1525L60.985 12.4424H71V13.1515ZM62.9345 9.79318H71V10.506L62.41 10.5066L62.9345 9.79318ZM58.7592 3.11133L54.4006 9.03249H47.4964C47.4964 9.03249 51.8562 3.11133 51.8584 3.11133H58.7592ZM46.9378 9.79318C46.9378 9.79318 46.4615 10.444 46.2303 10.7569C45.4119 11.863 46.1354 13.1515 48.806 13.1515H59.2699L61.7415 9.79318H46.9378Z" fill="#D2002E"/>
<path d="M0 18.5137H71V18.8686H0V18.5137ZM0 20.1699H71V20.5248H0V20.1699ZM0 21.8258H71V22.1807H0V21.8258Z" fill="#FFCC00"/>
<path d="M23.8413 22.1806H25.9781L26.3191 21.7183H24.729L25.6207 20.5101H27.0688L27.4099 20.0477H25.9618L26.7525 18.9762H28.3428L28.6839 18.5138H26.5473L23.8413 22.1806ZM26.4636 22.1806H27.1194L29.3545 20.6257L29.3325 22.1806H30.0211L30.0262 20.2632L32.6013 18.5138H31.9784L29.9285 19.9217L29.951 18.5138H29.2952L29.2753 20.2737L26.4636 22.1806ZM33.4285 18.9762H33.893C34.2319 18.9762 34.6105 19.1442 34.2693 19.6065C33.9127 20.0896 33.3663 20.2526 33.0274 20.2526H32.4864L33.4285 18.9762ZM30.5173 22.1806H31.0637L32.1452 20.715H32.6807C33.3693 20.715 34.2437 20.426 34.8446 19.6116C35.461 18.7763 35.0045 18.5136 34.2231 18.5136H33.2231L30.5173 22.1806ZM33.6641 22.1806H34.2106L35.4124 20.552H35.7401C36.0297 20.552 36.2103 20.552 36.1161 20.9092L35.7627 22.1806H36.3857L36.7421 20.7201C36.7886 20.4943 36.7649 20.4155 36.6418 20.3523L36.6496 20.3417C37.1466 20.2681 37.7234 19.953 38.053 19.5064C38.7003 18.6293 38.0589 18.5136 37.3046 18.5136H36.3702L33.6641 22.1806ZM36.5754 18.9762H37.0999C37.6029 18.9762 37.71 19.1863 37.4659 19.5171C37.2061 19.8692 36.7372 20.0896 36.218 20.0896H35.7535L36.5754 18.9762ZM36.9515 22.1806H39.0883L39.4292 21.7183H37.8392L38.7308 20.5101H40.179L40.5199 20.0477H39.0719L39.8626 18.9762H41.4529L41.7942 18.5138H39.6575L36.9515 22.1806ZM44.4262 18.5821C44.2299 18.4928 43.9601 18.4507 43.7088 18.4507C43.0202 18.4507 42.2289 18.7976 41.7481 19.4489C40.9069 20.589 42.713 20.363 42.1081 21.1826C41.7903 21.6131 41.229 21.7815 40.9176 21.7815C40.6387 21.7815 40.3885 21.6763 40.257 21.6026L39.842 22.0913C40.0352 22.1701 40.2434 22.2437 40.5111 22.2437C41.2761 22.2437 42.1333 21.9334 42.7109 21.1506C43.6024 19.9426 41.8428 20.1052 42.3624 19.4015C42.6455 19.018 43.0837 18.9129 43.3897 18.9129C43.674 18.9129 43.7918 18.9604 43.9929 19.0653L44.4262 18.5821ZM47.1587 18.5821C46.9623 18.4928 46.6926 18.4507 46.4412 18.4507C45.7526 18.4507 44.9613 18.7976 44.4805 19.4489C43.6393 20.589 45.4454 20.363 44.8405 21.1826C44.5228 21.6131 43.9614 21.7815 43.65 21.7815C43.3711 21.7815 43.1208 21.6763 42.9895 21.6026L42.5744 22.0913C42.7676 22.1701 42.9758 22.2437 43.2434 22.2437C44.0085 22.2437 44.8656 21.9334 45.4432 21.1506C46.3348 19.9426 44.5753 20.1052 45.0948 19.4015C45.3778 19.018 45.8161 18.9129 46.1221 18.9129C46.4064 18.9129 46.5245 18.9604 46.7253 19.0653L47.1587 18.5821Z" fill="#D2002E"/>
</svg>
