<svg width="64" height="17" viewBox="0 0 64 17" fill="none" xmlns="http://www.w3.org/2000/svg">
<path fill-rule="evenodd" clip-rule="evenodd" d="M24.3836 13.7841C24.1852 13.6948 23.949 13.6448 23.7446 13.6448C23.0587 13.6448 22.5984 14.2308 22.5984 14.9198C22.5984 15.262 22.7816 15.5966 23.2873 15.5966C23.4508 15.5966 23.5886 15.5693 23.7219 15.53L23.9006 14.5821H24.3033L24.0717 15.8207C23.8052 15.9221 23.4857 15.9736 23.2146 15.9736C22.4878 15.9736 22.1562 15.5527 22.1562 14.9697C22.1562 13.9901 22.8528 13.2754 23.79 13.2754C24.0414 13.2754 24.2882 13.3102 24.5062 13.3799L24.3836 13.7841Z" fill="#044896"/>
<path fill-rule="evenodd" clip-rule="evenodd" d="M25.0499 15.1106C25.0423 15.1606 25.0347 15.2469 25.0347 15.3044C25.0347 15.5694 25.1301 15.6391 25.4148 15.6391C25.5935 15.6391 25.7888 15.5967 25.9554 15.5255V15.8526C25.7615 15.9267 25.5299 15.9737 25.2816 15.9737C24.8258 15.9737 24.6274 15.7678 24.6274 15.3317C24.6274 14.558 25.0696 13.9629 25.6783 13.9629C26.1113 13.9629 26.2597 14.1885 26.2597 14.4187C26.2597 14.8532 25.8297 15.0834 25.0499 15.1106ZM25.6328 14.2748C25.3588 14.2748 25.1756 14.5262 25.0999 14.8229C25.6177 14.8032 25.8615 14.6942 25.8615 14.4732C25.8615 14.3445 25.7737 14.2748 25.6328 14.2748Z" fill="#044896"/>
<path fill-rule="evenodd" clip-rule="evenodd" d="M27.9999 15.9344H27.6002L27.8334 14.7095C27.8863 14.4339 27.8364 14.3173 27.688 14.3173C27.3836 14.3173 27.0112 15.0093 26.9264 15.4756L26.8431 15.9344H26.4434L26.6341 14.923C26.6947 14.6004 26.7553 14.2628 26.7977 14.0024H27.1929C27.1702 14.1235 27.1217 14.3294 26.9991 14.6898L27.0066 14.6943C27.1853 14.3128 27.4669 13.96 27.8485 13.96C28.2058 13.96 28.3194 14.2204 28.2482 14.6126L27.9999 15.9344Z" fill="#044896"/>
<path fill-rule="evenodd" clip-rule="evenodd" d="M29.0123 15.1106C29.0047 15.1606 28.9972 15.2469 28.9972 15.3044C28.9972 15.5694 29.0925 15.6391 29.3772 15.6391C29.5559 15.6391 29.7512 15.5967 29.9178 15.5255V15.8526C29.7239 15.9267 29.4923 15.9737 29.244 15.9737C28.7882 15.9737 28.5898 15.7678 28.5898 15.3317C28.5898 14.558 29.032 13.9629 29.6407 13.9629C30.0737 13.9629 30.2221 14.1885 30.2221 14.4187C30.2221 14.8532 29.7921 15.0834 29.0123 15.1106ZM29.5952 14.2748C29.3212 14.2748 29.138 14.5262 29.0623 14.8229C29.5801 14.8032 29.8224 14.6942 29.8224 14.4732C29.8224 14.3445 29.7361 14.2748 29.5952 14.2748Z" fill="#044896"/>
<path fill-rule="evenodd" clip-rule="evenodd" d="M31.7422 14.3642C31.4258 14.2703 31.0715 14.9153 30.9609 15.5058L30.8807 15.9343H30.481L30.6717 14.9229C30.7217 14.6519 30.7868 14.29 30.8353 14.0023H31.2244C31.1972 14.1613 31.1472 14.3521 31.0442 14.6549L31.0518 14.6594C31.2623 14.2158 31.4788 13.9054 31.8255 13.9629L31.7422 14.3642Z" fill="#044896"/>
<path fill-rule="evenodd" clip-rule="evenodd" d="M33.3748 15.934H32.9781C33.0129 15.775 33.078 15.5449 33.181 15.2269L33.1719 15.2224C33.028 15.5146 32.754 15.9764 32.3285 15.9764C32.0499 15.9764 31.897 15.7902 31.897 15.3783C31.897 14.6591 32.2664 13.9717 33.0962 13.9717C33.3172 13.9717 33.5307 13.9898 33.7246 14.0292C33.5383 15.0119 33.455 15.4555 33.3748 15.934ZM33.028 14.2942C32.5223 14.2942 32.3088 14.8575 32.3088 15.3041C32.3088 15.5252 32.3739 15.6191 32.4799 15.6191C32.7994 15.6191 33.1613 14.9074 33.2461 14.4683L33.2718 14.329C33.2037 14.3093 33.1234 14.2942 33.028 14.2942Z" fill="#044896"/>
<path fill-rule="evenodd" clip-rule="evenodd" d="M34.3485 15.9339H33.9487L34.4408 13.2705H34.8406L34.3485 15.9339Z" fill="#044896"/>
<path fill-rule="evenodd" clip-rule="evenodd" d="M37.1814 15.9341H35.9141L36.4107 13.2646H36.818L36.3895 15.5646H37.2526L37.1814 15.9341Z" fill="#044896"/>
<path fill-rule="evenodd" clip-rule="evenodd" d="M38.2626 15.9737C37.7629 15.9737 37.5464 15.7208 37.5464 15.2817C37.5464 14.4913 38.0491 13.9629 38.6608 13.9629C39.1786 13.9629 39.3846 14.2551 39.3846 14.667C39.3846 15.4604 38.841 15.9737 38.2626 15.9737ZM38.6002 14.3172C38.2126 14.3172 37.9643 14.7714 37.9643 15.2151C37.9643 15.468 38.0642 15.6148 38.3186 15.6148C38.6775 15.6148 38.9621 15.2196 38.9621 14.7139C38.9621 14.4565 38.8516 14.3172 38.6002 14.3172Z" fill="#044896"/>
<mask id="mask0_50_4123" style="mask-type:luminance" maskUnits="userSpaceOnUse" x="39" y="13" width="3" height="4">
<path d="M39.2739 13.5869H41.5997V16.9165H39.2739V13.5869Z" fill="white"/>
</mask>
<g mask="url(#mask0_50_4123)">
<path fill-rule="evenodd" clip-rule="evenodd" d="M41.1198 16.0854C41.029 16.579 40.7246 16.9167 39.9948 16.9167C39.7813 16.9167 39.6087 16.8864 39.4648 16.8395L39.5602 16.4473C39.7086 16.5215 39.8979 16.5594 40.0705 16.5594C40.4475 16.5594 40.6671 16.4125 40.7428 16.0158C40.7928 15.7508 40.8382 15.6039 40.9563 15.2375H40.9487C40.8124 15.5146 40.5384 15.9764 40.1114 15.9764C39.8343 15.9764 39.6814 15.7902 39.6814 15.3783C39.6814 14.6591 40.0554 13.9717 40.8806 13.9717C41.1016 13.9717 41.3151 13.9898 41.5089 14.0292L41.1198 16.0854ZM40.8124 14.2942C40.3052 14.2942 40.0932 14.8575 40.0932 15.3041C40.0932 15.5252 40.1568 15.6191 40.2643 15.6191C40.5838 15.6191 40.9457 14.9074 41.029 14.4683L41.0562 14.329C40.9881 14.3093 40.9078 14.2942 40.8124 14.2942Z" fill="#044896"/>
</g>
<path fill-rule="evenodd" clip-rule="evenodd" d="M42.1253 15.934H41.7256L42.0875 14.0019H42.4872L42.1253 15.934ZM42.3721 13.7142C42.2283 13.7142 42.1253 13.5976 42.1299 13.4659C42.1329 13.3099 42.2631 13.1934 42.407 13.1934C42.5478 13.1934 42.6507 13.3069 42.6462 13.4387C42.6432 13.5976 42.5145 13.7142 42.3721 13.7142Z" fill="#044896"/>
<path fill-rule="evenodd" clip-rule="evenodd" d="M43.945 14.3202C43.8602 14.2899 43.7663 14.2778 43.6739 14.2778C43.4498 14.2778 43.3363 14.3793 43.3363 14.5262C43.3363 14.8032 43.8723 14.9002 43.8723 15.3271C43.8723 15.6512 43.5952 15.9737 43.035 15.9737C42.9093 15.9737 42.8063 15.9616 42.7109 15.9419L42.7806 15.5845C42.8745 15.6148 42.9774 15.6345 43.0804 15.6345C43.306 15.6345 43.4529 15.5452 43.4529 15.3711C43.4529 15.0864 42.9199 15.0319 42.9199 14.5701C42.9199 14.2309 43.1834 13.9629 43.6967 13.9629C43.8223 13.9629 43.9253 13.975 44.0207 13.9947L43.945 14.3202Z" fill="#044896"/>
<path fill-rule="evenodd" clip-rule="evenodd" d="M45.5618 14.3244H45.0788L44.9031 15.2723C44.8547 15.5418 44.8925 15.6145 45.0636 15.6145C45.1666 15.6145 45.2423 15.6039 45.315 15.5872L45.2847 15.9264C45.1666 15.9537 45.0258 15.9688 44.9152 15.9688C44.5185 15.9688 44.408 15.778 44.4958 15.3268L44.682 14.3244H44.3247L44.3898 14.0019H44.7426L44.8577 13.3872L45.2726 13.2979L45.1393 14.0019H45.6269L45.5618 14.3244Z" fill="#044896"/>
<path fill-rule="evenodd" clip-rule="evenodd" d="M46.1707 15.934H45.771L46.1329 14.0019H46.5341L46.1707 15.934ZM46.4191 13.7142C46.2737 13.7142 46.1707 13.5976 46.1753 13.4659C46.1798 13.3099 46.3085 13.1934 46.4539 13.1934C46.5932 13.1934 46.6961 13.3069 46.6931 13.4387C46.6886 13.5976 46.5599 13.7142 46.4191 13.7142Z" fill="#044896"/>
<path fill-rule="evenodd" clip-rule="evenodd" d="M48.231 14.3842C48.1386 14.3403 48.0326 14.313 47.9069 14.313C47.4648 14.313 47.2634 14.8187 47.2634 15.223C47.2634 15.4214 47.3316 15.6046 47.6283 15.6046C47.7661 15.6046 47.91 15.5728 48.0235 15.5183L47.9932 15.8847C47.86 15.9301 47.6934 15.9695 47.5148 15.9695C47.0151 15.9695 46.8364 15.7015 46.8364 15.3169C46.8364 14.578 47.2513 13.9678 47.9327 13.9678C48.0811 13.9678 48.2037 13.9875 48.3248 14.0223L48.231 14.3842Z" fill="#044896"/>
<path fill-rule="evenodd" clip-rule="evenodd" d="M49.6203 14.3202C49.537 14.2899 49.4416 14.2778 49.3492 14.2778C49.1251 14.2778 49.0116 14.3793 49.0116 14.5262C49.0116 14.8032 49.5476 14.9002 49.5476 15.3271C49.5476 15.6512 49.269 15.9737 48.7103 15.9737C48.5846 15.9737 48.4816 15.9616 48.3862 15.9419L48.4559 15.5845C48.5513 15.6148 48.6527 15.6345 48.7557 15.6345C48.9798 15.6345 49.1297 15.5452 49.1297 15.3711C49.1297 15.0864 48.5967 15.0319 48.5967 14.5701C48.5967 14.2309 48.8586 13.9629 49.3735 13.9629C49.4991 13.9629 49.6006 13.975 49.696 13.9947L49.6203 14.3202Z" fill="#044896"/>
<path fill-rule="evenodd" clip-rule="evenodd" d="M52.4164 13.6824C52.2922 13.64 52.1575 13.6203 52.059 13.6203C51.6987 13.6203 51.5457 13.8186 51.5457 14.014C51.5457 14.4531 52.3104 14.4637 52.3104 15.0905C52.3104 15.5872 51.8804 15.9733 51.2717 15.9733C51.1233 15.9733 50.9552 15.9612 50.8311 15.9218L50.9068 15.5221C51.0173 15.569 51.1687 15.6038 51.302 15.6038C51.6684 15.6038 51.8682 15.4282 51.8682 15.1602C51.8682 14.7407 51.1112 14.7362 51.1112 14.1109C51.1112 13.6551 51.4458 13.2705 52.0863 13.2705C52.2226 13.2705 52.3452 13.2796 52.4891 13.3068L52.4164 13.6824Z" fill="#044896"/>
<mask id="mask1_50_4123" style="mask-type:luminance" maskUnits="userSpaceOnUse" x="52" y="13" width="3" height="4">
<path d="M52.0659 13.5869H54.7793V16.9165H52.0659V13.5869Z" fill="white"/>
</mask>
<g mask="url(#mask1_50_4123)">
<path fill-rule="evenodd" clip-rule="evenodd" d="M53.0603 16.5585C52.8241 16.7962 52.5849 16.9128 52.3517 16.9128C52.2563 16.9128 52.1549 16.9006 52.0776 16.881L52.1473 16.5161C52.22 16.5433 52.2987 16.5554 52.379 16.5554C52.5077 16.5554 52.653 16.4843 52.7711 16.3601C52.9044 16.2208 52.9649 16.0573 52.9649 15.7968C52.9649 15.2684 52.8514 14.6309 52.6833 14.001H53.1285C53.2466 14.4674 53.3344 15.0458 53.3344 15.4592C53.3344 15.5167 53.3223 15.5955 53.3117 15.6606H53.3147C53.5933 15.1518 53.8371 14.6188 54.1142 13.9238L54.4988 14.0328C53.9779 15.2714 53.5237 16.0891 53.0603 16.5585Z" fill="#044896"/>
</g>
<path fill-rule="evenodd" clip-rule="evenodd" d="M55.675 14.3202C55.5917 14.2899 55.4963 14.2778 55.4039 14.2778C55.1798 14.2778 55.0663 14.3793 55.0663 14.5262C55.0663 14.8032 55.6023 14.9002 55.6023 15.3271C55.6023 15.6512 55.3252 15.9737 54.7649 15.9737C54.6393 15.9737 54.5363 15.9616 54.4409 15.9419L54.5106 15.5845C54.606 15.6148 54.7089 15.6345 54.8119 15.6345C55.036 15.6345 55.1844 15.5452 55.1844 15.3711C55.1844 15.0864 54.6514 15.0319 54.6514 14.5701C54.6514 14.2309 54.9133 13.9629 55.4281 13.9629C55.5523 13.9629 55.6553 13.975 55.7507 13.9947L55.675 14.3202Z" fill="#044896"/>
<path fill-rule="evenodd" clip-rule="evenodd" d="M57.2922 14.3244H56.8092L56.6336 15.2723C56.5851 15.5418 56.623 15.6145 56.7941 15.6145C56.897 15.6145 56.9728 15.6039 57.0454 15.5872L57.0151 15.9264C56.897 15.9537 56.7562 15.9688 56.6457 15.9688C56.249 15.9688 56.14 15.778 56.2263 15.3268L56.414 14.3244H56.0552L56.1203 14.0019H56.4746L56.5882 13.3872L57.003 13.2979L56.8698 14.0019H57.3573L57.2922 14.3244Z" fill="#044896"/>
<path fill-rule="evenodd" clip-rule="evenodd" d="M57.9356 15.1106C57.9281 15.1606 57.9205 15.2469 57.9205 15.3044C57.9205 15.5694 58.0159 15.6391 58.3021 15.6391C58.4807 15.6391 58.6745 15.5967 58.8426 15.5255V15.8526C58.6488 15.9267 58.4156 15.9737 58.1673 15.9737C57.7115 15.9737 57.5132 15.7678 57.5132 15.3317C57.5132 14.558 57.9553 13.9629 58.564 13.9629C58.9986 13.9629 59.147 14.1885 59.147 14.4187C59.147 14.8532 58.7154 15.0834 57.9356 15.1106ZM58.5186 14.2748C58.2445 14.2748 58.0613 14.5262 57.9856 14.8229C58.5034 14.8032 58.7472 14.6942 58.7472 14.4732C58.7472 14.3445 58.6594 14.2748 58.5186 14.2748Z" fill="#044896"/>
<path fill-rule="evenodd" clip-rule="evenodd" d="M62.0091 15.9344H61.6094L61.8381 14.7095C61.891 14.4339 61.8411 14.3173 61.7048 14.3173C61.4535 14.3173 61.0613 14.9002 60.9553 15.4756L60.8675 15.9344H60.4723L60.6994 14.7095C60.7524 14.4339 60.707 14.3173 60.5662 14.3173C60.2815 14.3173 59.9045 14.9775 59.8136 15.4756L59.7288 15.9344H59.3291L59.5199 14.923C59.5805 14.6004 59.641 14.2673 59.6834 14.0024H60.0801C60.0559 14.1265 60.0044 14.337 59.8848 14.6898L59.8939 14.6943C60.068 14.3128 60.3451 13.96 60.7221 13.96C60.9583 13.96 61.1037 14.0947 61.1037 14.34C61.1037 14.4415 61.0764 14.5353 61.028 14.7019H61.0356C61.2097 14.3128 61.4883 13.96 61.8638 13.96C62.2105 13.96 62.3286 14.2204 62.256 14.6126L62.0091 15.9344Z" fill="#044896"/>
<mask id="mask2_50_4123" style="mask-type:luminance" maskUnits="userSpaceOnUse" x="62" y="13" width="2" height="4">
<path d="M62.5303 13.5869H63.8991V16.3003H62.5303V13.5869Z" fill="white"/>
</mask>
<g mask="url(#mask2_50_4123)">
<path fill-rule="evenodd" clip-rule="evenodd" d="M63.8233 14.3193C63.7401 14.289 63.6447 14.2769 63.5538 14.2769C63.3282 14.2769 63.2147 14.3783 63.2147 14.5252C63.2147 14.8023 63.7522 14.8992 63.7522 15.3262C63.7522 15.6502 63.4736 15.9727 62.9133 15.9727C62.7877 15.9727 62.6862 15.9606 62.5908 15.9409L62.659 15.5836C62.7543 15.6139 62.8573 15.6335 62.9603 15.6335C63.1844 15.6335 63.3328 15.5442 63.3328 15.3701C63.3328 15.0854 62.7998 15.0309 62.7998 14.5691C62.7998 14.2299 63.0617 13.9619 63.5765 13.9619C63.7022 13.9619 63.8037 13.974 63.899 13.9937L63.8233 14.3193Z" fill="#044896"/>
</g>
<path fill-rule="evenodd" clip-rule="evenodd" d="M24.3836 13.7841C24.1852 13.6948 23.949 13.6448 23.7446 13.6448C23.0587 13.6448 22.5984 14.2308 22.5984 14.9198C22.5984 15.262 22.7816 15.5966 23.2873 15.5966C23.4508 15.5966 23.5886 15.5693 23.7219 15.53L23.9006 14.5821H24.3033L24.0717 15.8207C23.8052 15.9221 23.4857 15.9736 23.2146 15.9736C22.4878 15.9736 22.1562 15.5527 22.1562 14.9697C22.1562 13.9901 22.8528 13.2754 23.79 13.2754C24.0414 13.2754 24.2882 13.3102 24.5062 13.3799L24.3836 13.7841Z" fill="#044896"/>
<path fill-rule="evenodd" clip-rule="evenodd" d="M25.0499 15.1106C25.0423 15.1606 25.0347 15.2469 25.0347 15.3044C25.0347 15.5694 25.1301 15.6391 25.4148 15.6391C25.5935 15.6391 25.7888 15.5967 25.9554 15.5255V15.8526C25.7615 15.9267 25.5299 15.9737 25.2816 15.9737C24.8258 15.9737 24.6274 15.7678 24.6274 15.3317C24.6274 14.558 25.0696 13.9629 25.6783 13.9629C26.1113 13.9629 26.2597 14.1885 26.2597 14.4187C26.2597 14.8532 25.8297 15.0834 25.0499 15.1106ZM25.6328 14.2748C25.3588 14.2748 25.1756 14.5262 25.0999 14.8229C25.6177 14.8032 25.8615 14.6942 25.8615 14.4732C25.8615 14.3445 25.7737 14.2748 25.6328 14.2748Z" fill="#044896"/>
<path fill-rule="evenodd" clip-rule="evenodd" d="M27.9999 15.9344H27.6002L27.8334 14.7095C27.8863 14.4339 27.8364 14.3173 27.688 14.3173C27.3836 14.3173 27.0112 15.0093 26.9264 15.4756L26.8431 15.9344H26.4434L26.6341 14.923C26.6947 14.6004 26.7553 14.2628 26.7977 14.0024H27.1929C27.1702 14.1235 27.1217 14.3294 26.9991 14.6898L27.0066 14.6943C27.1853 14.3128 27.4669 13.96 27.8485 13.96C28.2058 13.96 28.3194 14.2204 28.2482 14.6126L27.9999 15.9344Z" fill="#044896"/>
<path fill-rule="evenodd" clip-rule="evenodd" d="M29.0123 15.1106C29.0047 15.1606 28.9972 15.2469 28.9972 15.3044C28.9972 15.5694 29.0925 15.6391 29.3772 15.6391C29.5559 15.6391 29.7512 15.5967 29.9178 15.5255V15.8526C29.7239 15.9267 29.4923 15.9737 29.244 15.9737C28.7882 15.9737 28.5898 15.7678 28.5898 15.3317C28.5898 14.558 29.032 13.9629 29.6407 13.9629C30.0737 13.9629 30.2221 14.1885 30.2221 14.4187C30.2221 14.8532 29.7921 15.0834 29.0123 15.1106ZM29.5952 14.2748C29.3212 14.2748 29.138 14.5262 29.0623 14.8229C29.5801 14.8032 29.8224 14.6942 29.8224 14.4732C29.8224 14.3445 29.7361 14.2748 29.5952 14.2748Z" fill="#044896"/>
<path fill-rule="evenodd" clip-rule="evenodd" d="M31.7422 14.3642C31.4258 14.2703 31.0715 14.9153 30.9609 15.5058L30.8807 15.9343H30.481L30.6717 14.9229C30.7217 14.6519 30.7868 14.29 30.8353 14.0023H31.2244C31.1972 14.1613 31.1472 14.3521 31.0442 14.6549L31.0518 14.6594C31.2623 14.2158 31.4788 13.9054 31.8255 13.9629L31.7422 14.3642Z" fill="#044896"/>
<path fill-rule="evenodd" clip-rule="evenodd" d="M33.3748 15.934H32.9781C33.0129 15.775 33.078 15.5449 33.181 15.2269L33.1719 15.2224C33.028 15.5146 32.754 15.9764 32.3285 15.9764C32.0499 15.9764 31.897 15.7902 31.897 15.3783C31.897 14.6591 32.2664 13.9717 33.0962 13.9717C33.3172 13.9717 33.5307 13.9898 33.7246 14.0292C33.5383 15.0119 33.455 15.4555 33.3748 15.934ZM33.028 14.2942C32.5223 14.2942 32.3088 14.8575 32.3088 15.3041C32.3088 15.5252 32.3739 15.6191 32.4799 15.6191C32.7994 15.6191 33.1613 14.9074 33.2461 14.4683L33.2718 14.329C33.2037 14.3093 33.1234 14.2942 33.028 14.2942Z" fill="#044896"/>
<path fill-rule="evenodd" clip-rule="evenodd" d="M34.3485 15.9339H33.9487L34.4408 13.2705H34.8406L34.3485 15.9339Z" fill="#044896"/>
<path fill-rule="evenodd" clip-rule="evenodd" d="M37.1814 15.9341H35.9141L36.4107 13.2646H36.818L36.3895 15.5646H37.2526L37.1814 15.9341Z" fill="#044896"/>
<path fill-rule="evenodd" clip-rule="evenodd" d="M38.2626 15.9737C37.7629 15.9737 37.5464 15.7208 37.5464 15.2817C37.5464 14.4913 38.0491 13.9629 38.6608 13.9629C39.1786 13.9629 39.3846 14.2551 39.3846 14.667C39.3846 15.4604 38.841 15.9737 38.2626 15.9737ZM38.6002 14.3172C38.2126 14.3172 37.9643 14.7714 37.9643 15.2151C37.9643 15.468 38.0642 15.6148 38.3186 15.6148C38.6775 15.6148 38.9621 15.2196 38.9621 14.7139C38.9621 14.4565 38.8516 14.3172 38.6002 14.3172Z" fill="#044896"/>
<mask id="mask3_50_4123" style="mask-type:luminance" maskUnits="userSpaceOnUse" x="39" y="13" width="3" height="4">
<path d="M39.2739 13.5869H41.5997V16.9165H39.2739V13.5869Z" fill="white"/>
</mask>
<g mask="url(#mask3_50_4123)">
<path fill-rule="evenodd" clip-rule="evenodd" d="M41.1198 16.0854C41.029 16.579 40.7246 16.9167 39.9948 16.9167C39.7813 16.9167 39.6087 16.8864 39.4648 16.8395L39.5602 16.4473C39.7086 16.5215 39.8979 16.5594 40.0705 16.5594C40.4475 16.5594 40.6671 16.4125 40.7428 16.0158C40.7928 15.7508 40.8382 15.6039 40.9563 15.2375H40.9487C40.8124 15.5146 40.5384 15.9764 40.1114 15.9764C39.8343 15.9764 39.6814 15.7902 39.6814 15.3783C39.6814 14.6591 40.0554 13.9717 40.8806 13.9717C41.1016 13.9717 41.3151 13.9898 41.5089 14.0292L41.1198 16.0854ZM40.8124 14.2942C40.3052 14.2942 40.0932 14.8575 40.0932 15.3041C40.0932 15.5252 40.1568 15.6191 40.2643 15.6191C40.5838 15.6191 40.9457 14.9074 41.029 14.4683L41.0562 14.329C40.9881 14.3093 40.9078 14.2942 40.8124 14.2942Z" fill="#044896"/>
</g>
<path fill-rule="evenodd" clip-rule="evenodd" d="M42.1253 15.934H41.7256L42.0875 14.0019H42.4872L42.1253 15.934ZM42.3721 13.7142C42.2283 13.7142 42.1253 13.5976 42.1299 13.4659C42.1329 13.3099 42.2631 13.1934 42.407 13.1934C42.5478 13.1934 42.6507 13.3069 42.6462 13.4387C42.6432 13.5976 42.5145 13.7142 42.3721 13.7142Z" fill="#044896"/>
<path fill-rule="evenodd" clip-rule="evenodd" d="M43.945 14.3202C43.8602 14.2899 43.7663 14.2778 43.6739 14.2778C43.4498 14.2778 43.3363 14.3793 43.3363 14.5262C43.3363 14.8032 43.8723 14.9002 43.8723 15.3271C43.8723 15.6512 43.5952 15.9737 43.035 15.9737C42.9093 15.9737 42.8063 15.9616 42.7109 15.9419L42.7806 15.5845C42.8745 15.6148 42.9774 15.6345 43.0804 15.6345C43.306 15.6345 43.4529 15.5452 43.4529 15.3711C43.4529 15.0864 42.9199 15.0319 42.9199 14.5701C42.9199 14.2309 43.1834 13.9629 43.6967 13.9629C43.8223 13.9629 43.9253 13.975 44.0207 13.9947L43.945 14.3202Z" fill="#044896"/>
<path fill-rule="evenodd" clip-rule="evenodd" d="M45.5618 14.3244H45.0788L44.9031 15.2723C44.8547 15.5418 44.8925 15.6145 45.0636 15.6145C45.1666 15.6145 45.2423 15.6039 45.315 15.5872L45.2847 15.9264C45.1666 15.9537 45.0258 15.9688 44.9152 15.9688C44.5185 15.9688 44.408 15.778 44.4958 15.3268L44.682 14.3244H44.3247L44.3898 14.0019H44.7426L44.8577 13.3872L45.2726 13.2979L45.1393 14.0019H45.6269L45.5618 14.3244Z" fill="#044896"/>
<path fill-rule="evenodd" clip-rule="evenodd" d="M46.1707 15.934H45.771L46.1329 14.0019H46.5341L46.1707 15.934ZM46.4191 13.7142C46.2737 13.7142 46.1707 13.5976 46.1753 13.4659C46.1798 13.3099 46.3085 13.1934 46.4539 13.1934C46.5932 13.1934 46.6961 13.3069 46.6931 13.4387C46.6886 13.5976 46.5599 13.7142 46.4191 13.7142Z" fill="#044896"/>
<path fill-rule="evenodd" clip-rule="evenodd" d="M48.231 14.3842C48.1386 14.3403 48.0326 14.313 47.9069 14.313C47.4648 14.313 47.2634 14.8187 47.2634 15.223C47.2634 15.4214 47.3316 15.6046 47.6283 15.6046C47.7661 15.6046 47.91 15.5728 48.0235 15.5183L47.9932 15.8847C47.86 15.9301 47.6934 15.9695 47.5148 15.9695C47.0151 15.9695 46.8364 15.7015 46.8364 15.3169C46.8364 14.578 47.2513 13.9678 47.9327 13.9678C48.0811 13.9678 48.2037 13.9875 48.3248 14.0223L48.231 14.3842Z" fill="#044896"/>
<path fill-rule="evenodd" clip-rule="evenodd" d="M49.6203 14.3202C49.537 14.2899 49.4416 14.2778 49.3492 14.2778C49.1251 14.2778 49.0116 14.3793 49.0116 14.5262C49.0116 14.8032 49.5476 14.9002 49.5476 15.3271C49.5476 15.6512 49.269 15.9737 48.7103 15.9737C48.5846 15.9737 48.4816 15.9616 48.3862 15.9419L48.4559 15.5845C48.5513 15.6148 48.6527 15.6345 48.7557 15.6345C48.9798 15.6345 49.1297 15.5452 49.1297 15.3711C49.1297 15.0864 48.5967 15.0319 48.5967 14.5701C48.5967 14.2309 48.8586 13.9629 49.3735 13.9629C49.4991 13.9629 49.6006 13.975 49.696 13.9947L49.6203 14.3202Z" fill="#044896"/>
<path fill-rule="evenodd" clip-rule="evenodd" d="M52.4164 13.6824C52.2922 13.64 52.1575 13.6203 52.059 13.6203C51.6987 13.6203 51.5457 13.8186 51.5457 14.014C51.5457 14.4531 52.3104 14.4637 52.3104 15.0905C52.3104 15.5872 51.8804 15.9733 51.2717 15.9733C51.1233 15.9733 50.9552 15.9612 50.8311 15.9218L50.9068 15.5221C51.0173 15.569 51.1687 15.6038 51.302 15.6038C51.6684 15.6038 51.8682 15.4282 51.8682 15.1602C51.8682 14.7407 51.1112 14.7362 51.1112 14.1109C51.1112 13.6551 51.4458 13.2705 52.0863 13.2705C52.2226 13.2705 52.3452 13.2796 52.4891 13.3068L52.4164 13.6824Z" fill="#044896"/>
<mask id="mask4_50_4123" style="mask-type:luminance" maskUnits="userSpaceOnUse" x="52" y="13" width="3" height="4">
<path d="M52.0659 13.5869H54.7793V16.9165H52.0659V13.5869Z" fill="white"/>
</mask>
<g mask="url(#mask4_50_4123)">
<path fill-rule="evenodd" clip-rule="evenodd" d="M53.0603 16.5585C52.8241 16.7962 52.5849 16.9128 52.3517 16.9128C52.2563 16.9128 52.1549 16.9006 52.0776 16.881L52.1473 16.5161C52.22 16.5433 52.2987 16.5554 52.379 16.5554C52.5077 16.5554 52.653 16.4843 52.7711 16.3601C52.9044 16.2208 52.9649 16.0573 52.9649 15.7968C52.9649 15.2684 52.8514 14.6309 52.6833 14.001H53.1285C53.2466 14.4674 53.3344 15.0458 53.3344 15.4592C53.3344 15.5167 53.3223 15.5955 53.3117 15.6606H53.3147C53.5933 15.1518 53.8371 14.6188 54.1142 13.9238L54.4988 14.0328C53.9779 15.2714 53.5237 16.0891 53.0603 16.5585Z" fill="#044896"/>
</g>
<path fill-rule="evenodd" clip-rule="evenodd" d="M55.675 14.3202C55.5917 14.2899 55.4963 14.2778 55.4039 14.2778C55.1798 14.2778 55.0663 14.3793 55.0663 14.5262C55.0663 14.8032 55.6023 14.9002 55.6023 15.3271C55.6023 15.6512 55.3252 15.9737 54.7649 15.9737C54.6393 15.9737 54.5363 15.9616 54.4409 15.9419L54.5106 15.5845C54.606 15.6148 54.7089 15.6345 54.8119 15.6345C55.036 15.6345 55.1844 15.5452 55.1844 15.3711C55.1844 15.0864 54.6514 15.0319 54.6514 14.5701C54.6514 14.2309 54.9133 13.9629 55.4281 13.9629C55.5523 13.9629 55.6553 13.975 55.7507 13.9947L55.675 14.3202Z" fill="#044896"/>
<path fill-rule="evenodd" clip-rule="evenodd" d="M57.2922 14.3244H56.8092L56.6336 15.2723C56.5851 15.5418 56.623 15.6145 56.7941 15.6145C56.897 15.6145 56.9728 15.6039 57.0454 15.5872L57.0151 15.9264C56.897 15.9537 56.7562 15.9688 56.6457 15.9688C56.249 15.9688 56.14 15.778 56.2263 15.3268L56.414 14.3244H56.0552L56.1203 14.0019H56.4746L56.5882 13.3872L57.003 13.2979L56.8698 14.0019H57.3573L57.2922 14.3244Z" fill="#044896"/>
<path fill-rule="evenodd" clip-rule="evenodd" d="M57.9356 15.1106C57.9281 15.1606 57.9205 15.2469 57.9205 15.3044C57.9205 15.5694 58.0159 15.6391 58.3021 15.6391C58.4807 15.6391 58.6745 15.5967 58.8426 15.5255V15.8526C58.6488 15.9267 58.4156 15.9737 58.1673 15.9737C57.7115 15.9737 57.5132 15.7678 57.5132 15.3317C57.5132 14.558 57.9553 13.9629 58.564 13.9629C58.9986 13.9629 59.147 14.1885 59.147 14.4187C59.147 14.8532 58.7154 15.0834 57.9356 15.1106ZM58.5186 14.2748C58.2445 14.2748 58.0613 14.5262 57.9856 14.8229C58.5034 14.8032 58.7472 14.6942 58.7472 14.4732C58.7472 14.3445 58.6594 14.2748 58.5186 14.2748Z" fill="#044896"/>
<path fill-rule="evenodd" clip-rule="evenodd" d="M62.0091 15.9344H61.6094L61.8381 14.7095C61.891 14.4339 61.8411 14.3173 61.7048 14.3173C61.4535 14.3173 61.0613 14.9002 60.9553 15.4756L60.8675 15.9344H60.4723L60.6994 14.7095C60.7524 14.4339 60.707 14.3173 60.5662 14.3173C60.2815 14.3173 59.9045 14.9775 59.8136 15.4756L59.7288 15.9344H59.3291L59.5199 14.923C59.5805 14.6004 59.641 14.2673 59.6834 14.0024H60.0801C60.0559 14.1265 60.0044 14.337 59.8848 14.6898L59.8939 14.6943C60.068 14.3128 60.3451 13.96 60.7221 13.96C60.9583 13.96 61.1037 14.0947 61.1037 14.34C61.1037 14.4415 61.0764 14.5353 61.028 14.7019H61.0356C61.2097 14.3128 61.4883 13.96 61.8638 13.96C62.2105 13.96 62.3286 14.2204 62.256 14.6126L62.0091 15.9344Z" fill="#044896"/>
<mask id="mask5_50_4123" style="mask-type:luminance" maskUnits="userSpaceOnUse" x="62" y="13" width="2" height="4">
<path d="M62.5303 13.5869H63.8991V16.3003H62.5303V13.5869Z" fill="white"/>
</mask>
<g mask="url(#mask5_50_4123)">
<path fill-rule="evenodd" clip-rule="evenodd" d="M63.8233 14.3193C63.7401 14.289 63.6447 14.2769 63.5538 14.2769C63.3282 14.2769 63.2147 14.3783 63.2147 14.5252C63.2147 14.8023 63.7522 14.8992 63.7522 15.3262C63.7522 15.6502 63.4736 15.9727 62.9133 15.9727C62.7877 15.9727 62.6862 15.9606 62.5908 15.9409L62.659 15.5836C62.7543 15.6139 62.8573 15.6335 62.9603 15.6335C63.1844 15.6335 63.3328 15.5442 63.3328 15.3701C63.3328 15.0854 62.7998 15.0309 62.7998 14.5691C62.7998 14.2299 63.0617 13.9619 63.5765 13.9619C63.7022 13.9619 63.8037 13.974 63.899 13.9937L63.8233 14.3193Z" fill="#044896"/>
</g>
<path fill-rule="evenodd" clip-rule="evenodd" d="M34.1423 8.91628L35.505 1.9209H33.1308L31.332 11.2435L35.664 11.2481L36.0971 8.91628H34.1423Z" fill="#044896"/>
<path fill-rule="evenodd" clip-rule="evenodd" d="M41.1137 3.98337C41.5043 3.98337 42.0645 4.07725 42.4022 4.19687L42.8065 2.0498C42.3113 1.96955 41.7784 1.91504 41.1924 1.91504C38.6153 1.91504 37.404 3.45039 37.404 5.17046C37.404 7.42504 39.6949 7.3993 39.6949 8.35927C39.6949 8.84077 39.3572 9.10726 38.6289 9.10726C38.1202 9.10726 37.4176 8.98764 37.0012 8.82714L36.5591 11.1317C37.0406 11.2256 37.7174 11.2952 38.3927 11.2952C40.6973 11.2952 42.3113 9.76137 42.3113 7.90654C42.3113 5.71859 40.0083 5.67771 40.0083 4.71773C40.0083 4.29074 40.2945 3.98337 41.1137 3.98337Z" fill="#044896"/>
<path fill-rule="evenodd" clip-rule="evenodd" d="M29.4652 1.92188C25.9251 1.92188 23.6523 4.57315 23.6523 7.82555C23.6523 9.86209 24.7228 11.2672 27.4271 11.2672C28.4976 11.2672 29.6272 11.0704 30.5296 10.6828L31.3972 6.17967H29.02L28.5113 8.92483C28.3023 8.97782 28.054 8.99145 27.8587 8.99145C26.67 8.99145 26.2385 8.33582 26.2385 7.46518C26.2385 5.84504 27.2318 4.1719 29.2562 4.1719C29.8255 4.1719 30.4479 4.2779 31.0051 4.45051C31.0611 4.46716 31.1201 4.48533 31.1807 4.50653C31.3806 4.57467 31.5532 4.64886 31.6758 4.71548L32.1588 2.28073C31.3442 2.05815 30.3661 1.92188 29.4652 1.92188Z" fill="#044896"/>
<path fill-rule="evenodd" clip-rule="evenodd" d="M11.6769 1.95105L11.0394 5.04295H15.438C11.795 10.4424 4.56186 9.52635 2.64949 7.28692C1.00361 5.35941 2.4254 2.05856 7.30551 0.0205078C2.47536 1.49075 -0.236483 5.35184 1.3564 7.95012C3.16279 10.8982 8.79392 12.1277 13.7982 10.6968C17.1429 9.5203 18.5693 7.87441 19.0917 6.98561L18.2725 11.2676H21.5597L23.3434 1.95105H11.6769Z" fill="#FABE13"/>
</svg>
