<svg width="30" height="31" viewBox="0 0 30 31" fill="none" xmlns="http://www.w3.org/2000/svg">
<path fill-rule="evenodd" clip-rule="evenodd" d="M24.9964 12.9195C24.995 12.525 24.9936 12.1304 24.9936 11.7359C24.9936 10.3649 24.9936 8.99403 25 7.63648C25 7.28874 24.8651 7.15499 24.5376 7.14161L24.5251 7.14115C24.1631 7.12793 23.795 7.11448 23.4331 7.08143C20.5305 6.80056 17.8591 5.83757 15.4317 4.15903C15.0014 3.86478 14.995 3.86478 14.5776 4.15234C11.8291 6.05157 8.79807 7.0413 5.50375 7.14161C5.12487 7.15499 5.00285 7.27536 5.00285 7.66992C5.00285 8.5056 5.00214 9.34202 5.00143 10.1787C5 11.8528 4.99857 13.5278 5.00285 15.1999C5.00928 17.8482 5.79272 20.2356 7.34677 22.3287C9.29254 24.9569 11.8548 26.709 14.7959 27.906C14.9244 27.9595 15.117 27.9395 15.2519 27.886C17.7884 26.8561 20.036 25.3715 21.8855 23.2783C23.8762 21.0247 24.9615 18.3698 24.9936 15.2869C25.0021 14.4978 24.9993 13.7087 24.9964 12.9195ZM6.53621 13.3418C6.53693 13.0335 6.53764 12.7254 6.53764 12.418C6.53764 11.3413 6.53764 10.2646 6.52479 9.18796C6.52479 8.81347 6.62754 8.68641 6.98074 8.64628C9.74848 8.34535 12.33 7.43586 14.7189 5.94457C14.8139 5.8876 14.9024 5.86424 14.9886 5.86665V26.2241C14.8917 26.224 14.7956 26.2006 14.6932 26.1539C12.5483 25.1976 10.6218 23.907 9.07421 22.0612C7.42383 20.0951 6.55048 17.8147 6.53764 15.1933C6.53335 14.5778 6.53479 13.9593 6.53621 13.3418Z" fill="#1A1A1A"/>
<path fill-rule="evenodd" clip-rule="evenodd" d="M24.9964 12.9195C24.995 12.525 24.9936 12.1304 24.9936 11.7359C24.9936 10.3649 24.9936 8.99403 25 7.63648C25 7.28874 24.8651 7.15499 24.5376 7.14161L24.5251 7.14115C24.1631 7.12793 23.795 7.11448 23.4331 7.08143C20.5305 6.80056 17.8591 5.83757 15.4317 4.15903C15.0014 3.86478 14.995 3.86478 14.5776 4.15234C11.8291 6.05157 8.79807 7.0413 5.50375 7.14161C5.12487 7.15499 5.00285 7.27536 5.00285 7.66992C5.00285 8.5056 5.00214 9.34202 5.00143 10.1787C5 11.8528 4.99857 13.5278 5.00285 15.1999C5.00928 17.8482 5.79272 20.2356 7.34677 22.3287C9.29254 24.9569 11.8548 26.709 14.7959 27.906C14.9244 27.9595 15.117 27.9395 15.2519 27.886C17.7884 26.8561 20.036 25.3715 21.8855 23.2783C23.8762 21.0247 24.9615 18.3698 24.9936 15.2869C25.0021 14.4978 24.9993 13.7087 24.9964 12.9195ZM6.53621 13.3418C6.53693 13.0335 6.53764 12.7254 6.53764 12.418C6.53764 11.3413 6.53764 10.2646 6.52479 9.18796C6.52479 8.81347 6.62754 8.68641 6.98074 8.64628C9.74848 8.34535 12.33 7.43586 14.7189 5.94457C14.8139 5.8876 14.9024 5.86424 14.9886 5.86665V26.2241C14.8917 26.224 14.7956 26.2006 14.6932 26.1539C12.5483 25.1976 10.6218 23.907 9.07421 22.0612C7.42383 20.0951 6.55048 17.8147 6.53764 15.1933C6.53335 14.5778 6.53479 13.9593 6.53621 13.3418Z" fill="url(#paint0_linear_50_3907)"/>
<defs>
<linearGradient id="paint0_linear_50_3907" x1="5" y1="18.1053" x2="24.9786" y2="18.7595" gradientUnits="userSpaceOnUse">
<stop stop-color="#EB4747"/>
<stop offset="1" stop-color="#FF8B8B"/>
</linearGradient>
</defs>
</svg>
