<svg width="30" height="30" viewBox="0 0 30 30" fill="none" xmlns="http://www.w3.org/2000/svg">
<path d="M20.7922 8.70444H21.3148C22.9617 8.70444 24.6086 8.71236 26.2546 8.70444C26.8432 8.69917 27.2224 8.94286 27.4582 9.48304C28.184 11.1546 28.9353 12.8077 29.6532 14.4792C29.7576 14.7407 29.7966 15.0236 29.7667 15.3036C29.5309 17.591 29.267 19.8836 29.0277 22.1745C28.9256 23.1423 28.5983 23.4616 27.62 23.4616C27.1151 23.4616 26.6101 23.4713 26.106 23.4572C25.9027 23.4511 25.8051 23.5127 25.7127 23.7018C25.2315 24.6783 24.4511 25.2951 23.3805 25.5018C21.9816 25.7719 20.7412 25.0487 20.2538 23.7053C20.2283 23.6332 20.2019 23.5619 20.1658 23.4616H19.8412C17.3717 23.4616 14.9013 23.4616 12.4318 23.4564C12.2057 23.4564 12.0931 23.5206 11.9919 23.73C11.2001 25.3329 9.28837 26.0174 7.82884 25.2326C7.12503 24.8525 6.69746 24.2464 6.46432 23.4616C5.49218 23.4616 4.51652 23.4616 3.54174 23.4616C3.0957 23.4616 2.74995 23.2857 2.53793 22.8942C2.45444 22.7388 2.41173 22.5647 2.41379 22.3883C2.41584 22.2119 2.4626 22.0388 2.54969 21.8854C2.63678 21.732 2.76136 21.6031 2.91177 21.5109C3.06218 21.4187 3.23353 21.3661 3.40978 21.3581C3.77048 21.3388 4.13382 21.3581 4.49629 21.352C5.11212 21.3396 5.574 20.883 5.57312 20.2962C5.57224 19.7094 5.1086 19.2537 4.49189 19.2467C3.82239 19.2388 3.15289 19.2467 2.48338 19.2467C1.83676 19.2467 1.36608 18.8015 1.35992 18.205C1.35376 17.5892 1.82532 17.1414 2.49218 17.1405C5.24878 17.1405 8.00538 17.1405 10.762 17.1405C11.5854 17.1405 12.1256 16.4059 11.8177 15.6977C11.6259 15.2499 11.2696 15.0326 10.7778 15.0335C9.40538 15.0335 8.03294 15.0405 6.66051 15.0335C5.82385 15.0282 5.31447 14.1968 5.70333 13.486C5.91887 13.0918 6.26638 12.9264 6.71066 12.9273C8.53353 12.9308 10.3558 12.9308 12.1775 12.9273H13.8588C14.581 12.9273 15.064 12.4962 15.0588 11.8628C15.0526 11.247 14.574 10.8203 13.8702 10.8203C10.4778 10.8203 7.08544 10.8203 3.69306 10.8203C3.53997 10.8274 3.38655 10.8177 3.23558 10.7912C2.98116 10.7344 2.75696 10.5851 2.60655 10.3721C2.45614 10.1592 2.39028 9.89797 2.42176 9.63919C2.45324 9.38042 2.57982 9.14259 2.7769 8.97195C2.97397 8.8013 3.22746 8.71003 3.48808 8.71588C5.55201 8.7106 7.61594 8.71588 9.67987 8.71588C10.0529 8.71588 10.4259 8.72028 10.7998 8.71588C11.4359 8.70708 11.9048 8.24785 11.8969 7.64873C11.889 7.06368 11.4244 6.61324 10.8033 6.61148C9.07987 6.6062 7.35641 6.61148 5.63207 6.61148C4.84468 6.61148 4.32737 5.90767 4.5869 5.20386C4.74262 4.78245 5.05846 4.55635 5.50186 4.50884C5.60032 4.50356 5.699 4.50356 5.79746 4.50884H19.8623C20.8001 4.50884 21.2101 4.9584 21.1115 5.89183C21.013 6.82527 20.903 7.72439 20.7922 8.70444ZM27.6121 16.0786C27.628 15.732 27.7511 15.3643 27.6394 15.0942C27.0632 13.7112 26.428 12.352 25.8042 10.9892C25.7803 10.9456 25.7466 10.9081 25.7059 10.8796C25.6652 10.8511 25.6184 10.8323 25.5693 10.8247C24.7907 10.8132 24.0121 10.8036 23.2344 10.8247C22.9836 10.8257 22.7423 10.9206 22.5578 11.0905C22.3734 11.2605 22.2592 11.4933 22.2376 11.7432C22.1083 12.8085 21.9878 13.8748 21.8857 14.9429C21.8698 15.0829 21.8833 15.2248 21.9253 15.3593C21.9673 15.4939 22.037 15.6182 22.1298 15.7243C22.2226 15.8304 22.3366 15.9159 22.4644 15.9754C22.5922 16.0349 22.731 16.0671 22.8719 16.0698C24.4247 16.0901 25.9802 16.0786 27.6121 16.0786ZM8.46931 22.6602C8.46931 23.1467 8.78954 23.4959 9.18808 23.452C9.89189 23.371 10.4409 22.5537 10.2438 21.8728C10.1206 21.4434 9.77928 21.2675 9.35611 21.4135C9.09544 21.5008 8.86915 21.6685 8.7098 21.8925C8.55045 22.1165 8.46626 22.3853 8.46931 22.6602ZM22.1708 22.6602C22.1708 23.1616 22.5068 23.5153 22.9195 23.452C23.5995 23.3429 24.0992 22.6179 23.9593 21.9423C23.859 21.4602 23.4904 21.2552 23.0285 21.425C22.7758 21.5167 22.5577 21.6844 22.4041 21.9051C22.2505 22.1258 22.169 22.3887 22.1708 22.6575V22.6602Z" fill="url(#paint0_linear_50_3994)"/>
<path d="M1.8845 15.0247C1.69799 15.0247 1.51148 15.0335 1.32497 15.0247C1.05372 15.014 0.796983 14.8993 0.608088 14.7044C0.419192 14.5094 0.312653 14.2492 0.310599 13.9778C0.307884 13.7054 0.41152 13.4427 0.599471 13.2455C0.787421 13.0484 1.04486 12.9323 1.31705 12.922C1.69975 12.9062 2.08509 12.9062 2.46866 12.922C2.73663 12.9361 2.98907 13.0522 3.17424 13.2464C3.35942 13.4406 3.46333 13.6983 3.46468 13.9666C3.46603 14.2349 3.36472 14.4936 3.1815 14.6897C2.99829 14.8858 2.74704 15.0043 2.47922 15.0212C2.28039 15.0352 2.08245 15.0247 1.8845 15.0247Z" fill="url(#paint1_linear_50_3994)"/>
<defs>
<linearGradient id="paint0_linear_50_3994" x1="1.35986" y1="16.9334" x2="29.8799" y2="18.782" gradientUnits="userSpaceOnUse">
<stop stop-color="#EB4747"/>
<stop offset="1" stop-color="#FF8B8B"/>
</linearGradient>
<linearGradient id="paint1_linear_50_3994" x1="0.310547" y1="14.1607" x2="31.3936" y2="15.9791" gradientUnits="userSpaceOnUse">
<stop stop-color="#EB4747"/>
<stop offset="1" stop-color="#FF8B8B"/>
</linearGradient>
</defs>
</svg>
