<svg width="20" height="20" viewBox="0 0 20 20" fill="none" xmlns="http://www.w3.org/2000/svg">
<path d="M13.8616 5.80361H14.21C15.308 5.80361 16.4059 5.80889 17.5033 5.80361C17.8956 5.8001 18.1484 5.96256 18.3056 6.32268C18.7895 7.43705 19.2904 8.5391 19.7689 9.65347C19.8386 9.82776 19.8645 10.0164 19.8446 10.203C19.6874 11.728 19.5115 13.2564 19.3519 14.7837C19.2839 15.4288 19.0657 15.6417 18.4135 15.6417C18.0769 15.6417 17.7402 15.6482 17.4041 15.6388C17.2687 15.6347 17.2036 15.6758 17.142 15.8019C16.8211 16.4529 16.3009 16.864 15.5871 17.0019C14.6546 17.1819 13.8276 16.6998 13.5027 15.8042C13.4857 15.7561 13.4681 15.7086 13.444 15.6417H13.2276C11.5813 15.6417 9.93434 15.6417 8.28801 15.6382C8.13728 15.6382 8.0622 15.681 7.99475 15.8206C7.4669 16.8892 6.19241 17.3455 5.21939 16.8224C4.75018 16.569 4.46514 16.1649 4.30971 15.6417C3.66162 15.6417 3.01118 15.6417 2.36132 15.6417C2.06396 15.6417 1.83347 15.5244 1.69212 15.2634C1.63646 15.1598 1.60798 15.0438 1.60935 14.9262C1.61072 14.8086 1.6419 14.6932 1.69996 14.5909C1.75802 14.4886 1.84107 14.4027 1.94134 14.3412C2.04162 14.2798 2.15585 14.2447 2.27335 14.2394C2.51382 14.2265 2.75605 14.2394 2.99769 14.2353C3.40824 14.2271 3.71616 13.9227 3.71558 13.5315C3.71499 13.1403 3.4059 12.8365 2.99476 12.8318C2.54842 12.8265 2.10209 12.8318 1.65575 12.8318C1.22467 12.8318 0.910884 12.535 0.906778 12.1373C0.902672 11.7268 1.21704 11.4282 1.66162 11.4277C3.49935 11.4277 5.33708 11.4277 7.17481 11.4277C7.72379 11.4277 8.0839 10.9379 7.87863 10.4658C7.75077 10.1673 7.51323 10.0224 7.18537 10.023C6.27041 10.023 5.35546 10.0277 4.4405 10.023C3.88273 10.0195 3.54314 9.4652 3.80238 8.9913C3.94607 8.72854 4.17775 8.61828 4.47393 8.61886C5.68918 8.62121 6.90404 8.62121 8.11851 8.61886H9.23933C9.72085 8.61886 10.0428 8.33147 10.0393 7.90919C10.0352 7.49863 9.71616 7.21417 9.24695 7.21417C6.98537 7.21417 4.72379 7.21417 2.4622 7.21417C2.36014 7.21895 2.25786 7.21246 2.15722 7.19482C1.9876 7.15694 1.83813 7.05735 1.73786 6.91541C1.63759 6.77346 1.59368 6.5993 1.61467 6.42678C1.63566 6.25426 1.72005 6.09571 1.85143 5.98195C1.98281 5.86819 2.1518 5.80734 2.32555 5.81124C3.7015 5.80772 5.07745 5.81124 6.45341 5.81124C6.70209 5.81124 6.95077 5.81417 7.20003 5.81124C7.62408 5.80537 7.93669 5.49922 7.93141 5.0998C7.92613 4.70977 7.61646 4.40948 7.20238 4.40831C6.05341 4.40479 4.90443 4.40831 3.75487 4.40831C3.22995 4.40831 2.88508 3.9391 3.0581 3.46989C3.16191 3.18895 3.37247 3.03822 3.66807 3.00655C3.73371 3.00303 3.79949 3.00303 3.86514 3.00655H13.2417C13.8669 3.00655 14.1402 3.30625 14.0745 3.92854C14.0088 4.55083 13.9355 5.15024 13.8616 5.80361ZM18.4082 10.7197C18.4188 10.4887 18.5009 10.2435 18.4264 10.0634C18.0423 9.14145 17.6188 8.23529 17.203 7.32678C17.187 7.29773 17.1646 7.27273 17.1374 7.25371C17.1103 7.2347 17.0791 7.22217 17.0464 7.2171C16.5273 7.20948 16.0082 7.20303 15.4898 7.2171C15.3226 7.2178 15.1617 7.28102 15.0387 7.39433C14.9157 7.50763 14.8396 7.66283 14.8253 7.82942C14.739 8.53968 14.6587 9.25054 14.5906 9.96256C14.58 10.0559 14.589 10.1505 14.617 10.2402C14.645 10.3299 14.6915 10.4128 14.7534 10.4835C14.8153 10.5542 14.8912 10.6112 14.9764 10.6509C15.0616 10.6906 15.1542 10.712 15.2481 10.7139C16.2833 10.7274 17.3203 10.7197 18.4082 10.7197ZM5.64637 15.1074C5.64637 15.4318 5.85986 15.6646 6.12555 15.6353C6.59476 15.5813 6.96074 15.0365 6.82936 14.5825C6.74725 14.2963 6.51968 14.179 6.23757 14.2763C6.06379 14.3345 5.91293 14.4463 5.8067 14.5957C5.70047 14.745 5.64433 14.9242 5.64637 15.1074ZM14.7807 15.1074C14.7807 15.4417 15.0047 15.6775 15.2798 15.6353C15.7332 15.5626 16.0663 15.0793 15.9731 14.6288C15.9062 14.3074 15.6604 14.1708 15.3525 14.284C15.184 14.3451 15.0386 14.4569 14.9362 14.6041C14.8338 14.7512 14.7795 14.9264 14.7807 15.1057V15.1074Z" fill="#1A1A1A"/>
<path d="M1.25633 10.0171C1.13199 10.0171 1.00765 10.023 0.883312 10.0171C0.702478 10.01 0.531322 9.93355 0.405392 9.80358C0.279461 9.6736 0.208435 9.50012 0.207066 9.31915C0.205256 9.13757 0.274347 8.96244 0.399647 8.83101C0.524947 8.69958 0.696573 8.6222 0.878034 8.61534C1.13317 8.60478 1.39006 8.60478 1.64578 8.61534C1.82442 8.62475 1.99271 8.70211 2.11616 8.83158C2.23961 8.96105 2.30889 9.13283 2.30979 9.31172C2.31069 9.49062 2.24315 9.66308 2.121 9.79379C1.99886 9.9245 1.83136 10.0035 1.65281 10.0148C1.52026 10.0241 1.3883 10.0171 1.25633 10.0171Z" fill="#1A1A1A"/>
</svg>
