<svg width="30" height="31" viewBox="0 0 30 31" fill="none" xmlns="http://www.w3.org/2000/svg">
<path d="M13.2957 17.6862C13.2957 18.8602 13.2957 20.0342 13.2957 21.2153C13.2957 21.4372 13.2957 21.6591 13.2957 21.8882C13.2957 22.2747 13.124 22.5611 12.7735 22.7186C12.4015 22.8761 12.0724 22.783 11.7935 22.5038C10.6417 21.3585 9.49718 20.206 8.34547 19.0606C6.68586 17.3999 5.02625 15.7391 3.36664 14.0784C2.87304 13.5845 2.8802 13.1406 3.37379 12.6467C6.1565 9.86211 8.93921 7.07749 11.7148 4.29288C11.958 4.0495 12.2155 3.89201 12.566 3.94928C13.0024 4.02086 13.2814 4.37162 13.2885 4.84408C13.2885 6.1469 13.2885 7.44973 13.2885 8.75255C13.2885 8.84561 13.2885 8.94583 13.2885 9.07468C13.403 9.07468 13.496 9.07468 13.589 9.07468C14.6477 9.089 15.7136 9.05321 16.7723 9.13195C19.3261 9.31091 21.5508 10.3131 23.425 12.0526C25.4495 13.9352 26.6083 16.276 26.9303 19.0177C26.9803 19.4186 26.9946 19.8194 26.9946 20.2203C27.0018 22.4895 27.0018 24.7587 26.9946 27.0208C26.9946 27.7008 26.3651 28.1303 25.7857 27.8511C25.4352 27.6865 25.285 27.393 25.2778 27.0064C25.2635 25.6249 24.9917 24.2863 24.3693 23.0479C22.7741 19.8767 20.2203 18.0441 16.6793 17.7005C15.5777 17.5932 14.4474 17.6862 13.2957 17.6862Z" fill="url(#paint0_linear_50_3918)"/>
<defs>
<linearGradient id="paint0_linear_50_3918" x1="3" y1="18.1053" x2="26.963" y2="19.0468" gradientUnits="userSpaceOnUse">
<stop stop-color="#EB4747"/>
<stop offset="1" stop-color="#FF8B8B"/>
</linearGradient>
</defs>
</svg>
