<svg width="43" height="27" viewBox="0 0 43 27" fill="none" xmlns="http://www.w3.org/2000/svg">
<rect x="0.899902" y="0.5" width="41" height="26" rx="6.5" fill="#D6E5FF" stroke="#58719C"/>
<path d="M13.4037 23.0332V21.7623C13.4037 21.2762 13.1076 20.9578 12.5992 20.9578C12.345 20.9578 12.0687 21.0417 11.8786 21.3181C11.7306 21.0862 11.5184 20.9578 11.2 20.9578C10.9878 20.9578 10.7756 21.022 10.6078 21.254V20.9998H10.1636V23.0332H10.6078V21.9104C10.6078 21.5501 10.7978 21.3798 11.0939 21.3798C11.39 21.3798 11.5381 21.5698 11.5381 21.9104V23.0332H11.9823V21.9104C11.9823 21.5501 12.1945 21.3798 12.4684 21.3798C12.7646 21.3798 12.9126 21.5698 12.9126 21.9104V23.0332H13.4037ZM19.9925 20.9998H19.272V20.3853H18.8278V20.9998H18.4255V21.402H18.8278V22.3348C18.8278 22.8012 19.0178 23.0752 19.5261 23.0752C19.7162 23.0752 19.9284 23.011 20.0764 22.9271L19.9481 22.5446C19.8198 22.6285 19.6717 22.6507 19.5656 22.6507C19.3534 22.6507 19.2695 22.5224 19.2695 22.3126V21.402H19.9901V20.9998H19.9925ZM23.7632 20.9554C23.5091 20.9554 23.3388 21.0837 23.2327 21.2515V20.9973H22.7885V23.0307H23.2327V21.8857C23.2327 21.5476 23.3807 21.3551 23.6571 21.3551C23.741 21.3551 23.8471 21.3774 23.9335 21.3971L24.0618 20.9726C23.973 20.9554 23.8471 20.9554 23.7632 20.9554ZM18.0652 21.1676C17.853 21.0195 17.5569 20.9554 17.2386 20.9554C16.7302 20.9554 16.3921 21.2095 16.3921 21.6118C16.3921 21.9499 16.6463 22.1424 17.0905 22.204L17.3027 22.2263C17.5347 22.2682 17.663 22.3324 17.663 22.4385C17.663 22.5865 17.4927 22.6927 17.1966 22.6927C16.9005 22.6927 16.666 22.5865 16.518 22.4804L16.3058 22.8185C16.5377 22.9888 16.8561 23.0727 17.1744 23.0727C17.7666 23.0727 18.1072 22.7963 18.1072 22.4163C18.1072 22.056 17.8308 21.866 17.4088 21.8018L17.1966 21.7796C17.0066 21.7574 16.8585 21.7154 16.8585 21.5896C16.8585 21.4415 17.0066 21.3576 17.241 21.3576C17.4952 21.3576 17.7494 21.4637 17.8777 21.5279L18.0652 21.1676ZM29.8832 20.9554C29.629 20.9554 29.4587 21.0837 29.3526 21.2515V20.9973H28.9084V23.0307H29.3526V21.8857C29.3526 21.5476 29.5007 21.3551 29.7771 21.3551C29.861 21.3551 29.9671 21.3774 30.0535 21.3971L30.1818 20.9776C30.0954 20.9554 29.9696 20.9554 29.8832 20.9554ZM24.2074 22.0165C24.2074 22.631 24.6319 23.0752 25.2883 23.0752C25.5844 23.0752 25.7966 23.011 26.0089 22.8432L25.7966 22.4829C25.6264 22.6112 25.4586 22.6729 25.2661 22.6729C24.9058 22.6729 24.6516 22.4187 24.6516 22.0165C24.6516 21.634 24.9058 21.3798 25.2661 21.3601C25.4561 21.3601 25.6264 21.4242 25.7966 21.5501L26.0089 21.1898C25.7966 21.0195 25.5844 20.9578 25.2883 20.9578C24.6319 20.9554 24.2074 21.402 24.2074 22.0165ZM28.3162 22.0165V20.9998H27.872V21.254C27.7239 21.064 27.5117 20.9578 27.2353 20.9578C26.6628 20.9578 26.2186 21.402 26.2186 22.0165C26.2186 22.631 26.6628 23.0752 27.2353 23.0752C27.5314 23.0752 27.7437 22.969 27.872 22.779V23.0332H28.3162V22.0165ZM26.685 22.0165C26.685 21.6562 26.917 21.3601 27.2995 21.3601C27.6598 21.3601 27.9139 21.6365 27.9139 22.0165C27.9139 22.3768 27.6598 22.6729 27.2995 22.6729C26.9195 22.6507 26.685 22.3743 26.685 22.0165ZM21.3695 20.9554C20.7773 20.9554 20.3528 21.3798 20.3528 22.014C20.3528 22.6507 20.7773 23.0727 21.3917 23.0727C21.6879 23.0727 21.984 22.9888 22.2184 22.7963L22.0062 22.478C21.8359 22.6063 21.6237 22.6902 21.4139 22.6902C21.1376 22.6902 20.8636 22.5619 20.7995 22.204H22.3023C22.3023 22.1399 22.3023 22.0979 22.3023 22.0338C22.3221 21.3798 21.9396 20.9554 21.3695 20.9554ZM21.3695 21.3379C21.6459 21.3379 21.8359 21.5081 21.8779 21.824H20.8192C20.8612 21.5501 21.0512 21.3379 21.3695 21.3379ZM32.4052 22.0165V20.1953H31.961V21.254C31.813 21.064 31.6007 20.9578 31.3243 20.9578C30.7518 20.9578 30.3076 21.402 30.3076 22.0165C30.3076 22.631 30.7518 23.0752 31.3243 23.0752C31.6205 23.0752 31.8327 22.969 31.961 22.779V23.0332H32.4052V22.0165ZM30.774 22.0165C30.774 21.6562 31.006 21.3601 31.3885 21.3601C31.7488 21.3601 32.003 21.6365 32.003 22.0165C32.003 22.3768 31.7488 22.6729 31.3885 22.6729C31.006 22.6507 30.774 22.3743 30.774 22.0165ZM15.9035 22.0165V20.9998H15.4593V21.254C15.3113 21.064 15.099 20.9578 14.8226 20.9578C14.2501 20.9578 13.8059 21.402 13.8059 22.0165C13.8059 22.631 14.2501 23.0752 14.8226 23.0752C15.1188 23.0752 15.331 22.969 15.4593 22.779V23.0332H15.9035V22.0165ZM14.2526 22.0165C14.2526 21.6562 14.4846 21.3601 14.8671 21.3601C15.2274 21.3601 15.4815 21.6365 15.4815 22.0165C15.4815 22.3768 15.2274 22.6729 14.8671 22.6729C14.4846 22.6507 14.2526 22.3743 14.2526 22.0165Z" fill="#58719C"/>
<path d="M24.5897 5.55664H17.917V17.5449H24.5897V5.55664Z" fill="#809BC9"/>
<path d="M18.3613 11.5511C18.3613 9.11541 19.5063 6.95368 21.2633 5.55695C19.9703 4.54025 18.3391 3.92578 16.5599 3.92578C12.345 3.92578 8.93457 7.33618 8.93457 11.5511C8.93457 15.7659 12.345 19.1763 16.5599 19.1763C18.3391 19.1763 19.9703 18.5619 21.2633 17.5452C19.5039 16.1682 18.3613 13.9867 18.3613 11.5511Z" fill="#58719C"/>
<path d="M33.5924 11.5511C33.5924 15.7659 30.182 19.1763 25.9672 19.1763C24.1879 19.1763 22.5568 18.5619 21.2637 17.5452C23.0429 16.146 24.1657 13.9867 24.1657 11.5511C24.1657 9.11541 23.0207 6.95368 21.2637 5.55695C22.5543 4.54025 24.1855 3.92578 25.9647 3.92578C30.182 3.92578 33.5924 7.35839 33.5924 11.5511Z" fill="#B9CCED"/>
</svg>
