<svg width="43" height="43" viewBox="0 0 43 43" fill="none" xmlns="http://www.w3.org/2000/svg">
<circle cx="21.3335" cy="21.9375" r="20" fill="white" stroke="url(#paint0_linear_50_3948)" stroke-width="2"/>
<path fill-rule="evenodd" clip-rule="evenodd" d="M21.3335 15.879C21.3544 15.8678 21.4587 15.7222 21.4587 15.7222C22.3922 14.4172 23.5604 13.493 25.0677 13.1009C27.0495 12.5857 28.901 13.3026 30.1057 15.0557C30.7993 16.0638 31.1644 17.2064 31.2896 18.4442C31.4773 20.2589 31.0549 21.9167 30.1787 23.4626C29.4799 24.6947 28.6298 25.7981 27.6701 26.7951C25.7352 28.7946 23.7691 30.7605 21.8081 32.732C21.6643 32.8781 21.5003 32.9469 21.3335 32.9416C21.1667 32.9469 21.0027 32.8781 20.8589 32.732C18.8979 30.7605 16.9317 28.7946 14.9969 26.7951C14.0372 25.7981 13.1871 24.6947 12.4883 23.4626C11.6121 21.9167 11.1897 20.2589 11.3774 18.4442C11.5026 17.2064 11.8677 16.0638 12.5613 15.0557C13.766 13.3026 15.6175 12.5857 17.5993 13.1009C19.1065 13.493 20.2748 14.4172 21.2083 15.7222C21.2083 15.7222 21.3126 15.8678 21.3335 15.879ZM25.2606 27.1031C24.7808 28.1953 23.6178 28.7554 22.5434 28.3521C22.1351 28.1975 21.7346 28.1219 21.3335 28.1232C20.9323 28.1219 20.5319 28.1975 20.1235 28.3521C19.0492 28.7554 17.8862 28.1953 17.4063 27.1031C16.9265 25.9998 17.276 24.6835 18.2408 24.0338C18.6528 23.7594 18.9449 23.4009 19.1535 22.9305C19.5916 21.9671 20.3687 21.4911 21.3491 21.4406C22.3296 21.4911 23.0754 21.9671 23.5135 22.9305C23.7221 23.4009 24.0142 23.7594 24.4262 24.0338C25.391 24.6835 25.7405 25.9998 25.2606 27.1031ZM24.3688 17.548C24.6609 17.9401 24.7808 18.3938 24.7756 19.0379C24.7443 19.6932 24.5044 20.3821 23.8473 20.8301C23.2214 21.2614 22.4965 21.1158 22.048 20.4829C21.3335 19.4803 21.6881 17.7609 22.7364 17.1784C23.3049 16.8647 23.962 17.0104 24.3688 17.548ZM24.4374 21.9542L24.4366 21.9391C24.4731 21.2166 24.7339 20.6229 25.318 20.2365C26.142 19.6764 27.1173 20.0516 27.4354 21.043C27.7014 21.8663 27.425 22.8297 26.7679 23.3393C25.8083 24.0843 24.5826 23.4962 24.4575 22.2304C24.4476 22.1402 24.4424 22.0449 24.4374 21.9542ZM18.2982 17.548C18.0061 17.9401 17.8862 18.3938 17.8914 19.0379C17.9227 19.6932 18.1626 20.3821 18.8197 20.8301C19.4455 21.2614 20.1705 21.1158 20.619 20.4829C21.3335 19.4803 20.9789 17.7609 19.9306 17.1784C19.3621 16.8647 18.705 17.0104 18.2982 17.548ZM18.2295 21.9542L18.2304 21.9391C18.1939 21.2166 17.9331 20.6229 17.349 20.2365C16.525 19.6764 15.5497 20.0516 15.2315 21.043C14.9656 21.8663 15.242 22.8297 15.8991 23.3393C16.8587 24.0843 18.0843 23.4962 18.2095 22.2304C18.2194 22.1402 18.2246 22.0449 18.2295 21.9542Z" fill="url(#paint1_linear_50_3948)"/>
<path d="M17.8916 25.9216C17.902 25.4736 18.1315 24.9807 18.6061 24.6671C19.1433 24.3142 19.5188 23.8437 19.79 23.2388C20.0925 22.5443 20.6453 22.1859 21.3546 22.1915C22.0587 22.1971 22.5906 22.5667 22.8879 23.2556C23.1434 23.8549 23.5242 24.3142 24.0457 24.6559C24.7237 25.1039 24.9688 26.0225 24.635 26.7842C24.3013 27.5459 23.4929 27.9324 22.7314 27.6411C21.7927 27.2827 20.8696 27.2883 19.9308 27.6411C18.9034 28.0276 17.8916 27.2323 17.8916 25.9216Z" fill="url(#paint2_linear_50_3948)"/>
<path d="M20.3065 19.341C20.2648 19.4754 20.2126 19.7555 20.0926 19.9907C19.8892 20.3772 19.5137 20.4388 19.1747 20.198C18.5854 19.7835 18.3872 18.7137 18.7836 18.0864C19.0079 17.728 19.3573 17.6496 19.6963 17.8904C20.1396 18.1984 20.2752 18.6745 20.3065 19.341Z" fill="url(#paint3_linear_50_3948)"/>
<path d="M22.3608 19.3014C22.4078 18.6405 22.5486 18.1869 22.9763 17.89C23.31 17.6548 23.6647 17.7332 23.8889 18.0916C24.2801 18.7133 24.0923 19.7719 23.5134 20.192C23.1536 20.4552 22.7572 20.3768 22.559 19.9623C22.4391 19.7159 22.3973 19.4358 22.3608 19.3014Z" fill="url(#paint4_linear_50_3948)"/>
<g filter="url(#filter0_d_50_3948)">
<path d="M17.5526 22.0453C17.5213 22.1573 17.49 22.3534 17.4065 22.5214C17.2188 22.9135 16.8224 23.0311 16.4625 22.835C15.9306 22.5494 15.675 21.7933 15.9097 21.2052C16.0975 20.7403 16.5251 20.5779 16.9371 20.8187C17.3544 21.0708 17.516 21.4796 17.5526 22.0453Z" fill="url(#paint5_linear_50_3948)"/>
</g>
<path d="M26.8458 21.7257C26.8197 22.1906 26.6424 22.5883 26.2252 22.8291C25.8445 23.0531 25.4377 22.9075 25.2395 22.493C24.9474 21.8825 25.2291 21.0536 25.8132 20.7792C26.2878 20.5607 26.7624 20.9024 26.8354 21.5073C26.8406 21.5689 26.8406 21.6361 26.8458 21.7257Z" fill="url(#paint6_linear_50_3948)"/>
<defs>
<filter id="filter0_d_50_3948" x="11.8223" y="20.708" width="9.73047" height="10.2197" filterUnits="userSpaceOnUse" color-interpolation-filters="sRGB">
<feFlood flood-opacity="0" result="BackgroundImageFix"/>
<feColorMatrix in="SourceAlpha" type="matrix" values="0 0 0 0 0 0 0 0 0 0 0 0 0 0 0 0 0 0 127 0" result="hardAlpha"/>
<feOffset dy="4"/>
<feGaussianBlur stdDeviation="2"/>
<feComposite in2="hardAlpha" operator="out"/>
<feColorMatrix type="matrix" values="0 0 0 0 0 0 0 0 0 0 0 0 0 0 0 0 0 0 0.25 0"/>
<feBlend mode="normal" in2="BackgroundImageFix" result="effect1_dropShadow_50_3948"/>
<feBlend mode="normal" in="SourceGraphic" in2="effect1_dropShadow_50_3948" result="shape"/>
</filter>
<linearGradient id="paint0_linear_50_3948" x1="0.333496" y1="25.7314" x2="42.3371" y2="25.6902" gradientUnits="userSpaceOnUse">
<stop stop-color="#EB4747"/>
<stop offset="1" stop-color="#FF8B8B"/>
</linearGradient>
<linearGradient id="paint1_linear_50_3948" x1="11.3576" y1="22.9606" x2="31.157" y2="24.705" gradientUnits="userSpaceOnUse">
<stop stop-color="#EB4747"/>
<stop offset="1" stop-color="#FF8B8B"/>
</linearGradient>
<linearGradient id="paint2_linear_50_3948" x1="11.3577" y1="24.971" x2="31.2121" y2="26.3702" gradientUnits="userSpaceOnUse">
<stop stop-color="#EB4747"/>
<stop offset="1" stop-color="#FF8B8B"/>
</linearGradient>
<linearGradient id="paint3_linear_50_3948" x1="11.3578" y1="19.0489" x2="30.9658" y2="21.65" gradientUnits="userSpaceOnUse">
<stop stop-color="#EB4747"/>
<stop offset="1" stop-color="#FF8B8B"/>
</linearGradient>
<linearGradient id="paint4_linear_50_3948" x1="11.3574" y1="19.0528" x2="30.9674" y2="21.6468" gradientUnits="userSpaceOnUse">
<stop stop-color="#EB4747"/>
<stop offset="1" stop-color="#FF8B8B"/>
</linearGradient>
<linearGradient id="paint5_linear_50_3948" x1="11.3577" y1="21.8204" x2="31.0569" y2="24.0565" gradientUnits="userSpaceOnUse">
<stop stop-color="#EB4747"/>
<stop offset="1" stop-color="#FF8B8B"/>
</linearGradient>
<linearGradient id="paint6_linear_50_3948" x1="11.3573" y1="21.8258" x2="31.0428" y2="24.1719" gradientUnits="userSpaceOnUse">
<stop stop-color="#EB4747"/>
<stop offset="1" stop-color="#FF8B8B"/>
</linearGradient>
</defs>
</svg>
