<svg width="43" height="43" viewBox="0 0 43 43" fill="none" xmlns="http://www.w3.org/2000/svg">
<circle cx="21.6665" cy="21.9375" r="20" fill="white" stroke="url(#paint0_linear_50_788)" stroke-width="2"/>
<path d="M26.5466 29.1123C25.4373 29.085 24.4537 28.7243 23.5575 28.0795C22.4373 27.2763 20.9127 27.2708 19.7761 28.0522C19.3007 28.3801 18.8144 28.6697 18.2625 28.85C15.3116 29.8227 12.1914 27.8118 11.8581 24.7243C11.5685 22.0413 13.481 19.626 16.1477 19.3145C16.3718 19.2872 16.5958 19.2817 16.8198 19.2817C20.0275 19.2817 23.2297 19.2763 26.4373 19.2817C28.8472 19.2872 30.8308 20.8719 31.3554 23.1998C31.9455 25.8391 30.1477 28.5386 27.4756 29.0085C27.1696 29.0522 26.8581 29.0741 26.5466 29.1123Z" fill="url(#paint1_linear_50_788)"/>
<path d="M11.8637 21.5002C11.7489 18.7516 12.8309 16.6587 15.2845 15.3472C16.1642 14.8773 17.126 14.686 18.1205 14.686C20.4703 14.686 22.8255 14.6806 25.1752 14.686C28.1861 14.697 30.6397 16.6532 31.3173 19.5767C31.3938 19.8991 31.432 20.2325 31.4539 20.5658C31.4757 20.8773 31.4593 21.1888 31.4593 21.5221C31.2353 21.2106 31.0058 20.9319 30.8255 20.6204C30.749 20.4838 30.7708 20.2871 30.749 20.1232C30.3009 17.3144 28.044 15.3636 25.2025 15.3472C22.8309 15.3363 20.4593 15.3363 18.0877 15.3472C15.3446 15.3636 13.1096 17.2051 12.6014 19.8937C12.5085 20.3745 12.3883 20.8062 12.0714 21.1778C11.9839 21.2707 11.9293 21.3909 11.8637 21.5002Z" fill="url(#paint2_linear_50_788)"/>
<defs>
<linearGradient id="paint0_linear_50_788" x1="0.666504" y1="25.7314" x2="42.6701" y2="25.6902" gradientUnits="userSpaceOnUse">
<stop stop-color="#EB4747"/>
<stop offset="1" stop-color="#FF8B8B"/>
</linearGradient>
<linearGradient id="paint1_linear_50_788" x1="11.6667" y1="24.2061" x2="31.0659" y2="27.6202" gradientUnits="userSpaceOnUse">
<stop stop-color="#EB4747"/>
<stop offset="1" stop-color="#FF8B8B"/>
</linearGradient>
<linearGradient id="paint2_linear_50_788" x1="11.667" y1="18.11" x2="30.4666" y2="22.8604" gradientUnits="userSpaceOnUse">
<stop stop-color="#EB4747"/>
<stop offset="1" stop-color="#FF8B8B"/>
</linearGradient>
</defs>
</svg>
