<svg width="16" height="17" viewBox="0 0 16 17" fill="none" xmlns="http://www.w3.org/2000/svg">
<path d="M8 0.837891C6.41775 0.837891 4.87103 1.30708 3.55544 2.18613C2.23985 3.06518 1.21447 4.31461 0.608967 5.77642C0.00346627 7.23823 -0.15496 8.84676 0.153721 10.3986C0.462403 11.9505 1.22433 13.3759 2.34315 14.4947C3.46197 15.6136 4.88743 16.3755 6.43928 16.6842C7.99113 16.9929 9.59966 16.8344 11.0615 16.2289C12.5233 15.6234 13.7727 14.598 14.6518 13.2824C15.5308 11.9669 16 10.4201 16 8.83789C16 6.71616 15.1571 4.68133 13.6569 3.18104C12.1566 1.68075 10.1217 0.837891 8 0.837891ZM6.85715 12.0322L4 9.17503L4.90857 8.26646L6.85715 10.215L11.0914 5.98075L12.0034 6.88703L6.85715 12.0322Z" fill="#73CA55"/>
</svg>
