<svg width="43" height="27" viewBox="0 0 43 27" fill="none" xmlns="http://www.w3.org/2000/svg">
<rect x="1.2998" y="0.5" width="41" height="26" rx="6.5" fill="#D6E5FF" stroke="#58719C"/>
<path d="M9.56383 9.56152L6.00879 17.4287H10.2647L10.7923 16.1743H11.9983L12.5259 17.4287H17.2104V16.4713L17.6278 17.4287H20.051L20.4684 16.4511V17.4287H30.211L31.3956 16.2069L32.5049 17.4287L37.5089 17.4388L33.9426 13.5171L37.5089 9.56152H32.5825L31.4293 10.7607L30.355 9.56152H19.7564L18.8463 11.5921L17.9148 9.56152H13.6678V10.4863L13.1954 9.56152H9.56383ZM10.3873 10.6787H12.4618L14.8199 16.0134V10.6787H17.0924L18.9138 14.5037L20.5923 10.6787H22.8535V16.3239H21.4776L21.4664 11.9003L19.4605 16.3239H18.2297L16.2126 11.9003V16.3239H13.382L12.8454 15.0583H9.94633L9.41083 16.3228H7.89427L10.3873 10.6787ZM24.1123 10.6787H29.7069L31.4181 12.527L33.1844 10.6787H34.8955L32.2956 13.516L34.8955 16.3206H33.1068L31.3956 14.4507L29.6203 16.3206H24.1123V10.6787ZM11.3965 11.6338L10.4414 13.8883H12.3505L11.3965 11.6338ZM25.4939 11.8475V12.8781H28.546V14.0267H25.4939V15.1517H28.9173L30.508 13.4946L28.9848 11.8465H25.4939V11.8475Z" fill="#58719C"/>
</svg>
