<svg width="281" height="50" viewBox="0 0 281 50" fill="none" xmlns="http://www.w3.org/2000/svg">
<g clip-path="url(#clip0)">
<path d="M36.3266 42.251L36.5485 47.7456C31.8283 49.2457 26.9203 49.9914 21.8331 49.9914C13.0671 49.9914 6.87025 47.3598 3.2597 42.0967C0.127142 37.5364 -0.752023 31.9733 0.622206 25.4157C2.133 18.2068 5.80331 12.1636 11.6502 7.30327C17.5056 2.43443 24.0097 0 31.1625 0C37.8715 0 43.0014 2.00583 46.5522 6.01749C50.103 10.0291 51.2382 15.0951 49.9664 21.2069C49.0019 25.8443 46.7997 29.6931 43.3599 32.7619C39.92 35.8306 36.0961 37.365 31.8624 37.365C29.6091 37.365 27.8934 36.945 26.7155 36.1135C25.5376 35.282 25.1023 34.1505 25.3925 32.7362C25.529 32.0761 25.8363 31.2275 26.3058 30.1903L28.7128 25.0729C28.8921 24.67 29.0372 24.2157 29.1396 23.6928C29.5408 21.7812 28.8152 20.8298 26.9716 20.8298C25.8278 20.8298 24.7438 21.2755 23.7024 22.1584C22.6696 23.0499 22.0295 24.0699 21.7819 25.2272C21.4661 26.7444 22.0124 27.4987 23.4293 27.4987C24.1036 27.4987 24.7779 27.3787 25.4522 27.1301L20.4845 35.8735C19.7078 36.0021 19.0761 36.0621 18.5811 36.0621C16.0289 36.0621 14.1596 35.3077 12.9647 33.7905C11.7697 32.2733 11.4453 30.2246 11.9831 27.6359C12.8622 23.4271 15.1498 19.7668 18.8542 16.6552C22.5587 13.5436 26.485 11.9835 30.6248 11.9835C33.5952 11.9835 35.8315 12.755 37.3252 14.298C38.819 15.8409 39.3055 17.8553 38.7848 20.3497C38.5714 21.3869 38.1788 22.527 37.6154 23.7699L35.6779 28.0387L35.3108 28.7759C34.9865 29.4617 34.7645 30.0446 34.6621 30.5417C34.4231 31.6732 34.8243 32.239 35.8656 32.239C37.4703 32.239 39.1689 31.0989 40.9699 28.8102C42.7709 26.5301 43.9574 23.9928 44.5378 21.2155C45.5108 16.5352 44.6829 12.7293 42.0454 9.81485C39.4079 6.90039 35.473 5.4346 30.2407 5.4346C24.6072 5.4346 19.5627 7.32899 15.0986 11.1263C10.6344 14.9237 7.80063 19.724 6.58858 25.5272C5.54724 30.5332 6.09352 34.7677 8.22741 38.2222C10.8308 42.4567 15.7814 44.5654 23.0708 44.5654C27.2362 44.5654 31.6491 43.7939 36.3266 42.251Z" fill="#D62B41"/>
<path d="M57.4447 9.95203H66.1681C71.3406 9.95203 73.5001 11.9921 72.6551 16.0724C72.2369 18.0953 70.9992 19.7754 68.9421 21.1127C71.2809 22.227 72.143 24.2243 71.5455 27.0873C71.0846 29.2817 69.9664 31.0389 68.1825 32.3419C67.3118 32.9676 66.4327 33.3962 65.5364 33.6448C64.6402 33.8934 63.4793 34.0134 62.0454 34.0134H60.6882L61.9771 27.8245H63.1891C63.9061 27.8245 64.4268 27.7302 64.7597 27.5502C65.0926 27.3702 65.306 27.0444 65.3999 26.5901C65.562 25.8186 65.0414 25.4243 63.8464 25.4243H62.4721L63.8122 19.0125C65.1267 19.0125 65.8778 18.5582 66.0656 17.6582C66.2363 16.8267 65.7327 16.4067 64.5463 16.4067H63.2233L59.553 34.0134H52.4087L57.4447 9.95203Z" fill="#D62B41"/>
<path d="M85.1598 9.95203L80.1409 34.0134H72.9966L78.0155 9.95203H85.1598Z" fill="#D62B41"/>
<path d="M95.6582 16.861L92.0818 34.0134H84.9375L89.9564 9.95203H99.2602C103.34 9.95203 106.345 10.8778 108.265 12.7379C110.544 14.958 111.287 17.9753 110.493 21.7813C109.733 25.4243 107.941 28.3988 105.116 30.7046C102.29 33.0105 99.0298 34.1591 95.3338 34.1591C94.8985 34.1591 94.1986 34.1334 93.217 34.0905L94.6937 27.0187H95.8374C100.003 27.0187 102.444 25.27 103.178 21.7813C103.861 18.5068 102.154 16.861 98.0652 16.861H95.6582Z" fill="#D62B41"/>
<path d="M123.194 9.95203L119.814 26.1701C119.302 28.6131 118.192 30.6361 116.477 32.2219C114.761 33.8162 112.84 34.6134 110.715 34.6134C110.092 34.6134 109.392 34.4763 108.615 34.2106L110.058 27.2844C110.382 27.4387 110.681 27.5159 110.98 27.5159C111.919 27.5159 112.542 26.7616 112.866 25.2443L116.058 9.9606H123.194V9.95203Z" fill="#D62B41"/>
<path d="M158.327 42.251L158.548 47.7456C153.828 49.2457 148.92 49.9914 143.833 49.9914C135.067 49.9914 128.87 47.3598 125.26 42.0967C122.127 37.5364 121.248 31.9733 122.622 25.4157C124.124 18.1982 127.803 12.1636 133.65 7.2947C139.497 2.43442 146.001 0 153.154 0C159.863 0 164.993 2.00583 168.544 6.01749C172.094 10.0291 173.23 15.0951 171.958 21.2069C170.993 25.8443 168.791 29.6931 165.351 32.7619C161.92 35.8306 158.088 37.365 153.854 37.365C151.601 37.365 149.885 36.945 148.707 36.1135C147.529 35.282 147.094 34.1505 147.384 32.7362C147.52 32.0761 147.828 31.2275 148.306 30.1903L150.704 25.0729C150.884 24.67 151.029 24.2157 151.131 23.6928C151.532 21.7812 150.807 20.8298 148.963 20.8298C147.819 20.8298 146.735 21.2755 145.694 22.1584C144.661 23.0499 144.021 24.0699 143.773 25.2272C143.458 26.7444 144.004 27.4987 145.421 27.4987C146.095 27.4987 146.769 27.3787 147.444 27.1301L142.45 35.8649C141.674 35.9935 141.042 36.0535 140.547 36.0535C137.995 36.0535 136.125 35.2992 134.931 33.7819C133.736 32.2647 133.411 30.216 133.949 27.6273C134.828 23.4185 137.116 19.7583 140.82 16.6467C144.525 13.5351 148.451 11.975 152.591 11.975C155.561 11.975 157.797 12.7464 159.291 14.2894C160.785 15.8323 161.271 17.8467 160.751 20.3412C160.537 21.3784 160.145 22.5184 159.581 23.7614L157.652 28.0302L157.285 28.7674C156.961 29.4531 156.739 30.036 156.636 30.5332C156.397 31.6647 156.799 32.2304 157.84 32.2304C159.445 32.2304 161.143 31.0903 162.944 28.8016C164.745 26.5215 165.932 23.9842 166.512 21.2069C167.485 16.5267 166.657 12.7207 164.02 9.80627C161.382 6.89182 157.439 5.42602 152.215 5.42602C146.582 5.42602 141.537 7.32042 137.073 11.1178C132.609 14.9151 129.775 19.7154 128.563 25.5186C127.522 30.5246 128.068 34.7591 130.202 38.2136C132.814 42.4481 137.756 44.5568 145.045 44.5568C149.228 44.5654 153.641 43.7939 158.327 42.251Z" fill="#D62B41"/>
<path d="M173.93 34.0133L177.19 18.3953C177.762 15.6609 179.034 13.4665 181.014 11.8206C182.994 10.1748 185.342 9.35193 188.065 9.35193C190.77 9.35193 192.682 10.1491 193.783 11.7521C194.885 13.3464 195.124 15.6437 194.5 18.6439L191.291 34.0133H184.147L187.356 18.6439C187.663 17.1781 187.296 16.4409 186.247 16.4409C185.239 16.4409 184.582 17.1781 184.275 18.6439L181.065 34.0133H173.93Z" fill="#D62B41"/>
<path d="M201.67 26.11C202.823 26.11 203.719 26.5301 204.376 27.3615C205.025 28.193 205.238 29.1874 204.999 30.3446C204.76 31.4932 204.146 32.4704 203.156 33.2762C202.165 34.0819 201.09 34.4848 199.929 34.4848C198.726 34.4848 197.812 34.0905 197.189 33.3105C196.575 32.5304 196.387 31.5361 196.643 30.3189C196.89 29.1445 197.497 28.1502 198.478 27.3273C199.451 26.5215 200.518 26.11 201.67 26.11Z" fill="#D62B41"/>
<path d="M208.78 34.0133L212.041 18.3953C212.613 15.6609 213.885 13.4665 215.865 11.8206C217.845 10.1748 220.192 9.35193 222.915 9.35193C225.621 9.35193 227.533 10.1491 228.634 11.7521C229.735 13.3464 229.974 15.6437 229.351 18.6439L226.142 34.0133H218.997L222.207 18.6439C222.514 17.1781 222.147 16.4409 221.097 16.4409C220.09 16.4409 219.433 17.1781 219.125 18.6439L215.916 34.0133H208.78Z" fill="#D62B41"/>
<path d="M246.371 19.3126L245.253 24.67H240.593C239.961 24.67 239.491 24.7643 239.184 24.9529C238.877 25.1415 238.681 25.4586 238.587 25.9044C238.484 26.4101 238.544 26.7444 238.783 26.8987C239.022 27.0616 239.551 27.1387 240.388 27.1387H245.193L243.759 34.0134H238.143C235.505 34.0134 233.619 33.3791 232.484 32.119C231.348 30.8589 231.033 29.0331 231.528 26.6416L233.499 17.2124C233.977 14.9066 235.01 13.1236 236.598 11.855C238.185 10.5863 240.174 9.95203 242.564 9.95203H248.778L247.336 16.861H242.778C241.549 16.861 240.849 17.2639 240.678 18.0611C240.575 18.5325 240.661 18.8582 240.917 19.0383C241.173 19.2183 241.677 19.3126 242.428 19.3126H246.371Z" fill="#D62B41"/>
<path d="M261.889 16.861L258.313 34.0134H251.168L254.745 16.861H249.273L250.716 9.95203H268.786L267.343 16.861H261.889Z" fill="#D62B41"/>
<path d="M276.024 25.6472C276.86 25.6472 277.68 25.8615 278.473 26.2901C279.267 26.7187 279.89 27.3359 280.334 28.1331C280.778 28.9303 281 29.7703 281 30.6361C281 31.4933 280.778 32.3247 280.343 33.1134C279.907 33.902 279.293 34.5191 278.499 34.9649C277.705 35.4021 276.886 35.6249 276.024 35.6249C275.162 35.6249 274.334 35.4021 273.548 34.9649C272.763 34.5277 272.14 33.9105 271.705 33.1134C271.261 32.3162 271.047 31.4933 271.047 30.6361C271.047 29.7703 271.269 28.9303 271.713 28.1331C272.157 27.3359 272.78 26.7187 273.574 26.2901C274.376 25.8615 275.187 25.6472 276.024 25.6472ZM276.024 26.4787C275.324 26.4787 274.641 26.6587 273.984 27.0187C273.318 27.3787 272.806 27.8931 272.43 28.5617C272.055 29.2303 271.867 29.9246 271.867 30.6446C271.867 31.3647 272.055 32.0504 272.422 32.7105C272.789 33.3705 273.301 33.8848 273.958 34.2534C274.615 34.622 275.307 34.802 276.024 34.802C276.741 34.802 277.432 34.622 278.089 34.2534C278.746 33.8848 279.259 33.3705 279.626 32.7105C279.993 32.0504 280.172 31.3647 280.172 30.6446C280.172 29.9246 279.984 29.2303 279.617 28.5617C279.242 27.8931 278.729 27.3787 278.064 27.0187C277.398 26.6587 276.724 26.4787 276.024 26.4787ZM273.839 33.3962V28.0302H275.682C276.314 28.0302 276.766 28.0816 277.048 28.1759C277.33 28.2788 277.551 28.4502 277.722 28.6988C277.893 28.9474 277.97 29.2046 277.97 29.4874C277.97 29.8817 277.833 30.2246 277.551 30.5161C277.27 30.8075 276.903 30.9704 276.442 31.0047C276.63 31.0818 276.783 31.1761 276.894 31.2875C277.108 31.5018 277.372 31.8533 277.688 32.3505L278.345 33.4048H277.287L276.809 32.5562C276.433 31.8876 276.135 31.4761 275.904 31.3047C275.742 31.1847 275.511 31.1161 275.213 31.1161H274.701V33.3962H273.839ZM274.709 30.3789H275.759C276.263 30.3789 276.604 30.3018 276.783 30.156C276.963 30.0103 277.056 29.8046 277.056 29.5646C277.056 29.4017 277.014 29.2646 276.928 29.136C276.843 29.0074 276.715 28.9131 276.561 28.8531C276.408 28.7931 276.117 28.7588 275.691 28.7588H274.709V30.3789Z" fill="#D62B41"/>
</g>
<defs>
<clipPath id="clip0">
<rect width="281" height="50" fill="white"/>
</clipPath>
</defs>
</svg>
