<svg xmlns="http://www.w3.org/2000/svg" xmlns:xlink="http://www.w3.org/1999/xlink"><defs><symbol viewBox="0 0 40 40" fill="none" id="4x">
<path d="M20.292 15.464C20.292 15.464 19.1135 14.2855 20.292 13.107C21.4705 11.9284 22.649 13.107 22.649 13.107L35.78 26.2383C35.78 26.2383 36.9585 27.4168 35.78 28.5953C34.6014 29.7738 33.4229 28.5953 33.4229 28.5953L20.292 15.464Z" fill="#293847" />
<path d="M22.651 28.5947C22.651 28.5947 21.4725 29.7733 20.294 28.5947C19.1155 27.4162 20.294 26.2377 20.294 26.2377L33.4253 13.1068C33.4253 13.1068 34.6038 11.9282 35.7823 13.1068C36.9608 14.2853 35.7823 15.4638 35.7823 15.4638L22.651 28.5947Z" fill="#293847" />
<path d="M5.57487 25.9082C5.57487 25.9082 3.9082 25.9082 3.9082 24.2415C3.9082 22.5749 5.57487 22.5749 5.57487 22.5749L17.2415 22.5749C17.2415 22.5749 18.9082 22.5749 18.9082 24.2415C18.9082 25.9082 17.2415 25.9082 17.2415 25.9082L5.57487 25.9082Z" fill="#293847" />
<path d="M7.03954 24.999C7.03954 24.999 6.15007 26.4085 4.7406 25.519C3.33112 24.6296 4.22058 23.2201 4.22058 23.2201L12.1135 11.6871C12.1135 11.6871 13.003 10.2776 14.4124 11.1671C15.8219 12.0565 14.9325 13.466 14.9325 13.466L7.03954 24.999Z" fill="#293847" />
<path d="M12.2422 20.9084C12.2422 20.9084 12.2422 19.2417 13.9089 19.2417C15.5755 19.2417 15.5755 20.9084 15.5755 20.9084L15.5755 29.2417C15.5755 29.2417 15.5755 30.9084 13.9089 30.9084C12.2422 30.9084 12.2422 29.2417 12.2422 29.2417L12.2422 20.9084Z" fill="#293847" />
</symbol><symbol fill="#383838" viewBox="0 0 256 256" id="arrows-clockwise"><path d="M197.67,186.37a8,8,0,0,1,0,11.29C196.58,198.73,170.82,224,128,224c-37.39,0-64.53-22.4-80-39.85V208a8,8,0,0,1-16,0V160a8,8,0,0,1,8-8H88a8,8,0,0,1,0,16H55.44C67.76,183.35,93,208,128,208c36,0,58.14-21.46,58.36-21.68A8,8,0,0,1,197.67,186.37ZM216,40a8,8,0,0,0-8,8V71.85C192.53,54.4,165.39,32,128,32,85.18,32,59.42,57.27,58.34,58.34a8,8,0,0,0,11.3,11.34C69.86,69.46,92,48,128,48c35,0,60.24,24.65,72.56,40H168a8,8,0,0,0,0,16h48a8,8,0,0,0,8-8V48A8,8,0,0,0,216,40Z" /></symbol><symbol viewBox="0 0 64 64" fill="none" id="cds-animalerie">
    <path d="M53.4194 59.7571H46.1119C45.8383 59.7571 45.5746 59.6498 45.3727 59.4564C45.1709 59.263 45.0455 58.9975 45.0212 58.7121L44.3816 51.2277C44.368 51.0693 44.386 50.9095 44.4346 50.7588C44.4833 50.6081 44.5614 50.4696 44.6639 50.3522C44.7664 50.2348 44.8912 50.141 45.0302 50.0768C45.1692 50.0127 45.3193 49.9795 45.4712 49.9795H53.9101C54.0605 49.9793 54.2093 50.0117 54.3473 50.0745C54.4852 50.1373 54.6095 50.2292 54.712 50.3444C54.8146 50.4597 54.8933 50.5959 54.9433 50.7444C54.9933 50.893 55.0136 51.0508 55.0028 51.2079L54.5156 58.6922C54.4959 58.9822 54.3717 59.2536 54.1682 59.4513C53.9647 59.649 53.6969 59.7583 53.4194 59.7571Z" stroke="currentColor" stroke-width="3" stroke-miterlimit="10" />
    <path d="M54.6647 44.8524H44.4268C43.0751 44.8524 41.9792 46.0001 41.9792 47.4159C41.9792 48.8316 43.0751 49.9793 44.4268 49.9793H54.6647C56.0164 49.9793 57.1123 48.8316 57.1123 47.4159C57.1123 46.0001 56.0164 44.8524 54.6647 44.8524Z" stroke="currentColor" stroke-width="3" stroke-miterlimit="10" />
    <path d="M49.9362 39.9447V29.7476H49.8774V39.9447" stroke="currentColor" stroke-width="3" stroke-miterlimit="10" stroke-linecap="round" />
    <path d="M49.6871 28.7914C56.4873 28.7914 61.9999 23.0178 61.9999 15.8957C61.9999 8.77361 56.4873 3 49.6871 3C42.8869 3 37.3743 8.77361 37.3743 15.8957C37.3743 23.0178 42.8869 28.7914 49.6871 28.7914Z" stroke="#E23A05" stroke-width="3" stroke-miterlimit="10" />
    <path d="M23.8634 29.1666C24.9938 29.2355 28.6719 29.6192 29.8971 33.5253C30.903 33.435 31.9144 33.435 32.9203 33.5253C33.2668 33.6358 33.5759 33.848 33.8108 34.1367C34.0457 34.4255 34.1965 34.7788 34.2456 35.1546C34.2947 35.5305 34.2399 35.9133 34.0877 36.2575C33.9354 36.6018 33.6923 36.8931 33.3868 37.0969C32.3127 38.0853 30.9516 38.6652 29.5237 38.7429C29.5237 38.7429 26.2443 38.2497 26.228 42.7483C26.2118 47.2469 26.228 56.638 26.228 56.638C26.2142 56.7563 26.2235 56.8762 26.2556 56.9905C26.2877 57.1047 26.3418 57.211 26.4146 57.3025C26.4874 57.3941 26.5772 57.469 26.6787 57.5228C26.7802 57.5765 26.8911 57.6079 27.0047 57.615C27.0047 57.615 27.8167 57.5101 27.7815 59.1495C27.7463 60.7888 27.7708 60.9977 25.7842 60.9977C25.7842 60.9977 11.2113 60.9155 9.01366 60.9977C6.81597 61.0799 1.62216 59.0559 2.02183 50.3385C3.21991 51.3844 9.08039 56.5454 9.08039 56.5454C9.2139 53.6051 9.90034 50.7214 11.1001 48.0595C12.3 45.3976 13.9895 43.0099 16.0722 41.0333C19.9678 37.2812 19.0692 35.587 19.2027 33.8787C19.3363 32.1703 19.4023 29.3801 19.469 28.6129C19.5358 27.8456 19.6684 26.3111 20.1005 26.416C20.5326 26.5209 22.1646 28.3691 22.4641 28.543C22.8709 28.8745 23.3532 29.0893 23.8634 29.1666V29.1666Z" stroke="currentColor" stroke-width="3" stroke-miterlimit="10" />
    <path d="M33.5618 36.2456H30.4114" stroke="currentColor" stroke-width="3" stroke-miterlimit="10" stroke-linecap="round" />
    <path d="M22.6533 48.7928V53.2328" stroke="currentColor" stroke-width="3" stroke-miterlimit="10" stroke-linecap="round" />
    <path d="M15.7874 52.6346C16.6755 52.9535 17.4635 53.5207 18.0661 54.2748C18.6688 55.0289 19.0633 55.9412 19.2066 56.913C20.3163 56.913 23.6903 56.3083 23.601 58.8189C23.5116 61.3294 21.7813 60.9732 20.7141 60.9703" stroke="currentColor" stroke-width="3" stroke-miterlimit="10" stroke-linecap="round" />
</symbol><symbol viewBox="0 0 64 64" fill="none" id="cds-animalerie--new">
    <path d="M53.4194 59.7571H46.1119C45.8383 59.7571 45.5746 59.6498 45.3727 59.4564C45.1709 59.263 45.0455 58.9975 45.0212 58.7121L44.3816 51.2277C44.368 51.0693 44.386 50.9095 44.4346 50.7588C44.4833 50.6081 44.5614 50.4696 44.6639 50.3522C44.7664 50.2348 44.8912 50.141 45.0302 50.0768C45.1692 50.0127 45.3193 49.9795 45.4712 49.9795H53.9101C54.0605 49.9793 54.2093 50.0117 54.3473 50.0745C54.4852 50.1373 54.6095 50.2292 54.712 50.3444C54.8146 50.4597 54.8933 50.5959 54.9433 50.7444C54.9933 50.893 55.0136 51.0508 55.0028 51.2079L54.5156 58.6922C54.4959 58.9822 54.3717 59.2536 54.1682 59.4513C53.9647 59.649 53.6969 59.7583 53.4194 59.7571Z" stroke="currentColor" stroke-width="3" stroke-miterlimit="10" />
    <path d="M54.6647 44.8524H44.4268C43.0751 44.8524 41.9792 46.0001 41.9792 47.4159C41.9792 48.8316 43.0751 49.9793 44.4268 49.9793H54.6647C56.0164 49.9793 57.1123 48.8316 57.1123 47.4159C57.1123 46.0001 56.0164 44.8524 54.6647 44.8524Z" stroke="currentColor" stroke-width="3" stroke-miterlimit="10" />
    <path d="M49.9362 39.9447V29.7476H49.8774V39.9447" stroke="currentColor" stroke-width="3" stroke-miterlimit="10" stroke-linecap="round" />
    <path d="M49.6871 28.7914C56.4873 28.7914 61.9999 23.0178 61.9999 15.8957C61.9999 8.77361 56.4873 3 49.6871 3C42.8869 3 37.3743 8.77361 37.3743 15.8957C37.3743 23.0178 42.8869 28.7914 49.6871 28.7914Z" stroke="#E23A05" stroke-width="3" stroke-miterlimit="10" />
    <path d="M23.8634 29.1666C24.9938 29.2355 28.6719 29.6192 29.8971 33.5253C30.903 33.435 31.9144 33.435 32.9203 33.5253C33.2668 33.6358 33.5759 33.848 33.8108 34.1367C34.0457 34.4255 34.1965 34.7788 34.2456 35.1546C34.2947 35.5305 34.2399 35.9133 34.0877 36.2575C33.9354 36.6018 33.6923 36.8931 33.3868 37.0969C32.3127 38.0853 30.9516 38.6652 29.5237 38.7429C29.5237 38.7429 26.2443 38.2497 26.228 42.7483C26.2118 47.2469 26.228 56.638 26.228 56.638C26.2142 56.7563 26.2235 56.8762 26.2556 56.9905C26.2877 57.1047 26.3418 57.211 26.4146 57.3025C26.4874 57.3941 26.5772 57.469 26.6787 57.5228C26.7802 57.5765 26.8911 57.6079 27.0047 57.615C27.0047 57.615 27.8167 57.5101 27.7815 59.1495C27.7463 60.7888 27.7708 60.9977 25.7842 60.9977C25.7842 60.9977 11.2113 60.9155 9.01366 60.9977C6.81597 61.0799 1.62216 59.0559 2.02183 50.3385C3.21991 51.3844 9.08039 56.5454 9.08039 56.5454C9.2139 53.6051 9.90034 50.7214 11.1001 48.0595C12.3 45.3976 13.9895 43.0099 16.0722 41.0333C19.9678 37.2812 19.0692 35.587 19.2027 33.8787C19.3363 32.1703 19.4023 29.3801 19.469 28.6129C19.5358 27.8456 19.6684 26.3111 20.1005 26.416C20.5326 26.5209 22.1646 28.3691 22.4641 28.543C22.8709 28.8745 23.3532 29.0893 23.8634 29.1666V29.1666Z" stroke="currentColor" stroke-width="3" stroke-miterlimit="10" />
    <path d="M33.5618 36.2456H30.4114" stroke="currentColor" stroke-width="3" stroke-miterlimit="10" stroke-linecap="round" />
    <path d="M22.6533 48.7928V53.2328" stroke="currentColor" stroke-width="3" stroke-miterlimit="10" stroke-linecap="round" />
    <path d="M15.7874 52.6346C16.6755 52.9535 17.4635 53.5207 18.0661 54.2748C18.6688 55.0289 19.0633 55.9412 19.2066 56.913C20.3163 56.913 23.6903 56.3083 23.601 58.8189C23.5116 61.3294 21.7813 60.9732 20.7141 60.9703" stroke="currentColor" stroke-width="3" stroke-miterlimit="10" stroke-linecap="round" />
</symbol><symbol viewBox="0 0 64 64" fill="none" id="cds-auto-moto">
    <g clip-path="url(#cds-auto-moto_clip0_1103_1538)">
    <path d="M32 62C48.5685 62 62 48.5685 62 32C62 15.4315 48.5685 2 32 2C15.4315 2 2 15.4315 2 32C2 48.5685 15.4315 62 32 62Z" stroke="currentColor" stroke-width="3" stroke-linecap="round" stroke-linejoin="round" />
    <path d="M32.0011 55.4942C44.9761 55.4942 55.4943 44.9759 55.4943 32.001C55.4943 19.026 44.9761 8.50769 32.0011 8.50769C19.0261 8.50769 8.50781 19.026 8.50781 32.001C8.50781 44.9759 19.0261 55.4942 32.0011 55.4942Z" stroke="currentColor" stroke-width="3" stroke-linecap="round" stroke-linejoin="round" />
    <path d="M32.0001 32.8628C32.4766 32.8628 32.8629 32.4765 32.8629 31.9999C32.8629 31.5234 32.4766 31.1371 32.0001 31.1371C31.5235 31.1371 31.1372 31.5234 31.1372 31.9999C31.1372 32.4765 31.5235 32.8628 32.0001 32.8628Z" stroke="#E23A05" stroke-width="3" stroke-linecap="round" stroke-linejoin="round" />
    <path d="M28.6416 38.0056L29.5839 54.2303" stroke="currentColor" stroke-width="3" stroke-linecap="round" stroke-linejoin="round" />
    <path d="M35.3593 38.0056L34.417 54.2303" stroke="currentColor" stroke-width="3" stroke-linecap="round" stroke-linejoin="round" />
    <path d="M25.713 28.6624L9.48828 29.6046" stroke="currentColor" stroke-width="3" stroke-linecap="round" stroke-linejoin="round" />
    <path d="M25.713 35.3789L9.48828 34.4366" stroke="currentColor" stroke-width="3" stroke-linecap="round" stroke-linejoin="round" />
    <path d="M38.4155 35.4769L54.6402 34.5347" stroke="currentColor" stroke-width="3" stroke-linecap="round" stroke-linejoin="round" />
    <path d="M38.4155 28.7594L54.6402 29.7017" stroke="currentColor" stroke-width="3" stroke-linecap="round" stroke-linejoin="round" />
    <path d="M32.0003 38.4803C35.5792 38.4803 38.4805 35.579 38.4805 32C38.4805 28.4211 35.5792 25.5198 32.0003 25.5198C28.4213 25.5198 25.52 28.4211 25.52 32C25.52 35.579 28.4213 38.4803 32.0003 38.4803Z" stroke="#E23A05" stroke-width="3" stroke-linecap="round" stroke-linejoin="round" />
    </g>
    <defs>
    
    </defs>
</symbol><clipPath id="cds-auto-moto_clip0_1103_1538">
    <rect width="64" height="64" fill="white" />
    </clipPath><symbol viewBox="0 0 64 64" fill="none" id="cds-auto-moto--new">
    <g clip-path="url(#cds-auto-moto--new_clip0_1103_1538)">
    <path d="M32 62C48.5685 62 62 48.5685 62 32C62 15.4315 48.5685 2 32 2C15.4315 2 2 15.4315 2 32C2 48.5685 15.4315 62 32 62Z" stroke="currentColor" stroke-width="3" stroke-linecap="round" stroke-linejoin="round" />
    <path d="M32.0011 55.4942C44.9761 55.4942 55.4943 44.9759 55.4943 32.001C55.4943 19.026 44.9761 8.50769 32.0011 8.50769C19.0261 8.50769 8.50781 19.026 8.50781 32.001C8.50781 44.9759 19.0261 55.4942 32.0011 55.4942Z" stroke="currentColor" stroke-width="3" stroke-linecap="round" stroke-linejoin="round" />
    <path d="M32.0001 32.8628C32.4766 32.8628 32.8629 32.4765 32.8629 31.9999C32.8629 31.5234 32.4766 31.1371 32.0001 31.1371C31.5235 31.1371 31.1372 31.5234 31.1372 31.9999C31.1372 32.4765 31.5235 32.8628 32.0001 32.8628Z" stroke="#E23A05" stroke-width="3" stroke-linecap="round" stroke-linejoin="round" />
    <path d="M28.6416 38.0056L29.5839 54.2303" stroke="currentColor" stroke-width="3" stroke-linecap="round" stroke-linejoin="round" />
    <path d="M35.3593 38.0056L34.417 54.2303" stroke="currentColor" stroke-width="3" stroke-linecap="round" stroke-linejoin="round" />
    <path d="M25.713 28.6624L9.48828 29.6046" stroke="currentColor" stroke-width="3" stroke-linecap="round" stroke-linejoin="round" />
    <path d="M25.713 35.3789L9.48828 34.4366" stroke="currentColor" stroke-width="3" stroke-linecap="round" stroke-linejoin="round" />
    <path d="M38.4155 35.4769L54.6402 34.5347" stroke="currentColor" stroke-width="3" stroke-linecap="round" stroke-linejoin="round" />
    <path d="M38.4155 28.7594L54.6402 29.7017" stroke="currentColor" stroke-width="3" stroke-linecap="round" stroke-linejoin="round" />
    <path d="M32.0003 38.4803C35.5792 38.4803 38.4805 35.579 38.4805 32C38.4805 28.4211 35.5792 25.5198 32.0003 25.5198C28.4213 25.5198 25.52 28.4211 25.52 32C25.52 35.579 28.4213 38.4803 32.0003 38.4803Z" stroke="#E23A05" stroke-width="3" stroke-linecap="round" stroke-linejoin="round" />
    </g>
    <defs>
    
    </defs>
</symbol><clipPath id="cds-auto-moto--new_clip0_1103_1538">
    <rect width="64" height="64" fill="white" />
    </clipPath><symbol viewBox="0 0 64 64" fill="none" id="cds-bebe">
    <g clip-path="url(#cds-bebe_clip0_1103_1508)">
    <path d="M57.2303 19.2774L44.7281 6.77733C43.5558 5.60521 41.6551 5.60521 40.4828 6.77733L39.9336 7.32639C38.7613 8.4985 38.7613 10.3989 39.9337 11.571L52.4359 24.0711C53.6082 25.2432 55.5089 25.2432 56.6812 24.0711L57.2303 23.522C58.4027 22.3499 58.4027 20.4495 57.2303 19.2774Z" stroke="currentColor" stroke-width="3" stroke-linecap="round" stroke-linejoin="round" />
    <path d="M12.563 30.7606L33.6237 9.70754C34.2153 9.11979 35.0153 8.78992 35.8493 8.78992C36.6833 8.78992 37.4836 9.11979 38.0752 9.70754L54.3054 25.9349C54.8932 26.5265 55.2231 27.3265 55.2231 28.1603C55.2231 28.9942 54.8932 29.7942 54.3054 30.3857L23.5994 61.0823C23.0078 61.67 22.2078 61.9999 21.3738 61.9999C20.5397 61.9999 19.7395 61.67 19.1479 61.0823L2.91767 44.8549C2.32983 44.2634 2 43.4634 2 42.6295C2 41.7956 2.32983 40.9956 2.91767 40.4041L5.96317 37.3603" stroke="currentColor" stroke-width="3" stroke-linecap="round" stroke-linejoin="round" />
    <path d="M58.9668 16.4425C59.4591 15.6662 59.6667 14.7432 59.5542 13.8309C59.4417 12.9187 59.0161 12.0737 58.3501 11.4402L58.2513 11.3415C58.2261 11.3159 58.212 11.2813 58.212 11.2453C58.212 11.2093 58.2261 11.1748 58.2513 11.1491L60.8171 8.58383C61.454 7.96607 61.8609 7.14933 61.9702 6.26887C62.0795 5.38841 61.8848 4.49704 61.4182 3.74235C61.1093 3.26541 60.6977 2.86343 60.2136 2.56575C59.7295 2.26807 59.185 2.08221 58.6199 2.02171C58.0548 1.9612 57.4833 2.02757 56.9472 2.21601C56.411 2.40444 55.9239 2.71018 55.5209 3.11089L52.8643 5.76596C52.8516 5.77933 52.8364 5.78998 52.8195 5.79726C52.8025 5.80453 52.7842 5.80829 52.7657 5.80829C52.7473 5.80829 52.729 5.80453 52.712 5.79726C52.6951 5.78998 52.6797 5.77933 52.667 5.76596L52.5684 5.6673C51.9346 5.00129 51.0891 4.57574 50.1766 4.46329C49.264 4.35083 48.3408 4.55843 47.5642 5.05065L45.9033 6.71215L57.3071 18.104L58.9668 16.4425Z" stroke="currentColor" stroke-width="3" stroke-linecap="round" stroke-linejoin="round" />
    <path d="M42.3526 23.9045L17.626 48.627" stroke="#E23A05" stroke-width="3" stroke-linecap="round" stroke-linejoin="round" />
    <path d="M26.9364 47.8899L22.6504 43.6039" stroke="#E23A05" stroke-width="3" stroke-linecap="round" stroke-linejoin="round" />
    <path d="M34.2753 40.5522L29.9893 36.2662" stroke="#E23A05" stroke-width="3" stroke-linecap="round" stroke-linejoin="round" />
    <path d="M41.6151 33.2135L37.3291 28.9275" stroke="#E23A05" stroke-width="3" stroke-linecap="round" stroke-linejoin="round" />
    </g>
    <defs>
    
    </defs>
</symbol><clipPath id="cds-bebe_clip0_1103_1508">
    <rect width="64" height="64" fill="white" />
    </clipPath><symbol viewBox="0 0 64 64" fill="none" id="cds-bebe--new">
    <g clip-path="url(#cds-bebe--new_clip0_1103_1508)">
    <path d="M57.2303 19.2774L44.7281 6.77733C43.5558 5.60521 41.6551 5.60521 40.4828 6.77733L39.9336 7.32639C38.7613 8.4985 38.7613 10.3989 39.9337 11.571L52.4359 24.0711C53.6082 25.2432 55.5089 25.2432 56.6812 24.0711L57.2303 23.522C58.4027 22.3499 58.4027 20.4495 57.2303 19.2774Z" stroke="currentColor" stroke-width="3" stroke-linecap="round" stroke-linejoin="round" />
    <path d="M12.563 30.7606L33.6237 9.70754C34.2153 9.11979 35.0153 8.78992 35.8493 8.78992C36.6833 8.78992 37.4836 9.11979 38.0752 9.70754L54.3054 25.9349C54.8932 26.5265 55.2231 27.3265 55.2231 28.1603C55.2231 28.9942 54.8932 29.7942 54.3054 30.3857L23.5994 61.0823C23.0078 61.67 22.2078 61.9999 21.3738 61.9999C20.5397 61.9999 19.7395 61.67 19.1479 61.0823L2.91767 44.8549C2.32983 44.2634 2 43.4634 2 42.6295C2 41.7956 2.32983 40.9956 2.91767 40.4041L5.96317 37.3603" stroke="currentColor" stroke-width="3" stroke-linecap="round" stroke-linejoin="round" />
    <path d="M58.9668 16.4425C59.4591 15.6662 59.6667 14.7432 59.5542 13.8309C59.4417 12.9187 59.0161 12.0737 58.3501 11.4402L58.2513 11.3415C58.2261 11.3159 58.212 11.2813 58.212 11.2453C58.212 11.2093 58.2261 11.1748 58.2513 11.1491L60.8171 8.58383C61.454 7.96607 61.8609 7.14933 61.9702 6.26887C62.0795 5.38841 61.8848 4.49704 61.4182 3.74235C61.1093 3.26541 60.6977 2.86343 60.2136 2.56575C59.7295 2.26807 59.185 2.08221 58.6199 2.02171C58.0548 1.9612 57.4833 2.02757 56.9472 2.21601C56.411 2.40444 55.9239 2.71018 55.5209 3.11089L52.8643 5.76596C52.8516 5.77933 52.8364 5.78998 52.8195 5.79726C52.8025 5.80453 52.7842 5.80829 52.7657 5.80829C52.7473 5.80829 52.729 5.80453 52.712 5.79726C52.6951 5.78998 52.6797 5.77933 52.667 5.76596L52.5684 5.6673C51.9346 5.00129 51.0891 4.57574 50.1766 4.46329C49.264 4.35083 48.3408 4.55843 47.5642 5.05065L45.9033 6.71215L57.3071 18.104L58.9668 16.4425Z" stroke="currentColor" stroke-width="3" stroke-linecap="round" stroke-linejoin="round" />
    <path d="M42.3526 23.9045L17.626 48.627" stroke="#E23A05" stroke-width="3" stroke-linecap="round" stroke-linejoin="round" />
    <path d="M26.9364 47.8899L22.6504 43.6039" stroke="#E23A05" stroke-width="3" stroke-linecap="round" stroke-linejoin="round" />
    <path d="M34.2753 40.5522L29.9893 36.2662" stroke="#E23A05" stroke-width="3" stroke-linecap="round" stroke-linejoin="round" />
    <path d="M41.6151 33.2135L37.3291 28.9275" stroke="#E23A05" stroke-width="3" stroke-linecap="round" stroke-linejoin="round" />
    </g>
    <defs>
    
    </defs>
</symbol><clipPath id="cds-bebe--new_clip0_1103_1508">
    <rect width="64" height="64" fill="white" />
    </clipPath><symbol viewBox="0 0 64 64" fill="none" id="cds-brico">
<g clip-path="url(#cds-brico_clip0_1103_1536)">
<path d="M11.7729 19.7775C11.7729 19.7775 11.5893 10.8851 16.4104 10.8851C21.2316 10.8851 21.3473 16.0702 21.3473 19.7775V41.4448" stroke="currentColor" stroke-width="3" stroke-linecap="round" stroke-linejoin="round" />
<path d="M29.7671 41.4448V17.5553C29.7671 17.5553 30.3722 2 17.3377 2C6.9818 2 3.0542 8.66656 3.0542 19.9627" stroke="currentColor" stroke-width="3" stroke-linecap="round" stroke-linejoin="round" />
<path d="M3.0542 24.3337H11.7718" stroke="currentColor" stroke-width="3" stroke-linecap="round" stroke-linejoin="round" />
<path d="M36.9962 62H14.1787L20.1147 42.1846H31.0592L36.9962 62Z" stroke="currentColor" stroke-width="3" stroke-linecap="round" stroke-linejoin="round" />
<path d="M12.1015 38.9293C12.1015 40.2665 11.5693 41.549 10.6221 42.4945C9.67491 43.4401 8.39028 43.9714 7.05074 43.9714C5.7112 43.9714 4.42646 43.4401 3.47926 42.4945C2.53206 41.549 2 40.2665 2 38.9293L7.05074 29.7618L12.1015 38.9293Z" stroke="currentColor" stroke-width="3" stroke-linecap="round" stroke-linejoin="round" />
<path d="M56.0851 21.4066C56.4121 23.3268 56.1847 25.3002 55.4298 27.0962C54.6748 28.8922 53.4233 30.4366 51.8216 31.5489C50.2199 32.6611 48.3343 33.2952 46.3849 33.3771C44.4356 33.459 42.5031 32.9854 40.8135 32.0115" stroke="#E23A05" stroke-width="3" stroke-linecap="round" stroke-linejoin="round" />
<path d="M35.817 24.7976C35.4866 22.793 35.7599 20.7356 36.6022 18.8862C37.4445 17.0368 38.8179 15.4788 40.5482 14.4096C42.2786 13.3404 44.2882 12.8081 46.3219 12.8803C48.3557 12.9525 50.3221 13.6259 51.972 14.8151" stroke="#E23A05" stroke-width="3" stroke-linecap="round" stroke-linejoin="round" />
<path d="M35.8188 24.7957L43.0056 19.5557L48.1427 21.5991L48.0104 26.7044L40.8191 32.0069" stroke="#E23A05" stroke-width="3" stroke-linecap="round" stroke-linejoin="round" />
<path d="M51.9663 14.817L61.9989 7.1145" stroke="#E23A05" stroke-width="3" stroke-linecap="round" stroke-linejoin="round" />
<path d="M56.0833 21.4057L62 17.1501" stroke="#E23A05" stroke-width="3" stroke-linecap="round" stroke-linejoin="round" />
</g>
<defs>

</defs>
</symbol><clipPath id="cds-brico_clip0_1103_1536">
<rect width="64" height="64" fill="white" />
</clipPath><symbol viewBox="0 0 64 64" fill="none" id="cds-brico--new">
<g clip-path="url(#cds-brico--new_clip0_1103_1536)">
<path d="M11.7729 19.7775C11.7729 19.7775 11.5893 10.8851 16.4104 10.8851C21.2316 10.8851 21.3473 16.0702 21.3473 19.7775V41.4448" stroke="currentColor" stroke-width="3" stroke-linecap="round" stroke-linejoin="round" />
<path d="M29.7671 41.4448V17.5553C29.7671 17.5553 30.3722 2 17.3377 2C6.9818 2 3.0542 8.66656 3.0542 19.9627" stroke="currentColor" stroke-width="3" stroke-linecap="round" stroke-linejoin="round" />
<path d="M3.0542 24.3337H11.7718" stroke="currentColor" stroke-width="3" stroke-linecap="round" stroke-linejoin="round" />
<path d="M36.9962 62H14.1787L20.1147 42.1846H31.0592L36.9962 62Z" stroke="currentColor" stroke-width="3" stroke-linecap="round" stroke-linejoin="round" />
<path d="M12.1015 38.9293C12.1015 40.2665 11.5693 41.549 10.6221 42.4945C9.67491 43.4401 8.39028 43.9714 7.05074 43.9714C5.7112 43.9714 4.42646 43.4401 3.47926 42.4945C2.53206 41.549 2 40.2665 2 38.9293L7.05074 29.7618L12.1015 38.9293Z" stroke="currentColor" stroke-width="3" stroke-linecap="round" stroke-linejoin="round" />
<path d="M56.0851 21.4066C56.4121 23.3268 56.1847 25.3002 55.4298 27.0962C54.6748 28.8922 53.4233 30.4366 51.8216 31.5489C50.2199 32.6611 48.3343 33.2952 46.3849 33.3771C44.4356 33.459 42.5031 32.9854 40.8135 32.0115" stroke="#E23A05" stroke-width="3" stroke-linecap="round" stroke-linejoin="round" />
<path d="M35.817 24.7976C35.4866 22.793 35.7599 20.7356 36.6022 18.8862C37.4445 17.0368 38.8179 15.4788 40.5482 14.4096C42.2786 13.3404 44.2882 12.8081 46.3219 12.8803C48.3557 12.9525 50.3221 13.6259 51.972 14.8151" stroke="#E23A05" stroke-width="3" stroke-linecap="round" stroke-linejoin="round" />
<path d="M35.8188 24.7957L43.0056 19.5557L48.1427 21.5991L48.0104 26.7044L40.8191 32.0069" stroke="#E23A05" stroke-width="3" stroke-linecap="round" stroke-linejoin="round" />
<path d="M51.9663 14.817L61.9989 7.1145" stroke="#E23A05" stroke-width="3" stroke-linecap="round" stroke-linejoin="round" />
<path d="M56.0833 21.4057L62 17.1501" stroke="#E23A05" stroke-width="3" stroke-linecap="round" stroke-linejoin="round" />
</g>
<defs>

</defs>
</symbol><clipPath id="cds-brico--new_clip0_1103_1536">
<rect width="64" height="64" fill="white" />
</clipPath><symbol viewBox="0 0 64 64" fill="none" id="cds-electro">
    <path d="M54 57.257V6.74304C54 4.12353 51.8354 2 49.1652 2L14.8348 2C12.1646 2 10 4.12353 10 6.74304V57.257C10 59.8765 12.1646 62 14.8348 62H49.1652C51.8354 62 54 59.8765 54 57.257Z" stroke="currentColor" stroke-width="3" stroke-linecap="round" stroke-linejoin="round" />
    <path d="M16.3157 8.1228H22.5499" stroke="currentColor" stroke-width="3" stroke-linecap="round" stroke-linejoin="round" />
    <path d="M15.7444 14.0417H48.2567" stroke="currentColor" stroke-width="3" stroke-linecap="round" stroke-linejoin="round" />
    <path d="M32.0005 50.5383C38.9415 50.5383 44.5683 45.0183 44.5683 38.209C44.5683 31.3997 38.9415 25.8796 32.0005 25.8796C25.0594 25.8796 19.4326 31.3997 19.4326 38.209C19.4326 45.0183 25.0594 50.5383 32.0005 50.5383Z" stroke="#E13B13" stroke-width="3" stroke-miterlimit="10" stroke-linecap="round" />
    <path d="M19.8403 39.2421C19.8403 39.2421 26.3215 35.0525 30.9465 38.209C35.5715 41.3654 38.2026 42.6733 44.4278 37.9638" stroke="#E13B13" stroke-width="3" stroke-miterlimit="10" stroke-linecap="round" />
    <path d="M40.1964 10.0018C41.2537 10.0018 42.1109 9.16096 42.1109 8.12371C42.1109 7.08646 41.2537 6.24561 40.1964 6.24561C39.1391 6.24561 38.282 7.08646 38.282 8.12371C38.282 9.16096 39.1391 10.0018 40.1964 10.0018Z" fill="#E13B13" />
    <path d="M46.3412 10.0018C47.3985 10.0018 48.2556 9.16096 48.2556 8.12371C48.2556 7.08646 47.3985 6.24561 46.3412 6.24561C45.2839 6.24561 44.4268 7.08646 44.4268 8.12371C44.4268 9.16096 45.2839 10.0018 46.3412 10.0018Z" fill="#E13B13" />
</symbol><symbol viewBox="0 0 64 64" fill="none" id="cds-electro--new">
    <path d="M54 57.257V6.74304C54 4.12353 51.8354 2 49.1652 2L14.8348 2C12.1646 2 10 4.12353 10 6.74304V57.257C10 59.8765 12.1646 62 14.8348 62H49.1652C51.8354 62 54 59.8765 54 57.257Z" stroke="currentColor" stroke-width="3" stroke-linecap="round" stroke-linejoin="round" />
    <path d="M16.3157 8.1228H22.5499" stroke="currentColor" stroke-width="3" stroke-linecap="round" stroke-linejoin="round" />
    <path d="M15.7444 14.0417H48.2567" stroke="currentColor" stroke-width="3" stroke-linecap="round" stroke-linejoin="round" />
    <path d="M32.0005 50.5383C38.9415 50.5383 44.5683 45.0183 44.5683 38.209C44.5683 31.3997 38.9415 25.8796 32.0005 25.8796C25.0594 25.8796 19.4326 31.3997 19.4326 38.209C19.4326 45.0183 25.0594 50.5383 32.0005 50.5383Z" stroke="#E13B13" stroke-width="3" stroke-miterlimit="10" stroke-linecap="round" />
    <path d="M19.8403 39.2421C19.8403 39.2421 26.3215 35.0525 30.9465 38.209C35.5715 41.3654 38.2026 42.6733 44.4278 37.9638" stroke="#E13B13" stroke-width="3" stroke-miterlimit="10" stroke-linecap="round" />
    <path d="M40.1964 10.0018C41.2537 10.0018 42.1109 9.16096 42.1109 8.12371C42.1109 7.08646 41.2537 6.24561 40.1964 6.24561C39.1391 6.24561 38.282 7.08646 38.282 8.12371C38.282 9.16096 39.1391 10.0018 40.1964 10.0018Z" fill="#E13B13" />
    <path d="M46.3412 10.0018C47.3985 10.0018 48.2556 9.16096 48.2556 8.12371C48.2556 7.08646 47.3985 6.24561 46.3412 6.24561C45.2839 6.24561 44.4268 7.08646 44.4268 8.12371C44.4268 9.16096 45.2839 10.0018 46.3412 10.0018Z" fill="#E13B13" />
</symbol><symbol viewBox="0 0 64 64" fill="none" id="cds-gaming">
    <path d="M31.9945 17.3664C31.9945 17.3664 32.8818 17.7988 36.2454 15.9245C39.609 14.0502 47.2124 9.72371 54.9626 17.3664C62.7128 25.009 61.9816 40.4333 61.9816 44.7589C61.9816 49.0846 59.3493 50.8134 56.8662 50.9597C55.9103 51.0727 54.9409 50.9471 54.047 50.5943C53.1532 50.2415 52.3636 49.6729 51.7509 48.9407C50.2884 47.4997 45.8329 43.5146 44.2681 42.3092C40.7317 39.5858 31.9996 39.1807 31.9996 39.1807C31.9996 39.1807 23.2683 39.5858 19.7319 42.3092C18.1671 43.5146 13.7117 47.4997 12.2492 48.9407C11.6365 49.6729 10.8469 50.2415 9.95306 50.5943C9.05923 50.9471 8.08973 51.0727 7.13379 50.9597C4.64822 50.815 2.01843 49.0854 2.01843 44.7589C2.01843 40.4324 1.28718 25.0074 9.03739 17.3664C16.7876 9.72536 24.392 14.0502 27.7547 15.9245C31.1174 17.7988 31.9945 17.3664 31.9945 17.3664Z" stroke="currentColor" stroke-width="3" stroke-linecap="round" stroke-linejoin="round" />
    <path d="M45.5499 23.7656C46.5331 23.7656 47.3302 22.9797 47.3302 22.0104C47.3302 21.041 46.5331 20.2551 45.5499 20.2551C44.5666 20.2551 43.7695 21.041 43.7695 22.0104C43.7695 22.9797 44.5666 23.7656 45.5499 23.7656Z" fill="#E13B13" />
    <path d="M41.1778 27.6085C42.161 27.6085 42.9581 26.8226 42.9581 25.8533C42.9581 24.8839 42.161 24.098 41.1778 24.098C40.1945 24.098 39.3975 24.8839 39.3975 25.8533C39.3975 26.8226 40.1945 27.6085 41.1778 27.6085Z" fill="#E13B13" />
    <path d="M49.9302 27.6085C50.9135 27.6085 51.7105 26.8226 51.7105 25.8533C51.7105 24.8839 50.9135 24.098 49.9302 24.098C48.947 24.098 48.1499 24.8839 48.1499 25.8533C48.1499 26.8226 48.947 27.6085 49.9302 27.6085Z" fill="#E13B13" />
    <path d="M45.5547 31.0437C46.538 31.0437 47.3351 30.2578 47.3351 29.2884C47.3351 28.319 46.538 27.5332 45.5547 27.5332C44.5715 27.5332 43.7744 28.319 43.7744 29.2884C43.7744 30.2578 44.5715 31.0437 45.5547 31.0437Z" fill="#E13B13" />
    <path d="M23.7387 24.1691H20.5144C20.4053 24.1691 20.3324 24.1046 20.3324 24.0624V21.1125C20.3151 20.6596 20.1204 20.2309 19.7893 19.9166C19.4582 19.6022 19.0164 19.4265 18.5567 19.4265C18.097 19.4265 17.6551 19.6022 17.324 19.9166C16.9929 20.2309 16.7982 20.6596 16.781 21.1125V24.0624C16.781 24.1046 16.708 24.1691 16.5989 24.1691H13.3754C13.1447 24.159 12.9144 24.1951 12.6983 24.2752C12.4821 24.3553 12.2846 24.4777 12.1177 24.6351C11.9509 24.7925 11.818 24.9815 11.7273 25.1909C11.6366 25.4003 11.5898 25.6256 11.5898 25.8532C11.5898 26.0809 11.6366 26.3062 11.7273 26.5155C11.818 26.7249 11.9509 26.914 12.1177 27.0714C12.2846 27.2287 12.4821 27.3512 12.6983 27.4313C12.9144 27.5113 13.1447 27.5474 13.3754 27.5374H16.5989C16.708 27.5374 16.781 27.6018 16.781 27.6448V30.5939C16.7982 31.0468 16.9929 31.4755 17.324 31.7899C17.6551 32.1043 18.097 32.28 18.5567 32.28C19.0164 32.28 19.4582 32.1043 19.7893 31.7899C20.1204 31.4755 20.3151 31.0468 20.3324 30.5939V27.6448C20.3324 27.6018 20.4053 27.5374 20.5144 27.5374H23.7387C23.9694 27.5474 24.1998 27.5113 24.416 27.4313C24.6321 27.3512 24.8295 27.2287 24.9964 27.0714C25.1632 26.914 25.2961 26.7249 25.3868 26.5155C25.4775 26.3062 25.5243 26.0809 25.5243 25.8532C25.5243 25.6256 25.4775 25.4003 25.3868 25.1909C25.2961 24.9815 25.1632 24.7925 24.9964 24.6351C24.8295 24.4777 24.6321 24.3553 24.416 24.2752C24.1998 24.1951 23.9694 24.159 23.7387 24.1691V24.1691Z" fill="#E23B13" />
</symbol><symbol viewBox="0 0 64 64" fill="none" id="cds-gaming--new">
    <path d="M31.9945 17.3664C31.9945 17.3664 32.8818 17.7988 36.2454 15.9245C39.609 14.0502 47.2124 9.72371 54.9626 17.3664C62.7128 25.009 61.9816 40.4333 61.9816 44.7589C61.9816 49.0846 59.3493 50.8134 56.8662 50.9597C55.9103 51.0727 54.9409 50.9471 54.047 50.5943C53.1532 50.2415 52.3636 49.6729 51.7509 48.9407C50.2884 47.4997 45.8329 43.5146 44.2681 42.3092C40.7317 39.5858 31.9996 39.1807 31.9996 39.1807C31.9996 39.1807 23.2683 39.5858 19.7319 42.3092C18.1671 43.5146 13.7117 47.4997 12.2492 48.9407C11.6365 49.6729 10.8469 50.2415 9.95306 50.5943C9.05923 50.9471 8.08973 51.0727 7.13379 50.9597C4.64822 50.815 2.01843 49.0854 2.01843 44.7589C2.01843 40.4324 1.28718 25.0074 9.03739 17.3664C16.7876 9.72536 24.392 14.0502 27.7547 15.9245C31.1174 17.7988 31.9945 17.3664 31.9945 17.3664Z" stroke="currentColor" stroke-width="3" stroke-linecap="round" stroke-linejoin="round" />
    <path d="M45.5499 23.7656C46.5331 23.7656 47.3302 22.9797 47.3302 22.0104C47.3302 21.041 46.5331 20.2551 45.5499 20.2551C44.5666 20.2551 43.7695 21.041 43.7695 22.0104C43.7695 22.9797 44.5666 23.7656 45.5499 23.7656Z" fill="#E13B13" />
    <path d="M41.1778 27.6085C42.161 27.6085 42.9581 26.8226 42.9581 25.8533C42.9581 24.8839 42.161 24.098 41.1778 24.098C40.1945 24.098 39.3975 24.8839 39.3975 25.8533C39.3975 26.8226 40.1945 27.6085 41.1778 27.6085Z" fill="#E13B13" />
    <path d="M49.9302 27.6085C50.9135 27.6085 51.7105 26.8226 51.7105 25.8533C51.7105 24.8839 50.9135 24.098 49.9302 24.098C48.947 24.098 48.1499 24.8839 48.1499 25.8533C48.1499 26.8226 48.947 27.6085 49.9302 27.6085Z" fill="#E13B13" />
    <path d="M45.5547 31.0437C46.538 31.0437 47.3351 30.2578 47.3351 29.2884C47.3351 28.319 46.538 27.5332 45.5547 27.5332C44.5715 27.5332 43.7744 28.319 43.7744 29.2884C43.7744 30.2578 44.5715 31.0437 45.5547 31.0437Z" fill="#E13B13" />
    <path d="M23.7387 24.1691H20.5144C20.4053 24.1691 20.3324 24.1046 20.3324 24.0624V21.1125C20.3151 20.6596 20.1204 20.2309 19.7893 19.9166C19.4582 19.6022 19.0164 19.4265 18.5567 19.4265C18.097 19.4265 17.6551 19.6022 17.324 19.9166C16.9929 20.2309 16.7982 20.6596 16.781 21.1125V24.0624C16.781 24.1046 16.708 24.1691 16.5989 24.1691H13.3754C13.1447 24.159 12.9144 24.1951 12.6983 24.2752C12.4821 24.3553 12.2846 24.4777 12.1177 24.6351C11.9509 24.7925 11.818 24.9815 11.7273 25.1909C11.6366 25.4003 11.5898 25.6256 11.5898 25.8532C11.5898 26.0809 11.6366 26.3062 11.7273 26.5155C11.818 26.7249 11.9509 26.914 12.1177 27.0714C12.2846 27.2287 12.4821 27.3512 12.6983 27.4313C12.9144 27.5113 13.1447 27.5474 13.3754 27.5374H16.5989C16.708 27.5374 16.781 27.6018 16.781 27.6448V30.5939C16.7982 31.0468 16.9929 31.4755 17.324 31.7899C17.6551 32.1043 18.097 32.28 18.5567 32.28C19.0164 32.28 19.4582 32.1043 19.7893 31.7899C20.1204 31.4755 20.3151 31.0468 20.3324 30.5939V27.6448C20.3324 27.6018 20.4053 27.5374 20.5144 27.5374H23.7387C23.9694 27.5474 24.1998 27.5113 24.416 27.4313C24.6321 27.3512 24.8295 27.2287 24.9964 27.0714C25.1632 26.914 25.2961 26.7249 25.3868 26.5155C25.4775 26.3062 25.5243 26.0809 25.5243 25.8532C25.5243 25.6256 25.4775 25.4003 25.3868 25.1909C25.2961 24.9815 25.1632 24.7925 24.9964 24.6351C24.8295 24.4777 24.6321 24.3553 24.416 24.2752C24.1998 24.1951 23.9694 24.159 23.7387 24.1691V24.1691Z" fill="#E23B13" />
</symbol><symbol viewBox="0 0 64 64" fill="none" id="cds-informatique">
    <path d="M53.6719 14H10.3496C8.82501 14 7.58911 15.2365 7.58911 16.7618V41.3843C7.58911 42.9096 8.82501 44.1461 10.3496 44.1461H53.6719C55.1964 44.1461 56.4323 42.9096 56.4323 41.3843V16.7618C56.4323 15.2365 55.1964 14 53.6719 14Z" stroke="currentColor" stroke-width="3" stroke-linecap="round" stroke-linejoin="round" />
    <path d="M2 50H62" stroke="currentColor" stroke-width="3" stroke-linecap="round" stroke-linejoin="round" />
    <path d="M50.08 20.0546H48.1453" stroke="#E23A05" stroke-width="3" stroke-linecap="round" stroke-linejoin="round" />
    <path d="M42.5314 20.0546H40.5967" stroke="#E23A05" stroke-width="3" stroke-linecap="round" stroke-linejoin="round" />
    <path d="M50.08 26.0673H48.1453" stroke="#E23A05" stroke-width="3" stroke-linecap="round" stroke-linejoin="round" />
    <path d="M42.5314 26.0673H40.5967" stroke="#E23A05" stroke-width="3" stroke-linecap="round" stroke-linejoin="round" />
    <path d="M50.08 32.0798H48.1453" stroke="#E23A05" stroke-width="3" stroke-linecap="round" stroke-linejoin="round" />
    <path d="M50.08 38.0925H48.1453" stroke="#E23A05" stroke-width="3" stroke-linecap="round" stroke-linejoin="round" />
</symbol><symbol viewBox="0 0 64 64" fill="none" id="cds-informatique--new">
    <path d="M53.6719 14H10.3496C8.82501 14 7.58911 15.2365 7.58911 16.7618V41.3843C7.58911 42.9096 8.82501 44.1461 10.3496 44.1461H53.6719C55.1964 44.1461 56.4323 42.9096 56.4323 41.3843V16.7618C56.4323 15.2365 55.1964 14 53.6719 14Z" stroke="currentColor" stroke-width="3" stroke-linecap="round" stroke-linejoin="round" />
    <path d="M2 50H62" stroke="currentColor" stroke-width="3" stroke-linecap="round" stroke-linejoin="round" />
    <path d="M50.08 20.0546H48.1453" stroke="#E23A05" stroke-width="3" stroke-linecap="round" stroke-linejoin="round" />
    <path d="M42.5314 20.0546H40.5967" stroke="#E23A05" stroke-width="3" stroke-linecap="round" stroke-linejoin="round" />
    <path d="M50.08 26.0673H48.1453" stroke="#E23A05" stroke-width="3" stroke-linecap="round" stroke-linejoin="round" />
    <path d="M42.5314 26.0673H40.5967" stroke="#E23A05" stroke-width="3" stroke-linecap="round" stroke-linejoin="round" />
    <path d="M50.08 32.0798H48.1453" stroke="#E23A05" stroke-width="3" stroke-linecap="round" stroke-linejoin="round" />
    <path d="M50.08 38.0925H48.1453" stroke="#E23A05" stroke-width="3" stroke-linecap="round" stroke-linejoin="round" />
</symbol><symbol viewBox="0 0 64 64" fill="none" id="cds-jardin">
    <path fill-rule="evenodd" clip-rule="evenodd" d="M9.03019 24.562C8.3778 24.0514 7.43503 24.1664 6.92447 24.8188C6.4139 25.4712 6.52887 26.4139 7.18126 26.9245L7.32273 27.0352C5.36812 31.2482 4.55564 34.8433 4.71288 37.9051C4.88089 41.1767 6.15354 43.7484 8.13661 45.6954C11.9951 49.4837 18.3674 50.7455 23.9319 50.9985C24.7595 51.0361 25.4609 50.3957 25.4985 49.5681C25.5361 48.7406 24.8957 48.0392 24.0682 48.0016C18.6327 47.7545 13.2549 46.5164 10.2384 43.5547C8.78393 42.1267 7.83781 40.2609 7.70893 37.7512C7.59133 35.4613 8.15262 32.5674 9.75422 28.9381L27.8187 43.0756C28.4711 43.5861 29.4139 43.4712 29.9245 42.8188C30.435 42.1664 30.3201 41.2236 29.6677 40.713L9.03019 24.562Z" fill="#E23A05" />
    <circle cx="30" cy="49" r="5.5" stroke="currentColor" stroke-width="3" />
    <circle cx="58.5" cy="50.5" r="4" stroke="currentColor" stroke-width="3" />
    <path fill-rule="evenodd" clip-rule="evenodd" d="M6.13889 10.9762C6.67802 10.3472 6.60518 9.40028 5.97619 8.86114C5.3472 8.32201 4.40025 8.39485 3.86112 9.02384L0.86112 12.5238C0.597462 12.8314 0.469442 13.2326 0.506187 13.6361C0.542933 14.0395 0.741319 14.411 1.05621 14.6659L30.586 38.571C30.1515 38.9069 29.7941 39.3371 29.5137 39.7326C28.8761 40.6321 28.3722 41.7354 28.0955 42.4733C27.8046 43.249 28.1976 44.1136 28.9733 44.4045C29.749 44.6954 30.6136 44.3024 30.9045 43.5267C31.1278 42.9313 31.5239 42.0845 31.9613 41.4674C32.1069 41.2619 32.2301 41.1208 32.3231 41.0304C34.5579 41.8657 46.1319 46.5418 52.9208 49.3837C53.685 49.7036 54.5638 49.3434 54.8837 48.5792C55.2036 47.8151 54.8434 46.9363 54.0792 46.6164C53.732 46.471 53.3716 46.3206 53 46.1659V42C53 41.6214 52.8568 41.2568 52.5992 40.9794L46.0992 33.9793C45.8315 33.691 45.4612 33.5194 45.0681 33.5016L34.0681 33.0016C33.6589 32.983 33.2599 33.1325 32.9637 33.4156C32.6675 33.6986 32.5 34.0904 32.5 34.5V36.2606L4.14291 13.3049L6.13889 10.9762ZM50 42.5891V44.924C44.9075 42.8258 38.8759 40.3848 35.5 39.0493V36.0698L44.3186 36.4706L50 42.5891ZM35.5 50C34.6716 50 34 50.6716 34 51.5C34 52.3285 34.6716 53 35.5 53H54.5C55.3284 53 56 52.3285 56 51.5C56 50.6716 55.3284 50 54.5 50H35.5Z" fill="currentColor" />
</symbol><symbol viewBox="0 0 64 64" fill="none" id="cds-jardin--new">
    <path fill-rule="evenodd" clip-rule="evenodd" d="M9.03019 24.562C8.3778 24.0514 7.43503 24.1664 6.92447 24.8188C6.4139 25.4712 6.52887 26.4139 7.18126 26.9245L7.32273 27.0352C5.36812 31.2482 4.55564 34.8433 4.71288 37.9051C4.88089 41.1767 6.15354 43.7484 8.13661 45.6954C11.9951 49.4837 18.3674 50.7455 23.9319 50.9985C24.7595 51.0361 25.4609 50.3957 25.4985 49.5681C25.5361 48.7406 24.8957 48.0392 24.0682 48.0016C18.6327 47.7545 13.2549 46.5164 10.2384 43.5547C8.78393 42.1267 7.83781 40.2609 7.70893 37.7512C7.59133 35.4613 8.15262 32.5674 9.75422 28.9381L27.8187 43.0756C28.4711 43.5861 29.4139 43.4712 29.9245 42.8188C30.435 42.1664 30.3201 41.2236 29.6677 40.713L9.03019 24.562Z" fill="#E23A05" />
    <circle cx="30" cy="49" r="5.5" stroke="currentColor" stroke-width="3" />
    <circle cx="58.5" cy="50.5" r="4" stroke="currentColor" stroke-width="3" />
    <path fill-rule="evenodd" clip-rule="evenodd" d="M6.13889 10.9762C6.67802 10.3472 6.60518 9.40028 5.97619 8.86114C5.3472 8.32201 4.40025 8.39485 3.86112 9.02384L0.86112 12.5238C0.597462 12.8314 0.469442 13.2326 0.506187 13.6361C0.542933 14.0395 0.741319 14.411 1.05621 14.6659L30.586 38.571C30.1515 38.9069 29.7941 39.3371 29.5137 39.7326C28.8761 40.6321 28.3722 41.7354 28.0955 42.4733C27.8046 43.249 28.1976 44.1136 28.9733 44.4045C29.749 44.6954 30.6136 44.3024 30.9045 43.5267C31.1278 42.9313 31.5239 42.0845 31.9613 41.4674C32.1069 41.2619 32.2301 41.1208 32.3231 41.0304C34.5579 41.8657 46.1319 46.5418 52.9208 49.3837C53.685 49.7036 54.5638 49.3434 54.8837 48.5792C55.2036 47.8151 54.8434 46.9363 54.0792 46.6164C53.732 46.471 53.3716 46.3206 53 46.1659V42C53 41.6214 52.8568 41.2568 52.5992 40.9794L46.0992 33.9793C45.8315 33.691 45.4612 33.5194 45.0681 33.5016L34.0681 33.0016C33.6589 32.983 33.2599 33.1325 32.9637 33.4156C32.6675 33.6986 32.5 34.0904 32.5 34.5V36.2606L4.14291 13.3049L6.13889 10.9762ZM50 42.5891V44.924C44.9075 42.8258 38.8759 40.3848 35.5 39.0493V36.0698L44.3186 36.4706L50 42.5891ZM35.5 50C34.6716 50 34 50.6716 34 51.5C34 52.3285 34.6716 53 35.5 53H54.5C55.3284 53 56 52.3285 56 51.5C56 50.6716 55.3284 50 54.5 50H35.5Z" fill="currentColor" />
</symbol><symbol viewBox="0 0 64 64" fill="none" id="cds-jouet">
    <g clip-path="url(#cds-jouet_clip0_1103_1509)">
    <path d="M5.47191 58.051C3.63243 57.5097 2.00195 56.4876 2.00195 54.5588C2.00195 52.6299 3.62781 50.5448 5.47191 51.0675C35.1577 59.4813 58.5302 51.0675 58.5302 51.0675C60.9252 50.4165 62.0001 52.6308 62.0001 54.5588C62.0001 56.4867 60.5592 57.3878 58.5302 58.051C58.5256 58.051 35.6975 66.9364 5.47191 58.051Z" stroke="currentColor" stroke-width="3" stroke-linecap="round" stroke-linejoin="round" />
    <path d="M36.6123 42.4099C38.8064 41.8786 40.8998 40.9912 42.8102 39.7826L48.9729 53.3906" stroke="currentColor" stroke-width="3" stroke-linecap="round" stroke-linejoin="round" />
    <path d="M54.1336 52.0961L50.8983 24.9023C50.8983 24.9023 57.9465 27.6924 60.373 23.2748C62.7994 18.8572 61.8751 17.4622 60.373 15.4859C58.8709 13.5096 53.5558 9.20825 53.5558 9.20825H45.9299C45.0561 9.33505 44.2619 9.78823 43.7052 10.4776C43.1485 11.1669 42.8702 12.0419 42.9257 12.9283V18.5084C42.9257 18.5084 43.0413 20.8335 38.9972 20.8335C34.9531 20.8335 21.2033 20.7172 21.2033 20.7172C21.2033 20.7172 13.1152 21.4055 11.9597 30.6526C10.8043 39.8998 9.41211 52.0961 9.41211 52.0961L15.7321 53.3907L20.8567 39.5501C22.5087 40.634 24.3109 41.4661 26.2049 42.0193" stroke="currentColor" stroke-width="3" stroke-linecap="round" stroke-linejoin="round" />
    <path d="M10.2267 38.62L2 35.7137C2.94874 35.1513 3.71658 34.3261 4.21205 33.3367C4.70752 32.3473 4.90965 31.2353 4.79429 30.1335C4.5632 26.0647 2.71448 23.0421 7.22073 18.9733C11.727 14.9045 17.5051 19.8875 17.6198 21.8722" stroke="currentColor" stroke-width="3" stroke-linecap="round" stroke-linejoin="round" />
    <path d="M24.4385 25.3673V30.0258C24.4385 30.0258 24.4321 32.1648 31.9453 32.1648C39.4585 32.1648 39.3401 30.6768 39.3401 29.4864V25.3673" stroke="#E23A05" stroke-width="3" stroke-linecap="round" stroke-linejoin="round" />
    <path d="M31.5073 42.9232L31.5619 32.1638" stroke="#E23A05" stroke-width="3" stroke-linecap="round" stroke-linejoin="round" />
    <path d="M27.9053 20.2522C27.9053 20.2522 28.9303 13.1608 35.6393 13.1608C35.6393 13.1608 36.2245 2.00055 46.508 2.00055C52.4008 2.00055 53.3251 1.8843 54.1339 5.02312C54.9427 8.16193 50.2054 9.2082 50.2054 9.2082" stroke="currentColor" stroke-width="3" stroke-linecap="round" stroke-linejoin="round" />
    <path d="M52.3774 15.5593H53.0929" stroke="currentColor" stroke-width="3" stroke-linecap="round" stroke-linejoin="round" />
    </g>
    <defs>
    
    </defs>
</symbol><clipPath id="cds-jouet_clip0_1103_1509">
    <rect width="64" height="64" fill="white" />
    </clipPath><symbol viewBox="0 0 64 64" fill="none" id="cds-jouet--new">
    <g clip-path="url(#cds-jouet--new_clip0_1103_1509)">
    <path d="M5.47191 58.051C3.63243 57.5097 2.00195 56.4876 2.00195 54.5588C2.00195 52.6299 3.62781 50.5448 5.47191 51.0675C35.1577 59.4813 58.5302 51.0675 58.5302 51.0675C60.9252 50.4165 62.0001 52.6308 62.0001 54.5588C62.0001 56.4867 60.5592 57.3878 58.5302 58.051C58.5256 58.051 35.6975 66.9364 5.47191 58.051Z" stroke="currentColor" stroke-width="3" stroke-linecap="round" stroke-linejoin="round" />
    <path d="M36.6123 42.4099C38.8064 41.8786 40.8998 40.9912 42.8102 39.7826L48.9729 53.3906" stroke="currentColor" stroke-width="3" stroke-linecap="round" stroke-linejoin="round" />
    <path d="M54.1336 52.0961L50.8983 24.9023C50.8983 24.9023 57.9465 27.6924 60.373 23.2748C62.7994 18.8572 61.8751 17.4622 60.373 15.4859C58.8709 13.5096 53.5558 9.20825 53.5558 9.20825H45.9299C45.0561 9.33505 44.2619 9.78823 43.7052 10.4776C43.1485 11.1669 42.8702 12.0419 42.9257 12.9283V18.5084C42.9257 18.5084 43.0413 20.8335 38.9972 20.8335C34.9531 20.8335 21.2033 20.7172 21.2033 20.7172C21.2033 20.7172 13.1152 21.4055 11.9597 30.6526C10.8043 39.8998 9.41211 52.0961 9.41211 52.0961L15.7321 53.3907L20.8567 39.5501C22.5087 40.634 24.3109 41.4661 26.2049 42.0193" stroke="currentColor" stroke-width="3" stroke-linecap="round" stroke-linejoin="round" />
    <path d="M10.2267 38.62L2 35.7137C2.94874 35.1513 3.71658 34.3261 4.21205 33.3367C4.70752 32.3473 4.90965 31.2353 4.79429 30.1335C4.5632 26.0647 2.71448 23.0421 7.22073 18.9733C11.727 14.9045 17.5051 19.8875 17.6198 21.8722" stroke="currentColor" stroke-width="3" stroke-linecap="round" stroke-linejoin="round" />
    <path d="M24.4385 25.3673V30.0258C24.4385 30.0258 24.4321 32.1648 31.9453 32.1648C39.4585 32.1648 39.3401 30.6768 39.3401 29.4864V25.3673" stroke="#E23A05" stroke-width="3" stroke-linecap="round" stroke-linejoin="round" />
    <path d="M31.5073 42.9232L31.5619 32.1638" stroke="#E23A05" stroke-width="3" stroke-linecap="round" stroke-linejoin="round" />
    <path d="M27.9053 20.2522C27.9053 20.2522 28.9303 13.1608 35.6393 13.1608C35.6393 13.1608 36.2245 2.00055 46.508 2.00055C52.4008 2.00055 53.3251 1.8843 54.1339 5.02312C54.9427 8.16193 50.2054 9.2082 50.2054 9.2082" stroke="currentColor" stroke-width="3" stroke-linecap="round" stroke-linejoin="round" />
    <path d="M52.3774 15.5593H53.0929" stroke="currentColor" stroke-width="3" stroke-linecap="round" stroke-linejoin="round" />
    </g>
    <defs>
    
    </defs>
</symbol><clipPath id="cds-jouet--new_clip0_1103_1509">
    <rect width="64" height="64" fill="white" />
    </clipPath><symbol viewBox="0 0 64 64" fill="none" id="cds-la-cave">
    <path d="M31.978 2H16.264C16.264 2 14 22.4445 14 25.8832C14 29.3219 16.0765 43.5298 32.0222 43.5298" stroke="currentColor" stroke-width="3" stroke-linecap="round" stroke-linejoin="round" />
    <path d="M32.0222 2H47.7361C47.7361 2 50.0002 22.4445 50.0002 25.8832C50.0002 29.3219 47.9237 43.5298 31.978 43.5298" stroke="currentColor" stroke-width="3" stroke-linecap="round" stroke-linejoin="round" />
    <path d="M32.0221 36.6127C38.7551 36.6127 43.3212 33.4208 43.9953 21.0267H20.0488C20.7229 33.4218 25.2892 36.6127 32.0221 36.6127Z" stroke="#E13B13" stroke-width="3" stroke-linecap="round" stroke-linejoin="round" />
    <path d="M31.978 50.0051V60.886" stroke="currentColor" stroke-width="3" stroke-linecap="round" stroke-linejoin="round" />
    <path d="M42.3795 62H21.665" stroke="currentColor" stroke-width="3" stroke-linecap="round" stroke-linejoin="round" />
</symbol><symbol viewBox="0 0 64 64" fill="none" id="cds-la-cave--new">
    <path d="M31.978 2H16.264C16.264 2 14 22.4445 14 25.8832C14 29.3219 16.0765 43.5298 32.0222 43.5298" stroke="currentColor" stroke-width="3" stroke-linecap="round" stroke-linejoin="round" />
    <path d="M32.0222 2H47.7361C47.7361 2 50.0002 22.4445 50.0002 25.8832C50.0002 29.3219 47.9237 43.5298 31.978 43.5298" stroke="currentColor" stroke-width="3" stroke-linecap="round" stroke-linejoin="round" />
    <path d="M32.0221 36.6127C38.7551 36.6127 43.3212 33.4208 43.9953 21.0267H20.0488C20.7229 33.4218 25.2892 36.6127 32.0221 36.6127Z" stroke="#E13B13" stroke-width="3" stroke-linecap="round" stroke-linejoin="round" />
    <path d="M31.978 50.0051V60.886" stroke="currentColor" stroke-width="3" stroke-linecap="round" stroke-linejoin="round" />
    <path d="M42.3795 62H21.665" stroke="currentColor" stroke-width="3" stroke-linecap="round" stroke-linejoin="round" />
</symbol><symbol viewBox="0 0 64 64" fill="none" id="cds-maison">
    <path d="M56.2161 21.6194V17.9494C56.2422 16.9301 55.8579 15.9421 55.1474 15.2019C54.437 14.4616 53.4583 14.0294 52.4258 14H11.5776C10.545 14.0294 9.56625 14.4616 8.85582 15.2019C8.14538 15.9421 7.76106 16.9301 7.78713 17.9494V21.6152" stroke="currentColor" stroke-width="3" stroke-linecap="round" stroke-linejoin="round" />
    <path d="M58.2095 26.043H55.2922C54.2784 26.0518 53.3097 26.4576 52.5988 27.1711C51.8879 27.8845 51.4931 28.8474 51.501 29.848V36.7501H12.4982V29.848C12.5061 28.8478 12.1116 27.8853 11.4013 27.1719C10.691 26.4585 9.72294 26.0525 8.7096 26.043H5.79047C4.77684 26.0521 3.80834 26.4579 3.09765 27.1714C2.38695 27.8848 1.99219 28.8475 2.00012 29.848V39.4484C1.99242 40.4488 2.38729 41.4113 3.09796 42.1246C3.80863 42.8379 4.77698 43.2436 5.79047 43.2527H58.2095C59.223 43.2436 60.1915 42.8379 60.9021 42.1246C61.6128 41.4113 62.0076 40.4488 61.9999 39.4484V29.848C62.0078 28.8475 61.6132 27.8848 60.9025 27.1714C60.1918 26.4579 59.2232 26.0521 58.2095 26.043" stroke="currentColor" stroke-width="3" stroke-linecap="round" stroke-linejoin="round" />
    <path d="M56.177 46.3328C56.2028 46.4103 56.2364 46.4851 56.2773 46.556L57.9035 49.3836C57.9828 49.5228 58.0894 49.645 58.217 49.7432C58.3446 49.8414 58.4907 49.9136 58.6468 49.9556C58.8029 49.9976 58.966 50.0086 59.1264 49.9879C59.2869 49.9672 59.4415 49.9152 59.5814 49.835L59.6291 49.8081C59.9115 49.6404 60.1165 49.3705 60.2005 49.0559C60.2845 48.7412 60.2408 48.4066 60.0787 48.1233L58.9737 46.2019C58.6585 46.2874 58.3332 46.3314 58.0063 46.3328H56.177Z" fill="#E13B13" />
    <path d="M4.98187 46.2789L3.9218 48.1248C3.75973 48.4082 3.71611 48.7428 3.80009 49.0574C3.88406 49.3721 4.08906 49.6419 4.37152 49.8097L4.41822 49.8365C4.55811 49.9169 4.71286 49.9689 4.87333 49.9897C5.0338 50.0104 5.19679 49.9995 5.35294 49.9575C5.50908 49.9155 5.65524 49.8432 5.78284 49.745C5.91044 49.6467 6.01695 49.5244 6.09621 49.3851L7.72326 46.5575C7.76389 46.4866 7.79716 46.4118 7.82266 46.3343H5.58703C5.38408 46.3325 5.18171 46.314 4.98187 46.2789V46.2789Z" fill="#E13B13" />
    <path d="M12.3445 31.2551H51.5011" stroke="currentColor" stroke-width="3" stroke-linecap="round" stroke-linejoin="round" />
</symbol><symbol viewBox="0 0 64 64" fill="none" id="cds-maison--new">
    <path d="M56.2161 21.6194V17.9494C56.2422 16.9301 55.8579 15.9421 55.1474 15.2019C54.437 14.4616 53.4583 14.0294 52.4258 14H11.5776C10.545 14.0294 9.56625 14.4616 8.85582 15.2019C8.14538 15.9421 7.76106 16.9301 7.78713 17.9494V21.6152" stroke="currentColor" stroke-width="3" stroke-linecap="round" stroke-linejoin="round" />
    <path d="M58.2095 26.043H55.2922C54.2784 26.0518 53.3097 26.4576 52.5988 27.1711C51.8879 27.8845 51.4931 28.8474 51.501 29.848V36.7501H12.4982V29.848C12.5061 28.8478 12.1116 27.8853 11.4013 27.1719C10.691 26.4585 9.72294 26.0525 8.7096 26.043H5.79047C4.77684 26.0521 3.80834 26.4579 3.09765 27.1714C2.38695 27.8848 1.99219 28.8475 2.00012 29.848V39.4484C1.99242 40.4488 2.38729 41.4113 3.09796 42.1246C3.80863 42.8379 4.77698 43.2436 5.79047 43.2527H58.2095C59.223 43.2436 60.1915 42.8379 60.9021 42.1246C61.6128 41.4113 62.0076 40.4488 61.9999 39.4484V29.848C62.0078 28.8475 61.6132 27.8848 60.9025 27.1714C60.1918 26.4579 59.2232 26.0521 58.2095 26.043" stroke="currentColor" stroke-width="3" stroke-linecap="round" stroke-linejoin="round" />
    <path d="M56.177 46.3328C56.2028 46.4103 56.2364 46.4851 56.2773 46.556L57.9035 49.3836C57.9828 49.5228 58.0894 49.645 58.217 49.7432C58.3446 49.8414 58.4907 49.9136 58.6468 49.9556C58.8029 49.9976 58.966 50.0086 59.1264 49.9879C59.2869 49.9672 59.4415 49.9152 59.5814 49.835L59.6291 49.8081C59.9115 49.6404 60.1165 49.3705 60.2005 49.0559C60.2845 48.7412 60.2408 48.4066 60.0787 48.1233L58.9737 46.2019C58.6585 46.2874 58.3332 46.3314 58.0063 46.3328H56.177Z" fill="#E13B13" />
    <path d="M4.98187 46.2789L3.9218 48.1248C3.75973 48.4082 3.71611 48.7428 3.80009 49.0574C3.88406 49.3721 4.08906 49.6419 4.37152 49.8097L4.41822 49.8365C4.55811 49.9169 4.71286 49.9689 4.87333 49.9897C5.0338 50.0104 5.19679 49.9995 5.35294 49.9575C5.50908 49.9155 5.65524 49.8432 5.78284 49.745C5.91044 49.6467 6.01695 49.5244 6.09621 49.3851L7.72326 46.5575C7.76389 46.4866 7.79716 46.4118 7.82266 46.3343H5.58703C5.38408 46.3325 5.18171 46.314 4.98187 46.2789V46.2789Z" fill="#E13B13" />
    <path d="M12.3445 31.2551H51.5011" stroke="currentColor" stroke-width="3" stroke-linecap="round" stroke-linejoin="round" />
</symbol><symbol viewBox="0 0 64 64" fill="none" id="cds-mode">
    <path d="M41.1302 21.8661C42.788 18.4523 44.6586 12.9767 44.7422 4.56047C44.7422 1.72828 40.1558 0.610211 39.8773 4.56047L39.7384 7.20211C36.9434 8.28538 34.3894 9.92372 32.2261 12.0212" stroke="currentColor" stroke-width="3" stroke-linecap="round" stroke-linejoin="round" />
    <path d="M32.2261 57.4492C38.8904 67.6057 45.1586 57.5901 45.1586 57.5901C48.4948 65.208 56.0001 60.835 56.0001 57.5901C53.9268 47.2542 48.9704 37.7406 41.7211 30.1821" stroke="currentColor" stroke-width="3" stroke-linecap="round" stroke-linejoin="round" />
    <path d="M22.8697 21.8661C20.4542 16.4281 19.2225 10.5254 19.2586 4.56047C19.2586 1.72828 23.8451 0.610211 24.1227 4.56047L24.2615 7.20211C27.0565 8.28541 29.6105 9.92374 31.7739 12.0212" stroke="currentColor" stroke-width="3" stroke-linecap="round" stroke-linejoin="round" />
    <path d="M31.774 57.3156C25.1097 67.4721 18.8414 57.4574 18.8414 57.4574C15.5052 65.0743 8 60.7014 8 57.4574C10.0505 47.2465 14.9122 37.8353 22.0209 30.3158" stroke="currentColor" stroke-width="3" stroke-linecap="round" stroke-linejoin="round" />
    <path d="M24.0537 26.3311H39.6897" stroke="#E23A05" stroke-width="3" stroke-linecap="round" stroke-linejoin="round" />
</symbol><symbol viewBox="0 0 64 64" fill="none" id="cds-mode--new">
    <path d="M41.1302 21.8661C42.788 18.4523 44.6586 12.9767 44.7422 4.56047C44.7422 1.72828 40.1558 0.610211 39.8773 4.56047L39.7384 7.20211C36.9434 8.28538 34.3894 9.92372 32.2261 12.0212" stroke="currentColor" stroke-width="3" stroke-linecap="round" stroke-linejoin="round" />
    <path d="M32.2261 57.4492C38.8904 67.6057 45.1586 57.5901 45.1586 57.5901C48.4948 65.208 56.0001 60.835 56.0001 57.5901C53.9268 47.2542 48.9704 37.7406 41.7211 30.1821" stroke="currentColor" stroke-width="3" stroke-linecap="round" stroke-linejoin="round" />
    <path d="M22.8697 21.8661C20.4542 16.4281 19.2225 10.5254 19.2586 4.56047C19.2586 1.72828 23.8451 0.610211 24.1227 4.56047L24.2615 7.20211C27.0565 8.28541 29.6105 9.92374 31.7739 12.0212" stroke="currentColor" stroke-width="3" stroke-linecap="round" stroke-linejoin="round" />
    <path d="M31.774 57.3156C25.1097 67.4721 18.8414 57.4574 18.8414 57.4574C15.5052 65.0743 8 60.7014 8 57.4574C10.0505 47.2465 14.9122 37.8353 22.0209 30.3158" stroke="currentColor" stroke-width="3" stroke-linecap="round" stroke-linejoin="round" />
    <path d="M24.0537 26.3311H39.6897" stroke="#E23A05" stroke-width="3" stroke-linecap="round" stroke-linejoin="round" />
</symbol><symbol viewBox="0 0 64 64" fill="none" id="cds-reconditionne">
    <g clip-path="url(#cds-reconditionne_clip0_1103_1513)">
    <path d="M13.1768 33.8738V55.2803" stroke="currentColor" stroke-width="3" stroke-linecap="round" stroke-linejoin="round" />
    <path d="M2.87256 58.1366L10.459 33.4336H15.7416L23.4815 58.0846" stroke="currentColor" stroke-width="3" stroke-linecap="round" stroke-linejoin="round" />
    <path d="M24.3574 25.9358H2L4.01818 11.7821H22.3412L24.3574 25.9358Z" stroke="#E95100" stroke-width="3" stroke-linecap="round" stroke-linejoin="round" />
    <path d="M54.0836 29.7262H41C39.4303 29.7262 38.1577 30.9956 38.1577 32.5615V59.1647C38.1577 60.7306 39.4303 62 41 62H54.0836C55.6533 62 56.9259 60.7306 56.9259 59.1647V32.5615C56.9259 30.9956 55.6533 29.7262 54.0836 29.7262Z" stroke="currentColor" stroke-width="3" stroke-miterlimit="10" />
    <path d="M47.3745 58.3137H47.7085" stroke="currentColor" stroke-width="3" stroke-linecap="round" stroke-linejoin="round" />
    <path d="M38.8462 54.7191H56.8604" stroke="currentColor" stroke-width="3" stroke-miterlimit="10" />
    <path d="M47.3745 39.1404V45.6014" stroke="#E95100" stroke-width="3" stroke-linecap="round" stroke-linejoin="round" />
    <path d="M38.437 2V21.2743" stroke="currentColor" stroke-width="3" stroke-linecap="round" stroke-linejoin="round" />
    <path d="M51.8541 11.6381H43.624" stroke="#E23A05" stroke-width="3" stroke-linecap="round" stroke-linejoin="round" />
    <path d="M57.0391 2V21.2743" stroke="currentColor" stroke-width="3" stroke-linecap="round" stroke-linejoin="round" />
    <path d="M62 5.18835V18.0869" stroke="currentColor" stroke-width="3" stroke-linecap="round" stroke-linejoin="round" />
    <path d="M33.4766 5.18835V18.0869" stroke="currentColor" stroke-width="3" stroke-linecap="round" stroke-linejoin="round" />
    </g>
    <defs>
    
    </defs>
</symbol><clipPath id="cds-reconditionne_clip0_1103_1513">
    <rect width="64" height="64" fill="white" />
    </clipPath><symbol viewBox="0 0 64 64" fill="none" id="cds-reconditionne--new">
    <g clip-path="url(#cds-reconditionne--new_clip0_1103_1513)">
    <path d="M13.1768 33.8738V55.2803" stroke="currentColor" stroke-width="3" stroke-linecap="round" stroke-linejoin="round" />
    <path d="M2.87256 58.1366L10.459 33.4336H15.7416L23.4815 58.0846" stroke="currentColor" stroke-width="3" stroke-linecap="round" stroke-linejoin="round" />
    <path d="M24.3574 25.9358H2L4.01818 11.7821H22.3412L24.3574 25.9358Z" stroke="#E95100" stroke-width="3" stroke-linecap="round" stroke-linejoin="round" />
    <path d="M54.0836 29.7262H41C39.4303 29.7262 38.1577 30.9956 38.1577 32.5615V59.1647C38.1577 60.7306 39.4303 62 41 62H54.0836C55.6533 62 56.9259 60.7306 56.9259 59.1647V32.5615C56.9259 30.9956 55.6533 29.7262 54.0836 29.7262Z" stroke="currentColor" stroke-width="3" stroke-miterlimit="10" />
    <path d="M47.3745 58.3137H47.7085" stroke="currentColor" stroke-width="3" stroke-linecap="round" stroke-linejoin="round" />
    <path d="M38.8462 54.7191H56.8604" stroke="currentColor" stroke-width="3" stroke-miterlimit="10" />
    <path d="M47.3745 39.1404V45.6014" stroke="#E95100" stroke-width="3" stroke-linecap="round" stroke-linejoin="round" />
    <path d="M38.437 2V21.2743" stroke="currentColor" stroke-width="3" stroke-linecap="round" stroke-linejoin="round" />
    <path d="M51.8541 11.6381H43.624" stroke="#E23A05" stroke-width="3" stroke-linecap="round" stroke-linejoin="round" />
    <path d="M57.0391 2V21.2743" stroke="currentColor" stroke-width="3" stroke-linecap="round" stroke-linejoin="round" />
    <path d="M62 5.18835V18.0869" stroke="currentColor" stroke-width="3" stroke-linecap="round" stroke-linejoin="round" />
    <path d="M33.4766 5.18835V18.0869" stroke="currentColor" stroke-width="3" stroke-linecap="round" stroke-linejoin="round" />
    </g>
    <defs>
    
    </defs>
</symbol><clipPath id="cds-reconditionne--new_clip0_1103_1513">
    <rect width="64" height="64" fill="white" />
    </clipPath><symbol viewBox="0 0 64 64" fill="none" id="cds-seconde-vie">
    <g clip-path="url(#cds-seconde-vie_clip0_1103_1513)">
    <path d="M13.1768 33.8738V55.2803" stroke="currentColor" stroke-width="3" stroke-linecap="round" stroke-linejoin="round" />
    <path d="M2.87256 58.1366L10.459 33.4336H15.7416L23.4815 58.0846" stroke="currentColor" stroke-width="3" stroke-linecap="round" stroke-linejoin="round" />
    <path d="M24.3574 25.9358H2L4.01818 11.7821H22.3412L24.3574 25.9358Z" stroke="#E95100" stroke-width="3" stroke-linecap="round" stroke-linejoin="round" />
    <path d="M54.0836 29.7262H41C39.4303 29.7262 38.1577 30.9956 38.1577 32.5615V59.1647C38.1577 60.7306 39.4303 62 41 62H54.0836C55.6533 62 56.9259 60.7306 56.9259 59.1647V32.5615C56.9259 30.9956 55.6533 29.7262 54.0836 29.7262Z" stroke="currentColor" stroke-width="3" stroke-miterlimit="10" />
    <path d="M47.3745 58.3137H47.7085" stroke="currentColor" stroke-width="3" stroke-linecap="round" stroke-linejoin="round" />
    <path d="M38.8462 54.7191H56.8604" stroke="currentColor" stroke-width="3" stroke-miterlimit="10" />
    <path d="M47.3745 39.1404V45.6014" stroke="#E95100" stroke-width="3" stroke-linecap="round" stroke-linejoin="round" />
    <path d="M38.437 2V21.2743" stroke="currentColor" stroke-width="3" stroke-linecap="round" stroke-linejoin="round" />
    <path d="M51.8541 11.6381H43.624" stroke="#E23A05" stroke-width="3" stroke-linecap="round" stroke-linejoin="round" />
    <path d="M57.0391 2V21.2743" stroke="currentColor" stroke-width="3" stroke-linecap="round" stroke-linejoin="round" />
    <path d="M62 5.18835V18.0869" stroke="currentColor" stroke-width="3" stroke-linecap="round" stroke-linejoin="round" />
    <path d="M33.4766 5.18835V18.0869" stroke="currentColor" stroke-width="3" stroke-linecap="round" stroke-linejoin="round" />
    </g>
    <defs>
    
    </defs>
</symbol><clipPath id="cds-seconde-vie_clip0_1103_1513">
    <rect width="64" height="64" fill="white" />
    </clipPath><symbol viewBox="0 0 64 64" fill="none" id="cds-seconde-vie--new">
    <g clip-path="url(#cds-seconde-vie--new_clip0_1103_1513)">
    <path d="M13.1768 33.8738V55.2803" stroke="currentColor" stroke-width="3" stroke-linecap="round" stroke-linejoin="round" />
    <path d="M2.87256 58.1366L10.459 33.4336H15.7416L23.4815 58.0846" stroke="currentColor" stroke-width="3" stroke-linecap="round" stroke-linejoin="round" />
    <path d="M24.3574 25.9358H2L4.01818 11.7821H22.3412L24.3574 25.9358Z" stroke="#E95100" stroke-width="3" stroke-linecap="round" stroke-linejoin="round" />
    <path d="M54.0836 29.7262H41C39.4303 29.7262 38.1577 30.9956 38.1577 32.5615V59.1647C38.1577 60.7306 39.4303 62 41 62H54.0836C55.6533 62 56.9259 60.7306 56.9259 59.1647V32.5615C56.9259 30.9956 55.6533 29.7262 54.0836 29.7262Z" stroke="currentColor" stroke-width="3" stroke-miterlimit="10" />
    <path d="M47.3745 58.3137H47.7085" stroke="currentColor" stroke-width="3" stroke-linecap="round" stroke-linejoin="round" />
    <path d="M38.8462 54.7191H56.8604" stroke="currentColor" stroke-width="3" stroke-miterlimit="10" />
    <path d="M47.3745 39.1404V45.6014" stroke="#E95100" stroke-width="3" stroke-linecap="round" stroke-linejoin="round" />
    <path d="M38.437 2V21.2743" stroke="currentColor" stroke-width="3" stroke-linecap="round" stroke-linejoin="round" />
    <path d="M51.8541 11.6381H43.624" stroke="#E23A05" stroke-width="3" stroke-linecap="round" stroke-linejoin="round" />
    <path d="M57.0391 2V21.2743" stroke="currentColor" stroke-width="3" stroke-linecap="round" stroke-linejoin="round" />
    <path d="M62 5.18835V18.0869" stroke="currentColor" stroke-width="3" stroke-linecap="round" stroke-linejoin="round" />
    <path d="M33.4766 5.18835V18.0869" stroke="currentColor" stroke-width="3" stroke-linecap="round" stroke-linejoin="round" />
    </g>
    <defs>
    
    </defs>
</symbol><clipPath id="cds-seconde-vie--new_clip0_1103_1513">
    <rect width="64" height="64" fill="white" />
    </clipPath><symbol viewBox="0 0 64 64" fill="none" id="cds-sport">
    <path d="M45.9095 28.5686H19.0438C17.5499 28.5686 16.3389 29.7995 16.3389 31.3178V32.6822C16.3389 34.2005 17.5499 35.4314 19.0438 35.4314H45.9095C47.4034 35.4314 48.6145 34.2005 48.6145 32.6822V31.3178C48.6145 29.7995 47.4034 28.5686 45.9095 28.5686Z" stroke="#E23A05" stroke-width="3" stroke-linecap="round" stroke-linejoin="round" />
    <path d="M12.2122 53H13.7732C15.1902 53 16.3389 51.8325 16.3389 50.3924L16.3389 13.6076C16.3389 12.1675 15.1902 11 13.7732 11H12.2122C10.7952 11 9.64654 12.1675 9.64654 13.6076L9.64654 50.3924C9.64654 51.8325 10.7952 53 12.2122 53Z" stroke="currentColor" stroke-width="3" stroke-linecap="round" stroke-linejoin="round" />
    <path d="M51.18 53H52.741C54.1579 53 55.3066 51.8325 55.3066 50.3924L55.3066 13.6076C55.3066 12.1675 54.1579 11 52.741 11H51.18C49.763 11 48.6143 12.1675 48.6143 13.6076L48.6143 50.3924C48.6143 51.8325 49.763 53 51.18 53Z" stroke="currentColor" stroke-width="3" stroke-linecap="round" stroke-linejoin="round" />
    <path d="M57.8734 49.3867H59.4343C60.8513 49.3867 62 48.2193 62 46.7791L62 17.2198C62 15.7796 60.8513 14.6122 59.4343 14.6122H57.8734C56.4564 14.6122 55.3077 15.7796 55.3077 17.2198V46.7791C55.3077 48.2193 56.4564 49.3867 57.8734 49.3867Z" stroke="currentColor" stroke-width="3" stroke-linecap="round" stroke-linejoin="round" />
    <path d="M4.56549 49.3867H6.12646C7.54345 49.3867 8.69214 48.2193 8.69214 46.7791L8.69214 17.2198C8.69214 15.7796 7.54345 14.6122 6.12646 14.6122H4.56549C3.14851 14.6122 1.99982 15.7796 1.99982 17.2198L1.99982 46.7791C1.99982 48.2193 3.14851 49.3867 4.56549 49.3867Z" stroke="currentColor" stroke-width="3" stroke-linecap="round" stroke-linejoin="round" />
</symbol><symbol viewBox="0 0 64 64" fill="none" id="cds-sport--new">
    <path d="M45.9095 28.5686H19.0438C17.5499 28.5686 16.3389 29.7995 16.3389 31.3178V32.6822C16.3389 34.2005 17.5499 35.4314 19.0438 35.4314H45.9095C47.4034 35.4314 48.6145 34.2005 48.6145 32.6822V31.3178C48.6145 29.7995 47.4034 28.5686 45.9095 28.5686Z" stroke="#E23A05" stroke-width="3" stroke-linecap="round" stroke-linejoin="round" />
    <path d="M12.2122 53H13.7732C15.1902 53 16.3389 51.8325 16.3389 50.3924L16.3389 13.6076C16.3389 12.1675 15.1902 11 13.7732 11H12.2122C10.7952 11 9.64654 12.1675 9.64654 13.6076L9.64654 50.3924C9.64654 51.8325 10.7952 53 12.2122 53Z" stroke="currentColor" stroke-width="3" stroke-linecap="round" stroke-linejoin="round" />
    <path d="M51.18 53H52.741C54.1579 53 55.3066 51.8325 55.3066 50.3924L55.3066 13.6076C55.3066 12.1675 54.1579 11 52.741 11H51.18C49.763 11 48.6143 12.1675 48.6143 13.6076L48.6143 50.3924C48.6143 51.8325 49.763 53 51.18 53Z" stroke="currentColor" stroke-width="3" stroke-linecap="round" stroke-linejoin="round" />
    <path d="M57.8734 49.3867H59.4343C60.8513 49.3867 62 48.2193 62 46.7791L62 17.2198C62 15.7796 60.8513 14.6122 59.4343 14.6122H57.8734C56.4564 14.6122 55.3077 15.7796 55.3077 17.2198V46.7791C55.3077 48.2193 56.4564 49.3867 57.8734 49.3867Z" stroke="currentColor" stroke-width="3" stroke-linecap="round" stroke-linejoin="round" />
    <path d="M4.56549 49.3867H6.12646C7.54345 49.3867 8.69214 48.2193 8.69214 46.7791L8.69214 17.2198C8.69214 15.7796 7.54345 14.6122 6.12646 14.6122H4.56549C3.14851 14.6122 1.99982 15.7796 1.99982 17.2198L1.99982 46.7791C1.99982 48.2193 3.14851 49.3867 4.56549 49.3867Z" stroke="currentColor" stroke-width="3" stroke-linecap="round" stroke-linejoin="round" />
</symbol><symbol viewBox="0 0 64 64" fill="none" id="cds-telephonie">
    <path d="M57.2486 7.18982H33.7408C32.2212 7.18982 30.9893 8.41215 30.9893 9.91998V54.0802C30.9893 55.5881 32.2212 56.8104 33.7408 56.8104H57.2486C58.7682 56.8104 60.0001 55.5881 60.0001 54.0802V9.91998C60.0001 8.41215 58.7682 7.18982 57.2486 7.18982Z" stroke="currentColor" stroke-width="3" stroke-miterlimit="10" />
    <path d="M23.7605 56.8103L11.0085 62C10.2883 62 9.69922 60.8974 9.69922 59.5482V4.45185C9.69922 3.10362 10.2883 2 11.0085 2L23.7605 7.18972C24.4807 7.18972 25.0698 8.29333 25.0698 9.64156V54.3584C25.0698 55.7067 24.4807 56.8103 23.7605 56.8103Z" stroke="#E23A05" stroke-width="3" stroke-miterlimit="10" />
    <path d="M45.2361 51.1409H45.7544" stroke="currentColor" stroke-width="3" stroke-linecap="round" stroke-linejoin="round" />
    <path d="M32.0537 45.6152H59.8989" stroke="currentColor" stroke-width="3" stroke-miterlimit="10" />
    <path d="M4 27.0327V36.9672" stroke="#E23A05" stroke-width="3" stroke-linecap="round" stroke-linejoin="round" />
</symbol><symbol viewBox="0 0 64 64" fill="none" id="cds-telephonie--new">
    <path d="M57.2486 7.18982H33.7408C32.2212 7.18982 30.9893 8.41215 30.9893 9.91998V54.0802C30.9893 55.5881 32.2212 56.8104 33.7408 56.8104H57.2486C58.7682 56.8104 60.0001 55.5881 60.0001 54.0802V9.91998C60.0001 8.41215 58.7682 7.18982 57.2486 7.18982Z" stroke="currentColor" stroke-width="3" stroke-miterlimit="10" />
    <path d="M23.7605 56.8103L11.0085 62C10.2883 62 9.69922 60.8974 9.69922 59.5482V4.45185C9.69922 3.10362 10.2883 2 11.0085 2L23.7605 7.18972C24.4807 7.18972 25.0698 8.29333 25.0698 9.64156V54.3584C25.0698 55.7067 24.4807 56.8103 23.7605 56.8103Z" stroke="#E23A05" stroke-width="3" stroke-miterlimit="10" />
    <path d="M45.2361 51.1409H45.7544" stroke="currentColor" stroke-width="3" stroke-linecap="round" stroke-linejoin="round" />
    <path d="M32.0537 45.6152H59.8989" stroke="currentColor" stroke-width="3" stroke-miterlimit="10" />
    <path d="M4 27.0327V36.9672" stroke="#E23A05" stroke-width="3" stroke-linecap="round" stroke-linejoin="round" />
</symbol><symbol viewBox="0 0 64 64" fill="none" id="cds-tv-son-photo">
    <path d="M53.7825 6H10.2175C5.67911 6 2 9.64284 2 14.1365V40.603C2 45.0967 5.67911 48.7396 10.2175 48.7396H53.7825C58.3209 48.7396 62 45.0967 62 40.603V14.1365C62 9.64284 58.3209 6 53.7825 6Z" stroke="currentColor" stroke-width="3" stroke-linecap="round" stroke-linejoin="round" />
    <path d="M31.9609 53.3612V57.0437" stroke="#E13B13" stroke-width="3" stroke-miterlimit="10" stroke-linecap="round" />
    <path d="M47.2772 58H16.7214" stroke="#E13B13" stroke-width="3" stroke-miterlimit="10" stroke-linecap="round" />
</symbol><symbol viewBox="0 0 64 64" fill="none" id="cds-tv-son-photo--new">
    <path d="M53.7825 6H10.2175C5.67911 6 2 9.64284 2 14.1365V40.603C2 45.0967 5.67911 48.7396 10.2175 48.7396H53.7825C58.3209 48.7396 62 45.0967 62 40.603V14.1365C62 9.64284 58.3209 6 53.7825 6Z" stroke="currentColor" stroke-width="3" stroke-linecap="round" stroke-linejoin="round" />
    <path d="M31.9609 53.3612V57.0437" stroke="#E13B13" stroke-width="3" stroke-miterlimit="10" stroke-linecap="round" />
    <path d="M47.2772 58H16.7214" stroke="#E13B13" stroke-width="3" stroke-miterlimit="10" stroke-linecap="round" />
</symbol><symbol fill="currentColor" viewBox="0 0 256 256" id="clock"><path d="M128,24A104,104,0,1,0,232,128,104.11,104.11,0,0,0,128,24Zm0,192a88,88,0,1,1,88-88A88.1,88.1,0,0,1,128,216Zm64-88a8,8,0,0,1-8,8H128a8,8,0,0,1-8-8V72a8,8,0,0,1,16,0v48h48A8,8,0,0,1,192,128Z" /></symbol><symbol fill="currentColor" viewBox="0 0 256 256" id="credit-card"><path d="M224,48H32A16,16,0,0,0,16,64V192a16,16,0,0,0,16,16H224a16,16,0,0,0,16-16V64A16,16,0,0,0,224,48Zm0,16V88H32V64Zm0,128H32V104H224v88Zm-16-24a8,8,0,0,1-8,8H168a8,8,0,0,1,0-16h32A8,8,0,0,1,208,168Zm-64,0a8,8,0,0,1-8,8H120a8,8,0,0,1,0-16h16A8,8,0,0,1,144,168Z" /></symbol><symbol fill="currentColor" viewBox="0 0 256 256" id="crown"><path d="M243.84,76.19a12.08,12.08,0,0,0-13.34-1.7l-50.21,25L138.37,29.86a12.11,12.11,0,0,0-20.74,0L75.71,99.52l-50.19-25A12.11,12.11,0,0,0,8.62,89.12l37,113.36a8,8,0,0,0,11.68,4.4C57.55,206.73,83.12,192,128,192s70.45,14.73,70.68,14.87a8,8,0,0,0,11.71-4.39l37-113.33A12.06,12.06,0,0,0,243.84,76.19ZM198,188.83C186,183.74,162.08,176,128,176s-58,7.74-70,12.83L26.71,93l45.07,22.47a12.17,12.17,0,0,0,15.78-4.59L128,43.66l40.44,67.2a12.18,12.18,0,0,0,15.77,4.59L229.29,93Zm-22.13-32a8,8,0,0,1-7.87,6.61,8.36,8.36,0,0,1-1.4-.12,228.2,228.2,0,0,0-77.22,0,8,8,0,0,1-2.78-15.76,244.42,244.42,0,0,1,82.78,0A8,8,0,0,1,175.88,156.8Z" /></symbol><symbol viewBox="0 0 224 214" fill="none" id="empty-basket">
<ellipse cx="107.955" cy="99.9932" rx="99.9547" ry="99.9932" fill="#FCFCFD" />
<path d="M34.4609 118.839C34.4609 120.082 33.4539 121.089 32.2123 121.089C30.9706 121.089 29.9636 120.082 29.9636 118.839C29.9636 117.596 30.9706 116.589 32.2123 116.589C33.4539 116.589 34.4609 117.596 34.4609 118.839Z" stroke="#B6C2CD" stroke-width="1.5" />
<path d="M122.93 74.8986C122.93 70.5688 123.027 67.2297 119.428 63.6723C117.58 61.8554 115.122 60.6152 112.393 60.2894C117.221 64.7494 117.558 69.1444 117.558 74.8986H122.93ZM145.625 79.8153C146.484 80.1308 147.06 80.9903 146.995 81.9476L143.004 137.765C142.939 138.624 142.385 139.32 141.623 139.603C139.764 140.354 130.314 144.814 129.259 144.814L75.802 144.825C74.6497 144.825 73.7141 143.9 73.6927 142.747L69.0057 77.1616C68.9184 75.9651 69.8428 74.9315 71.1046 74.8989H85.1852C85.1852 69.3187 85.4354 65.1303 89.9478 60.6703C97.1897 53.5346 105.378 56.6997 106.172 56.6997C106.955 56.6997 115.144 53.5339 122.385 60.6703C126.909 65.1303 127.148 69.3187 127.148 74.8989C128.692 74.8989 134 74.6923 134.956 75.1491L145.625 79.8153ZM138.883 136.197L142.678 83.1322L134.684 80.1404L130.455 139.373L138.883 136.197ZM113.328 74.8987C113.328 70.569 113.437 67.2299 109.827 63.6724C108.783 62.65 107.544 61.8015 106.173 61.2033C101.932 63.0417 99.018 67.2079 99.018 71.984V74.8997L113.328 74.8987ZM94.7883 74.8987C94.7883 69.1438 95.1147 64.7496 99.9423 60.2896C94.0483 60.9855 89.4159 65.9571 89.4159 71.9838V74.8995L94.7883 74.8987ZM130.531 79.1307H73.3783L77.7716 140.592H126.127L130.531 79.1307Z" fill="#293847" />
<path d="M90.1592 87.176C95.594 87.176 95.594 95.3315 90.1592 95.3315C84.7238 95.3315 84.7244 87.176 90.1592 87.176Z" fill="#293847" />
<path d="M114.159 87.176C119.594 87.176 119.594 95.3315 114.159 95.3315C108.724 95.3315 108.724 87.176 114.159 87.176Z" fill="#293847" />
<line x1="98.236" y1="103.212" x2="107.047" y2="103.212" stroke="#293847" stroke-width="4" stroke-linecap="round" />
<path d="M60.5491 63.3224C60.0898 63.009 59.7057 62.786 59.356 62.4978C55.8167 59.6013 53.0348 55.9533 50.5476 52.0352C50.2575 51.5751 50.0163 51.0421 49.9177 50.5072C49.8638 50.2189 50.0518 49.7449 50.2844 49.5175C50.4615 49.3478 50.925 49.3417 51.1415 49.4681C51.5573 49.7022 51.9518 50.0316 52.2698 50.4114C54.3726 52.9124 56.4609 55.4212 58.5306 57.9493C59.3024 58.8973 60.0516 59.8761 60.8048 60.8435C61.0607 61.1633 61.2981 61.5024 61.5104 61.8456C61.757 62.2265 61.8187 62.6972 61.4579 63.0214C61.2187 63.2337 61.0138 63.4836 60.5491 63.3224Z" fill="#7A8999" />
<path d="M81.8979 52.5485C81.6228 53.0693 81.337 53.6891 80.9958 54.264C79.6428 56.5293 78.2899 58.7946 76.9198 61.0411C76.6209 61.528 76.2415 61.9741 75.8463 62.3634C75.3216 62.8875 74.8131 62.9551 74.3736 62.6871C73.9341 62.4191 73.7813 61.904 74.021 61.1783C74.1812 60.6818 74.3745 60.1583 74.6429 59.725C76.4295 56.8912 78.2373 54.0647 80.0516 51.2534C80.2552 50.9389 80.5262 50.6349 80.8288 50.4445C81.5767 49.9593 82.3184 50.4477 82.2252 51.3653C82.1839 51.7233 82.0212 52.0905 81.8979 52.5485Z" fill="#7A8999" />
<path d="M42.357 75.0985C41.8766 74.8806 41.4199 74.5938 40.9817 74.2879C40.5924 74.0117 40.3973 73.5847 40.5337 73.0544C40.6529 72.6081 41.217 72.2776 41.7689 72.392C42.5083 72.5457 43.2542 72.7146 43.9499 72.9944C46.0475 73.8374 48.1398 74.7299 50.2175 75.6302C50.9052 75.9329 51.5771 76.2814 52.241 76.6529C52.468 76.7829 52.6897 76.9625 52.8282 77.1774C53.2279 77.7652 52.9315 78.4837 52.2514 78.5687C51.8684 78.6155 51.4433 78.5451 51.0842 78.4206C49.8815 78.0676 44.0586 75.8555 42.357 75.0985Z" fill="#7A8999" />
<path opacity="0.4" d="M176.962 94.6736C177.524 94.1511 178.441 94.4307 178.616 95.178L180.802 104.497C180.978 105.247 180.274 105.906 179.537 105.682L170.341 102.878C169.604 102.653 169.387 101.714 169.952 101.189L176.962 94.6736Z" fill="#B6C2CD" />
<path d="M50.1772 202.286C52.7545 198.398 60.5071 190.977 70.8989 192.392C81.2908 193.808 88.2868 184.408 90.4858 179.531" stroke="#B6C2CD" stroke-width="3" stroke-dasharray="8 8" />
<g clip-path="url(#empty-basket_clip0_1_6942)">
<path d="M170.744 195.601L175.009 181.576C175.069 181.373 175.075 181.157 175.026 180.951C174.977 180.745 174.874 180.556 174.729 180.402L164.357 169.554C164.218 169.405 164.043 169.295 163.848 169.236C163.653 169.177 163.446 169.17 163.248 169.216L148.594 172.449C148.388 172.496 148.197 172.596 148.042 172.739C147.886 172.883 147.771 173.065 147.709 173.267L143.444 187.293C143.383 187.495 143.377 187.711 143.426 187.917C143.476 188.123 143.578 188.312 143.724 188.466L154.095 199.315C154.234 199.463 154.41 199.573 154.605 199.632C154.799 199.691 155.006 199.698 155.204 199.652L169.858 196.419C170.065 196.373 170.255 196.273 170.411 196.129C170.566 195.985 170.681 195.803 170.744 195.601V195.601Z" stroke="#B6C2CD" stroke-width="2" stroke-linecap="round" stroke-linejoin="round" />
<path d="M165.134 190.039L167.383 182.643L155.905 170.835" stroke="#B6C2CD" stroke-width="2" stroke-linecap="round" stroke-linejoin="round" />
<path d="M175.03 180.945L159.355 184.473L148.043 172.732" stroke="#B6C2CD" stroke-width="2" stroke-linecap="round" stroke-linejoin="round" />
<path d="M159.354 184.473L154.607 199.626" stroke="#B6C2CD" stroke-width="2" stroke-linecap="round" stroke-linejoin="round" />
</g>
<path d="M185.855 24.0517C186.445 21.9792 187.841 20.2279 189.735 19.1832C191.628 18.1386 193.865 17.8861 195.952 18.4813C198.04 19.0764 199.807 20.4706 200.866 22.357C201.924 24.2434 202.187 26.4675 201.597 28.5401L159.618 44.454C159.217 44.6059 158.875 44.8793 158.641 45.2355C158.406 45.5918 158.29 46.0129 158.31 46.4391C158.33 46.8654 158.484 47.2752 158.751 47.6104C159.018 47.9457 159.383 48.1895 159.796 48.3073L210.957 62.8944C211.37 63.0121 211.809 62.9979 212.212 62.8537C212.616 62.7094 212.963 62.4425 213.204 62.0908C213.445 61.739 213.569 61.3202 213.557 60.8937C213.546 60.4672 213.4 60.0546 213.139 59.7144L192.056 32.1569" stroke="#B6C2CD" stroke-width="2.5" stroke-linecap="round" stroke-linejoin="round" />
<path d="M16.1594 59.991L2.73789 66.2309C1.50248 66.8053 0.966416 68.2728 1.54056 69.5086L12.976 94.1242C13.5502 95.3601 15.0171 95.8963 16.2525 95.322L29.674 89.082C30.9094 88.5077 31.4455 87.0402 30.8713 85.8043L19.4359 61.1887C18.8617 59.9529 17.3948 59.4166 16.1594 59.991Z" stroke="#B6C2CD" stroke-width="2" stroke-linecap="round" stroke-linejoin="round" />
<path d="M2.58008 71.7463L20.4754 63.4264" stroke="#B6C2CD" stroke-width="2" stroke-linecap="round" stroke-linejoin="round" />
<path d="M11.9353 91.8864L29.8306 83.5665" stroke="#B6C2CD" stroke-width="2" stroke-linecap="round" stroke-linejoin="round" />
<defs>

</defs>
</symbol><clipPath id="empty-basket_clip0_1_6942">
<rect width="38.0485" height="38.0607" fill="white" transform="matrix(0.956679 0.291145 -0.29094 0.956741 146.563 160.688)" />
</clipPath><symbol viewBox="0 0 46 10" fill="none" id="endive">
    <path d="M4.05867 6.21C4.05867 6.80333 3.85534 7.26333 3.44867 7.59C3.04201 7.91 2.51867 8.07 1.87867 8.07C1.17201 8.07 0.572005 7.92667 0.0786719 7.64V6.77C0.565339 7.13667 1.15867 7.32 1.85867 7.32C2.27867 7.32 2.60867 7.22667 2.84867 7.04C3.08867 6.85333 3.20867 6.58333 3.20867 6.23C3.20867 6.08333 3.17867 5.95333 3.11867 5.84C3.06534 5.72 2.97201 5.61333 2.83867 5.52C2.71201 5.42 2.58867 5.34 2.46867 5.28C2.35534 5.21333 2.19867 5.13333 1.99867 5.04C1.95867 5.02 1.89867 4.99333 1.81867 4.96C1.53201 4.83333 1.31201 4.73 1.15867 4.65C1.01201 4.57 0.835339 4.45333 0.628672 4.3C0.428672 4.14 0.282005 3.95667 0.188672 3.75C0.0953386 3.54333 0.0486719 3.30333 0.0486719 3.03C0.0486719 2.45667 0.252005 2.01 0.658672 1.69C1.07201 1.36333 1.58867 1.2 2.20867 1.2C2.78867 1.2 3.28201 1.30333 3.68867 1.51V2.36C3.28201 2.09333 2.79534 1.96 2.22867 1.96C1.82201 1.96 1.49867 2.05667 1.25867 2.25C1.01867 2.43667 0.898672 2.68333 0.898672 2.99C0.898672 3.15 0.928672 3.29333 0.988672 3.42C1.05534 3.54667 1.16867 3.66667 1.32867 3.78C1.48867 3.88667 1.62534 3.97 1.73867 4.03C1.85201 4.08333 2.02867 4.16333 2.26867 4.27C2.49534 4.37 2.66867 4.45 2.78867 4.51C2.90867 4.56333 3.06201 4.65333 3.24867 4.78C3.44201 4.9 3.58534 5.02 3.67867 5.14C3.77867 5.25333 3.86534 5.40667 3.93867 5.6C4.01867 5.78667 4.05867 5.99 4.05867 6.21ZM6.14281 9.97H5.36281V2.93H6.14281V3.7C6.49615 3.13333 7.01948 2.85 7.71281 2.85C8.38615 2.85 8.91281 3.09667 9.29281 3.59C9.67948 4.07667 9.87281 4.68667 9.87281 5.42C9.87281 6.2 9.66948 6.84 9.26281 7.34C8.86281 7.83333 8.33948 8.08 7.69281 8.08C7.02615 8.08 6.50948 7.79667 6.14281 7.23V9.97ZM6.14281 5.47C6.14281 6.11667 6.29281 6.59333 6.59281 6.9C6.89281 7.20667 7.22615 7.36 7.59281 7.36C8.01948 7.36 8.36948 7.19333 8.64281 6.86C8.91615 6.52 9.05281 6.04 9.05281 5.42C9.05281 4.86667 8.91948 4.42 8.65281 4.08C8.38615 3.74 8.04948 3.57 7.64281 3.57C7.23615 3.57 6.88281 3.72 6.58281 4.02C6.28948 4.31333 6.14281 4.79667 6.14281 5.47ZM15.4966 5.48C15.4966 6.23333 15.2833 6.85667 14.8566 7.35C14.43 7.84333 13.8433 8.09 13.0966 8.09C12.37 8.09 11.7933 7.84667 11.3666 7.36C10.9466 6.86667 10.7366 6.24667 10.7366 5.5C10.7366 4.74667 10.9533 4.12 11.3866 3.62C11.8266 3.11333 12.3966 2.86 13.0966 2.86C13.8633 2.86 14.4533 3.10667 14.8666 3.6C15.2866 4.09333 15.4966 4.72 15.4966 5.48ZM11.5566 5.49C11.5566 6.01667 11.6966 6.46667 11.9766 6.84C12.2566 7.20667 12.63 7.39 13.0966 7.39C13.6033 7.39 13.9933 7.21 14.2666 6.85C14.54 6.48333 14.6766 6.03 14.6766 5.49C14.6766 4.93 14.5466 4.47 14.2866 4.11C14.0266 3.74333 13.63 3.56 13.0966 3.56C12.6166 3.56 12.24 3.74667 11.9666 4.12C11.6933 4.49333 11.5566 4.95 11.5566 5.49ZM20.6519 8H19.8619V4.72C19.8619 4.34667 19.7652 4.06333 19.5719 3.87C19.3852 3.67 19.1385 3.57 18.8319 3.57C18.4519 3.57 18.1219 3.71667 17.8419 4.01C17.5685 4.30333 17.4319 4.71 17.4319 5.23V8H16.6519V2.93H17.4319V3.81C17.7319 3.17667 18.2652 2.86 19.0319 2.86C19.5252 2.86 19.9185 3.01 20.2119 3.31C20.5052 3.61 20.6519 4.01 20.6519 4.51V8ZM25.1023 6.65C25.1023 7.08333 24.9489 7.42667 24.6423 7.68C24.3423 7.93333 23.9289 8.06 23.4023 8.06C22.7889 8.06 22.2923 7.95667 21.9123 7.75V6.98C22.3589 7.24667 22.8389 7.38 23.3523 7.38C23.6589 7.38 23.8923 7.32 24.0523 7.2C24.2123 7.08 24.2923 6.91667 24.2923 6.71C24.2923 6.47 24.2023 6.28333 24.0223 6.15C23.8489 6.01667 23.5556 5.86667 23.1423 5.7C22.7623 5.55333 22.4556 5.37 22.2223 5.15C21.9956 4.93 21.8823 4.63333 21.8823 4.26C21.8823 3.84 22.0389 3.50667 22.3523 3.26C22.6723 3.00667 23.0689 2.88 23.5423 2.88C24.0689 2.88 24.4923 2.95333 24.8123 3.1V3.85C24.5056 3.66333 24.0856 3.57 23.5523 3.57C23.2856 3.57 23.0723 3.63333 22.9123 3.76C22.7589 3.88 22.6823 4.03667 22.6823 4.23C22.6823 4.35 22.7056 4.45667 22.7523 4.55C22.7989 4.63667 22.8889 4.72333 23.0223 4.81C23.1623 4.89667 23.2623 4.95667 23.3223 4.99C23.3889 5.01667 23.5289 5.07667 23.7423 5.17C24.1689 5.34333 24.5023 5.54 24.7423 5.76C24.9823 5.98 25.1023 6.27667 25.1023 6.65ZM30.6334 5.48C30.6334 6.23333 30.42 6.85667 29.9934 7.35C29.5667 7.84333 28.98 8.09 28.2334 8.09C27.5067 8.09 26.93 7.84667 26.5034 7.36C26.0834 6.86667 25.8734 6.24667 25.8734 5.5C25.8734 4.74667 26.09 4.12 26.5234 3.62C26.9634 3.11333 27.5334 2.86 28.2334 2.86C29 2.86 29.59 3.10667 30.0034 3.6C30.4234 4.09333 30.6334 4.72 30.6334 5.48ZM26.6934 5.49C26.6934 6.01667 26.8334 6.46667 27.1134 6.84C27.3934 7.20667 27.7667 7.39 28.2334 7.39C28.74 7.39 29.13 7.21 29.4034 6.85C29.6767 6.48333 29.8134 6.03 29.8134 5.49C29.8134 4.93 29.6834 4.47 29.4234 4.11C29.1634 3.74333 28.7667 3.56 28.2334 3.56C27.7534 3.56 27.3767 3.74667 27.1034 4.12C26.83 4.49333 26.6934 4.95 26.6934 5.49ZM32.5686 8H31.7786L31.7886 2.93H32.5686V3.82C32.8353 3.19333 33.2953 2.88 33.9486 2.88C34.0686 2.88 34.1619 2.88667 34.2286 2.9V3.68C34.0886 3.63333 33.9453 3.61 33.7986 3.61C33.4453 3.61 33.1519 3.77333 32.9186 4.1C32.6853 4.42667 32.5686 4.80333 32.5686 5.23V8ZM35.8803 8H35.0903V2.93H35.8803V8ZM35.8503 0.97C35.9503 1.07 36.0003 1.19333 36.0003 1.34C36.0003 1.48667 35.9503 1.61 35.8503 1.71C35.7503 1.80333 35.627 1.85 35.4803 1.85C35.3336 1.85 35.2103 1.80333 35.1103 1.71C35.017 1.61 34.9703 1.48667 34.9703 1.34C34.9703 1.19333 35.017 1.07 35.1103 0.97C35.2103 0.87 35.3336 0.819999 35.4803 0.819999C35.627 0.819999 35.7503 0.87 35.8503 0.97ZM40.4343 6.65C40.4343 7.08333 40.281 7.42667 39.9743 7.68C39.6743 7.93333 39.261 8.06 38.7343 8.06C38.121 8.06 37.6243 7.95667 37.2443 7.75V6.98C37.691 7.24667 38.171 7.38 38.6843 7.38C38.991 7.38 39.2243 7.32 39.3843 7.2C39.5443 7.08 39.6243 6.91667 39.6243 6.71C39.6243 6.47 39.5343 6.28333 39.3543 6.15C39.181 6.01667 38.8876 5.86667 38.4743 5.7C38.0943 5.55333 37.7876 5.37 37.5543 5.15C37.3276 4.93 37.2143 4.63333 37.2143 4.26C37.2143 3.84 37.371 3.50667 37.6843 3.26C38.0043 3.00667 38.401 2.88 38.8743 2.88C39.401 2.88 39.8243 2.95333 40.1443 3.1V3.85C39.8376 3.66333 39.4176 3.57 38.8843 3.57C38.6176 3.57 38.4043 3.63333 38.2443 3.76C38.091 3.88 38.0143 4.03667 38.0143 4.23C38.0143 4.35 38.0376 4.45667 38.0843 4.55C38.131 4.63667 38.221 4.72333 38.3543 4.81C38.4943 4.89667 38.5943 4.95667 38.6543 4.99C38.721 5.01667 38.861 5.07667 39.0743 5.17C39.501 5.34333 39.8343 5.54 40.0743 5.76C40.3143 5.98 40.4343 6.27667 40.4343 6.65ZM45.2054 7.74C44.8121 7.94667 44.3321 8.05 43.7654 8.05C42.9987 8.05 42.3787 7.81667 41.9054 7.35C41.4387 6.87667 41.2054 6.25333 41.2054 5.48C41.2054 4.67333 41.4154 4.03667 41.8354 3.57C42.2554 3.10333 42.7954 2.87 43.4554 2.87C44.0887 2.87 44.5921 3.07333 44.9654 3.48C45.3387 3.88667 45.5254 4.46333 45.5254 5.21C45.5254 5.42333 45.5087 5.62 45.4754 5.8H42.0154C42.0754 6.3 42.2654 6.68333 42.5854 6.95C42.9054 7.21667 43.3254 7.35 43.8454 7.35C44.4121 7.35 44.8654 7.23333 45.2054 7V7.74ZM43.4554 3.56C43.0754 3.56 42.7521 3.69667 42.4854 3.97C42.2187 4.24333 42.0621 4.63333 42.0154 5.14H44.7354V4.94C44.7354 4.52 44.6221 4.18667 44.3954 3.94C44.1687 3.68667 43.8554 3.56 43.4554 3.56ZM43.9754 2.4H43.2854L44.2754 0.84H45.2154L43.9754 2.4Z" fill="#878787" />
</symbol><symbol viewBox="0 0 24 24" fill="none" id="flag">
<path d="M3 6C3 4.89543 3.89543 4 5 4H9V20H5C3.89543 20 3 19.1046 3 18V6Z" fill="#096EC8" />
<path d="M9 4H15V20H9V4Z" fill="#E4E7EB" />
<path d="M15 4H19C20.1046 4 21 4.89543 21 6V18C21 19.1046 20.1046 20 19 20H15V4Z" fill="#E23A05" />
</symbol><symbol fill="currentColor" viewBox="0 0 256 256" id="house"><path d="M218.83,103.77l-80-75.48a1.14,1.14,0,0,1-.11-.11,16,16,0,0,0-21.53,0l-.11.11L37.17,103.77A16,16,0,0,0,32,115.55V208a16,16,0,0,0,16,16H96a16,16,0,0,0,16-16V160h32v48a16,16,0,0,0,16,16h48a16,16,0,0,0,16-16V115.55A16,16,0,0,0,218.83,103.77ZM208,208H160V160a16,16,0,0,0-16-16H112a16,16,0,0,0-16,16v48H48V115.55l.11-.1L128,40l79.9,75.43.11.1Z" /></symbol><symbol fill="currentColor" viewBox="0 0 256 256" id="map-pin"><path d="M128,64a40,40,0,1,0,40,40A40,40,0,0,0,128,64Zm0,64a24,24,0,1,1,24-24A24,24,0,0,1,128,128Zm0-112a88.1,88.1,0,0,0-88,88c0,31.4,14.51,64.68,42,96.25a254.19,254.19,0,0,0,41.45,38.3,8,8,0,0,0,9.18,0A254.19,254.19,0,0,0,174,200.25c27.45-31.57,42-64.85,42-96.25A88.1,88.1,0,0,0,128,16Zm0,206c-16.53-13-72-60.75-72-118a72,72,0,0,1,144,0C200,161.23,144.53,209,128,222Z" /></symbol><symbol fill="#383838" viewBox="0 0 256 256" id="shield-check"><path d="M208,40H48A16,16,0,0,0,32,56v58.78c0,89.61,75.82,119.34,91,124.39a15.53,15.53,0,0,0,10,0c15.2-5.05,91-34.78,91-124.39V56A16,16,0,0,0,208,40Zm0,74.79c0,78.42-66.35,104.62-80,109.18-13.53-4.51-80-30.69-80-109.18V56H208ZM82.34,141.66a8,8,0,0,1,11.32-11.32L112,148.68l50.34-50.34a8,8,0,0,1,11.32,11.32l-56,56a8,8,0,0,1-11.32,0Z" /></symbol><symbol fill="currentColor" viewBox="0 0 256 256" id="thumbs-down"><path d="M239.82,157l-12-96A24,24,0,0,0,204,40H32A16,16,0,0,0,16,56v88a16,16,0,0,0,16,16H75.06l37.78,75.58A8,8,0,0,0,120,240a40,40,0,0,0,40-40V184h56a24,24,0,0,0,23.82-27ZM72,144H32V56H72Zm150,21.29a7.88,7.88,0,0,1-6,2.71H152a8,8,0,0,0-8,8v24a24,24,0,0,1-19.29,23.54L88,150.11V56H204a8,8,0,0,1,7.94,7l12,96A7.87,7.87,0,0,1,222,165.29Z" /></symbol><symbol fill="currentColor" viewBox="0 0 256 256" id="thumbs-up"><path d="M234,80.12A24,24,0,0,0,216,72H160V56a40,40,0,0,0-40-40,8,8,0,0,0-7.16,4.42L75.06,96H32a16,16,0,0,0-16,16v88a16,16,0,0,0,16,16H204a24,24,0,0,0,23.82-21l12-96A24,24,0,0,0,234,80.12ZM32,112H72v88H32ZM223.94,97l-12,96a8,8,0,0,1-7.94,7H88V105.89l36.71-73.43A24,24,0,0,1,144,56V80a8,8,0,0,0,8,8h64a8,8,0,0,1,7.94,9Z" /></symbol><symbol fill="currentColor" viewBox="0 0 256 256" id="truck"><path d="M247.42,117l-14-35A15.93,15.93,0,0,0,218.58,72H184V64a8,8,0,0,0-8-8H24A16,16,0,0,0,8,72V184a16,16,0,0,0,16,16H41a32,32,0,0,0,62,0h50a32,32,0,0,0,62,0h17a16,16,0,0,0,16-16V120A7.94,7.94,0,0,0,247.42,117ZM184,88h34.58l9.6,24H184ZM24,72H168v64H24ZM72,208a16,16,0,1,1,16-16A16,16,0,0,1,72,208Zm81-24H103a32,32,0,0,0-62,0H24V152H168v12.31A32.11,32.11,0,0,0,153,184Zm31,24a16,16,0,1,1,16-16A16,16,0,0,1,184,208Zm48-24H215a32.06,32.06,0,0,0-31-24V128h48Z" /></symbol><symbol viewBox="0 0 40 40" fill="none" id="youtube">
  <rect width="40" height="40" rx="4" fill="#E23A05" />
  <path fill-rule="evenodd" clip-rule="evenodd" d="M24.5278 20L15 15.236L15 24.7639L24.5278 20ZM27.2111 20.8944C27.9482 20.5259 27.9482 19.4741 27.2111 19.1055L14.4472 12.7236C13.7823 12.3911 13 12.8746 13 13.618L13 26.3819C13 27.1253 13.7823 27.6088 14.4472 27.2763L27.2111 20.8944Z" fill="white" />
</symbol></defs></svg>