<svg width="31" height="25" viewBox="0 0 31 25" fill="none" xmlns="http://www.w3.org/2000/svg">
<path d="M9.67597 25C6.10936 25 2.79028 23.9536 0 22.1647C0.49505 22.221 1.00135 22.2547 1.50765 22.2547C4.4667 22.2547 7.18947 21.2421 9.34969 19.5545C6.59316 19.4982 4.25293 17.6755 3.4541 15.1665C3.83663 15.2453 4.23042 15.279 4.64672 15.279C5.22052 15.279 5.78308 15.2003 6.31188 15.054C3.42034 14.4689 1.24888 11.9262 1.24888 8.86589C1.24888 8.84338 1.24888 8.80963 1.24888 8.78713C2.10396 9.25968 3.07156 9.54095 4.10666 9.57471C2.41899 8.43834 1.29388 6.5144 1.29388 4.32043C1.29388 3.16157 1.60891 2.08146 2.14897 1.14761C5.25428 4.973 9.90099 7.49325 15.144 7.75202C15.0315 7.29073 14.9752 6.80693 14.9752 6.31188C14.9752 2.82403 17.7993 0 21.2871 0C23.0986 0 24.7412 0.765077 25.8888 1.99145C27.3402 1.71017 28.6904 1.19262 29.9055 0.461296C29.4329 1.93519 28.4428 3.17282 27.1377 3.9604C28.4091 3.80288 29.6355 3.46535 30.7606 2.9703C29.9167 4.23042 28.8479 5.34428 27.6103 6.23312C27.6215 6.50315 27.6328 6.77318 27.6328 7.05446C27.6328 15.3803 21.2759 25 9.67597 25Z" fill="#D21D3A"/>
</svg>
