<svg width="23" height="18" viewBox="0 0 23 18" fill="none" xmlns="http://www.w3.org/2000/svg">
<path fill-rule="evenodd" clip-rule="evenodd" d="M3.16181 0.712998C3.76706 0.191364 4.52331 0 5.17978 0C5.61665 0 6.06871 0.167797 6.43303 0.332475C6.8193 0.507074 7.22302 0.733926 7.58617 0.943103C7.66503 0.988529 7.7416 1.03289 7.81597 1.07597C8.09847 1.23962 8.34909 1.38481 8.57245 1.49993C8.71122 1.57146 8.81899 1.62048 8.89917 1.65019C8.93286 1.66268 8.95443 1.66899 8.96553 1.67195C9.23634 1.67044 9.4089 1.64821 9.65837 1.61607C9.71193 1.60917 9.76904 1.60181 9.83142 1.59411C10.2025 1.54827 10.6707 1.50408 11.4967 1.50408C12.3227 1.50408 12.7909 1.54827 13.162 1.59411C13.2244 1.60181 13.2815 1.60917 13.335 1.61607C13.5845 1.64821 13.7571 1.67044 14.0279 1.67195C14.039 1.66899 14.0605 1.66268 14.0942 1.65019C14.1744 1.62048 14.2822 1.57146 14.421 1.49993C14.6443 1.38481 14.8949 1.23962 15.1774 1.07597C15.2518 1.03289 15.3284 0.988529 15.4072 0.943103C15.7704 0.733926 16.1741 0.507074 16.5604 0.332475C16.9247 0.167797 17.3768 0 17.8136 0C18.4701 0 19.2263 0.191364 19.8316 0.712998C20.459 1.25373 20.8357 2.07358 20.8357 3.14295V5.14768L20.8357 5.14931C20.8351 5.46524 20.7818 6.09474 20.6025 6.62077C20.5438 6.79294 20.45 7.02128 20.2933 7.22723C20.5967 7.82937 20.7406 8.45036 20.806 9.04937C20.8737 9.67024 20.8585 10.3295 20.8453 10.9027C20.8403 11.1158 20.8357 11.317 20.8357 11.4999C20.8357 14.0388 19.0956 15.5929 17.1887 16.4701C15.2837 17.3465 13.0275 17.651 11.4967 17.651C9.96593 17.651 7.70976 17.3465 5.80471 16.4701C3.89781 15.5929 2.15771 14.0388 2.15771 11.4999C2.15771 11.3172 2.15307 11.1161 2.14815 10.9031C2.13492 10.3302 2.11969 9.67079 2.18745 9.04978C2.25282 8.45066 2.39668 7.82943 2.70025 7.2271C2.54361 7.02112 2.4499 6.7928 2.39127 6.62076C2.2121 6.09494 2.159 5.46602 2.15772 5.15201L2.15771 5.14875V3.14295C2.15771 2.07358 2.5344 1.25373 3.16181 0.712998ZM3.8308 5.79275C3.7839 5.54893 3.76308 5.29393 3.76235 5.14696V3.14295C3.76235 2.47396 3.98313 2.1235 4.20938 1.9285C4.45779 1.71441 4.81142 1.60464 5.17978 1.60464C5.25479 1.60464 5.44284 1.64585 5.77209 1.79467C6.0794 1.93358 6.4227 2.12474 6.78525 2.33357C6.85335 2.37279 6.92266 2.41297 6.99255 2.45347C7.27901 2.6195 7.57515 2.79115 7.8373 2.92626C8.00265 3.01149 8.17499 3.0931 8.34154 3.15482C8.49526 3.21179 8.70797 3.27667 8.9357 3.27667C9.33377 3.27667 9.61287 3.24035 9.88052 3.20553C9.92989 3.1991 9.97887 3.19273 10.0281 3.18664C10.3369 3.1485 10.7394 3.10872 11.4967 3.10872C12.254 3.10872 12.6565 3.1485 12.9653 3.18664C13.0145 3.19273 13.0635 3.1991 13.1129 3.20553C13.3805 3.24035 13.6596 3.27667 14.0577 3.27667C14.2854 3.27667 14.4981 3.21179 14.6519 3.15482C14.8184 3.0931 14.9908 3.01149 15.1561 2.92626C15.4182 2.79115 15.7144 2.61951 16.0008 2.45348C16.0707 2.41297 16.1401 2.3728 16.2082 2.33357C16.5707 2.12474 16.914 1.93358 17.2213 1.79467C17.5506 1.64585 17.7386 1.60464 17.8136 1.60464C18.182 1.60464 18.5356 1.71441 18.784 1.9285C19.0103 2.1235 19.2311 2.47396 19.2311 3.14295V5.14693C19.2307 5.29334 19.21 5.54879 19.163 5.79306C19.0492 5.69441 18.9286 5.5982 18.8009 5.50441C18.4437 5.24215 17.9416 5.31909 17.6793 5.67626C17.4171 6.03342 17.494 6.53556 17.8512 6.79782C18.1098 6.98767 18.3142 7.18056 18.4796 7.37552C18.9401 7.92037 19.1354 8.53307 19.2108 9.22345C19.2664 9.73304 19.2549 10.2216 19.2425 10.7525C19.2369 10.9911 19.2311 11.2384 19.2311 11.4999C19.2311 13.1395 18.1539 14.2598 16.5181 15.0123C14.8803 15.7657 12.8682 16.0464 11.4967 16.0464C10.1252 16.0464 8.11306 15.7657 6.47533 15.0123C4.83946 14.2598 3.76235 13.1395 3.76235 11.4999C3.76235 11.2386 3.75655 10.9915 3.75094 10.7529C3.73848 10.2222 3.727 9.73356 3.78262 9.22383C3.85797 8.5333 4.05327 7.92042 4.51369 7.37565C4.67907 7.18064 4.8836 6.98771 5.14222 6.79782C5.49939 6.53556 5.57633 6.03342 5.31407 5.67626C5.05182 5.31909 4.54968 5.24215 4.19251 5.50441C4.0649 5.59811 3.94446 5.69421 3.8308 5.79275Z" fill="white"/>
<path fill-rule="evenodd" clip-rule="evenodd" d="M7.26059 8.98123C7.4375 8.69606 7.7862 8.35742 8.30836 8.35742C8.83225 8.35742 9.18064 8.69864 9.35647 8.98257C9.54034 9.27949 9.62845 9.63957 9.62845 9.99522C9.62845 10.3511 9.54046 10.7114 9.35631 11.0085C9.17994 11.2931 8.83139 11.633 8.30836 11.633C7.78534 11.633 7.43679 11.2931 7.26042 11.0085C7.07626 10.7114 6.98828 10.3511 6.98828 9.99522C6.98828 9.63905 7.07614 9.27856 7.26059 8.98123ZM13.6791 8.98123C13.856 8.69606 14.2048 8.35742 14.7269 8.35742C15.2508 8.35742 15.5992 8.69864 15.775 8.98257C15.9589 9.27949 16.047 9.63957 16.047 9.99522C16.047 10.3511 15.959 10.7114 15.7749 11.0085C15.5985 11.2931 15.2499 11.633 14.7269 11.633C14.2039 11.633 13.8553 11.2931 13.679 11.0085C13.4948 10.7114 13.4068 10.3511 13.4068 9.99522C13.4068 9.63905 13.4947 9.27856 13.6791 8.98123ZM11.1942 13.0834C11.1941 13.0833 11.1953 13.0827 11.1978 13.0817C11.1955 13.0829 11.1942 13.0834 11.1942 13.0834ZM11.845 13.0818C11.8476 13.0828 11.8488 13.0834 11.8487 13.0835C11.8487 13.0835 11.8474 13.083 11.845 13.0818ZM11.845 12.0563C11.8474 12.0552 11.8487 12.0546 11.8487 12.0547C11.8488 12.0547 11.8476 12.0553 11.845 12.0563ZM11.1978 12.0564C11.1953 12.0554 11.1941 12.0548 11.1942 12.0548C11.1942 12.0547 11.1955 12.0553 11.1978 12.0564ZM10.6209 11.5843C10.8909 11.4795 11.2094 11.4319 11.5208 11.4319C11.8327 11.4319 12.1514 11.4794 12.4215 11.5842C12.554 11.6356 12.7161 11.7166 12.8588 11.8475C13.0022 11.9791 13.1865 12.222 13.1865 12.5691C13.1865 12.9161 13.0022 13.159 12.8588 13.2906C12.7161 13.4215 12.554 13.5025 12.4215 13.5539C12.1514 13.6587 11.8327 13.7062 11.5208 13.7062C11.2094 13.7062 10.8909 13.6586 10.6209 13.5538C10.4884 13.5024 10.3264 13.4214 10.1838 13.2905C10.0405 13.1589 9.8563 12.9161 9.8563 12.5691C9.8563 12.222 10.0405 11.9792 10.1838 11.8476C10.3264 11.7167 10.4884 11.6357 10.6209 11.5843Z" fill="white"/>
<path fill-rule="evenodd" clip-rule="evenodd" d="M2.74408 12.0504C2.00917 12.3017 1.40511 12.5676 1.2381 12.6756C0.86602 12.9163 0.369323 12.8097 0.1287 12.4376C-0.111924 12.0655 -0.00535558 11.5688 0.366727 11.3282C0.717487 11.1014 1.49341 10.7822 2.22487 10.5321C2.6069 10.4014 3.00774 10.279 3.37652 10.1883C3.72999 10.1014 4.10921 10.0293 4.42569 10.0293C4.8688 10.0293 5.22801 10.3885 5.22801 10.8316C5.22801 11.2747 4.8688 11.6339 4.42569 11.6339C4.31052 11.6339 4.08572 11.6663 3.7598 11.7465C3.44918 11.8229 3.09523 11.9303 2.74408 12.0504ZM17.772 10.8316C17.772 10.3885 18.1312 10.0293 18.5743 10.0293C18.8908 10.0293 19.27 10.1013 19.6236 10.1883C19.9924 10.279 20.3934 10.4014 20.7755 10.532C21.5068 10.7821 22.2833 11.1014 22.6339 11.3286C23.0058 11.5696 23.1119 12.0664 22.8709 12.4383C22.6299 12.8101 22.1331 12.9162 21.7613 12.6752C21.5952 12.5676 20.9917 12.3018 20.2564 12.0504C19.9052 11.9303 19.5511 11.8229 19.2404 11.7465C18.9144 11.6663 18.6895 11.6339 18.5743 11.6339C18.1312 11.6339 17.772 11.2747 17.772 10.8316ZM3.10069 15.2608C3.0524 15.2923 3.00662 15.3222 2.96362 15.35C2.59154 15.5907 2.09484 15.4841 1.85422 15.112C1.6136 14.7399 1.72016 14.2432 2.09225 14.0026C2.12713 13.9801 2.16684 13.9541 2.21081 13.9253C2.47031 13.7555 2.87808 13.4886 3.31798 13.2562C3.8065 12.9981 4.47444 12.7037 5.11675 12.7037C5.55986 12.7037 5.91907 13.0629 5.91907 13.506C5.91907 13.9491 5.55986 14.3083 5.11675 14.3083C4.89577 14.3083 4.52818 14.4317 4.06756 14.675C3.70033 14.869 3.3634 15.0891 3.10069 15.2608ZM17.0809 13.506C17.0809 13.0629 17.4401 12.7037 17.8832 12.7037C18.5256 12.7037 19.1935 12.9981 19.682 13.2562C20.1219 13.4886 20.5297 13.7555 20.7892 13.9253C20.8332 13.9541 20.8729 13.9801 20.9078 14.0026C21.2798 14.2432 21.3864 14.7399 21.1458 15.112C20.9052 15.4841 20.4085 15.5907 20.0364 15.35C19.9934 15.3222 19.9476 15.2923 19.8993 15.2608C19.6366 15.0891 19.2997 14.869 18.9324 14.675C18.4718 14.4317 18.1042 14.3083 17.8832 14.3083C17.4401 14.3083 17.0809 13.9491 17.0809 13.506Z" fill="white"/>
</svg>
