<svg width="43" height="27" viewBox="0 0 43 27" fill="none" xmlns="http://www.w3.org/2000/svg">
<rect x="0.699219" y="0.5" width="41" height="26" rx="6.5" fill="white" stroke="#96B6C5"/>
<path d="M17.1325 16.8486V8.11328H20.409C21.0809 8.11328 21.6442 8.23825 22.1006 8.4882C22.557 8.73814 22.903 9.08226 23.1366 9.51876C23.3702 9.95525 23.488 10.4515 23.488 11.0057C23.488 11.56 23.3702 12.0635 23.1348 12.4982C22.8993 12.9328 22.5498 13.2752 22.0897 13.5233C21.6297 13.7714 21.061 13.8964 20.3872 13.8964H18.2156V12.596H20.1735C20.5665 12.596 20.8871 12.5271 21.1371 12.3913C21.387 12.2555 21.5735 12.0671 21.6931 11.828C21.8144 11.5889 21.8742 11.3155 21.8742 11.0039C21.8742 10.6924 21.8144 10.4207 21.6931 10.1853C21.5717 9.94982 21.3852 9.76508 21.1334 9.63286C20.8817 9.50065 20.5575 9.43544 20.1626 9.43544H18.7119V16.8504H17.1289L17.1325 16.8486Z" fill="#96B6C5"/>
<path d="M26.5665 16.9814C26.1518 16.9814 25.7787 16.9072 25.4472 16.7568C25.1158 16.6083 24.855 16.3874 24.663 16.0939C24.471 15.8005 24.375 15.4401 24.375 15.0109C24.375 14.6414 24.4438 14.3353 24.5797 14.0944C24.7155 13.8535 24.9021 13.6597 25.1393 13.5148C25.3748 13.3699 25.641 13.2594 25.9399 13.1834C26.2369 13.1073 26.5448 13.053 26.8636 13.0186C27.2475 12.9787 27.5591 12.9425 27.7981 12.9099C28.0372 12.8773 28.2111 12.8266 28.3216 12.7559C28.4321 12.6853 28.4864 12.5766 28.4864 12.4299V12.4046C28.4864 12.084 28.3904 11.834 28.2002 11.6584C28.01 11.4827 27.7347 11.3939 27.3761 11.3939C26.9976 11.3939 26.6987 11.4772 26.4778 11.6421C26.2568 11.8069 26.1083 12.0025 26.0322 12.2271L24.5905 12.0224C24.7046 11.6239 24.8912 11.2907 25.1538 11.0226C25.4146 10.7546 25.7352 10.5517 26.1137 10.4177C26.4923 10.2819 26.9107 10.2148 27.3671 10.2148C27.6822 10.2148 27.9974 10.2511 28.3107 10.3253C28.624 10.3996 28.9102 10.5209 29.1674 10.6894C29.4264 10.8578 29.6347 11.0878 29.7922 11.3776C29.9498 11.6674 30.0295 12.0296 30.0295 12.4661V16.851H28.5443V15.9509H28.4936C28.3994 16.132 28.269 16.3022 28.0988 16.4598C27.9304 16.6174 27.7184 16.7442 27.4631 16.8402C27.2077 16.9361 26.9107 16.9832 26.5702 16.9832L26.5665 16.9814ZM26.9668 15.8476C27.2765 15.8476 27.5464 15.786 27.7728 15.6629C28.001 15.5397 28.1767 15.3749 28.2998 15.1702C28.423 14.9656 28.4846 14.7428 28.4846 14.5001V13.7285C28.4357 13.7684 28.3542 13.8046 28.2401 13.839C28.126 13.8734 27.9956 13.9024 27.8543 13.9296C27.7112 13.9549 27.5717 13.9785 27.4323 13.9984C27.2928 14.0183 27.1715 14.0364 27.07 14.0491C26.84 14.0799 26.6335 14.1324 26.4506 14.2031C26.2677 14.2737 26.1246 14.3733 26.0196 14.5001C25.9145 14.6269 25.862 14.7899 25.862 14.9891C25.862 15.2735 25.9652 15.489 26.1735 15.6339C26.3818 15.7788 26.6462 15.8512 26.9668 15.8512V15.8476Z" fill="#96B6C5"/>
<path d="M32.3021 19.3058C32.092 19.3058 31.8982 19.2895 31.7208 19.2569C31.5433 19.2243 31.402 19.1863 31.2969 19.1446L31.6556 17.942C31.8801 18.0072 32.0812 18.038 32.2569 18.0362C32.4325 18.0326 32.5883 17.9782 32.7241 17.8714C32.86 17.7645 32.9741 17.587 33.0683 17.3407L33.2005 16.9875L30.8242 10.2988H32.4615L33.9721 15.247H34.0409L35.555 10.2988H37.1978L34.5734 17.645C34.4502 17.9927 34.289 18.2898 34.0862 18.5379C33.8833 18.786 33.637 18.978 33.3454 19.1102C33.0538 19.2424 32.706 19.3077 32.3021 19.3077V19.3058Z" fill="#96B6C5"/>
<path d="M10.0441 17.3165C7.58998 17.3165 5.80778 15.6683 5.80778 13.3989C5.80778 12.5803 6.05772 11.3758 7.24767 10.2891L7.27121 10.2674L8.52998 11.5696C8.51549 11.5841 8.49557 11.6022 8.47022 11.6258C7.90513 12.1419 7.61896 12.7378 7.61896 13.3989C7.61896 14.6595 8.59338 15.5053 10.0441 15.5053C11.926 15.5053 13.1431 14.1922 13.1431 12.1582C13.1431 10.5354 11.8644 8.81118 9.49535 8.81118C7.74031 8.81118 6.53406 10.0555 6.52319 10.0681L5.19922 8.82929C5.26804 8.75504 6.93252 7 9.49353 7C12.9112 7 14.9524 9.62259 14.9524 12.1582C14.9524 15.1956 12.933 17.3165 10.0423 17.3165H10.0441Z" fill="#96B6C5"/>
</svg>
