<svg width="50" height="25" viewBox="0 0 50 25" fill="none" xmlns="http://www.w3.org/2000/svg">
<path fill-rule="evenodd" clip-rule="evenodd" d="M31.3266 16.4105C31.0279 16.4105 30.5683 16.3875 30.17 16.3109V11.5621C30.553 11.386 31.0509 11.2864 31.6483 11.2864C33.1036 11.2864 34.0839 12.1825 34.0839 13.7604C34.0839 15.4531 33.027 16.4181 31.3343 16.4181M31.8551 9.18009C31.2347 9.18009 30.576 9.25668 30.1777 9.45582V5.34277H27.7803V18.0496C28.8373 18.3253 30.216 18.4708 31.4108 18.4708C34.4822 18.4708 36.5196 16.8317 36.5196 13.8446C36.5196 11.0107 34.6201 9.18009 31.8474 9.18009M41.3373 9.11115C38.9936 9.11115 37.477 9.97666 37.477 12.6727V18.333H39.9203V12.8336C39.9203 11.8226 40.4642 11.2941 41.5135 11.2941C42.1032 11.2941 42.7083 11.3707 43.2138 11.5315V9.272C42.5934 9.17243 41.9654 9.11881 41.3373 9.11115Z" fill="#575551"/>
<path fill-rule="evenodd" clip-rule="evenodd" d="M48.3226 16.3874C47.2809 16.3874 46.7448 15.8666 46.7448 14.8709V11.3553H49.8928V9.36385H46.7448V6.04736H44.3321V15.0394C44.3321 17.6895 45.8257 18.555 48.1464 18.555C48.7209 18.555 49.3643 18.4937 50 18.3942V16.1653C49.5021 16.3262 48.9047 16.4028 48.3226 16.4028" fill="#575551"/>
<path fill-rule="evenodd" clip-rule="evenodd" d="M10.5162 0.0195312C10.3784 0.0195312 10.2405 0.0501685 10.1333 0.103784L0.528493 5.34275L11.2822 11.6081C11.3817 11.6617 11.4583 11.7919 11.4583 11.9068V21.0367C11.4583 21.1516 11.3741 21.2818 11.2745 21.3354L10.6924 21.6571C10.6464 21.6801 10.5852 21.6954 10.5162 21.6954H10.5009C10.432 21.6954 10.363 21.6877 10.3171 21.6571L9.73499 21.3354C9.63542 21.2818 9.55882 21.1516 9.55882 21.0367V12.8948C9.55882 12.8336 9.51287 12.7646 9.45925 12.734L0 7.21928V18.0189C0 18.264 0.168505 18.5551 0.382966 18.6776L10.1409 24.4298C10.2482 24.491 10.3784 24.5217 10.5162 24.5217C10.6541 24.5217 10.792 24.491 10.8915 24.4298L20.6495 18.6776C20.8563 18.5551 21.0248 18.2564 21.0248 18.0189V7.21928L14.6063 10.957C14.5067 11.0183 14.3536 11.0106 14.254 10.957L13.6872 10.62C13.6412 10.5894 13.5953 10.5434 13.5646 10.4898C13.5263 10.4209 13.511 10.3596 13.5034 10.2983L13.488 9.63197C13.488 9.51708 13.557 9.38687 13.6566 9.3256L20.4963 5.34275L10.8992 0.103784C10.792 0.0425092 10.6541 0.0195312 10.5162 0.0195312Z" fill="url(#paint0_linear_577_4080)"/>
<defs>
<linearGradient id="paint0_linear_577_4080" x1="3.66421" y1="20.8222" x2="12.5906" y2="13.3693" gradientUnits="userSpaceOnUse">
<stop stop-color="#A80034"/>
<stop offset="1" stop-color="#DB0031"/>
</linearGradient>
</defs>
</svg>
