<svg width="30" height="31" viewBox="0 0 30 31" fill="none" xmlns="http://www.w3.org/2000/svg">
<path d="M16.875 28.707L14.375 28.207L15.375 22.832L10.875 19.457L9.25 12.332L6.5 14.707L7.5 19.457L5 19.957L3.75 13.832L9.3125 8.86328C9.79167 8.44662 10.3596 8.27495 11.0162 8.34828C11.6729 8.42162 12.3029 8.58287 12.9062 8.83203C13.5729 9.1237 14.2658 9.33203 14.985 9.45703C15.7042 9.58203 16.4279 9.59245 17.1562 9.48828C17.8854 9.38412 18.5575 9.14453 19.1725 8.76953C19.7875 8.39453 20.3758 7.97787 20.9375 7.51953L22.5 9.45703C21.875 9.9362 21.2292 10.3841 20.5625 10.8008C19.8958 11.2175 19.1771 11.5404 18.4062 11.7695C17.7188 11.957 17.0262 12.0562 16.3287 12.067C15.6312 12.0779 14.9383 11.9995 14.25 11.832L15.125 15.707L19.75 14.832L26.25 19.457L24.75 21.457L19.375 17.707L14.875 18.582L18.25 21.082L16.875 28.707ZM10 7.45703C9.3125 7.45703 8.72375 7.21203 8.23375 6.72203C7.74375 6.23203 7.49917 5.6437 7.5 4.95703C7.5 4.26953 7.745 3.68078 8.235 3.19078C8.725 2.70078 9.31333 2.4562 10 2.45703C10.6875 2.45703 11.2763 2.70203 11.7663 3.19203C12.2563 3.68203 12.5008 4.27037 12.5 4.95703C12.5 5.64453 12.255 6.23328 11.765 6.72328C11.275 7.21328 10.6867 7.45787 10 7.45703Z" fill="black"/>
</svg>
