<svg width="30" height="31" viewBox="0 0 30 31" fill="none" xmlns="http://www.w3.org/2000/svg">
<path d="M15 5.28906C13.3424 5.28906 11.7527 5.94754 10.5806 7.11965C9.40848 8.29175 8.75 9.88146 8.75 11.5391C8.75 11.8706 8.8817 12.1885 9.11612 12.4229C9.35054 12.6574 9.66848 12.7891 10 12.7891C10.3315 12.7891 10.6495 12.6574 10.8839 12.4229C11.1183 12.1885 11.25 11.8706 11.25 11.5391C11.25 9.46656 12.9275 7.78906 15 7.78906C17.0725 7.78906 18.75 9.46656 18.75 11.5391C18.75 12.5591 18.5013 13.1566 18.2025 13.5753C17.875 14.0316 17.4213 14.3728 16.7925 14.8066L16.6475 14.9041C16.0887 15.2866 15.3687 15.7778 14.8112 16.4628C14.1525 17.2728 13.75 18.2966 13.75 19.6641V20.2891C13.75 20.6206 13.8817 20.9385 14.1161 21.1729C14.3505 21.4074 14.6685 21.5391 15 21.5391C15.3315 21.5391 15.6495 21.4074 15.8839 21.1729C16.1183 20.9385 16.25 20.6206 16.25 20.2891V19.6641C16.25 18.8441 16.4725 18.3841 16.75 18.0403C17.0712 17.6478 17.5037 17.3503 18.1425 16.9116L18.2088 16.8653C18.8288 16.4403 19.625 15.8828 20.2338 15.0303C20.875 14.1403 21.25 13.0178 21.25 11.5391C21.25 9.88146 20.5915 8.29175 19.4194 7.11965C18.2473 5.94754 16.6576 5.28906 15 5.28906ZM15 26.8516C15.4144 26.8516 15.8118 26.6869 16.1049 26.3939C16.3979 26.1009 16.5625 25.7035 16.5625 25.2891C16.5625 24.8747 16.3979 24.4772 16.1049 24.1842C15.8118 23.8912 15.4144 23.7266 15 23.7266C14.5856 23.7266 14.1882 23.8912 13.8951 24.1842C13.6021 24.4772 13.4375 24.8747 13.4375 25.2891C13.4375 25.7035 13.6021 26.1009 13.8951 26.3939C14.1882 26.6869 14.5856 26.8516 15 26.8516Z" fill="black"/>
</svg>
