<svg width="42" height="42" viewBox="0 0 42 42" fill="none" xmlns="http://www.w3.org/2000/svg">
<circle cx="21" cy="21" r="20" fill="white" stroke="url(#paint0_linear_50_3853)" stroke-width="2"/>
<path d="M29.387 18.4544C29.387 19.6509 29.387 20.8474 29.3401 22.0438C29.2404 24.5365 28.1671 26.5306 26.1729 28.0321C24.8005 29.0702 23.2756 29.8503 21.7213 30.56C20.8826 30.9412 21.0116 30.9295 20.2081 30.5658C18.6421 29.8562 17.1113 29.0761 15.7389 28.0321C14.0849 26.7711 12.994 25.1699 12.689 23.0878C12.5893 22.4075 12.5366 21.7213 12.5307 21.035C12.5131 18.9529 12.5248 16.865 12.5248 14.7828C12.5248 14.255 12.7888 13.9852 13.3166 13.9793C15.3459 13.9441 17.2052 13.3048 18.9588 12.3254C19.475 12.038 19.9676 11.7037 20.4544 11.3694C20.8298 11.1172 21.0879 11.1054 21.4574 11.3694C23.0058 12.4837 24.6891 13.3166 26.5542 13.7213C27.2228 13.8679 27.9149 13.9148 28.5952 13.9735C29.1113 14.0145 29.387 14.2609 29.387 14.7887C29.387 16.0087 29.387 17.2345 29.387 18.4544ZM19.5512 22.1142C19.0175 21.5864 18.5131 21.0644 17.9852 20.5658C17.8621 20.4485 17.6861 20.3488 17.516 20.3136C17.2228 20.2491 16.9471 20.4251 16.8122 20.6831C16.6715 20.9647 16.7184 21.2696 16.953 21.5101C17.6157 22.1787 18.2844 22.8474 18.953 23.5101C19.3694 23.9265 19.7272 23.9265 20.1436 23.5101C21.7154 21.9383 23.2873 20.3664 24.8591 18.7946C24.9178 18.7359 24.9764 18.6831 25.0234 18.6186C25.3342 18.2139 25.1231 17.6216 24.6245 17.5043C24.3313 17.4397 24.1025 17.5512 23.8973 17.7565C22.5072 19.1523 21.1172 20.5424 19.7272 21.9324C19.6744 21.9969 19.6157 22.0497 19.5512 22.1142Z" fill="url(#paint1_linear_50_3853)"/>
<defs>
<linearGradient id="paint0_linear_50_3853" x1="2.71107e-09" y1="24.7939" x2="42.0036" y2="24.7527" gradientUnits="userSpaceOnUse">
<stop stop-color="#EB4747"/>
<stop offset="1" stop-color="#FF8B8B"/>
</linearGradient>
<linearGradient id="paint1_linear_50_3853" x1="12.521" y1="22.7854" x2="29.3679" y2="23.3531" gradientUnits="userSpaceOnUse">
<stop stop-color="#EB4747"/>
<stop offset="1" stop-color="#FF8B8B"/>
</linearGradient>
</defs>
</svg>
