<svg width="67" height="29" viewBox="0 0 67 29" fill="none" xmlns="http://www.w3.org/2000/svg">
<path fill-rule="evenodd" clip-rule="evenodd" d="M43.9532 22.9629C42.7098 23.3072 41.0904 23.4506 39.7024 23.4506C36.0879 23.4506 33.7168 21.5858 33.7168 18.1719C33.7168 14.9301 35.9434 12.8359 39.1819 12.8359C39.9049 12.8359 40.6856 12.922 41.1483 13.1515V8.44653H43.9532V22.9629ZM41.1483 15.5613C40.7145 15.3605 40.1073 15.2457 39.4133 15.2457C37.7073 15.2457 36.5795 16.2785 36.5795 18.0859C36.5795 20.008 37.794 21.0981 39.7892 21.0981C40.1362 21.0981 40.6856 21.0981 41.1483 20.9834V15.5613ZM67 22.9629C65.7565 23.3072 64.1372 23.4506 62.7203 23.4506C59.1346 23.4506 56.7345 21.5858 56.7345 18.1719C56.7345 14.9301 58.9611 12.8359 62.1998 12.8359C62.9516 12.8359 63.7034 12.922 64.1661 13.1515V8.44653H67V22.9629ZM64.1661 15.5613C63.7323 15.3605 63.154 15.2457 62.46 15.2457C60.725 15.2457 59.5972 16.2785 59.5972 18.0859C59.5972 20.008 60.8407 21.0981 62.8359 21.0981C63.1829 21.0981 63.7034 21.0981 64.1661 20.9834V15.5613ZM48.3775 15.5613C48.8402 15.3605 49.5053 15.3031 50.0547 15.3031C51.7897 15.3031 52.9753 16.2785 52.9753 18.0285C52.9753 20.094 51.6451 21.0408 49.8812 21.0695V23.4506H50.0258C53.6693 23.4506 55.838 21.4711 55.838 17.9424C55.838 14.7293 53.5247 12.8359 50.1125 12.8359C48.3775 12.8359 46.6714 13.2375 45.5436 13.6965V27.3235H48.3775V15.5613Z" fill="#3F3F42"/>
<path fill-rule="evenodd" clip-rule="evenodd" d="M23.3652 6.20898L23.8279 6.72538L24.0881 6.58194L23.3652 6.20898Z" fill="#DC0032"/>
<path fill-rule="evenodd" clip-rule="evenodd" d="M22.6709 5.83594L23.5673 6.86873L23.8854 6.6966L23.5384 6.29496L22.6709 5.83594Z" fill="#DC0032"/>
<path fill-rule="evenodd" clip-rule="evenodd" d="M21.9473 5.46338L23.3064 7.01257L23.6244 6.84043L22.8437 5.9224L21.9473 5.46338Z" fill="#DC0032"/>
<path fill-rule="evenodd" clip-rule="evenodd" d="M21.2539 5.08936L23.0468 7.15494L23.3648 6.98281L22.1214 5.54837L21.2539 5.08936ZM24.695 8.73277L24.4926 8.84753L24.695 9.07704V8.73277Z" fill="#DC0032"/>
<path fill-rule="evenodd" clip-rule="evenodd" d="M20.5605 4.71753L22.7871 7.29951L23.1052 7.12737L21.4281 5.17655L20.5605 4.71753ZM24.58 8.79128L24.2619 8.9921L24.6956 9.50849V8.96341L24.58 8.79128Z" fill="#DC0032"/>
<path fill-rule="evenodd" clip-rule="evenodd" d="M19.8369 4.34399L22.5262 7.44237L22.8732 7.27023L20.7333 4.80301L19.8369 4.34399ZM24.319 8.93414L24.0009 9.13496L24.6949 9.93824V9.39315L24.319 8.93414Z" fill="#DC0032"/>
<path fill-rule="evenodd" clip-rule="evenodd" d="M19.1426 3.97144L22.2945 7.58619L22.6126 7.41406L20.0101 4.43044L19.1426 3.97144ZM24.0584 9.10665L23.7403 9.27878L24.6946 10.3976V9.85255L24.0584 9.10665Z" fill="#DC0032"/>
<path fill-rule="evenodd" clip-rule="evenodd" d="M18.4492 3.59888L22.0349 7.73002L22.353 7.55789L19.3167 4.05789L18.4492 3.59888ZM23.7988 9.25048L23.4807 9.42261L24.6952 10.8284V10.2833L23.7988 9.25048Z" fill="#DC0032"/>
<path fill-rule="evenodd" clip-rule="evenodd" d="M17.7266 3.22485L21.7749 7.87239L22.093 7.70026L18.6229 3.68387L17.7266 3.22485ZM23.5388 9.39285L23.2207 9.56498L24.6955 11.2576V10.7125L23.5388 9.39285Z" fill="#DC0032"/>
<path fill-rule="evenodd" clip-rule="evenodd" d="M17.0322 2.85229L21.5143 8.04492L21.8324 7.8441L17.8997 3.31131L17.0322 2.85229ZM23.2782 9.53669L22.9601 9.70882L24.6951 11.717V11.1719L23.2782 9.53669Z" fill="#DC0032"/>
<path fill-rule="evenodd" clip-rule="evenodd" d="M16.3086 2.47925L21.2533 8.18826L21.5714 7.98744L17.205 2.93826L16.3086 2.47925ZM23.0462 9.68003L22.6992 9.85216L24.6944 12.1473V11.6022L23.0462 9.68003Z" fill="#DC0032"/>
<path fill-rule="evenodd" clip-rule="evenodd" d="M15.6152 2.10693L20.9937 8.3323L21.3407 8.13152L16.5117 2.56595L15.6152 2.10693ZM22.7866 9.82411L22.4685 9.99624L24.6951 12.6069V12.0331L22.7866 9.82411Z" fill="#DC0032"/>
<path fill-rule="evenodd" clip-rule="evenodd" d="M14.9209 1.7334L20.7621 8.47516L21.0802 8.27434L15.7884 2.19241L14.9209 1.7334ZM22.526 9.96697L22.2079 10.1391L24.6947 13.0366V12.4916L22.526 9.96697Z" fill="#DC0032"/>
<path fill-rule="evenodd" clip-rule="evenodd" d="M14.1982 1.33179L20.5021 8.61863L20.8202 8.41781L15.0947 1.81949L14.1982 1.33179ZM22.266 10.1104L21.9479 10.2826L24.695 13.467V12.9219L22.266 10.1104Z" fill="#DC0032"/>
<path fill-rule="evenodd" clip-rule="evenodd" d="M13.5039 0.95874L20.2415 8.76197L20.5596 8.58984L14.4003 1.44644L13.5039 0.95874ZM22.0054 10.2538L21.6873 10.4259L24.6947 13.9259V13.3522L22.0054 10.2538Z" fill="#DC0032"/>
<path fill-rule="evenodd" clip-rule="evenodd" d="M12.8105 0.614258L19.9819 8.9052L20.2999 8.73306L13.678 1.07327L12.8105 0.614258ZM21.7458 10.397L21.4277 10.5691L24.6953 14.356V13.8109L21.7458 10.397Z" fill="#DC0032"/>
<path fill-rule="evenodd" clip-rule="evenodd" d="M12.3477 0.5L19.7214 9.04913L20.0395 8.877L12.9838 0.700819L12.8103 0.614754C12.6657 0.528688 12.5212 0.5 12.3477 0.5ZM21.4853 10.5409L21.1672 10.7131L24.695 14.7868V14.2417L21.4853 10.5409Z" fill="#DC0032"/>
<path fill-rule="evenodd" clip-rule="evenodd" d="M12.348 0.5C12.2323 0.5 12.1166 0.528688 12.001 0.557377L19.4615 9.19258L19.8085 9.02045L12.4347 0.5C12.4058 0.5 12.3769 0.5 12.348 0.5ZM21.2543 10.6844L20.9362 10.8565L24.6954 15.2458V14.6721L21.2543 10.6844Z" fill="#DC0032"/>
<path fill-rule="evenodd" clip-rule="evenodd" d="M12.0872 0.528564C12.0294 0.557253 11.9427 0.585941 11.9137 0.61463L11.7402 0.700695L19.2296 9.3359L19.5477 9.16376L12.0872 0.528564ZM20.9936 10.8277L20.6755 11.0285L24.6949 15.676V15.131L20.9936 10.8277Z" fill="#DC0032"/>
<path fill-rule="evenodd" clip-rule="evenodd" d="M11.7986 0.642822L11.4805 0.814953L18.9699 9.47884L19.2879 9.30671L11.7986 0.642822ZM20.7338 10.9707L20.4157 11.1715L24.6954 16.1059V15.5608L20.7338 10.9707Z" fill="#DC0032"/>
<path fill-rule="evenodd" clip-rule="evenodd" d="M11.5378 0.786865L11.2197 0.958995L18.7091 9.62289L19.0272 9.45076L11.5378 0.786865ZM20.473 11.1147L20.155 11.3155L24.6949 16.5655V16.0204L20.473 11.1147Z" fill="#DC0032"/>
<path fill-rule="evenodd" clip-rule="evenodd" d="M11.2771 0.930176L10.959 1.10231L18.4484 9.7662L18.7665 9.59407L11.2771 0.930176ZM20.2123 11.258L19.8942 11.4588L24.6944 16.9957V16.4506L20.2123 11.258Z" fill="#DC0032"/>
<path fill-rule="evenodd" clip-rule="evenodd" d="M11.0173 1.07397L10.6992 1.24611L18.1886 9.91L18.5067 9.73787L11.0173 1.07397ZM19.9525 11.4018L19.6345 11.6026L24.6949 17.4264V16.8813L19.9525 11.4018Z" fill="#DC0032"/>
<path fill-rule="evenodd" clip-rule="evenodd" d="M10.7575 1.21704L10.4395 1.38917L17.9289 10.0531L18.2469 9.88093L10.7575 1.21704ZM19.7217 11.5449L19.4036 11.7457L24.6954 17.885V17.3399L19.7217 11.5449Z" fill="#DC0032"/>
<path fill-rule="evenodd" clip-rule="evenodd" d="M10.4968 1.33179L10.1787 1.53261L17.6971 10.1965L18.0151 10.0244L10.4968 1.33179ZM19.4609 11.717L19.1429 11.8891L24.6949 18.3153V17.7703L19.4609 11.717Z" fill="#DC0032"/>
<path fill-rule="evenodd" clip-rule="evenodd" d="M10.2361 1.4751L9.91797 1.64723L17.4363 10.3398L17.7544 10.1677L10.2361 1.4751ZM19.2002 11.8603L18.8821 12.0324L24.6944 18.7742V18.2005L19.2002 11.8603Z" fill="#DC0032"/>
<path fill-rule="evenodd" clip-rule="evenodd" d="M9.97629 1.61865L9.6582 1.79078L17.1765 10.5121L17.4946 10.3112L9.97629 1.61865ZM18.9404 12.0039L18.6224 12.176L24.6949 19.2046V18.6596L18.9404 12.0039Z" fill="#DC0032"/>
<path fill-rule="evenodd" clip-rule="evenodd" d="M9.71652 1.76196L9.39844 1.93409L16.9168 10.6554L17.2349 10.4545L9.71652 1.76196ZM18.6807 12.1472L18.3626 12.3193L24.6953 19.6348V19.0898L18.6807 12.1472Z" fill="#DC0032"/>
<path fill-rule="evenodd" clip-rule="evenodd" d="M9.45578 1.90576L9.1377 2.07789L16.656 10.7992L16.9741 10.5984L9.45578 1.90576ZM18.4199 12.291L18.1019 12.4631L24.6949 20.0942V19.5204L18.4199 12.291Z" fill="#DC0032"/>
<path fill-rule="evenodd" clip-rule="evenodd" d="M9.19504 2.04883L8.87695 2.22096L16.3953 10.9422L16.7134 10.7414L9.19504 2.04883ZM18.1881 12.434L17.8701 12.6062L24.6944 20.5242V19.9791L18.1881 12.434Z" fill="#DC0032"/>
<path fill-rule="evenodd" clip-rule="evenodd" d="M8.93489 2.16406L8.58789 2.33619L16.1641 11.0862L16.4822 10.8853L8.93489 2.16406ZM17.928 12.578L17.6099 12.7501L24.6945 20.955V20.4099L17.928 12.578Z" fill="#DC0032"/>
<path fill-rule="evenodd" clip-rule="evenodd" d="M8.67513 2.30737L8.32812 2.4795L15.9332 11.2582C15.9621 11.2008 15.9911 11.1721 16.0489 11.1434L16.2224 11.0287L8.67513 2.30737ZM17.6682 12.7213L17.3501 12.8934L24.6371 21.3278C24.666 21.2417 24.695 21.1557 24.695 21.0696V20.8401L17.6682 12.7213Z" fill="#DC0032"/>
<path fill-rule="evenodd" clip-rule="evenodd" d="M8.41438 2.45068L8.06738 2.62282L15.846 11.6023V11.4875C15.846 11.4015 15.9038 11.2867 15.9617 11.2007L8.41438 2.45068ZM17.4075 12.8646L17.1762 13.008C17.1472 13.008 17.1183 13.0367 17.0894 13.0367L24.492 21.6146C24.5788 21.4998 24.6366 21.385 24.6655 21.2703L17.4075 12.8646Z" fill="#DC0032"/>
<path fill-rule="evenodd" clip-rule="evenodd" d="M8.15458 2.59375L7.80762 2.76588L15.8464 12.0609V11.4872L8.15458 2.59375ZM16.5983 12.8929L24.2901 21.815C24.3768 21.7576 24.4636 21.6429 24.5503 21.5568L17.1477 13.0077C17.032 13.065 16.8585 13.065 16.7429 13.0077L16.5983 12.8929Z" fill="#DC0032"/>
<path fill-rule="evenodd" clip-rule="evenodd" d="M7.89384 2.73755L7.54688 2.90968L24.0293 21.9588L24.2607 21.844C24.2896 21.8153 24.3185 21.7867 24.3474 21.758L16.7713 13.008H16.7424L16.0773 12.6064C16.0194 12.5777 15.9905 12.5203 15.9327 12.4629C15.8749 12.3769 15.8749 12.3195 15.8459 12.2621V11.9465L7.89384 2.73755Z" fill="#DC0032"/>
<path fill-rule="evenodd" clip-rule="evenodd" d="M7.63411 2.88135L7.28711 3.05348L23.7696 22.1026L24.0877 21.9305L7.63411 2.88135Z" fill="#DC0032"/>
<path fill-rule="evenodd" clip-rule="evenodd" d="M7.37337 2.99585L7.02637 3.16798L23.5377 22.2458L23.8558 22.0737L7.37337 2.99585Z" fill="#DC0032"/>
<path fill-rule="evenodd" clip-rule="evenodd" d="M7.1136 3.13916L6.7666 3.31129L23.278 22.3891L23.5961 22.217L7.1136 3.13916Z" fill="#DC0032"/>
<path fill-rule="evenodd" clip-rule="evenodd" d="M6.85286 3.28247L6.50586 3.4546L23.0173 22.5324L23.3354 22.3603L6.85286 3.28247Z" fill="#DC0032"/>
<path fill-rule="evenodd" clip-rule="evenodd" d="M6.56418 3.42603L6.24609 3.59816L22.7575 22.7047L23.0756 22.5038L6.56418 3.42603Z" fill="#DC0032"/>
<path fill-rule="evenodd" clip-rule="evenodd" d="M6.30441 3.56982L5.98633 3.74196L22.4977 22.8484L22.8158 22.6476L6.30441 3.56982Z" fill="#DC0032"/>
<path fill-rule="evenodd" clip-rule="evenodd" d="M6.04367 3.71313L5.72559 3.88526L22.2659 22.9918L22.584 22.7909L6.04367 3.71313Z" fill="#DC0032"/>
<path fill-rule="evenodd" clip-rule="evenodd" d="M5.78293 3.82764L5.46484 3.99976L22.0052 23.135L22.3233 22.9341L5.78293 3.82764Z" fill="#DC0032"/>
<path fill-rule="evenodd" clip-rule="evenodd" d="M5.52316 3.97144L5.20508 4.14357L21.7454 23.2788L22.0635 23.1066L5.52316 3.97144Z" fill="#DC0032"/>
<path fill-rule="evenodd" clip-rule="evenodd" d="M5.2634 4.11475L4.94531 4.28688L12.9842 13.5819L13.2444 13.754C13.36 13.8114 13.4757 13.9549 13.4757 14.0983V14.127L21.4856 23.4221L21.8037 23.2499L5.2634 4.11475Z" fill="#DC0032"/>
<path fill-rule="evenodd" clip-rule="evenodd" d="M5.00266 4.25781L4.68457 4.42993L12.2318 13.1799L13.1861 13.6963L5.00266 4.25781ZM13.4463 14.0119C13.4463 14.0405 13.4752 14.0692 13.4752 14.0979V14.5856L21.2249 23.5651L21.543 23.393L13.4463 14.0119Z" fill="#DC0032"/>
<path fill-rule="evenodd" clip-rule="evenodd" d="M4.74289 4.40161L4.4248 4.57374L11.4805 12.75L12.4347 13.2664L4.74289 4.40161ZM13.4757 14.4712V15.0163L20.9941 23.7089L21.3121 23.5368L13.4757 14.4712Z" fill="#DC0032"/>
<path fill-rule="evenodd" clip-rule="evenodd" d="M4.48215 4.54492L4.16406 4.71705L10.7571 12.3195L11.6824 12.8359L4.48215 4.54492ZM13.4752 14.9014V15.4752L20.7333 23.8522L21.0514 23.6801L13.4752 14.9014Z" fill="#DC0032"/>
<path fill-rule="evenodd" clip-rule="evenodd" d="M4.22141 4.65918L3.90332 4.83131L10.0047 11.8887L10.9301 12.4338L4.22141 4.65918ZM13.4747 15.36V15.905L20.4726 23.9952L20.7907 23.823L13.4747 15.36Z" fill="#DC0032"/>
<path fill-rule="evenodd" clip-rule="evenodd" d="M3.96163 4.80322L3.64355 4.97535L9.25338 11.4589L10.1787 12.004L3.96163 4.80322ZM13.4752 15.7909V16.336L20.2128 24.1392L20.5309 23.9671L13.4752 15.7909Z" fill="#DC0032"/>
<path fill-rule="evenodd" clip-rule="evenodd" d="M3.70089 4.94653L3.38281 5.11867L8.50104 11.0572L9.42638 11.5736L3.70089 4.94653ZM13.4747 16.2211V16.7949L19.952 24.3112L20.2701 24.1104L13.4747 16.2211Z" fill="#DC0032"/>
<path fill-rule="evenodd" clip-rule="evenodd" d="M3.44113 5.08936L3.12305 5.26149L7.74973 10.6262L8.67503 11.1426L3.44113 5.08936ZM13.4752 16.6795V17.2246L19.7212 24.454L20.0393 24.2532L13.4752 16.6795Z" fill="#DC0032"/>
<path fill-rule="evenodd" clip-rule="evenodd" d="M3.18136 5.2334L2.86328 5.40553L6.99837 10.1965L7.95259 10.7129L3.18136 5.2334ZM13.4757 17.1104V17.6555L19.4614 24.5981L19.7795 24.3972L13.4757 17.1104Z" fill="#DC0032"/>
<path fill-rule="evenodd" clip-rule="evenodd" d="M2.92062 5.37671L2.60254 5.54884L6.24604 9.76603L7.2003 10.3111L2.92062 5.37671ZM10.4968 14.6717L11.2486 15.5324V15.2168C11.2486 15.1595 11.1908 15.0734 11.133 15.0447L10.4968 14.6717ZM13.4752 17.5406V18.1144L19.2007 24.7414L19.5188 24.5406L13.4752 17.5406Z" fill="#DB0032"/>
<path fill-rule="evenodd" clip-rule="evenodd" d="M2.65988 5.49194L2.3418 5.66408L5.49371 9.33618L6.44797 9.88127L2.65988 5.49194ZM9.74445 14.2419L11.2481 15.9632V15.4181L10.6987 14.787L9.74445 14.2419ZM13.4747 18.0001V18.5452L18.9399 24.8853L19.258 24.7132L13.4747 18.0001Z" fill="#DC0032"/>
<path fill-rule="evenodd" clip-rule="evenodd" d="M2.40011 5.63501L2.08203 5.80714L4.77128 8.93416L5.69662 9.45056L2.40011 5.63501ZM8.9931 13.8399L11.2486 16.4219V15.8768L9.94736 14.3563L8.9931 13.8399ZM13.4752 18.4301V18.9751L18.6802 25.0284L18.9983 24.8562L13.4752 18.4301Z" fill="#DC0032"/>
<path fill-rule="evenodd" clip-rule="evenodd" d="M2.14035 5.77832L1.82227 5.95045L4.01992 8.5037L4.94526 9.0201L2.14035 5.77832ZM8.27066 13.4095L11.2491 16.8521V16.307L9.196 13.9258L8.27066 13.4095ZM13.4757 18.8889V19.434L18.4493 25.1717L18.7674 24.9996L13.4757 18.8889Z" fill="#DC0032"/>
<path fill-rule="evenodd" clip-rule="evenodd" d="M1.87961 5.92212L1.56152 6.09425L3.26761 8.07377L4.19293 8.59012L1.87961 5.92212ZM7.51837 12.9795L11.2486 17.2827V16.7377L8.44367 13.5245L7.51837 12.9795ZM13.4752 19.3196V19.8647L18.1886 25.3155L18.5067 25.1433L13.4752 19.3196Z" fill="#DC0032"/>
<path fill-rule="evenodd" clip-rule="evenodd" d="M1.61886 6.06567L1.30078 6.23781L2.51528 7.64355L3.44061 8.18863L1.61886 6.06567ZM6.76604 12.5493L11.2481 17.7419V17.1968L7.69138 13.0944L6.76604 12.5493ZM13.4747 19.75V20.2951L17.9279 25.459L18.2459 25.2869L13.4747 19.75Z" fill="#DC0032"/>
<path fill-rule="evenodd" clip-rule="evenodd" d="M1.3591 6.20898L1.04102 6.38112L1.76393 7.21309L2.71818 7.75817L1.3591 6.20898ZM6.01469 12.1475L11.2486 18.1721V17.627L6.94003 12.6639L6.01469 12.1475ZM13.4752 20.2089V20.754L17.6681 25.6023L17.9862 25.4302L13.4752 20.2089Z" fill="#DC0032"/>
<path fill-rule="evenodd" clip-rule="evenodd" d="M1.09895 6.32373L0.751953 6.49586L1.0122 6.81144L1.96645 7.32783L1.09895 6.32373ZM5.26295 11.7172L11.2487 18.631V18.0573L6.21721 12.2336L5.26295 11.7172ZM13.4753 20.6392V21.1843L17.408 25.7745L17.726 25.5736L13.4753 20.6392Z" fill="#DC0032"/>
<path fill-rule="evenodd" clip-rule="evenodd" d="M0.838156 6.46729L0.635742 6.58204L1.21408 6.89761L0.838156 6.46729ZM4.51057 11.2869L11.2482 19.0615V18.5164L5.46482 11.832L4.51057 11.2869ZM13.4747 21.0697V21.6435L17.1761 25.918L17.4942 25.7172L13.4747 21.0697Z" fill="#DC0032"/>
<path fill-rule="evenodd" clip-rule="evenodd" d="M3.78809 10.8567L11.2486 19.4919V18.9468L4.71341 11.4018L3.78809 10.8567ZM13.4751 21.5288V22.0739L16.9163 26.0616L17.2343 25.8607L13.4751 21.5288Z" fill="#DC0032"/>
<path fill-rule="evenodd" clip-rule="evenodd" d="M3.03711 10.4546L11.2494 19.9504V19.3767L3.96243 10.971L3.03711 10.4546ZM13.476 21.9587V22.5037L16.6569 26.2045L16.9749 26.0037L13.476 21.9587Z" fill="#DC0032"/>
<path fill-rule="evenodd" clip-rule="evenodd" d="M2.28516 10.0244L11.2493 20.3809V19.8358L3.21049 10.5408L2.28516 10.0244ZM13.4759 22.3891V22.9629L16.3965 26.3481L16.7146 26.176L13.4759 22.3891Z" fill="#DC0032"/>
<path fill-rule="evenodd" clip-rule="evenodd" d="M1.53223 9.59424L11.2482 20.8114V20.2663L2.45756 10.1393L1.53223 9.59424ZM13.4748 22.8483V23.3934L16.1351 26.4917L16.4532 26.3196L13.4748 22.8483Z" fill="#DB0032"/>
<path fill-rule="evenodd" clip-rule="evenodd" d="M0.78125 9.16357L11.2491 21.2701V20.725L1.70658 9.70866L0.78125 9.16357ZM13.4756 23.2783V23.8233L15.9047 26.6348L16.2227 26.4627L13.4756 23.2783Z" fill="#DA0032"/>
<path fill-rule="evenodd" clip-rule="evenodd" d="M0.0292969 8.76245L11.249 21.7009V21.1559L0.983546 9.27885L0.0292969 8.76245ZM13.4755 23.7091V24.2829L15.6443 26.7788L15.9624 26.6067L13.4755 23.7091Z" fill="#D90032"/>
<path fill-rule="evenodd" clip-rule="evenodd" d="M0 8.7334V9.13504L11.2486 22.1309V21.5858L0.231333 8.84815L0 8.7334ZM13.4751 24.1678V24.512C13.4751 24.5694 13.4462 24.6268 13.4173 24.6555L15.3837 26.9219L15.7017 26.7497L13.4751 24.1678Z" fill="#D80032"/>
<path fill-rule="evenodd" clip-rule="evenodd" d="M0 9.02002V9.59379L11.2486 22.5897V22.0446L0 9.02002ZM13.4462 24.5978C13.4173 24.7126 13.3306 24.8273 13.2438 24.856L13.2149 24.8847L15.1234 27.0651L15.4415 26.8929L13.4462 24.5978Z" fill="#D70032"/>
<path fill-rule="evenodd" clip-rule="evenodd" d="M0 9.47925V10.0243L11.2486 23.0202V22.4751L0 9.47925ZM13.2727 24.8275C13.2727 24.8562 13.2727 24.8562 13.2438 24.8562L12.9547 25.0284L14.8632 27.2087L15.1812 27.0366L13.2727 24.8275Z" fill="#D60032"/>
<path fill-rule="evenodd" clip-rule="evenodd" d="M0 9.90991V10.455L11.2486 23.4509V22.9058L0 9.90991ZM13.0414 24.9713L12.6944 25.1721L14.6318 27.3812L14.9499 27.1804L13.0414 24.9713Z" fill="#D50032"/>
<path fill-rule="evenodd" clip-rule="evenodd" d="M0 10.3687V10.9137L11.2486 23.9096V23.3645L0 10.3687ZM12.7812 25.1145L12.5788 25.2292C12.5209 25.2579 12.4631 25.2579 12.4053 25.2579L14.3716 27.5243L14.6897 27.3235L12.7812 25.1145Z" fill="#D40032"/>
<path fill-rule="evenodd" clip-rule="evenodd" d="M0 10.7988V11.3439L11.2486 24.3397V23.7947L0 10.7988ZM11.8848 25.1143L14.1113 27.6676L14.4294 27.4668L12.492 25.2578C12.4631 25.2578 12.4053 25.2865 12.3763 25.2865H12.3474C12.2607 25.2865 12.2028 25.2578 12.145 25.2291L11.8848 25.1143Z" fill="#D30032"/>
<path fill-rule="evenodd" clip-rule="evenodd" d="M0 11.2295V11.8033L13.8511 27.8114L14.1691 27.6106L12.0872 25.2007L11.451 24.8565C11.3353 24.7991 11.2486 24.6557 11.2486 24.5122V24.2253L0 11.2295Z" fill="#D20032"/>
<path fill-rule="evenodd" clip-rule="evenodd" d="M0 11.6882V12.2333L13.5908 27.9546L13.9089 27.7824L0 11.6882Z" fill="#D10032"/>
<path fill-rule="evenodd" clip-rule="evenodd" d="M0 12.1189V12.664L13.3306 28.0983L13.6486 27.9262L0 12.1189Z" fill="#D00032"/>
<path fill-rule="evenodd" clip-rule="evenodd" d="M0 12.5491V13.1228L13.0992 28.2416L13.4173 28.0695L0 12.5491Z" fill="#CF0032"/>
<path fill-rule="evenodd" clip-rule="evenodd" d="M0 13.0083V13.5533L12.839 28.3853L13.1571 28.2132L0 13.0083Z" fill="#CE0032"/>
<path fill-rule="evenodd" clip-rule="evenodd" d="M0 13.4385V13.9836L12.5498 28.4999C12.6366 28.4712 12.7233 28.4426 12.8101 28.4139L12.8968 28.3565L0 13.4385Z" fill="#CD0032"/>
<path fill-rule="evenodd" clip-rule="evenodd" d="M0 13.8687V14.4424L12.1739 28.4998C12.2318 28.4998 12.2896 28.4998 12.3474 28.4998C12.4342 28.4998 12.5209 28.4998 12.6077 28.4711L0 13.8687Z" fill="#CC0032"/>
<path fill-rule="evenodd" clip-rule="evenodd" d="M0 14.3274V14.8725L11.5088 28.1839L11.9137 28.4134C12.0004 28.4708 12.145 28.4995 12.2607 28.4995L0 14.3274Z" fill="#CB0032"/>
<path fill-rule="evenodd" clip-rule="evenodd" d="M0 14.7585V15.3036L10.757 27.7544L11.7113 28.2995L0 14.7585Z" fill="#CA0032"/>
<path fill-rule="evenodd" clip-rule="evenodd" d="M0 15.2168V15.7619L10.0052 27.3233L10.9594 27.8684L0 15.2168Z" fill="#C90032"/>
<path fill-rule="evenodd" clip-rule="evenodd" d="M0 15.647V16.1921L9.25332 26.8928L10.1787 27.4379L0 15.647Z" fill="#C80033"/>
<path fill-rule="evenodd" clip-rule="evenodd" d="M0 16.0776V16.6227L8.50148 26.4628L9.42682 27.0079L0 16.0776Z" fill="#C70033"/>
<path fill-rule="evenodd" clip-rule="evenodd" d="M0 16.5364V17.0815L7.72076 26.0035L8.67498 26.5486L0 16.5364Z" fill="#C60033"/>
<path fill-rule="evenodd" clip-rule="evenodd" d="M0 16.9666V17.5116L6.96893 25.5731L7.92314 26.1181L0 16.9666Z" fill="#C50033"/>
<path fill-rule="evenodd" clip-rule="evenodd" d="M0 17.3972V17.9423L6.21709 25.1431L7.17134 25.6882L0 17.3972Z" fill="#C40033"/>
<path fill-rule="evenodd" clip-rule="evenodd" d="M0 17.8564V18.4015L5.46525 24.713L6.41951 25.258L0 17.8564Z" fill="#C30033"/>
<path fill-rule="evenodd" clip-rule="evenodd" d="M0 18.2866V18.8317L4.71341 24.2825L5.66767 24.8276L0 18.2866Z" fill="#C20033"/>
<path fill-rule="evenodd" clip-rule="evenodd" d="M0 18.7168V19.2906L3.96157 23.852L4.88691 24.3971L0 18.7168Z" fill="#C10033"/>
<path fill-rule="evenodd" clip-rule="evenodd" d="M0 19.1755V19.7206L3.18083 23.4215L4.13507 23.9665L0 19.1755Z" fill="#C00033"/>
<path fill-rule="evenodd" clip-rule="evenodd" d="M0 19.6067V20.1518L2.429 22.9919L3.38325 23.5083L0 19.6067Z" fill="#BF0033"/>
<path fill-rule="evenodd" clip-rule="evenodd" d="M0 20.0369V20.6106L1.67717 22.5328L2.63142 23.0779L0 20.0369Z" fill="#BE0033"/>
<path fill-rule="evenodd" clip-rule="evenodd" d="M0 20.4956V21.0407L0.925332 22.1022L1.87958 22.6473L0 20.4956Z" fill="#BD0033"/>
<path fill-rule="evenodd" clip-rule="evenodd" d="M0 20.9258V21.0692C0 21.3561 0.202417 21.7004 0.433749 21.8438L1.12775 22.2168L0 20.9258Z" fill="#BC0033"/>
<path fill-rule="evenodd" clip-rule="evenodd" d="M0.173828 21.5857C0.231661 21.6431 0.260578 21.7005 0.318411 21.7291L0.173828 21.5857Z" fill="#BB0033"/>
</svg>
