<svg width="138" height="49" viewBox="0 0 138 49" fill="none" xmlns="http://www.w3.org/2000/svg">
<path d="M8.5927 30.0271C-1.78635 18.5841 12.5075 2.25562 25.5885 10.6721C29.9561 13.4776 31.7912 17.95 31.094 24.0894C31.0649 24.3344 31.1714 24.4954 31.4135 24.5722C35.924 26.0206 36.0256 31.6772 31.7549 33.558C31.5322 33.6589 31.4329 33.8294 31.4571 34.0696L32.0963 40.6197C32.1253 40.9224 31.9849 41.0737 31.675 41.0737H10.8733C10.8254 41.0732 10.7782 41.0625 10.7349 41.0424C10.6915 41.0222 10.653 40.993 10.622 40.9568C10.591 40.9206 10.5682 40.8782 10.5552 40.8324C10.5422 40.7867 10.5392 40.7388 10.5465 40.6918L10.6772 39.9568C10.6855 39.9045 10.6831 39.851 10.6702 39.7997C10.6573 39.7485 10.6342 39.7004 10.6022 39.6586C10.5703 39.6168 10.5302 39.582 10.4844 39.5565C10.4386 39.5309 10.388 39.5151 10.3359 39.51C5.3388 38.9552 4.35102 33.1184 8.52007 30.5315C8.74765 30.3874 8.77186 30.2192 8.5927 30.0271ZM28.5155 24.2263C29.9754 20.0109 28.1742 15.5721 24.6515 13.0572C18.674 8.79135 9.54417 11.3639 7.78649 18.5553C6.95365 21.9805 7.45723 24.8461 9.29723 27.1519C13.2968 32.1624 18.2987 33.068 24.3029 29.8686C25.5449 29.2056 25.2326 27.7644 25.8354 26.7844C26.3729 25.9005 27.1162 25.2184 28.0652 24.738C28.288 24.6275 28.4381 24.4569 28.5155 24.2263ZM32.5829 29.1336C32.5829 28.4723 32.3181 27.8381 31.8469 27.3706C31.3756 26.903 30.7364 26.6403 30.0699 26.6403C29.4034 26.6403 28.7642 26.903 28.2929 27.3706C27.8216 27.8381 27.5568 28.4723 27.5568 29.1336C27.5568 29.7948 27.8216 30.429 28.2929 30.8965C28.7642 31.3641 29.4034 31.6268 30.0699 31.6268C30.7364 31.6268 31.3756 31.3641 31.8469 30.8965C32.3181 30.429 32.5829 29.7948 32.5829 29.1336ZM25.9734 31.7997C25.9622 31.7833 25.9476 31.7693 25.9306 31.7586C25.9135 31.7479 25.8943 31.7407 25.8741 31.7373C25.8539 31.734 25.833 31.7346 25.8126 31.7391C25.7923 31.7436 25.7729 31.752 25.7555 31.7637C22.7486 33.7814 19.4318 34.4923 15.805 33.8966C15.5484 33.8582 15.437 33.9663 15.4709 34.2209C15.6743 35.8254 15.1876 37.1753 14.011 38.2706C13.7205 38.5396 13.7738 38.6741 14.1708 38.6741L28.8787 38.6525C29.2031 38.6525 29.3435 38.494 29.3 38.1769L28.7334 34.1416C28.6947 33.8822 28.5543 33.7021 28.3122 33.6012C27.3728 33.1977 26.5932 32.5972 25.9734 31.7997ZM13.2556 34.783C13.2556 34.1217 12.9909 33.4876 12.5196 33.02C12.0483 32.5524 11.4091 32.2897 10.7426 32.2897C10.0761 32.2897 9.43689 32.5524 8.9656 33.02C8.49431 33.4876 8.22954 34.1217 8.22954 34.783C8.22954 35.4442 8.49431 36.0784 8.9656 36.546C9.43689 37.0135 10.0761 37.2762 10.7426 37.2762C11.4091 37.2762 12.0483 37.0135 12.5196 36.546C12.9909 36.0784 13.2556 35.4442 13.2556 34.783Z" fill="#1F8FCD"/>
<path d="M23.8218 17.1846L11.0544 22.1487C10.1954 22.4827 9.77192 23.4443 10.1086 24.2965L10.1404 24.377C10.477 25.2292 11.4463 25.6494 12.3053 25.3154L25.0727 20.3513C25.9317 20.0173 26.3551 19.0557 26.0185 18.2035L25.9867 18.123C25.6501 17.2708 24.6808 16.8507 23.8218 17.1846Z" fill="#1F8FCD"/>
<path d="M105.498 17.2281L104.191 17.2304C103.701 17.2312 103.305 17.6255 103.306 18.1111L103.33 31.6004C103.331 32.086 103.728 32.4789 104.218 32.478L105.525 32.4758C106.014 32.4749 106.41 32.0806 106.41 31.5951L106.386 18.1057C106.385 17.6202 105.988 17.2273 105.498 17.2281Z" fill="#464743"/>
<path d="M113.269 21.2286C108.729 25.2711 113.777 31.6987 118.941 28.9317C119.045 28.8743 119.165 28.8531 119.282 28.8714C119.399 28.8897 119.507 28.9464 119.588 29.0326L121.011 30.553C121.19 30.7404 121.173 30.9061 120.96 31.0502C118.868 32.5298 116.677 32.9333 114.387 32.2608C102.875 28.8668 110.291 12.2933 120.822 18.4615C120.875 18.4924 120.92 18.5341 120.954 18.584C120.989 18.6338 121.012 18.6904 121.023 18.75C121.033 18.8096 121.03 18.8708 121.014 18.9292C120.999 18.9876 120.97 19.042 120.931 19.0884L119.682 20.5656C119.503 20.7818 119.285 20.8323 119.028 20.717C116.723 19.6937 114.804 19.8643 113.269 21.2286Z" fill="#464743"/>
<path d="M49.7746 29.299C50.4331 29.078 51.0021 29.2149 51.4814 29.7097L52.4402 30.6825C52.7065 30.9563 52.6653 31.1725 52.3167 31.331C47.6344 33.4784 44.0222 32.8418 41.4801 29.4215C36.1199 22.2012 44.7267 14.2387 52.2223 18.5982C52.4595 18.7375 52.4886 18.9129 52.3094 19.1242L50.9585 20.6879C50.76 20.9185 50.5251 20.9617 50.254 20.8176C44.9809 17.9569 39.9839 24.8601 44.7703 28.672C46.1164 29.7481 47.7845 29.9571 49.7746 29.299Z" fill="#464743"/>
<path d="M67.7652 24.9177C67.7652 26.9722 66.9426 28.9425 65.4783 30.3952C64.0141 31.8479 62.0281 32.664 59.9573 32.664C57.8865 32.664 55.9006 31.8479 54.4363 30.3952C52.972 28.9425 52.1494 26.9722 52.1494 24.9177C52.1494 22.8633 52.972 20.8929 54.4363 19.4402C55.9006 17.9875 57.8865 17.1714 59.9573 17.1714C62.0281 17.1714 64.0141 17.9875 65.4783 19.4402C66.9426 20.8929 67.7652 22.8633 67.7652 24.9177ZM64.8091 24.9105C64.8091 24.2784 64.6836 23.6525 64.4398 23.0684C64.1959 22.4844 63.8386 21.9538 63.388 21.5068C62.9375 21.0598 62.4027 20.7053 61.814 20.4634C61.2254 20.2215 60.5945 20.097 59.9573 20.097C58.6705 20.097 57.4365 20.6041 56.5266 21.5068C55.6167 22.4095 55.1055 23.6339 55.1055 24.9105C55.1055 26.1871 55.6167 27.4115 56.5266 28.3142C57.4365 29.2169 58.6705 29.724 59.9573 29.724C60.5945 29.724 61.2254 29.5995 61.814 29.3576C62.4027 29.1157 62.9375 28.7612 63.388 28.3142C63.8386 27.8672 64.1959 27.3366 64.4398 26.7526C64.6836 26.1686 64.8091 25.5426 64.8091 24.9105Z" fill="#464743"/>
<path d="M86.1632 21.9996C87.6377 24.8964 87.3108 29.1551 87.2382 32.023C87.2285 32.3016 87.0832 32.4434 86.8024 32.4482H84.7905C84.4903 32.4482 84.345 32.2992 84.3547 32.0014C84.4951 28.4993 84.4564 26.1814 84.2385 25.0477C83.0183 18.5624 73.7069 18.4832 72.5666 25.4008C72.3971 26.424 72.3874 28.6218 72.5376 31.9942C72.5405 32.0528 72.5314 32.1113 72.5108 32.1663C72.4903 32.2213 72.4586 32.2715 72.4179 32.314C72.3771 32.3564 72.3281 32.3902 72.2737 32.4133C72.2194 32.4364 72.1609 32.4482 72.1018 32.4482H70.0753C69.809 32.4482 69.6638 32.3185 69.6395 32.059C69.2328 28.1535 69.3345 25.2831 69.9446 23.448C72.4213 15.9755 82.5389 14.873 86.1632 21.9996Z" fill="#464743"/>
<path d="M89.4167 32.1384C89.1625 23.1815 87.935 15.428 100.217 17.4024C100.469 17.4408 100.592 17.5873 100.587 17.842L100.573 19.802C100.568 20.0998 100.416 20.2463 100.115 20.2415C96.8905 20.2271 92.8812 19.557 92.6561 23.4265C92.4818 26.3137 92.4382 29.2104 92.5254 32.1168C92.535 32.3426 92.4285 32.4531 92.2058 32.4483H89.7363C89.5329 32.4483 89.4264 32.345 89.4167 32.1384Z" fill="#464743"/>
<path d="M126.35 28.4632L126.4 32.0949C126.405 32.3688 126.27 32.5057 125.994 32.5057L123.902 32.5129C123.64 32.5177 123.51 32.3904 123.51 32.131V17.6471C123.51 17.3973 123.636 17.2724 123.887 17.2724C128.136 17.258 134.935 17.5391 133.504 24.0316C132.807 27.2021 129.633 27.7138 126.756 28.0164C126.485 28.0452 126.35 28.1942 126.35 28.4632ZM126.371 20.7313V24.608C126.372 24.662 126.384 24.7152 126.406 24.7647C126.427 24.8141 126.459 24.8589 126.498 24.8964C126.537 24.9338 126.583 24.9633 126.634 24.9831C126.684 25.0028 126.738 25.0125 126.793 25.0116H127.403C128.314 25.0094 129.187 24.7714 129.829 24.3498C130.472 23.9282 130.833 23.3575 130.831 22.7633V22.5471C130.83 22.2528 130.741 21.9615 130.567 21.6899C130.394 21.4183 130.14 21.1717 129.82 20.9643C129.5 20.7568 129.121 20.5926 128.704 20.4809C128.287 20.3692 127.84 20.3123 127.388 20.3133H126.778C126.724 20.3143 126.67 20.3258 126.62 20.3473C126.57 20.3688 126.525 20.3999 126.488 20.4387C126.45 20.4775 126.42 20.5233 126.4 20.5735C126.38 20.6237 126.37 20.6773 126.371 20.7313Z" fill="#464743"/>
<path d="M119.859 23.5041L114.877 23.5213C114.383 23.523 113.985 23.9212 113.987 24.4107L113.99 25.5204C113.992 26.0099 114.394 26.4054 114.887 26.4037L119.869 26.3864C120.363 26.3847 120.761 25.9865 120.76 25.497L120.756 24.3873C120.754 23.8978 120.353 23.5024 119.859 23.5041Z" fill="#464743"/>
<path d="M79.0173 24.6047L77.6809 24.6116C77.2477 24.6139 76.8983 24.9641 76.9006 25.3939L76.934 31.7206C76.9362 32.1504 77.2893 32.497 77.7225 32.4948L79.0589 32.4878C79.4921 32.4856 79.8415 32.1353 79.8392 31.7055L79.8058 25.3789C79.8035 24.9491 79.4505 24.6025 79.0173 24.6047Z" fill="#464743"/>
<path d="M99.6479 24.8559L94.5201 24.8648C94.0748 24.8656 93.7145 25.2243 93.7153 25.6661L93.7175 26.9343C93.7183 27.376 94.0799 27.7335 94.5251 27.7328L99.6529 27.7239C100.098 27.7231 100.458 27.3644 100.458 26.9226L100.455 25.6544C100.455 25.2126 100.093 24.8552 99.6479 24.8559Z" fill="#464743"/>
<path d="M128.311 29.7673C128.267 29.7379 128.237 29.693 128.226 29.642C128.215 29.5909 128.225 29.5377 128.253 29.4935L128.325 29.3854C128.529 29.0806 128.789 28.8176 129.092 28.6113C129.394 28.4051 129.733 28.2596 130.088 28.1833C130.444 28.107 130.809 28.1014 131.163 28.1667C131.518 28.232 131.854 28.367 132.153 28.5639L132.262 28.636C132.561 28.8326 132.818 29.0875 133.016 29.3859C133.215 29.6844 133.352 30.0206 133.419 30.3753C133.487 30.7301 133.483 31.0963 133.409 31.4532C133.335 31.8101 133.192 32.1505 132.988 32.4551L132.916 32.5632C132.9 32.5849 132.881 32.6035 132.858 32.6178C132.836 32.6322 132.811 32.6419 132.784 32.6466C132.758 32.6513 132.731 32.6508 132.705 32.6451C132.679 32.6395 132.654 32.6288 132.632 32.6136L128.311 29.7673Z" fill="#464743"/>
</svg>
