<svg width="29" height="35" viewBox="0 0 29 35" fill="none" xmlns="http://www.w3.org/2000/svg">
<path d="M14.5005 34.6278C14.7949 34.4788 22.4497 31.1284 24.8787 29.1181C27.3812 27.0334 28.7061 24.0552 28.7061 20.4814V3.72906L28.4853 3.6546C22.3761 0.304142 14.7949 0.527506 14.4269 0.527506C14.1325 0.527506 6.55127 0.304142 0.44213 3.6546L0.294922 3.72906V20.5558C0.294922 24.1296 1.61979 27.1078 4.12233 29.1926C6.55127 31.2028 14.2061 34.5533 14.5005 34.6278Z" fill="#341B14"/>
<path d="M14.5 35C14.5 35 6.40355 31.4262 3.90102 29.4159C1.25127 27.1823 0 24.1296 0 20.6302V3.20785C6.40355 -0.291517 14.5 0.00630094 14.5 0.00630094C14.5 0.00630094 22.5964 -0.291517 29 3.20785V20.5558C29 24.0552 27.7487 27.1078 25.099 29.3414C22.5964 31.4262 14.5 35 14.5 35ZM1.17766 20.6302C1.17766 23.9063 2.35533 26.5866 4.63706 28.448C6.69797 30.1604 12.8071 32.9153 14.5 33.6598C16.1929 32.9153 22.3756 30.086 24.3629 28.448C26.6447 26.5866 27.8223 23.8318 27.8223 20.6302V3.50567C19.2843 2.68667 9.1269 3.1334 1.17766 10.5789V20.6302Z" fill="#FFB406"/>
<path d="M22.6698 18.1729C23.7739 18.843 24.2155 19.2897 24.2891 20.1087C24.2891 21.0022 23.7003 21.5234 22.7434 21.5234C21.9338 21.5234 20.9769 21.0766 20.3145 20.481V22.8636C21.1241 23.3103 22.081 23.6826 23.1114 23.6826C25.614 23.6826 26.7917 21.8956 26.7917 20.2576C26.8653 18.7685 26.4236 17.5773 24.2891 16.3115C23.3323 15.7159 22.5962 15.3436 22.5962 14.4502C22.5962 13.5567 23.4059 13.1844 24.0683 13.1844C24.9515 13.1844 25.8348 13.7056 26.35 14.2268V11.9932C25.9084 11.6209 24.9515 11.0997 23.5531 11.1742C21.8602 11.2486 20.0937 12.4399 20.0937 14.5246C20.1673 15.9393 20.6089 16.9816 22.6698 18.1729ZM13.9845 23.5336C14.2054 23.6081 14.5734 23.6826 15.1622 23.6826C18.0328 23.6826 19.6521 21.0766 19.6521 17.3539C19.6521 13.5567 17.9592 11.2486 14.9414 11.2486C13.5429 11.2486 12.4389 11.5464 11.482 12.1421V28.9688H13.9845V23.5336ZM13.9845 13.4078C14.2054 13.3334 14.5734 13.1844 14.8678 13.1844C16.3399 13.1844 16.9287 14.3757 16.9287 17.2795C16.9287 20.1087 16.1927 21.4489 14.7206 21.4489C14.3526 21.4489 14.0581 21.3745 13.9109 21.3V13.4078H13.9845ZM6.25612 23.6826C7.80181 23.6826 9.12668 23.3103 10.0835 22.6402V11.3975H7.50739V21.1511C7.21297 21.3745 6.84495 21.4489 6.32973 21.4489C5.15206 21.4489 5.00485 20.3321 5.00485 19.662V11.3975H2.42871V19.5131C2.42871 22.2679 3.75358 23.6826 6.25612 23.6826Z" fill="#FFB406"/>
</svg>
