<svg width="30" height="30" viewBox="0 0 30 30" fill="none" xmlns="http://www.w3.org/2000/svg">
<path d="M20.8575 4.39012C29.4989 9.09051 29.5235 21.2253 20.9014 25.9403C20.8956 25.9438 20.8946 25.9516 20.8985 25.9638C20.6126 26.0899 20.3255 26.2159 20.0372 26.3417C12.2911 29.7249 3.50964 24.3202 3.02155 15.9003C2.50241 6.9489 11.455 0.579179 19.7653 3.88738C20.0118 3.98543 20.3759 4.15301 20.8575 4.39012ZM12.2882 5.31238C12.2796 5.29051 12.263 5.28348 12.2383 5.29129C9.73601 6.08465 7.79636 7.57391 6.4194 9.75906C4.0821 13.4698 4.43894 18.3565 7.22097 21.7227C8.55339 23.3352 10.2409 24.4548 12.2835 25.0813C12.2967 25.0852 12.3089 25.0819 12.3198 25.0714C13.4514 25.4116 14.603 25.5452 15.7745 25.4721C21.7551 25.0989 26.2305 19.744 25.3944 13.7593C24.5454 7.68426 18.6702 3.76375 12.7264 5.16766C12.5604 5.20711 12.4143 5.25535 12.2882 5.31238Z" fill="#232323"/>
<path d="M15.1836 11.1763C15.7337 11.1763 16.1797 10.7303 16.1797 10.1802C16.1797 9.63005 15.7337 9.18408 15.1836 9.18408C14.6335 9.18408 14.1875 9.63005 14.1875 10.1802C14.1875 10.7303 14.6335 11.1763 15.1836 11.1763Z" fill="#232323"/>
<path d="M14.2434 19.2082V14.9028C14.2434 14.884 14.2341 14.8746 14.2153 14.8746C14.0016 14.8707 13.8643 14.8653 13.8034 14.8582C12.9075 14.7498 12.6901 13.4713 13.5321 13.0846C13.8913 12.92 14.6056 12.9967 15.0257 12.9979C15.4962 12.9991 15.8589 13.1338 16.0382 13.5721C16.0921 13.7045 16.119 13.9209 16.119 14.2213C16.1179 15.8858 16.1179 17.55 16.119 19.2141C16.119 19.2344 16.1292 19.2448 16.1495 19.2451C16.3405 19.2487 16.5538 19.2375 16.7214 19.2932C17.5563 19.5709 17.5757 20.7369 16.763 21.051C16.6587 21.0912 16.5067 21.1116 16.3071 21.1119C15.5825 21.1135 14.8579 21.1139 14.1333 21.1131C13.8681 21.1127 13.6725 21.085 13.5468 21.0299C13.0616 20.8178 12.8583 20.2237 13.1056 19.7409C13.3306 19.302 13.7477 19.2334 14.213 19.2387C14.2333 19.2387 14.2434 19.2285 14.2434 19.2082Z" fill="#232323"/>
</svg>
