<svg width="30" height="30" viewBox="0 0 30 30" fill="none" xmlns="http://www.w3.org/2000/svg">
<path d="M14.3904 5.10258C14.3732 5.12055 14.3647 5.13481 14.3647 5.14536C14.3791 6.02387 14.3785 6.90083 14.3629 7.77622C14.3627 7.78528 14.366 7.79409 14.372 7.80092C14.3781 7.80775 14.3866 7.81211 14.3957 7.81313L15.9133 7.96957C15.9219 7.97075 15.9262 7.97075 15.9262 7.96957C15.9277 7.96332 15.9277 7.95805 15.9262 7.95375C15.9461 7.97875 15.9621 7.99243 15.9742 7.99477C22.2338 9.06469 26.8152 14.4811 26.865 20.8045C26.8705 21.5081 26.8717 23.2174 26.8686 25.9327C26.8682 26.2405 26.8397 26.4653 26.783 26.6071C26.5902 27.0893 26.0107 27.3184 25.5338 27.0934C25.2918 26.9786 25.1699 26.8256 25.0428 26.5696C24.1654 24.8008 23.5875 23.6495 23.309 23.1155C21.8272 20.2754 19.1096 18.2006 15.9537 17.4723C15.9475 17.4707 15.943 17.4729 15.9402 17.4788C15.9367 17.4862 15.9324 17.4901 15.9273 17.4905L15.918 17.4758C15.9102 17.4633 15.8992 17.4555 15.8852 17.4524C15.3914 17.3473 14.893 17.2725 14.3898 17.228C14.3871 17.2277 14.3843 17.228 14.3817 17.2289C14.3791 17.2298 14.3768 17.2312 14.3748 17.233C14.3728 17.2348 14.3712 17.2371 14.3702 17.2395C14.3691 17.242 14.3686 17.2446 14.3688 17.2473C14.3789 18.1364 14.375 18.9987 14.357 19.8342C14.3563 19.8643 14.3689 19.886 14.3951 19.8993C14.3893 19.902 14.384 19.9043 14.3793 19.9063C14.3695 19.9106 14.3643 19.9182 14.3635 19.9291C14.2721 21.084 13.0744 21.8276 12.0285 21.2229C11.9313 21.1666 11.6945 20.9741 11.3184 20.6452C8.82422 18.4659 6.33184 16.2846 3.84121 14.1014C3.44707 13.7557 3.23301 13.5633 3.19903 13.5243C2.77656 13.0356 2.69219 12.268 3.02383 11.7184C3.11641 11.5649 3.34121 11.3319 3.69824 11.0194C6.39551 8.65805 9.09356 6.2975 11.7924 3.93774C12.7691 3.08344 14.3236 3.78481 14.3594 5.08325C14.3598 5.09301 14.3701 5.09946 14.3904 5.10258ZM12.4891 18.2358C12.4793 17.6186 12.4813 17.0096 12.4949 16.4088C12.5119 15.6571 12.843 15.3143 13.6029 15.3207C14.3639 15.3278 15.1188 15.401 15.8676 15.5405C15.9031 15.5471 15.9227 15.5428 15.9262 15.5276C15.9418 15.5487 15.9551 15.5604 15.966 15.5627C19.842 16.3204 23.1104 18.7625 24.9654 22.2436C24.9667 22.2465 24.969 22.2489 24.9718 22.2503C24.9747 22.2517 24.978 22.252 24.981 22.2513C24.9841 22.2505 24.9869 22.2487 24.9887 22.2461C24.9906 22.2435 24.9915 22.2403 24.9912 22.2372C25.0012 21.3998 25.0123 20.501 24.925 19.7082C24.3936 14.8948 20.7572 10.775 15.9262 9.89672C15.1545 9.74614 14.3863 9.69575 13.6 9.68403C12.8717 9.67289 12.502 9.35297 12.4938 8.60707C12.4871 8.00082 12.4846 7.38715 12.4861 6.76606L12.4908 5.87309C12.4908 5.86814 12.4894 5.8633 12.4867 5.85914C12.484 5.85498 12.4802 5.85169 12.4757 5.84965C12.4712 5.84761 12.4661 5.84691 12.4613 5.84764C12.4564 5.84837 12.4518 5.85049 12.448 5.85375L4.8836 12.4731C4.86367 12.4907 4.86367 12.5084 4.8836 12.5264L12.458 19.1551C12.4609 19.1578 12.4646 19.1596 12.4685 19.1602C12.4724 19.1608 12.4765 19.1603 12.4801 19.1586C12.4838 19.1569 12.4869 19.1542 12.4891 19.1508C12.4913 19.1474 12.4925 19.1434 12.4926 19.1393L12.4891 18.2358Z" fill="#232323"/>
</svg>
