<svg width="20" height="20" viewBox="0 0 20 20" fill="none" xmlns="http://www.w3.org/2000/svg">
<g clip-path="url(#clip0_1002_80981)">
<path d="M12.127 5.22283C13.2867 5.22515 14.4463 5.22545 15.6057 5.2237C16.3019 5.22239 16.6482 5.54779 17.1284 6.09391C17.918 6.99101 18.7044 7.89073 19.4878 8.79307C19.842 9.20135 19.9995 9.5394 19.9999 10.0628C20.0002 11.105 20.0005 12.1471 20.0008 13.189C20.0011 13.4446 19.9819 13.6435 19.9432 13.7857C19.7899 14.3505 19.4147 14.7374 18.8174 14.9465C18.813 14.948 18.8083 14.9483 18.8037 14.9475C18.7992 14.9466 18.7949 14.9446 18.7914 14.9417C18.7879 14.9387 18.7852 14.9349 18.7836 14.9306C18.7821 14.9263 18.7817 14.9217 18.7825 14.9172C19.2396 12.3581 16.7062 10.2748 14.3058 11.3095C12.862 11.9324 12.0917 13.4499 12.3984 14.9813C12.3989 14.9842 12.3989 14.9872 12.3982 14.99C12.3975 14.9929 12.3962 14.9955 12.3944 14.9978C12.3925 15.0001 12.3902 15.002 12.3876 15.0033C12.385 15.0046 12.3821 15.0053 12.3792 15.0053C12.1475 15.0075 11.9687 15.0053 11.6991 14.9813C11.5613 14.9687 11.4165 15.0058 11.2952 15.0058C10.3039 15.0058 9.31462 15.0058 8.32737 15.0058C8.31254 15.0058 8.30628 14.9985 8.30861 14.984C8.50112 13.7865 8.19884 12.7895 7.40176 11.993C6.41291 11.0046 4.88144 10.766 3.6444 11.3998C2.32142 12.0776 1.63485 13.5245 1.92928 14.9765C1.93 14.9802 1.92991 14.9839 1.92903 14.9875C1.92816 14.991 1.92651 14.9943 1.92422 14.9972C1.92192 15 1.91903 15.0023 1.91576 15.0039C1.91249 15.0054 1.90891 15.0062 1.90529 15.0062C1.67847 15.0075 1.42984 15.0066 1.21698 14.9447C0.380797 14.7017 -0.000435819 14.0666 3.73866e-07 13.2217C0.00116356 10.5389 0.00145437 7.85613 0.000872781 5.17354C0.000872781 4.9188 0.0164303 4.72848 0.0475455 4.60256C0.185819 4.04423 0.632481 3.58885 1.1799 3.43487C1.33228 3.39212 1.57509 3.37075 1.90835 3.37075C4.75116 3.37017 7.59398 3.37133 10.4368 3.37424C11.2202 3.37468 11.9203 3.91207 12.0612 4.66799C12.0749 4.74098 12.0876 4.9172 12.0996 5.19666C12.1004 5.2141 12.1096 5.22283 12.127 5.22283ZM17.7365 8.91957C17.1226 8.21235 16.5131 7.5159 15.908 6.8302C15.8111 6.72028 15.7653 6.6313 15.6061 6.6313C14.6 6.63013 13.5929 6.63013 12.5851 6.6313C12.5705 6.6313 12.5632 6.63857 12.5632 6.65311L12.5628 8.90953C12.5628 8.9389 12.5775 8.95359 12.6069 8.95359H17.7212C17.7512 8.95359 17.7563 8.94225 17.7365 8.91957Z" fill="#37ADE5"/>
<path d="M5.1157 16.6264C6.39851 16.6264 7.43843 15.5865 7.43843 14.3037C7.43843 13.0209 6.39851 11.981 5.1157 11.981C3.83289 11.981 2.79297 13.0209 2.79297 14.3037C2.79297 15.5865 3.83289 16.6264 5.1157 16.6264Z" fill="#37ADE5"/>
<path d="M15.5844 16.6264C16.8673 16.6264 17.9072 15.5865 17.9072 14.3037C17.9072 13.0209 16.8673 11.981 15.5844 11.981C14.3016 11.981 13.2617 13.0209 13.2617 14.3037C13.2617 15.5865 14.3016 16.6264 15.5844 16.6264Z" fill="#37ADE5"/>
</g>
<defs>
<clipPath id="clip0_1002_80981">
<rect width="20" height="20" fill="white"/>
</clipPath>
</defs>
</svg>
