<svg width="16" height="17" viewBox="0 0 16 17" fill="none" xmlns="http://www.w3.org/2000/svg">
<path d="M8 0.684814C6.41775 0.684814 4.87103 1.15401 3.55544 2.03306C2.23985 2.91211 1.21447 4.16154 0.608967 5.62335C0.00346627 7.08516 -0.15496 8.69369 0.153721 10.2455C0.462403 11.7974 1.22433 13.2228 2.34315 14.3417C3.46197 15.4605 4.88743 16.2224 6.43928 16.5311C7.99113 16.8398 9.59966 16.6813 11.0615 16.0758C12.5233 15.4703 13.7727 14.445 14.6518 13.1294C15.5308 11.8138 16 10.2671 16 8.68481C16 6.56308 15.1571 4.52825 13.6569 3.02796C12.1566 1.52767 10.1217 0.684814 8 0.684814ZM6.85715 11.8791L4 9.02196L4.90857 8.11338L6.85715 10.062L11.0914 5.82767L12.0034 6.73396L6.85715 11.8791Z" fill="#37ADE5"/>
</svg>
