<svg width="24" height="24" viewBox="0 0 24 24" fill="none" xmlns="http://www.w3.org/2000/svg">
<path fill-rule="evenodd" clip-rule="evenodd" d="M6.85662 6.194C6.35662 7.314 6.55462 9.321 6.63462 10.724C6.09462 11.024 5.40062 10.498 5.00862 10.498C4.60062 10.498 4.11262 10.767 4.03562 11.167C3.98062 11.455 4.11062 11.875 5.03662 12.241C5.39562 12.383 6.24762 12.549 6.44562 13.014C6.72262 13.668 5.02062 16.684 2.34662 17.124C2.2459 17.1408 2.15492 17.1942 2.09109 17.2739C2.02725 17.3536 1.99504 17.454 2.00062 17.556C2.04662 18.368 3.86862 18.686 4.67562 18.812C4.75862 18.923 4.82562 19.395 4.93062 19.754C4.97862 19.915 5.10062 20.108 5.41562 20.108C5.82662 20.108 6.50962 19.791 7.69762 19.988C8.86262 20.182 9.95762 21.833 12.0606 21.833C14.0146 21.833 15.1806 20.174 16.3016 19.988C16.9516 19.88 17.5086 19.914 18.1316 20.036C18.5616 20.12 18.9456 20.166 19.0686 19.745C19.1766 19.381 19.2416 18.918 19.3226 18.809C20.1226 18.685 21.9526 18.367 21.9986 17.555C22.0044 17.4527 21.9722 17.3519 21.9081 17.272C21.8441 17.192 21.7527 17.1386 21.6516 17.122C19.0236 16.689 17.2696 13.682 17.5536 13.013C17.7506 12.549 18.5966 12.384 18.9616 12.24C19.6406 11.972 19.9806 11.643 19.9726 11.262C19.9636 10.775 19.3766 10.484 18.9456 10.484C18.5056 10.484 17.8756 11.004 17.3646 10.723C17.4446 9.307 17.6416 7.31 17.1416 6.191C16.1966 4.07 14.0916 3 11.9896 3C9.89962 3 7.81062 4.057 6.85662 6.194Z" fill="black"/>
</svg>
