<svg width="24" height="24" viewBox="0 0 24 24" fill="none" xmlns="http://www.w3.org/2000/svg">
<path fill-rule="evenodd" clip-rule="evenodd" d="M21 5.82498C20.4947 6.58849 19.8732 7.26835 19.158 7.83998V8.28798C19.158 9.56798 18.931 10.866 18.471 12.178C18.0185 13.4756 17.3318 14.6792 16.445 15.729C15.557 16.788 14.463 17.645 13.166 18.307C11.866 18.969 10.369 19.3 8.671 19.3C7.65692 19.304 6.64866 19.1467 5.684 18.834C4.73449 18.5267 3.83145 18.091 3 17.539C3.141 17.56 3.284 17.571 3.43 17.571H3.89C5.648 17.571 7.17 17.027 8.458 15.938C7.66955 15.9281 6.90748 15.6526 6.295 15.156C5.68274 14.6687 5.23859 14.0018 5.025 13.249C5.268 13.315 5.495 13.345 5.698 13.345C5.884 13.345 6.052 13.335 6.205 13.315C6.358 13.295 6.515 13.261 6.679 13.219C5.83652 13.0366 5.08359 12.5672 4.549 11.891C3.987 11.195 3.705 10.381 3.705 9.44298V9.40898C3.95 9.53698 4.211 9.64298 4.485 9.72798C4.762 9.81498 5.075 9.85598 5.423 9.85598C4.90081 9.52649 4.47725 9.06216 4.197 8.51198C3.90557 7.93759 3.75801 7.30101 3.767 6.65698C3.767 5.97398 3.93 5.32298 4.257 4.70498C5.15832 5.88363 6.29726 6.85972 7.6 7.56998C8.91085 8.28535 10.3706 8.68495 11.863 8.73698C11.7987 8.46439 11.7675 8.18504 11.77 7.90498C11.77 7.37298 11.865 6.86598 12.063 6.38498C12.2462 5.92212 12.5156 5.49827 12.857 5.13598C13.195 4.78598 13.583 4.50698 14.024 4.30398C14.463 4.10398 14.938 4.00098 15.45 4.00098C16.003 4.00098 16.503 4.11398 16.953 4.33798C17.403 4.56198 17.801 4.85498 18.147 5.21798C18.557 5.15398 18.965 5.03598 19.376 4.86598C19.783 4.69598 20.16 4.51298 20.51 4.32098C20.18 5.21798 19.64 5.92098 18.884 6.43398C19.2587 6.39402 19.6287 6.31834 19.989 6.20798C20.3342 6.10322 20.672 5.97527 21 5.82498Z" fill="black"/>
</svg>
