<svg width="24" height="24" viewBox="0 0 24 24" fill="none" xmlns="http://www.w3.org/2000/svg">
<g clip-path="url(#clip0_146_14434)">
<path fill-rule="evenodd" clip-rule="evenodd" d="M12.0002 10.03L8.98024 6.89404C8.68689 6.59059 8.33141 6.35415 7.93814 6.20091C7.54488 6.04768 7.12314 5.98128 6.70181 6.00625C6.28049 6.03123 5.86955 6.147 5.49715 6.34563C5.12474 6.54426 4.79968 6.82105 4.54424 7.15704C3.72124 8.24704 3.85824 9.97304 4.79724 11.137L4.82024 11.167L4.84324 11.197C6.01124 12.759 8.02124 14.525 9.85624 15.964C10.5518 16.5086 11.2593 17.0377 11.9782 17.551C12.5442 17.133 13.2782 16.577 14.0812 15.937C15.9032 14.483 17.9472 12.695 19.2032 11.137C20.1432 9.97304 20.2792 8.24704 19.4562 7.15704C19.2008 6.82105 18.8757 6.54426 18.5033 6.34563C18.1309 6.147 17.72 6.03123 17.2987 6.00625C16.8774 5.98128 16.4556 6.04768 16.0623 6.20091C15.6691 6.35415 15.3136 6.59059 15.0202 6.89404L12.0002 10.031V10.03ZM12.0002 20C12.0002 20 5.91324 15.968 3.24024 12.393C1.85524 10.675 1.45624 7.92704 2.94824 5.95104C4.76624 3.54104 8.32624 3.33004 10.4212 5.50604L12.0002 7.14604L13.5802 5.50604C15.6742 3.33004 19.2342 3.54204 21.0522 5.95104C22.5442 7.92704 22.1452 10.675 20.7592 12.393C17.9562 15.867 12.0002 20 12.0002 20Z" fill="#222222"/>
</g>
<defs>
<clipPath id="clip0_146_14434">
<rect width="24" height="24" fill="white"/>
</clipPath>
</defs>
</svg>
