<svg width="24" height="24" viewBox="0 0 24 24" fill="none" xmlns="http://www.w3.org/2000/svg">
<path fill-rule="evenodd" clip-rule="evenodd" d="M17 2C18.3261 2 19.5979 2.52678 20.5355 3.46447C21.4732 4.40215 22 5.67392 22 7V17C22 18.3261 21.4732 19.5979 20.5355 20.5355C19.5979 21.4732 18.3261 22 17 22H7C5.67392 22 4.40215 21.4732 3.46447 20.5355C2.52678 19.5979 2 18.3261 2 17V7C2 5.67392 2.52678 4.40215 3.46447 3.46447C4.40215 2.52678 5.67392 2 7 2H17ZM17 4H7C6.20435 4 5.44129 4.31607 4.87868 4.87868C4.31607 5.44129 4 6.20435 4 7V17C4 17.7956 4.31607 18.5587 4.87868 19.1213C5.44129 19.6839 6.20435 20 7 20H17C17.7956 20 18.5587 19.6839 19.1213 19.1213C19.6839 18.5587 20 17.7956 20 17V7C20 6.20435 19.6839 5.44129 19.1213 4.87868C18.5587 4.31607 17.7956 4 17 4ZM12 7C13.3261 7 14.5979 7.52678 15.5355 8.46447C16.4732 9.40215 17 10.6739 17 12C17 13.3261 16.4732 14.5979 15.5355 15.5355C14.5979 16.4732 13.3261 17 12 17C10.6739 17 9.40215 16.4732 8.46447 15.5355C7.52678 14.5979 7 13.3261 7 12C7 10.6739 7.52678 9.40215 8.46447 8.46447C9.40215 7.52678 10.6739 7 12 7ZM12 9C11.2044 9 10.4413 9.31607 9.87868 9.87868C9.31607 10.4413 9 11.2044 9 12C9 12.7956 9.31607 13.5587 9.87868 14.1213C10.4413 14.6839 11.2044 15 12 15C12.7956 15 13.5587 14.6839 14.1213 14.1213C14.6839 13.5587 15 12.7956 15 12C15 11.2044 14.6839 10.4413 14.1213 9.87868C13.5587 9.31607 12.7956 9 12 9ZM17 6C17.2652 6 17.5196 6.10536 17.7071 6.29289C17.8946 6.48043 18 6.73478 18 7C18 7.26522 17.8946 7.51957 17.7071 7.70711C17.5196 7.89464 17.2652 8 17 8C16.7348 8 16.4804 7.89464 16.2929 7.70711C16.1054 7.51957 16 7.26522 16 7C16 6.73478 16.1054 6.48043 16.2929 6.29289C16.4804 6.10536 16.7348 6 17 6Z" fill="black"/>
</svg>
