<svg width="24" height="24" viewBox="0 0 24 24" fill="none" xmlns="http://www.w3.org/2000/svg">
<path fill-rule="evenodd" clip-rule="evenodd" d="M12.158 3C7.4 3 5 6.522 5 9.459C5 11.238 5.652 12.819 7.05 13.409C7.28 13.506 7.486 13.412 7.553 13.151C7.599 12.969 7.708 12.511 7.757 12.321C7.824 12.061 7.798 11.969 7.613 11.743C7.209 11.253 6.952 10.617 6.952 9.716C6.952 7.104 8.846 4.764 11.884 4.764C14.574 4.764 16.052 6.461 16.052 8.727C16.052 11.707 14.772 14.224 12.875 14.224C11.827 14.224 11.044 13.329 11.295 12.233C11.595 10.922 12.179 9.51 12.179 8.563C12.179 7.718 11.739 7.011 10.829 7.011C9.756 7.011 8.895 8.155 8.895 9.688C8.895 10.663 9.215 11.324 9.215 11.324L7.928 16.96C7.546 18.63 7.871 20.68 7.899 20.887C7.913 21.01 8.067 21.039 8.137 20.947C8.235 20.813 9.512 19.188 9.944 17.563C10.068 17.103 10.65 14.721 10.65 14.721C10.997 15.406 12.015 16.011 13.096 16.011C16.316 16.011 18.501 12.98 18.501 8.925C18.5 5.856 15.984 3 12.158 3Z" fill="black"/>
</svg>
