<svg width="24" height="24" viewBox="0 0 24 24" fill="none" xmlns="http://www.w3.org/2000/svg">
<path fill-rule="evenodd" clip-rule="evenodd" d="M22 7.994C22.0018 7.60188 21.9259 7.21328 21.7768 6.85063C21.6276 6.48797 21.4082 6.15843 21.131 5.881C20.5695 5.31854 19.8078 5.00171 19.013 5H4.98704C4.1924 5.00145 3.43074 5.31791 2.86904 5.88C2.59168 6.15767 2.37208 6.48753 2.22292 6.85055C2.07377 7.21357 1.99801 7.60254 2.00004 7.995V16.007C1.99828 16.3991 2.07416 16.7877 2.22331 17.1504C2.37245 17.513 2.59192 17.8426 2.86904 18.12C3.42904 18.682 4.19104 18.999 4.98704 19.001H19.013C19.8077 18.9996 20.5693 18.6831 21.131 18.121C21.691 17.558 22.004 16.798 22 16.007V7.994ZM9.99804 15.384V7.854L15.706 11.619L9.99804 15.384Z" fill="black"/>
</svg>
