<svg width="135" height="40" viewBox="0 0 135 40" fill="none" xmlns="http://www.w3.org/2000/svg">
<g clip-path="url(#clip0_186_6608)">
<path d="M130.197 40H4.729C3.47499 39.9971 2.27324 39.4974 1.38689 38.6103C0.500547 37.7232 0.00184854 36.521 0 35.267L0 4.726C0.00185325 3.47264 0.500776 2.27118 1.38732 1.3852C2.27386 0.499218 3.47564 0.00105789 4.729 0L130.197 0C132.803 0 135 2.12 135 4.726V35.267C135 37.872 132.803 40 130.197 40Z" fill="#A6A6A6"/>
<path d="M134.033 35.2677C134.033 35.771 133.933 36.2693 133.741 36.7343C133.548 37.1992 133.266 37.6216 132.909 37.9773C132.553 38.333 132.131 38.615 131.666 38.8073C131.2 38.9995 130.702 39.0982 130.199 39.0976H4.72963C3.71269 39.0987 2.73698 38.6958 2.01705 37.9776C1.29713 37.2593 0.89195 36.2846 0.890625 35.2677V4.72465C0.89195 3.70726 1.29697 2.73197 2.01675 2.01294C2.73653 1.29391 3.71223 0.889913 4.72963 0.889648H130.198C130.701 0.889648 131.2 0.988851 131.665 1.18159C132.13 1.37433 132.553 1.65683 132.909 2.01295C133.265 2.36908 133.547 2.79186 133.74 3.25713C133.933 3.72241 134.032 4.22108 134.032 4.72465L134.033 35.2677Z" fill="black"/>
<path d="M30.1271 19.7838C30.0981 16.5608 32.7661 14.9928 32.8881 14.9198C31.3771 12.7168 29.0351 12.4158 28.2121 12.3918C26.2451 12.1848 24.3371 13.5688 23.3351 13.5688C22.3131 13.5688 20.7701 12.4118 19.1071 12.4458C16.9671 12.4788 14.9651 13.7178 13.8671 15.6418C11.6011 19.5648 13.2911 25.3298 15.4621 28.5008C16.5481 30.0538 17.8171 31.7878 19.4781 31.7268C21.1031 31.6598 21.7101 30.6908 23.6711 30.6908C25.6141 30.6908 26.1841 31.7268 27.8781 31.6878C29.6221 31.6598 30.7201 30.1278 31.7681 28.5608C33.0231 26.7808 33.5271 25.0278 33.5471 24.9378C33.5061 24.9238 30.1601 23.6468 30.1271 19.7838ZM26.9271 10.3058C27.8011 9.2128 28.3991 7.7258 28.2331 6.2168C26.9681 6.2728 25.3861 7.0918 24.4751 8.1608C23.6691 9.1028 22.9491 10.6468 23.1351 12.0988C24.5561 12.2048 26.0151 11.3818 26.9271 10.3058Z" fill="white"/>
<path d="M53.6452 31.504H51.3742L50.1302 27.595H45.8062L44.6212 31.504H42.4102L46.6942 18.196H49.3402L53.6452 31.504ZM49.7552 25.955L48.6302 22.48C48.5112 22.125 48.2882 21.289 47.9592 19.973H47.9192C47.7197 20.8114 47.509 21.6472 47.2872 22.48L46.1822 25.955H49.7552ZM64.6622 26.588C64.6622 28.22 64.2212 29.51 63.3392 30.457C62.5492 31.3 61.5682 31.721 60.3972 31.721C59.1332 31.721 58.2252 31.267 57.6722 30.359H57.6322V35.414H55.5002V25.067C55.5002 24.041 55.4732 22.988 55.4212 21.908H57.2962L57.4152 23.429H57.4552C58.1662 22.283 59.2452 21.711 60.6932 21.711C61.8252 21.711 62.7702 22.158 63.5262 23.053C64.2842 23.949 64.6622 25.127 64.6622 26.588ZM62.4902 26.666C62.4902 25.732 62.2802 24.962 61.8582 24.356C61.3972 23.724 60.7782 23.408 60.0022 23.408C59.4762 23.408 58.9982 23.584 58.5712 23.931C58.1432 24.281 57.8632 24.738 57.7322 25.304C57.6662 25.568 57.6332 25.784 57.6332 25.954V27.554C57.6332 28.252 57.8472 28.841 58.2752 29.322C58.7032 29.803 59.2592 30.043 59.9432 30.043C60.7462 30.043 61.3712 29.733 61.8182 29.115C62.2662 28.496 62.4902 27.68 62.4902 26.666ZM75.6992 26.588C75.6992 28.22 75.2582 29.51 74.3752 30.457C73.5862 31.3 72.6052 31.721 71.4342 31.721C70.1702 31.721 69.2622 31.267 68.7102 30.359H68.6702V35.414H66.5382V25.067C66.5382 24.041 66.5112 22.988 66.4592 21.908H68.3342L68.4532 23.429H68.4932C69.2032 22.283 70.2822 21.711 71.7312 21.711C72.8622 21.711 73.8072 22.158 74.5652 23.053C75.3202 23.949 75.6992 25.127 75.6992 26.588ZM73.5272 26.666C73.5272 25.732 73.3162 24.962 72.8942 24.356C72.4332 23.724 71.8162 23.408 71.0392 23.408C70.5151 23.4078 70.0078 23.5931 69.6072 23.931C69.1792 24.281 68.9002 24.738 68.7692 25.304C68.7042 25.568 68.6702 25.784 68.6702 25.954V27.554C68.6702 28.252 68.8842 28.841 69.3102 29.322C69.7382 29.802 70.2942 30.043 70.9802 30.043C71.7832 30.043 72.4082 29.733 72.8552 29.115C73.3032 28.496 73.5272 27.68 73.5272 26.666ZM88.0392 27.772C88.0392 28.904 87.6462 29.825 86.8572 30.536C85.9902 31.313 84.7832 31.701 83.2322 31.701C81.8002 31.701 80.6522 31.425 79.7832 30.872L80.2772 29.095C81.2132 29.661 82.2402 29.945 83.3592 29.945C84.1622 29.945 84.7872 29.763 85.2362 29.401C85.6832 29.039 85.9062 28.553 85.9062 27.947C85.9062 27.407 85.7222 26.952 85.3532 26.583C84.9862 26.214 84.3732 25.871 83.5172 25.554C81.1872 24.685 80.0232 23.412 80.0232 21.738C80.0232 20.644 80.4312 19.747 81.2482 19.049C82.0622 18.35 83.1482 18.001 84.5062 18.001C85.7172 18.001 86.7232 18.212 87.5262 18.633L86.9932 20.371C86.2432 19.963 85.3952 19.759 84.4462 19.759C83.6962 19.759 83.1102 19.944 82.6902 20.312C82.5198 20.4626 82.384 20.6483 82.292 20.8563C82.2001 21.0642 82.154 21.2896 82.1572 21.517C82.1572 22.043 82.3602 22.478 82.7682 22.82C83.1232 23.136 83.7682 23.478 84.7042 23.847C85.8492 24.308 86.6902 24.847 87.2312 25.465C87.7702 26.081 88.0392 26.852 88.0392 27.772ZM95.0882 23.508H92.7382V28.167C92.7382 29.352 93.1522 29.944 93.9822 29.944C94.3632 29.944 94.6792 29.911 94.9292 29.845L94.9882 31.464C94.5682 31.621 94.0152 31.7 93.3302 31.7C92.4882 31.7 91.8302 31.443 91.3552 30.93C90.8822 30.416 90.6442 29.554 90.6442 28.343V23.506H89.2442V21.906H90.6442V20.149L92.7382 19.517V21.906H95.0882V23.508ZM105.691 26.627C105.691 28.102 105.269 29.313 104.427 30.26C103.544 31.235 102.372 31.721 100.911 31.721C99.5032 31.721 98.3822 31.254 97.5462 30.32C96.7102 29.386 96.2922 28.207 96.2922 26.786C96.2922 25.299 96.7222 24.081 97.5852 23.134C98.4462 22.186 99.6082 21.712 101.069 21.712C102.477 21.712 103.61 22.179 104.465 23.114C105.283 24.021 105.691 25.192 105.691 26.627ZM103.479 26.696C103.479 25.811 103.29 25.052 102.907 24.419C102.46 23.653 101.821 23.271 100.993 23.271C100.136 23.271 99.4852 23.654 99.0382 24.419C98.6552 25.053 98.4662 25.824 98.4662 26.736C98.4662 27.621 98.6552 28.38 99.0382 29.012C99.4992 29.778 100.143 30.16 100.974 30.16C101.788 30.16 102.427 29.77 102.888 28.992C103.281 28.347 103.479 27.58 103.479 26.696ZM112.621 23.783C112.399 23.7429 112.174 23.7232 111.949 23.724C111.199 23.724 110.619 24.007 110.211 24.574C109.856 25.074 109.678 25.706 109.678 26.469V31.504H107.547L107.567 24.93C107.567 23.824 107.54 22.817 107.487 21.909H109.344L109.422 23.745H109.481C109.706 23.114 110.061 22.606 110.547 22.225C110.992 21.8921 111.533 21.7118 112.088 21.711C112.285 21.711 112.463 21.725 112.621 21.75V23.783ZM122.156 26.252C122.162 26.5761 122.135 26.8999 122.078 27.219H115.682C115.707 28.167 116.016 28.892 116.61 29.392C117.149 29.839 117.846 30.063 118.702 30.063C119.649 30.063 120.513 29.912 121.29 29.609L121.624 31.089C120.716 31.485 119.644 31.682 118.407 31.682C116.919 31.682 115.751 31.244 114.901 30.369C114.053 29.494 113.628 28.319 113.628 26.845C113.628 25.398 114.023 24.193 114.814 23.232C115.642 22.206 116.761 21.693 118.169 21.693C119.552 21.693 120.599 22.206 121.31 23.232C121.873 24.047 122.156 25.055 122.156 26.252ZM120.123 25.699C120.137 25.067 119.998 24.521 119.709 24.06C119.34 23.467 118.773 23.171 118.01 23.171C117.313 23.171 116.746 23.46 116.313 24.04C115.958 24.501 115.747 25.054 115.682 25.698L120.123 25.699Z" fill="white"/>
<path d="M49.0498 10.0087C49.0498 11.1857 48.6968 12.0717 47.9918 12.6667C47.3388 13.2157 46.4108 13.4907 45.2088 13.4907C44.6128 13.4907 44.1028 13.4647 43.6758 13.4127V6.98166C44.2328 6.89166 44.8328 6.84566 45.4808 6.84566C46.6258 6.84566 47.4888 7.09466 48.0708 7.59266C48.7228 8.15566 49.0498 8.96066 49.0498 10.0087ZM47.9448 10.0377C47.9448 9.27466 47.7428 8.68966 47.3388 8.28166C46.9348 7.87466 46.3448 7.67066 45.5678 7.67066C45.2378 7.67066 44.9568 7.69266 44.7238 7.73866V12.6277C44.8528 12.6477 45.0888 12.6567 45.4318 12.6567C46.2338 12.6567 46.8528 12.4337 47.2888 11.9877C47.7248 11.5417 47.9448 10.8917 47.9448 10.0377ZM54.9088 11.0367C54.9088 11.7617 54.7018 12.3557 54.2878 12.8217C53.8538 13.3007 53.2788 13.5397 52.5608 13.5397C51.8688 13.5397 51.3178 13.3107 50.9068 12.8507C50.4968 12.3917 50.2918 11.8127 50.2918 11.1147C50.2918 10.3847 50.5028 9.78566 50.9268 9.32066C51.3508 8.85566 51.9208 8.62266 52.6388 8.62266C53.3308 8.62266 53.8868 8.85166 54.3078 9.31066C54.7078 9.75666 54.9088 10.3327 54.9088 11.0367ZM53.8218 11.0707C53.8218 10.6357 53.7278 10.2627 53.5408 9.95166C53.3208 9.57566 53.0078 9.38766 52.6008 9.38766C52.1798 9.38766 51.8598 9.57566 51.6398 9.95166C51.4518 10.2627 51.3588 10.6417 51.3588 11.0897C51.3588 11.5247 51.4528 11.8977 51.6398 12.2087C51.8668 12.5847 52.1828 12.7727 52.5908 12.7727C52.9908 12.7727 53.3048 12.5817 53.5308 12.1987C53.7248 11.8817 53.8218 11.5057 53.8218 11.0707ZM62.7648 8.71866L61.2898 13.4327H60.3298L59.7188 11.3857C59.5665 10.8848 59.44 10.3765 59.3398 9.86266H59.3208C59.2304 10.3786 59.1037 10.8875 58.9418 11.3857L58.2928 13.4327H57.3218L55.9348 8.71866H57.0118L57.5448 10.9597C57.6738 11.4897 57.7798 11.9947 57.8648 12.4727H57.8838C57.9618 12.0787 58.0908 11.5767 58.2728 10.9697L58.9418 8.71966H59.7958L60.4368 10.9217C60.5918 11.4587 60.7178 11.9757 60.8148 12.4737H60.8438C60.9148 11.9887 61.0218 11.4717 61.1638 10.9217L61.7358 8.71966H62.7648V8.71866ZM68.1978 13.4327H67.1498V10.7327C67.1498 9.90066 66.8338 9.48466 66.1998 9.48466C66.0558 9.48044 65.9128 9.50914 65.7816 9.56858C65.6504 9.62803 65.5345 9.71664 65.4428 9.82766C65.2508 10.0527 65.1474 10.3399 65.1518 10.6357V13.4317H64.1038V10.0657C64.1038 9.65166 64.0908 9.20266 64.0658 8.71666H64.9868L65.0358 9.45366H65.0648C65.1868 9.22466 65.3688 9.03566 65.6078 8.88466C65.8918 8.70866 66.2098 8.61966 66.5578 8.61966C66.9978 8.61966 67.3638 8.76166 67.6548 9.04666C68.0168 9.39566 68.1978 9.91666 68.1978 10.6087V13.4327ZM71.0878 13.4327H70.0408V6.55566H71.0878V13.4327ZM77.2578 11.0367C77.2578 11.7617 77.0508 12.3557 76.6368 12.8217C76.2028 13.3007 75.6268 13.5397 74.9098 13.5397C74.2168 13.5397 73.6658 13.3107 73.2558 12.8507C72.8458 12.3917 72.6408 11.8127 72.6408 11.1147C72.6408 10.3847 72.8518 9.78566 73.2758 9.32066C73.6998 8.85566 74.2698 8.62266 74.9868 8.62266C75.6798 8.62266 76.2348 8.85166 76.6568 9.31066C77.0568 9.75666 77.2578 10.3327 77.2578 11.0367ZM76.1698 11.0707C76.1698 10.6357 76.0758 10.2627 75.8888 9.95166C75.6698 9.57566 75.3558 9.38766 74.9498 9.38766C74.5278 9.38766 74.2078 9.57566 73.9888 9.95166C73.8008 10.2627 73.7078 10.6417 73.7078 11.0897C73.7078 11.5247 73.8018 11.8977 73.9888 12.2087C74.2158 12.5847 74.5318 12.7727 74.9398 12.7727C75.3398 12.7727 75.6528 12.5817 75.8788 12.1987C76.0738 11.8817 76.1698 11.5057 76.1698 11.0707ZM82.3298 13.4327H81.3888L81.3108 12.8897H81.2818C80.9598 13.3227 80.5008 13.5397 79.9048 13.5397C79.4598 13.5397 79.0998 13.3967 78.8288 13.1127C78.707 12.9849 78.6118 12.8343 78.5484 12.6695C78.4851 12.5048 78.455 12.3291 78.4598 12.1527C78.4598 11.5767 78.6998 11.1377 79.1828 10.8337C79.6648 10.5297 80.3428 10.3807 81.2158 10.3877V10.2997C81.2158 9.67866 80.8898 9.36866 80.2368 9.36866C79.7718 9.36866 79.3618 9.48566 79.0078 9.71766L78.7948 9.02966C79.2328 8.75866 79.7738 8.62266 80.4118 8.62266C81.6438 8.62266 82.2618 9.27266 82.2618 10.5727V12.3087C82.2618 12.7797 82.2848 13.1547 82.3298 13.4327ZM81.2418 11.8127V11.0857C80.0858 11.0657 79.5078 11.3827 79.5078 12.0357C79.5078 12.2817 79.5738 12.4657 79.7088 12.5887C79.8495 12.7134 80.0328 12.7793 80.2208 12.7727C80.4508 12.7727 80.6658 12.6997 80.8618 12.5547C80.9807 12.4712 81.0775 12.36 81.1437 12.2307C81.2099 12.1014 81.2436 11.9579 81.2418 11.8127ZM88.2848 13.4327H87.3548L87.3058 12.6757H87.2768C86.9798 13.2517 86.4738 13.5397 85.7628 13.5397C85.1948 13.5397 84.7218 13.3167 84.3468 12.8707C83.9718 12.4247 83.7848 11.8457 83.7848 11.1347C83.7848 10.3717 83.9878 9.75366 84.3958 9.28166C84.7908 8.84166 85.2748 8.62166 85.8508 8.62166C86.4838 8.62166 86.9268 8.83466 87.1788 9.26166H87.1988V6.55566H88.2478V12.1627C88.2478 12.6217 88.2598 13.0447 88.2848 13.4327ZM87.1988 11.4447V10.6587C87.2086 10.4774 87.177 10.2962 87.1063 10.129C87.0356 9.9618 86.9277 9.81291 86.7908 9.69366C86.5975 9.52334 86.3474 9.43165 86.0898 9.43666C85.6988 9.43666 85.3928 9.59166 85.1678 9.90266C84.9448 10.2137 84.8318 10.6107 84.8318 11.0957C84.8318 11.5617 84.9388 11.9397 85.1538 12.2307C85.3808 12.5407 85.6868 12.6957 86.0698 12.6957C86.4138 12.6957 86.6888 12.5667 86.8978 12.3077C87.0998 12.0687 87.1988 11.7807 87.1988 11.4447ZM97.2478 11.0367C97.2478 11.7617 97.0408 12.3557 96.6268 12.8217C96.1928 13.3007 95.6188 13.5397 94.8998 13.5397C94.2088 13.5397 93.6578 13.3107 93.2458 12.8507C92.8358 12.3917 92.6308 11.8127 92.6308 11.1147C92.6308 10.3847 92.8418 9.78566 93.2658 9.32066C93.6898 8.85566 94.2598 8.62266 94.9788 8.62266C95.6698 8.62266 96.2268 8.85166 96.6468 9.31066C97.0468 9.75666 97.2478 10.3327 97.2478 11.0367ZM96.1618 11.0707C96.1618 10.6357 96.0678 10.2627 95.8808 9.95166C95.6598 9.57566 95.3478 9.38766 94.9398 9.38766C94.5198 9.38766 94.1998 9.57566 93.9788 9.95166C93.7908 10.2627 93.6978 10.6417 93.6978 11.0897C93.6978 11.5247 93.7918 11.8977 93.9788 12.2087C94.2058 12.5847 94.5218 12.7727 94.9298 12.7727C95.3298 12.7727 95.6448 12.5817 95.8708 12.1987C96.0638 11.8817 96.1618 11.5057 96.1618 11.0707ZM102.883 13.4327H101.836V10.7327C101.836 9.90066 101.52 9.48466 100.885 9.48466C100.574 9.48466 100.323 9.59866 100.129 9.82766C99.9348 10.0567 99.8378 10.3267 99.8378 10.6357V13.4317H98.7888V10.0657C98.7888 9.65166 98.7768 9.20266 98.7518 8.71666H99.6718L99.7208 9.45366H99.7498C99.8781 9.21992 100.065 9.02377 100.293 8.88466C100.578 8.70866 100.895 8.61966 101.244 8.61966C101.683 8.61966 102.049 8.76166 102.34 9.04666C102.703 9.39566 102.883 9.91666 102.883 10.6087V13.4327ZM109.936 9.50366H108.782V11.7937C108.782 12.3757 108.987 12.6667 109.393 12.6667C109.581 12.6667 109.737 12.6507 109.86 12.6177L109.887 13.4127C109.68 13.4907 109.408 13.5297 109.073 13.5297C108.659 13.5297 108.337 13.4037 108.104 13.1517C107.87 12.8997 107.754 12.4757 107.754 11.8807V9.50366H107.065V8.71866H107.754V7.85466L108.781 7.54466V8.71766H109.935L109.936 9.50366ZM115.484 13.4327H114.435V10.7527C114.435 9.90766 114.119 9.48466 113.486 9.48466C113 9.48466 112.668 9.72966 112.486 10.2197C112.451 10.3423 112.435 10.4693 112.437 10.5967V13.4317H111.39V6.55566H112.437V9.39666H112.457C112.787 8.87966 113.26 8.62166 113.873 8.62166C114.307 8.62166 114.666 8.76366 114.951 9.04866C115.306 9.40366 115.484 9.93166 115.484 10.6297V13.4327ZM121.207 10.8527C121.207 11.0407 121.193 11.1987 121.168 11.3277H118.025C118.039 11.7937 118.189 12.1487 118.48 12.3947C118.746 12.6147 119.089 12.7247 119.509 12.7247C119.974 12.7247 120.398 12.6507 120.78 12.5017L120.944 13.2297C120.497 13.4237 119.971 13.5207 119.362 13.5207C118.632 13.5207 118.057 13.3057 117.641 12.8757C117.223 12.4457 117.016 11.8687 117.016 11.1447C117.016 10.4337 117.209 9.84166 117.598 9.36966C118.004 8.86566 118.553 8.61366 119.246 8.61366C119.924 8.61366 120.439 8.86566 120.787 9.36966C121.068 9.76966 121.207 10.2647 121.207 10.8527ZM120.207 10.5817C120.221 10.299 120.151 10.0186 120.004 9.77666C119.822 9.48566 119.545 9.33966 119.17 9.33966C119.006 9.33688 118.845 9.37438 118.699 9.44885C118.554 9.52333 118.429 9.63248 118.336 9.76666C118.158 10.0039 118.05 10.2863 118.025 10.5817H120.207Z" fill="white"/>
</g>
<defs>
<clipPath id="clip0_186_6608">
<rect width="135" height="40" fill="white"/>
</clipPath>
</defs>
</svg>
