<svg width="35" height="22" viewBox="0 0 35 22" fill="none" xmlns="http://www.w3.org/2000/svg">
<rect x="1.3207" y="0.600001" width="32.8" height="20.7999" rx="5.19998" fill="white" stroke="#9B9B9B" stroke-width="0.799998"/>
<path d="M17.3996 10.9159V13.9839H16.4102V6.39648H18.9836C19.6101 6.39648 20.2036 6.62697 20.6661 7.05597C21.1281 7.45145 21.3591 8.04544 21.3591 8.67244C21.3591 9.29944 21.1286 9.85992 20.6661 10.2889C20.2041 10.7179 19.6436 10.9484 18.9836 10.9484L17.3996 10.9159ZM17.3996 7.31996V9.95943H19.0496C19.4126 9.95943 19.7756 9.82692 20.0066 9.56395C20.5346 9.06947 20.5346 8.24447 20.0391 7.74948L20.0066 7.71596C19.7426 7.45196 19.4126 7.28696 19.0496 7.32048H17.3996V7.31996Z" fill="#9B9B9B"/>
<path d="M23.6353 8.63965C24.3613 8.63965 24.9218 8.83713 25.3508 9.23364C25.7798 9.62913 25.9773 10.1571 25.9773 10.8171V13.9846H25.0538V13.2586H25.0213C24.6259 13.8526 24.0643 14.1496 23.4049 14.1496C22.8444 14.1496 22.3489 13.9846 21.9534 13.6551C21.5904 13.3251 21.3594 12.8631 21.3594 12.3686C21.3594 11.8406 21.5574 11.4127 21.9534 11.0822C22.3489 10.7522 22.9093 10.6202 23.5699 10.6202C24.1639 10.6202 24.6259 10.7192 24.9883 10.9502V10.7197C24.9883 10.3897 24.8569 10.0602 24.5929 9.86167C24.3289 9.63119 23.9989 9.49867 23.6359 9.49867C23.0754 9.49867 22.6464 9.72916 22.3494 10.1917L21.4914 9.66367C22.0189 8.96913 22.7119 8.63965 23.6353 8.63965ZM22.3819 12.4001C22.3819 12.6641 22.5133 12.8946 22.7119 13.0266C22.9423 13.1916 23.2063 13.2906 23.4703 13.2906C23.8658 13.2906 24.2623 13.1256 24.5588 12.8291C24.8888 12.5316 25.0533 12.1696 25.0533 11.7731C24.7568 11.5426 24.3273 11.4101 23.7668 11.4101C23.3713 11.4101 23.0408 11.5091 22.7773 11.7066C22.5133 11.8721 22.3819 12.1031 22.3819 12.4001Z" fill="#9B9B9B"/>
<path d="M31.322 8.80469L28.0566 16.2926H27.0661L28.2871 13.6866L26.1426 8.83717H27.1986L28.7485 12.5646H28.7815L30.299 8.83717H31.322V8.80469Z" fill="#9B9B9B"/>
<path d="M13.4746 10.2562C13.4746 9.95872 13.4411 9.66223 13.4086 9.36523H9.28516V11.0477H11.6271C11.5281 11.5757 11.2316 12.0702 10.7691 12.3672V13.4557H12.1876C13.0121 12.6972 13.4746 11.5752 13.4746 10.2562Z" fill="#9B9B9B"/>
<path d="M9.28308 14.5104C10.4706 14.5104 11.46 14.1149 12.1866 13.4544L10.7681 12.3659C10.3726 12.6299 9.87707 12.7949 9.28411 12.7949C8.16211 12.7949 7.17262 12.0365 6.84314 10.9805H5.39062V12.1025C6.14911 13.5869 7.63411 14.5104 9.28308 14.5104Z" fill="#C8C8C8"/>
<path d="M6.84361 10.9822C6.64561 10.4542 6.64561 9.86021 6.84361 9.29973V8.17773H5.39212C4.76513 9.39873 4.76513 10.8502 5.39212 12.1037L6.84361 10.9822Z" fill="#9B9B9B"/>
<path d="M9.28523 7.51752C9.91223 7.51752 10.5062 7.748 10.9677 8.177L12.2217 6.92352C11.4297 6.19804 10.3742 5.76904 9.31823 5.80153C7.66823 5.80153 6.15178 6.72501 5.42578 8.21L6.87726 9.33096C7.17426 8.27651 8.16375 7.51752 9.28523 7.51752Z" fill="#C8C8C8"/>
</svg>
