<svg width="35" height="22" viewBox="0 0 35 22" fill="none" xmlns="http://www.w3.org/2000/svg">
<rect x="0.840236" y="0.600001" width="32.8" height="20.7999" rx="5.19998" fill="white" stroke="#9B9B9B" stroke-width="0.799998"/>
<path d="M8.77365 7.9953C8.43796 7.76489 7.99992 7.64941 7.45952 7.64941H5.36738C5.20172 7.64941 5.11019 7.73213 5.09281 7.89737L4.2429 13.2237C4.23407 13.276 4.24718 13.3238 4.28211 13.3673C4.31684 13.411 4.36053 13.4326 4.41284 13.4326H5.40659C5.58089 13.4326 5.67669 13.3501 5.69428 13.1846L5.92961 11.7487C5.9382 11.6791 5.96885 11.6225 6.02117 11.5789C6.07345 11.5354 6.13884 11.5069 6.21729 11.4939C6.29575 11.481 6.36973 11.4745 6.43959 11.4745C6.50925 11.4745 6.59203 11.4789 6.68807 11.4875C6.78387 11.4962 6.84494 11.5005 6.87112 11.5005C7.62075 11.5005 8.20915 11.2896 8.63636 10.8673C9.06337 10.4453 9.27712 9.86002 9.27712 9.11144C9.27712 8.59796 9.10917 8.2259 8.77365 7.99514V7.9953ZM7.69493 9.59463C7.6512 9.89929 7.53801 10.0994 7.35496 10.1951C7.17187 10.291 6.91037 10.3387 6.57044 10.3387L6.13892 10.3518L6.36125 8.95486C6.3786 8.85921 6.43523 8.81132 6.5312 8.81132H6.77971C7.12823 8.81132 7.38118 8.86148 7.53809 8.9614C7.69493 9.06156 7.74724 9.27273 7.69493 9.59463Z" fill="#9B9B9B"/>
<path d="M30.8522 7.64941H29.8846C29.7885 7.64941 29.7319 7.6973 29.7147 7.79303L28.8647 13.2239L28.8516 13.25C28.8516 13.2937 28.869 13.3349 28.904 13.374C28.9387 13.4131 28.9824 13.4327 29.0347 13.4327H29.8978C30.0632 13.4327 30.1547 13.3502 30.1724 13.1847L31.0223 7.84526V7.83229C31.0222 7.71047 30.9654 7.64953 30.8522 7.64953V7.64941Z" fill="#C8C8C8"/>
<path d="M19.1634 9.75209C19.1634 9.70868 19.1459 9.66726 19.1112 9.62815C19.0762 9.58901 19.037 9.56934 18.9935 9.56934H17.9867C17.8906 9.56934 17.8122 9.61307 17.7513 9.69986L16.3652 11.7365L15.7899 9.77827C15.7461 9.63909 15.6503 9.56934 15.5023 9.56934H14.5215C14.4778 9.56934 14.4385 9.58897 14.4039 9.62815C14.3689 9.66726 14.3516 9.70872 14.3516 9.75209C14.3516 9.76965 14.4366 10.0263 14.6065 10.5223C14.7765 11.0185 14.9595 11.5538 15.1557 12.1282C15.3519 12.7026 15.4542 13.0073 15.463 13.0419C14.7481 14.0168 14.3908 14.539 14.3908 14.6085C14.3908 14.7218 14.4474 14.7783 14.5608 14.7783H15.5676C15.6635 14.7783 15.7419 14.7349 15.803 14.6478L19.1374 9.84339C19.1547 9.82611 19.1634 9.79579 19.1634 9.75205V9.75209Z" fill="#9B9B9B"/>
<path d="M28.5387 9.56896H27.5449C27.4228 9.56896 27.3489 9.71257 27.3227 9.9998C27.0958 9.65184 26.682 9.47754 26.0804 9.47754C25.4528 9.47754 24.9188 9.71257 24.4787 10.1826C24.0384 10.6526 23.8184 11.2053 23.8184 11.8406C23.8184 12.3542 23.9687 12.7632 24.2694 13.0677C24.5701 13.3725 24.9733 13.5246 25.479 13.5246C25.7318 13.5246 25.9889 13.4723 26.2504 13.368C26.512 13.2635 26.7166 13.1244 26.8651 12.9502C26.8651 12.959 26.8562 12.998 26.8389 13.0676C26.8214 13.1374 26.8128 13.1897 26.8128 13.2243C26.8128 13.3637 26.8693 13.4331 26.9828 13.4331H27.8851C28.0505 13.4331 28.1465 13.3506 28.1726 13.1851L28.7087 9.77777C28.7173 9.72554 28.7043 9.67773 28.6695 9.63416C28.6345 9.59079 28.591 9.56896 28.5387 9.56896ZM26.8323 12.1408C26.61 12.3584 26.342 12.4672 26.0282 12.4672C25.7753 12.4672 25.5706 12.3977 25.4136 12.2583C25.2566 12.1193 25.1782 11.9279 25.1782 11.6839C25.1782 11.3621 25.2872 11.09 25.5051 10.868C25.7228 10.6461 25.9933 10.5351 26.3158 10.5351C26.5597 10.5351 26.7624 10.6069 26.9238 10.7505C27.085 10.8941 27.1658 11.0922 27.1658 11.3445C27.1658 11.6578 27.0546 11.9233 26.8323 12.1408Z" fill="#C8C8C8"/>
<path d="M13.6833 9.56896H12.6896C12.5673 9.56896 12.4934 9.71257 12.4672 9.9998C12.2319 9.65184 11.8178 9.47754 11.225 9.47754C10.5974 9.47754 10.0634 9.71257 9.62319 10.1826C9.18291 10.6526 8.96289 11.2053 8.96289 11.8406C8.96289 12.3542 9.11329 12.7632 9.41404 13.0677C9.7148 13.3725 10.1179 13.5246 10.6235 13.5246C10.8675 13.5246 11.1205 13.4723 11.3819 13.368C11.6434 13.2635 11.8527 13.1244 12.0096 12.9502C11.9746 13.0546 11.9572 13.146 11.9572 13.2243C11.9572 13.3637 12.0139 13.4331 12.1272 13.4331H13.0295C13.195 13.4331 13.291 13.3506 13.3171 13.1851L13.8532 9.77777C13.8618 9.72554 13.8487 9.67773 13.814 9.63416C13.7791 9.59079 13.7356 9.56896 13.6833 9.56896ZM11.9769 12.1473C11.7546 12.3608 11.482 12.4672 11.1597 12.4672C10.9067 12.4672 10.7041 12.3977 10.5516 12.2583C10.399 12.1193 10.3228 11.9279 10.3228 11.6839C10.3228 11.3621 10.4317 11.09 10.6497 10.868C10.8675 10.6461 11.1378 10.5351 11.4604 10.5351C11.7044 10.5351 11.907 10.6069 12.0685 10.7505C12.2296 10.8941 12.3104 11.0922 12.3104 11.3446C12.3104 11.6666 12.1992 11.9343 11.9769 12.1473Z" fill="#9B9B9B"/>
<path d="M23.6272 7.9953C23.2916 7.76489 22.8536 7.64941 22.3131 7.64941H20.234C20.0596 7.64941 19.9636 7.73213 19.9464 7.89737L19.0964 13.2237C19.0876 13.276 19.1007 13.3239 19.1356 13.3674C19.1702 13.411 19.214 13.4326 19.2664 13.4326H20.3385C20.4431 13.4326 20.5128 13.3761 20.5478 13.263L20.7832 11.7487C20.7918 11.6791 20.8223 11.6225 20.8747 11.5789C20.927 11.5354 20.9923 11.507 21.0709 11.4939C21.1493 11.481 21.2232 11.4745 21.2931 11.4745C21.3628 11.4745 21.4456 11.4789 21.5415 11.4875C21.6374 11.4962 21.6986 11.5005 21.7246 11.5005C22.4743 11.5005 23.0626 11.2896 23.4898 10.8673C23.917 10.4453 24.1306 9.86002 24.1306 9.11144C24.1306 8.598 23.9627 8.22594 23.6272 7.99518V7.9953ZM22.2869 10.1429C22.0951 10.2734 21.8074 10.3387 21.424 10.3387L21.0055 10.3518L21.2278 8.95486C21.2451 8.85921 21.3017 8.81132 21.3977 8.81132H21.633C21.8248 8.81132 21.9773 8.82002 22.0908 8.83738C22.204 8.85494 22.3131 8.90917 22.4177 9.00054C22.5223 9.09196 22.5746 9.22472 22.5746 9.39878C22.5746 9.7643 22.4786 10.0123 22.2869 10.1429Z" fill="#C8C8C8"/>
</svg>
