<svg width="74" height="23" viewBox="0 0 74 23" fill="none" xmlns="http://www.w3.org/2000/svg">
<path d="M73.9997 0V16.421H0V0H73.9997Z" fill="#FFCC00"/>
<path d="M13.0127 2.94824L10.6484 6.17808H23.5338C24.1851 6.17808 24.1765 6.42693 23.8581 6.86059C23.5348 7.3008 22.9938 8.06639 22.6644 8.51357C22.4974 8.7405 22.1952 9.15394 23.1965 9.15394H28.4657C28.4657 9.15394 29.3151 7.99184 30.0269 7.02019C30.9955 5.69862 30.1109 2.94837 26.6484 2.94837L13.0127 2.94824Z" fill="#D2002E"/>
<path d="M9.69274 13.4707L14.4415 6.98252H20.3343C20.9856 6.98252 20.9771 7.23137 20.6588 7.66503C20.3355 8.10524 19.7855 8.8627 19.4562 9.30987C19.289 9.5368 18.987 9.9509 19.9881 9.9509H27.8827C27.2262 10.8554 25.0965 13.4705 21.2724 13.4705L9.69274 13.4707ZM36.8889 9.95011L34.3137 13.4704H27.5208C27.5208 13.4704 30.0945 9.9509 30.0967 9.9509L36.8889 9.95011ZM47.2953 9.15394H30.6803L35.2239 2.94824H42.0148L39.4105 6.5066H42.4418L45.0471 2.94824H51.8373L47.2953 9.15394ZM46.7121 9.95103L44.1358 13.4707H37.3453C37.3453 13.4707 39.9191 9.95103 39.9213 9.95103H46.7121ZM0 11.3389H10.0073L9.46066 12.0866H0V11.3389ZM0 9.95103H11.024L10.4763 10.6977H0V9.95103ZM0 12.7275H8.99115L8.44711 13.4707H0V12.7275ZM74 12.0866H64.0312L64.5784 11.339H74V12.0866ZM74 13.4707L63.0178 13.4717L63.5618 12.7275H74V13.4707ZM65.5938 9.95103H74V10.6981L65.0471 10.6988L65.5938 9.95103ZM61.242 2.94824L56.6992 9.15381H49.5033C49.5033 9.15381 54.0473 2.94824 54.0496 2.94824H61.242ZM48.9211 9.95103C48.9211 9.95103 48.4247 10.6331 48.1837 10.961C47.3307 12.1202 48.0848 13.4707 50.8683 13.4707H61.7743L64.3504 9.95103H48.9211Z" fill="#D2002E"/>
<path d="M0 19.0908H74V19.4628H0V19.0908ZM0 20.8266H74V21.1986H0V20.8266ZM0 22.562H74V22.934H0V22.562Z" fill="#FFCC00"/>
<path d="M24.8477 22.9335H27.0747L27.4301 22.449H25.7728L26.7022 21.1827H28.2115L28.567 20.6981H27.0578L27.8819 19.5751H29.5393L29.8949 19.0906H27.668L24.8477 22.9335ZM27.5808 22.9335H28.2642L30.5938 21.3039L30.5709 22.9335H31.2886L31.2939 20.924L33.9778 19.0906H33.3286L31.1921 20.5661L31.2155 19.0906H30.532L30.5113 20.935L27.5808 22.9335ZM34.84 19.5751H35.3241C35.6773 19.5751 36.0719 19.7513 35.7163 20.2357C35.3446 20.7421 34.7751 20.9129 34.4219 20.9129H33.858L34.84 19.5751ZM31.8057 22.9335H32.3752L33.5024 21.3974H34.0606C34.7782 21.3974 35.6896 21.0946 36.3158 20.2411C36.9583 19.3657 36.4825 19.0903 35.6682 19.0903H34.6259L31.8057 22.9335ZM35.0855 22.9335H35.6551L36.9076 21.2267H37.2492C37.551 21.2267 37.7392 21.2267 37.6411 21.601L37.2727 22.9335H37.9221L38.2936 21.4028C38.342 21.1662 38.3173 21.0836 38.189 21.0173L38.1971 21.0063C38.7152 20.9291 39.3163 20.5989 39.6598 20.1309C40.3345 19.2116 39.666 19.0903 38.8798 19.0903H37.9059L35.0855 22.9335ZM38.1199 19.5751H38.6665C39.1907 19.5751 39.3023 19.7954 39.0479 20.142C38.7772 20.5111 38.2885 20.7421 37.7473 20.7421H37.2632L38.1199 19.5751ZM38.5118 22.9335H40.7389L41.0942 22.449H39.437L40.3662 21.1827H41.8757L42.231 20.6981H40.7218L41.5459 19.5751H43.2034L43.5591 19.0906H41.3321L38.5118 22.9335ZM46.3024 19.1621C46.0977 19.0685 45.8166 19.0244 45.5546 19.0244C44.8369 19.0244 44.0121 19.388 43.511 20.0706C42.6343 21.2654 44.5168 21.0286 43.8863 21.8875C43.555 22.3388 42.97 22.5152 42.6455 22.5152C42.3548 22.5152 42.094 22.4049 41.957 22.3278L41.5244 22.8399C41.7258 22.9225 41.9428 22.9996 42.2218 22.9996C43.0191 22.9996 43.9125 22.6744 44.5145 21.8541C45.4438 20.588 43.6097 20.7584 44.1513 20.0209C44.4464 19.619 44.9031 19.5089 45.222 19.5089C45.5183 19.5089 45.6411 19.5586 45.8508 19.6686L46.3024 19.1621ZM49.1502 19.1621C48.9456 19.0685 48.6645 19.0244 48.4024 19.0244C47.6848 19.0244 46.86 19.388 46.3589 20.0706C45.4821 21.2654 47.3646 21.0286 46.7342 21.8875C46.403 22.3388 45.8179 22.5152 45.4934 22.5152C45.2027 22.5152 44.9418 22.4049 44.805 22.3278L44.3723 22.8399C44.5737 22.9225 44.7906 22.9996 45.0695 22.9996C45.8669 22.9996 46.7603 22.6744 47.3623 21.8541C48.2916 20.588 46.4577 20.7584 46.9991 20.0209C47.2941 19.619 47.751 19.5089 48.0699 19.5089C48.3662 19.5089 48.4892 19.5586 48.6986 19.6686L49.1502 19.1621Z" fill="#D2002E"/>
</svg>
