<svg width="29" height="35" viewBox="0 0 29 35" fill="none" xmlns="http://www.w3.org/2000/svg">
<path d="M14.5005 34.6278C14.7949 34.4788 22.4497 31.1284 24.8787 29.1181C27.3812 27.0334 28.7061 24.0552 28.7061 20.4814V3.72906L28.4853 3.6546C22.3761 0.304142 14.7949 0.527506 14.4269 0.527506C14.1325 0.527506 6.55127 0.304142 0.44213 3.6546L0.294922 3.72906V20.5558C0.294922 24.1296 1.61979 27.1078 4.12233 29.1926C6.55127 31.2028 14.2061 34.5533 14.5005 34.6278Z" fill="#341B14"/>
<path d="M14.5 35C14.5 35 6.40355 31.4262 3.90102 29.4159C1.25127 27.1823 0 24.1296 0 20.6302V3.20785C6.40355 -0.291517 14.5 0.00630094 14.5 0.00630094C14.5 0.00630094 22.5964 -0.291517 29 3.20785V20.5558C29 24.0552 27.7487 27.1078 25.099 29.3414C22.5964 31.4262 14.5 35 14.5 35ZM1.17766 20.6302C1.17766 23.9063 2.35533 26.5866 4.63706 28.448C6.69797 30.1604 12.8071 32.9153 14.5 33.6598C16.1929 32.9153 22.3756 30.086 24.3629 28.448C26.6447 26.5866 27.8223 23.8318 27.8223 20.6302V3.50567C19.2843 2.68667 9.1269 3.1334 1.17766 10.5789V20.6302Z" fill="#FFB406"/>
<path d="M22.6708 18.1729C23.7749 18.843 24.2165 19.2897 24.2901 20.1087C24.2901 21.0022 23.7013 21.5234 22.7444 21.5234C21.9348 21.5234 20.9779 21.0766 20.3155 20.481V22.8636C21.1251 23.3103 22.082 23.6826 23.1124 23.6826C25.615 23.6826 26.7926 21.8956 26.7926 20.2576C26.8662 18.7685 26.4246 17.5773 24.2901 16.3115C23.3332 15.7159 22.5972 15.3436 22.5972 14.4502C22.5972 13.5567 23.4068 13.1844 24.0693 13.1844C24.9525 13.1844 25.8358 13.7056 26.351 14.2268V11.9932C25.9094 11.6209 24.9525 11.0997 23.554 11.1742C21.8612 11.2486 20.0947 12.4399 20.0947 14.5246C20.1683 15.9393 20.6099 16.9816 22.6708 18.1729ZM13.9855 23.5336C14.2063 23.6081 14.5744 23.6826 15.1632 23.6826C18.0337 23.6826 19.653 21.0766 19.653 17.3539C19.653 13.5567 17.9601 11.2486 14.9424 11.2486C13.5439 11.2486 12.4398 11.5464 11.483 12.1421V28.9688H13.9855V23.5336ZM13.9855 13.4078C14.2063 13.3334 14.5744 13.1844 14.8688 13.1844C16.3409 13.1844 16.9297 14.3757 16.9297 17.2795C16.9297 20.1087 16.1936 21.4489 14.7216 21.4489C14.3535 21.4489 14.0591 21.3745 13.9119 21.3V13.4078H13.9855ZM6.2571 23.6826C7.80278 23.6826 9.12766 23.3103 10.0845 22.6402V11.3975H7.50837V21.1511C7.21395 21.3745 6.84593 21.4489 6.3307 21.4489C5.15304 21.4489 5.00583 20.3321 5.00583 19.662V11.3975H2.42969V19.5131C2.42969 22.2679 3.75456 23.6826 6.2571 23.6826Z" fill="#FFB406"/>
</svg>
