<svg width="72" height="18" viewBox="0 0 72 18" fill="none" xmlns="http://www.w3.org/2000/svg">
<path d="M18.9241 6.26367L26.208 6.26367L26.208 7.61965L23.3401 7.61965L23.3401 15.2636L21.7681 15.2636L21.7681 7.61965L18.9121 7.61965L18.9241 6.26367ZM25.896 8.74764L27.24 8.74764L27.24 10.0076L27.264 10.0076C27.312 9.82763 27.396 9.65963 27.516 9.49163C27.636 9.32363 27.78 9.16763 27.96 9.03564C28.128 8.89164 28.32 8.78364 28.536 8.69964C28.74 8.61564 28.956 8.56764 29.172 8.56764C29.34 8.56764 29.46 8.57964 29.52 8.57964C29.58 8.59164 29.652 8.60364 29.712 8.60364L29.712 9.98363C29.616 9.95963 29.508 9.94762 29.4 9.93562C29.292 9.92362 29.196 9.91163 29.088 9.91163C28.848 9.91163 28.62 9.95962 28.404 10.0556C28.188 10.1516 28.008 10.2956 27.84 10.4756C27.684 10.6676 27.552 10.8956 27.456 11.1716C27.36 11.4476 27.312 11.7716 27.312 12.1316L27.312 15.2276L25.872 15.2276L25.896 8.74764ZM36.3119 15.2636L34.8959 15.2636L34.8959 14.3516L34.8719 14.3516C34.6919 14.6876 34.4279 14.9396 34.0799 15.1436C33.7319 15.3476 33.3719 15.4436 33.0119 15.4436C32.1599 15.4436 31.536 15.2396 31.152 14.8076C30.768 14.3876 30.576 13.7396 30.576 12.8876L30.576 8.74764L32.0159 8.74764L32.0159 12.7436C32.0159 13.3196 32.1239 13.7276 32.3519 13.9556C32.5679 14.1956 32.8799 14.3156 33.2759 14.3156C33.5759 14.3156 33.8279 14.2676 34.0319 14.1716C34.2359 14.0756 34.4039 13.9556 34.5239 13.7996C34.6559 13.6436 34.7399 13.4516 34.7999 13.2356C34.8599 13.0196 34.8839 12.7796 34.8839 12.5276L34.8839 8.74764L36.3239 8.74764L36.3239 15.2636L36.3119 15.2636ZM38.7599 13.1756C38.8079 13.5956 38.9639 13.8836 39.2399 14.0636C39.5159 14.2316 39.8518 14.3156 40.2358 14.3156C40.3678 14.3156 40.5238 14.3036 40.6918 14.2796C40.8598 14.2556 41.0278 14.2196 41.1718 14.1596C41.3278 14.0996 41.4478 14.0156 41.5438 13.8956C41.6398 13.7756 41.6878 13.6316 41.6758 13.4516C41.6638 13.2716 41.6038 13.1156 41.4718 12.9956C41.3398 12.8756 41.1838 12.7916 40.9918 12.7076C40.7998 12.6356 40.5718 12.5756 40.3198 12.5276C40.0678 12.4796 39.8159 12.4196 39.5519 12.3596C39.2879 12.2996 39.0239 12.2276 38.7719 12.1436C38.5199 12.0596 38.3039 11.9516 38.0999 11.7956C37.9079 11.6516 37.7399 11.4716 37.6319 11.2436C37.5119 11.0156 37.4519 10.7516 37.4519 10.4156C37.4519 10.0556 37.5359 9.76763 37.7159 9.52763C37.8839 9.28763 38.1119 9.09564 38.3759 8.95164C38.6399 8.80764 38.9399 8.69964 39.2639 8.63964C39.5879 8.57964 39.8999 8.55564 40.1878 8.55564C40.5238 8.55564 40.8478 8.59165 41.1478 8.66364C41.4478 8.73564 41.7358 8.84364 41.9758 9.01164C42.2278 9.16764 42.4318 9.38363 42.5878 9.63563C42.7558 9.88763 42.8518 10.1996 42.8998 10.5596L41.3998 10.5596C41.3278 10.2116 41.1718 9.98363 40.9318 9.86363C40.6798 9.74363 40.4038 9.68363 40.0798 9.68363C39.9839 9.68363 39.8519 9.69563 39.7199 9.70763C39.5759 9.73163 39.4559 9.75563 39.3239 9.80363C39.2039 9.85163 39.0959 9.92363 39.0119 10.0076C38.9279 10.0916 38.8799 10.2116 38.8799 10.3556C38.8799 10.5356 38.9399 10.6676 39.0599 10.7756C39.1799 10.8836 39.3359 10.9676 39.5399 11.0516C39.7319 11.1236 39.9599 11.1836 40.2118 11.2316C40.4638 11.2796 40.7278 11.3396 40.9918 11.3996C41.2558 11.4596 41.5078 11.5316 41.7598 11.6156C42.0118 11.6996 42.2398 11.8076 42.4318 11.9636C42.6238 12.1076 42.7918 12.2876 42.9118 12.5036C43.0318 12.7196 43.0918 12.9956 43.0918 13.3076C43.0918 13.6916 43.0078 14.0156 42.8278 14.2916C42.6478 14.5556 42.4198 14.7836 42.1438 14.9516C41.8678 15.1196 41.5438 15.2396 41.2078 15.3236C40.8598 15.3956 40.5238 15.4436 40.1878 15.4436C39.7799 15.4436 39.3959 15.3956 39.0479 15.2996C38.6999 15.2036 38.3879 15.0596 38.1359 14.8796C37.8839 14.6876 37.6799 14.4596 37.5359 14.1716C37.3919 13.8956 37.3079 13.5596 37.2959 13.1636L38.7479 13.1636L38.7479 13.1756L38.7599 13.1756ZM43.4998 8.74764L44.5918 8.74764L44.5918 6.77967L46.0318 6.77967L46.0318 8.73564L47.3278 8.73564L47.3278 9.80363L46.0318 9.80363L46.0318 13.2836C46.0318 13.4396 46.0438 13.5596 46.0558 13.6796C46.0678 13.7876 46.1038 13.8836 46.1398 13.9556C46.1878 14.0276 46.2598 14.0876 46.3438 14.1236C46.4398 14.1596 46.5598 14.1836 46.7278 14.1836C46.8238 14.1836 46.9318 14.1836 47.0278 14.1716C47.1238 14.1596 47.2318 14.1476 47.3278 14.1236L47.3278 15.2396C47.1718 15.2636 47.0158 15.2756 46.8598 15.2876C46.7038 15.3116 46.5598 15.3116 46.3918 15.3116C46.0078 15.3116 45.7078 15.2756 45.4798 15.2036C45.2518 15.1316 45.0718 15.0236 44.9398 14.8916C44.8078 14.7476 44.7238 14.5796 44.6758 14.3756C44.6278 14.1716 44.6038 13.9196 44.5918 13.6556L44.5918 9.81563L43.4998 9.81563L43.4998 8.72364L43.4998 8.74764ZM48.3357 8.74764L49.6917 8.74764L49.6917 9.63563L49.7157 9.63563C49.9197 9.25163 50.1957 8.98764 50.5557 8.81964C50.9157 8.65164 51.2997 8.56764 51.7317 8.56764C52.2477 8.56764 52.6917 8.65165 53.0757 8.84364C53.4597 9.02364 53.7717 9.26364 54.0237 9.58763C54.2757 9.89963 54.4677 10.2716 54.5877 10.6916C54.7077 11.1116 54.7797 11.5676 54.7797 12.0356C54.7797 12.4796 54.7197 12.8996 54.6117 13.3076C54.4917 13.7156 54.3237 14.0876 54.0957 14.3996C53.8677 14.7116 53.5797 14.9636 53.2197 15.1556C52.8597 15.3476 52.4517 15.4436 51.9717 15.4436C51.7677 15.4436 51.5517 15.4196 51.3477 15.3836C51.1437 15.3476 50.9397 15.2876 50.7477 15.2036C50.5557 15.1196 50.3757 15.0116 50.2197 14.8796C50.0517 14.7476 49.9197 14.5916 49.8117 14.4236L49.7877 14.4236L49.7877 17.6755L48.3477 17.6755L48.3477 8.74764L48.3357 8.74764ZM53.3637 12.0116C53.3637 11.7236 53.3277 11.4356 53.2437 11.1596C53.1717 10.8836 53.0517 10.6436 52.8957 10.4276C52.7397 10.2116 52.5477 10.0436 52.3317 9.91163C52.1037 9.77963 51.8397 9.71963 51.5517 9.71963C50.9517 9.71963 50.4957 9.92363 50.1837 10.3436C49.8837 10.7636 49.7277 11.3276 49.7277 12.0236C49.7277 12.3596 49.7637 12.6596 49.8477 12.9356C49.9317 13.2116 50.0397 13.4516 50.2077 13.6556C50.3637 13.8596 50.5557 14.0156 50.7837 14.1356C51.0117 14.2556 51.2637 14.3156 51.5637 14.3156C51.8997 14.3156 52.1637 14.2436 52.3917 14.1116C52.6197 13.9796 52.7997 13.7996 52.9557 13.5956C53.0997 13.3796 53.2077 13.1396 53.2677 12.8636C53.3277 12.5756 53.3637 12.2996 53.3637 12.0116ZM55.8957 6.26368L57.3356 6.26368L57.3356 7.61966L55.8957 7.61966L55.8957 6.26368ZM55.8957 8.74764L57.3356 8.74764L57.3356 15.2636L55.8957 15.2636L55.8957 8.74764ZM58.6196 6.26368L60.0596 6.26368L60.0596 15.2636L58.6196 15.2636L58.6196 6.26368ZM64.4515 15.4436C63.9356 15.4436 63.4676 15.3596 63.0596 15.1796C62.6516 14.9996 62.3156 14.7716 62.0276 14.4716C61.7516 14.1716 61.5356 13.7996 61.3916 13.3796C61.2476 12.9596 61.1636 12.4916 61.1636 11.9996C61.1636 11.5076 61.2356 11.0516 61.3916 10.6316C61.5356 10.2116 61.7516 9.85163 62.0276 9.53963C62.3036 9.23964 62.6516 8.99964 63.0596 8.83164C63.4676 8.66365 63.9356 8.56765 64.4515 8.56765C64.9675 8.56765 65.4355 8.65165 65.8435 8.83164C66.2515 8.99964 66.5875 9.23964 66.8755 9.53963C67.1515 9.83963 67.3675 10.2116 67.5115 10.6316C67.6555 11.0516 67.7395 11.5076 67.7395 11.9996C67.7395 12.5036 67.6675 12.9596 67.5115 13.3796C67.3555 13.7996 67.1515 14.1596 66.8755 14.4716C66.5995 14.7716 66.2515 15.0116 65.8435 15.1796C65.4355 15.3476 64.9795 15.4436 64.4515 15.4436ZM64.4515 14.3036C64.7635 14.3036 65.0515 14.2316 65.2795 14.0996C65.5195 13.9676 65.6995 13.7876 65.8555 13.5716C66.0115 13.3556 66.1195 13.1036 66.1915 12.8396C66.2635 12.5636 66.2995 12.2876 66.2995 11.9996C66.2995 11.7236 66.2635 11.4476 66.1915 11.1716C66.1195 10.8956 66.0115 10.6556 65.8555 10.4396C65.6995 10.2236 65.5075 10.0556 65.2795 9.92363C65.0395 9.79163 64.7635 9.71963 64.4515 9.71963C64.1396 9.71963 63.8516 9.79163 63.6236 9.92363C63.3836 10.0556 63.2036 10.2356 63.0476 10.4396C62.8916 10.6556 62.7836 10.8956 62.7116 11.1716C62.6396 11.4476 62.6036 11.7236 62.6036 11.9996C62.6036 12.2876 62.6396 12.5636 62.7116 12.8396C62.7836 13.1156 62.8916 13.3556 63.0476 13.5716C63.2036 13.7876 63.3956 13.9676 63.6236 14.0996C63.8636 14.2436 64.1396 14.3036 64.4515 14.3036ZM68.1715 8.74764L69.2635 8.74764L69.2635 6.77967L70.7035 6.77967L70.7035 8.73564L71.9995 8.73564L71.9995 9.80363L70.7035 9.80363L70.7035 13.2836C70.7035 13.4396 70.7155 13.5596 70.7275 13.6796C70.7395 13.7876 70.7755 13.8836 70.8115 13.9556C70.8595 14.0276 70.9315 14.0876 71.0155 14.1236C71.1115 14.1596 71.2315 14.1836 71.3995 14.1836C71.4955 14.1836 71.6035 14.1836 71.6995 14.1716C71.7955 14.1596 71.9035 14.1476 71.9995 14.1236L71.9995 15.2396C71.8435 15.2636 71.6875 15.2756 71.5315 15.2876C71.3755 15.3116 71.2315 15.3116 71.0635 15.3116C70.6795 15.3116 70.3795 15.2756 70.1515 15.2036C69.9235 15.1316 69.7435 15.0236 69.6115 14.8916C69.4795 14.7476 69.3955 14.5796 69.3475 14.3756C69.2995 14.1716 69.2755 13.9196 69.2635 13.6556L69.2635 9.81563L68.1715 9.81563L68.1715 8.72365L68.1715 8.74764Z" fill="#151515"/>
<path d="M17.2438 6.26393L10.6559 6.26393L8.62789 7.54274e-07L6.58792 6.26392L-5.46561e-07 6.25192L5.32793 10.1279L3.28796 16.3918L8.61589 12.5158L13.9438 16.3918L11.9159 10.1279L17.2438 6.26393Z" fill="#00B67A"/>
<path d="M12.3729 11.5439L11.9169 10.1279L8.62891 12.5159L12.3729 11.5439Z" fill="#005128"/>
</svg>
