<svg width="123" height="14" viewBox="0 0 123 14" fill="none" xmlns="http://www.w3.org/2000/svg">
<path d="M20.5151 6.01231C20.1173 5.22017 19.9113 4.80919 19.6329 4.19271C19.3761 4.80919 19.2894 4.99811 18.8049 6.05871L17.8576 8.19318H21.5853L20.5151 6.01231ZM16.7874 10.8348L15.4568 13.526H11.57L18.3385 0.457386H21.6178L28.3827 13.526H24.5537L23.1075 10.8348H16.7874ZM38.0653 6.12169C38.8571 6.12169 39.1862 6.07528 39.5116 5.91619C39.766 5.78155 39.9778 5.58851 40.1262 5.35605C40.2745 5.12359 40.3543 4.85973 40.3576 4.59044C40.3529 4.32141 40.2725 4.05806 40.1243 3.82582C39.9761 3.59358 39.7651 3.40031 39.5116 3.26468C39.2006 3.10559 38.8716 3.07244 38.0653 3.07244H33.318V6.09517L38.0653 6.12169ZM33.318 13.526H29.7458V0.457386H39.0488C40.7047 0.457386 41.6014 0.649621 42.4475 1.12027C42.9847 1.43267 43.4266 1.86516 43.7314 2.37711C44.0363 2.88905 44.1941 3.46364 44.1902 4.04688C44.1902 5.59801 43.3116 6.75142 41.7062 7.36127C43.12 7.82197 43.5538 8.54782 43.5864 10.5895C43.6551 12.2202 43.7599 12.6941 44.1902 13.5327H40.2564C39.9961 12.8035 39.9454 12.5052 39.9816 11.2524C39.9816 9.35653 39.4103 8.76989 37.5808 8.76989H33.318V13.526ZM60.8944 13.526V0.457386H73.9396V3.1089H64.4666V5.56155H72.8368V8.21307H64.4666V10.9044H73.9396V13.5559L60.8944 13.526ZM84.2947 13.526H80.7225V3.09896H75.7871V0.447443H89.212V3.09896H84.2947V13.526ZM106.712 8.41525C105.692 12.134 102.915 14 98.3089 14C93.0626 14 89.7471 11.3253 89.7471 7.11932C89.7471 2.81061 93.1638 0 98.392 0C100.898 0 102.865 0.599905 104.416 1.88258C105.47 2.68678 106.205 3.78795 106.506 5.01468H102.655C101.932 3.35748 100.518 2.54545 98.3776 2.54545C95.5104 2.54545 93.529 4.3982 93.529 7.05634C93.529 9.6482 95.4959 11.4545 98.3089 11.4545C100.587 11.4545 101.95 10.5199 102.778 8.41525H106.712ZM119.431 0.457386V5.55161H112.084V0.457386H108.512V13.526H112.084V8.19318H119.421V13.526H122.989V0.457386H119.431ZM0 13.526V0.457386H12.5101V3.1089H3.57224V5.56155H11.7689V8.21307H3.57224V13.526H0ZM46.5367 13.526V0.457386H59.0504V3.1089H50.109V5.56155H58.3237V8.21307H50.109V13.526H46.5367Z" fill="#222222"/>
</svg>
