<svg width="35" height="22" viewBox="0 0 35 22" fill="none" xmlns="http://www.w3.org/2000/svg">
<rect x="0.879298" y="0.600001" width="32.8" height="20.7999" rx="5.19998" fill="white" stroke="#9B9B9B" stroke-width="0.799998"/>
<path d="M10.8851 18.6267V17.61C10.8851 17.2211 10.6482 16.9665 10.2415 16.9665C10.0381 16.9665 9.81704 17.0336 9.66503 17.2547C9.54657 17.0691 9.37679 16.9665 9.12213 16.9665C8.95235 16.9665 8.78257 17.0178 8.64832 17.2034V17H8.29297V18.6267H8.64832V17.7285C8.64832 17.4403 8.80033 17.304 9.03724 17.304C9.27414 17.304 9.39259 17.4561 9.39259 17.7285V18.6267H9.74794V17.7285C9.74794 17.4403 9.91772 17.304 10.1369 17.304C10.3738 17.304 10.4922 17.4561 10.4922 17.7285V18.6267H10.8851ZM16.1561 17H15.5797V16.5085H15.2243V17H14.9025V17.3218H15.2243V18.0681C15.2243 18.4412 15.3763 18.6603 15.783 18.6603C15.935 18.6603 16.1048 18.609 16.2233 18.5419L16.1206 18.2359C16.0179 18.303 15.8995 18.3207 15.8146 18.3207C15.6448 18.3207 15.5777 18.2181 15.5777 18.0503V17.3218H16.1542V17H16.1561ZM19.1727 16.9645C18.9693 16.9645 18.8331 17.0671 18.7482 17.2014V16.9981H18.3929V18.6248H18.7482V17.7088C18.7482 17.4383 18.8667 17.2843 19.0878 17.2843C19.1549 17.2843 19.2398 17.3021 19.3089 17.3179L19.4116 16.9783C19.3405 16.9645 19.2398 16.9645 19.1727 16.9645ZM14.6143 17.1343C14.4445 17.0158 14.2076 16.9645 13.9529 16.9645C13.5463 16.9645 13.2758 17.1678 13.2758 17.4896C13.2758 17.7601 13.4791 17.9141 13.8345 17.9634L14.0043 17.9812C14.1899 18.0147 14.2925 18.0661 14.2925 18.151C14.2925 18.2694 14.1563 18.3543 13.9194 18.3543C13.6825 18.3543 13.4949 18.2694 13.3765 18.1845L13.2067 18.455C13.3923 18.5912 13.6469 18.6583 13.9016 18.6583C14.3754 18.6583 14.6479 18.4372 14.6479 18.1332C14.6479 17.845 14.4268 17.693 14.0892 17.6416L13.9194 17.6239C13.7674 17.6061 13.6489 17.5725 13.6489 17.4719C13.6489 17.3534 13.7674 17.2863 13.9549 17.2863C14.1583 17.2863 14.3616 17.3712 14.4643 17.4225L14.6143 17.1343ZM24.0687 16.9645C23.8653 16.9645 23.7291 17.0671 23.6442 17.2014V16.9981H23.2889V18.6248H23.6442V17.7088C23.6442 17.4383 23.7627 17.2843 23.9838 17.2843C24.0509 17.2843 24.1358 17.3021 24.2049 17.3179L24.3075 16.9823C24.2384 16.9645 24.1378 16.9645 24.0687 16.9645ZM19.528 17.8134C19.528 18.305 19.8676 18.6603 20.3927 18.6603C20.6296 18.6603 20.7994 18.609 20.9692 18.4747L20.7994 18.1865C20.6632 18.2892 20.5289 18.3385 20.375 18.3385C20.0867 18.3385 19.8834 18.1352 19.8834 17.8134C19.8834 17.5074 20.0867 17.304 20.375 17.2883C20.527 17.2883 20.6632 17.3396 20.7994 17.4403L20.9692 17.152C20.7994 17.0158 20.6296 16.9665 20.3927 16.9665C19.8676 16.9645 19.528 17.3218 19.528 17.8134ZM22.8151 17.8134V17H22.4597V17.2034C22.3412 17.0514 22.1715 16.9665 21.9504 16.9665C21.4923 16.9665 21.137 17.3218 21.137 17.8134C21.137 18.305 21.4923 18.6603 21.9504 18.6603C22.1873 18.6603 22.357 18.5754 22.4597 18.4234V18.6267H22.8151V17.8134ZM21.5101 17.8134C21.5101 17.5252 21.6957 17.2883 22.0017 17.2883C22.2899 17.2883 22.4933 17.5094 22.4933 17.8134C22.4933 18.1016 22.2899 18.3385 22.0017 18.3385C21.6977 18.3207 21.5101 18.0996 21.5101 17.8134ZM17.2577 16.9645C16.7839 16.9645 16.4444 17.304 16.4444 17.8114C16.4444 18.3207 16.7839 18.6583 17.2755 18.6583C17.5124 18.6583 17.7493 18.5912 17.9368 18.4372L17.7671 18.1826C17.6308 18.2852 17.4611 18.3523 17.2933 18.3523C17.0722 18.3523 16.853 18.2497 16.8017 17.9634H18.004C18.004 17.9121 18.004 17.8785 18.004 17.8272C18.0198 17.304 17.7138 16.9645 17.2577 16.9645ZM17.2577 17.2705C17.4788 17.2705 17.6308 17.4067 17.6644 17.6594H16.8175C16.851 17.4403 17.0031 17.2705 17.2577 17.2705ZM26.0863 17.8134V16.3564H25.7309V17.2034C25.6125 17.0514 25.4427 16.9665 25.2216 16.9665C24.7636 16.9665 24.4082 17.3218 24.4082 17.8134C24.4082 18.305 24.7636 18.6603 25.2216 18.6603C25.4585 18.6603 25.6283 18.5754 25.7309 18.4234V18.6267H26.0863V17.8134ZM24.7813 17.8134C24.7813 17.5252 24.9669 17.2883 25.2729 17.2883C25.5611 17.2883 25.7645 17.5094 25.7645 17.8134C25.7645 18.1016 25.5611 18.3385 25.2729 18.3385C24.9669 18.3207 24.7813 18.0996 24.7813 17.8134ZM12.8849 17.8134V17H12.5296V17.2034C12.4111 17.0514 12.2413 16.9665 12.0202 16.9665C11.5622 16.9665 11.2069 17.3218 11.2069 17.8134C11.2069 18.305 11.5622 18.6603 12.0202 18.6603C12.2571 18.6603 12.4269 18.5754 12.5296 18.4234V18.6267H12.8849V17.8134ZM11.5642 17.8134C11.5642 17.5252 11.7498 17.2883 12.0558 17.2883C12.344 17.2883 12.5473 17.5094 12.5473 17.8134C12.5473 18.1016 12.344 18.3385 12.0558 18.3385C11.7498 18.3207 11.5642 18.0996 11.5642 17.8134Z" fill="#9B9B9B"/>
<path d="M19.8323 4.64551H14.4941V14.236H19.8323V4.64551Z" fill="#AFAFAF"/>
<path d="M14.85 9.44101C14.85 7.4925 15.766 5.76313 17.1716 4.64575C16.1371 3.83239 14.8322 3.34082 13.4088 3.34082C10.0369 3.34082 7.30859 6.06913 7.30859 9.44101C7.30859 12.8129 10.0369 15.5412 13.4088 15.5412C14.8322 15.5412 16.1371 15.0496 17.1716 14.2363C15.764 13.1347 14.85 11.3895 14.85 9.44101Z" fill="#9B9B9B"/>
<path d="M27.0349 9.44101C27.0349 12.8129 24.3066 15.5412 20.9347 15.5412C19.5113 15.5412 18.2063 15.0496 17.1719 14.2363C18.5953 13.1169 19.4935 11.3895 19.4935 9.44101C19.4935 7.4925 18.5775 5.76313 17.1719 4.64575C18.2044 3.83239 19.5093 3.34082 20.9327 3.34082C24.3066 3.34082 27.0349 6.08689 27.0349 9.44101Z" fill="#C6C6C6"/>
</svg>
