<svg width="24" height="24" viewBox="0 0 24 24" fill="none" xmlns="http://www.w3.org/2000/svg">
<g clip-path="url(#clip0_146_14310)">
<path fill-rule="evenodd" clip-rule="evenodd" d="M14.857 9.143L12 2L9.143 9.143L2 12L9.143 14.857L12 22L14.857 14.857L22 12L14.857 9.143ZM19.414 18L22 20.586L20.586 22L18 19.414L19.414 18ZM4.586 18L6 19.414L3.414 22L2 20.586L4.586 18ZM12 7.385L13.318 10.682L16.615 12L13.318 13.318L12 16.615L10.682 13.318L7.385 12L10.682 10.682L12 7.385ZM3.414 2L6 4.586L4.586 6L2 3.414L3.414 2ZM20.586 2L22 3.414L19.414 6L18 4.586L20.586 2Z" fill="black"/>
</g>
<defs>
<clipPath id="clip0_146_14310">
<rect width="24" height="24" fill="white"/>
</clipPath>
</defs>
</svg>
