<svg width="26" height="8" viewBox="0 0 26 8" fill="none" xmlns="http://www.w3.org/2000/svg">
<path d="M2.97098 0.849609L0.126953 7.14332H3.53165L3.95374 6.13984H4.91853L5.34061 7.14332H9.08823V6.37743L9.42217 7.14332H11.3607L11.6947 6.36124V7.14332H19.4887L20.4364 6.1659L21.3238 7.14332L25.327 7.15141L22.474 4.01403L25.327 0.849609H21.3859L20.4634 1.80897L19.6039 0.849609H11.125L10.3969 2.47407L9.65176 0.849609H6.25417V1.58944L5.87621 0.849609H2.97098ZM3.62977 1.74332H5.28938L7.17582 6.01112V1.74332H8.99386L10.4509 4.80332L11.7938 1.74332H13.6027V6.25948H12.502L12.493 2.72065L10.8883 6.25948H9.90367L8.28996 2.72065V6.25948H6.02556L5.59627 5.24701H3.27698L2.84858 6.25859H1.63534L3.62977 1.74332ZM14.6098 1.74332H19.0855L20.4544 3.22199L21.8674 1.74332H23.2363L21.1564 4.01315L23.2363 6.25681H21.8053L20.4364 4.76097L19.0162 6.25681H14.6098V1.74332ZM4.43712 2.50743L3.67301 4.31105H5.20035L4.43712 2.50743ZM15.715 2.6784V3.50282H18.1567V4.4217H15.715V5.32174H18.4537L19.7263 3.99607L18.5077 2.67761H15.715V2.6784Z" fill="#9B9B9B"/>
</svg>
