<svg width="16" height="17" viewBox="0 0 16 17" fill="none" xmlns="http://www.w3.org/2000/svg">
<path d="M8 0.669922C6.41775 0.669922 4.87103 1.13911 3.55544 2.01816C2.23985 2.89722 1.21447 4.14665 0.608967 5.60845C0.00346627 7.07026 -0.15496 8.67879 0.153721 10.2306C0.462403 11.7825 1.22433 13.208 2.34315 14.3268C3.46197 15.4456 4.88743 16.2075 6.43928 16.5162C7.99113 16.8249 9.59966 16.6665 11.0615 16.061C12.5233 15.4555 13.7727 14.4301 14.6518 13.1145C15.5308 11.7989 16 10.2522 16 8.66992C16 6.54819 15.1571 4.51336 13.6569 3.01307C12.1566 1.51278 10.1217 0.669922 8 0.669922ZM6.85715 11.8642L4 9.00706L4.90857 8.09849L6.85715 10.0471L11.0914 5.81278L12.0034 6.71906L6.85715 11.8642Z" fill="white"/>
</svg>
