<svg width="44" height="27" viewBox="0 0 44 27" fill="none" xmlns="http://www.w3.org/2000/svg">
<path d="M36.5234 12.3455C38.6981 8.98781 37.8046 8.37805 35.5372 8.37805H33.2613C33.2529 8.37805 33.1349 8.26423 32.3425 9.02846C31.3985 9.48374 29.1479 9.54065 29.1479 9.73577C29.1479 10.1016 35.0736 9.48374 36.5739 9.73577C37.3747 9.85772 36.4475 11.3943 36.2031 12.3374C36.1609 12.7033 36.4054 12.5244 36.5234 12.3455ZM27.0743 14.1829C32.469 12.4512 35.2759 12.2398 35.672 12.0528C36.0429 11.8171 35.3012 11.5163 33.4636 11.5813C29.1057 11.7602 21.8651 14.5976 18.9149 15.9634L16.3272 8.37805H32.8988C32.6713 6.08537 20.0107 6.54065 4.41686 6.54065L0 26.5C16.5548 18.5894 21.823 15.9065 27.0743 14.1829ZM5.70651 0.5C27.0575 4.86585 33.5226 5.84146 33.6996 7.42683C36.7678 7.42683 37.5686 7.42683 38.1165 7.96341C39.895 9.56504 36.8858 13.4675 36.8858 13.4675C36.5149 13.7033 2.62989 26.4919 2.62989 26.4919H38.2935L44 0.5H5.70651Z" fill="black"/>
</svg>
