<svg width="34" height="22" viewBox="0 0 34 22" fill="none" xmlns="http://www.w3.org/2000/svg">
<rect x="0.400782" y="0.600001" width="32.8" height="20.7999" rx="5.19998" fill="white" stroke="#9B9B9B" stroke-width="0.799998"/>
<path d="M14.5603 14.3739H12.5859L13.8208 6.73828H15.7951L14.5603 14.3739Z" fill="#9B9B9B"/>
<path d="M21.7194 6.92469C21.3299 6.77019 20.7123 6.59961 19.9485 6.59961C17.9988 6.59961 16.6258 7.6393 16.6174 9.12574C16.6012 10.2224 17.6004 10.8316 18.3477 11.1972C19.1116 11.5709 19.3712 11.8148 19.3712 12.1479C19.3635 12.6594 18.754 12.8952 18.1856 12.8952C17.3973 12.8952 16.975 12.7736 16.3331 12.489L16.0732 12.367L15.7969 14.0811C16.2599 14.292 17.1131 14.4792 17.9988 14.4874C20.0704 14.4874 21.4191 13.4638 21.4351 11.8798C21.443 11.0106 20.9153 10.3445 19.7778 9.8003C19.0873 9.45093 18.6644 9.21535 18.6644 8.85789C18.6725 8.53292 19.0221 8.20006 19.8016 8.20006C20.4434 8.18376 20.915 8.33804 21.2723 8.49243L21.4509 8.57351L21.7194 6.92469Z" fill="#9B9B9B"/>
<path d="M24.3437 11.6689C24.5063 11.2302 25.1319 9.53249 25.1319 9.53249C25.1237 9.54879 25.2942 9.08574 25.3917 8.80147L25.5297 9.4594C25.5297 9.4594 25.9036 11.2871 25.9847 11.6689C25.6762 11.6689 24.7337 11.6689 24.3437 11.6689ZM26.7808 6.73828H25.2536C24.7827 6.73828 24.4249 6.87626 24.2217 7.37181L21.2891 14.3738H23.3607C23.3607 14.3738 23.7017 13.4314 23.775 13.2284C24.0023 13.2284 26.0176 13.2284 26.3099 13.2284C26.3666 13.4965 26.5455 14.3738 26.5455 14.3738H28.3736L26.7808 6.73828Z" fill="#9B9B9B"/>
<path d="M10.937 6.73828L9.00345 11.945L8.79216 10.8891C8.43469 9.67057 7.31359 8.34672 6.0625 7.68847L7.83354 14.3658H9.92136L13.0247 6.73828H10.937Z" fill="#9B9B9B"/>
<path d="M7.20902 6.73828H4.0325L4 6.89256C6.47789 7.5262 8.11894 9.05356 8.79318 10.8894L8.10264 7.38013C7.98895 6.89245 7.63958 6.75437 7.20902 6.73828Z" fill="#DFDFDF"/>
</svg>
