<svg width="25" height="11" viewBox="0 0 25 11" fill="none" xmlns="http://www.w3.org/2000/svg">
<path d="M4.58447 2.03748C4.30319 2.36174 3.85314 2.61749 3.40309 2.58096C3.34683 2.14252 3.56717 1.67668 3.82501 1.38895C4.10629 1.05556 4.59853 0.818073 4.99702 0.799805C5.0439 1.25651 4.86106 1.70408 4.58447 2.03748ZM4.99233 2.66773C4.34069 2.63119 3.78282 3.02853 3.47341 3.02853C3.15931 3.02853 2.68582 2.686 2.17013 2.69513C1.49974 2.70427 0.876234 3.0742 0.534008 3.66335C-0.169198 4.84165 0.351174 6.58626 1.03094 7.54534C1.36379 8.02032 1.76227 8.54096 2.28733 8.52269C2.78426 8.50443 2.98116 8.20757 3.58123 8.20757C4.18599 8.20757 4.35944 8.52269 4.8845 8.51356C5.42832 8.50443 5.77054 8.03859 6.10339 7.56361C6.48312 7.0247 6.63783 6.49949 6.64721 6.47209C6.63783 6.46295 5.59709 6.07475 5.58771 4.90559C5.57833 3.92824 6.40812 3.4624 6.44562 3.435C5.97682 2.75907 5.24548 2.686 4.99233 2.66773ZM8.75682 1.34328V8.46332H9.89133V6.02908H11.4618C12.8964 6.02908 13.9043 5.07 13.9043 3.68162C13.9043 2.29323 12.9151 1.34328 11.4993 1.34328H8.75682ZM9.89133 2.27496H11.1993C12.1838 2.27496 12.7463 2.78647 12.7463 3.68618C12.7463 4.58589 12.1838 5.10197 11.1946 5.10197H9.89133V2.27496ZM15.9764 8.51813C16.689 8.51813 17.35 8.16646 17.65 7.60928H17.6735V8.46332H18.7236V4.91929C18.7236 3.8917 17.8797 3.22948 16.5812 3.22948C15.3763 3.22948 14.4856 3.90083 14.4528 4.82338H15.4748C15.5592 4.38494 15.9764 4.09722 16.5483 4.09722C17.2422 4.09722 17.6313 4.41235 17.6313 4.99236V5.38513L16.2155 5.46733C14.8981 5.54497 14.1856 6.07019 14.1856 6.9836C14.1856 7.90614 14.9216 8.51813 15.9764 8.51813ZM16.2811 7.67322C15.6764 7.67322 15.2919 7.39006 15.2919 6.95619C15.2919 6.50862 15.6623 6.2483 16.3702 6.2072L17.6313 6.12956V6.53146C17.6313 7.19825 17.05 7.67322 16.2811 7.67322ZM20.1253 10.3998C21.2317 10.3998 21.7521 9.98872 22.2068 8.74191L24.1992 3.29798H23.046L21.7099 7.50424H21.6864L20.3503 3.29798H19.1643L21.0864 8.48159L20.9832 8.79672C20.8098 9.33106 20.5285 9.53658 20.0269 9.53658C19.9378 9.53658 19.7643 9.52745 19.694 9.51831V10.3724C19.7596 10.3906 20.0409 10.3998 20.1253 10.3998Z" fill="#9B9B9B"/>
</svg>
