<svg width="43" height="28" viewBox="0 0 43 28" fill="none" xmlns="http://www.w3.org/2000/svg">
<rect x="0.699951" y="1.4707" width="41" height="26" rx="6.5" fill="white" stroke="#F3D869"/>
<path d="M17.1338 17.8198V9.08447H20.4102C21.0822 9.08447 21.6455 9.20944 22.1019 9.45939C22.5583 9.70933 22.9042 10.0535 23.1379 10.49C23.3715 10.9264 23.4893 11.4227 23.4893 11.9769C23.4893 12.5312 23.3715 13.0347 23.1361 13.4693C22.9006 13.904 22.5511 14.2463 22.091 14.4945C21.631 14.7426 21.0623 14.8676 20.3885 14.8676H18.2169V13.5672H20.1748C20.5678 13.5672 20.8884 13.4983 21.1383 13.3625C21.3883 13.2266 21.5748 13.0383 21.6944 12.7992C21.8157 12.5601 21.8755 12.2866 21.8755 11.9751C21.8755 11.6636 21.8157 11.3919 21.6944 11.1565C21.573 10.921 21.3865 10.7363 21.1347 10.6041C20.883 10.4718 20.5588 10.4066 20.1639 10.4066H18.7132V17.8216H17.1302L17.1338 17.8198Z" fill="#F3D869"/>
<path d="M26.5663 17.9521C26.1515 17.9521 25.7784 17.8779 25.447 17.7275C25.1155 17.579 24.8547 17.3581 24.6627 17.0646C24.4707 16.7712 24.3748 16.4108 24.3748 15.9816C24.3748 15.6121 24.4436 15.306 24.5794 15.0651C24.7153 14.8242 24.9018 14.6304 25.1391 14.4855C25.3745 14.3406 25.6408 14.2301 25.9396 14.1541C26.2367 14.078 26.5446 14.0237 26.8633 13.9893C27.2473 13.9494 27.5588 13.9132 27.7979 13.8806C28.037 13.848 28.2108 13.7973 28.3213 13.7266C28.4318 13.656 28.4861 13.5473 28.4861 13.4006V13.3753C28.4861 13.0547 28.3901 12.8047 28.2 12.6291C28.0098 12.4534 27.7345 12.3646 27.3759 12.3646C26.9973 12.3646 26.6985 12.4479 26.4775 12.6128C26.2566 12.7776 26.1081 12.9732 26.032 13.1978L24.5903 12.9931C24.7044 12.5946 24.8909 12.2614 25.1536 11.9933C25.4144 11.7253 25.735 11.5224 26.1135 11.3884C26.492 11.2526 26.9104 11.1855 27.3668 11.1855C27.682 11.1855 27.9971 11.2218 28.3105 11.296C28.6238 11.3703 28.91 11.4916 29.1671 11.6601C29.4261 11.8285 29.6344 12.0585 29.792 12.3483C29.9496 12.6381 30.0293 13.0004 30.0293 13.4368V17.8217H28.5441V16.9216H28.4934C28.3992 17.1027 28.2688 17.2729 28.0985 17.4305C27.9301 17.5881 27.7182 17.7149 27.4628 17.8109C27.2074 17.9068 26.9104 17.9539 26.5699 17.9539L26.5663 17.9521ZM26.9666 16.8183C27.2763 16.8183 27.5461 16.7567 27.7725 16.6336C28.0007 16.5104 28.1764 16.3456 28.2996 16.1409C28.4227 15.9363 28.4843 15.7135 28.4843 15.4708V14.6992C28.4354 14.7391 28.3539 14.7753 28.2398 14.8097C28.1257 14.8441 27.9953 14.8731 27.854 14.9003C27.711 14.9256 27.5715 14.9492 27.432 14.9691C27.2926 14.989 27.1712 15.0071 27.0698 15.0198C26.8398 15.0506 26.6333 15.1031 26.4504 15.1738C26.2674 15.2444 26.1244 15.344 26.0193 15.4708C25.9143 15.5976 25.8617 15.7606 25.8617 15.9598C25.8617 16.2442 25.965 16.4597 26.1733 16.6046C26.3815 16.7495 26.646 16.8219 26.9666 16.8219V16.8183Z" fill="#F3D869"/>
<path d="M32.3042 20.2775C32.0941 20.2775 31.9003 20.2612 31.7228 20.2286C31.5453 20.196 31.4041 20.158 31.299 20.1163L31.6576 18.9137C31.8822 18.9789 32.0833 19.0097 32.2589 19.0079C32.4346 19.0043 32.5904 18.9499 32.7262 18.8431C32.8621 18.7362 32.9762 18.5587 33.0703 18.3124L33.2026 17.9592L30.8263 11.2705H32.4636L33.9741 16.2187H34.043L35.5571 11.2705H37.1998L34.5754 18.6167C34.4523 18.9644 34.2911 19.2614 34.0882 19.5096C33.8854 19.7577 33.6391 19.9497 33.3475 20.0819C33.0559 20.2141 32.7081 20.2793 32.3042 20.2793V20.2775Z" fill="#F3D869"/>
<path d="M10.0449 18.2872C7.59071 18.2872 5.80851 16.639 5.80851 14.3696C5.80851 13.551 6.05845 12.3465 7.2484 11.2598L7.27194 11.2381L8.53072 12.5403C8.51623 12.5548 8.4963 12.5729 8.47095 12.5965C7.90586 13.1127 7.61969 13.7085 7.61969 14.3696C7.61969 15.6302 8.59411 16.476 10.0449 16.476C11.9267 16.476 13.1438 15.1629 13.1438 13.129C13.1438 11.5061 11.8651 9.78189 9.49608 9.78189C7.74104 9.78189 6.53479 11.0262 6.52393 11.0388L5.19995 9.8C5.26878 9.72574 6.93325 7.9707 9.49427 7.9707C12.912 7.9707 14.9532 10.5933 14.9532 13.129C14.9532 16.1663 12.9337 18.2872 10.0431 18.2872H10.0449Z" fill="#F3D869"/>
</svg>
