<svg width="30" height="31" viewBox="0 0 30 31" fill="none" xmlns="http://www.w3.org/2000/svg">
<path fill-rule="evenodd" clip-rule="evenodd" d="M3 5.12061C3 4.81563 3.11493 4.52315 3.31952 4.3075C3.5241 4.09185 3.80158 3.9707 4.09091 3.9707H16.0909C16.3802 3.9707 16.6577 4.09185 16.8623 4.3075C17.0669 4.52315 17.1818 4.81563 17.1818 5.12061V10.8701H21.5455C22.2618 10.8701 22.971 11.0188 23.6328 11.3078C24.2946 11.5967 24.8959 12.0202 25.4024 12.5541C25.9089 13.088 26.3107 13.7218 26.5848 14.4194C26.8589 15.117 27 15.8646 27 16.6196V21.2193C27.0001 21.9595 26.7744 22.6802 26.3562 23.2749C25.938 23.8695 25.3494 24.3067 24.6775 24.5218C24.4774 25.2175 24.0739 25.8288 23.5247 26.2684C22.9754 26.708 22.3084 26.9535 21.6189 26.9698C20.9295 26.9862 20.2527 26.7725 19.6853 26.3593C19.1179 25.9461 18.6888 25.3545 18.4593 24.669H11.5418C11.3123 25.3545 10.8832 25.9461 10.3158 26.3593C9.74838 26.7725 9.07163 26.9862 8.38214 26.9698C7.69266 26.9535 7.02568 26.708 6.47643 26.2684C5.92717 25.8288 5.52371 25.2175 5.32364 24.5218C4.65146 24.3069 4.06268 23.8698 3.64425 23.2751C3.22583 22.6804 2.99996 21.9597 3 21.2193V16.6196H9.54545C9.83478 16.6196 10.1123 16.4985 10.3168 16.2828C10.5214 16.0672 10.6364 15.7747 10.6364 15.4697C10.6364 15.1648 10.5214 14.8723 10.3168 14.6566C10.1123 14.441 9.83478 14.3198 9.54545 14.3198H3V12.02H7.36364C7.65296 12.02 7.93044 11.8989 8.13503 11.6832C8.33961 11.4676 8.45455 11.1751 8.45455 10.8701C8.45455 10.5652 8.33961 10.2727 8.13503 10.057C7.93044 9.84137 7.65296 9.72022 7.36364 9.72022H3V5.12061ZM17.1818 22.3692H18.4593C18.6749 21.7257 19.0668 21.1642 19.5853 20.7555C20.1038 20.3469 20.7256 20.1095 21.3721 20.0735C22.0186 20.0374 22.6607 20.2042 23.2172 20.5529C23.7737 20.9016 24.2197 21.4164 24.4985 22.0322C24.6 21.9256 24.6805 21.7989 24.7353 21.6594C24.7902 21.5198 24.8183 21.3703 24.8182 21.2193V16.6196C24.8182 15.7047 24.4734 14.8273 23.8596 14.1803C23.2459 13.5334 22.4134 13.1699 21.5455 13.1699H17.1818V22.3692ZM9.54545 23.5191C9.54545 23.2141 9.43052 22.9216 9.22593 22.706C9.02135 22.4903 8.74387 22.3692 8.45455 22.3692C8.16522 22.3692 7.88774 22.4903 7.68316 22.706C7.47857 22.9216 7.36364 23.2141 7.36364 23.5191C7.36364 23.824 7.47857 24.1165 7.68316 24.3322C7.88774 24.5478 8.16522 24.669 8.45455 24.669C8.74387 24.669 9.02135 24.5478 9.22593 24.3322C9.43052 24.1165 9.54545 23.824 9.54545 23.5191ZM20.7742 22.7061C20.6726 22.8126 20.592 22.9393 20.5372 23.0788C20.4823 23.2184 20.4542 23.368 20.4545 23.5191C20.4545 23.7851 20.542 24.0429 20.702 24.2486C20.8621 24.4543 21.0849 24.5951 21.3324 24.6471C21.5799 24.699 21.8369 24.6589 22.0595 24.5335C22.2821 24.4082 22.4566 24.2053 22.5532 23.9596C22.6499 23.7138 22.6627 23.4403 22.5894 23.1857C22.5162 22.9311 22.3615 22.7111 22.1517 22.5633C21.9419 22.4155 21.6899 22.3489 21.4387 22.3749C21.1875 22.401 20.9527 22.518 20.7742 22.7061Z" fill="#F3D869"/>
</svg>
