<svg width="43" height="28" viewBox="0 0 43 28" fill="none" xmlns="http://www.w3.org/2000/svg">
<rect x="0.899963" y="1.4707" width="41" height="26" rx="6.5" fill="white" stroke="#F3D869"/>
<path d="M13.4035 24.0039V22.733C13.4035 22.2469 13.1074 21.9285 12.599 21.9285C12.3449 21.9285 12.0685 22.0124 11.8785 22.2888C11.7304 22.0569 11.5182 21.9285 11.1998 21.9285C10.9876 21.9285 10.7754 21.9927 10.6076 22.2247V21.9705H10.1634V24.0039H10.6076V22.8811C10.6076 22.5208 10.7976 22.3505 11.0937 22.3505C11.3899 22.3505 11.5379 22.5405 11.5379 22.8811V24.0039H11.9821V22.8811C11.9821 22.5208 12.1943 22.3505 12.4682 22.3505C12.7644 22.3505 12.9124 22.5405 12.9124 22.8811V24.0039H13.4035ZM19.9924 21.9705H19.2718V21.356H18.8276V21.9705H18.4253V22.3727H18.8276V23.3055C18.8276 23.7719 19.0176 24.0459 19.526 24.0459C19.716 24.0459 19.9282 23.9817 20.0763 23.8978L19.9479 23.5153C19.8196 23.5992 19.6715 23.6214 19.5654 23.6214C19.3532 23.6214 19.2693 23.4931 19.2693 23.2833V22.3727H19.9899V21.9705H19.9924ZM23.763 21.9261C23.5089 21.9261 23.3386 22.0544 23.2325 22.2222V21.968H22.7883V24.0014H23.2325V22.8564C23.2325 22.5183 23.3805 22.3258 23.6569 22.3258C23.7408 22.3258 23.8469 22.3481 23.9333 22.3678L24.0616 21.9434C23.9728 21.9261 23.8469 21.9261 23.763 21.9261ZM18.0651 22.1383C17.8528 21.9902 17.5567 21.9261 17.2384 21.9261C16.73 21.9261 16.3919 22.1803 16.3919 22.5825C16.3919 22.9206 16.6461 23.1131 17.0903 23.1747L17.3025 23.197C17.5345 23.2389 17.6628 23.3031 17.6628 23.4092C17.6628 23.5572 17.4925 23.6634 17.1964 23.6634C16.9003 23.6634 16.6659 23.5572 16.5178 23.4511L16.3056 23.7892C16.5375 23.9595 16.8559 24.0434 17.1742 24.0434C17.7665 24.0434 18.107 23.767 18.107 23.387C18.107 23.0267 17.8306 22.8367 17.4086 22.7725L17.1964 22.7503C17.0064 22.7281 16.8583 22.6861 16.8583 22.5603C16.8583 22.4122 17.0064 22.3283 17.2408 22.3283C17.495 22.3283 17.7492 22.4344 17.8775 22.4986L18.0651 22.1383ZM29.883 21.9261C29.6288 21.9261 29.4586 22.0544 29.3524 22.2222V21.968H28.9083V24.0014H29.3524V22.8564C29.3524 22.5183 29.5005 22.3258 29.7769 22.3258C29.8608 22.3258 29.9669 22.3481 30.0533 22.3678L30.1816 21.9483C30.0952 21.9261 29.9694 21.9261 29.883 21.9261ZM24.2072 22.9872C24.2072 23.6017 24.6317 24.0459 25.2881 24.0459C25.5842 24.0459 25.7965 23.9817 26.0087 23.8139L25.7965 23.4536C25.6262 23.5819 25.4584 23.6436 25.2659 23.6436C24.9056 23.6436 24.6514 23.3894 24.6514 22.9872C24.6514 22.6047 24.9056 22.3505 25.2659 22.3308C25.4559 22.3308 25.6262 22.3949 25.7965 22.5208L26.0087 22.1605C25.7965 21.9902 25.5842 21.9285 25.2881 21.9285C24.6317 21.9261 24.2072 22.3727 24.2072 22.9872ZM28.316 22.9872V21.9705H27.8718V22.2247C27.7237 22.0347 27.5115 21.9285 27.2351 21.9285C26.6626 21.9285 26.2184 22.3727 26.2184 22.9872C26.2184 23.6017 26.6626 24.0459 27.2351 24.0459C27.5313 24.0459 27.7435 23.9397 27.8718 23.7497V24.0039H28.316V22.9872ZM26.6848 22.9872C26.6848 22.6269 26.9168 22.3308 27.2993 22.3308C27.6596 22.3308 27.9138 22.6072 27.9138 22.9872C27.9138 23.3475 27.6596 23.6436 27.2993 23.6436C26.9193 23.6214 26.6848 23.345 26.6848 22.9872ZM21.3693 21.9261C20.7771 21.9261 20.3526 22.3505 20.3526 22.9847C20.3526 23.6214 20.7771 24.0434 21.3916 24.0434C21.6877 24.0434 21.9838 23.9595 22.2182 23.767L22.006 23.4487C21.8357 23.577 21.6235 23.6609 21.4138 23.6609C21.1374 23.6609 20.8635 23.5326 20.7993 23.1747H22.3021C22.3021 23.1106 22.3021 23.0686 22.3021 23.0045C22.3219 22.3505 21.9394 21.9261 21.3693 21.9261ZM21.3693 22.3086C21.6457 22.3086 21.8357 22.4788 21.8777 22.7947H20.819C20.861 22.5208 21.051 22.3086 21.3693 22.3086ZM32.405 22.9872V21.166H31.9608V22.2247C31.8128 22.0347 31.6005 21.9285 31.3242 21.9285C30.7516 21.9285 30.3075 22.3727 30.3075 22.9872C30.3075 23.6017 30.7516 24.0459 31.3242 24.0459C31.6203 24.0459 31.8325 23.9397 31.9608 23.7497V24.0039H32.405V22.9872ZM30.7739 22.9872C30.7739 22.6269 31.0058 22.3308 31.3883 22.3308C31.7486 22.3308 32.0028 22.6072 32.0028 22.9872C32.0028 23.3475 31.7486 23.6436 31.3883 23.6436C31.0058 23.6214 30.7739 23.345 30.7739 22.9872ZM15.9033 22.9872V21.9705H15.4591V22.2247C15.3111 22.0347 15.0988 21.9285 14.8225 21.9285C14.2499 21.9285 13.8058 22.3727 13.8058 22.9872C13.8058 23.6017 14.2499 24.0459 14.8225 24.0459C15.1186 24.0459 15.3308 23.9397 15.4591 23.7497V24.0039H15.9033V22.9872ZM14.2524 22.9872C14.2524 22.6269 14.4844 22.3308 14.8669 22.3308C15.2272 22.3308 15.4813 22.6072 15.4813 22.9872C15.4813 23.3475 15.2272 23.6436 14.8669 23.6436C14.4844 23.6214 14.2524 23.345 14.2524 22.9872Z" fill="#F3D869"/>
<path d="M24.5898 6.52734H17.9171V18.5156H24.5898V6.52734Z" fill="#F8ECC1"/>
<path d="M18.3611 12.5218C18.3611 10.0861 19.5061 7.92439 21.2632 6.52765C19.9701 5.51095 18.3389 4.89648 16.5597 4.89648C12.3448 4.89648 8.93439 8.30689 8.93439 12.5218C8.93439 16.7366 12.3448 20.147 16.5597 20.147C18.3389 20.147 19.9701 19.5326 21.2632 18.5159C19.5037 17.1389 18.3611 14.9574 18.3611 12.5218Z" fill="#F3D869"/>
<path d="M33.592 12.5218C33.592 16.7366 30.1816 20.147 25.9667 20.147C24.1875 20.147 22.5563 19.5326 21.2632 18.5159C23.0425 17.1167 24.1653 14.9574 24.1653 12.5218C24.1653 10.0861 23.0203 7.92439 21.2632 6.52765C22.5539 5.51095 24.185 4.89648 25.9643 4.89648C30.1816 4.89648 33.592 8.32909 33.592 12.5218Z" fill="#E9C543" fill-opacity="0.33"/>
</svg>
