<svg width="32" height="9" viewBox="0 0 32 9" fill="none" xmlns="http://www.w3.org/2000/svg">
<path d="M3.56395 0.532227L0.00891113 8.39941H4.26479L4.79239 7.14505H5.99838L6.52599 8.39941H11.2105V7.44204L11.6279 8.39941H14.0511L14.4686 7.42181V8.39941H24.2111L25.3957 7.17763L26.505 8.39941L31.509 8.40952L27.9427 4.48778L31.509 0.532227H26.5826L25.4294 1.73143L24.3551 0.532227H13.7565L12.8464 2.56281L11.9149 0.532227H7.66794V1.45701L7.19549 0.532227H3.56395ZM4.38744 1.64938H6.46195L8.82 6.98415V1.64938H11.0926L12.9139 5.47439L14.5924 1.64938H16.8536V7.2946H15.4777L15.4665 2.87103L13.4606 7.2946H12.2298L10.2127 2.87103V7.2946H7.38217L6.84556 6.02901H3.94645L3.41095 7.29349H1.89439L4.38744 1.64938ZM18.1124 1.64938H23.7071L25.4182 3.49772L27.1845 1.64938H28.8956L26.2957 4.48667L28.8956 7.29126H27.1069L25.3957 5.42145L23.6204 7.29126H18.1124V1.64938ZM5.39662 2.60452L4.44148 4.85905H6.35065L5.39662 2.60452ZM19.494 2.81822V3.84876H22.5461V4.99737H19.494V6.12242H22.9174L24.5081 4.46532L22.9849 2.81724H19.494V2.81822Z" fill="#F3D869"/>
</svg>
