<svg width="42" height="28" viewBox="0 0 42 28" fill="none" xmlns="http://www.w3.org/2000/svg">
<rect x="0.5" y="1.4707" width="41" height="26" rx="6.5" fill="white" stroke="#F3D869"/>
<path d="M18.2018 18.6881H15.7339L17.2775 9.14355H19.7453L18.2018 18.6881Z" fill="#F3D869"/>
<path d="M27.1482 9.37705C26.6614 9.18393 25.8894 8.9707 24.9347 8.9707C22.4975 8.9707 20.7813 10.2703 20.7708 12.1284C20.7505 13.4993 21.9995 14.2607 22.9337 14.7178C23.8885 15.1849 24.2131 15.4897 24.2131 15.9061C24.2034 16.5455 23.4415 16.8402 22.731 16.8402C21.7457 16.8402 21.2178 16.6883 20.4154 16.3325L20.0905 16.18L19.7451 18.3226C20.3239 18.5863 21.3904 18.8203 22.4975 18.8305C25.0871 18.8305 26.7729 17.551 26.7929 15.571C26.8027 14.4844 26.1432 13.6519 24.7213 12.9716C23.8581 12.5349 23.3295 12.2404 23.3295 11.7936C23.3397 11.3873 23.7766 10.9713 24.751 10.9713C25.5533 10.9509 26.1428 11.1438 26.5894 11.3367L26.8126 11.4381L27.1482 9.37705Z" fill="#F3D869"/>
<path d="M30.4283 15.3068C30.6316 14.7585 31.4136 12.6363 31.4136 12.6363C31.4034 12.6567 31.6165 12.0779 31.7383 11.7226L31.9108 12.545C31.9108 12.545 32.3782 14.8296 32.4797 15.3068C32.094 15.3068 30.9158 15.3068 30.4283 15.3068ZM33.4747 9.14355H31.5657C30.9771 9.14355 30.5298 9.31603 30.2758 9.93547L26.61 18.688H29.1996C29.1996 18.688 29.6259 17.51 29.7175 17.2563C30.0016 17.2563 32.5207 17.2563 32.8861 17.2563C32.957 17.5914 33.1806 18.688 33.1806 18.688H35.4657L33.4747 9.14355Z" fill="#F3D869"/>
<path d="M13.6724 9.14355L11.2555 15.652L10.9914 14.332C10.5445 12.8089 9.14315 11.1541 7.57928 10.3313L9.79309 18.678H12.4029L16.282 9.14355H13.6724Z" fill="#F3D869"/>
<path d="M9.01128 9.14355H5.04062L5 9.33641C8.09736 10.1285 10.1487 12.0377 10.9915 14.3325L10.1283 9.94586C9.98619 9.33627 9.54948 9.16366 9.01128 9.14355Z" fill="#F3D869"/>
</svg>
