<svg width="69" height="15" viewBox="0 0 69 15" fill="none" xmlns="http://www.w3.org/2000/svg">
<mask id="mask0_233_3981" style="mask-type:luminance" maskUnits="userSpaceOnUse" x="0" y="0" width="42" height="15">
<path d="M0.320312 0.177734H41.4883V14.0842H0.320312V0.177734Z" fill="white"/>
</mask>
<g mask="url(#mask0_233_3981)">
<path d="M31.6167 6.66607H33.1792C34.361 6.66607 34.8419 6.33006 34.8419 5.45938C34.8419 4.8265 34.441 4.58871 33.3594 4.58871H31.9166L31.6167 6.66607ZM33.0386 11.0379H30.9749L30.5344 14.0842H24.0428L26.0264 0.177734H35.9444C39.7508 0.177734 41.4337 1.52252 41.4337 4.54957C41.4337 6.88392 40.6125 8.42662 38.9894 9.43539L40.7725 14.0842H33.9608L33.0386 11.0379ZM6.61145 14.0842H0.320312L2.30392 0.177734H10.9998L12.2017 6.15208L14.2048 2.05718C14.8465 0.731599 15.7478 0.177734 17.2505 0.177734H23.8221L21.8393 14.0842H15.5474L16.4891 8.2287L16.7494 6.88392L15.8077 8.74343L12.9026 14.0842H9.0558L7.83363 8.74343L7.47311 6.90386L7.35268 8.2287L6.61145 14.0842Z" fill="#203263"/>
</g>
<mask id="mask1_233_3981" style="mask-type:luminance" maskUnits="userSpaceOnUse" x="41" y="0" width="18" height="15">
<path d="M41.8711 0.177734H58.9127V14.0842H41.8711V0.177734Z" fill="white"/>
</mask>
<g mask="url(#mask1_233_3981)">
<path d="M49.6897 14.0842H41.9961L43.8997 0.177734H49.9103L49.1092 5.34123L48.7285 7.19999L50.0509 4.84644L51.8341 1.95822C52.6352 0.67252 53.517 0.177734 55.0593 0.177734H58.7864L49.6897 14.0842Z" fill="#F05349"/>
</g>
<mask id="mask2_233_3981" style="mask-type:luminance" maskUnits="userSpaceOnUse" x="52" y="0" width="17" height="15">
<path d="M52.5938 0.177734H68.5075V14.0842H52.5938V0.177734Z" fill="white"/>
</mask>
<g mask="url(#mask2_233_3981)">
<path d="M59.7707 14.0842H52.7578L53.0383 10.7211L59.4304 0.790677L58.8687 4.84644L58.3683 7.47766L59.5703 5.34123L61.6541 1.95822C62.4552 0.67252 63.337 0.177734 64.8801 0.177734H68.5062L59.7707 14.0842Z" fill="#F05349"/>
</g>
</svg>
