<svg width="49" height="16" viewBox="0 0 49 16" fill="none" xmlns="http://www.w3.org/2000/svg">
<path d="M48.4414 0.723633V11.3018H0.507812V0.723633H48.4414Z" fill="#FFCC00"/>
<path d="M8.9377 2.62305L7.40625 4.70365H15.7528C16.1747 4.70365 16.1691 4.86396 15.9629 5.14331C15.7534 5.42689 15.403 5.92007 15.1897 6.20813C15.0814 6.35432 14.8857 6.62065 15.5343 6.62065H18.9475C18.9475 6.62065 19.4977 5.87205 19.9587 5.24612C20.5861 4.39479 20.0132 2.62313 17.7703 2.62313L8.9377 2.62305Z" fill="#D2002E"/>
<path d="M6.78632 9.40141L9.86233 5.22186H13.6794C14.1013 5.22186 14.0958 5.38216 13.8896 5.66152C13.6802 5.9451 13.324 6.43303 13.1107 6.7211C13.0023 6.86728 12.8067 7.13404 13.4552 7.13404H18.5689C18.1437 7.71667 16.7641 9.40133 14.2871 9.40133L6.78632 9.40141ZM24.4027 7.13353L22.7346 9.40124H18.3345C18.3345 9.40124 20.0016 7.13404 20.0031 7.13404L24.4027 7.13353ZM31.1435 6.62065H20.3811L23.3242 2.62305H27.7231L26.0361 4.91528H27.9996L29.6873 2.62305H34.0856L31.1435 6.62065ZM30.7658 7.13412L29.0969 9.40141H24.6984C24.6984 9.40141 26.3655 7.13412 26.367 7.13412H30.7658ZM0.507812 8.02815H6.99009L6.63599 8.50983H0.507812V8.02815ZM0.507812 7.13412H7.64864L7.29387 7.61513H0.507812V7.13412ZM0.507812 8.92269H6.33186L5.97946 9.40141H0.507812V8.92269ZM48.4416 8.50983H41.9843L42.3387 8.02824H48.4416V8.50983ZM48.4416 9.40141L41.3278 9.40209L41.6802 8.92269H48.4416V9.40141ZM42.9964 7.13412H48.4416V7.61538L42.6423 7.6158L42.9964 7.13412ZM40.1775 2.62305L37.2349 6.62057H32.5738C32.5738 6.62057 35.5171 2.62305 35.5187 2.62305H40.1775ZM32.1966 7.13412C32.1966 7.13412 31.8751 7.57353 31.719 7.78473C31.1665 8.53148 31.6549 9.40141 33.4579 9.40141H40.5223L42.191 7.13412H32.1966Z" fill="#D2002E"/>
<path d="M0.507812 13.0215H48.4416V13.2611H0.507812V13.0215ZM0.507812 14.1397H48.4416V14.3793H0.507812V14.1397ZM0.507812 15.2576H48.4416V15.4972H0.507812V15.2576Z" fill="#FFCC00"/>
<path d="M16.6055 15.4976H18.0481L18.2783 15.1856H17.2048L17.8068 14.3698H18.7844L19.0147 14.0577H18.0371L18.5709 13.3343H19.6445L19.8748 13.0221H18.4323L16.6055 15.4976ZM18.3759 15.4976H18.8186L20.3275 14.4479L20.3127 15.4976H20.7776L20.7811 14.2032L22.5196 13.0221H22.099L20.7151 13.9726L20.7302 13.0221H20.2875L20.2741 14.2103L18.3759 15.4976ZM23.078 13.3343H23.3916C23.6204 13.3343 23.876 13.4477 23.6457 13.7598C23.4049 14.086 23.036 14.196 22.8072 14.196H22.4419L23.078 13.3343ZM21.1126 15.4976H21.4815L22.2116 14.5082H22.5732C23.038 14.5082 23.6284 14.3131 24.034 13.7633C24.4502 13.1993 24.142 13.0219 23.6145 13.0219H22.9394L21.1126 15.4976ZM23.2371 15.4976H23.606L24.4174 14.3982H24.6386C24.8341 14.3982 24.956 14.3982 24.8925 14.6393L24.6539 15.4976H25.0745L25.3151 14.5116C25.3465 14.3592 25.3305 14.306 25.2474 14.2633L25.2526 14.2562C25.5882 14.2065 25.9776 13.9938 26.2001 13.6922C26.6371 13.1001 26.2041 13.0219 25.6948 13.0219H25.064L23.2371 15.4976ZM25.2026 13.3343H25.5567C25.8962 13.3343 25.9685 13.4761 25.8037 13.6994C25.6284 13.9372 25.3118 14.086 24.9613 14.086H24.6477L25.2026 13.3343ZM25.4565 15.4976H26.8991L27.1292 15.1856H26.0558L26.6577 14.3698H27.6354L27.8656 14.0577H26.888L27.4219 13.3343H28.4955L28.7259 13.0221H27.2834L25.4565 15.4976ZM30.5029 13.0682C30.3703 13.0079 30.1882 12.9795 30.0185 12.9795C29.5536 12.9795 29.0193 13.2137 28.6948 13.6534C28.1268 14.4231 29.3462 14.2706 28.9378 14.8239C28.7232 15.1145 28.3443 15.2282 28.1341 15.2282C27.9458 15.2282 27.7769 15.1572 27.6881 15.1074L27.4079 15.4374C27.5384 15.4905 27.6789 15.5403 27.8597 15.5403C28.3761 15.5403 28.9548 15.3307 29.3448 14.8023C29.9467 13.9867 28.7587 14.0965 29.1095 13.6214C29.3006 13.3625 29.5965 13.2916 29.803 13.2916C29.995 13.2916 30.0745 13.3236 30.2103 13.3945L30.5029 13.0682ZM32.3476 13.0682C32.215 13.0079 32.033 12.9795 31.8632 12.9795C31.3983 12.9795 30.864 13.2137 30.5395 13.6534C29.9715 14.4231 31.1909 14.2706 30.7825 14.8239C30.568 15.1145 30.189 15.2282 29.9788 15.2282C29.7905 15.2282 29.6215 15.1572 29.5329 15.1074L29.2526 15.4374C29.3831 15.4905 29.5236 15.5403 29.7043 15.5403C30.2208 15.5403 30.7995 15.3307 31.1894 14.8023C31.7914 13.9867 30.6035 14.0965 30.9542 13.6214C31.1453 13.3625 31.4412 13.2916 31.6477 13.2916C31.8397 13.2916 31.9194 13.3236 32.055 13.3945L32.3476 13.0682Z" fill="#D2002E"/>
</svg>
