<svg width="20" height="20" viewBox="0 0 20 20" fill="none" xmlns="http://www.w3.org/2000/svg">
<path d="M7.51716 6.82097L8.02456 8.71338C8.5024 10.4961 8.74083 11.388 9.44331 11.7933C10.1458 12.1996 11.0374 11.9598 12.8207 11.4824L14.7124 10.9745C16.4957 10.4971 17.3873 10.2584 17.7932 9.55649C18.1992 8.85356 17.9607 7.9617 17.4819 6.17899L16.9755 4.28759C16.4976 2.50386 16.2582 1.612 15.5567 1.2067C14.8533 0.800383 13.9616 1.04011 12.1783 1.51855L10.2867 2.02441C8.50339 2.50183 7.61174 2.74156 7.20681 3.44448C6.80089 4.14639 7.03932 5.03826 7.51716 6.82097Z" fill="#5CC2FF"/>
<path d="M0.0279221 3.53934C0.0549803 3.44612 0.100999 3.35892 0.163347 3.28271C0.225695 3.2065 0.303149 3.14278 0.391281 3.0952C0.479414 3.04762 0.576496 3.01711 0.676976 3.00541C0.777457 2.9937 0.879365 3.00104 0.976875 3.02701L2.72587 3.49026C3.18939 3.61057 3.6124 3.84359 3.95365 4.16662C4.29491 4.48965 4.54277 4.89166 4.67307 5.33347L6.88216 12.9752L7.04443 13.5111C7.69452 13.7437 8.25321 14.1785 8.60753 14.7556L8.9259 14.6614L18.0354 12.3991C18.1334 12.3747 18.2353 12.3691 18.3355 12.3824C18.4358 12.3957 18.5323 12.4277 18.6195 12.4766C18.7068 12.5256 18.7831 12.5905 18.8441 12.6676C18.9051 12.7447 18.9497 12.8326 18.9752 12.9262C19.0006 13.0197 19.0066 13.1172 18.9927 13.213C18.9788 13.3087 18.9452 13.4009 18.894 13.4843C18.8428 13.5677 18.7749 13.6407 18.6942 13.699C18.6135 13.7573 18.5216 13.7998 18.4236 13.8242L9.34697 16.0777L9.01011 16.1778C9.00292 17.4243 8.10224 18.5637 6.74043 18.9024C5.10646 19.3087 3.42731 18.4097 2.98981 16.8962C2.5523 15.3818 3.5218 13.8252 5.15473 13.4198C5.2352 13.4 5.31638 13.383 5.39813 13.3688L3.18802 5.72508C3.12852 5.5287 3.01686 5.35038 2.86389 5.20746C2.71092 5.06454 2.52185 4.96188 2.31506 4.90948L0.565046 4.44524C0.467525 4.41948 0.376271 4.37561 0.296495 4.31614C0.216719 4.25666 0.149985 4.18275 0.100106 4.09863C0.0502264 4.0145 0.0181784 3.92181 0.00579292 3.82585C-0.00659254 3.72988 0.000927079 3.63252 0.0279221 3.53934Z" fill="#5CC2FF"/>
</svg>
