<svg width="30" height="31" viewBox="0 0 30 31" fill="none" xmlns="http://www.w3.org/2000/svg">
<path d="M21.9725 5.9443L19.4725 4.6318C17.2775 3.48055 16.18 2.9043 15 2.9043C13.82 2.9043 12.7225 3.4793 10.5275 4.6318L10.1262 4.84305L21.28 11.2168L26.3 8.7043C25.4925 7.7893 24.19 7.10555 21.9725 5.9418V5.9443ZM27.185 10.3593L22.1875 12.8593V16.6543C22.1875 16.9029 22.0887 17.1414 21.9129 17.3172C21.7371 17.493 21.4986 17.5918 21.25 17.5918C21.0014 17.5918 20.7629 17.493 20.5871 17.3172C20.4113 17.1414 20.3125 16.9029 20.3125 16.6543V13.7955L15.9375 15.983V27.7843C16.835 27.5605 17.8562 27.0255 19.4725 26.1768L21.9725 24.8643C24.6612 23.453 26.0063 22.748 26.7537 21.4793C27.5 20.2118 27.5 18.633 27.5 15.4793V15.333C27.5 12.9668 27.5 11.4868 27.185 10.3593ZM14.0625 27.7843V15.9843L2.815 10.3593C2.5 11.4868 2.5 12.9668 2.5 15.3305V15.4768C2.5 18.633 2.5 20.2118 3.24625 21.4793C3.99375 22.748 5.33875 23.4543 8.0275 24.8655L10.5275 26.1768C12.1438 27.0255 13.165 27.5605 14.0625 27.7843ZM3.7 8.70555L15 14.3555L19.2638 12.2243L8.15625 5.8768L8.0275 5.9443C5.81125 7.1068 4.5075 7.79055 3.7 8.7068V8.70555Z" fill="#A2CAF2"/>
</svg>
