<svg width="20" height="21" viewBox="0 0 20 21" fill="none" xmlns="http://www.w3.org/2000/svg">
<path d="M18 10.4707C18 12.5924 17.1571 14.6273 15.6569 16.1276C14.1566 17.6279 12.1217 18.4707 10 18.4707C7.87827 18.4707 5.84344 17.6279 4.34315 16.1276C2.84285 14.6273 2 12.5924 2 10.4707C2 8.34897 2.84285 6.31414 4.34315 4.81385C5.84344 3.31356 7.87827 2.4707 10 2.4707C12.1217 2.4707 14.1566 3.31356 15.6569 4.81385C17.1571 6.31414 18 8.34897 18 10.4707ZM13.1908 7.33284C11.7437 8.79232 10.3142 10.2717 8.85828 11.721C8.83209 11.7472 8.80605 11.7472 8.78016 11.721C8.1317 11.0719 7.48015 10.4205 6.82551 9.76678C6.6425 9.58378 6.50275 9.46771 6.40625 9.41857C5.61538 9.01652 4.78347 9.90227 5.14095 10.6516C5.19538 10.7658 5.31233 10.9125 5.49181 11.0917C6.33092 11.9293 7.16886 12.7677 8.00563 13.6068C8.35737 13.9599 8.73515 14.1748 9.21487 13.9418C9.33698 13.8823 9.50983 13.7393 9.73344 13.5128C11.3781 11.8457 13.0236 10.1793 14.6697 8.5134C15.134 8.04383 14.9734 7.22383 14.3559 6.97757C13.8766 6.78692 13.5408 6.97978 13.1908 7.33284Z" fill="#5A7BBC"/>
</svg>
