<svg width="36" height="24" viewBox="0 0 36 24" fill="none" xmlns="http://www.w3.org/2000/svg">
<path d="M0.726791 10.31C0.708545 10.3039 0.699219 8.65667 0.699219 5.43996V0.579102H17.9697H35.2401V5.45943V10.3398L17.9972 10.3295C8.51365 10.3239 0.741956 10.3151 0.726791 10.31Z" fill="#BDD1EC"/>
<path d="M31.6043 17.7427C32.1233 17.5572 32.3717 17.2324 32.3717 16.7394C32.3717 16.2557 32.1718 16.0209 31.6549 15.8974C31.4837 15.8566 31.2859 15.846 30.504 15.8359L29.5599 15.8238V16.8349V17.846L30.4627 17.837L31.3655 17.828L31.6043 17.7427ZM26.684 23.3648C26.6738 23.3545 26.6654 21.1644 26.6654 18.4979V13.6497L29.7046 13.6595C32.6998 13.6692 32.7478 13.6702 33.0179 13.7291C33.7484 13.8882 34.2333 14.133 34.6217 14.5386C35.0632 14.9998 35.2387 15.4903 35.2385 16.2627C35.2382 17.2124 35.0124 17.8556 34.5126 18.3304C34.2844 18.5471 34.0933 18.6651 33.7848 18.7798C33.6505 18.8297 33.5969 18.8598 33.6408 18.8607C33.7766 18.8633 34.0421 18.9465 34.2695 19.0579C34.6471 19.2428 34.9095 19.5553 35.0292 19.9628C35.0685 20.0964 35.3213 22.9638 35.3213 23.2753V23.3829H33.8327H32.3441L32.3435 23.0177C32.3425 22.2896 32.2907 21.1273 32.2507 20.9355C32.1421 20.4145 31.8291 20.1051 31.2662 19.9621C31.0679 19.9118 30.9287 19.9014 30.2975 19.8895L29.5603 19.8756L29.5532 21.6224L29.5461 23.3691L28.1243 23.3763C27.3424 23.3802 26.6943 23.375 26.684 23.3648ZM9.54657 18.5174V13.6519H13.1578H16.769V14.8373V16.0226H14.5912H12.4135V16.7256V17.4285H14.481H16.5485V18.5174V19.6063H14.481H12.4135V20.3092V21.0122H14.6464H16.8793V22.1976V23.3829H13.2129H9.54657V18.5174ZM20.8075 23.5628C18.7914 23.3304 17.7091 22.4112 17.3694 20.6429C17.3118 20.3429 17.3104 20.27 17.3005 16.9944L17.2903 13.6519H18.7238H20.1573L20.1671 16.829C20.176 19.7366 20.1809 20.0235 20.2251 20.2128C20.3597 20.7897 20.654 21.1084 21.1853 21.2528C21.4347 21.3206 22.0693 21.3193 22.2961 21.2505C22.8079 21.0952 23.077 20.7974 23.2089 20.2403C23.254 20.0498 23.2586 19.7829 23.2673 16.8428L23.2769 13.6519H24.7093H26.1416V16.8192C26.1416 18.8215 26.131 20.0914 26.1128 20.2719C26.0494 20.9006 25.8672 21.4992 25.6024 21.949C25.4358 22.232 25.0343 22.6606 24.7562 22.8524C24.2523 23.1998 23.648 23.4175 22.8558 23.537C22.4545 23.5975 21.2412 23.6127 20.8075 23.5628ZM3.71522 23.631C2.59266 23.461 1.75964 23.0897 1.14888 22.4873C0.728344 22.0724 0.474537 21.6235 0.326648 21.0329C0.262178 20.7754 0.192968 20.1771 0.22142 20.1232C0.22742 20.1118 0.917379 20.1025 1.75466 20.1025H3.27698L3.30928 20.4064C3.37344 21.01 3.58291 21.2585 4.15731 21.4122C4.42136 21.4829 5.02023 21.4981 5.30083 21.4412C5.8822 21.3234 6.15605 21.054 6.15574 20.6002C6.15574 20.4332 6.14332 20.3717 6.09369 20.2897C5.93464 20.027 5.77973 19.9684 3.78516 19.4171C2.33804 19.0171 1.73279 18.7521 1.22717 18.2969C0.95193 18.0492 0.709959 17.6445 0.611323 17.2671C0.500478 16.843 0.515392 16.1615 0.645986 15.6834C0.718709 15.4171 0.937343 14.9744 1.10469 14.7546C1.68454 13.9928 2.65761 13.5029 3.89471 13.35C4.1904 13.3135 5.15422 13.3129 5.4805 13.3491C7.41609 13.5638 8.57015 14.4643 8.84066 15.971C8.86346 16.0979 8.88585 16.2824 8.89043 16.381L8.89876 16.5602H7.42394H5.94914L5.93206 16.4013C5.89507 16.057 5.7496 15.8628 5.40034 15.6912C5.13892 15.5628 4.87796 15.5186 4.47433 15.5343C3.80666 15.5604 3.52844 15.7491 3.52721 16.1768C3.52657 16.3863 3.61281 16.5476 3.79551 16.6788C4.07061 16.8764 4.42058 16.9824 5.53852 17.2071C7.25313 17.5516 8.08017 17.8841 8.65307 18.459C9.11767 18.9253 9.32604 19.4897 9.32604 20.2817C9.32604 21.5531 8.73491 22.5051 7.58163 23.091C7.05386 23.359 6.34517 23.556 5.59074 23.6442C5.08626 23.7033 4.14865 23.6966 3.71522 23.631Z" fill="#E95128"/>
<path d="M35.2379 0.579102H6.44531V10.3142H35.2379V0.579102Z" fill="#6D9AD3"/>
<path d="M35.2374 0.579102H15.0703V10.3142H35.2374V0.579102Z" fill="#1C64B0"/>
</svg>
