<svg width="30" height="13" viewBox="0 0 30 13" fill="none" xmlns="http://www.w3.org/2000/svg">
<path d="M5.48157 2.1179C5.12996 2.52323 4.5674 2.84292 4.00483 2.79725C3.93451 2.2492 4.20994 1.6669 4.53224 1.30724C4.88384 0.890496 5.49915 0.593636 5.99725 0.570801C6.05585 1.14169 5.82731 1.70115 5.48157 2.1179ZM5.99139 2.90572C5.17684 2.86005 4.4795 3.35672 4.09274 3.35672C3.70011 3.35672 3.10825 2.92856 2.46364 2.93997C1.62566 2.95139 0.84627 3.41381 0.418486 4.15025C-0.460521 5.62313 0.189944 7.80391 1.03965 9.00277C1.45571 9.59649 1.95382 10.2473 2.61014 10.2245C3.23131 10.2016 3.47743 9.83055 4.22752 9.83055C4.98346 9.83055 5.20028 10.2245 5.85661 10.213C6.53637 10.2016 6.96416 9.61933 7.38022 9.02561C7.85489 8.35196 8.04827 7.69544 8.05999 7.66119C8.04827 7.64977 6.74734 7.16452 6.73562 5.70306C6.7239 4.48136 7.76112 3.89906 7.808 3.86481C7.222 3.0199 6.30783 2.92856 5.99139 2.90572ZM10.697 1.25015V10.1502H12.1151V7.10743H14.0783C15.8714 7.10743 17.1313 5.90857 17.1313 4.17308C17.1313 2.43759 15.8949 1.25015 14.1251 1.25015H10.697ZM12.1151 2.41476H13.7501C14.9807 2.41476 15.6839 3.05415 15.6839 4.17879C15.6839 5.30344 14.9807 5.94854 13.7442 5.94854H12.1151V2.41476ZM19.7215 10.2188C20.6122 10.2188 21.4385 9.77917 21.8135 9.08269H21.8428V10.1502H23.1555V5.72018C23.1555 4.43569 22.1007 3.60791 20.4774 3.60791C18.9714 3.60791 17.858 4.44711 17.817 5.6003H19.0945C19.1999 5.05225 19.7215 4.69259 20.4364 4.69259C21.3037 4.69259 21.7901 5.0865 21.7901 5.81152V6.30248L20.0203 6.40524C18.3737 6.50229 17.4829 7.15881 17.4829 8.30058C17.4829 9.45377 18.403 10.2188 19.7215 10.2188ZM20.1024 9.16262C19.3464 9.16262 18.8659 8.80867 18.8659 8.26633C18.8659 7.70686 19.3289 7.38146 20.2137 7.33008L21.7901 7.23303V7.73541C21.7901 8.5689 21.0634 9.16262 20.1024 9.16262ZM24.9076 12.5708C26.2906 12.5708 26.9411 12.057 27.5095 10.4985L30 3.69354H28.5584L26.8883 8.95139H26.859L25.1889 3.69354H23.7063L26.1089 10.1731L25.98 10.567C25.7632 11.2349 25.4116 11.4918 24.7846 11.4918C24.6732 11.4918 24.4564 11.4804 24.3685 11.469V12.5365C24.4505 12.5594 24.8021 12.5708 24.9076 12.5708Z" fill="#F3D869"/>
</svg>
