<svg width="26" height="25" viewBox="0 0 26 25" fill="none" xmlns="http://www.w3.org/2000/svg">
<path d="M17.609 10.4838H12.8037H8.00781V9.68605V8.87891H12.8037H17.609V9.68605V10.4838Z" fill="#00457D"/>
<path d="M16.7983 2.88281C16.2164 2.88281 15.6721 3.05175 15.1934 3.32392C14.7241 3.05175 14.1798 2.88281 13.5979 2.88281C13.3163 2.88281 13.0442 2.92035 12.7814 2.99544C12.528 2.92974 12.2746 2.88281 12.0024 2.88281C11.4205 2.88281 10.8855 3.05175 10.4069 3.32392C9.9376 3.05175 9.38386 2.88281 8.80197 2.88281C7.03752 2.88281 5.60156 4.31877 5.60156 6.08322V7.68812H7.20646V6.08322C7.20646 5.201 7.91975 4.47832 8.81136 4.47832C8.95214 4.47832 9.09292 4.50648 9.22431 4.53464C8.97091 4.99452 8.81136 5.51071 8.81136 6.07384V7.67873H10.4163V6.08322C10.4163 5.201 11.1295 4.47832 12.0212 4.47832V7.67873H13.626V4.47832C14.5083 4.47832 15.2309 5.19161 15.2309 6.08322V7.68812H16.7983V6.08322C16.7983 5.5201 16.6388 5.00391 16.3853 4.54402C16.5167 4.50648 16.6575 4.48771 16.7983 4.48771C17.6805 4.48771 18.4032 5.201 18.4032 6.09261V7.6975H20.0081V6.08322C19.9987 4.30939 18.5721 2.88281 16.7983 2.88281Z" fill="#00457D"/>
<path d="M13.1485 1.02427V0.273438H12.454V1.02427H11.7031V1.72817H12.454V2.479H13.1485V1.72817H13.9087V1.02427H13.1485Z" fill="#00457D"/>
<path d="M20.8074 11.6758C20.8074 13.5716 20.1504 15.3079 19.0523 16.6782C18.4141 13.8156 15.8613 11.6758 12.811 11.6758C10.8964 11.6758 9.17889 12.5205 8.00572 13.8532V11.6758H0C0 18.7523 5.73446 24.4868 12.8016 24.4868C19.8688 24.4868 25.6033 18.7523 25.6033 11.6852H20.8074V11.6758ZM1.72691 13.2807H6.40082V18.086C6.40082 19.3342 6.76685 20.498 7.38628 21.4929C4.38296 19.8223 2.23372 16.819 1.72691 13.2807ZM12.8016 22.8819C10.155 22.8819 7.99633 20.7327 7.99633 18.0766C7.99633 15.4205 10.1456 13.2807 12.8016 13.2807C15.4577 13.2807 17.5976 15.4299 17.5976 18.0672C17.0532 18.4802 16.4619 18.818 15.8237 19.0808C15.927 18.7617 16.002 18.4332 16.002 18.0766C16.002 16.2652 14.5661 14.8762 12.8016 14.8762C11.0372 14.8762 9.60123 16.3028 9.60123 18.0766C9.60123 19.8504 11.0278 21.277 12.8016 21.277C17.56 21.277 21.5113 17.8138 22.2715 13.2807H23.8951C23.1255 18.7054 18.4422 22.8819 12.8016 22.8819ZM14.4065 18.0766C14.4065 18.9588 13.6932 19.6721 12.811 19.6721C11.9288 19.6721 11.2155 18.9588 11.2155 18.0766C11.2155 17.1944 11.9288 16.4811 12.811 16.4811C13.6932 16.4811 14.4065 17.1944 14.4065 18.0766Z" fill="#00457D"/>
</svg>
