<svg width="16" height="16" viewBox="0 0 16 16" fill="none" xmlns="http://www.w3.org/2000/svg">
<path d="M1 4.5V12.2C1 13.18 1 13.67 1.19075 14.0445C1.35853 14.3738 1.62623 14.6415 1.9555 14.8092C2.32912 15 2.81912 15 3.79738 15H12.2026C13.1809 15 13.67 15 14.0436 14.8092C14.3735 14.6412 14.6412 14.3735 14.8092 14.0445C15 13.67 15 13.1809 15 12.2026V4.5M1 4.5H15M1 4.5L2.19437 2.40875C2.4875 1.89688 2.6345 1.6405 2.84013 1.45325C3.023 1.28788 3.23913 1.16275 3.47275 1.08575C3.73875 1 4.03275 1 4.62512 1H11.3749C11.9664 1 12.263 1 12.5281 1.08662C12.7617 1.16275 12.977 1.28788 13.159 1.45413C13.3655 1.6405 13.5125 1.89687 13.8065 2.4105L15 4.5M8 7.125V12.375M8 12.375L10.625 10.625M8 12.375L5.375 10.625" stroke="url(#paint0_linear_1181_26163)" stroke-width="1.75" stroke-linecap="round" stroke-linejoin="round"/>
<defs>
<linearGradient id="paint0_linear_1181_26163" x1="1" y1="8.05691" x2="15" y2="8.05691" gradientUnits="userSpaceOnUse">
<stop stop-color="#EF43C9"/>
<stop offset="1" stop-color="#EF436C"/>
</linearGradient>
</defs>
</svg>
