<svg width="51" height="21" viewBox="0 0 51 21" fill="none" xmlns="http://www.w3.org/2000/svg">
<path fill-rule="evenodd" clip-rule="evenodd" d="M33.7482 16.7943C32.8184 17.0517 31.6075 17.1589 30.5696 17.1589C27.8668 17.1589 26.0938 15.7645 26.0938 13.2117C26.0938 10.7876 27.7587 9.22165 30.1804 9.22165C30.721 9.22165 31.3048 9.28601 31.6508 9.45763V5.93945H33.7482V16.7943ZM31.6508 11.2596C31.3264 11.1094 30.8723 11.0236 30.3534 11.0236C29.0777 11.0236 28.2344 11.7959 28.2344 13.1474C28.2344 14.5847 29.1426 15.3999 30.6345 15.3999C30.894 15.3999 31.3048 15.3999 31.6508 15.314V11.2596ZM50.9818 16.7943C50.052 17.0517 48.8411 17.1589 47.7815 17.1589C45.1003 17.1589 43.3056 15.7645 43.3056 13.2117C43.3056 10.7876 44.9706 9.22165 47.3923 9.22165C47.9545 9.22165 48.5167 9.28601 48.8627 9.45763V5.93945H50.9818V16.7943ZM48.8627 11.2596C48.5384 11.1094 48.1059 11.0236 47.5869 11.0236C46.2896 11.0236 45.4463 11.7959 45.4463 13.1474C45.4463 14.5847 46.3761 15.3999 47.868 15.3999C48.1275 15.3999 48.5167 15.3999 48.8627 15.314V11.2596ZM37.0565 11.2596C37.4025 11.1094 37.8998 11.0665 38.3107 11.0665C39.608 11.0665 40.4946 11.7959 40.4946 13.1045C40.4946 14.649 39.4999 15.3569 38.1809 15.3784V17.1589H38.289C41.0135 17.1589 42.6353 15.6787 42.6353 13.0401C42.6353 10.6375 40.9054 9.22165 38.3539 9.22165C37.0565 9.22165 35.7808 9.52198 34.9375 9.86519V20.055H37.0565V11.2596Z" fill="#3F3F42"/>
<path fill-rule="evenodd" clip-rule="evenodd" d="M10.3003 -0.00195312C10.1757 -0.00195312 10.0512 0.0243051 9.95425 0.0702569L1.27447 4.56041L10.9925 9.93021C11.0825 9.97617 11.1517 10.0878 11.1517 10.1862V18.0112C11.1517 18.1096 11.0756 18.2212 10.9856 18.2672L10.4595 18.5429C10.418 18.5626 10.3626 18.5757 10.3003 18.5757H10.2865C10.2242 18.5757 10.1619 18.5692 10.1204 18.5429L9.59433 18.2672C9.50434 18.2212 9.43513 18.1096 9.43513 18.0112V11.0331C9.43513 10.9805 9.3936 10.9215 9.34515 10.8952L0.796875 6.16873V15.4247C0.796875 15.6348 0.949152 15.8843 1.14296 15.9893L9.96117 20.9193C10.0581 20.9718 10.1757 20.998 10.3003 20.998C10.4249 20.998 10.5495 20.9718 10.6395 20.9193L19.4577 15.9893C19.6446 15.8843 19.7969 15.6282 19.7969 15.4247V6.16873L13.9965 9.37223C13.9065 9.42474 13.7681 9.41818 13.6781 9.37223L13.1659 9.08339C13.1244 9.05713 13.0828 9.01774 13.0552 8.97179C13.0206 8.91271 13.0067 8.86019 12.9998 8.80768L12.9859 8.23656C12.9859 8.13809 13.0482 8.02649 13.1382 7.97398L19.3193 4.56041L10.6464 0.0702569C10.5495 0.0177405 10.4249 -0.00195312 10.3003 -0.00195312Z" fill="url(#paint0_linear_308_10273)"/>
<defs>
<linearGradient id="paint0_linear_308_10273" x1="4.1082" y1="17.8274" x2="11.8208" y2="11.0375" gradientUnits="userSpaceOnUse">
<stop stop-color="#A80034"/>
<stop offset="1" stop-color="#DB0031"/>
</linearGradient>
</defs>
</svg>
