<svg width="81" height="13" viewBox="0 0 81 13" fill="none" xmlns="http://www.w3.org/2000/svg">
<path fill-rule="evenodd" clip-rule="evenodd" d="M17.4812 3.94442L18.3937 0.373047H0.984375L3.99416 3.94442H17.4812Z" fill="url(#paint0_linear_308_10277)"/>
<path fill-rule="evenodd" clip-rule="evenodd" d="M0.984375 1.29441L3.75724 3.94442H3.99416L0.984375 0.373047V1.29441Z" fill="url(#paint1_linear_308_10277)"/>
<path fill-rule="evenodd" clip-rule="evenodd" d="M8.32336 8.13107L5.375 4.63867H17.2737L16.3963 8.13107H8.32336Z" fill="url(#paint2_linear_308_10277)"/>
<path fill-rule="evenodd" clip-rule="evenodd" d="M8.11276 8.13107L5.375 5.51616V4.63867L8.32336 8.13107H8.11276Z" fill="url(#paint3_linear_308_10277)"/>
<path fill-rule="evenodd" clip-rule="evenodd" d="M13.2178 12.5178L10.2344 9.00781H16.1662L15.2536 12.5178H13.2178Z" fill="url(#paint4_linear_308_10277)"/>
<path fill-rule="evenodd" clip-rule="evenodd" d="M10.2344 9.8853L13.0423 12.5178H13.2178L10.2344 9.00781V9.8853Z" fill="url(#paint5_linear_308_10277)"/>
<path fill-rule="evenodd" clip-rule="evenodd" d="M15.8516 12.5173H17.5393L18.4327 9.01562H16.745L15.8516 12.5173Z" fill="url(#paint6_linear_308_10277)"/>
<path fill-rule="evenodd" clip-rule="evenodd" d="M17 8.09795H18.6629L19.5564 4.6543H17.8687L17 8.09795Z" fill="url(#paint7_linear_308_10277)"/>
<path fill-rule="evenodd" clip-rule="evenodd" d="M18.0859 3.92735H19.786L20.6547 0.390625H18.9546L18.0859 3.92735Z" fill="url(#paint8_linear_308_10277)"/>
<path d="M34.0713 12.5297C33.2678 12.3494 32.8372 12.0126 32.5072 11.3065C32.3272 10.9214 32.3175 10.8519 32.3232 9.98533C32.3275 9.31537 32.3695 8.88036 32.4803 8.35927C32.83 6.71316 33.5849 4.89128 34.2116 4.18061C34.9134 3.38488 35.845 2.98387 37.2587 2.86908C38.6234 2.75826 39.7659 2.93326 40.3259 3.33891C40.8986 3.75378 41.0912 4.23709 41.0912 5.25973C41.0912 6.0052 40.8971 7.10504 40.6742 7.62326C40.4431 8.16055 40.4694 8.15602 37.5774 8.15602H35.0664L34.9991 8.41009C34.6831 9.6029 34.7364 10.1092 35.2104 10.4182C35.5557 10.6433 36.7688 10.7255 37.7438 10.5899C38.4732 10.4885 38.9614 10.2893 39.3332 9.94153C39.8557 9.45282 39.8886 9.51533 39.6285 10.5014C39.2032 12.1135 39.1255 12.2409 38.4287 12.4684C37.946 12.6259 34.7035 12.6715 34.0713 12.5297ZM38.9141 6.34364C39.1058 5.58174 39.0587 5.1927 38.7379 4.89005C38.2566 4.43609 37.0032 4.45966 36.3808 4.93436C36.1041 5.1454 35.8413 5.57469 35.6266 6.16616L35.47 6.59771H37.16H38.8501L38.9141 6.34364ZM64.8821 12.4897C64.1804 12.3059 63.8142 12.0256 63.5172 11.4447L63.2801 10.981L63.2804 9.9581C63.2806 9.1334 63.3114 8.79741 63.4395 8.22431C63.8432 6.41688 64.5253 4.8636 65.2552 4.0899C66.094 3.20068 67.095 2.86191 68.9035 2.85511C70.6947 2.84836 71.5037 3.20286 71.8989 4.16757C72.0802 4.61017 72.0612 5.95489 71.8622 6.75943C71.6729 7.52505 71.4991 7.91718 71.2982 8.03166C71.1765 8.10098 70.5373 8.13006 68.5647 8.15602L65.9902 8.18989L65.8681 8.66416C65.7065 9.29208 65.6959 9.82601 65.8395 10.097C65.9092 10.2285 66.0767 10.3713 66.2763 10.4696C66.5743 10.6164 66.683 10.6289 67.6501 10.6277C69.0889 10.6261 69.7361 10.4544 70.3149 9.92087C70.5808 9.67575 70.7667 9.57834 70.7667 9.6841C70.7667 9.81486 70.2075 11.7869 70.1254 11.9457C69.8525 12.4733 69.1231 12.6291 66.9497 12.6239C65.6263 12.6208 65.3023 12.5998 64.8821 12.4897ZM69.8766 6.21377C70.1203 4.99994 69.6974 4.52622 68.426 4.58919C67.4309 4.63847 66.9468 5.05062 66.5586 6.17896C66.4882 6.38368 66.4305 6.56164 66.4305 6.57444C66.4305 6.58724 67.1885 6.59771 68.115 6.59771H69.7995L69.8766 6.21377ZM20.779 12.4786C20.6503 12.3499 20.6826 11.9953 20.8972 11.1818C21.9067 7.35465 23.4222 1.36884 23.428 1.18583C23.433 1.0259 23.3902 0.920636 23.286 0.836209C23.2039 0.769771 23.1368 0.666945 23.1368 0.607706C23.1368 0.512617 23.3069 0.5 24.5886 0.5C25.8583 0.5 26.0547 0.51429 26.1544 0.613897C26.3115 0.771033 26.2794 0.955153 25.7238 3.08792C25.4645 4.08274 25.2693 4.91355 25.29 4.93417C25.3106 4.95479 26.1157 4.97166 27.0792 4.97166H28.8309L28.8958 4.81921C28.9806 4.61987 29.7614 1.60109 29.8147 1.26638C29.8497 1.04692 29.8296 0.98348 29.6807 0.84389C29.3292 0.514288 29.3833 0.5 30.9825 0.5C32.5801 0.5 32.6221 0.509296 32.6221 0.862983C32.6221 1.0257 31.7868 4.37243 30.9624 7.51237C29.9977 11.187 29.8345 11.8986 29.9131 12.0883C29.9566 12.1933 30.0351 12.2957 30.0876 12.3158C30.1401 12.3359 30.183 12.3991 30.183 12.4562C30.183 12.5462 29.9872 12.5599 28.706 12.5599C27.1122 12.5599 27.0664 12.5499 27.0664 12.2024C27.0664 12.0952 27.3561 10.8922 27.7101 9.52904C28.0641 8.16591 28.3537 7.00969 28.3537 6.95967C28.3537 6.88583 28.0127 6.86877 26.5413 6.869L24.729 6.86928L24.0995 9.3589C23.7533 10.7282 23.4713 11.9033 23.4728 11.9702C23.4743 12.0371 23.5457 12.162 23.6315 12.2477C23.7172 12.3335 23.7756 12.4388 23.7613 12.4818C23.7237 12.5947 20.8921 12.5917 20.779 12.4786ZM41.4009 12.4535C41.3423 12.3949 41.2944 12.3071 41.2944 12.2585C41.2944 12.2098 41.7971 10.209 42.4115 7.81234C43.4513 3.75595 43.5215 3.44395 43.4262 3.29854C43.3699 3.21263 43.2941 3.14234 43.2577 3.14234C43.2213 3.14234 43.1915 3.09661 43.1915 3.04071C43.1915 2.95388 43.3823 2.93908 44.5022 2.93908C46.2145 2.93908 46.1539 2.88755 45.8568 4.09087C45.8298 4.20029 45.9417 4.09235 46.173 3.78599C46.37 3.52514 46.6086 3.22788 46.7033 3.1254L46.8755 2.93908H48.0823C48.7461 2.93908 49.2892 2.95947 49.2892 2.9844C49.2892 3.13313 48.9139 4.42049 48.8353 4.54135C48.6828 4.77572 48.4347 4.82759 47.3583 4.85013C46.4872 4.86837 46.3032 4.89156 46.071 5.01236C45.585 5.26509 45.5004 5.48782 44.6582 8.73191C44.2325 10.3715 43.8656 11.7945 43.8428 11.8941C43.8119 12.0287 43.8449 12.1271 43.9706 12.2766C44.0638 12.3873 44.14 12.4963 44.14 12.5189C44.14 12.5415 43.5477 12.5599 42.8237 12.5599C41.7174 12.5599 41.4904 12.5429 41.4009 12.4535ZM48.3116 12.4535C48.2531 12.3949 48.2051 12.3111 48.205 12.2671C48.2049 12.2232 48.6962 10.2665 49.2967 7.91888C49.8972 5.57126 50.3889 3.57611 50.3894 3.4852C50.3898 3.39429 50.3254 3.26745 50.2462 3.20333C49.9497 2.96324 50.0569 2.93908 51.4186 2.93908C53.0638 2.93908 53.0957 2.95869 52.8416 3.81425C52.7832 4.01101 52.7475 4.18418 52.7624 4.19907C52.7773 4.21397 52.8923 4.08298 53.018 3.908C53.7249 2.92364 53.8353 2.87478 55.3578 2.87282C56.4866 2.87137 56.5232 2.87581 56.8822 3.05765C57.2635 3.25074 57.4695 3.54182 57.6018 4.07408L57.6566 4.29441L58.0301 3.73701C58.5931 2.89666 58.6508 2.87367 60.1973 2.87311C61.3719 2.87268 61.472 2.88266 61.7895 3.03177C61.9758 3.11929 62.1805 3.24968 62.2443 3.32154C62.4371 3.53881 62.5687 3.93169 62.5687 4.29057C62.5687 4.5005 62.2183 6.0337 61.6508 8.30674C61.1301 10.3928 60.7494 12.0486 60.7708 12.1342C60.7917 12.2171 60.8693 12.3174 60.9434 12.3571C61.2557 12.5242 61.0433 12.5599 59.7366 12.5599C58.3108 12.5599 58.2325 12.5429 58.2325 12.2338C58.2325 12.1439 58.5984 10.6303 59.0455 8.8702C59.4927 7.11012 59.8586 5.56543 59.8586 5.43756C59.8586 4.94459 59.4324 4.71479 58.6767 4.80029C57.955 4.88194 57.6434 5.11246 57.3917 5.75081C57.2806 6.03255 55.8389 11.4554 55.7579 11.8961C55.7184 12.1112 55.7368 12.1702 55.887 12.3094C55.9834 12.3987 56.0424 12.4916 56.0182 12.5159C55.9939 12.5401 55.3908 12.5599 54.6778 12.5599C53.2957 12.5599 53.2188 12.5425 53.2188 12.2284C53.2188 12.1355 53.5847 10.6333 54.0319 8.89014C54.479 7.14698 54.8449 5.59656 54.8449 5.44476C54.8449 4.9114 54.3455 4.6785 53.5266 4.82989C52.9834 4.9303 52.7415 5.0889 52.5312 5.4826C52.3397 5.8409 50.7798 11.6657 50.7798 12.0222C50.7798 12.1466 50.83 12.2514 50.9153 12.3046C50.9898 12.3512 51.0508 12.4277 51.0508 12.4746C51.0508 12.5403 50.7476 12.5599 49.7344 12.5599C48.6281 12.5599 48.4011 12.5429 48.3116 12.4535ZM72.426 12.3991C72.3229 12.2418 72.3331 12.1693 72.6098 11.0928C72.8361 10.2121 72.9293 9.94784 73.0196 9.93044C73.0924 9.91642 73.1663 9.97328 73.2155 10.0812C73.337 10.3478 73.5623 10.4558 74.1674 10.5372C74.9336 10.6403 76.8216 10.5811 77.1423 10.4438C77.4396 10.3166 77.6505 10.0345 77.7374 9.6476C77.814 9.30661 77.7487 9.0866 77.5278 8.94187C77.4422 8.88577 76.7647 8.67184 76.0224 8.46649C74.5332 8.05454 74.146 7.86788 73.8976 7.44222C73.7551 7.1981 73.7435 7.11184 73.7705 6.49608C73.8332 5.06718 74.5163 3.68281 75.3739 3.24654C75.9117 2.97293 76.2768 2.93908 78.6903 2.93908H80.9838L80.8133 3.56579C80.611 4.30914 80.506 4.53132 80.3021 4.64782C80.1959 4.7085 79.6716 4.74469 78.5551 4.7684C77.1822 4.79755 76.9344 4.81894 76.7775 4.92178C76.5428 5.07574 76.4113 5.2834 76.3557 5.58807C76.2755 6.02729 76.4457 6.13467 77.9146 6.5714C79.7368 7.11318 80.0849 7.31875 80.2537 7.95276C80.4207 8.57981 80.1454 10.1915 79.7188 11.0843C79.4256 11.6979 79.1011 12.0434 78.5739 12.303L78.121 12.526L75.328 12.5458L72.5351 12.5656L72.426 12.3991Z" fill="#484649"/>
<defs>
<linearGradient id="paint0_linear_308_10277" x1="2.84587" y1="2.47463" x2="18.4276" y2="0.719654" gradientUnits="userSpaceOnUse">
<stop stop-color="#EEF7FE"/>
<stop offset="1" stop-color="#1E97D0"/>
</linearGradient>
<linearGradient id="paint1_linear_308_10277" x1="0.950499" y1="0.965351" x2="4.02804" y2="3.9783" gradientUnits="userSpaceOnUse">
<stop stop-color="#D6E9F7"/>
<stop offset="1" stop-color="#48A2D7"/>
</linearGradient>
<linearGradient id="paint2_linear_308_10277" x1="7.3067" y1="6.97279" x2="17.3076" y2="4.83172" gradientUnits="userSpaceOnUse">
<stop stop-color="#D4EAF7"/>
<stop offset="1" stop-color="#1493C5"/>
</linearGradient>
<linearGradient id="paint3_linear_308_10277" x1="5.34112" y1="4.63867" x2="8.35724" y2="8.16495" gradientUnits="userSpaceOnUse">
<stop stop-color="#D9EBF7"/>
<stop offset="1" stop-color="#318ABB"/>
</linearGradient>
<linearGradient id="paint4_linear_308_10277" x1="11.9717" y1="11.0358" x2="16.1662" y2="9.00781" gradientUnits="userSpaceOnUse">
<stop stop-color="#9DC4DF"/>
<stop offset="1" stop-color="#137EAB"/>
</linearGradient>
<linearGradient id="paint5_linear_308_10277" x1="10.2005" y1="8.97394" x2="13.2517" y2="12.5516" gradientUnits="userSpaceOnUse">
<stop stop-color="#DEEEF8"/>
<stop offset="1" stop-color="#3586B3"/>
</linearGradient>
<linearGradient id="paint6_linear_308_10277" x1="17.1422" y1="12.5512" x2="17.1422" y2="8.98175" gradientUnits="userSpaceOnUse">
<stop stop-color="#646368"/>
<stop offset="1" stop-color="#646368"/>
</linearGradient>
<linearGradient id="paint7_linear_308_10277" x1="18.2906" y1="8.13183" x2="18.2906" y2="4.65421" gradientUnits="userSpaceOnUse">
<stop stop-color="#636267"/>
<stop offset="1" stop-color="#646368"/>
</linearGradient>
<linearGradient id="paint8_linear_308_10277" x1="19.5379" y1="3.92755" x2="19.5379" y2="0.390625" gradientUnits="userSpaceOnUse">
<stop stop-color="#6B6A6F"/>
<stop offset="1" stop-color="#EAEBED"/>
</linearGradient>
</defs>
</svg>
