<svg width="64" height="17" viewBox="0 0 64 17" fill="none" xmlns="http://www.w3.org/2000/svg">
<path fill-rule="evenodd" clip-rule="evenodd" d="M24.4695 13.8134C24.2712 13.7241 24.0349 13.6741 23.8305 13.6741C23.1446 13.6741 22.6843 14.2601 22.6843 14.9491C22.6843 15.2913 22.8675 15.6259 23.3733 15.6259C23.5368 15.6259 23.6746 15.5986 23.8078 15.5593L23.9865 14.6114H24.3893L24.1576 15.85C23.8911 15.9514 23.5716 16.0029 23.3006 16.0029C22.5738 16.0029 22.2422 15.582 22.2422 14.999C22.2422 14.0194 22.9387 13.3047 23.876 13.3047C24.1273 13.3047 24.3741 13.3395 24.5922 13.4092L24.4695 13.8134Z" fill="#044896"/>
<path fill-rule="evenodd" clip-rule="evenodd" d="M25.1334 15.1399C25.1258 15.1899 25.1182 15.2762 25.1182 15.3337C25.1182 15.5987 25.2136 15.6684 25.4983 15.6684C25.677 15.6684 25.8723 15.626 26.0388 15.5548V15.8818C25.845 15.956 25.6134 16.003 25.3651 16.003C24.9093 16.003 24.7109 15.7971 24.7109 15.361C24.7109 14.5872 25.1531 13.9922 25.7618 13.9922C26.1948 13.9922 26.3432 14.2178 26.3432 14.4479C26.3432 14.8825 25.9132 15.1127 25.1334 15.1399ZM25.7163 14.3041C25.4423 14.3041 25.2591 14.5555 25.1834 14.8522C25.7012 14.8325 25.945 14.7235 25.945 14.5025C25.945 14.3738 25.8572 14.3041 25.7163 14.3041Z" fill="#044896"/>
<path fill-rule="evenodd" clip-rule="evenodd" d="M28.0878 15.9647H27.6881L27.9212 14.7397C27.9742 14.4642 27.9243 14.3476 27.7759 14.3476C27.4715 14.3476 27.0991 15.0395 27.0143 15.5059L26.931 15.9647H26.5312L26.722 14.9532C26.7826 14.6307 26.8432 14.2931 26.8856 14.0326H27.2808C27.258 14.1538 27.2096 14.3597 27.0869 14.7201L27.0945 14.7246C27.2732 14.343 27.5548 13.9902 27.9364 13.9902C28.2937 13.9902 28.4073 14.2507 28.3361 14.6428L28.0878 15.9647Z" fill="#044896"/>
<path fill-rule="evenodd" clip-rule="evenodd" d="M29.0943 15.1399C29.0868 15.1899 29.0792 15.2762 29.0792 15.3337C29.0792 15.5987 29.1746 15.6684 29.4592 15.6684C29.6379 15.6684 29.8332 15.626 29.9998 15.5548V15.8818C29.806 15.956 29.5743 16.003 29.326 16.003C28.8702 16.003 28.6719 15.7971 28.6719 15.361C28.6719 14.5872 29.114 13.9922 29.7227 13.9922C30.1557 13.9922 30.3041 14.2178 30.3041 14.4479C30.3041 14.8825 29.8741 15.1127 29.0943 15.1399ZM29.6773 14.3041C29.4032 14.3041 29.22 14.5555 29.1443 14.8522C29.6621 14.8325 29.9044 14.7235 29.9044 14.5025C29.9044 14.3738 29.8181 14.3041 29.6773 14.3041Z" fill="#044896"/>
<path fill-rule="evenodd" clip-rule="evenodd" d="M31.8238 14.3944C31.5073 14.3006 31.153 14.9456 31.0425 15.5361L30.9622 15.9646H30.5625L30.7533 14.9532C30.8032 14.6821 30.8684 14.3202 30.9168 14.0326H31.3059C31.2787 14.1915 31.2287 14.3823 31.1258 14.6852L31.1333 14.6897C31.3438 14.2461 31.5603 13.9357 31.9071 13.9932L31.8238 14.3944Z" fill="#044896"/>
<path fill-rule="evenodd" clip-rule="evenodd" d="M33.4622 15.9643H33.0655C33.1003 15.8053 33.1654 15.5752 33.2684 15.2572L33.2593 15.2526C33.1154 15.5449 32.8414 16.0067 32.4159 16.0067C32.1373 16.0067 31.9844 15.8204 31.9844 15.4086C31.9844 14.6894 32.3538 14.002 33.1836 14.002C33.4046 14.002 33.6181 14.0201 33.812 14.0595C33.6257 15.0422 33.5424 15.4858 33.4622 15.9643ZM33.1154 14.3245C32.6097 14.3245 32.3962 14.8877 32.3962 15.3344C32.3962 15.5555 32.4613 15.6494 32.5673 15.6494C32.8868 15.6494 33.2487 14.9377 33.3335 14.4986L33.3592 14.3593C33.2911 14.3396 33.2108 14.3245 33.1154 14.3245Z" fill="#044896"/>
<path fill-rule="evenodd" clip-rule="evenodd" d="M34.431 15.9642H34.0312L34.5233 13.3008H34.9231L34.431 15.9642Z" fill="#044896"/>
<path fill-rule="evenodd" clip-rule="evenodd" d="M37.2673 15.9644H36L36.4966 13.2949H36.9039L36.4754 15.5949H37.3385L37.2673 15.9644Z" fill="#044896"/>
<path fill-rule="evenodd" clip-rule="evenodd" d="M38.349 16.003C37.8493 16.003 37.6328 15.7501 37.6328 15.311C37.6328 14.5206 38.1355 13.9922 38.7472 13.9922C39.2651 13.9922 39.471 14.2844 39.471 14.6963C39.471 15.4897 38.9274 16.003 38.349 16.003ZM38.6867 14.3465C38.299 14.3465 38.0507 14.8007 38.0507 15.2444C38.0507 15.4973 38.1507 15.6441 38.405 15.6441C38.7639 15.6441 39.0485 15.2489 39.0485 14.7432C39.0485 14.4858 38.938 14.3465 38.6867 14.3465Z" fill="#044896"/>
<mask id="mask0_308_10289" style="mask-type:luminance" maskUnits="userSpaceOnUse" x="39" y="13" width="3" height="4">
<path d="M39.3594 13.6172H41.6851V16.9468H39.3594V13.6172Z" fill="white"/>
</mask>
<g mask="url(#mask0_308_10289)">
<path fill-rule="evenodd" clip-rule="evenodd" d="M41.2018 16.1157C41.111 16.6093 40.8066 16.947 40.0768 16.947C39.8633 16.947 39.6907 16.9167 39.5469 16.8698L39.6423 16.4776C39.7907 16.5518 39.9799 16.5896 40.1525 16.5896C40.5296 16.5896 40.7491 16.4428 40.8248 16.0461C40.8748 15.7811 40.9202 15.6342 41.0383 15.2678H41.0307C40.8945 15.5449 40.6204 16.0067 40.1934 16.0067C39.9163 16.0067 39.7634 15.8204 39.7634 15.4086C39.7634 14.6894 40.1374 14.002 40.9626 14.002C41.1837 14.002 41.3972 14.0201 41.591 14.0595L41.2018 16.1157ZM40.8945 14.3245C40.3872 14.3245 40.1752 14.8877 40.1752 15.3344C40.1752 15.5555 40.2388 15.6494 40.3463 15.6494C40.6658 15.6494 41.0277 14.9377 41.111 14.4986L41.1382 14.3593C41.0701 14.3396 40.9899 14.3245 40.8945 14.3245Z" fill="#044896"/>
</g>
<path fill-rule="evenodd" clip-rule="evenodd" d="M42.2122 15.9633H41.8125L42.1744 14.0312H42.5741L42.2122 15.9633ZM42.459 13.7435C42.3152 13.7435 42.2122 13.6269 42.2168 13.4952C42.2198 13.3392 42.35 13.2227 42.4939 13.2227C42.6347 13.2227 42.7376 13.3362 42.7331 13.4679C42.7301 13.6269 42.6014 13.7435 42.459 13.7435Z" fill="#044896"/>
<path fill-rule="evenodd" clip-rule="evenodd" d="M44.0309 14.3495C43.9461 14.3192 43.8522 14.3071 43.7599 14.3071C43.5358 14.3071 43.4222 14.4086 43.4222 14.5555C43.4222 14.8325 43.9582 14.9294 43.9582 15.3564C43.9582 15.6805 43.6811 16.003 43.1209 16.003C42.9952 16.003 42.8923 15.9909 42.7969 15.9712L42.8665 15.6138C42.9604 15.6441 43.0634 15.6638 43.1663 15.6638C43.3919 15.6638 43.5388 15.5745 43.5388 15.4003C43.5388 15.1157 43.0058 15.0612 43.0058 14.5994C43.0058 14.2602 43.2693 13.9922 43.7826 13.9922C43.9083 13.9922 44.0112 14.0043 44.1066 14.024L44.0309 14.3495Z" fill="#044896"/>
<path fill-rule="evenodd" clip-rule="evenodd" d="M45.6433 14.3547H45.1603L44.9847 15.3026C44.9362 15.5721 44.9741 15.6448 45.1452 15.6448C45.2481 15.6448 45.3238 15.6342 45.3965 15.6175L45.3662 15.9567C45.2481 15.9839 45.1073 15.9991 44.9968 15.9991C44.6001 15.9991 44.4895 15.8083 44.5773 15.3571L44.7636 14.3547H44.4062L44.4714 14.0322H44.8242L44.9392 13.4175L45.3541 13.3281L45.2209 14.0322H45.7084L45.6433 14.3547Z" fill="#044896"/>
<path fill-rule="evenodd" clip-rule="evenodd" d="M46.2591 15.9633H45.8594L46.2213 14.0312H46.6225L46.2591 15.9633ZM46.5074 13.7435C46.3621 13.7435 46.2591 13.6269 46.2637 13.4952C46.2682 13.3392 46.3969 13.2227 46.5423 13.2227C46.6816 13.2227 46.7845 13.3362 46.7815 13.4679C46.777 13.6269 46.6482 13.7435 46.5074 13.7435Z" fill="#044896"/>
<path fill-rule="evenodd" clip-rule="evenodd" d="M48.3164 14.4144C48.224 14.3705 48.1181 14.3433 47.9924 14.3433C47.5502 14.3433 47.3489 14.849 47.3489 15.2533C47.3489 15.4516 47.417 15.6348 47.7138 15.6348C47.8516 15.6348 47.9954 15.603 48.109 15.5485L48.0787 15.915C47.9454 15.9604 47.7789 15.9998 47.6002 15.9998C47.1005 15.9998 46.9219 15.7318 46.9219 15.3472C46.9219 14.6083 47.3368 13.998 48.0181 13.998C48.1665 13.998 48.2892 14.0177 48.4103 14.0526L48.3164 14.4144Z" fill="#044896"/>
<path fill-rule="evenodd" clip-rule="evenodd" d="M49.7028 14.3495C49.6195 14.3192 49.5241 14.3071 49.4318 14.3071C49.2077 14.3071 49.0941 14.4086 49.0941 14.5555C49.0941 14.8325 49.6301 14.9294 49.6301 15.3564C49.6301 15.6805 49.3515 16.003 48.7928 16.003C48.6671 16.003 48.5641 15.9909 48.4688 15.9712L48.5384 15.6138C48.6338 15.6441 48.7352 15.6638 48.8382 15.6638C49.0623 15.6638 49.2122 15.5745 49.2122 15.4003C49.2122 15.1157 48.6792 15.0612 48.6792 14.5994C48.6792 14.2602 48.9412 13.9922 49.456 13.9922C49.5817 13.9922 49.6831 14.0043 49.7785 14.024L49.7028 14.3495Z" fill="#044896"/>
<path fill-rule="evenodd" clip-rule="evenodd" d="M52.4994 13.7126C52.3752 13.6702 52.2405 13.6506 52.142 13.6506C51.7817 13.6506 51.6287 13.8489 51.6287 14.0442C51.6287 14.4833 52.3934 14.4939 52.3934 15.1208C52.3934 15.6174 51.9634 16.0035 51.3547 16.0035C51.2063 16.0035 51.0382 15.9914 50.9141 15.9521L50.9898 15.5523C51.1003 15.5993 51.2517 15.6341 51.385 15.6341C51.7514 15.6341 51.9513 15.4584 51.9513 15.1904C51.9513 14.771 51.1942 14.7665 51.1942 14.1411C51.1942 13.6854 51.5288 13.3008 52.1693 13.3008C52.3056 13.3008 52.4282 13.3099 52.5721 13.3371L52.4994 13.7126Z" fill="#044896"/>
<mask id="mask1_308_10289" style="mask-type:luminance" maskUnits="userSpaceOnUse" x="52" y="13" width="3" height="4">
<path d="M52.1484 13.6172H54.8618V16.9468H52.1484V13.6172Z" fill="white"/>
</mask>
<g mask="url(#mask1_308_10289)">
<path fill-rule="evenodd" clip-rule="evenodd" d="M53.1467 16.5897C52.9105 16.8274 52.6713 16.944 52.4381 16.944C52.3427 16.944 52.2413 16.9319 52.1641 16.9122L52.2337 16.5473C52.3064 16.5746 52.3851 16.5867 52.4654 16.5867C52.5941 16.5867 52.7394 16.5155 52.8575 16.3913C52.9908 16.252 53.0514 16.0885 53.0514 15.8281C53.0514 15.2996 52.9378 14.6622 52.7697 14.0323H53.2149C53.333 14.4987 53.4208 15.0771 53.4208 15.4904C53.4208 15.548 53.4087 15.6267 53.3981 15.6918H53.4011C53.6797 15.1831 53.9235 14.6501 54.2006 13.9551L54.5852 14.0641C54.0643 15.3027 53.6101 16.1203 53.1467 16.5897Z" fill="#044896"/>
</g>
<path fill-rule="evenodd" clip-rule="evenodd" d="M55.7575 14.3495C55.6742 14.3192 55.5788 14.3071 55.4864 14.3071C55.2623 14.3071 55.1488 14.4086 55.1488 14.5555C55.1488 14.8325 55.6848 14.9294 55.6848 15.3564C55.6848 15.6805 55.4077 16.003 54.8475 16.003C54.7218 16.003 54.6188 15.9909 54.5234 15.9712L54.5931 15.6138C54.6885 15.6441 54.7914 15.6638 54.8944 15.6638C55.1185 15.6638 55.2669 15.5745 55.2669 15.4003C55.2669 15.1157 54.7339 15.0612 54.7339 14.5994C54.7339 14.2602 54.9959 13.9922 55.5107 13.9922C55.6348 13.9922 55.7378 14.0043 55.8332 14.024L55.7575 14.3495Z" fill="#044896"/>
<path fill-rule="evenodd" clip-rule="evenodd" d="M57.3777 14.3547H56.8947L56.719 15.3026C56.6706 15.5721 56.7084 15.6448 56.8795 15.6448C56.9825 15.6448 57.0582 15.6342 57.1309 15.6175L57.1006 15.9567C56.9825 15.9839 56.8417 15.9991 56.7311 15.9991C56.3344 15.9991 56.2254 15.8083 56.3117 15.3571L56.4995 14.3547H56.1406L56.2057 14.0322H56.56L56.6736 13.4175L57.0885 13.3281L56.9552 14.0322H57.4428L57.3777 14.3547Z" fill="#044896"/>
<path fill-rule="evenodd" clip-rule="evenodd" d="M58.024 15.1399C58.0164 15.1899 58.0089 15.2762 58.0089 15.3337C58.0089 15.5987 58.1043 15.6684 58.3904 15.6684C58.5691 15.6684 58.7629 15.626 58.931 15.5548V15.8818C58.7372 15.956 58.504 16.003 58.2557 16.003C57.7999 16.003 57.6016 15.7971 57.6016 15.361C57.6016 14.5872 58.0437 13.9922 58.6524 13.9922C59.0869 13.9922 59.2353 14.2178 59.2353 14.4479C59.2353 14.8825 58.8038 15.1127 58.024 15.1399ZM58.607 14.3041C58.3329 14.3041 58.1497 14.5555 58.074 14.8522C58.5918 14.8325 58.8356 14.7235 58.8356 14.5025C58.8356 14.3738 58.7478 14.3041 58.607 14.3041Z" fill="#044896"/>
<path fill-rule="evenodd" clip-rule="evenodd" d="M62.0941 15.9647H61.6944L61.923 14.7397C61.976 14.4642 61.926 14.3476 61.7898 14.3476C61.5384 14.3476 61.1463 14.9305 61.0403 15.5059L60.9524 15.9647H60.5572L60.7844 14.7397C60.8374 14.4642 60.7919 14.3476 60.6511 14.3476C60.3665 14.3476 59.9894 15.0077 59.8986 15.5059L59.8138 15.9647H59.4141L59.6048 14.9532C59.6654 14.6307 59.726 14.2976 59.7684 14.0326H60.1651C60.1409 14.1568 60.0894 14.3673 59.9698 14.7201L59.9788 14.7246C60.153 14.343 60.4301 13.9902 60.8071 13.9902C61.0433 13.9902 61.1886 14.125 61.1886 14.3703C61.1886 14.4717 61.1614 14.5656 61.1129 14.7322H61.1205C61.2946 14.343 61.5732 13.9902 61.9488 13.9902C62.2955 13.9902 62.4136 14.2507 62.3409 14.6428L62.0941 15.9647Z" fill="#044896"/>
<mask id="mask2_308_10289" style="mask-type:luminance" maskUnits="userSpaceOnUse" x="62" y="13" width="2" height="4">
<path d="M62.6172 13.6172H63.986V16.3305H62.6172V13.6172Z" fill="white"/>
</mask>
<g mask="url(#mask2_308_10289)">
<path fill-rule="evenodd" clip-rule="evenodd" d="M63.9122 14.3495C63.8289 14.3192 63.7335 14.3071 63.6427 14.3071C63.4171 14.3071 63.3035 14.4086 63.3035 14.5555C63.3035 14.8325 63.841 14.9294 63.841 15.3564C63.841 15.6805 63.5624 16.003 63.0022 16.003C62.8765 16.003 62.7751 15.9909 62.6797 15.9712L62.7478 15.6138C62.8432 15.6441 62.9462 15.6638 63.0491 15.6638C63.2732 15.6638 63.4216 15.5745 63.4216 15.4003C63.4216 15.1157 62.8886 15.0612 62.8886 14.5994C62.8886 14.2602 63.1506 13.9922 63.6654 13.9922C63.7911 13.9922 63.8925 14.0043 63.9879 14.024L63.9122 14.3495Z" fill="#044896"/>
</g>
<path fill-rule="evenodd" clip-rule="evenodd" d="M24.4695 13.8134C24.2712 13.7241 24.0349 13.6741 23.8305 13.6741C23.1446 13.6741 22.6843 14.2601 22.6843 14.9491C22.6843 15.2913 22.8675 15.6259 23.3733 15.6259C23.5368 15.6259 23.6746 15.5986 23.8078 15.5593L23.9865 14.6114H24.3893L24.1576 15.85C23.8911 15.9514 23.5716 16.0029 23.3006 16.0029C22.5738 16.0029 22.2422 15.582 22.2422 14.999C22.2422 14.0194 22.9387 13.3047 23.876 13.3047C24.1273 13.3047 24.3741 13.3395 24.5922 13.4092L24.4695 13.8134Z" fill="#044896"/>
<path fill-rule="evenodd" clip-rule="evenodd" d="M25.1334 15.1399C25.1258 15.1899 25.1182 15.2762 25.1182 15.3337C25.1182 15.5987 25.2136 15.6684 25.4983 15.6684C25.677 15.6684 25.8723 15.626 26.0388 15.5548V15.8818C25.845 15.956 25.6134 16.003 25.3651 16.003C24.9093 16.003 24.7109 15.7971 24.7109 15.361C24.7109 14.5872 25.1531 13.9922 25.7618 13.9922C26.1948 13.9922 26.3432 14.2178 26.3432 14.4479C26.3432 14.8825 25.9132 15.1127 25.1334 15.1399ZM25.7163 14.3041C25.4423 14.3041 25.2591 14.5555 25.1834 14.8522C25.7012 14.8325 25.945 14.7235 25.945 14.5025C25.945 14.3738 25.8572 14.3041 25.7163 14.3041Z" fill="#044896"/>
<path fill-rule="evenodd" clip-rule="evenodd" d="M28.0878 15.9647H27.6881L27.9212 14.7397C27.9742 14.4642 27.9243 14.3476 27.7759 14.3476C27.4715 14.3476 27.0991 15.0395 27.0143 15.5059L26.931 15.9647H26.5312L26.722 14.9532C26.7826 14.6307 26.8432 14.2931 26.8856 14.0326H27.2808C27.258 14.1538 27.2096 14.3597 27.0869 14.7201L27.0945 14.7246C27.2732 14.343 27.5548 13.9902 27.9364 13.9902C28.2937 13.9902 28.4073 14.2507 28.3361 14.6428L28.0878 15.9647Z" fill="#044896"/>
<path fill-rule="evenodd" clip-rule="evenodd" d="M29.0943 15.1399C29.0868 15.1899 29.0792 15.2762 29.0792 15.3337C29.0792 15.5987 29.1746 15.6684 29.4592 15.6684C29.6379 15.6684 29.8332 15.626 29.9998 15.5548V15.8818C29.806 15.956 29.5743 16.003 29.326 16.003C28.8702 16.003 28.6719 15.7971 28.6719 15.361C28.6719 14.5872 29.114 13.9922 29.7227 13.9922C30.1557 13.9922 30.3041 14.2178 30.3041 14.4479C30.3041 14.8825 29.8741 15.1127 29.0943 15.1399ZM29.6773 14.3041C29.4032 14.3041 29.22 14.5555 29.1443 14.8522C29.6621 14.8325 29.9044 14.7235 29.9044 14.5025C29.9044 14.3738 29.8181 14.3041 29.6773 14.3041Z" fill="#044896"/>
<path fill-rule="evenodd" clip-rule="evenodd" d="M31.8238 14.3944C31.5073 14.3006 31.153 14.9456 31.0425 15.5361L30.9622 15.9646H30.5625L30.7533 14.9532C30.8032 14.6821 30.8684 14.3202 30.9168 14.0326H31.3059C31.2787 14.1915 31.2287 14.3823 31.1258 14.6852L31.1333 14.6897C31.3438 14.2461 31.5603 13.9357 31.9071 13.9932L31.8238 14.3944Z" fill="#044896"/>
<path fill-rule="evenodd" clip-rule="evenodd" d="M33.4622 15.9643H33.0655C33.1003 15.8053 33.1654 15.5752 33.2684 15.2572L33.2593 15.2526C33.1154 15.5449 32.8414 16.0067 32.4159 16.0067C32.1373 16.0067 31.9844 15.8204 31.9844 15.4086C31.9844 14.6894 32.3538 14.002 33.1836 14.002C33.4046 14.002 33.6181 14.0201 33.812 14.0595C33.6257 15.0422 33.5424 15.4858 33.4622 15.9643ZM33.1154 14.3245C32.6097 14.3245 32.3962 14.8877 32.3962 15.3344C32.3962 15.5555 32.4613 15.6494 32.5673 15.6494C32.8868 15.6494 33.2487 14.9377 33.3335 14.4986L33.3592 14.3593C33.2911 14.3396 33.2108 14.3245 33.1154 14.3245Z" fill="#044896"/>
<path fill-rule="evenodd" clip-rule="evenodd" d="M34.431 15.9642H34.0312L34.5233 13.3008H34.9231L34.431 15.9642Z" fill="#044896"/>
<path fill-rule="evenodd" clip-rule="evenodd" d="M37.2673 15.9644H36L36.4966 13.2949H36.9039L36.4754 15.5949H37.3385L37.2673 15.9644Z" fill="#044896"/>
<path fill-rule="evenodd" clip-rule="evenodd" d="M38.349 16.003C37.8493 16.003 37.6328 15.7501 37.6328 15.311C37.6328 14.5206 38.1355 13.9922 38.7472 13.9922C39.2651 13.9922 39.471 14.2844 39.471 14.6963C39.471 15.4897 38.9274 16.003 38.349 16.003ZM38.6867 14.3465C38.299 14.3465 38.0507 14.8007 38.0507 15.2444C38.0507 15.4973 38.1507 15.6441 38.405 15.6441C38.7639 15.6441 39.0485 15.2489 39.0485 14.7432C39.0485 14.4858 38.938 14.3465 38.6867 14.3465Z" fill="#044896"/>
<mask id="mask3_308_10289" style="mask-type:luminance" maskUnits="userSpaceOnUse" x="39" y="13" width="3" height="4">
<path d="M39.3594 13.6172H41.6851V16.9468H39.3594V13.6172Z" fill="white"/>
</mask>
<g mask="url(#mask3_308_10289)">
<path fill-rule="evenodd" clip-rule="evenodd" d="M41.2018 16.1157C41.111 16.6093 40.8066 16.947 40.0768 16.947C39.8633 16.947 39.6907 16.9167 39.5469 16.8698L39.6423 16.4776C39.7907 16.5518 39.9799 16.5896 40.1525 16.5896C40.5296 16.5896 40.7491 16.4428 40.8248 16.0461C40.8748 15.7811 40.9202 15.6342 41.0383 15.2678H41.0307C40.8945 15.5449 40.6204 16.0067 40.1934 16.0067C39.9163 16.0067 39.7634 15.8204 39.7634 15.4086C39.7634 14.6894 40.1374 14.002 40.9626 14.002C41.1837 14.002 41.3972 14.0201 41.591 14.0595L41.2018 16.1157ZM40.8945 14.3245C40.3872 14.3245 40.1752 14.8877 40.1752 15.3344C40.1752 15.5555 40.2388 15.6494 40.3463 15.6494C40.6658 15.6494 41.0277 14.9377 41.111 14.4986L41.1382 14.3593C41.0701 14.3396 40.9899 14.3245 40.8945 14.3245Z" fill="#044896"/>
</g>
<path fill-rule="evenodd" clip-rule="evenodd" d="M42.2122 15.9633H41.8125L42.1744 14.0312H42.5741L42.2122 15.9633ZM42.459 13.7435C42.3152 13.7435 42.2122 13.6269 42.2168 13.4952C42.2198 13.3392 42.35 13.2227 42.4939 13.2227C42.6347 13.2227 42.7376 13.3362 42.7331 13.4679C42.7301 13.6269 42.6014 13.7435 42.459 13.7435Z" fill="#044896"/>
<path fill-rule="evenodd" clip-rule="evenodd" d="M44.0309 14.3495C43.9461 14.3192 43.8522 14.3071 43.7599 14.3071C43.5358 14.3071 43.4222 14.4086 43.4222 14.5555C43.4222 14.8325 43.9582 14.9294 43.9582 15.3564C43.9582 15.6805 43.6811 16.003 43.1209 16.003C42.9952 16.003 42.8923 15.9909 42.7969 15.9712L42.8665 15.6138C42.9604 15.6441 43.0634 15.6638 43.1663 15.6638C43.3919 15.6638 43.5388 15.5745 43.5388 15.4003C43.5388 15.1157 43.0058 15.0612 43.0058 14.5994C43.0058 14.2602 43.2693 13.9922 43.7826 13.9922C43.9083 13.9922 44.0112 14.0043 44.1066 14.024L44.0309 14.3495Z" fill="#044896"/>
<path fill-rule="evenodd" clip-rule="evenodd" d="M45.6433 14.3547H45.1603L44.9847 15.3026C44.9362 15.5721 44.9741 15.6448 45.1452 15.6448C45.2481 15.6448 45.3238 15.6342 45.3965 15.6175L45.3662 15.9567C45.2481 15.9839 45.1073 15.9991 44.9968 15.9991C44.6001 15.9991 44.4895 15.8083 44.5773 15.3571L44.7636 14.3547H44.4062L44.4714 14.0322H44.8242L44.9392 13.4175L45.3541 13.3281L45.2209 14.0322H45.7084L45.6433 14.3547Z" fill="#044896"/>
<path fill-rule="evenodd" clip-rule="evenodd" d="M46.2591 15.9633H45.8594L46.2213 14.0312H46.6225L46.2591 15.9633ZM46.5074 13.7435C46.3621 13.7435 46.2591 13.6269 46.2637 13.4952C46.2682 13.3392 46.3969 13.2227 46.5423 13.2227C46.6816 13.2227 46.7845 13.3362 46.7815 13.4679C46.777 13.6269 46.6482 13.7435 46.5074 13.7435Z" fill="#044896"/>
<path fill-rule="evenodd" clip-rule="evenodd" d="M48.3164 14.4144C48.224 14.3705 48.1181 14.3433 47.9924 14.3433C47.5502 14.3433 47.3489 14.849 47.3489 15.2533C47.3489 15.4516 47.417 15.6348 47.7138 15.6348C47.8516 15.6348 47.9954 15.603 48.109 15.5485L48.0787 15.915C47.9454 15.9604 47.7789 15.9998 47.6002 15.9998C47.1005 15.9998 46.9219 15.7318 46.9219 15.3472C46.9219 14.6083 47.3368 13.998 48.0181 13.998C48.1665 13.998 48.2892 14.0177 48.4103 14.0526L48.3164 14.4144Z" fill="#044896"/>
<path fill-rule="evenodd" clip-rule="evenodd" d="M49.7028 14.3495C49.6195 14.3192 49.5241 14.3071 49.4318 14.3071C49.2077 14.3071 49.0941 14.4086 49.0941 14.5555C49.0941 14.8325 49.6301 14.9294 49.6301 15.3564C49.6301 15.6805 49.3515 16.003 48.7928 16.003C48.6671 16.003 48.5641 15.9909 48.4688 15.9712L48.5384 15.6138C48.6338 15.6441 48.7352 15.6638 48.8382 15.6638C49.0623 15.6638 49.2122 15.5745 49.2122 15.4003C49.2122 15.1157 48.6792 15.0612 48.6792 14.5994C48.6792 14.2602 48.9412 13.9922 49.456 13.9922C49.5817 13.9922 49.6831 14.0043 49.7785 14.024L49.7028 14.3495Z" fill="#044896"/>
<path fill-rule="evenodd" clip-rule="evenodd" d="M52.4994 13.7126C52.3752 13.6702 52.2405 13.6506 52.142 13.6506C51.7817 13.6506 51.6287 13.8489 51.6287 14.0442C51.6287 14.4833 52.3934 14.4939 52.3934 15.1208C52.3934 15.6174 51.9634 16.0035 51.3547 16.0035C51.2063 16.0035 51.0382 15.9914 50.9141 15.9521L50.9898 15.5523C51.1003 15.5993 51.2517 15.6341 51.385 15.6341C51.7514 15.6341 51.9513 15.4584 51.9513 15.1904C51.9513 14.771 51.1942 14.7665 51.1942 14.1411C51.1942 13.6854 51.5288 13.3008 52.1693 13.3008C52.3056 13.3008 52.4282 13.3099 52.5721 13.3371L52.4994 13.7126Z" fill="#044896"/>
<mask id="mask4_308_10289" style="mask-type:luminance" maskUnits="userSpaceOnUse" x="52" y="13" width="3" height="4">
<path d="M52.1484 13.6172H54.8618V16.9468H52.1484V13.6172Z" fill="white"/>
</mask>
<g mask="url(#mask4_308_10289)">
<path fill-rule="evenodd" clip-rule="evenodd" d="M53.1467 16.5897C52.9105 16.8274 52.6713 16.944 52.4381 16.944C52.3427 16.944 52.2413 16.9319 52.1641 16.9122L52.2337 16.5473C52.3064 16.5746 52.3851 16.5867 52.4654 16.5867C52.5941 16.5867 52.7394 16.5155 52.8575 16.3913C52.9908 16.252 53.0514 16.0885 53.0514 15.8281C53.0514 15.2996 52.9378 14.6622 52.7697 14.0323H53.2149C53.333 14.4987 53.4208 15.0771 53.4208 15.4904C53.4208 15.548 53.4087 15.6267 53.3981 15.6918H53.4011C53.6797 15.1831 53.9235 14.6501 54.2006 13.9551L54.5852 14.0641C54.0643 15.3027 53.6101 16.1203 53.1467 16.5897Z" fill="#044896"/>
</g>
<path fill-rule="evenodd" clip-rule="evenodd" d="M55.7575 14.3495C55.6742 14.3192 55.5788 14.3071 55.4864 14.3071C55.2623 14.3071 55.1488 14.4086 55.1488 14.5555C55.1488 14.8325 55.6848 14.9294 55.6848 15.3564C55.6848 15.6805 55.4077 16.003 54.8475 16.003C54.7218 16.003 54.6188 15.9909 54.5234 15.9712L54.5931 15.6138C54.6885 15.6441 54.7914 15.6638 54.8944 15.6638C55.1185 15.6638 55.2669 15.5745 55.2669 15.4003C55.2669 15.1157 54.7339 15.0612 54.7339 14.5994C54.7339 14.2602 54.9959 13.9922 55.5107 13.9922C55.6348 13.9922 55.7378 14.0043 55.8332 14.024L55.7575 14.3495Z" fill="#044896"/>
<path fill-rule="evenodd" clip-rule="evenodd" d="M57.3777 14.3547H56.8947L56.719 15.3026C56.6706 15.5721 56.7084 15.6448 56.8795 15.6448C56.9825 15.6448 57.0582 15.6342 57.1309 15.6175L57.1006 15.9567C56.9825 15.9839 56.8417 15.9991 56.7311 15.9991C56.3344 15.9991 56.2254 15.8083 56.3117 15.3571L56.4995 14.3547H56.1406L56.2057 14.0322H56.56L56.6736 13.4175L57.0885 13.3281L56.9552 14.0322H57.4428L57.3777 14.3547Z" fill="#044896"/>
<path fill-rule="evenodd" clip-rule="evenodd" d="M58.024 15.1399C58.0164 15.1899 58.0089 15.2762 58.0089 15.3337C58.0089 15.5987 58.1043 15.6684 58.3904 15.6684C58.5691 15.6684 58.7629 15.626 58.931 15.5548V15.8818C58.7372 15.956 58.504 16.003 58.2557 16.003C57.7999 16.003 57.6016 15.7971 57.6016 15.361C57.6016 14.5872 58.0437 13.9922 58.6524 13.9922C59.0869 13.9922 59.2353 14.2178 59.2353 14.4479C59.2353 14.8825 58.8038 15.1127 58.024 15.1399ZM58.607 14.3041C58.3329 14.3041 58.1497 14.5555 58.074 14.8522C58.5918 14.8325 58.8356 14.7235 58.8356 14.5025C58.8356 14.3738 58.7478 14.3041 58.607 14.3041Z" fill="#044896"/>
<path fill-rule="evenodd" clip-rule="evenodd" d="M62.0941 15.9647H61.6944L61.923 14.7397C61.976 14.4642 61.926 14.3476 61.7898 14.3476C61.5384 14.3476 61.1463 14.9305 61.0403 15.5059L60.9524 15.9647H60.5572L60.7844 14.7397C60.8374 14.4642 60.7919 14.3476 60.6511 14.3476C60.3665 14.3476 59.9894 15.0077 59.8986 15.5059L59.8138 15.9647H59.4141L59.6048 14.9532C59.6654 14.6307 59.726 14.2976 59.7684 14.0326H60.1651C60.1409 14.1568 60.0894 14.3673 59.9698 14.7201L59.9788 14.7246C60.153 14.343 60.4301 13.9902 60.8071 13.9902C61.0433 13.9902 61.1886 14.125 61.1886 14.3703C61.1886 14.4717 61.1614 14.5656 61.1129 14.7322H61.1205C61.2946 14.343 61.5732 13.9902 61.9488 13.9902C62.2955 13.9902 62.4136 14.2507 62.3409 14.6428L62.0941 15.9647Z" fill="#044896"/>
<mask id="mask5_308_10289" style="mask-type:luminance" maskUnits="userSpaceOnUse" x="62" y="13" width="2" height="4">
<path d="M62.6172 13.6172H63.986V16.3305H62.6172V13.6172Z" fill="white"/>
</mask>
<g mask="url(#mask5_308_10289)">
<path fill-rule="evenodd" clip-rule="evenodd" d="M63.9122 14.3495C63.8289 14.3192 63.7335 14.3071 63.6427 14.3071C63.4171 14.3071 63.3035 14.4086 63.3035 14.5555C63.3035 14.8325 63.841 14.9294 63.841 15.3564C63.841 15.6805 63.5624 16.003 63.0022 16.003C62.8765 16.003 62.7751 15.9909 62.6797 15.9712L62.7478 15.6138C62.8432 15.6441 62.9462 15.6638 63.0491 15.6638C63.2732 15.6638 63.4216 15.5745 63.4216 15.4003C63.4216 15.1157 62.8886 15.0612 62.8886 14.5994C62.8886 14.2602 63.1506 13.9922 63.6654 13.9922C63.7911 13.9922 63.8925 14.0043 63.9879 14.024L63.9122 14.3495Z" fill="#044896"/>
</g>
<path fill-rule="evenodd" clip-rule="evenodd" d="M34.2243 8.94655L35.5871 1.95117H33.2129L31.4141 11.2738L35.7461 11.2783L36.1791 8.94655H34.2243Z" fill="#044896"/>
<path fill-rule="evenodd" clip-rule="evenodd" d="M41.1952 4.01364C41.5858 4.01364 42.1461 4.10752 42.4837 4.22714L42.888 2.08007C42.3929 1.99982 41.8599 1.94531 41.2739 1.94531C38.6968 1.94531 37.4855 3.48066 37.4855 5.20074C37.4855 7.45531 39.7764 7.42957 39.7764 8.38954C39.7764 8.87104 39.4388 9.13753 38.7105 9.13753C38.2017 9.13753 37.4991 9.01791 37.0828 8.85741L36.6406 11.162C37.1221 11.2558 37.799 11.3255 38.4743 11.3255C40.7788 11.3255 42.3929 9.79165 42.3929 7.93681C42.3929 5.74886 40.0899 5.70798 40.0899 4.74801C40.0899 4.32102 40.376 4.01364 41.1952 4.01364Z" fill="#044896"/>
<path fill-rule="evenodd" clip-rule="evenodd" d="M29.5472 1.95312C26.0071 1.95312 23.7344 4.6044 23.7344 7.8568C23.7344 9.89334 24.8049 11.2985 27.5092 11.2985C28.5797 11.2985 29.7092 11.1016 30.6117 10.714L31.4793 6.21092H29.102L28.5933 8.95608C28.3843 9.00907 28.136 9.0227 27.9407 9.0227C26.7521 9.0227 26.3205 8.36707 26.3205 7.49643C26.3205 5.87629 27.3138 4.20315 29.3383 4.20315C29.9076 4.20315 30.5299 4.30915 31.0871 4.48176C31.1431 4.49841 31.2022 4.51658 31.2627 4.53778C31.4626 4.60592 31.6352 4.68011 31.7579 4.74673L32.2409 2.31198C31.4263 2.0894 30.4481 1.95312 29.5472 1.95312Z" fill="#044896"/>
<path fill-rule="evenodd" clip-rule="evenodd" d="M11.7618 1.98132L11.1244 5.07322H15.523C11.8799 10.4727 4.64682 9.55663 2.73445 7.3172C1.08857 5.38968 2.51036 2.08883 7.39047 0.0507812C2.56032 1.52102 -0.151522 5.38211 1.44137 7.98039C3.24775 10.9284 8.87888 12.1579 13.8831 10.7271C17.2279 9.55057 18.6542 7.90469 19.1766 7.01588L18.3575 11.2979H21.6447L23.4284 1.98132H11.7618Z" fill="#FABE13"/>
</svg>
