<svg width="16" height="16" viewBox="0 0 16 16" fill="none" xmlns="http://www.w3.org/2000/svg">
<path d="M8 -0.00390625C6.41775 -0.00390625 4.87103 0.465286 3.55544 1.34434C2.23985 2.22339 1.21447 3.47282 0.608967 4.93463C0.00346625 6.39643 -0.15496 8.00497 0.153721 9.55681C0.462403 11.1087 1.22433 12.5341 2.34315 13.6529C3.46197 14.7718 4.88743 15.5337 6.43928 15.8424C7.99113 16.1511 9.59966 15.9926 11.0615 15.3871C12.5233 14.7816 13.7727 13.7562 14.6518 12.4407C15.5308 11.1251 16 9.57834 16 7.99609C16 5.87436 15.1571 3.83953 13.6569 2.33924C12.1566 0.838948 10.1217 -0.00390625 8 -0.00390625ZM6.85715 11.1904L4 8.33324L4.90857 7.42466L6.85715 9.37323L11.0914 5.13895L12.0034 6.04524L6.85715 11.1904Z" fill="#BBAEA5"/>
</svg>
